<svg width="587" height="416" viewBox="0 0 587 416" fill="none" xmlns="http://www.w3.org/2000/svg">
<path fill-rule="evenodd" clip-rule="evenodd" d="M488.903 0L492.31 16.1877L486.361 140.777L482.954 124.589L488.903 0Z" fill="#6580E1" fill-opacity="0.6"/>
<path fill-rule="evenodd" clip-rule="evenodd" d="M492.309 16.1864L493.927 16.5765L487.978 141.165L486.36 140.775L492.309 16.1864Z" fill="#6580E1" fill-opacity="0.6"/>
<path fill-rule="evenodd" clip-rule="evenodd" d="M493.928 16.5767L499.379 13.6936L493.43 138.283L487.979 141.166L493.928 16.5767Z" fill="#6580E1" fill-opacity="0.6"/>
<path fill-rule="evenodd" clip-rule="evenodd" d="M499.38 13.6936L505.001 19.6498L499.052 144.239L493.431 138.283L499.38 13.6936Z" fill="#6580E1" fill-opacity="0.6"/>
<path fill-rule="evenodd" clip-rule="evenodd" d="M505 19.6511L509.77 18.4358L503.821 143.025L499.051 144.24L505 19.6511Z" fill="#6580E1" fill-opacity="0.6"/>
<path fill-rule="evenodd" clip-rule="evenodd" d="M509.771 18.434L516.5 14.014L510.551 138.603L503.822 143.023L509.771 18.434Z" fill="#6580E1" fill-opacity="0.6"/>
<path fill-rule="evenodd" clip-rule="evenodd" d="M516.5 14.014L521.015 30.5791L515.066 155.168L510.551 138.603L516.5 14.014Z" fill="#6580E1" fill-opacity="0.6"/>
<path fill-rule="evenodd" clip-rule="evenodd" d="M521.013 30.5799L542.052 27.9781L536.103 152.567L515.064 155.169L521.013 30.5799Z" fill="#6580E1" fill-opacity="0.6"/>
<path fill-rule="evenodd" clip-rule="evenodd" d="M542.052 27.9781L562.58 34.0244L556.631 158.613L536.104 152.567L542.052 27.9781Z" fill="#6580E1" fill-opacity="0.6"/>
<path fill-rule="evenodd" clip-rule="evenodd" d="M562.581 34.0249L568.033 34.2805L562.084 158.869L556.632 158.614L562.581 34.0249Z" fill="#6580E1" fill-opacity="0.6"/>
<path fill-rule="evenodd" clip-rule="evenodd" d="M568.032 34.2809L567.606 41.0706L561.657 165.66L562.083 158.87L568.032 34.2809Z" fill="#6580E1" fill-opacity="0.6"/>
<path fill-rule="evenodd" clip-rule="evenodd" d="M567.606 41.0706L574.591 45.5502L568.642 170.139L561.657 165.66L567.606 41.0706Z" fill="#6580E1" fill-opacity="0.6"/>
<path fill-rule="evenodd" clip-rule="evenodd" d="M574.59 45.5504L577.571 50.1606L571.622 174.75L568.641 170.139L574.59 45.5504Z" fill="#6580E1" fill-opacity="0.6"/>
<path fill-rule="evenodd" clip-rule="evenodd" d="M577.571 50.1593L582.682 51.8012L576.733 176.39L571.622 174.748L577.571 50.1593Z" fill="#6580E1" fill-opacity="0.6"/>
<path fill-rule="evenodd" clip-rule="evenodd" d="M582.682 51.8011L584.13 55.3838L578.181 179.973L576.733 176.39L582.682 51.8011Z" fill="#6580E1" fill-opacity="0.6"/>
<path fill-rule="evenodd" clip-rule="evenodd" d="M584.13 55.3842L581.575 59.2714L575.626 183.86L578.181 179.973L584.13 55.3842Z" fill="#6580E1" fill-opacity="0.6"/>
<path fill-rule="evenodd" clip-rule="evenodd" d="M581.575 59.2711L586.685 66.8419L580.736 191.431L575.626 183.86L581.575 59.2711Z" fill="#6580E1" fill-opacity="0.6"/>
<path fill-rule="evenodd" clip-rule="evenodd" d="M586.686 66.843L577.827 72.6038L571.878 197.193L580.737 191.432L586.686 66.843Z" fill="#6580E1" fill-opacity="0.6"/>
<path fill-rule="evenodd" clip-rule="evenodd" d="M577.827 72.6027L579.616 75.8453L573.667 200.434L571.878 197.192L577.827 72.6027Z" fill="#6580E1" fill-opacity="0.6"/>
<path fill-rule="evenodd" clip-rule="evenodd" d="M579.617 75.8445L583.62 77.6905L577.671 202.279L573.668 200.433L579.617 75.8445Z" fill="#6580E1" fill-opacity="0.6"/>
<path fill-rule="evenodd" clip-rule="evenodd" d="M583.618 77.6923L572.034 86.4059L566.085 210.995L577.67 202.281L583.618 77.6923Z" fill="#6580E1" fill-opacity="0.6"/>
<path fill-rule="evenodd" clip-rule="evenodd" d="M572.035 86.4045L567.18 97.2082L561.231 221.797L566.086 210.994L572.035 86.4045Z" fill="#6580E1" fill-opacity="0.6"/>
<path fill-rule="evenodd" clip-rule="evenodd" d="M567.179 97.2079L559.088 98.0475L553.139 222.636L561.23 221.797L567.179 97.2079Z" fill="#6580E1" fill-opacity="0.6"/>
<path fill-rule="evenodd" clip-rule="evenodd" d="M559.088 98.0486L554.404 101.94L548.455 226.529L553.14 222.638L559.088 98.0486Z" fill="#6580E1" fill-opacity="0.6"/>
<path fill-rule="evenodd" clip-rule="evenodd" d="M554.403 101.94L528.85 106.46L522.901 231.049L548.454 226.529L554.403 101.94Z" fill="#6580E1" fill-opacity="0.6"/>
<path fill-rule="evenodd" clip-rule="evenodd" d="M528.851 106.461L520.333 113.626L514.384 238.215L522.902 231.05L528.851 106.461Z" fill="#6580E1" fill-opacity="0.6"/>
<path fill-rule="evenodd" clip-rule="evenodd" d="M520.333 113.625L523.74 117.897L517.791 242.486L514.384 238.214L520.333 113.625Z" fill="#6580E1" fill-opacity="0.6"/>
<path fill-rule="evenodd" clip-rule="evenodd" d="M523.739 117.897L525.698 118.122L519.75 242.711L517.791 242.486L523.739 117.897Z" fill="#6580E1" fill-opacity="0.6"/>
<path fill-rule="evenodd" clip-rule="evenodd" d="M525.698 118.122L525.017 121.418L519.068 246.007L519.749 242.711L525.698 118.122Z" fill="#6580E1" fill-opacity="0.6"/>
<path fill-rule="evenodd" clip-rule="evenodd" d="M525.018 121.418L520.163 124.607L514.214 249.196L519.069 246.007L525.018 121.418Z" fill="#6580E1" fill-opacity="0.6"/>
<path fill-rule="evenodd" clip-rule="evenodd" d="M520.163 124.606L520.503 126.881L514.554 251.47L514.214 249.195L520.163 124.606Z" fill="#6580E1" fill-opacity="0.6"/>
<path fill-rule="evenodd" clip-rule="evenodd" d="M520.504 126.883L527.999 126.435L522.05 251.024L514.555 251.471L520.504 126.883Z" fill="#6580E1" fill-opacity="0.6"/>
<path fill-rule="evenodd" clip-rule="evenodd" d="M527.999 126.435L526.806 129.31L520.857 253.899L522.05 251.024L527.999 126.435Z" fill="#6580E1" fill-opacity="0.6"/>
<path fill-rule="evenodd" clip-rule="evenodd" d="M526.806 129.31L529.276 130.362L523.328 254.95L520.857 253.899L526.806 129.31Z" fill="#6580E1" fill-opacity="0.6"/>
<path fill-rule="evenodd" clip-rule="evenodd" d="M529.276 130.361L523.739 137.95L517.791 262.539L523.327 254.95L529.276 130.361Z" fill="#6580E1" fill-opacity="0.6"/>
<path fill-rule="evenodd" clip-rule="evenodd" d="M523.739 137.95L519.821 140.291L513.872 264.88L517.79 262.539L523.739 137.95Z" fill="#6580E1" fill-opacity="0.6"/>
<path fill-rule="evenodd" clip-rule="evenodd" d="M519.822 140.291L515.393 152.558L509.444 277.147L513.874 264.879L519.822 140.291Z" fill="#6580E1" fill-opacity="0.6"/>
<path fill-rule="evenodd" clip-rule="evenodd" d="M515.393 152.559L525.955 153.294L520.006 277.883L509.444 277.148L515.393 152.559Z" fill="#6580E1" fill-opacity="0.6"/>
<path fill-rule="evenodd" clip-rule="evenodd" d="M525.955 153.293L538.732 157.107L532.783 281.696L520.006 277.882L525.955 153.293Z" fill="#6580E1" fill-opacity="0.6"/>
<path fill-rule="evenodd" clip-rule="evenodd" d="M538.731 157.107L542.905 177.732L536.956 302.321L532.782 281.696L538.731 157.107Z" fill="#6580E1" fill-opacity="0.6"/>
<path fill-rule="evenodd" clip-rule="evenodd" d="M542.904 177.732L537.878 177.894L531.929 302.483L536.955 302.321L542.904 177.732Z" fill="#6580E1" fill-opacity="0.6"/>
<path fill-rule="evenodd" clip-rule="evenodd" d="M537.879 177.894L534.472 186.759L528.523 311.348L531.93 302.483L537.879 177.894Z" fill="#6580E1" fill-opacity="0.6"/>
<path fill-rule="evenodd" clip-rule="evenodd" d="M534.472 186.759L537.964 193.358L532.015 317.947L528.523 311.347L534.472 186.759Z" fill="#6580E1" fill-opacity="0.6"/>
<path fill-rule="evenodd" clip-rule="evenodd" d="M537.964 193.359L541.797 193.631L535.848 318.22L532.015 317.948L537.964 193.359Z" fill="#6580E1" fill-opacity="0.6"/>
<path fill-rule="evenodd" clip-rule="evenodd" d="M541.796 193.631L542.818 196.506L536.87 321.095L535.847 318.22L541.796 193.631Z" fill="#6580E1" fill-opacity="0.6"/>
<path fill-rule="evenodd" clip-rule="evenodd" d="M542.818 196.505L541.711 198.802L535.762 323.391L536.87 321.094L542.818 196.505Z" fill="#6580E1" fill-opacity="0.6"/>
<path fill-rule="evenodd" clip-rule="evenodd" d="M541.711 198.802L555.254 210.483L549.305 335.072L535.762 323.391L541.711 198.802Z" fill="#6580E1" fill-opacity="0.6"/>
<path fill-rule="evenodd" clip-rule="evenodd" d="M555.254 210.482L554.828 214.191L548.879 338.78L549.305 335.071L555.254 210.482Z" fill="#6580E1" fill-opacity="0.6"/>
<path fill-rule="evenodd" clip-rule="evenodd" d="M554.829 214.192L537.964 216.144L532.015 340.733L548.88 338.781L554.829 214.192Z" fill="#6580E1" fill-opacity="0.6"/>
<path fill-rule="evenodd" clip-rule="evenodd" d="M537.964 216.143L536.601 220.526L530.652 345.115L532.015 340.732L537.964 216.143Z" fill="#6580E1" fill-opacity="0.6"/>
<path fill-rule="evenodd" clip-rule="evenodd" d="M536.601 220.528L529.276 230.048L523.327 354.636L530.653 345.117L536.601 220.528Z" fill="#6580E1" fill-opacity="0.6"/>
<path fill-rule="evenodd" clip-rule="evenodd" d="M529.276 230.047L531.321 234.285L525.372 358.873L523.327 354.636L529.276 230.047Z" fill="#6580E1" fill-opacity="0.6"/>
<path fill-rule="evenodd" clip-rule="evenodd" d="M531.319 234.283L545.629 222.617L539.68 347.206L525.371 358.872L531.319 234.283Z" fill="#6580E1" fill-opacity="0.6"/>
<path fill-rule="evenodd" clip-rule="evenodd" d="M545.631 222.617L552.871 228.44L546.922 353.029L539.682 347.206L545.631 222.617Z" fill="#6580E1" fill-opacity="0.6"/>
<path fill-rule="evenodd" clip-rule="evenodd" d="M552.87 228.441L565.562 231.555L559.613 356.144L546.921 353.03L552.87 228.441Z" fill="#6580E1" fill-opacity="0.6"/>
<path fill-rule="evenodd" clip-rule="evenodd" d="M565.561 231.556L552.614 234.422L546.666 359.011L559.612 356.145L565.561 231.556Z" fill="#6580E1" fill-opacity="0.6"/>
<path fill-rule="evenodd" clip-rule="evenodd" d="M552.616 234.421L536.432 240.634L530.483 365.223L546.667 359.01L552.616 234.421Z" fill="#6580E1" fill-opacity="0.6"/>
<path fill-rule="evenodd" clip-rule="evenodd" d="M536.432 240.634L543.246 254.817L537.297 379.406L530.483 365.223L536.432 240.634Z" fill="#6580E1" fill-opacity="0.6"/>
<path fill-rule="evenodd" clip-rule="evenodd" d="M543.246 254.817L529.873 251.744L523.925 376.332L537.297 379.406L543.246 254.817Z" fill="#6580E1" fill-opacity="0.6"/>
<path fill-rule="evenodd" clip-rule="evenodd" d="M529.872 251.744L527.743 248.027L521.794 372.616L523.923 376.333L529.872 251.744Z" fill="#6580E1" fill-opacity="0.6"/>
<path fill-rule="evenodd" clip-rule="evenodd" d="M527.743 248.027L522.547 245.512L516.598 370.101L521.794 372.616L527.743 248.027Z" fill="#6580E1" fill-opacity="0.6"/>
<path fill-rule="evenodd" clip-rule="evenodd" d="M522.548 245.512L495.291 249.001L489.342 373.59L516.599 370.101L522.548 245.512Z" fill="#6580E1" fill-opacity="0.6"/>
<path fill-rule="evenodd" clip-rule="evenodd" d="M495.291 248.999V250.685L489.342 375.274V373.588L495.291 248.999Z" fill="#6580E1" fill-opacity="0.6"/>
<path fill-rule="evenodd" clip-rule="evenodd" d="M495.291 250.687L491.799 251.179L485.85 375.768L489.343 375.275L495.291 250.687Z" fill="#6580E1" fill-opacity="0.6"/>
<path fill-rule="evenodd" clip-rule="evenodd" d="M491.798 251.177L491.031 252.96L485.083 377.549L485.849 375.766L491.798 251.177Z" fill="#6580E1" fill-opacity="0.6"/>
<path fill-rule="evenodd" clip-rule="evenodd" d="M491.032 252.959L484.729 252.682L478.78 377.271L485.083 377.548L491.032 252.959Z" fill="#6580E1" fill-opacity="0.6"/>
<path fill-rule="evenodd" clip-rule="evenodd" d="M484.729 252.682L483.792 254.286L477.844 378.875L478.78 377.271L484.729 252.682Z" fill="#6580E1" fill-opacity="0.6"/>
<path fill-rule="evenodd" clip-rule="evenodd" d="M483.791 254.286L467.437 253.868L461.489 378.457L477.843 378.875L483.791 254.286Z" fill="#6580E1" fill-opacity="0.6"/>
<path fill-rule="evenodd" clip-rule="evenodd" d="M467.437 253.868L467.182 251.13L461.233 375.719L461.488 378.457L467.437 253.868Z" fill="#6580E1" fill-opacity="0.6"/>
<path fill-rule="evenodd" clip-rule="evenodd" d="M467.182 251.13L460.964 249.17L455.015 373.759L461.233 375.719L467.182 251.13Z" fill="#6580E1" fill-opacity="0.6"/>
<path fill-rule="evenodd" clip-rule="evenodd" d="M460.964 249.17L457.217 255.177L451.268 379.766L455.016 373.759L460.964 249.17Z" fill="#6580E1" fill-opacity="0.6"/>
<path fill-rule="evenodd" clip-rule="evenodd" d="M457.215 255.177L452.531 255.348L446.582 379.937L451.267 379.766L457.215 255.177Z" fill="#6580E1" fill-opacity="0.6"/>
<path fill-rule="evenodd" clip-rule="evenodd" d="M452.532 255.349L449.21 253.404L443.261 377.993L446.583 379.938L452.532 255.349Z" fill="#6580E1" fill-opacity="0.6"/>
<path fill-rule="evenodd" clip-rule="evenodd" d="M449.211 253.404L441.885 257.576L435.937 382.165L443.262 377.993L449.211 253.404Z" fill="#6580E1" fill-opacity="0.6"/>
<path fill-rule="evenodd" clip-rule="evenodd" d="M441.885 257.576L428.768 256.544L422.819 381.133L435.937 382.165L441.885 257.576Z" fill="#6580E1" fill-opacity="0.6"/>
<path fill-rule="evenodd" clip-rule="evenodd" d="M428.768 256.543L419.313 252.291L413.364 376.88L422.819 381.132L428.768 256.543Z" fill="#6580E1" fill-opacity="0.6"/>
<path fill-rule="evenodd" clip-rule="evenodd" d="M419.312 252.291L414.542 252.576L408.593 377.165L413.363 376.88L419.312 252.291Z" fill="#6580E1" fill-opacity="0.6"/>
<path fill-rule="evenodd" clip-rule="evenodd" d="M414.544 252.576L407.9 249.267L401.951 373.856L408.595 377.165L414.544 252.576Z" fill="#6580E1" fill-opacity="0.6"/>
<path fill-rule="evenodd" clip-rule="evenodd" d="M407.898 249.267L394.866 260.502L388.917 385.091L401.949 373.856L407.898 249.267Z" fill="#6580E1" fill-opacity="0.6"/>
<path fill-rule="evenodd" clip-rule="evenodd" d="M394.867 260.502L393.93 273.847L387.981 398.436L388.918 385.091L394.867 260.502Z" fill="#6580E1" fill-opacity="0.6"/>
<path fill-rule="evenodd" clip-rule="evenodd" d="M393.93 273.846L397.422 279.805L391.473 404.394L387.981 398.435L393.93 273.846Z" fill="#6580E1" fill-opacity="0.6"/>
<path fill-rule="evenodd" clip-rule="evenodd" d="M397.422 279.807L389.841 289.437L383.892 414.026L391.473 404.396L397.422 279.807Z" fill="#6580E1" fill-opacity="0.6"/>
<path fill-rule="evenodd" clip-rule="evenodd" d="M389.842 289.437L356.282 291.195L350.333 415.784L383.893 414.026L389.842 289.437Z" fill="#6580E1" fill-opacity="0.6"/>
<path fill-rule="evenodd" clip-rule="evenodd" d="M356.282 291.195L349.382 281.312L343.433 405.9L350.333 415.784L356.282 291.195Z" fill="#6580E1" fill-opacity="0.6"/>
<path fill-rule="evenodd" clip-rule="evenodd" d="M349.382 281.311L352.193 276.093L346.244 400.682L343.433 405.9L349.382 281.311Z" fill="#6580E1" fill-opacity="0.6"/>
<path fill-rule="evenodd" clip-rule="evenodd" d="M352.193 276.093L345.208 271.729L339.259 396.318L346.244 400.682L352.193 276.093Z" fill="#6580E1" fill-opacity="0.6"/>
<path fill-rule="evenodd" clip-rule="evenodd" d="M345.21 271.731L335.755 268.408L329.806 392.997L339.261 396.32L345.21 271.731Z" fill="#6580E1" fill-opacity="0.6"/>
<path fill-rule="evenodd" clip-rule="evenodd" d="M335.755 268.408L320.934 278.318L314.985 402.907L329.806 392.997L335.755 268.408Z" fill="#6580E1" fill-opacity="0.6"/>
<path fill-rule="evenodd" clip-rule="evenodd" d="M320.934 278.317L323.574 283.616L317.625 408.205L314.985 402.906L320.934 278.317Z" fill="#6580E1" fill-opacity="0.6"/>
<path fill-rule="evenodd" clip-rule="evenodd" d="M323.575 283.617L318.549 285.232L312.6 409.821L317.626 408.206L323.575 283.617Z" fill="#6580E1" fill-opacity="0.6"/>
<path fill-rule="evenodd" clip-rule="evenodd" d="M318.548 285.232L304.749 272.266L298.801 396.855L312.599 409.821L318.548 285.232Z" fill="#6580E1" fill-opacity="0.6"/>
<path fill-rule="evenodd" clip-rule="evenodd" d="M304.749 272.266L305.26 265.362L299.312 389.951L298.801 396.855L304.749 272.266Z" fill="#6580E1" fill-opacity="0.6"/>
<path fill-rule="evenodd" clip-rule="evenodd" d="M305.26 265.363L288.821 261.165L282.872 385.754L299.311 389.952L305.26 265.363Z" fill="#6580E1" fill-opacity="0.6"/>
<path fill-rule="evenodd" clip-rule="evenodd" d="M288.821 261.165L277.237 262.613L271.288 387.202L282.872 385.754L288.821 261.165Z" fill="#6580E1" fill-opacity="0.6"/>
<path fill-rule="evenodd" clip-rule="evenodd" d="M277.237 262.613L269.316 260.318L263.367 384.907L271.288 387.202L277.237 262.613Z" fill="#6580E1" fill-opacity="0.6"/>
<path fill-rule="evenodd" clip-rule="evenodd" d="M269.316 260.318L264.035 260.416L258.086 385.005L263.367 384.907L269.316 260.318Z" fill="#6580E1" fill-opacity="0.6"/>
<path fill-rule="evenodd" clip-rule="evenodd" d="M264.035 260.415L252.11 254.007L246.161 378.596L258.086 385.004L264.035 260.415Z" fill="#6580E1" fill-opacity="0.6"/>
<path fill-rule="evenodd" clip-rule="evenodd" d="M252.11 254.007L232.604 255.834L226.656 380.423L246.161 378.596L252.11 254.007Z" fill="#6580E1" fill-opacity="0.6"/>
<path fill-rule="evenodd" clip-rule="evenodd" d="M232.605 255.834L222.384 252.26L216.435 376.848L226.656 380.423L232.605 255.834Z" fill="#6580E1" fill-opacity="0.6"/>
<path fill-rule="evenodd" clip-rule="evenodd" d="M222.384 252.26L218.636 249.49L212.687 374.079L216.435 376.848L222.384 252.26Z" fill="#6580E1" fill-opacity="0.6"/>
<path fill-rule="evenodd" clip-rule="evenodd" d="M218.636 249.49L213.27 250.864L207.321 375.453L212.687 374.079L218.636 249.49Z" fill="#6580E1" fill-opacity="0.6"/>
<path fill-rule="evenodd" clip-rule="evenodd" d="M213.271 250.866L205.86 248.991L199.911 373.58L207.322 375.454L213.271 250.866Z" fill="#6580E1" fill-opacity="0.6"/>
<path fill-rule="evenodd" clip-rule="evenodd" d="M205.86 248.991L202.878 249.728L196.929 374.317L199.911 373.58L205.86 248.991Z" fill="#6580E1" fill-opacity="0.6"/>
<path fill-rule="evenodd" clip-rule="evenodd" d="M202.878 249.728L189.761 247.998L183.812 372.587L196.93 374.317L202.878 249.728Z" fill="#6580E1" fill-opacity="0.6"/>
<path fill-rule="evenodd" clip-rule="evenodd" d="M189.762 247.998L171.619 248.93L165.67 373.519L183.813 372.587L189.762 247.998Z" fill="#6580E1" fill-opacity="0.6"/>
<path fill-rule="evenodd" clip-rule="evenodd" d="M171.618 248.93L163.1 244.469L157.151 369.058L165.669 373.519L171.618 248.93Z" fill="#6580E1" fill-opacity="0.6"/>
<path fill-rule="evenodd" clip-rule="evenodd" d="M163.101 244.469L154.498 246.458L148.549 371.047L157.152 369.058L163.101 244.469Z" fill="#6580E1" fill-opacity="0.6"/>
<path fill-rule="evenodd" clip-rule="evenodd" d="M154.498 246.458L151.858 241.333L145.909 365.922L148.549 371.047L154.498 246.458Z" fill="#6580E1" fill-opacity="0.6"/>
<path fill-rule="evenodd" clip-rule="evenodd" d="M151.858 241.333L153.561 236.727L147.612 361.316L145.909 365.922L151.858 241.333Z" fill="#6580E1" fill-opacity="0.6"/>
<path fill-rule="evenodd" clip-rule="evenodd" d="M153.56 236.726L137.887 232.199L131.938 356.788L147.611 361.315L153.56 236.726Z" fill="#6580E1" fill-opacity="0.6"/>
<path fill-rule="evenodd" clip-rule="evenodd" d="M137.889 232.2L124.516 231.51L118.567 356.099L131.94 356.789L137.889 232.2Z" fill="#6580E1" fill-opacity="0.6"/>
<path fill-rule="evenodd" clip-rule="evenodd" d="M124.515 231.51L115.827 228.091L109.878 352.68L118.566 356.099L124.515 231.51Z" fill="#6580E1" fill-opacity="0.6"/>
<path fill-rule="evenodd" clip-rule="evenodd" d="M115.827 228.091L112.25 222.419L106.301 347.008L109.878 352.679L115.827 228.091Z" fill="#6580E1" fill-opacity="0.6"/>
<path fill-rule="evenodd" clip-rule="evenodd" d="M112.251 222.419L104.755 218.682L98.8062 343.271L106.302 347.008L112.251 222.419Z" fill="#6580E1" fill-opacity="0.6"/>
<path fill-rule="evenodd" clip-rule="evenodd" d="M104.755 218.681L104.84 212.232L98.8913 336.821L98.8062 343.27L104.755 218.681Z" fill="#6580E1" fill-opacity="0.6"/>
<path fill-rule="evenodd" clip-rule="evenodd" d="M104.84 212.231L100.752 210.964L94.8027 335.553L98.8912 336.82L104.84 212.231Z" fill="#6580E1" fill-opacity="0.6"/>
<path fill-rule="evenodd" clip-rule="evenodd" d="M100.751 210.965L88.4001 210.534L82.4512 335.123L94.8018 335.554L100.751 210.965Z" fill="#6580E1" fill-opacity="0.6"/>
<path fill-rule="evenodd" clip-rule="evenodd" d="M88.401 210.534L59.1003 221.004L53.1514 345.593L82.4522 335.123L88.401 210.534Z" fill="#6580E1" fill-opacity="0.6"/>
<path fill-rule="evenodd" clip-rule="evenodd" d="M59.0988 221.003L44.7038 217.671L38.7549 342.26L53.1499 345.592L59.0988 221.003Z" fill="#6580E1" fill-opacity="0.6"/>
<path fill-rule="evenodd" clip-rule="evenodd" d="M44.7052 217.671L43.172 222.456L37.2231 347.045L38.7563 342.26L44.7052 217.671Z" fill="#6580E1" fill-opacity="0.6"/>
<path fill-rule="evenodd" clip-rule="evenodd" d="M43.1718 222.456L34.9948 214.691L29.0459 339.28L37.2229 347.045L43.1718 222.456Z" fill="#6580E1" fill-opacity="0.6"/>
<path fill-rule="evenodd" clip-rule="evenodd" d="M34.9934 214.691L14.7214 202.083L8.77246 326.672L29.0445 339.28L34.9934 214.691Z" fill="#6580E1" fill-opacity="0.6"/>
<path fill-rule="evenodd" clip-rule="evenodd" d="M14.7232 202.084L10.5495 198.257L4.60059 322.846L8.77433 326.673L14.7232 202.084Z" fill="#6580E1" fill-opacity="0.6"/>
<path fill-rule="evenodd" clip-rule="evenodd" d="M10.5495 198.256L22.5594 182.52L16.6105 307.109L4.60059 322.845L10.5495 198.256Z" fill="#6580E1" fill-opacity="0.6"/>
<path fill-rule="evenodd" clip-rule="evenodd" d="M22.5578 182.52L30.4792 179.526L24.5303 304.115L16.6089 307.109L22.5578 182.52Z" fill="#6580E1" fill-opacity="0.6"/>
<path fill-rule="evenodd" clip-rule="evenodd" d="M30.4796 179.527L28.1798 177.899L22.231 302.488L24.5307 304.116L30.4796 179.527Z" fill="#6580E1" fill-opacity="0.6"/>
<path fill-rule="evenodd" clip-rule="evenodd" d="M28.1791 177.897L6.71451 173.629L0.765625 298.218L22.2302 302.486L28.1791 177.897Z" fill="#6580E1" fill-opacity="0.6"/>
<path fill-rule="evenodd" clip-rule="evenodd" d="M6.71552 173.629L5.94889 156.346L0 280.935L0.766627 298.218L6.71552 173.629Z" fill="#6580E1" fill-opacity="0.6"/>
<path fill-rule="evenodd" clip-rule="evenodd" d="M5.94889 156.348L11.2299 153.518L5.281 278.107L0 280.937L5.94889 156.348Z" fill="#6580E1" fill-opacity="0.6"/>
<path fill-rule="evenodd" clip-rule="evenodd" d="M11.2301 153.518L40.6162 155.547L34.6673 280.136L5.28125 278.107L11.2301 153.518Z" fill="#6580E1" fill-opacity="0.6"/>
<path fill-rule="evenodd" clip-rule="evenodd" d="M40.616 155.546L38.8273 146.083L32.8784 270.672L34.6671 280.135L40.616 155.546Z" fill="#6580E1" fill-opacity="0.6"/>
<path fill-rule="evenodd" clip-rule="evenodd" d="M38.8264 146.085L36.8673 143.826L30.9185 268.415L32.8775 270.674L38.8264 146.085Z" fill="#6580E1" fill-opacity="0.6"/>
<path fill-rule="evenodd" clip-rule="evenodd" d="M36.8673 143.826L46.7479 145.124L40.799 269.713L30.9185 268.415L36.8673 143.826Z" fill="#6580E1" fill-opacity="0.6"/>
<path fill-rule="evenodd" clip-rule="evenodd" d="M46.7484 145.125L46.4928 141.747L40.5439 266.336L40.7995 269.714L46.7484 145.125Z" fill="#6580E1" fill-opacity="0.6"/>
<path fill-rule="evenodd" clip-rule="evenodd" d="M46.4928 141.746L49.8147 137.646L43.8658 262.235L40.5439 266.335L46.4928 141.746Z" fill="#6580E1" fill-opacity="0.6"/>
<path fill-rule="evenodd" clip-rule="evenodd" d="M49.8159 137.646L47.1755 135.544L41.2266 260.133L43.867 262.235L49.8159 137.646Z" fill="#6580E1" fill-opacity="0.6"/>
<path fill-rule="evenodd" clip-rule="evenodd" d="M47.1755 135.544L48.4532 130.927L42.5043 255.516L41.2266 260.133L47.1755 135.544Z" fill="#6580E1" fill-opacity="0.6"/>
<path fill-rule="evenodd" clip-rule="evenodd" d="M48.4522 130.927L37.3791 126.982L31.4302 251.571L42.5033 255.516L48.4522 130.927Z" fill="#6580E1" fill-opacity="0.6"/>
<path fill-rule="evenodd" clip-rule="evenodd" d="M37.3788 126.982L22.6432 112.364L16.6943 236.953L31.4299 251.571L37.3788 126.982Z" fill="#6580E1" fill-opacity="0.6"/>
<path fill-rule="evenodd" clip-rule="evenodd" d="M22.6432 112.364L27.3279 110.159L21.379 234.748L16.6943 236.953L22.6432 112.364Z" fill="#6580E1" fill-opacity="0.6"/>
<path fill-rule="evenodd" clip-rule="evenodd" d="M27.3288 110.159L40.7867 110.909L34.8378 235.498L21.3799 234.748L27.3288 110.159Z" fill="#6580E1" fill-opacity="0.6"/>
<path fill-rule="evenodd" clip-rule="evenodd" d="M40.7853 110.911L41.7223 108.261L35.7734 232.85L34.8364 235.5L40.7853 110.911Z" fill="#6580E1" fill-opacity="0.6"/>
<path fill-rule="evenodd" clip-rule="evenodd" d="M41.7243 108.26L39.4245 105.876L33.4756 230.465L35.7754 232.849L41.7243 108.26Z" fill="#6580E1" fill-opacity="0.6"/>
<path fill-rule="evenodd" clip-rule="evenodd" d="M39.4245 105.876L59.2707 110.103L53.3218 234.692L33.4756 230.465L39.4245 105.876Z" fill="#6580E1" fill-opacity="0.6"/>
<path fill-rule="evenodd" clip-rule="evenodd" d="M59.2692 110.103L66.85 108.902L60.9011 233.491L53.3203 234.692L59.2692 110.103Z" fill="#6580E1" fill-opacity="0.6"/>
<path fill-rule="evenodd" clip-rule="evenodd" d="M66.8512 108.902L72.5581 114.57L66.6092 239.159L60.9023 233.491L66.8512 108.902Z" fill="#6580E1" fill-opacity="0.6"/>
<path fill-rule="evenodd" clip-rule="evenodd" d="M72.5568 114.57L75.4528 121.677L69.5039 246.266L66.6079 239.159L72.5568 114.57Z" fill="#6580E1" fill-opacity="0.6"/>
<path fill-rule="evenodd" clip-rule="evenodd" d="M75.4533 121.676L79.7121 126.318L73.7632 250.907L69.5044 246.265L75.4533 121.676Z" fill="#6580E1" fill-opacity="0.6"/>
<path fill-rule="evenodd" clip-rule="evenodd" d="M79.7126 126.32L81.7568 127.07L75.8079 251.659L73.7637 250.909L79.7126 126.32Z" fill="#6580E1" fill-opacity="0.6"/>
<path fill-rule="evenodd" clip-rule="evenodd" d="M81.756 127.069L83.6299 125.373L77.681 249.962L75.8071 251.658L81.756 127.069Z" fill="#6580E1" fill-opacity="0.6"/>
<path fill-rule="evenodd" clip-rule="evenodd" d="M83.631 125.373L88.9121 125.625L82.9632 250.214L77.6821 249.962L83.631 125.373Z" fill="#6580E1" fill-opacity="0.6"/>
<path fill-rule="evenodd" clip-rule="evenodd" d="M88.9118 125.625L96.8332 129.024L90.8843 253.613L82.9629 250.214L88.9118 125.625Z" fill="#6580E1" fill-opacity="0.6"/>
<path fill-rule="evenodd" clip-rule="evenodd" d="M96.8334 129.024L97.7704 128.118L91.8215 252.707L90.8845 253.613L96.8334 129.024Z" fill="#6580E1" fill-opacity="0.6"/>
<path fill-rule="evenodd" clip-rule="evenodd" d="M97.7699 128.118L94.0221 126.337L88.0732 250.926L91.821 252.707L97.7699 128.118Z" fill="#6580E1" fill-opacity="0.6"/>
<path fill-rule="evenodd" clip-rule="evenodd" d="M94.0228 126.337L93.0006 123.986L87.0518 248.575L88.0739 250.926L94.0228 126.337Z" fill="#6580E1" fill-opacity="0.6"/>
<path fill-rule="evenodd" clip-rule="evenodd" d="M93.0006 123.985L94.2783 123.32L88.3294 247.909L87.0518 248.574L93.0006 123.985Z" fill="#6580E1" fill-opacity="0.6"/>
<path fill-rule="evenodd" clip-rule="evenodd" d="M94.2767 123.321L91.8918 121.749L85.9429 246.338L88.3278 247.91L94.2767 123.321Z" fill="#6580E1" fill-opacity="0.6"/>
<path fill-rule="evenodd" clip-rule="evenodd" d="M91.8918 121.747L95.384 121.139L89.4351 245.728L85.9429 246.336L91.8918 121.747Z" fill="#6580E1" fill-opacity="0.6"/>
<path fill-rule="evenodd" clip-rule="evenodd" d="M95.3849 121.14L97.8551 118.471L91.9062 243.06L89.436 245.729L95.3849 121.14Z" fill="#6580E1" fill-opacity="0.6"/>
<path fill-rule="evenodd" clip-rule="evenodd" d="M97.8551 118.472L105.947 117.225L99.9981 241.814L91.9062 243.061L97.8551 118.472Z" fill="#6580E1" fill-opacity="0.6"/>
<path fill-rule="evenodd" clip-rule="evenodd" d="M105.947 117.225L113.783 119.46L107.835 244.049L99.9983 241.814L105.947 117.225Z" fill="#6580E1" fill-opacity="0.6"/>
<path fill-rule="evenodd" clip-rule="evenodd" d="M113.783 119.458L116.594 115.635L110.645 240.224L107.834 244.047L113.783 119.458Z" fill="#6580E1" fill-opacity="0.6"/>
<path fill-rule="evenodd" clip-rule="evenodd" d="M116.595 115.635L121.961 117.167L116.012 241.756L110.646 240.224L116.595 115.635Z" fill="#6580E1" fill-opacity="0.6"/>
<path fill-rule="evenodd" clip-rule="evenodd" d="M121.961 117.167L123.068 115.277L117.119 239.866L116.012 241.756L121.961 117.167Z" fill="#6580E1" fill-opacity="0.6"/>
<path fill-rule="evenodd" clip-rule="evenodd" d="M123.068 115.277L128.264 117.386L122.315 241.975L117.119 239.866L123.068 115.277Z" fill="#6580E1" fill-opacity="0.6"/>
<path fill-rule="evenodd" clip-rule="evenodd" d="M128.264 117.387L124.516 118.977L118.567 243.566L122.315 241.976L128.264 117.387Z" fill="#6580E1" fill-opacity="0.6"/>
<path fill-rule="evenodd" clip-rule="evenodd" d="M124.516 118.977L127.753 121.617L121.804 246.206L118.567 243.566L124.516 118.977Z" fill="#6580E1" fill-opacity="0.6"/>
<path fill-rule="evenodd" clip-rule="evenodd" d="M127.752 121.616L133.97 118.927L128.021 243.516L121.803 246.205L127.752 121.616Z" fill="#6580E1" fill-opacity="0.6"/>
<path fill-rule="evenodd" clip-rule="evenodd" d="M133.969 118.929L136.95 114.761L131.001 239.35L128.02 243.517L133.969 118.929Z" fill="#6580E1" fill-opacity="0.6"/>
<path fill-rule="evenodd" clip-rule="evenodd" d="M136.951 114.761L139.847 114.137L133.898 238.726L131.002 239.35L136.951 114.761Z" fill="#6580E1" fill-opacity="0.6"/>
<path fill-rule="evenodd" clip-rule="evenodd" d="M139.847 114.137L155.52 114.654L149.571 239.243L133.898 238.726L139.847 114.137Z" fill="#6580E1" fill-opacity="0.6"/>
<path fill-rule="evenodd" clip-rule="evenodd" d="M155.52 114.655L162.76 112.806L156.811 237.395L149.571 239.244L155.52 114.655Z" fill="#6580E1" fill-opacity="0.6"/>
<path fill-rule="evenodd" clip-rule="evenodd" d="M162.759 112.806L169.147 116.107L163.198 240.696L156.81 237.395L162.759 112.806Z" fill="#6580E1" fill-opacity="0.6"/>
<path fill-rule="evenodd" clip-rule="evenodd" d="M169.149 116.106L168.978 119.821L163.029 244.41L163.2 240.695L169.149 116.106Z" fill="#6580E1" fill-opacity="0.6"/>
<path fill-rule="evenodd" clip-rule="evenodd" d="M168.978 119.822L174.004 119.95L168.055 244.539L163.029 244.411L168.978 119.822Z" fill="#6580E1" fill-opacity="0.6"/>
<path fill-rule="evenodd" clip-rule="evenodd" d="M174.003 119.95L176.985 118.34L171.036 242.929L168.054 244.539L174.003 119.95Z" fill="#6580E1" fill-opacity="0.6"/>
<path fill-rule="evenodd" clip-rule="evenodd" d="M176.985 118.34L184.651 121.559L178.702 246.148L171.036 242.929L176.985 118.34Z" fill="#6580E1" fill-opacity="0.6"/>
<path fill-rule="evenodd" clip-rule="evenodd" d="M184.651 121.559L197.001 140.475L191.053 265.064L178.702 246.148L184.651 121.559Z" fill="#6580E1" fill-opacity="0.6"/>
<path fill-rule="evenodd" clip-rule="evenodd" d="M197 140.476L203.729 135.01L197.78 259.598L191.051 265.065L197 140.476Z" fill="#6580E1" fill-opacity="0.6"/>
<path fill-rule="evenodd" clip-rule="evenodd" d="M203.73 135.008L200.323 125.446L194.374 250.035L197.781 259.597L203.73 135.008Z" fill="#6580E1" fill-opacity="0.6"/>
<path fill-rule="evenodd" clip-rule="evenodd" d="M200.322 125.446L190.697 117.121L184.749 241.71L194.374 250.035L200.322 125.446Z" fill="#6580E1" fill-opacity="0.6"/>
<path fill-rule="evenodd" clip-rule="evenodd" d="M190.697 117.122L195.382 116.37L189.433 240.959L184.749 241.711L190.697 117.122Z" fill="#6580E1" fill-opacity="0.6"/>
<path fill-rule="evenodd" clip-rule="evenodd" d="M195.383 116.37L195.639 112.947L189.69 237.536L189.435 240.959L195.383 116.37Z" fill="#6580E1" fill-opacity="0.6"/>
<path fill-rule="evenodd" clip-rule="evenodd" d="M195.637 112.947L198.533 114.184L192.584 238.772L189.688 237.536L195.637 112.947Z" fill="#6580E1" fill-opacity="0.6"/>
<path fill-rule="evenodd" clip-rule="evenodd" d="M198.534 114.184L207.392 109.237L201.443 233.826L192.585 238.773L198.534 114.184Z" fill="#6580E1" fill-opacity="0.6"/>
<path fill-rule="evenodd" clip-rule="evenodd" d="M207.392 109.236L203.815 103.565L197.866 228.154L201.443 233.825L207.392 109.236Z" fill="#6580E1" fill-opacity="0.6"/>
<path fill-rule="evenodd" clip-rule="evenodd" d="M203.815 103.565L184.224 107.424L178.275 232.013L197.866 228.154L203.815 103.565Z" fill="#6580E1" fill-opacity="0.6"/>
<path fill-rule="evenodd" clip-rule="evenodd" d="M184.224 107.425L187.035 103.544L181.086 228.133L178.275 232.014L184.224 107.425Z" fill="#6580E1" fill-opacity="0.6"/>
<path fill-rule="evenodd" clip-rule="evenodd" d="M187.034 103.544L185.161 100.88L179.212 225.469L181.086 228.133L187.034 103.544Z" fill="#6580E1" fill-opacity="0.6"/>
<path fill-rule="evenodd" clip-rule="evenodd" d="M185.161 100.878L186.609 98.0673L180.66 222.656L179.212 225.467L185.161 100.878Z" fill="#6580E1" fill-opacity="0.6"/>
<path fill-rule="evenodd" clip-rule="evenodd" d="M186.608 98.0676L174.599 94.8546L168.65 219.444L180.66 222.657L186.608 98.0676Z" fill="#6580E1" fill-opacity="0.6"/>
<path fill-rule="evenodd" clip-rule="evenodd" d="M174.599 94.8547L187.12 86.9788L181.171 211.568L168.65 219.444L174.599 94.8547Z" fill="#6580E1" fill-opacity="0.6"/>
<path fill-rule="evenodd" clip-rule="evenodd" d="M187.121 86.9784L192.572 85.9551L186.623 210.544L181.172 211.567L187.121 86.9784Z" fill="#6580E1" fill-opacity="0.6"/>
<path fill-rule="evenodd" clip-rule="evenodd" d="M192.572 85.9551L198.62 88.9577L192.671 213.547L186.623 210.544L192.572 85.9551Z" fill="#6580E1" fill-opacity="0.6"/>
<path fill-rule="evenodd" clip-rule="evenodd" d="M198.619 88.9589L211.055 85.9052L205.106 210.494L192.67 213.548L198.619 88.9589Z" fill="#6580E1" fill-opacity="0.6"/>
<path fill-rule="evenodd" clip-rule="evenodd" d="M211.056 85.9048L246.489 73.2083L240.541 197.797L205.107 210.494L211.056 85.9048Z" fill="#6580E1" fill-opacity="0.6"/>
<path fill-rule="evenodd" clip-rule="evenodd" d="M246.489 73.2086L249.13 71.1254L243.181 195.714L240.541 197.798L246.489 73.2086Z" fill="#6580E1" fill-opacity="0.6"/>
<path fill-rule="evenodd" clip-rule="evenodd" d="M249.13 71.1254L252.963 71.1651L247.014 195.754L243.181 195.714L249.13 71.1254Z" fill="#6580E1" fill-opacity="0.6"/>
<path fill-rule="evenodd" clip-rule="evenodd" d="M252.963 71.1648L257.562 73.2004L251.613 197.789L247.014 195.754L252.963 71.1648Z" fill="#6580E1" fill-opacity="0.6"/>
<path fill-rule="evenodd" clip-rule="evenodd" d="M257.561 73.2015L258.754 71.8369L252.805 196.426L251.613 197.79L257.561 73.2015Z" fill="#6580E1" fill-opacity="0.6"/>
<path fill-rule="evenodd" clip-rule="evenodd" d="M258.754 71.8364L270.423 70.3325L264.474 194.921L252.805 196.425L258.754 71.8364Z" fill="#6580E1" fill-opacity="0.6"/>
<path fill-rule="evenodd" clip-rule="evenodd" d="M270.423 70.3325L279.707 72.4878L273.758 197.077L264.474 194.921L270.423 70.3325Z" fill="#6580E1" fill-opacity="0.6"/>
<path fill-rule="evenodd" clip-rule="evenodd" d="M279.707 72.4871L280.644 71.5811L274.695 196.17L273.758 197.076L279.707 72.4871Z" fill="#6580E1" fill-opacity="0.6"/>
<path fill-rule="evenodd" clip-rule="evenodd" d="M280.645 71.5811L277.408 67.3134L271.459 191.902L274.696 196.17L280.645 71.5811Z" fill="#6580E1" fill-opacity="0.6"/>
<path fill-rule="evenodd" clip-rule="evenodd" d="M277.408 67.3132L279.026 64.5063L273.077 189.095L271.459 191.902L277.408 67.3132Z" fill="#6580E1" fill-opacity="0.6"/>
<path fill-rule="evenodd" clip-rule="evenodd" d="M279.027 64.5063L291.292 64.4127L285.343 189.002L273.078 189.095L279.027 64.5063Z" fill="#6580E1" fill-opacity="0.6"/>
<path fill-rule="evenodd" clip-rule="evenodd" d="M291.291 64.4136L304.493 62.4839L298.544 187.073L285.342 189.003L291.291 64.4136Z" fill="#6580E1" fill-opacity="0.6"/>
<path fill-rule="evenodd" clip-rule="evenodd" d="M304.493 62.4832L316.588 52.2131L310.64 176.802L298.544 187.072L304.493 62.4832Z" fill="#6580E1" fill-opacity="0.6"/>
<path fill-rule="evenodd" clip-rule="evenodd" d="M316.589 52.214L317.015 50.1906L311.066 174.78L310.64 176.803L316.589 52.214Z" fill="#6580E1" fill-opacity="0.6"/>
<path fill-rule="evenodd" clip-rule="evenodd" d="M317.016 50.19L319.23 50.072L313.281 174.661L311.067 174.779L317.016 50.19Z" fill="#6580E1" fill-opacity="0.6"/>
<path fill-rule="evenodd" clip-rule="evenodd" d="M319.23 50.0722L323.318 46.8634L317.369 171.452L313.281 174.661L319.23 50.0722Z" fill="#6580E1" fill-opacity="0.6"/>
<path fill-rule="evenodd" clip-rule="evenodd" d="M323.318 46.8624L314.29 40.1217L308.341 164.711L317.37 171.451L323.318 46.8624Z" fill="#6580E1" fill-opacity="0.6"/>
<path fill-rule="evenodd" clip-rule="evenodd" d="M314.29 40.1218L311.564 35.2277L305.615 159.817L308.341 164.711L314.29 40.1218Z" fill="#6580E1" fill-opacity="0.6"/>
<path fill-rule="evenodd" clip-rule="evenodd" d="M311.564 35.2274L316.419 32.2709L310.47 156.86L305.615 159.816L311.564 35.2274Z" fill="#6580E1" fill-opacity="0.6"/>
<path fill-rule="evenodd" clip-rule="evenodd" d="M316.419 32.2724L315.397 31.5488L309.448 156.138L310.47 156.861L316.419 32.2724Z" fill="#6580E1" fill-opacity="0.6"/>
<path fill-rule="evenodd" clip-rule="evenodd" d="M315.397 31.5486L317.867 28.2404L311.918 152.829L309.448 156.138L315.397 31.5486Z" fill="#6580E1" fill-opacity="0.6"/>
<path fill-rule="evenodd" clip-rule="evenodd" d="M317.867 28.2404L324.851 30.9181L318.902 155.507L311.918 152.829L317.867 28.2404Z" fill="#6580E1" fill-opacity="0.6"/>
<path fill-rule="evenodd" clip-rule="evenodd" d="M324.852 30.9174L346.572 25.4271L340.623 150.016L318.903 155.506L324.852 30.9174Z" fill="#6580E1" fill-opacity="0.6"/>
<path fill-rule="evenodd" clip-rule="evenodd" d="M346.571 25.4271L349.552 26.4913L343.603 151.08L340.622 150.016L346.571 25.4271Z" fill="#6580E1" fill-opacity="0.6"/>
<path fill-rule="evenodd" clip-rule="evenodd" d="M349.553 26.4924L350.916 23.5627L344.967 148.152L343.604 151.081L349.553 26.4924Z" fill="#6580E1" fill-opacity="0.6"/>
<path fill-rule="evenodd" clip-rule="evenodd" d="M350.916 23.5627L355.43 24.0268L349.481 148.616L344.967 148.152L350.916 23.5627Z" fill="#6580E1" fill-opacity="0.6"/>
<path fill-rule="evenodd" clip-rule="evenodd" d="M355.431 24.0254L357.901 20.3105L351.952 144.9L349.482 148.614L355.431 24.0254Z" fill="#6580E1" fill-opacity="0.6"/>
<path fill-rule="evenodd" clip-rule="evenodd" d="M357.901 20.3101L362.756 17.9926L356.807 142.582L351.952 144.899L357.901 20.3101Z" fill="#6580E1" fill-opacity="0.6"/>
<path fill-rule="evenodd" clip-rule="evenodd" d="M362.755 17.9926L365.651 18.8804L359.702 143.469L356.806 142.582L362.755 17.9926Z" fill="#6580E1" fill-opacity="0.6"/>
<path fill-rule="evenodd" clip-rule="evenodd" d="M365.652 18.8815L375.277 13.1984L369.328 137.787L359.703 143.47L365.652 18.8815Z" fill="#6580E1" fill-opacity="0.6"/>
<path fill-rule="evenodd" clip-rule="evenodd" d="M375.276 13.1987L396.91 5.49744L390.962 130.086L369.327 137.788L375.276 13.1987Z" fill="#6580E1" fill-opacity="0.6"/>
<path fill-rule="evenodd" clip-rule="evenodd" d="M396.911 5.49744L401.511 11.2533L395.562 135.842L390.962 130.086L396.911 5.49744Z" fill="#6580E1" fill-opacity="0.6"/>
<path fill-rule="evenodd" clip-rule="evenodd" d="M401.51 11.2538L403.469 10.7805L397.52 135.369L395.561 135.843L401.51 11.2538Z" fill="#6580E1" fill-opacity="0.6"/>
<path fill-rule="evenodd" clip-rule="evenodd" d="M403.47 10.7805L420.931 16.2834L414.983 140.872L397.521 135.369L403.47 10.7805Z" fill="#6580E1" fill-opacity="0.6"/>
<path fill-rule="evenodd" clip-rule="evenodd" d="M420.932 16.2832L427.917 15.764L421.968 140.353L414.983 140.872L420.932 16.2832Z" fill="#6580E1" fill-opacity="0.6"/>
<path fill-rule="evenodd" clip-rule="evenodd" d="M427.915 15.764L433.196 18.9798L427.247 143.569L421.966 140.353L427.915 15.764Z" fill="#6580E1" fill-opacity="0.6"/>
<path fill-rule="evenodd" clip-rule="evenodd" d="M433.196 18.9791L435.837 15.8494L429.888 140.438L427.247 143.568L433.196 18.9791Z" fill="#6580E1" fill-opacity="0.6"/>
<path fill-rule="evenodd" clip-rule="evenodd" d="M435.837 15.8501L440.095 1.42737L434.147 126.016L429.888 140.439L435.837 15.8501Z" fill="#6580E1" fill-opacity="0.6"/>
<path fill-rule="evenodd" clip-rule="evenodd" d="M440.096 1.42737L450.062 20.4568L444.113 145.046L434.147 126.016L440.096 1.42737Z" fill="#6580E1" fill-opacity="0.6"/>
<path fill-rule="evenodd" clip-rule="evenodd" d="M450.061 20.4556L460.623 19.214L454.674 143.803L444.112 145.045L450.061 20.4556Z" fill="#6580E1" fill-opacity="0.6"/>
<path fill-rule="evenodd" clip-rule="evenodd" d="M460.623 19.2147L482.173 14.3013L476.224 138.89L454.674 143.804L460.623 19.2147Z" fill="#6580E1" fill-opacity="0.6"/>
<path fill-rule="evenodd" clip-rule="evenodd" d="M482.174 14.3008L479.789 10.2874L473.84 134.876L476.225 138.89L482.174 14.3008Z" fill="#6580E1" fill-opacity="0.6"/>
<path fill-rule="evenodd" clip-rule="evenodd" d="M479.789 10.288L488.903 0L482.954 124.589L473.84 134.877L479.789 10.288Z" fill="#6580E1" fill-opacity="0.6"/>
<path fill-rule="evenodd" clip-rule="evenodd" d="M488.903 0V0L482.954 124.589V124.589L488.903 0Z" fill="#6580E1" fill-opacity="0.6"/>
<path d="M488.903 0L492.31 16.1877L493.928 16.5778L499.379 13.6947L505.001 19.6508L509.771 18.4355L516.5 14.0155L521.014 30.5806L542.053 27.9789L562.581 34.0252L568.032 34.2808L567.606 41.0705L574.591 45.5501L577.572 50.1603L582.682 51.8021L584.13 55.3848L581.575 59.272L586.686 66.8428L577.827 72.6035L579.616 75.8461L583.619 77.6921L572.035 86.4058L567.18 97.2095L559.088 98.0491L554.404 101.94L528.851 106.461L520.333 113.625L523.74 117.897L525.699 118.122L525.018 121.417L520.162 124.607L520.503 126.882L527.999 126.434L526.806 129.31L529.276 130.361L523.74 137.951L519.822 140.292L515.393 152.56L525.955 153.294L538.731 157.108L542.905 177.733L537.879 177.896L534.472 186.76L537.964 193.359L541.797 193.632L542.82 196.506L541.712 198.803L555.255 210.483L554.829 214.192L537.964 216.145L536.602 220.527L529.276 230.047L531.321 234.285L545.63 222.618L552.87 228.441L565.562 231.555L552.615 234.422L536.431 240.635L543.245 254.817L529.873 251.744L527.743 248.027L522.547 245.511L495.291 249V250.686L491.799 251.178L491.032 252.96L484.729 252.683L483.792 254.287L467.438 253.869L467.182 251.131L460.965 249.17L457.217 255.177L452.532 255.348L449.21 253.404L441.885 257.576L428.768 256.543L419.313 252.291L414.543 252.576L407.899 249.268L394.867 260.502L393.93 273.847L397.423 279.807L389.842 289.437L356.282 291.195L349.383 281.312L352.194 276.094L345.209 271.731L335.754 268.409L320.934 278.319L323.574 283.617L318.549 285.233L304.75 272.267L305.261 265.363L288.822 261.165L277.238 262.613L269.316 260.318L264.035 260.416L252.111 254.008L232.605 255.835L222.384 252.261L218.636 249.491L213.27 250.865L205.86 248.99L202.878 249.728L189.761 247.998L171.618 248.93L163.101 244.469L154.498 246.458L151.857 241.334L153.561 236.727L137.888 232.2L124.516 231.51L115.827 228.091L112.25 222.419L104.754 218.682L104.84 212.232L100.751 210.965L88.4005 210.534L59.0997 221.004L44.7047 217.672L43.1715 222.457L34.9946 214.692L14.7225 202.084L10.5488 198.257L22.5587 182.521L30.4802 179.527L28.1804 177.898L6.71585 173.63L5.94922 156.347L11.2302 153.518L40.6162 155.547L38.8275 146.085L36.8685 143.826L46.749 145.125L46.4934 141.747L49.8154 137.647L47.1749 135.545L48.4526 130.927L37.3795 126.982L22.644 112.365L27.3286 110.16L40.7866 110.91L41.7235 108.261L39.4238 105.877L59.27 110.104L66.8507 108.902L72.5576 114.57L75.4536 121.677L79.7125 126.32L81.7567 127.07L83.6306 125.374L88.9117 125.625L96.833 129.024L97.77 128.118L94.0222 126.337L93.0001 123.985L94.2777 123.321L91.8928 121.748L95.385 121.14L97.8552 118.471L105.947 117.225L113.783 119.459L116.594 115.637L121.96 117.169L123.068 115.279L128.263 117.388L124.516 118.978L127.752 121.618L133.97 118.929L136.951 114.762L139.847 114.138L155.52 114.654L162.76 112.805L169.148 116.107L168.978 119.823L174.003 119.951L176.985 118.341L184.65 121.56L197.001 140.476L203.73 135.009L200.323 125.448L190.698 117.122L195.383 116.37L195.638 112.947L198.534 114.184L207.393 109.237L203.815 103.565L184.225 107.424L187.035 103.544L185.162 100.88L186.61 98.0688L174.6 94.8558L187.121 86.9798L192.572 85.9565L198.619 88.9592L211.055 85.9055L246.489 73.2089L249.129 71.1257L252.962 71.1655L257.562 73.2011L258.754 71.8365L270.424 70.3327L279.708 72.4879L280.645 71.5819L277.408 67.3141L279.027 64.5073L291.292 64.4136L304.494 62.4839L316.59 52.2138L317.015 50.1904L319.23 50.0725L323.319 46.8637L314.29 40.123L311.564 35.2289L316.419 32.2723L315.397 31.5487L317.867 28.2405L324.852 30.9182L346.572 25.4279L349.553 26.4921L350.916 23.5624L355.43 24.0265L357.9 20.3116L362.755 17.994L365.651 18.8819L375.276 13.1987L396.911 5.49749L401.511 11.2533L403.47 10.7801L420.931 16.283L427.916 15.7639L433.197 18.9796L435.837 15.8498L440.096 1.42708L450.062 20.4565L460.624 19.2149L482.174 14.3014L479.789 10.288L488.903 0Z" fill="white"/>
</svg>
