<svg width="137" height="118" viewBox="0 0 137 118" fill="none" xmlns="http://www.w3.org/2000/svg">
<path fill-rule="evenodd" clip-rule="evenodd" d="M89.6248 2.57997L99.0818 0.72998V20.73L89.6248 22.58V2.57997Z" fill="#6580E1" fill-opacity="0.6"/>
<path fill-rule="evenodd" clip-rule="evenodd" d="M99.0818 0.730011L99.4628 0V20L99.0818 20.73V0.730011Z" fill="#6580E1" fill-opacity="0.6"/>
<path fill-rule="evenodd" clip-rule="evenodd" d="M99.4629 0L101.758 0.535001V20.535L99.4629 20V0Z" fill="#6580E1" fill-opacity="0.6"/>
<path fill-rule="evenodd" clip-rule="evenodd" d="M101.758 0.534912L109.214 8.1199V28.1199L101.758 20.5349V0.534912Z" fill="#6580E1" fill-opacity="0.6"/>
<path fill-rule="evenodd" clip-rule="evenodd" d="M109.214 8.11987L113.432 9.98487V29.9849L109.214 28.1199V8.11987Z" fill="#6580E1" fill-opacity="0.6"/>
<path fill-rule="evenodd" clip-rule="evenodd" d="M113.432 9.98486L121.105 13.9149V33.9149L113.432 29.9849V9.98486Z" fill="#6580E1" fill-opacity="0.6"/>
<path fill-rule="evenodd" clip-rule="evenodd" d="M121.105 13.915L128.787 16.97V36.97L121.105 33.915V13.915Z" fill="#6580E1" fill-opacity="0.6"/>
<path fill-rule="evenodd" clip-rule="evenodd" d="M128.787 16.97L133.913 19.28V39.28L128.787 36.97V16.97Z" fill="#6580E1" fill-opacity="0.6"/>
<path fill-rule="evenodd" clip-rule="evenodd" d="M133.913 19.28L126.847 24.7V44.7L133.913 39.28V19.28Z" fill="#6580E1" fill-opacity="0.6"/>
<path fill-rule="evenodd" clip-rule="evenodd" d="M126.847 24.7L125.608 27.1249V47.1249L126.847 44.7V24.7Z" fill="#6580E1" fill-opacity="0.6"/>
<path fill-rule="evenodd" clip-rule="evenodd" d="M125.608 27.1248L131.125 27.0598V47.0598L125.608 47.1248V27.1248Z" fill="#6580E1" fill-opacity="0.6"/>
<path fill-rule="evenodd" clip-rule="evenodd" d="M131.125 27.0598L134.39 28.3448V48.3448L131.125 47.0598V27.0598Z" fill="#6580E1" fill-opacity="0.6"/>
<path fill-rule="evenodd" clip-rule="evenodd" d="M134.39 28.345L133.844 31.55V51.55L134.39 48.345V28.345Z" fill="#6580E1" fill-opacity="0.6"/>
<path fill-rule="evenodd" clip-rule="evenodd" d="M133.844 31.55L133.463 31.69V51.69L133.844 51.55V31.55Z" fill="#6580E1" fill-opacity="0.6"/>
<path fill-rule="evenodd" clip-rule="evenodd" d="M133.463 31.6899L133.238 32.1999V52.1999L133.463 51.6899V31.6899Z" fill="#6580E1" fill-opacity="0.6"/>
<path fill-rule="evenodd" clip-rule="evenodd" d="M133.238 32.2L133.316 33.285V53.285L133.238 52.2V32.2Z" fill="#6580E1" fill-opacity="0.6"/>
<path fill-rule="evenodd" clip-rule="evenodd" d="M133.316 33.2849L132.987 34.0149V54.0149L133.316 53.2849V33.2849Z" fill="#6580E1" fill-opacity="0.6"/>
<path fill-rule="evenodd" clip-rule="evenodd" d="M132.987 34.0149L132.554 37.7649V57.7649L132.987 54.0149V34.0149Z" fill="#6580E1" fill-opacity="0.6"/>
<path fill-rule="evenodd" clip-rule="evenodd" d="M132.554 37.7649L131.359 39.0649V59.0649L132.554 57.7649V37.7649Z" fill="#6580E1" fill-opacity="0.6"/>
<path fill-rule="evenodd" clip-rule="evenodd" d="M131.359 39.0649L132.458 42.5199V62.5199L131.359 59.0649V39.0649Z" fill="#6580E1" fill-opacity="0.6"/>
<path fill-rule="evenodd" clip-rule="evenodd" d="M132.458 42.52L130.302 46.885V66.885L132.458 62.52V42.52Z" fill="#6580E1" fill-opacity="0.6"/>
<path fill-rule="evenodd" clip-rule="evenodd" d="M130.302 46.885L134.987 53.97V73.97L130.302 66.885V46.885Z" fill="#6580E1" fill-opacity="0.6"/>
<path fill-rule="evenodd" clip-rule="evenodd" d="M134.987 53.97L134.805 55.875V75.875L134.987 73.97V53.97Z" fill="#6580E1" fill-opacity="0.6"/>
<path fill-rule="evenodd" clip-rule="evenodd" d="M134.805 55.875L134.537 56.33V76.33L134.805 75.875V55.875Z" fill="#6580E1" fill-opacity="0.6"/>
<path fill-rule="evenodd" clip-rule="evenodd" d="M134.537 56.3298L135.637 57.8548V77.8548L134.537 76.3298V56.3298Z" fill="#6580E1" fill-opacity="0.6"/>
<path fill-rule="evenodd" clip-rule="evenodd" d="M135.637 57.855L136.07 58.075V78.075L135.637 77.855V57.855Z" fill="#6580E1" fill-opacity="0.6"/>
<path fill-rule="evenodd" clip-rule="evenodd" d="M136.07 58.075L135.109 58.98V78.98L136.07 78.075V58.075Z" fill="#6580E1" fill-opacity="0.6"/>
<path fill-rule="evenodd" clip-rule="evenodd" d="M135.108 58.98L134.294 60.58V80.58L135.108 78.98V58.98Z" fill="#6580E1" fill-opacity="0.6"/>
<path fill-rule="evenodd" clip-rule="evenodd" d="M134.294 60.5798L135.152 61.3648V81.3648L134.294 80.5798V60.5798Z" fill="#6580E1" fill-opacity="0.6"/>
<path fill-rule="evenodd" clip-rule="evenodd" d="M135.152 61.365L135.594 63.16V83.16L135.152 81.365V61.365Z" fill="#6580E1" fill-opacity="0.6"/>
<path fill-rule="evenodd" clip-rule="evenodd" d="M135.593 63.1599L135.412 63.7349V83.7349L135.593 83.1599V63.1599Z" fill="#6580E1" fill-opacity="0.6"/>
<path fill-rule="evenodd" clip-rule="evenodd" d="M135.412 63.7349L135.845 64.1049V84.1049L135.412 83.7349V63.7349Z" fill="#6580E1" fill-opacity="0.6"/>
<path fill-rule="evenodd" clip-rule="evenodd" d="M135.845 64.105L135.793 64.545V84.545L135.845 84.105V64.105Z" fill="#6580E1" fill-opacity="0.6"/>
<path fill-rule="evenodd" clip-rule="evenodd" d="M135.793 64.5449L136.053 64.7849V84.7849L135.793 84.5449V64.5449Z" fill="#6580E1" fill-opacity="0.6"/>
<path fill-rule="evenodd" clip-rule="evenodd" d="M136.052 64.7849L135.507 65.9099V85.9099L136.052 84.7849V64.7849Z" fill="#6580E1" fill-opacity="0.6"/>
<path fill-rule="evenodd" clip-rule="evenodd" d="M135.507 65.9099L135.983 67.8249V87.8249L135.507 85.9099V65.9099Z" fill="#6580E1" fill-opacity="0.6"/>
<path fill-rule="evenodd" clip-rule="evenodd" d="M135.983 67.825L134.554 68.64V88.64L135.983 87.825V67.825Z" fill="#6580E1" fill-opacity="0.6"/>
<path fill-rule="evenodd" clip-rule="evenodd" d="M134.554 68.6399L133.983 69.2399V89.2399L134.554 88.6399V68.6399Z" fill="#6580E1" fill-opacity="0.6"/>
<path fill-rule="evenodd" clip-rule="evenodd" d="M133.983 69.24L134.009 69.505V89.505L133.983 89.24V69.24Z" fill="#6580E1" fill-opacity="0.6"/>
<path fill-rule="evenodd" clip-rule="evenodd" d="M134.009 69.5049L131.722 70.8349V90.8349L134.009 89.5049V69.5049Z" fill="#6580E1" fill-opacity="0.6"/>
<path fill-rule="evenodd" clip-rule="evenodd" d="M131.722 70.835L130.112 72.285V92.285L131.722 90.835V70.835Z" fill="#6580E1" fill-opacity="0.6"/>
<path fill-rule="evenodd" clip-rule="evenodd" d="M130.112 72.2849L129.912 73.1799V93.1799L130.112 92.2849V72.2849Z" fill="#6580E1" fill-opacity="0.6"/>
<path fill-rule="evenodd" clip-rule="evenodd" d="M129.912 73.1799L130.406 74.9749V94.9749L129.912 93.1799V73.1799Z" fill="#6580E1" fill-opacity="0.6"/>
<path fill-rule="evenodd" clip-rule="evenodd" d="M130.406 74.9749L130.198 75.7749V95.7749L130.406 94.9749V74.9749Z" fill="#6580E1" fill-opacity="0.6"/>
<path fill-rule="evenodd" clip-rule="evenodd" d="M130.198 75.7749L129.748 76.2549V96.2549L130.198 95.7749V75.7749Z" fill="#6580E1" fill-opacity="0.6"/>
<path fill-rule="evenodd" clip-rule="evenodd" d="M129.748 76.2549L129.921 76.8149V96.8149L129.748 96.2549V76.2549Z" fill="#6580E1" fill-opacity="0.6"/>
<path fill-rule="evenodd" clip-rule="evenodd" d="M129.921 76.8149L130.397 77.0599V97.0599L129.921 96.8149V76.8149Z" fill="#6580E1" fill-opacity="0.6"/>
<path fill-rule="evenodd" clip-rule="evenodd" d="M130.397 77.0598L130.302 78.2748V98.2748L130.397 97.0598V77.0598Z" fill="#6580E1" fill-opacity="0.6"/>
<path fill-rule="evenodd" clip-rule="evenodd" d="M130.302 78.2749L128.839 78.7299V98.7299L130.302 98.2749V78.2749Z" fill="#6580E1" fill-opacity="0.6"/>
<path fill-rule="evenodd" clip-rule="evenodd" d="M128.839 78.73L129.679 79.925V99.925L128.839 98.73V78.73Z" fill="#6580E1" fill-opacity="0.6"/>
<path fill-rule="evenodd" clip-rule="evenodd" d="M129.678 79.925L126.691 84.32V104.32L129.678 99.925V79.925Z" fill="#6580E1" fill-opacity="0.6"/>
<path fill-rule="evenodd" clip-rule="evenodd" d="M126.691 84.3198L116.342 86.1248V106.125L126.691 104.32V84.3198Z" fill="#6580E1" fill-opacity="0.6"/>
<path fill-rule="evenodd" clip-rule="evenodd" d="M116.342 86.125L115.813 86.74V106.74L116.342 106.125V86.125Z" fill="#6580E1" fill-opacity="0.6"/>
<path fill-rule="evenodd" clip-rule="evenodd" d="M115.814 86.7399L115.129 86.2849V106.285L115.814 106.74V86.7399Z" fill="#6580E1" fill-opacity="0.6"/>
<path fill-rule="evenodd" clip-rule="evenodd" d="M115.129 86.2849L107.829 88.6299V108.63L115.129 106.285V86.2849Z" fill="#6580E1" fill-opacity="0.6"/>
<path fill-rule="evenodd" clip-rule="evenodd" d="M107.829 88.6299L107.032 89.2199V109.22L107.829 108.63V88.6299Z" fill="#6580E1" fill-opacity="0.6"/>
<path fill-rule="evenodd" clip-rule="evenodd" d="M107.032 89.22L106.504 89.255V109.255L107.032 109.22V89.22Z" fill="#6580E1" fill-opacity="0.6"/>
<path fill-rule="evenodd" clip-rule="evenodd" d="M106.504 89.2549L105.109 89.9299V109.93L106.504 109.255V89.2549Z" fill="#6580E1" fill-opacity="0.6"/>
<path fill-rule="evenodd" clip-rule="evenodd" d="M105.11 89.9299L104.512 89.9349V109.935L105.11 109.93V89.9299Z" fill="#6580E1" fill-opacity="0.6"/>
<path fill-rule="evenodd" clip-rule="evenodd" d="M104.512 89.9349L103.94 89.7249V109.725L104.512 109.935V89.9349Z" fill="#6580E1" fill-opacity="0.6"/>
<path fill-rule="evenodd" clip-rule="evenodd" d="M103.94 89.7249L103.862 89.8699V109.87L103.94 109.725V89.7249Z" fill="#6580E1" fill-opacity="0.6"/>
<path fill-rule="evenodd" clip-rule="evenodd" d="M103.862 89.8699L91.8765 92.7599V112.76L103.862 109.87V89.8699Z" fill="#6580E1" fill-opacity="0.6"/>
<path fill-rule="evenodd" clip-rule="evenodd" d="M91.8765 92.76L90.5342 92.345V112.345L91.8765 112.76V92.76Z" fill="#6580E1" fill-opacity="0.6"/>
<path fill-rule="evenodd" clip-rule="evenodd" d="M90.5342 92.345L90.1877 92.585V112.585L90.5342 112.345V92.345Z" fill="#6580E1" fill-opacity="0.6"/>
<path fill-rule="evenodd" clip-rule="evenodd" d="M90.1877 92.585L89.5122 92.595V112.595L90.1877 112.585V92.585Z" fill="#6580E1" fill-opacity="0.6"/>
<path fill-rule="evenodd" clip-rule="evenodd" d="M89.5123 92.595L88.4038 92.985V112.985L89.5123 112.595V92.595Z" fill="#6580E1" fill-opacity="0.6"/>
<path fill-rule="evenodd" clip-rule="evenodd" d="M88.4038 92.9849L87.0269 93.6399V113.64L88.4038 112.985V92.9849Z" fill="#6580E1" fill-opacity="0.6"/>
<path fill-rule="evenodd" clip-rule="evenodd" d="M87.0268 93.6399L85.9875 93.3899V113.39L87.0268 113.64V93.6399Z" fill="#6580E1" fill-opacity="0.6"/>
<path fill-rule="evenodd" clip-rule="evenodd" d="M85.9876 93.3899L74.4175 93.9999V114L85.9876 113.39V93.3899Z" fill="#6580E1" fill-opacity="0.6"/>
<path fill-rule="evenodd" clip-rule="evenodd" d="M74.4175 94.46L73.3523 94.845V114.845L74.4175 114.46V94.46Z" fill="#6580E1" fill-opacity="0.6"/>
<path fill-rule="evenodd" clip-rule="evenodd" d="M73.3524 94.845L72.6509 94.91V114.91L73.3524 114.845V94.845Z" fill="#6580E1" fill-opacity="0.6"/>
<path fill-rule="evenodd" clip-rule="evenodd" d="M72.6508 94.91L71.7935 94.115V114.115L72.6508 114.91V94.91Z" fill="#6580E1" fill-opacity="0.6"/>
<path fill-rule="evenodd" clip-rule="evenodd" d="M71.7935 94.115L67.8877 94.21V114.21L71.7935 114.115V94.115Z" fill="#6580E1" fill-opacity="0.6"/>
<path fill-rule="evenodd" clip-rule="evenodd" d="M67.8876 94.21L66.8657 94V114L67.8876 114.21V94.21Z" fill="#6580E1" fill-opacity="0.6"/>
<path fill-rule="evenodd" clip-rule="evenodd" d="M66.8657 94L66.2422 94.29V114.29L66.8657 114V94Z" fill="#6580E1" fill-opacity="0.6"/>
<path fill-rule="evenodd" clip-rule="evenodd" d="M66.2422 94.29L60.7603 94.675V114.675L66.2422 114.29V94.29Z" fill="#6580E1" fill-opacity="0.6"/>
<path fill-rule="evenodd" clip-rule="evenodd" d="M60.7602 94.6749L59.0195 93.6699V113.67L60.7602 114.675V94.6749Z" fill="#6580E1" fill-opacity="0.6"/>
<path fill-rule="evenodd" clip-rule="evenodd" d="M59.0196 93.6699L57.0884 93.9049V113.905L59.0196 113.67V93.6699Z" fill="#6580E1" fill-opacity="0.6"/>
<path fill-rule="evenodd" clip-rule="evenodd" d="M57.0882 93.905L56.2915 94.555V114.555L57.0882 113.905V93.905Z" fill="#6580E1" fill-opacity="0.6"/>
<path fill-rule="evenodd" clip-rule="evenodd" d="M56.2916 94.5549L53.5723 95.1149V115.115L56.2916 114.555V94.5549Z" fill="#6580E1" fill-opacity="0.6"/>
<path fill-rule="evenodd" clip-rule="evenodd" d="M53.5722 95.115L42.998 96.18V116.18L53.5722 115.115V95.115Z" fill="#6580E1" fill-opacity="0.6"/>
<path fill-rule="evenodd" clip-rule="evenodd" d="M42.998 96.1799L42.7815 96.3149V116.315L42.998 116.18V96.1799Z" fill="#6580E1" fill-opacity="0.6"/>
<path fill-rule="evenodd" clip-rule="evenodd" d="M42.7816 96.3149L38.9624 96.3799V116.38L42.7816 116.315V96.3149Z" fill="#6580E1" fill-opacity="0.6"/>
<path fill-rule="evenodd" clip-rule="evenodd" d="M38.9625 96.3799L36.884 96.6499V116.65L38.9625 116.38V96.3799Z" fill="#6580E1" fill-opacity="0.6"/>
<path fill-rule="evenodd" clip-rule="evenodd" d="M36.8839 96.65L34.97 96.425V116.425L36.8839 116.65V96.65Z" fill="#6580E1" fill-opacity="0.6"/>
<path fill-rule="evenodd" clip-rule="evenodd" d="M34.9701 96.425L33.8962 97.215V117.215L34.9701 116.425V96.425Z" fill="#6580E1" fill-opacity="0.6"/>
<path fill-rule="evenodd" clip-rule="evenodd" d="M33.8962 97.2148L33.0388 97.3598V117.36L33.8962 117.215V97.2148Z" fill="#6580E1" fill-opacity="0.6"/>
<path fill-rule="evenodd" clip-rule="evenodd" d="M33.0387 97.3599L32.1641 96.9949V116.995L33.0387 117.36V97.3599Z" fill="#6580E1" fill-opacity="0.6"/>
<path fill-rule="evenodd" clip-rule="evenodd" d="M32.164 96.9949L28.0591 97.3649V117.365L32.164 116.995V96.9949Z" fill="#6580E1" fill-opacity="0.6"/>
<path fill-rule="evenodd" clip-rule="evenodd" d="M28.059 97.3649L27.5134 97.1499V117.15L28.059 117.365V97.3649Z" fill="#6580E1" fill-opacity="0.6"/>
<path fill-rule="evenodd" clip-rule="evenodd" d="M27.5134 97.1499L27.0371 97.4649V117.465L27.5134 117.15V97.1499Z" fill="#6580E1" fill-opacity="0.6"/>
<path fill-rule="evenodd" clip-rule="evenodd" d="M27.0371 97.4648L23.7722 97.6598V117.66L27.0371 117.465V97.4648Z" fill="#6580E1" fill-opacity="0.6"/>
<path fill-rule="evenodd" clip-rule="evenodd" d="M23.7722 97.6598L24.1533 97.0598V117.06L23.7722 117.66V97.6598Z" fill="#6580E1" fill-opacity="0.6"/>
<path fill-rule="evenodd" clip-rule="evenodd" d="M24.1534 97.06L22.7158 96.75V116.75L24.1534 117.06V97.06Z" fill="#6580E1" fill-opacity="0.6"/>
<path fill-rule="evenodd" clip-rule="evenodd" d="M22.7158 96.7498L0 92.7048V112.705L22.7158 116.75V96.7498Z" fill="#6580E1" fill-opacity="0.6"/>
<path fill-rule="evenodd" clip-rule="evenodd" d="M0 92.7049L1.16913 92.4099V112.41L0 112.705V92.7049Z" fill="#6580E1" fill-opacity="0.6"/>
<path fill-rule="evenodd" clip-rule="evenodd" d="M1.16895 92.4099L3.48989 92.4299V112.43L1.16895 112.41V92.4099Z" fill="#6580E1" fill-opacity="0.6"/>
<path fill-rule="evenodd" clip-rule="evenodd" d="M3.48999 92.4299L4.52922 92.6199V112.62L3.48999 112.43V92.4299Z" fill="#6580E1" fill-opacity="0.6"/>
<path fill-rule="evenodd" clip-rule="evenodd" d="M4.5293 92.62L7.37852 92.175V112.175L4.5293 112.62V92.62Z" fill="#6580E1" fill-opacity="0.6"/>
<path fill-rule="evenodd" clip-rule="evenodd" d="M7.37842 92.1749L9.5175 91.3799V111.38L7.37842 112.175V92.1749Z" fill="#6580E1" fill-opacity="0.6"/>
<path fill-rule="evenodd" clip-rule="evenodd" d="M9.51758 91.38L10.323 90.835V110.835L9.51758 111.38V91.38Z" fill="#6580E1" fill-opacity="0.6"/>
<path fill-rule="evenodd" clip-rule="evenodd" d="M10.323 90.8349L10.6781 89.9299V109.93L10.323 110.835V90.8349Z" fill="#6580E1" fill-opacity="0.6"/>
<path fill-rule="evenodd" clip-rule="evenodd" d="M10.678 89.9299L12.0896 90.0449V110.045L10.678 109.93V89.9299Z" fill="#6580E1" fill-opacity="0.6"/>
<path fill-rule="evenodd" clip-rule="evenodd" d="M12.0896 90.045L12.7651 87.105V107.105L12.0896 110.045V90.045Z" fill="#6580E1" fill-opacity="0.6"/>
<path fill-rule="evenodd" clip-rule="evenodd" d="M12.7651 87.1049L14.1075 86.3599V106.36L12.7651 107.105V87.1049Z" fill="#6580E1" fill-opacity="0.6"/>
<path fill-rule="evenodd" clip-rule="evenodd" d="M14.1074 86.3598L17.7187 85.6848V105.685L14.1074 106.36V86.3598Z" fill="#6580E1" fill-opacity="0.6"/>
<path fill-rule="evenodd" clip-rule="evenodd" d="M17.7188 85.6848L17.9526 82.5898V102.59L17.7188 105.685V85.6848Z" fill="#6580E1" fill-opacity="0.6"/>
<path fill-rule="evenodd" clip-rule="evenodd" d="M17.9526 82.5899L18.403 82.4299V102.43L17.9526 102.59V82.5899Z" fill="#6580E1" fill-opacity="0.6"/>
<path fill-rule="evenodd" clip-rule="evenodd" d="M18.4029 82.4299L17.1904 81.1199V101.12L18.4029 102.43V82.4299Z" fill="#6580E1" fill-opacity="0.6"/>
<path fill-rule="evenodd" clip-rule="evenodd" d="M17.1904 81.12L18.3249 78.915V98.915L17.1904 101.12V81.12Z" fill="#6580E1" fill-opacity="0.6"/>
<path fill-rule="evenodd" clip-rule="evenodd" d="M18.325 78.9149L23.9368 74.0449V94.0449L18.325 98.9149V78.9149Z" fill="#6580E1" fill-opacity="0.6"/>
<path fill-rule="evenodd" clip-rule="evenodd" d="M23.9368 74.045L26.6734 73.145V93.145L23.9368 94.045V74.045Z" fill="#6580E1" fill-opacity="0.6"/>
<path fill-rule="evenodd" clip-rule="evenodd" d="M26.6735 73.1449L26.5869 71.9749V91.9749L26.6735 93.1449V73.1449Z" fill="#6580E1" fill-opacity="0.6"/>
<path fill-rule="evenodd" clip-rule="evenodd" d="M26.5869 71.9749L29.0464 67.9849V87.9849L26.5869 91.9749V71.9749Z" fill="#6580E1" fill-opacity="0.6"/>
<path fill-rule="evenodd" clip-rule="evenodd" d="M29.0464 67.9849L31.9736 65.7649V85.7649L29.0464 87.9849V67.9849Z" fill="#6580E1" fill-opacity="0.6"/>
<path fill-rule="evenodd" clip-rule="evenodd" d="M31.9736 65.765L32.424 64.655V84.655L31.9736 85.765V65.765Z" fill="#6580E1" fill-opacity="0.6"/>
<path fill-rule="evenodd" clip-rule="evenodd" d="M32.4239 64.655L31.9822 63.7V83.7L32.4239 84.655V64.655Z" fill="#6580E1" fill-opacity="0.6"/>
<path fill-rule="evenodd" clip-rule="evenodd" d="M31.9822 63.7L30.1636 63.75V83.75L31.9822 83.7V63.7Z" fill="#6580E1" fill-opacity="0.6"/>
<path fill-rule="evenodd" clip-rule="evenodd" d="M30.1636 63.7499L29.9211 63.1399V83.1399L30.1636 83.7499V63.7499Z" fill="#6580E1" fill-opacity="0.6"/>
<path fill-rule="evenodd" clip-rule="evenodd" d="M29.9211 63.1399L28.8818 63.2399V83.2399L29.9211 83.1399V63.1399Z" fill="#6580E1" fill-opacity="0.6"/>
<path fill-rule="evenodd" clip-rule="evenodd" d="M28.8819 63.24L28.345 63.74V83.74L28.8819 83.24V63.24Z" fill="#6580E1" fill-opacity="0.6"/>
<path fill-rule="evenodd" clip-rule="evenodd" d="M28.3449 63.74L27.3577 62.97V82.97L28.3449 83.74V63.74Z" fill="#6580E1" fill-opacity="0.6"/>
<path fill-rule="evenodd" clip-rule="evenodd" d="M27.3576 62.9699L27.2363 62.6399V82.6399L27.3576 82.9699V62.9699Z" fill="#6580E1" fill-opacity="0.6"/>
<path fill-rule="evenodd" clip-rule="evenodd" d="M27.2363 62.64L27.3749 62.03V82.03L27.2363 82.64V62.64Z" fill="#6580E1" fill-opacity="0.6"/>
<path fill-rule="evenodd" clip-rule="evenodd" d="M27.375 62.0298L28.2497 61.9648V81.9648L27.375 82.0298V62.0298Z" fill="#6580E1" fill-opacity="0.6"/>
<path fill-rule="evenodd" clip-rule="evenodd" d="M28.2498 61.9648L28.345 61.8298V81.8298L28.2498 81.9648V61.9648Z" fill="#6580E1" fill-opacity="0.6"/>
<path fill-rule="evenodd" clip-rule="evenodd" d="M28.3449 61.83L28.3103 61.04V81.04L28.3449 81.83V61.83Z" fill="#6580E1" fill-opacity="0.6"/>
<path fill-rule="evenodd" clip-rule="evenodd" d="M28.3103 61.0399L32.1988 59.5349V79.5349L28.3103 81.0399V61.0399Z" fill="#6580E1" fill-opacity="0.6"/>
<path fill-rule="evenodd" clip-rule="evenodd" d="M32.1987 59.5349L33.0907 59.4199V79.4199L32.1987 79.5349V59.5349Z" fill="#6580E1" fill-opacity="0.6"/>
<path fill-rule="evenodd" clip-rule="evenodd" d="M33.0908 59.42L33.1255 59.26V79.26L33.0908 79.42V59.42Z" fill="#6580E1" fill-opacity="0.6"/>
<path fill-rule="evenodd" clip-rule="evenodd" d="M33.1253 59.2599L33.0994 59.0549V79.0549L33.1253 79.2599V59.2599Z" fill="#6580E1" fill-opacity="0.6"/>
<path fill-rule="evenodd" clip-rule="evenodd" d="M33.0995 59.055L32.3027 58.675V78.675L33.0995 79.055V59.055Z" fill="#6580E1" fill-opacity="0.6"/>
<path fill-rule="evenodd" clip-rule="evenodd" d="M32.3027 58.675L32.0862 57.45V77.45L32.3027 78.675V58.675Z" fill="#6580E1" fill-opacity="0.6"/>
<path fill-rule="evenodd" clip-rule="evenodd" d="M32.0861 57.45L31.3933 56.76V76.76L32.0861 77.45V57.45Z" fill="#6580E1" fill-opacity="0.6"/>
<path fill-rule="evenodd" clip-rule="evenodd" d="M31.3933 56.76L31.5579 56.675V76.675L31.3933 76.76V56.76Z" fill="#6580E1" fill-opacity="0.6"/>
<path fill-rule="evenodd" clip-rule="evenodd" d="M31.5579 56.675L32.701 57.065V77.065L31.5579 76.675V56.675Z" fill="#6580E1" fill-opacity="0.6"/>
<path fill-rule="evenodd" clip-rule="evenodd" d="M32.7009 57.065L33.2379 56.585V76.585L32.7009 77.065V57.065Z" fill="#6580E1" fill-opacity="0.6"/>
<path fill-rule="evenodd" clip-rule="evenodd" d="M33.238 56.5849L32.8569 56.0349V76.0349L33.238 76.5849V56.5849Z" fill="#6580E1" fill-opacity="0.6"/>
<path fill-rule="evenodd" clip-rule="evenodd" d="M32.8568 56.035L32.8308 53.95V73.95L32.8568 76.035V56.035Z" fill="#6580E1" fill-opacity="0.6"/>
<path fill-rule="evenodd" clip-rule="evenodd" d="M32.8308 53.95L33.5843 53.575V73.575L32.8308 73.95V53.95Z" fill="#6580E1" fill-opacity="0.6"/>
<path fill-rule="evenodd" clip-rule="evenodd" d="M33.5843 53.5749L32.7529 51.4749V71.4749L33.5843 73.5749V53.5749Z" fill="#6580E1" fill-opacity="0.6"/>
<path fill-rule="evenodd" clip-rule="evenodd" d="M32.7529 51.475L33.1686 48.915V68.915L32.7529 71.475V51.475Z" fill="#6580E1" fill-opacity="0.6"/>
<path fill-rule="evenodd" clip-rule="evenodd" d="M33.1686 48.9149L30.5359 46.7849V66.7849L33.1686 68.9149V48.9149Z" fill="#6580E1" fill-opacity="0.6"/>
<path fill-rule="evenodd" clip-rule="evenodd" d="M30.5361 46.785L30.4495 46.155V66.155L30.5361 66.785V46.785Z" fill="#6580E1" fill-opacity="0.6"/>
<path fill-rule="evenodd" clip-rule="evenodd" d="M30.4495 46.1549L31.2462 45.7749V65.7749L30.4495 66.1549V46.1549Z" fill="#6580E1" fill-opacity="0.6"/>
<path fill-rule="evenodd" clip-rule="evenodd" d="M31.2461 45.7749L33.9221 45.6599V65.6599L31.2461 65.7749V45.7749Z" fill="#6580E1" fill-opacity="0.6"/>
<path fill-rule="evenodd" clip-rule="evenodd" d="M33.9221 45.6599L34.511 43.4399V63.4399L33.9221 65.6599V45.6599Z" fill="#6580E1" fill-opacity="0.6"/>
<path fill-rule="evenodd" clip-rule="evenodd" d="M34.511 43.4401L35.0826 42.8101V62.8101L34.511 63.4401V43.4401Z" fill="#6580E1" fill-opacity="0.6"/>
<path fill-rule="evenodd" clip-rule="evenodd" d="M35.0825 42.81L36.2863 42.425V62.425L35.0825 62.81V42.81Z" fill="#6580E1" fill-opacity="0.6"/>
<path fill-rule="evenodd" clip-rule="evenodd" d="M36.2864 42.425L38.3475 42.445V62.445L36.2864 62.425V42.425Z" fill="#6580E1" fill-opacity="0.6"/>
<path fill-rule="evenodd" clip-rule="evenodd" d="M38.3474 42.4448L39.2221 43.1298V63.1298L38.3474 62.4448V42.4448Z" fill="#6580E1" fill-opacity="0.6"/>
<path fill-rule="evenodd" clip-rule="evenodd" d="M39.2222 43.13L41.5778 42.74V62.74L39.2222 63.13V43.13Z" fill="#6580E1" fill-opacity="0.6"/>
<path fill-rule="evenodd" clip-rule="evenodd" d="M41.5779 42.7398L42.314 42.2148V62.2148L41.5779 62.7398V42.7398Z" fill="#6580E1" fill-opacity="0.6"/>
<path fill-rule="evenodd" clip-rule="evenodd" d="M42.314 42.215L44.1153 42.135V62.135L42.314 62.215V42.215Z" fill="#6580E1" fill-opacity="0.6"/>
<path fill-rule="evenodd" clip-rule="evenodd" d="M44.1152 42.135L44.8773 42.215V62.215L44.1152 62.135V42.135Z" fill="#6580E1" fill-opacity="0.6"/>
<path fill-rule="evenodd" clip-rule="evenodd" d="M44.8774 42.2148L45.1546 43.0348V63.0348L44.8774 62.2148V42.2148Z" fill="#6580E1" fill-opacity="0.6"/>
<path fill-rule="evenodd" clip-rule="evenodd" d="M45.1545 43.0349L45.4836 43.1449V63.1449L45.1545 63.0349V43.0349Z" fill="#6580E1" fill-opacity="0.6"/>
<path fill-rule="evenodd" clip-rule="evenodd" d="M45.4835 43.145L45.1458 43.32V63.32L45.4835 63.145V43.145Z" fill="#6580E1" fill-opacity="0.6"/>
<path fill-rule="evenodd" clip-rule="evenodd" d="M45.1458 43.3198L44.938 44.0198V64.0198L45.1458 63.3198V43.3198Z" fill="#6580E1" fill-opacity="0.6"/>
<path fill-rule="evenodd" clip-rule="evenodd" d="M44.938 44.02L45.6135 45.29V65.29L44.938 64.02V44.02Z" fill="#6580E1" fill-opacity="0.6"/>
<path fill-rule="evenodd" clip-rule="evenodd" d="M45.6134 45.29L45.241 45.585V65.585L45.6134 65.29V45.29Z" fill="#6580E1" fill-opacity="0.6"/>
<path fill-rule="evenodd" clip-rule="evenodd" d="M45.241 45.585L45.1111 46.57V66.57L45.241 65.585V45.585Z" fill="#6580E1" fill-opacity="0.6"/>
<path fill-rule="evenodd" clip-rule="evenodd" d="M45.1111 46.5698L45.5008 46.6948V66.6948L45.1111 66.5698V46.5698Z" fill="#6580E1" fill-opacity="0.6"/>
<path fill-rule="evenodd" clip-rule="evenodd" d="M45.501 46.695L47.9778 46.085V66.085L45.501 66.695V46.695Z" fill="#6580E1" fill-opacity="0.6"/>
<path fill-rule="evenodd" clip-rule="evenodd" d="M47.9778 46.085L54.0919 46.695V66.695L47.9778 66.085V46.085Z" fill="#6580E1" fill-opacity="0.6"/>
<path fill-rule="evenodd" clip-rule="evenodd" d="M54.0918 46.695L54.0745 45.915V65.915L54.0918 66.695V46.695Z" fill="#6580E1" fill-opacity="0.6"/>
<path fill-rule="evenodd" clip-rule="evenodd" d="M54.0745 45.9149L53.9099 45.4099V65.4099L54.0745 65.9149V45.9149Z" fill="#6580E1" fill-opacity="0.6"/>
<path fill-rule="evenodd" clip-rule="evenodd" d="M53.9099 45.4099L53.5635 45.3899V65.3899L53.9099 65.4099V45.4099Z" fill="#6580E1" fill-opacity="0.6"/>
<path fill-rule="evenodd" clip-rule="evenodd" d="M53.5635 45.3898L53.6934 44.7148V64.7148L53.5635 65.3898V45.3898Z" fill="#6580E1" fill-opacity="0.6"/>
<path fill-rule="evenodd" clip-rule="evenodd" d="M53.6935 44.7148L53.373 44.3398V64.3398L53.6935 64.7148V44.7148Z" fill="#6580E1" fill-opacity="0.6"/>
<path fill-rule="evenodd" clip-rule="evenodd" d="M53.373 44.3399L53.477 44.1199V64.1199L53.373 64.3399V44.3399Z" fill="#6580E1" fill-opacity="0.6"/>
<path fill-rule="evenodd" clip-rule="evenodd" d="M53.4771 44.1199L53.936 44.0649V64.0649L53.4771 64.1199V44.1199Z" fill="#6580E1" fill-opacity="0.6"/>
<path fill-rule="evenodd" clip-rule="evenodd" d="M53.936 44.065L53.5549 43.915V63.915L53.936 64.065V44.065Z" fill="#6580E1" fill-opacity="0.6"/>
<path fill-rule="evenodd" clip-rule="evenodd" d="M53.5549 43.9149L54.1265 43.2549V63.2549L53.5549 63.9149V43.9149Z" fill="#6580E1" fill-opacity="0.6"/>
<path fill-rule="evenodd" clip-rule="evenodd" d="M54.1266 43.255L53.9707 42.665V62.665L54.1266 63.255V43.255Z" fill="#6580E1" fill-opacity="0.6"/>
<path fill-rule="evenodd" clip-rule="evenodd" d="M53.9707 42.6649L54.3604 42.3499V62.3499L53.9707 62.6649V42.6649Z" fill="#6580E1" fill-opacity="0.6"/>
<path fill-rule="evenodd" clip-rule="evenodd" d="M54.3604 42.3498L54.1006 41.5798V61.5798L54.3604 62.3498V42.3498Z" fill="#6580E1" fill-opacity="0.6"/>
<path fill-rule="evenodd" clip-rule="evenodd" d="M54.1006 41.58L54.9406 40.855V60.855L54.1006 61.58V41.58Z" fill="#6580E1" fill-opacity="0.6"/>
<path fill-rule="evenodd" clip-rule="evenodd" d="M54.9407 40.8548L55.1918 40.8198V60.8198L54.9407 60.8548V40.8548Z" fill="#6580E1" fill-opacity="0.6"/>
<path fill-rule="evenodd" clip-rule="evenodd" d="M55.1916 40.8198L55.1223 41.7498V61.7498L55.1916 60.8198V40.8198Z" fill="#6580E1" fill-opacity="0.6"/>
<path fill-rule="evenodd" clip-rule="evenodd" d="M55.1223 41.75L55.5467 42.075V62.075L55.1223 61.75V41.75Z" fill="#6580E1" fill-opacity="0.6"/>
<path fill-rule="evenodd" clip-rule="evenodd" d="M55.5469 42.075L56.1964 42.18V62.18L55.5469 62.075V42.075Z" fill="#6580E1" fill-opacity="0.6"/>
<path fill-rule="evenodd" clip-rule="evenodd" d="M56.1963 42.1799L56.5081 41.6299V61.6299L56.1963 62.1799V42.1799Z" fill="#6580E1" fill-opacity="0.6"/>
<path fill-rule="evenodd" clip-rule="evenodd" d="M56.5081 41.6299L56.6899 41.8049V61.8049L56.5081 61.6299V41.6299Z" fill="#6580E1" fill-opacity="0.6"/>
<path fill-rule="evenodd" clip-rule="evenodd" d="M56.6899 41.8049L56.9064 41.6399V61.6399L56.6899 61.8049V41.8049Z" fill="#6580E1" fill-opacity="0.6"/>
<path fill-rule="evenodd" clip-rule="evenodd" d="M56.9063 41.64L56.4041 41.02V61.02L56.9063 61.64V41.64Z" fill="#6580E1" fill-opacity="0.6"/>
<path fill-rule="evenodd" clip-rule="evenodd" d="M56.4041 41.0198L57.3307 40.9348V60.9348L56.4041 61.0198V41.0198Z" fill="#6580E1" fill-opacity="0.6"/>
<path fill-rule="evenodd" clip-rule="evenodd" d="M57.3308 40.935L57.478 40.73V60.73L57.3308 60.935V40.935Z" fill="#6580E1" fill-opacity="0.6"/>
<path fill-rule="evenodd" clip-rule="evenodd" d="M57.478 40.73L61.6696 41.33V61.33L57.478 60.73V40.73Z" fill="#6580E1" fill-opacity="0.6"/>
<path fill-rule="evenodd" clip-rule="evenodd" d="M61.6697 41.3298L62.4578 39.9348V59.9348L61.6697 61.3298V41.3298Z" fill="#6580E1" fill-opacity="0.6"/>
<path fill-rule="evenodd" clip-rule="evenodd" d="M62.4577 39.9348L60.8643 37.1848V57.1848L62.4577 59.9348V39.9348Z" fill="#6580E1" fill-opacity="0.6"/>
<path fill-rule="evenodd" clip-rule="evenodd" d="M60.8643 37.1849L61.0548 36.7249V56.7249L60.8643 57.1849V37.1849Z" fill="#6580E1" fill-opacity="0.6"/>
<path fill-rule="evenodd" clip-rule="evenodd" d="M61.0546 36.7249L60.6736 36.4949V56.4949L61.0546 56.7249V36.7249Z" fill="#6580E1" fill-opacity="0.6"/>
<path fill-rule="evenodd" clip-rule="evenodd" d="M60.6736 36.4949L60.7862 36.1099V56.1099L60.6736 56.4949V36.4949Z" fill="#6580E1" fill-opacity="0.6"/>
<path fill-rule="evenodd" clip-rule="evenodd" d="M60.7863 36.11L60.4832 35.625V55.625L60.7863 56.11V36.11Z" fill="#6580E1" fill-opacity="0.6"/>
<path fill-rule="evenodd" clip-rule="evenodd" d="M60.4832 35.6248L60.6564 34.9648V54.9648L60.4832 55.6248V35.6248Z" fill="#6580E1" fill-opacity="0.6"/>
<path fill-rule="evenodd" clip-rule="evenodd" d="M60.6562 34.9648L61.2625 34.7148V54.7148L60.6562 54.9648V34.9648Z" fill="#6580E1" fill-opacity="0.6"/>
<path fill-rule="evenodd" clip-rule="evenodd" d="M61.2625 34.7149L61.8254 33.6299V53.6299L61.2625 54.7149V34.7149Z" fill="#6580E1" fill-opacity="0.6"/>
<path fill-rule="evenodd" clip-rule="evenodd" d="M61.8254 33.63L63.0898 29.05V49.05L61.8254 53.63V33.63Z" fill="#6580E1" fill-opacity="0.6"/>
<path fill-rule="evenodd" clip-rule="evenodd" d="M63.0898 29.0499L63.6095 28.4399V48.4399L63.0898 49.0499V29.0499Z" fill="#6580E1" fill-opacity="0.6"/>
<path fill-rule="evenodd" clip-rule="evenodd" d="M63.6096 28.44L63.2458 27.25V47.25L63.6096 48.44V28.44Z" fill="#6580E1" fill-opacity="0.6"/>
<path fill-rule="evenodd" clip-rule="evenodd" d="M63.2459 27.2499L62.4924 26.325V46.325L63.2459 47.2499V27.2499Z" fill="#6580E1" fill-opacity="0.6"/>
<path fill-rule="evenodd" clip-rule="evenodd" d="M62.4924 26.3249L66.0951 25.7949V45.7949L62.4924 46.3249V26.3249Z" fill="#6580E1" fill-opacity="0.6"/>
<path fill-rule="evenodd" clip-rule="evenodd" d="M66.095 25.7949L66.1902 25.3599V45.3599L66.095 45.7949V25.7949Z" fill="#6580E1" fill-opacity="0.6"/>
<path fill-rule="evenodd" clip-rule="evenodd" d="M66.1902 25.36L66.4327 25.27V45.27L66.1902 45.36V25.36Z" fill="#6580E1" fill-opacity="0.6"/>
<path fill-rule="evenodd" clip-rule="evenodd" d="M66.4326 25.27L67.4892 25.49V45.49L66.4326 45.27V25.27Z" fill="#6580E1" fill-opacity="0.6"/>
<path fill-rule="evenodd" clip-rule="evenodd" d="M67.4893 25.4899L68.1734 25.2449V45.2449L67.4893 45.4899V25.4899Z" fill="#6580E1" fill-opacity="0.6"/>
<path fill-rule="evenodd" clip-rule="evenodd" d="M68.1733 25.2449L69.3078 25.4199V45.4199L68.1733 45.2449V25.2449Z" fill="#6580E1" fill-opacity="0.6"/>
<path fill-rule="evenodd" clip-rule="evenodd" d="M69.3079 25.4199L69.9487 24.9299V44.9299L69.3079 45.4199V25.4199Z" fill="#6580E1" fill-opacity="0.6"/>
<path fill-rule="evenodd" clip-rule="evenodd" d="M69.9488 24.93L69.5071 24.665V44.665L69.9488 44.93V24.93Z" fill="#6580E1" fill-opacity="0.6"/>
<path fill-rule="evenodd" clip-rule="evenodd" d="M69.5071 24.665L70.8148 24.81V44.81L69.5071 44.665V24.665Z" fill="#6580E1" fill-opacity="0.6"/>
<path fill-rule="evenodd" clip-rule="evenodd" d="M70.8147 24.8099L70.9966 24.5049V44.5049L70.8147 44.8099V24.8099Z" fill="#6580E1" fill-opacity="0.6"/>
<path fill-rule="evenodd" clip-rule="evenodd" d="M70.9966 24.5049L72.5381 24.5049V44.5049H70.9966V24.5049Z" fill="#6580E1" fill-opacity="0.6"/>
<path fill-rule="evenodd" clip-rule="evenodd" d="M72.5381 24.5048L77.8035 22.1848V42.1848L72.5381 44.5048V24.5048Z" fill="#6580E1" fill-opacity="0.6"/>
<path fill-rule="evenodd" clip-rule="evenodd" d="M77.8037 22.1848L77.7864 20.4648V40.4648L77.8037 42.1848V22.1848Z" fill="#6580E1" fill-opacity="0.6"/>
<path fill-rule="evenodd" clip-rule="evenodd" d="M77.7863 20.4649L77.4226 20.2949V40.2949L77.7863 40.4649V20.4649Z" fill="#6580E1" fill-opacity="0.6"/>
<path fill-rule="evenodd" clip-rule="evenodd" d="M77.4226 19.3948L79.7695 17.5598V37.5598L77.4226 39.3948V19.3948Z" fill="#6580E1" fill-opacity="0.6"/>
<path fill-rule="evenodd" clip-rule="evenodd" d="M79.7695 17.56L82.1598 14.71V34.71L79.7695 37.56V17.56Z" fill="#6580E1" fill-opacity="0.6"/>
<path fill-rule="evenodd" clip-rule="evenodd" d="M82.1597 14.71L83.2249 14.385V34.385L82.1597 34.71V14.71Z" fill="#6580E1" fill-opacity="0.6"/>
<path fill-rule="evenodd" clip-rule="evenodd" d="M83.2249 14.385L84.2554 14.46V34.46L83.2249 34.385V14.385Z" fill="#6580E1" fill-opacity="0.6"/>
<path fill-rule="evenodd" clip-rule="evenodd" d="M84.2556 14.46L84.2989 14.965V34.965L84.2556 34.46V14.46Z" fill="#6580E1" fill-opacity="0.6"/>
<path fill-rule="evenodd" clip-rule="evenodd" d="M84.2988 14.9648L85.9703 15.0398V35.0398L84.2988 34.9648V14.9648Z" fill="#6580E1" fill-opacity="0.6"/>
<path fill-rule="evenodd" clip-rule="evenodd" d="M85.9702 15.0399L86.0655 14.5649V34.5649L85.9702 35.0399V15.0399Z" fill="#6580E1" fill-opacity="0.6"/>
<path fill-rule="evenodd" clip-rule="evenodd" d="M86.0655 14.5651L85.5806 14.4351V34.4351L86.0655 34.5651V14.5651Z" fill="#6580E1" fill-opacity="0.6"/>
<path fill-rule="evenodd" clip-rule="evenodd" d="M85.5806 14.4349L85.1042 13.6699V33.6699L85.5806 34.4349V14.4349Z" fill="#6580E1" fill-opacity="0.6"/>
<path fill-rule="evenodd" clip-rule="evenodd" d="M85.1043 13.67L85.061 13.345V33.345L85.1043 33.67V13.67Z" fill="#6580E1" fill-opacity="0.6"/>
<path fill-rule="evenodd" clip-rule="evenodd" d="M85.061 13.3448L85.546 13.1848V33.1848L85.061 33.3448V13.3448Z" fill="#6580E1" fill-opacity="0.6"/>
<path fill-rule="evenodd" clip-rule="evenodd" d="M85.5458 13.185L85.26 13V33L85.5458 33.185V13.185Z" fill="#6580E1" fill-opacity="0.6"/>
<path fill-rule="evenodd" clip-rule="evenodd" d="M85.26 12.9998L89.8759 9.70483V29.7048L85.26 32.9998V12.9998Z" fill="#6580E1" fill-opacity="0.6"/>
<path fill-rule="evenodd" clip-rule="evenodd" d="M89.876 9.70505L90.742 9.42505V29.425L89.876 29.705V9.70505Z" fill="#6580E1" fill-opacity="0.6"/>
<path fill-rule="evenodd" clip-rule="evenodd" d="M90.7419 9.42505L91.4088 9.43004V29.43L90.7419 29.425V9.42505Z" fill="#6580E1" fill-opacity="0.6"/>
<path fill-rule="evenodd" clip-rule="evenodd" d="M91.4089 9.43003L91.6601 8.65503V28.655L91.4089 29.43V9.43003Z" fill="#6580E1" fill-opacity="0.6"/>
<path fill-rule="evenodd" clip-rule="evenodd" d="M91.66 8.65501L91.4868 7.63501V27.635L91.66 28.655V8.65501Z" fill="#6580E1" fill-opacity="0.6"/>
<path fill-rule="evenodd" clip-rule="evenodd" d="M91.4869 7.63485L90.5083 7.34985V27.3499L91.4869 27.6349V7.63485Z" fill="#6580E1" fill-opacity="0.6"/>
<path fill-rule="evenodd" clip-rule="evenodd" d="M90.5081 7.35005L89.6248 6.80005V26.8L90.5081 27.35V7.35005Z" fill="#6580E1" fill-opacity="0.6"/>
<path fill-rule="evenodd" clip-rule="evenodd" d="M89.6249 6.80005L89.3218 6.85505V26.8551L89.6249 26.8V6.80005Z" fill="#6580E1" fill-opacity="0.6"/>
<path fill-rule="evenodd" clip-rule="evenodd" d="M89.3217 6.85489L88.8887 6.26489V26.2649L89.3217 26.8549V6.85489Z" fill="#6580E1" fill-opacity="0.6"/>
<path fill-rule="evenodd" clip-rule="evenodd" d="M88.8887 6.26496L89.5902 4.70996V24.71L88.8887 26.265V6.26496Z" fill="#6580E1" fill-opacity="0.6"/>
<path fill-rule="evenodd" clip-rule="evenodd" d="M89.5903 4.70983L89.6249 2.57983V22.5798L89.5903 24.7098V4.70983Z" fill="#6580E1" fill-opacity="0.6"/>
<path d="M89.625 2.58L99.082 0.730011L99.463 0L101.758 0.535001L109.214 8.11999L113.432 9.98499L121.105 13.915L128.787 16.97L133.914 19.28L126.847 24.7L125.608 27.125L131.125 27.06L134.39 28.345L133.844 31.55L133.463 31.69L133.238 32.2L133.316 33.285L132.987 34.015L132.554 37.765L131.359 39.065L132.459 42.52L130.302 46.885L134.987 53.97L134.806 55.875L134.537 56.33L135.637 57.855L136.07 58.075L135.109 58.98L134.295 60.58L135.152 61.365L135.594 63.16L135.412 63.735L135.845 64.105L135.793 64.545L136.053 64.785L135.507 65.91L135.983 67.825L134.554 68.64L133.983 69.24L134.009 69.505L131.722 70.835L130.112 72.285L129.912 73.18L130.406 74.975L130.198 75.775L129.748 76.255L129.921 76.815L130.397 77.06L130.302 78.275L128.839 78.73L129.679 79.925L126.691 84.32L116.342 86.125L115.814 86.74L115.129 86.285L107.829 88.63L107.032 89.22L106.504 89.255L105.11 89.93L104.512 89.935L103.94 89.725L103.862 89.87L91.8766 92.76L90.5343 92.345L90.1879 92.585L89.5124 92.595L88.4039 92.985L87.0269 93.64L85.9877 93.39L74.4176 94V94.46L73.3523 94.845L72.6509 94.91L71.7935 94.115L67.8877 94.21L66.8658 94L66.2423 94.29L60.7603 94.675L59.0196 93.67L57.0884 93.905L56.2917 94.555L53.5723 95.115L42.9982 96.18L42.7817 96.315L38.9625 96.38L36.884 96.65L34.9701 96.425L33.8962 97.215L33.0389 97.36L32.1642 96.995L28.0592 97.365L27.5136 97.15L27.0373 97.465L23.7724 97.66L24.1534 97.06L22.7158 96.75L0 92.705L1.16913 92.41L3.49008 92.43L4.52931 92.62L7.37854 92.175L9.51762 91.38L10.323 90.835L10.6781 89.93L12.0897 90.045L12.7652 87.105L14.1076 86.36L17.7189 85.685L17.9527 82.59L18.403 82.43L17.1906 81.12L18.3251 78.915L23.9369 74.045L26.6736 73.145L26.587 71.975L29.0465 67.985L31.9737 65.765L32.424 64.655L31.9823 63.7L30.1637 63.75L29.9212 63.14L28.8819 63.24L28.345 63.74L27.3577 62.97L27.2365 62.64L27.3751 62.03L28.2497 61.965L28.345 61.83L28.3104 61.04L32.1988 59.535L33.0908 59.42L33.1255 59.26L33.0995 59.055L32.3027 58.675L32.0862 57.45L31.3934 56.76L31.558 56.675L32.7011 57.065L33.2381 56.585L32.857 56.035L32.831 53.95L33.5845 53.575L32.7531 51.475L33.1688 48.915L30.5361 46.785L30.4495 46.155L31.2462 45.775L33.9222 45.66L34.5111 43.44L35.0827 42.81L36.2865 42.425L38.3476 42.445L39.2223 43.13L41.5779 42.74L42.314 42.215L44.1153 42.135L44.8774 42.215L45.1546 43.035L45.4837 43.145L45.1459 43.32L44.9381 44.02L45.6136 45.29L45.2412 45.585L45.1113 46.57L45.501 46.695L47.9778 46.085L54.0919 46.695L54.0746 45.915L53.9101 45.41L53.5637 45.39L53.6936 44.715L53.3731 44.34L53.4771 44.12L53.9361 44.065L53.555 43.915L54.1266 43.255L53.9707 42.665L54.3604 42.35L54.1006 41.58L54.9407 40.855L55.1918 40.82L55.1225 41.75L55.5469 42.075L56.1964 42.18L56.5082 41.63L56.69 41.805L56.9065 41.64L56.4042 41.02L57.3309 40.935L57.4781 40.73L61.6697 41.33L62.4578 39.935L60.8643 37.185L61.0548 36.725L60.6737 36.495L60.7863 36.11L60.4832 35.625L60.6564 34.965L61.2626 34.715L61.8256 33.63L63.09 29.05L63.6096 28.44L63.2458 27.25L62.4924 26.325L66.0951 25.795L66.1903 25.36L66.4328 25.27L67.4894 25.49L68.1735 25.245L69.308 25.42L69.9489 24.93L69.5072 24.665L70.8149 24.81L70.9968 24.505H72.5383L77.8037 22.185L77.7864 20.465L77.4227 20.295L77.4227 19.395L79.7696 17.56L82.1598 14.71L83.2251 14.385L84.2556 14.46L84.2989 14.965L85.9703 15.04L86.0656 14.565L85.5807 14.435L85.1043 13.67L85.061 13.345L85.546 13.185L85.2602 13L89.8761 9.705L90.7422 9.425L91.409 9.42999L91.6601 8.65499L91.4869 7.63499L90.5083 7.34999L89.625 6.79999L89.3219 6.855L88.8889 6.265L89.5903 4.71L89.625 2.58Z" fill="white"/>
</svg>
