<svg width="89" height="117" viewBox="0 0 89 117" fill="none" xmlns="http://www.w3.org/2000/svg">
<path fill-rule="evenodd" clip-rule="evenodd" d="M86.096 56.4253L84.447 56.9356L83.749 71.5538L85.398 71.0435L86.096 56.4253Z" fill="#6580E1" fill-opacity="0.6"/>
<path fill-rule="evenodd" clip-rule="evenodd" d="M84.4468 56.9355L82.6479 55.5938L81.95 70.2119L83.7489 71.5537L84.4468 56.9355Z" fill="#6580E1" fill-opacity="0.6"/>
<path fill-rule="evenodd" clip-rule="evenodd" d="M82.648 55.5937L79.3 53.5986L78.6021 68.2168L81.95 70.2119L82.648 55.5937Z" fill="#6580E1" fill-opacity="0.6"/>
<path fill-rule="evenodd" clip-rule="evenodd" d="M79.3 53.5987L79.6298 52.9524L78.9318 67.5706L78.6021 68.2169L79.3 53.5987Z" fill="#6580E1" fill-opacity="0.6"/>
<path fill-rule="evenodd" clip-rule="evenodd" d="M79.6299 52.9524L80.4794 52.9673L79.7814 67.5854L78.9319 67.5706L79.6299 52.9524Z" fill="#6580E1" fill-opacity="0.6"/>
<path fill-rule="evenodd" clip-rule="evenodd" d="M80.4795 52.9673L81.0891 52.5396L80.3911 67.1577L79.7815 67.5854L80.4795 52.9673Z" fill="#6580E1" fill-opacity="0.6"/>
<path fill-rule="evenodd" clip-rule="evenodd" d="M81.0891 52.5395L82.0685 51.446L81.3705 66.0642L80.3911 67.1577L81.0891 52.5395Z" fill="#6580E1" fill-opacity="0.6"/>
<path fill-rule="evenodd" clip-rule="evenodd" d="M82.0684 51.4461L82.5081 50.4207L81.8101 65.0388L81.3704 66.0642L82.0684 51.4461Z" fill="#6580E1" fill-opacity="0.6"/>
<path fill-rule="evenodd" clip-rule="evenodd" d="M82.508 50.4207L83.3875 50.3408L82.6895 64.959L81.8101 65.0388L82.508 50.4207Z" fill="#6580E1" fill-opacity="0.6"/>
<path fill-rule="evenodd" clip-rule="evenodd" d="M83.3875 50.3408L82.678 49.6816L81.98 64.2998L82.6895 64.959L83.3875 50.3408Z" fill="#6580E1" fill-opacity="0.6"/>
<path fill-rule="evenodd" clip-rule="evenodd" d="M82.678 49.6816L83.3676 49.2969L82.6696 63.915L81.98 64.2998L82.678 49.6816Z" fill="#6580E1" fill-opacity="0.6"/>
<path fill-rule="evenodd" clip-rule="evenodd" d="M83.3675 49.2969L83.0976 47.9397L82.3997 62.5579L82.6695 63.9151L83.3675 49.2969Z" fill="#6580E1" fill-opacity="0.6"/>
<path fill-rule="evenodd" clip-rule="evenodd" d="M83.0978 47.9397L82.3982 47.2876L81.7002 61.9058L82.3998 62.5579L83.0978 47.9397Z" fill="#6580E1" fill-opacity="0.6"/>
<path fill-rule="evenodd" clip-rule="evenodd" d="M82.3982 47.2876L82.2783 45.8796L81.5803 60.4978L81.7002 61.9058L82.3982 47.2876Z" fill="#6580E1" fill-opacity="0.6"/>
<path fill-rule="evenodd" clip-rule="evenodd" d="M82.2782 45.8796L81.1589 44.6643L80.4609 59.2825L81.5803 60.4977L82.2782 45.8796Z" fill="#6580E1" fill-opacity="0.6"/>
<path fill-rule="evenodd" clip-rule="evenodd" d="M81.1589 44.6642L80.3994 42.9944L79.7014 57.6125L80.461 59.2824L81.1589 44.6642Z" fill="#6580E1" fill-opacity="0.6"/>
<path fill-rule="evenodd" clip-rule="evenodd" d="M80.3994 42.9945L79.3301 41.6646L78.6321 56.2827L79.7014 57.6126L80.3994 42.9945Z" fill="#6580E1" fill-opacity="0.6"/>
<path fill-rule="evenodd" clip-rule="evenodd" d="M79.3301 41.6645L78.4206 40.7888L77.7227 55.407L78.6321 56.2827L79.3301 41.6645Z" fill="#6580E1" fill-opacity="0.6"/>
<path fill-rule="evenodd" clip-rule="evenodd" d="M78.4207 40.7888L76.7517 41.3736L76.0537 55.9918L77.7227 55.407L78.4207 40.7888Z" fill="#6580E1" fill-opacity="0.6"/>
<path fill-rule="evenodd" clip-rule="evenodd" d="M76.7517 41.3735L77.0115 41.8712L76.3136 56.4894L76.0537 55.9917L76.7517 41.3735Z" fill="#6580E1" fill-opacity="0.6"/>
<path fill-rule="evenodd" clip-rule="evenodd" d="M77.0114 41.8713L75.6123 42.6949L74.9143 57.3131L76.3135 56.4895L77.0114 41.8713Z" fill="#6580E1" fill-opacity="0.6"/>
<path fill-rule="evenodd" clip-rule="evenodd" d="M75.6124 42.695L71.365 38.8696L70.667 53.4878L74.9144 57.3132L75.6124 42.695Z" fill="#6580E1" fill-opacity="0.6"/>
<path fill-rule="evenodd" clip-rule="evenodd" d="M71.365 38.8695L70.9153 38.5989L70.2173 53.217L70.667 53.4877L71.365 38.8695Z" fill="#6580E1" fill-opacity="0.6"/>
<path fill-rule="evenodd" clip-rule="evenodd" d="M70.9152 38.5989L70.2356 38.8339L69.5376 53.452L70.2172 53.217L70.9152 38.5989Z" fill="#6580E1" fill-opacity="0.6"/>
<path fill-rule="evenodd" clip-rule="evenodd" d="M70.2356 38.8338L69.1763 37.8247L68.4783 52.4429L69.5376 53.452L70.2356 38.8338Z" fill="#6580E1" fill-opacity="0.6"/>
<path fill-rule="evenodd" clip-rule="evenodd" d="M69.1763 37.8247L70.1057 37.2483L69.4077 51.8665L68.4783 52.4429L69.1763 37.8247Z" fill="#6580E1" fill-opacity="0.6"/>
<path fill-rule="evenodd" clip-rule="evenodd" d="M70.1057 37.2483L70.0957 36.9343L69.3977 51.5525L69.4077 51.8665L70.1057 37.2483Z" fill="#6580E1" fill-opacity="0.6"/>
<path fill-rule="evenodd" clip-rule="evenodd" d="M70.0958 36.9344L69.5461 36.593L68.8481 51.2112L69.3978 51.5526L70.0958 36.9344Z" fill="#6580E1" fill-opacity="0.6"/>
<path fill-rule="evenodd" clip-rule="evenodd" d="M69.5461 36.593L66.428 35.6541L65.73 50.2722L68.8481 51.2112L69.5461 36.593Z" fill="#6580E1" fill-opacity="0.6"/>
<path fill-rule="evenodd" clip-rule="evenodd" d="M66.428 35.6541L65.5486 33.5447L64.8506 48.1628L65.73 50.2722L66.428 35.6541Z" fill="#6580E1" fill-opacity="0.6"/>
<path fill-rule="evenodd" clip-rule="evenodd" d="M65.5486 33.5445L66.9277 33.3342L66.2297 47.9524L64.8506 48.1627L65.5486 33.5445Z" fill="#6580E1" fill-opacity="0.6"/>
<path fill-rule="evenodd" clip-rule="evenodd" d="M66.9277 33.3342L68.2169 32.7192L67.519 47.3374L66.2297 47.9524L66.9277 33.3342Z" fill="#6580E1" fill-opacity="0.6"/>
<path fill-rule="evenodd" clip-rule="evenodd" d="M68.2168 32.7192L71.4648 32.6726L70.7668 47.2908L67.5188 47.3374L68.2168 32.7192Z" fill="#6580E1" fill-opacity="0.6"/>
<path fill-rule="evenodd" clip-rule="evenodd" d="M71.4648 32.6726L72.774 33.6608L72.076 48.279L70.7668 47.2908L71.4648 32.6726Z" fill="#6580E1" fill-opacity="0.6"/>
<path fill-rule="evenodd" clip-rule="evenodd" d="M72.7742 33.6609L72.984 34.0754L72.286 48.6936L72.0762 48.2791L72.7742 33.6609Z" fill="#6580E1" fill-opacity="0.6"/>
<path fill-rule="evenodd" clip-rule="evenodd" d="M72.9839 34.0755L74.463 32.2378L73.765 46.856L72.2859 48.6937L72.9839 34.0755Z" fill="#6580E1" fill-opacity="0.6"/>
<path fill-rule="evenodd" clip-rule="evenodd" d="M74.4631 32.2377L74.8629 31.375L74.1649 45.9932L73.7651 46.8559L74.4631 32.2377Z" fill="#6580E1" fill-opacity="0.6"/>
<path fill-rule="evenodd" clip-rule="evenodd" d="M74.8629 31.375L73.5437 31.389L72.8457 46.0072L74.1649 45.9932L74.8629 31.375Z" fill="#6580E1" fill-opacity="0.6"/>
<path fill-rule="evenodd" clip-rule="evenodd" d="M73.5437 31.3891L71.365 29.2397L70.667 43.8579L72.8457 46.0073L73.5437 31.3891Z" fill="#6580E1" fill-opacity="0.6"/>
<path fill-rule="evenodd" clip-rule="evenodd" d="M71.365 29.2396L71.8847 28.3936L71.1867 43.0117L70.667 43.8578L71.365 29.2396Z" fill="#6580E1" fill-opacity="0.6"/>
<path fill-rule="evenodd" clip-rule="evenodd" d="M71.8845 28.3936L74.9526 28.8743L74.2547 43.4925L71.1865 43.0117L71.8845 28.3936Z" fill="#6580E1" fill-opacity="0.6"/>
<path fill-rule="evenodd" clip-rule="evenodd" d="M74.9526 28.8743L74.8027 28.509L74.1047 43.1272L74.2546 43.4925L74.9526 28.8743Z" fill="#6580E1" fill-opacity="0.6"/>
<path fill-rule="evenodd" clip-rule="evenodd" d="M74.8029 28.5091L74.0034 28.2295L73.3054 42.8477L74.1049 43.1272L74.8029 28.5091Z" fill="#6580E1" fill-opacity="0.6"/>
<path fill-rule="evenodd" clip-rule="evenodd" d="M74.0033 28.2295L72.0644 27.0684L71.3665 41.6865L73.3053 42.8477L74.0033 28.2295Z" fill="#6580E1" fill-opacity="0.6"/>
<path fill-rule="evenodd" clip-rule="evenodd" d="M72.0644 27.0684V26.8774L71.3665 41.4956V41.6866L72.0644 27.0684Z" fill="#6580E1" fill-opacity="0.6"/>
<path fill-rule="evenodd" clip-rule="evenodd" d="M72.0644 26.8773L71.2949 26.2234L70.5969 40.8416L71.3665 41.4955L72.0644 26.8773Z" fill="#6580E1" fill-opacity="0.6"/>
<path fill-rule="evenodd" clip-rule="evenodd" d="M71.2949 26.2235L70.8052 25.072L70.1072 39.6902L70.5969 40.8416L71.2949 26.2235Z" fill="#6580E1" fill-opacity="0.6"/>
<path fill-rule="evenodd" clip-rule="evenodd" d="M70.8053 25.072L70.2956 24.7249L69.5977 39.343L70.1073 39.6902L70.8053 25.072Z" fill="#6580E1" fill-opacity="0.6"/>
<path fill-rule="evenodd" clip-rule="evenodd" d="M70.2956 24.7249L70.3256 24.0505L69.6276 38.6687L69.5977 39.3431L70.2956 24.7249Z" fill="#6580E1" fill-opacity="0.6"/>
<path fill-rule="evenodd" clip-rule="evenodd" d="M70.3254 24.0504L69.5659 23.4241L68.8679 38.0422L69.6275 38.6686L70.3254 24.0504Z" fill="#6580E1" fill-opacity="0.6"/>
<path fill-rule="evenodd" clip-rule="evenodd" d="M69.566 23.424L69.0063 20.3884L68.3083 35.0066L68.868 38.0421L69.566 23.424Z" fill="#6580E1" fill-opacity="0.6"/>
<path fill-rule="evenodd" clip-rule="evenodd" d="M69.0063 20.3884L70.1556 20.2336L69.4576 34.8518L68.3083 35.0066L69.0063 20.3884Z" fill="#6580E1" fill-opacity="0.6"/>
<path fill-rule="evenodd" clip-rule="evenodd" d="M70.1556 20.2338L69.9258 18.939L69.2278 33.5571L69.4576 34.852L70.1556 20.2338Z" fill="#6580E1" fill-opacity="0.6"/>
<path fill-rule="evenodd" clip-rule="evenodd" d="M69.9258 18.9388L68.8364 17.1787L68.1384 31.7969L69.2278 33.557L69.9258 18.9388Z" fill="#6580E1" fill-opacity="0.6"/>
<path fill-rule="evenodd" clip-rule="evenodd" d="M68.8365 17.1788L68.4267 14.5085L67.7288 29.1267L68.1385 31.797L68.8365 17.1788Z" fill="#6580E1" fill-opacity="0.6"/>
<path fill-rule="evenodd" clip-rule="evenodd" d="M68.4267 14.5086L67.0376 13.3342L66.3396 27.9524L67.7288 29.1268L68.4267 14.5086Z" fill="#6580E1" fill-opacity="0.6"/>
<path fill-rule="evenodd" clip-rule="evenodd" d="M67.0376 13.3341L66.5779 13.2473L65.8799 27.8655L66.3396 27.9522L67.0376 13.3341Z" fill="#6580E1" fill-opacity="0.6"/>
<path fill-rule="evenodd" clip-rule="evenodd" d="M66.5779 13.2474L68.1469 10.8254L67.4489 25.4436L65.8799 27.8655L66.5779 13.2474Z" fill="#6580E1" fill-opacity="0.6"/>
<path fill-rule="evenodd" clip-rule="evenodd" d="M68.147 10.8253L69.9059 9.25391L69.2079 23.8721L67.449 25.4435L68.147 10.8253Z" fill="#6580E1" fill-opacity="0.6"/>
<path fill-rule="evenodd" clip-rule="evenodd" d="M69.9058 9.25409L68.7065 8.31641L68.0085 22.9346L69.2078 23.8723L69.9058 9.25409Z" fill="#6580E1" fill-opacity="0.6"/>
<path fill-rule="evenodd" clip-rule="evenodd" d="M68.7066 8.31641L64.1494 9.58447L63.4514 24.2026L68.0086 22.9346L68.7066 8.31641Z" fill="#6580E1" fill-opacity="0.6"/>
<path fill-rule="evenodd" clip-rule="evenodd" d="M64.1494 9.58441L60.9014 8.97632L60.2034 23.5945L63.4514 24.2026L64.1494 9.58441Z" fill="#6580E1" fill-opacity="0.6"/>
<path fill-rule="evenodd" clip-rule="evenodd" d="M60.9012 8.97632L58.1829 6.26758L57.4849 20.8857L60.2032 23.5945L60.9012 8.97632Z" fill="#6580E1" fill-opacity="0.6"/>
<path fill-rule="evenodd" clip-rule="evenodd" d="M58.1828 6.26754L56.7937 5.56372L56.0957 20.1819L57.4849 20.8857L58.1828 6.26754Z" fill="#6580E1" fill-opacity="0.6"/>
<path fill-rule="evenodd" clip-rule="evenodd" d="M56.7938 5.56369L54.6951 4.91675L53.9971 19.5349L56.0958 20.1819L56.7938 5.56369Z" fill="#6580E1" fill-opacity="0.6"/>
<path fill-rule="evenodd" clip-rule="evenodd" d="M54.6951 4.91672L49.4783 4.57886L48.7803 19.197L53.9971 19.5349L54.6951 4.91672Z" fill="#6580E1" fill-opacity="0.6"/>
<path fill-rule="evenodd" clip-rule="evenodd" d="M49.4783 4.57898L47.8293 4.12085L47.1313 18.739L48.7803 19.1971L49.4783 4.57898Z" fill="#6580E1" fill-opacity="0.6"/>
<path fill-rule="evenodd" clip-rule="evenodd" d="M47.8293 4.12077L40.2939 0L39.5959 14.6182L47.1314 18.7389L47.8293 4.12077Z" fill="#6580E1" fill-opacity="0.6"/>
<path fill-rule="evenodd" clip-rule="evenodd" d="M40.294 0L36.7661 1.7854L36.0681 16.4036L39.596 14.6182L40.294 0Z" fill="#6580E1" fill-opacity="0.6"/>
<path fill-rule="evenodd" clip-rule="evenodd" d="M36.7659 1.7854L35.8664 5.37023L35.1685 19.9884L36.0679 16.4036L36.7659 1.7854Z" fill="#6580E1" fill-opacity="0.6"/>
<path fill-rule="evenodd" clip-rule="evenodd" d="M35.8666 5.37036L34.8972 6.95509L34.1992 21.5733L35.1686 19.9885L35.8666 5.37036Z" fill="#6580E1" fill-opacity="0.6"/>
<path fill-rule="evenodd" clip-rule="evenodd" d="M34.8973 6.95508L33.3982 7.38055L32.7002 21.9987L34.1993 21.5732L34.8973 6.95508Z" fill="#6580E1" fill-opacity="0.6"/>
<path fill-rule="evenodd" clip-rule="evenodd" d="M33.3981 7.38037L29.3306 8.52455L28.6326 23.1427L32.7001 21.9985L33.3981 7.38037Z" fill="#6580E1" fill-opacity="0.6"/>
<path fill-rule="evenodd" clip-rule="evenodd" d="M29.3304 8.52466L25.103 11.9835L24.405 26.6017L28.6325 23.1428L29.3304 8.52466Z" fill="#6580E1" fill-opacity="0.6"/>
<path fill-rule="evenodd" clip-rule="evenodd" d="M25.103 11.9834L26.0624 16.0112L25.3644 30.6294L24.405 26.6016L25.103 11.9834Z" fill="#6580E1" fill-opacity="0.6"/>
<path fill-rule="evenodd" clip-rule="evenodd" d="M26.0624 16.0112L24.4834 16.4756L23.7854 31.0937L25.3644 30.6294L26.0624 16.0112Z" fill="#6580E1" fill-opacity="0.6"/>
<path fill-rule="evenodd" clip-rule="evenodd" d="M24.4834 16.4756L24.8732 16.997L24.1752 31.6152L23.7854 31.0938L24.4834 16.4756Z" fill="#6580E1" fill-opacity="0.6"/>
<path fill-rule="evenodd" clip-rule="evenodd" d="M24.8733 16.9971L24.4036 17.1556L23.7056 31.7737L24.1753 31.6152L24.8733 16.9971Z" fill="#6580E1" fill-opacity="0.6"/>
<path fill-rule="evenodd" clip-rule="evenodd" d="M24.4036 17.1558L24.7433 18.8081L24.0454 33.4262L23.7056 31.7739L24.4036 17.1558Z" fill="#6580E1" fill-opacity="0.6"/>
<path fill-rule="evenodd" clip-rule="evenodd" d="M24.7433 18.8079L24.2236 19.8108L23.5256 34.4289L24.0453 33.426L24.7433 18.8079Z" fill="#6580E1" fill-opacity="0.6"/>
<path fill-rule="evenodd" clip-rule="evenodd" d="M24.2236 19.8108L23.7639 22.2133L23.0659 36.8315L23.5256 34.429L24.2236 19.8108Z" fill="#6580E1" fill-opacity="0.6"/>
<path fill-rule="evenodd" clip-rule="evenodd" d="M23.7639 22.2134L25.0831 22.9018L24.3851 37.52L23.0659 36.8315L23.7639 22.2134Z" fill="#6580E1" fill-opacity="0.6"/>
<path fill-rule="evenodd" clip-rule="evenodd" d="M25.0831 22.9017L17.3179 21.5781L16.6199 36.1963L24.3851 37.5199L25.0831 22.9017Z" fill="#6580E1" fill-opacity="0.6"/>
<path fill-rule="evenodd" clip-rule="evenodd" d="M17.3179 21.5781L11.8313 23.4022L11.1333 38.0203L16.62 36.1963L17.3179 21.5781Z" fill="#6580E1" fill-opacity="0.6"/>
<path fill-rule="evenodd" clip-rule="evenodd" d="M11.8312 23.4022L11.6113 23.3147L10.9133 37.9329L11.1332 38.0203L11.8312 23.4022Z" fill="#6580E1" fill-opacity="0.6"/>
<path fill-rule="evenodd" clip-rule="evenodd" d="M11.6113 23.3147L11.7113 23.5559L11.0133 38.1741L10.9133 37.9329L11.6113 23.3147Z" fill="#6580E1" fill-opacity="0.6"/>
<path fill-rule="evenodd" clip-rule="evenodd" d="M11.7114 23.5559L10.4722 25.7544L9.77417 40.3726L11.0134 38.1741L11.7114 23.5559Z" fill="#6580E1" fill-opacity="0.6"/>
<path fill-rule="evenodd" clip-rule="evenodd" d="M10.4721 25.7544L9.20287 25.8652L8.50488 40.4834L9.77412 40.3726L10.4721 25.7544Z" fill="#6580E1" fill-opacity="0.6"/>
<path fill-rule="evenodd" clip-rule="evenodd" d="M9.20287 25.8652L9.31282 26.5432L8.61483 41.1614L8.50488 40.4834L9.20287 25.8652Z" fill="#6580E1" fill-opacity="0.6"/>
<path fill-rule="evenodd" clip-rule="evenodd" d="M9.31281 26.5432L9.05297 26.6457L8.35498 41.2639L8.61482 41.1614L9.31281 26.5432Z" fill="#6580E1" fill-opacity="0.6"/>
<path fill-rule="evenodd" clip-rule="evenodd" d="M9.05297 26.6458L9.11293 27.3634L8.41494 41.9815L8.35498 41.2639L9.05297 26.6458Z" fill="#6580E1" fill-opacity="0.6"/>
<path fill-rule="evenodd" clip-rule="evenodd" d="M9.11292 27.3633L8.27343 27.6215L7.57544 42.2396L8.41493 41.9814L9.11292 27.3633Z" fill="#6580E1" fill-opacity="0.6"/>
<path fill-rule="evenodd" clip-rule="evenodd" d="M8.27346 27.6216L8.13354 27.3452L7.43555 41.9634L7.57547 42.2398L8.27346 27.6216Z" fill="#6580E1" fill-opacity="0.6"/>
<path fill-rule="evenodd" clip-rule="evenodd" d="M8.1335 27.3452L7.18407 27.4983L6.48608 42.1165L7.43551 41.9634L8.1335 27.3452Z" fill="#6580E1" fill-opacity="0.6"/>
<path fill-rule="evenodd" clip-rule="evenodd" d="M7.18407 27.4983L7.38395 27.8717L6.68596 42.4898L6.48608 42.1165L7.18407 27.4983Z" fill="#6580E1" fill-opacity="0.6"/>
<path fill-rule="evenodd" clip-rule="evenodd" d="M7.38403 27.8716L8.14357 27.7478L7.44558 42.366L6.68604 42.4898L7.38403 27.8716Z" fill="#6580E1" fill-opacity="0.6"/>
<path fill-rule="evenodd" clip-rule="evenodd" d="M8.14355 27.7478L8.25348 27.9416L7.55549 42.5597L7.44556 42.366L8.14355 27.7478Z" fill="#6580E1" fill-opacity="0.6"/>
<path fill-rule="evenodd" clip-rule="evenodd" d="M8.25341 27.9417L9.72251 27.2222L9.02452 41.8403L7.55542 42.5598L8.25341 27.9417Z" fill="#6580E1" fill-opacity="0.6"/>
<path fill-rule="evenodd" clip-rule="evenodd" d="M9.7224 27.2222L10.1022 28.0707L9.40417 42.6889L9.02441 41.8403L9.7224 27.2222Z" fill="#6580E1" fill-opacity="0.6"/>
<path fill-rule="evenodd" clip-rule="evenodd" d="M10.1022 28.0706L9.75243 28.1639L9.05444 42.7821L9.40422 42.6887L10.1022 28.0706Z" fill="#6580E1" fill-opacity="0.6"/>
<path fill-rule="evenodd" clip-rule="evenodd" d="M9.75243 28.1641L9.9523 28.8784L9.25431 43.4966L9.05444 42.7822L9.75243 28.1641Z" fill="#6580E1" fill-opacity="0.6"/>
<path fill-rule="evenodd" clip-rule="evenodd" d="M9.95237 28.8784L9.63256 29.0203L8.93457 43.6385L9.25438 43.4966L9.95237 28.8784Z" fill="#6580E1" fill-opacity="0.6"/>
<path fill-rule="evenodd" clip-rule="evenodd" d="M9.63256 29.0203L10.2122 30.0649L9.51422 44.683L8.93457 43.6384L9.63256 29.0203Z" fill="#6580E1" fill-opacity="0.6"/>
<path fill-rule="evenodd" clip-rule="evenodd" d="M10.2122 30.0649L10.9917 29.812L10.2937 44.4302L9.51416 44.6831L10.2122 30.0649Z" fill="#6580E1" fill-opacity="0.6"/>
<path fill-rule="evenodd" clip-rule="evenodd" d="M10.9917 29.812L11.4414 30.7374L10.7434 45.3555L10.2937 44.4302L10.9917 29.812Z" fill="#6580E1" fill-opacity="0.6"/>
<path fill-rule="evenodd" clip-rule="evenodd" d="M11.4414 30.7373L11.3115 32.9232L10.6135 47.5414L10.7434 45.3555L11.4414 30.7373Z" fill="#6580E1" fill-opacity="0.6"/>
<path fill-rule="evenodd" clip-rule="evenodd" d="M11.3115 32.9233L12.9605 33.0609L12.2625 47.6791L10.6135 47.5415L11.3115 32.9233Z" fill="#6580E1" fill-opacity="0.6"/>
<path fill-rule="evenodd" clip-rule="evenodd" d="M12.9604 33.0608L14.2097 33.4814L13.5117 48.0996L12.2625 47.679L12.9604 33.0608Z" fill="#6580E1" fill-opacity="0.6"/>
<path fill-rule="evenodd" clip-rule="evenodd" d="M14.2097 33.4814L14.6195 33.9898L13.9215 48.6079L13.5117 48.0996L14.2097 33.4814Z" fill="#6580E1" fill-opacity="0.6"/>
<path fill-rule="evenodd" clip-rule="evenodd" d="M14.6196 33.9897L14.6596 35.2593L13.9616 49.8774L13.9216 48.6079L14.6196 33.9897Z" fill="#6580E1" fill-opacity="0.6"/>
<path fill-rule="evenodd" clip-rule="evenodd" d="M14.6596 35.2593L11.9912 35.614L11.2932 50.2321L13.9616 49.8774L14.6596 35.2593Z" fill="#6580E1" fill-opacity="0.6"/>
<path fill-rule="evenodd" clip-rule="evenodd" d="M11.9911 35.6141L11.7512 34.9941L11.0532 49.6123L11.2931 50.2322L11.9911 35.6141Z" fill="#6580E1" fill-opacity="0.6"/>
<path fill-rule="evenodd" clip-rule="evenodd" d="M11.7512 34.9941L11.1216 36.2875L10.4236 50.9057L11.0532 49.6123L11.7512 34.9941Z" fill="#6580E1" fill-opacity="0.6"/>
<path fill-rule="evenodd" clip-rule="evenodd" d="M11.1216 36.2876L11.9411 36.0767L11.2431 50.6948L10.4236 50.9058L11.1216 36.2876Z" fill="#6580E1" fill-opacity="0.6"/>
<path fill-rule="evenodd" clip-rule="evenodd" d="M11.9412 36.0767L13.0205 37.25L12.3225 51.8681L11.2432 50.6948L11.9412 36.0767Z" fill="#6580E1" fill-opacity="0.6"/>
<path fill-rule="evenodd" clip-rule="evenodd" d="M13.0204 37.2498L12.4807 37.6315L11.7827 52.2497L12.3224 51.8679L13.0204 37.2498Z" fill="#6580E1" fill-opacity="0.6"/>
<path fill-rule="evenodd" clip-rule="evenodd" d="M12.4807 37.6316L12.9704 37.6987L12.2724 52.3168L11.7827 52.2498L12.4807 37.6316Z" fill="#6580E1" fill-opacity="0.6"/>
<path fill-rule="evenodd" clip-rule="evenodd" d="M12.9705 37.6987L13.8399 38.5257L13.1419 53.1439L12.2725 52.3169L12.9705 37.6987Z" fill="#6580E1" fill-opacity="0.6"/>
<path fill-rule="evenodd" clip-rule="evenodd" d="M13.8401 38.5256L14.0999 38.5459L13.4019 53.1641L13.1421 53.1438L13.8401 38.5256Z" fill="#6580E1" fill-opacity="0.6"/>
<path fill-rule="evenodd" clip-rule="evenodd" d="M14.0998 38.5459L14.0798 38.8182L13.3818 53.4364L13.4018 53.1641L14.0998 38.5459Z" fill="#6580E1" fill-opacity="0.6"/>
<path fill-rule="evenodd" clip-rule="evenodd" d="M14.0798 38.8184L15.9087 41.5385L15.2107 56.1567L13.3818 53.4365L14.0798 38.8184Z" fill="#6580E1" fill-opacity="0.6"/>
<path fill-rule="evenodd" clip-rule="evenodd" d="M15.9087 41.5383L16.998 44.0691L16.3 58.6872L15.2107 56.1565L15.9087 41.5383Z" fill="#6580E1" fill-opacity="0.6"/>
<path fill-rule="evenodd" clip-rule="evenodd" d="M16.998 44.0691L18.9768 45.0881L18.2788 59.7062L16.3 58.6873L16.998 44.0691Z" fill="#6580E1" fill-opacity="0.6"/>
<path fill-rule="evenodd" clip-rule="evenodd" d="M18.9768 45.0881L16.6982 46.5031L16.0002 61.1212L18.2789 59.7063L18.9768 45.0881Z" fill="#6580E1" fill-opacity="0.6"/>
<path fill-rule="evenodd" clip-rule="evenodd" d="M16.6983 46.5029L16.4585 47.1379L15.7605 61.756L16.0004 61.1211L16.6983 46.5029Z" fill="#6580E1" fill-opacity="0.6"/>
<path fill-rule="evenodd" clip-rule="evenodd" d="M16.4585 47.1379L17.6578 47.4141L16.9598 62.0323L15.7605 61.7561L16.4585 47.1379Z" fill="#6580E1" fill-opacity="0.6"/>
<path fill-rule="evenodd" clip-rule="evenodd" d="M17.6577 47.4142L18.787 47.1975L18.089 61.8157L16.9597 62.0324L17.6577 47.4142Z" fill="#6580E1" fill-opacity="0.6"/>
<path fill-rule="evenodd" clip-rule="evenodd" d="M18.7869 47.1975L18.9867 47.6323L18.2887 62.2504L18.0889 61.8157L18.7869 47.1975Z" fill="#6580E1" fill-opacity="0.6"/>
<path fill-rule="evenodd" clip-rule="evenodd" d="M18.9868 47.6323L18.0674 47.8203L17.3694 62.4384L18.2888 62.2505L18.9868 47.6323Z" fill="#6580E1" fill-opacity="0.6"/>
<path fill-rule="evenodd" clip-rule="evenodd" d="M18.0674 47.8201L18.4272 49.0773L17.7292 63.6955L17.3694 62.4382L18.0674 47.8201Z" fill="#6580E1" fill-opacity="0.6"/>
<path fill-rule="evenodd" clip-rule="evenodd" d="M18.4272 49.0774L17.4678 49.2166L16.7698 63.8347L17.7292 63.6956L18.4272 49.0774Z" fill="#6580E1" fill-opacity="0.6"/>
<path fill-rule="evenodd" clip-rule="evenodd" d="M17.4678 49.2166L17.7476 50.0012L17.0496 64.6193L16.7698 63.8347L17.4678 49.2166Z" fill="#6580E1" fill-opacity="0.6"/>
<path fill-rule="evenodd" clip-rule="evenodd" d="M17.7476 50.0012L17.1479 50.1496L16.45 64.7677L17.0496 64.6194L17.7476 50.0012Z" fill="#6580E1" fill-opacity="0.6"/>
<path fill-rule="evenodd" clip-rule="evenodd" d="M17.1479 50.1497L17.5077 51.1955L16.8097 65.8136L16.45 64.7678L17.1479 50.1497Z" fill="#6580E1" fill-opacity="0.6"/>
<path fill-rule="evenodd" clip-rule="evenodd" d="M17.5078 51.1953L17.3479 51.2253L16.6499 65.8435L16.8098 65.8135L17.5078 51.1953Z" fill="#6580E1" fill-opacity="0.6"/>
<path fill-rule="evenodd" clip-rule="evenodd" d="M17.3478 51.2254L17.1479 50.9475L16.45 65.5657L16.6498 65.8436L17.3478 51.2254Z" fill="#6580E1" fill-opacity="0.6"/>
<path fill-rule="evenodd" clip-rule="evenodd" d="M17.1479 50.9475L16.958 50.9904L16.26 65.6086L16.4499 65.5657L17.1479 50.9475Z" fill="#6580E1" fill-opacity="0.6"/>
<path fill-rule="evenodd" clip-rule="evenodd" d="M16.958 50.9905L17.2678 51.5985L16.5698 66.2167L16.26 65.6086L16.958 50.9905Z" fill="#6580E1" fill-opacity="0.6"/>
<path fill-rule="evenodd" clip-rule="evenodd" d="M17.2679 51.5984L16.8782 51.7112L16.1802 66.3294L16.5699 66.2166L17.2679 51.5984Z" fill="#6580E1" fill-opacity="0.6"/>
<path fill-rule="evenodd" clip-rule="evenodd" d="M16.8781 51.7113L16.5483 51.512L15.8503 66.1301L16.1801 66.3295L16.8781 51.7113Z" fill="#6580E1" fill-opacity="0.6"/>
<path fill-rule="evenodd" clip-rule="evenodd" d="M16.5483 51.512L16.3784 52.0328L15.6804 66.6509L15.8503 66.1301L16.5483 51.512Z" fill="#6580E1" fill-opacity="0.6"/>
<path fill-rule="evenodd" clip-rule="evenodd" d="M16.3784 52.0327L16.7082 52.7095L16.0102 67.3277L15.6804 66.6509L16.3784 52.0327Z" fill="#6580E1" fill-opacity="0.6"/>
<path fill-rule="evenodd" clip-rule="evenodd" d="M16.7083 52.7095L16.3086 53.0471L15.6106 67.6652L16.0104 67.3276L16.7083 52.7095Z" fill="#6580E1" fill-opacity="0.6"/>
<path fill-rule="evenodd" clip-rule="evenodd" d="M16.3084 53.047L15.2891 52.8096L14.5911 67.4277L15.6104 67.6652L16.3084 53.047Z" fill="#6580E1" fill-opacity="0.6"/>
<path fill-rule="evenodd" clip-rule="evenodd" d="M15.2891 52.8097L14.7195 52.3586L14.0215 66.9768L14.5911 67.4278L15.2891 52.8097Z" fill="#6580E1" fill-opacity="0.6"/>
<path fill-rule="evenodd" clip-rule="evenodd" d="M14.7195 52.3586L15.0693 53.0291L14.3713 67.6473L14.0215 66.9768L14.7195 52.3586Z" fill="#6580E1" fill-opacity="0.6"/>
<path fill-rule="evenodd" clip-rule="evenodd" d="M15.0693 53.029L15.4691 52.9028L14.7711 67.521L14.3713 67.6472L15.0693 53.029Z" fill="#6580E1" fill-opacity="0.6"/>
<path fill-rule="evenodd" clip-rule="evenodd" d="M15.469 52.9028L15.7988 53.0886L15.1008 67.7067L14.771 67.521L15.469 52.9028Z" fill="#6580E1" fill-opacity="0.6"/>
<path fill-rule="evenodd" clip-rule="evenodd" d="M15.7988 53.0886L14.8894 53.2086L14.1914 67.8268L15.1009 67.7068L15.7988 53.0886Z" fill="#6580E1" fill-opacity="0.6"/>
<path fill-rule="evenodd" clip-rule="evenodd" d="M14.8894 53.2085L14.7295 53.6341L14.0315 68.2522L14.1914 67.8267L14.8894 53.2085Z" fill="#6580E1" fill-opacity="0.6"/>
<path fill-rule="evenodd" clip-rule="evenodd" d="M14.7294 53.6343L13.8999 54.1246L13.2019 68.7428L14.0314 68.2524L14.7294 53.6343Z" fill="#6580E1" fill-opacity="0.6"/>
<path fill-rule="evenodd" clip-rule="evenodd" d="M13.9 54.1244L13.3303 53.0801L12.6323 67.6982L13.202 68.7426L13.9 54.1244Z" fill="#6580E1" fill-opacity="0.6"/>
<path fill-rule="evenodd" clip-rule="evenodd" d="M13.3303 53.0801L12.9905 53.1123L12.2925 67.7305L12.6323 67.6982L13.3303 53.0801Z" fill="#6580E1" fill-opacity="0.6"/>
<path fill-rule="evenodd" clip-rule="evenodd" d="M12.9905 53.1123L13.1604 52.7961L12.4624 67.4143L12.2925 67.7305L12.9905 53.1123Z" fill="#6580E1" fill-opacity="0.6"/>
<path fill-rule="evenodd" clip-rule="evenodd" d="M13.1603 52.7961L12.4907 53.1269L11.7927 67.745L12.4623 67.4143L13.1603 52.7961Z" fill="#6580E1" fill-opacity="0.6"/>
<path fill-rule="evenodd" clip-rule="evenodd" d="M12.4908 53.1269L12.2309 52.752L11.533 67.3701L11.7928 67.745L12.4908 53.1269Z" fill="#6580E1" fill-opacity="0.6"/>
<path fill-rule="evenodd" clip-rule="evenodd" d="M12.2309 52.752L11.0915 53.1525L10.3936 67.7707L11.5329 67.3701L12.2309 52.752Z" fill="#6580E1" fill-opacity="0.6"/>
<path fill-rule="evenodd" clip-rule="evenodd" d="M11.0916 53.1524L10.8318 53.064L10.1338 67.6821L10.3936 67.7706L11.0916 53.1524Z" fill="#6580E1" fill-opacity="0.6"/>
<path fill-rule="evenodd" clip-rule="evenodd" d="M10.8318 53.064L10.9917 53.4704L10.2937 68.0886L10.1338 67.6821L10.8318 53.064Z" fill="#6580E1" fill-opacity="0.6"/>
<path fill-rule="evenodd" clip-rule="evenodd" d="M10.9916 53.4705L10.6218 53.6452L9.92383 68.2633L10.2936 68.0886L10.9916 53.4705Z" fill="#6580E1" fill-opacity="0.6"/>
<path fill-rule="evenodd" clip-rule="evenodd" d="M10.6218 53.6453L11.2914 54.4876L10.5934 69.1057L9.92383 68.2634L10.6218 53.6453Z" fill="#6580E1" fill-opacity="0.6"/>
<path fill-rule="evenodd" clip-rule="evenodd" d="M11.2915 54.4875L10.542 55.2254L9.84399 69.8436L10.5935 69.1057L11.2915 54.4875Z" fill="#6580E1" fill-opacity="0.6"/>
<path fill-rule="evenodd" clip-rule="evenodd" d="M10.542 55.2254L6.70434 53.5247L6.00635 68.1428L9.84401 69.8435L10.542 55.2254Z" fill="#6580E1" fill-opacity="0.6"/>
<path fill-rule="evenodd" clip-rule="evenodd" d="M6.70423 53.5247L3.40624 56.5913L2.70825 71.2094L6.00624 68.1428L6.70423 53.5247Z" fill="#6580E1" fill-opacity="0.6"/>
<path fill-rule="evenodd" clip-rule="evenodd" d="M3.40624 56.5913L3.48619 56.9071L2.7882 71.5252L2.70825 71.2095L3.40624 56.5913Z" fill="#6580E1" fill-opacity="0.6"/>
<path fill-rule="evenodd" clip-rule="evenodd" d="M3.48625 56.907L1.4475 58.2053L0.749512 72.8234L2.78826 71.5251L3.48625 56.907Z" fill="#6580E1" fill-opacity="0.6"/>
<path fill-rule="evenodd" clip-rule="evenodd" d="M1.44753 58.2053L0.69799 58.9432L0 73.5614L0.749543 72.8235L1.44753 58.2053Z" fill="#6580E1" fill-opacity="0.6"/>
<path fill-rule="evenodd" clip-rule="evenodd" d="M0.69799 58.9434L1.05777 61.1827L0.359782 75.8008L0 73.5615L0.69799 58.9434Z" fill="#6580E1" fill-opacity="0.6"/>
<path fill-rule="evenodd" clip-rule="evenodd" d="M1.05785 61.1826L1.83738 62.0346L1.13939 76.6527L0.359863 75.8008L1.05785 61.1826Z" fill="#6580E1" fill-opacity="0.6"/>
<path fill-rule="evenodd" clip-rule="evenodd" d="M1.83739 62.0345L2.40704 61.9194L1.70905 76.5376L1.1394 76.6526L1.83739 62.0345Z" fill="#6580E1" fill-opacity="0.6"/>
<path fill-rule="evenodd" clip-rule="evenodd" d="M2.40697 61.9194L2.73677 62.1461L2.03878 76.7643L1.70898 76.5376L2.40697 61.9194Z" fill="#6580E1" fill-opacity="0.6"/>
<path fill-rule="evenodd" clip-rule="evenodd" d="M2.73681 62.1462L2.91671 63.1056L2.21872 77.7238L2.03882 76.7644L2.73681 62.1462Z" fill="#6580E1" fill-opacity="0.6"/>
<path fill-rule="evenodd" clip-rule="evenodd" d="M2.91674 63.1055L5.22533 64.2488L4.52734 78.867L2.21875 77.7236L2.91674 63.1055Z" fill="#6580E1" fill-opacity="0.6"/>
<path fill-rule="evenodd" clip-rule="evenodd" d="M5.22533 64.2488L8.3834 64.3226L7.68541 78.9408L4.52734 78.8669L5.22533 64.2488Z" fill="#6580E1" fill-opacity="0.6"/>
<path fill-rule="evenodd" clip-rule="evenodd" d="M8.38329 64.3227L8.81304 64.0132L8.11505 78.6313L7.6853 78.9409L8.38329 64.3227Z" fill="#6580E1" fill-opacity="0.6"/>
<path fill-rule="evenodd" clip-rule="evenodd" d="M8.81298 64.0132L9.68244 66.9816L8.98445 81.5998L8.11499 78.6313L8.81298 64.0132Z" fill="#6580E1" fill-opacity="0.6"/>
<path fill-rule="evenodd" clip-rule="evenodd" d="M9.68261 66.9817L11.0918 68.3612L10.3938 82.9794L8.98462 81.5999L9.68261 66.9817Z" fill="#6580E1" fill-opacity="0.6"/>
<path fill-rule="evenodd" clip-rule="evenodd" d="M11.0915 68.3611L11.8111 68.5431L11.1131 83.1613L10.3936 82.9792L11.0915 68.3611Z" fill="#6580E1" fill-opacity="0.6"/>
<path fill-rule="evenodd" clip-rule="evenodd" d="M11.8113 68.5432L12.7407 68.4783L12.0427 83.0964L11.1133 83.1614L11.8113 68.5432Z" fill="#6580E1" fill-opacity="0.6"/>
<path fill-rule="evenodd" clip-rule="evenodd" d="M12.7407 68.4782L12.8506 68.1877L12.1527 82.8059L12.0427 83.0964L12.7407 68.4782Z" fill="#6580E1" fill-opacity="0.6"/>
<path fill-rule="evenodd" clip-rule="evenodd" d="M12.8506 68.1877L13.1304 68.2085L12.4324 82.8267L12.1526 82.8059L12.8506 68.1877Z" fill="#6580E1" fill-opacity="0.6"/>
<path fill-rule="evenodd" clip-rule="evenodd" d="M13.1303 68.2085L13.1003 68.5965L12.4023 83.2146L12.4323 82.8267L13.1303 68.2085Z" fill="#6580E1" fill-opacity="0.6"/>
<path fill-rule="evenodd" clip-rule="evenodd" d="M13.1003 68.5967L13.3102 68.6566L12.6122 83.2748L12.4023 83.2148L13.1003 68.5967Z" fill="#6580E1" fill-opacity="0.6"/>
<path fill-rule="evenodd" clip-rule="evenodd" d="M13.3103 68.6565L13.4202 68.3047L12.7222 82.9229L12.6123 83.2747L13.3103 68.6565Z" fill="#6580E1" fill-opacity="0.6"/>
<path fill-rule="evenodd" clip-rule="evenodd" d="M13.4202 68.3047L13.5201 68.5937L12.8221 83.2118L12.7222 82.9229L13.4202 68.3047Z" fill="#6580E1" fill-opacity="0.6"/>
<path fill-rule="evenodd" clip-rule="evenodd" d="M13.5203 68.5938L13.91 68.7333L13.212 83.3514L12.8223 83.2119L13.5203 68.5938Z" fill="#6580E1" fill-opacity="0.6"/>
<path fill-rule="evenodd" clip-rule="evenodd" d="M13.91 68.7332L13.5403 68.8465L12.8423 83.4646L13.2121 83.3513L13.91 68.7332Z" fill="#6580E1" fill-opacity="0.6"/>
<path fill-rule="evenodd" clip-rule="evenodd" d="M13.5403 68.8464L13.95 69.1433L13.252 83.7615L12.8423 83.4646L13.5403 68.8464Z" fill="#6580E1" fill-opacity="0.6"/>
<path fill-rule="evenodd" clip-rule="evenodd" d="M13.9499 69.1435L14.3897 68.916L13.6917 83.5342L13.252 83.7616L13.9499 69.1435Z" fill="#6580E1" fill-opacity="0.6"/>
<path fill-rule="evenodd" clip-rule="evenodd" d="M14.3895 68.916L14.0198 68.2996L13.3218 82.9177L13.6916 83.5341L14.3895 68.916Z" fill="#6580E1" fill-opacity="0.6"/>
<path fill-rule="evenodd" clip-rule="evenodd" d="M14.0198 68.2994L14.1897 68.0991L13.4917 82.7173L13.3218 82.9175L14.0198 68.2994Z" fill="#6580E1" fill-opacity="0.6"/>
<path fill-rule="evenodd" clip-rule="evenodd" d="M14.1897 68.0993L16.2884 67.1367L15.5904 81.7549L13.4917 82.7175L14.1897 68.0993Z" fill="#6580E1" fill-opacity="0.6"/>
<path fill-rule="evenodd" clip-rule="evenodd" d="M16.2886 67.1366L16.3985 66.8257L15.7005 81.4438L15.5906 81.7548L16.2886 67.1366Z" fill="#6580E1" fill-opacity="0.6"/>
<path fill-rule="evenodd" clip-rule="evenodd" d="M16.3984 66.8257L18.1474 67.6819L17.4494 82.3001L15.7004 81.4438L16.3984 66.8257Z" fill="#6580E1" fill-opacity="0.6"/>
<path fill-rule="evenodd" clip-rule="evenodd" d="M18.1475 67.6819L19.5066 69.8854L18.8086 84.5035L17.4495 82.3L18.1475 67.6819Z" fill="#6580E1" fill-opacity="0.6"/>
<path fill-rule="evenodd" clip-rule="evenodd" d="M19.5066 69.8855L20.2062 70.4558L19.5082 85.0739L18.8086 84.5037L19.5066 69.8855Z" fill="#6580E1" fill-opacity="0.6"/>
<path fill-rule="evenodd" clip-rule="evenodd" d="M20.206 70.4558L21.8151 71.063L21.1171 85.6811L19.5081 85.074L20.206 70.4558Z" fill="#6580E1" fill-opacity="0.6"/>
<path fill-rule="evenodd" clip-rule="evenodd" d="M21.8151 71.063L21.6152 73.9973L20.9172 88.6155L21.1171 85.6812L21.8151 71.063Z" fill="#6580E1" fill-opacity="0.6"/>
<path fill-rule="evenodd" clip-rule="evenodd" d="M21.6152 73.9973L22.7945 74.3139L22.0965 88.932L20.9172 88.6155L21.6152 73.9973Z" fill="#6580E1" fill-opacity="0.6"/>
<path fill-rule="evenodd" clip-rule="evenodd" d="M22.7944 74.3137L23.6639 75.393L22.9659 90.0112L22.0964 88.9319L22.7944 74.3137Z" fill="#6580E1" fill-opacity="0.6"/>
<path fill-rule="evenodd" clip-rule="evenodd" d="M23.6639 75.3931L22.5146 76.83L21.8167 91.4482L22.9659 90.0112L23.6639 75.3931Z" fill="#6580E1" fill-opacity="0.6"/>
<path fill-rule="evenodd" clip-rule="evenodd" d="M22.5147 76.8301L21.4453 77.3211L20.7473 91.9392L21.8167 91.4482L22.5147 76.8301Z" fill="#6580E1" fill-opacity="0.6"/>
<path fill-rule="evenodd" clip-rule="evenodd" d="M21.4453 77.321L19.9263 77.4868L19.2283 92.105L20.7473 91.9392L21.4453 77.321Z" fill="#6580E1" fill-opacity="0.6"/>
<path fill-rule="evenodd" clip-rule="evenodd" d="M19.9263 77.4868L19.1667 77.8834L18.4688 92.5016L19.2283 92.105L19.9263 77.4868Z" fill="#6580E1" fill-opacity="0.6"/>
<path fill-rule="evenodd" clip-rule="evenodd" d="M19.1668 77.8835L18.5671 79.2186L17.8691 93.8368L18.4688 92.5017L19.1668 77.8835Z" fill="#6580E1" fill-opacity="0.6"/>
<path fill-rule="evenodd" clip-rule="evenodd" d="M18.5671 79.2185L18.717 80.259L18.019 94.8771L17.8691 93.8367L18.5671 79.2185Z" fill="#6580E1" fill-opacity="0.6"/>
<path fill-rule="evenodd" clip-rule="evenodd" d="M18.717 80.259L22.3648 83.5644L21.6668 98.1826L18.019 94.8772L18.717 80.259Z" fill="#6580E1" fill-opacity="0.6"/>
<path fill-rule="evenodd" clip-rule="evenodd" d="M22.3647 83.5642L26.6121 86.6803L25.9142 101.298L21.6667 98.1824L22.3647 83.5642Z" fill="#6580E1" fill-opacity="0.6"/>
<path fill-rule="evenodd" clip-rule="evenodd" d="M26.6123 86.6804L25.8528 87.2816L25.1548 101.9L25.9143 101.299L26.6123 86.6804Z" fill="#6580E1" fill-opacity="0.6"/>
<path fill-rule="evenodd" clip-rule="evenodd" d="M25.8526 87.2817L24.4834 87.6628L23.7854 102.281L25.1546 101.9L25.8526 87.2817Z" fill="#6580E1" fill-opacity="0.6"/>
<path fill-rule="evenodd" clip-rule="evenodd" d="M24.4834 87.6626V89.4222L23.7854 104.04V102.281L24.4834 87.6626Z" fill="#6580E1" fill-opacity="0.6"/>
<path fill-rule="evenodd" clip-rule="evenodd" d="M24.4834 89.4224L25.093 90.5769L24.395 105.195L23.7854 104.041L24.4834 89.4224Z" fill="#6580E1" fill-opacity="0.6"/>
<path fill-rule="evenodd" clip-rule="evenodd" d="M25.093 90.5767L26.6121 90.6155L25.9141 105.234L24.395 105.195L25.093 90.5767Z" fill="#6580E1" fill-opacity="0.6"/>
<path fill-rule="evenodd" clip-rule="evenodd" d="M26.6123 90.6155L27.8316 90.9603L27.1336 105.579L25.9143 105.234L26.6123 90.6155Z" fill="#6580E1" fill-opacity="0.6"/>
<path fill-rule="evenodd" clip-rule="evenodd" d="M27.8315 90.9604L27.9814 91.6872L27.2835 106.305L27.1335 105.579L27.8315 90.9604Z" fill="#6580E1" fill-opacity="0.6"/>
<path fill-rule="evenodd" clip-rule="evenodd" d="M27.9815 91.6873L27.5417 92.8559L26.8438 107.474L27.2835 106.305L27.9815 91.6873Z" fill="#6580E1" fill-opacity="0.6"/>
<path fill-rule="evenodd" clip-rule="evenodd" d="M27.5417 92.8557L28.0614 92.9781L27.3634 107.596L26.8438 107.474L27.5417 92.8557Z" fill="#6580E1" fill-opacity="0.6"/>
<path fill-rule="evenodd" clip-rule="evenodd" d="M28.0613 92.9781L26.832 92.6875L26.134 107.306L27.3633 107.596L28.0613 92.9781Z" fill="#6580E1" fill-opacity="0.6"/>
<path fill-rule="evenodd" clip-rule="evenodd" d="M26.832 92.6876L26.2224 92.2083L25.5244 106.826L26.134 107.306L26.832 92.6876Z" fill="#6580E1" fill-opacity="0.6"/>
<path fill-rule="evenodd" clip-rule="evenodd" d="M26.2224 92.2083L25.323 93.9448L24.625 108.563L25.5245 106.826L26.2224 92.2083Z" fill="#6580E1" fill-opacity="0.6"/>
<path fill-rule="evenodd" clip-rule="evenodd" d="M25.323 93.9448L25.6228 94.6822L24.9248 109.3L24.625 108.563L25.323 93.9448Z" fill="#6580E1" fill-opacity="0.6"/>
<path fill-rule="evenodd" clip-rule="evenodd" d="M25.6228 94.6824L26.4323 95.3646L25.7343 109.983L24.9248 109.301L25.6228 94.6824Z" fill="#6580E1" fill-opacity="0.6"/>
<path fill-rule="evenodd" clip-rule="evenodd" d="M26.4324 95.3645L26.982 96.954L26.284 111.572L25.7344 109.983L26.4324 95.3645Z" fill="#6580E1" fill-opacity="0.6"/>
<path fill-rule="evenodd" clip-rule="evenodd" d="M26.9819 96.954L27.3917 95.5459L26.6937 110.164L26.2839 111.572L26.9819 96.954Z" fill="#6580E1" fill-opacity="0.6"/>
<path fill-rule="evenodd" clip-rule="evenodd" d="M27.3918 95.5457L27.8616 95.5032L27.1636 110.121L26.6938 110.164L27.3918 95.5457Z" fill="#6580E1" fill-opacity="0.6"/>
<path fill-rule="evenodd" clip-rule="evenodd" d="M27.8613 95.5033L28.6908 95.1289L27.9928 109.747L27.1633 110.121L27.8613 95.5033Z" fill="#6580E1" fill-opacity="0.6"/>
<path fill-rule="evenodd" clip-rule="evenodd" d="M28.6909 95.1289L29.5704 95.5606L28.8724 110.179L27.9929 109.747L28.6909 95.1289Z" fill="#6580E1" fill-opacity="0.6"/>
<path fill-rule="evenodd" clip-rule="evenodd" d="M29.5705 95.5605L29.5305 96.5893L28.8325 111.208L28.8725 110.179L29.5705 95.5605Z" fill="#6580E1" fill-opacity="0.6"/>
<path fill-rule="evenodd" clip-rule="evenodd" d="M29.5305 96.5894L28.3213 97.4996L27.6233 112.118L28.8326 111.208L29.5305 96.5894Z" fill="#6580E1" fill-opacity="0.6"/>
<path fill-rule="evenodd" clip-rule="evenodd" d="M28.3213 97.4995L30.47 97.8613L29.772 112.479L27.6233 112.118L28.3213 97.4995Z" fill="#6580E1" fill-opacity="0.6"/>
<path fill-rule="evenodd" clip-rule="evenodd" d="M30.4699 97.8613L29.8203 99.3588L29.1223 113.977L29.7719 112.479L30.4699 97.8613Z" fill="#6580E1" fill-opacity="0.6"/>
<path fill-rule="evenodd" clip-rule="evenodd" d="M29.8203 99.3589L29.9702 100.502L29.2722 115.12L29.1223 113.977L29.8203 99.3589Z" fill="#6580E1" fill-opacity="0.6"/>
<path fill-rule="evenodd" clip-rule="evenodd" d="M29.9702 100.502L31.3294 101.921L30.6314 116.539L29.2722 115.12L29.9702 100.502Z" fill="#6580E1" fill-opacity="0.6"/>
<path fill-rule="evenodd" clip-rule="evenodd" d="M31.3293 101.921L34.7373 101.23L34.0393 115.849L30.6313 116.539L31.3293 101.921Z" fill="#6580E1" fill-opacity="0.6"/>
<path fill-rule="evenodd" clip-rule="evenodd" d="M34.7374 101.23L34.6174 100.791L33.9194 115.409L34.0394 115.848L34.7374 101.23Z" fill="#6580E1" fill-opacity="0.6"/>
<path fill-rule="evenodd" clip-rule="evenodd" d="M34.6174 100.791L35.1971 101.044L34.4991 115.662L33.9194 115.409L34.6174 100.791Z" fill="#6580E1" fill-opacity="0.6"/>
<path fill-rule="evenodd" clip-rule="evenodd" d="M35.197 101.044L36.0565 101.012L35.3585 115.63L34.499 115.662L35.197 101.044Z" fill="#6580E1" fill-opacity="0.6"/>
<path fill-rule="evenodd" clip-rule="evenodd" d="M36.0564 101.012L36.8559 101.605L36.1579 116.223L35.3584 115.63L36.0564 101.012Z" fill="#6580E1" fill-opacity="0.6"/>
<path fill-rule="evenodd" clip-rule="evenodd" d="M36.8559 101.605L38.1452 100.785L37.4472 115.404L36.158 116.223L36.8559 101.605Z" fill="#6580E1" fill-opacity="0.6"/>
<path fill-rule="evenodd" clip-rule="evenodd" d="M38.1453 100.785L40.3439 101.087L39.6459 115.705L37.4473 115.404L38.1453 100.785Z" fill="#6580E1" fill-opacity="0.6"/>
<path fill-rule="evenodd" clip-rule="evenodd" d="M40.3437 101.087L41.0233 100.784L40.3253 115.402L39.6458 115.705L40.3437 101.087Z" fill="#6580E1" fill-opacity="0.6"/>
<path fill-rule="evenodd" clip-rule="evenodd" d="M41.0234 100.784L46.1703 100.595L45.4723 115.213L40.3254 115.402L41.0234 100.784Z" fill="#6580E1" fill-opacity="0.6"/>
<path fill-rule="evenodd" clip-rule="evenodd" d="M46.1704 100.595L48.409 94.0708L47.711 108.689L45.4724 115.213L46.1704 100.595Z" fill="#6580E1" fill-opacity="0.6"/>
<path fill-rule="evenodd" clip-rule="evenodd" d="M48.4089 94.0706L48.209 92.0059L47.511 106.624L47.7109 108.689L48.4089 94.0706Z" fill="#6580E1" fill-opacity="0.6"/>
<path fill-rule="evenodd" clip-rule="evenodd" d="M48.209 92.0059L49.0585 92.048L48.3605 106.666L47.511 106.624L48.209 92.0059Z" fill="#6580E1" fill-opacity="0.6"/>
<path fill-rule="evenodd" clip-rule="evenodd" d="M49.0586 92.0482L49.2884 91.8835L48.5905 106.502L48.3606 106.666L49.0586 92.0482Z" fill="#6580E1" fill-opacity="0.6"/>
<path fill-rule="evenodd" clip-rule="evenodd" d="M49.2883 91.8835L50.3477 92.197L49.6497 106.815L48.5903 106.502L49.2883 91.8835Z" fill="#6580E1" fill-opacity="0.6"/>
<path fill-rule="evenodd" clip-rule="evenodd" d="M50.3476 92.197L51.6868 91.9106L50.9888 106.529L49.6497 106.815L50.3476 92.197Z" fill="#6580E1" fill-opacity="0.6"/>
<path fill-rule="evenodd" clip-rule="evenodd" d="M51.687 91.9108L52.5365 91.3459L51.8385 105.964L50.989 106.529L51.687 91.9108Z" fill="#6580E1" fill-opacity="0.6"/>
<path fill-rule="evenodd" clip-rule="evenodd" d="M52.5364 91.3457L53.5458 90.2939L52.8478 104.912L51.8384 105.964L52.5364 91.3457Z" fill="#6580E1" fill-opacity="0.6"/>
<path fill-rule="evenodd" clip-rule="evenodd" d="M53.5459 90.2939L53.8357 90.4105L53.1377 105.029L52.8479 104.912L53.5459 90.2939Z" fill="#6580E1" fill-opacity="0.6"/>
<path fill-rule="evenodd" clip-rule="evenodd" d="M53.8357 90.4106L54.1755 90.2488L53.4775 104.867L53.1377 105.029L53.8357 90.4106Z" fill="#6580E1" fill-opacity="0.6"/>
<path fill-rule="evenodd" clip-rule="evenodd" d="M54.1753 90.2488L54.3052 90.4362L53.6072 105.054L53.4773 104.867L54.1753 90.2488Z" fill="#6580E1" fill-opacity="0.6"/>
<path fill-rule="evenodd" clip-rule="evenodd" d="M54.3054 90.4363L54.7052 90.5556L54.0072 105.174L53.6074 105.054L54.3054 90.4363Z" fill="#6580E1" fill-opacity="0.6"/>
<path fill-rule="evenodd" clip-rule="evenodd" d="M54.7051 90.5555L54.805 90.4216L54.107 105.04L54.0071 105.174L54.7051 90.5555Z" fill="#6580E1" fill-opacity="0.6"/>
<path fill-rule="evenodd" clip-rule="evenodd" d="M54.8049 90.4216L56.1941 90.9209L55.4961 105.539L54.1069 105.04L54.8049 90.4216Z" fill="#6580E1" fill-opacity="0.6"/>
<path fill-rule="evenodd" clip-rule="evenodd" d="M56.1941 90.9209L56.4639 91.1801L55.7659 105.798L55.4961 105.539L56.1941 90.9209Z" fill="#6580E1" fill-opacity="0.6"/>
<path fill-rule="evenodd" clip-rule="evenodd" d="M56.4639 91.1802L56.1841 91.2139L55.4861 105.832L55.7659 105.798L56.4639 91.1802Z" fill="#6580E1" fill-opacity="0.6"/>
<path fill-rule="evenodd" clip-rule="evenodd" d="M56.1841 91.2139L56.0242 91.5167L55.3262 106.135L55.4861 105.832L56.1841 91.2139Z" fill="#6580E1" fill-opacity="0.6"/>
<path fill-rule="evenodd" clip-rule="evenodd" d="M56.0242 91.5168L56.8537 91.8313L56.1557 106.449L55.3262 106.135L56.0242 91.5168Z" fill="#6580E1" fill-opacity="0.6"/>
<path fill-rule="evenodd" clip-rule="evenodd" d="M56.8538 91.8313L58.9025 87.9348L58.2045 102.553L56.1558 106.449L56.8538 91.8313Z" fill="#6580E1" fill-opacity="0.6"/>
<path fill-rule="evenodd" clip-rule="evenodd" d="M58.9026 87.9346L59.5722 87.563L58.8742 102.181L58.2046 102.553L58.9026 87.9346Z" fill="#6580E1" fill-opacity="0.6"/>
<path fill-rule="evenodd" clip-rule="evenodd" d="M59.5721 87.5632L59.3223 86.5747L58.6243 101.193L58.8741 102.181L59.5721 87.5632Z" fill="#6580E1" fill-opacity="0.6"/>
<path fill-rule="evenodd" clip-rule="evenodd" d="M59.3223 86.5747L60.4416 86.9102L59.7436 101.528L58.6243 101.193L59.3223 86.5747Z" fill="#6580E1" fill-opacity="0.6"/>
<path fill-rule="evenodd" clip-rule="evenodd" d="M60.4415 86.9102L59.7319 88.3856L59.0339 103.004L59.7435 101.528L60.4415 86.9102Z" fill="#6580E1" fill-opacity="0.6"/>
<path fill-rule="evenodd" clip-rule="evenodd" d="M59.7319 88.3856L61.221 88.2463L60.523 102.865L59.0339 103.004L59.7319 88.3856Z" fill="#6580E1" fill-opacity="0.6"/>
<path fill-rule="evenodd" clip-rule="evenodd" d="M61.2212 88.2462L61.7109 87.188L61.0129 101.806L60.5232 102.864L61.2212 88.2462Z" fill="#6580E1" fill-opacity="0.6"/>
<path fill-rule="evenodd" clip-rule="evenodd" d="M61.7109 87.188L61.8808 87.5538L61.1828 102.172L61.0129 101.806L61.7109 87.188Z" fill="#6580E1" fill-opacity="0.6"/>
<path fill-rule="evenodd" clip-rule="evenodd" d="M61.8806 87.554L63.6595 88.5951L62.9615 103.213L61.1826 102.172L61.8806 87.554Z" fill="#6580E1" fill-opacity="0.6"/>
<path fill-rule="evenodd" clip-rule="evenodd" d="M63.6595 88.595L63.5896 89.1251L62.8916 103.743L62.9616 103.213L63.6595 88.595Z" fill="#6580E1" fill-opacity="0.6"/>
<path fill-rule="evenodd" clip-rule="evenodd" d="M63.5896 89.1252L64.0393 89.5664L63.3413 104.185L62.8916 103.743L63.5896 89.1252Z" fill="#6580E1" fill-opacity="0.6"/>
<path fill-rule="evenodd" clip-rule="evenodd" d="M64.0394 89.5664L63.9695 89.9124L63.2715 104.531L63.3414 104.185L64.0394 89.5664Z" fill="#6580E1" fill-opacity="0.6"/>
<path fill-rule="evenodd" clip-rule="evenodd" d="M63.9695 89.9124L64.6591 90.3596L63.9611 104.978L63.2715 104.531L63.9695 89.9124Z" fill="#6580E1" fill-opacity="0.6"/>
<path fill-rule="evenodd" clip-rule="evenodd" d="M64.6589 90.3597L65.6283 90.2344L64.9303 104.853L63.9609 104.978L64.6589 90.3597Z" fill="#6580E1" fill-opacity="0.6"/>
<path fill-rule="evenodd" clip-rule="evenodd" d="M65.6284 90.2343L65.8883 89.6067L65.1903 104.225L64.9304 104.852L65.6284 90.2343Z" fill="#6580E1" fill-opacity="0.6"/>
<path fill-rule="evenodd" clip-rule="evenodd" d="M65.8882 89.6067L66.3079 90.1494L65.6099 104.768L65.1902 104.225L65.8882 89.6067Z" fill="#6580E1" fill-opacity="0.6"/>
<path fill-rule="evenodd" clip-rule="evenodd" d="M66.308 90.1494L66.218 90.6313L65.52 105.249L65.61 104.768L66.308 90.1494Z" fill="#6580E1" fill-opacity="0.6"/>
<path fill-rule="evenodd" clip-rule="evenodd" d="M66.218 90.6313L66.4579 90.9307L65.7599 105.549L65.52 105.25L66.218 90.6313Z" fill="#6580E1" fill-opacity="0.6"/>
<path fill-rule="evenodd" clip-rule="evenodd" d="M66.458 90.9307L66.7878 90.9595L66.0898 105.578L65.76 105.549L66.458 90.9307Z" fill="#6580E1" fill-opacity="0.6"/>
<path fill-rule="evenodd" clip-rule="evenodd" d="M66.7877 90.9597L66.6877 92.8327L65.9897 107.451L66.0897 105.578L66.7877 90.9597Z" fill="#6580E1" fill-opacity="0.6"/>
<path fill-rule="evenodd" clip-rule="evenodd" d="M66.6877 92.8325L67.1674 93.5881L66.4695 108.206L65.9897 107.451L66.6877 92.8325Z" fill="#6580E1" fill-opacity="0.6"/>
<path fill-rule="evenodd" clip-rule="evenodd" d="M67.1675 93.5881L68.0769 94.1638L67.3789 108.782L66.4695 108.206L67.1675 93.5881Z" fill="#6580E1" fill-opacity="0.6"/>
<path fill-rule="evenodd" clip-rule="evenodd" d="M68.0769 94.1638L68.7765 95.0615L68.0785 109.68L67.3789 108.782L68.0769 94.1638Z" fill="#6580E1" fill-opacity="0.6"/>
<path fill-rule="evenodd" clip-rule="evenodd" d="M68.7766 95.0615L69.6261 95.1855L68.9281 109.804L68.0786 109.68L68.7766 95.0615Z" fill="#6580E1" fill-opacity="0.6"/>
<path fill-rule="evenodd" clip-rule="evenodd" d="M69.626 95.1854L70.3355 93.8054L69.6375 108.424L68.928 109.804L69.626 95.1854Z" fill="#6580E1" fill-opacity="0.6"/>
<path fill-rule="evenodd" clip-rule="evenodd" d="M70.3354 93.8054L71.4747 94.2301L70.7768 108.848L69.6375 108.424L70.3354 93.8054Z" fill="#6580E1" fill-opacity="0.6"/>
<path fill-rule="evenodd" clip-rule="evenodd" d="M71.4748 94.2302L72.7241 94.228L72.0261 108.846L70.7769 108.848L71.4748 94.2302Z" fill="#6580E1" fill-opacity="0.6"/>
<path fill-rule="evenodd" clip-rule="evenodd" d="M72.7241 94.228L73.2638 93.5667L72.5658 108.185L72.0261 108.846L72.7241 94.228Z" fill="#6580E1" fill-opacity="0.6"/>
<path fill-rule="evenodd" clip-rule="evenodd" d="M73.2637 93.5667L73.4635 93.8787L72.7656 108.497L72.5657 108.185L73.2637 93.5667Z" fill="#6580E1" fill-opacity="0.6"/>
<path fill-rule="evenodd" clip-rule="evenodd" d="M73.4636 93.8786L73.8034 93.7168L73.1054 108.335L72.7656 108.497L73.4636 93.8786Z" fill="#6580E1" fill-opacity="0.6"/>
<path fill-rule="evenodd" clip-rule="evenodd" d="M73.8035 93.7168L74.2232 94.3754L73.5252 108.994L73.1055 108.335L73.8035 93.7168Z" fill="#6580E1" fill-opacity="0.6"/>
<path fill-rule="evenodd" clip-rule="evenodd" d="M74.2232 94.3752L73.8135 94.9581L73.1155 109.576L73.5252 108.993L74.2232 94.3752Z" fill="#6580E1" fill-opacity="0.6"/>
<path fill-rule="evenodd" clip-rule="evenodd" d="M73.8135 94.9583L74.2732 95.7816L73.5752 110.4L73.1155 109.576L73.8135 94.9583Z" fill="#6580E1" fill-opacity="0.6"/>
<path fill-rule="evenodd" clip-rule="evenodd" d="M74.2732 95.7816L74.593 95.7693L73.895 110.387L73.5752 110.4L74.2732 95.7816Z" fill="#6580E1" fill-opacity="0.6"/>
<path fill-rule="evenodd" clip-rule="evenodd" d="M74.593 95.7693L74.7229 95.5203L74.0249 110.138L73.895 110.387L74.593 95.7693Z" fill="#6580E1" fill-opacity="0.6"/>
<path fill-rule="evenodd" clip-rule="evenodd" d="M74.7229 95.5203L74.9827 95.5883L74.2847 110.206L74.0249 110.138L74.7229 95.5203Z" fill="#6580E1" fill-opacity="0.6"/>
<path fill-rule="evenodd" clip-rule="evenodd" d="M74.9827 95.5882L75.4724 95.2461L74.7744 109.864L74.2847 110.206L74.9827 95.5882Z" fill="#6580E1" fill-opacity="0.6"/>
<path fill-rule="evenodd" clip-rule="evenodd" d="M75.4725 95.2462L75.3525 94.5952L74.6545 109.213L74.7745 109.864L75.4725 95.2462Z" fill="#6580E1" fill-opacity="0.6"/>
<path fill-rule="evenodd" clip-rule="evenodd" d="M75.3525 94.5951L76.0121 94.3596L75.3141 108.978L74.6545 109.213L75.3525 94.5951Z" fill="#6580E1" fill-opacity="0.6"/>
<path fill-rule="evenodd" clip-rule="evenodd" d="M76.0122 94.3598L75.9922 94.0933L75.2942 108.711L75.3142 108.978L76.0122 94.3598Z" fill="#6580E1" fill-opacity="0.6"/>
<path fill-rule="evenodd" clip-rule="evenodd" d="M75.9922 94.0933L76.292 93.9304L75.594 108.549L75.2942 108.711L75.9922 94.0933Z" fill="#6580E1" fill-opacity="0.6"/>
<path fill-rule="evenodd" clip-rule="evenodd" d="M76.2918 93.9304L76.1919 93.5527L75.4939 108.171L75.5938 108.549L76.2918 93.9304Z" fill="#6580E1" fill-opacity="0.6"/>
<path fill-rule="evenodd" clip-rule="evenodd" d="M76.1919 93.5527L77.4711 93.8855L76.7731 108.504L75.4939 108.171L76.1919 93.5527Z" fill="#6580E1" fill-opacity="0.6"/>
<path fill-rule="evenodd" clip-rule="evenodd" d="M77.4712 93.8855L78.4806 94.4705L77.7826 109.089L76.7732 108.504L77.4712 93.8855Z" fill="#6580E1" fill-opacity="0.6"/>
<path fill-rule="evenodd" clip-rule="evenodd" d="M78.4805 94.4705L80.6791 95.1336L79.9811 109.752L77.7825 109.089L78.4805 94.4705Z" fill="#6580E1" fill-opacity="0.6"/>
<path fill-rule="evenodd" clip-rule="evenodd" d="M80.6792 95.1335L80.939 94.3081L80.241 108.926L79.9812 109.752L80.6792 95.1335Z" fill="#6580E1" fill-opacity="0.6"/>
<path fill-rule="evenodd" clip-rule="evenodd" d="M80.9391 94.3081L80.8691 94.1768L80.1711 108.795L80.2411 108.926L80.9391 94.3081Z" fill="#6580E1" fill-opacity="0.6"/>
<path fill-rule="evenodd" clip-rule="evenodd" d="M80.8691 94.1768L80.6792 94.3492L79.9812 108.967L80.1711 108.795L80.8691 94.1768Z" fill="#6580E1" fill-opacity="0.6"/>
<path fill-rule="evenodd" clip-rule="evenodd" d="M80.6792 94.3493L80.8691 93.4812L80.1711 108.099L79.9812 108.967L80.6792 94.3493Z" fill="#6580E1" fill-opacity="0.6"/>
<path fill-rule="evenodd" clip-rule="evenodd" d="M80.8691 93.4812L80.7092 93.3816L80.0112 108L80.1711 108.099L80.8691 93.4812Z" fill="#6580E1" fill-opacity="0.6"/>
<path fill-rule="evenodd" clip-rule="evenodd" d="M80.7092 93.3816L80.9491 93.4014L80.2511 108.02L80.0112 108L80.7092 93.3816Z" fill="#6580E1" fill-opacity="0.6"/>
<path fill-rule="evenodd" clip-rule="evenodd" d="M80.949 93.4013L81.2488 92.1472L80.5508 106.765L80.251 108.019L80.949 93.4013Z" fill="#6580E1" fill-opacity="0.6"/>
<path fill-rule="evenodd" clip-rule="evenodd" d="M81.2489 92.1472L80.5393 90.54L79.8413 105.158L80.5509 106.765L81.2489 92.1472Z" fill="#6580E1" fill-opacity="0.6"/>
<path fill-rule="evenodd" clip-rule="evenodd" d="M80.5392 90.5403L80.1894 90.354L79.4915 104.972L79.8412 105.158L80.5392 90.5403Z" fill="#6580E1" fill-opacity="0.6"/>
<path fill-rule="evenodd" clip-rule="evenodd" d="M80.1896 90.3539L79.0303 88.5784L78.3323 103.197L79.4916 104.972L80.1896 90.3539Z" fill="#6580E1" fill-opacity="0.6"/>
<path fill-rule="evenodd" clip-rule="evenodd" d="M79.0303 88.5783L77.8411 87.3135L77.1431 101.932L78.3323 103.196L79.0303 88.5783Z" fill="#6580E1" fill-opacity="0.6"/>
<path fill-rule="evenodd" clip-rule="evenodd" d="M77.841 87.3135L77.0315 86.9314L76.3335 101.55L77.143 101.932L77.841 87.3135Z" fill="#6580E1" fill-opacity="0.6"/>
<path fill-rule="evenodd" clip-rule="evenodd" d="M77.0315 86.9314L75.9321 86.7056L75.2341 101.324L76.3335 101.55L77.0315 86.9314Z" fill="#6580E1" fill-opacity="0.6"/>
<path fill-rule="evenodd" clip-rule="evenodd" d="M75.9321 86.7057L76.3019 86.4219L75.6039 101.04L75.2341 101.324L75.9321 86.7057Z" fill="#6580E1" fill-opacity="0.6"/>
<path fill-rule="evenodd" clip-rule="evenodd" d="M76.3018 86.4217L76.1919 85.7573L75.4939 100.375L75.6038 101.04L76.3018 86.4217Z" fill="#6580E1" fill-opacity="0.6"/>
<path fill-rule="evenodd" clip-rule="evenodd" d="M76.1919 85.7574L76.4517 85.3958L75.7537 100.014L75.4939 100.376L76.1919 85.7574Z" fill="#6580E1" fill-opacity="0.6"/>
<path fill-rule="evenodd" clip-rule="evenodd" d="M76.4519 85.3958L76.302 84.9077L75.604 99.5259L75.7539 100.014L76.4519 85.3958Z" fill="#6580E1" fill-opacity="0.6"/>
<path fill-rule="evenodd" clip-rule="evenodd" d="M76.302 84.9078L76.6218 84.5955L75.9238 99.2136L75.604 99.526L76.302 84.9078Z" fill="#6580E1" fill-opacity="0.6"/>
<path fill-rule="evenodd" clip-rule="evenodd" d="M76.6217 84.5954L76.092 83.8044L75.394 98.4226L75.9237 99.2136L76.6217 84.5954Z" fill="#6580E1" fill-opacity="0.6"/>
<path fill-rule="evenodd" clip-rule="evenodd" d="M76.092 83.8043L76.2619 83.2153L75.5639 97.8335L75.394 98.4225L76.092 83.8043Z" fill="#6580E1" fill-opacity="0.6"/>
<path fill-rule="evenodd" clip-rule="evenodd" d="M76.2619 83.2153L75.4324 83.0918L74.7344 97.71L75.5639 97.8334L76.2619 83.2153Z" fill="#6580E1" fill-opacity="0.6"/>
<path fill-rule="evenodd" clip-rule="evenodd" d="M75.4325 83.0918L74.563 83.3356L73.865 97.9537L74.7345 97.71L75.4325 83.0918Z" fill="#6580E1" fill-opacity="0.6"/>
<path fill-rule="evenodd" clip-rule="evenodd" d="M74.563 83.3357L75.1126 82.3677L74.4147 96.9858L73.865 97.9539L74.563 83.3357Z" fill="#6580E1" fill-opacity="0.6"/>
<path fill-rule="evenodd" clip-rule="evenodd" d="M75.1127 82.3677L75.0828 81.3167L74.3848 95.9348L74.4147 96.9859L75.1127 82.3677Z" fill="#6580E1" fill-opacity="0.6"/>
<path fill-rule="evenodd" clip-rule="evenodd" d="M75.0826 81.3165L74.8428 80.8262L74.1448 95.4443L74.3846 95.9347L75.0826 81.3165Z" fill="#6580E1" fill-opacity="0.6"/>
<path fill-rule="evenodd" clip-rule="evenodd" d="M74.8428 80.8262L75.1326 79.9197L74.4346 94.5378L74.1448 95.4443L74.8428 80.8262Z" fill="#6580E1" fill-opacity="0.6"/>
<path fill-rule="evenodd" clip-rule="evenodd" d="M75.1326 79.9199L77.4412 79.0649L76.7432 93.6831L74.4346 94.538L75.1326 79.9199Z" fill="#6580E1" fill-opacity="0.6"/>
<path fill-rule="evenodd" clip-rule="evenodd" d="M77.4412 79.0649L71.2949 72.1289L70.5969 86.7471L76.7432 93.6831L77.4412 79.0649Z" fill="#6580E1" fill-opacity="0.6"/>
<path fill-rule="evenodd" clip-rule="evenodd" d="M71.2949 72.1287L74.2631 68.4263L73.5651 83.0444L70.5969 86.7469L71.2949 72.1287Z" fill="#6580E1" fill-opacity="0.6"/>
<path fill-rule="evenodd" clip-rule="evenodd" d="M74.2632 68.4263L74.7629 68.78L74.0649 83.3982L73.5652 83.0444L74.2632 68.4263Z" fill="#6580E1" fill-opacity="0.6"/>
<path fill-rule="evenodd" clip-rule="evenodd" d="M74.7629 68.78L75.9022 68.3044L75.2042 82.9226L74.0649 83.3982L74.7629 68.78Z" fill="#6580E1" fill-opacity="0.6"/>
<path fill-rule="evenodd" clip-rule="evenodd" d="M75.9021 68.3046L75.8921 68.1543L75.1941 82.7725L75.2041 82.9228L75.9021 68.3046Z" fill="#6580E1" fill-opacity="0.6"/>
<path fill-rule="evenodd" clip-rule="evenodd" d="M75.8921 68.1542L77.4112 68.1453L76.7132 82.7634L75.1941 82.7724L75.8921 68.1542Z" fill="#6580E1" fill-opacity="0.6"/>
<path fill-rule="evenodd" clip-rule="evenodd" d="M77.4111 68.1453L77.4211 67.6614L76.7231 82.2795L76.7131 82.7635L77.4111 68.1453Z" fill="#6580E1" fill-opacity="0.6"/>
<path fill-rule="evenodd" clip-rule="evenodd" d="M77.4211 67.6613L77.8709 67.3113L77.1729 81.9294L76.7231 82.2794L77.4211 67.6613Z" fill="#6580E1" fill-opacity="0.6"/>
<path fill-rule="evenodd" clip-rule="evenodd" d="M77.8708 67.3113L78.0607 67.3025L77.3627 81.9207L77.1729 81.9294L77.8708 67.3113Z" fill="#6580E1" fill-opacity="0.6"/>
<path fill-rule="evenodd" clip-rule="evenodd" d="M78.0608 67.3025L78.1907 67.5309L77.4927 82.149L77.3628 81.9207L78.0608 67.3025Z" fill="#6580E1" fill-opacity="0.6"/>
<path fill-rule="evenodd" clip-rule="evenodd" d="M78.1909 67.531L78.1709 68.0011L77.4729 82.6192L77.4929 82.1492L78.1909 67.531Z" fill="#6580E1" fill-opacity="0.6"/>
<path fill-rule="evenodd" clip-rule="evenodd" d="M78.1709 68.001L78.5107 68.071L77.8127 82.6892L77.4729 82.6191L78.1709 68.001Z" fill="#6580E1" fill-opacity="0.6"/>
<path fill-rule="evenodd" clip-rule="evenodd" d="M78.5105 68.071L78.8503 67.5886L78.1523 82.2068L77.8125 82.6891L78.5105 68.071Z" fill="#6580E1" fill-opacity="0.6"/>
<path fill-rule="evenodd" clip-rule="evenodd" d="M78.8503 67.5886L79.1701 67.7332L78.4721 82.3514L78.1523 82.2068L78.8503 67.5886Z" fill="#6580E1" fill-opacity="0.6"/>
<path fill-rule="evenodd" clip-rule="evenodd" d="M79.1702 67.7332L80.0096 67.2295L79.3117 81.8477L78.4722 82.3514L79.1702 67.7332Z" fill="#6580E1" fill-opacity="0.6"/>
<path fill-rule="evenodd" clip-rule="evenodd" d="M80.0096 67.2296L79.47 66.3906L78.772 81.0088L79.3116 81.8478L80.0096 67.2296Z" fill="#6580E1" fill-opacity="0.6"/>
<path fill-rule="evenodd" clip-rule="evenodd" d="M79.47 66.3905L80.6492 66.2979L79.9513 80.916L78.772 81.0087L79.47 66.3905Z" fill="#6580E1" fill-opacity="0.6"/>
<path fill-rule="evenodd" clip-rule="evenodd" d="M80.6493 66.298L80.5593 65.9001L79.8613 80.5183L79.9513 80.9162L80.6493 66.298Z" fill="#6580E1" fill-opacity="0.6"/>
<path fill-rule="evenodd" clip-rule="evenodd" d="M80.5593 65.9001L80.8391 66.0164L80.1412 80.6346L79.8613 80.5183L80.5593 65.9001Z" fill="#6580E1" fill-opacity="0.6"/>
<path fill-rule="evenodd" clip-rule="evenodd" d="M80.8391 66.0164L81.5487 65.564L80.8507 80.1821L80.1411 80.6346L80.8391 66.0164Z" fill="#6580E1" fill-opacity="0.6"/>
<path fill-rule="evenodd" clip-rule="evenodd" d="M81.5488 65.564L83.0279 67.1772L82.3299 81.7953L80.8508 80.1821L81.5488 65.564Z" fill="#6580E1" fill-opacity="0.6"/>
<path fill-rule="evenodd" clip-rule="evenodd" d="M83.0278 67.177L83.2477 67.3327L82.5497 81.9508L82.3298 81.7952L83.0278 67.177Z" fill="#6580E1" fill-opacity="0.6"/>
<path fill-rule="evenodd" clip-rule="evenodd" d="M83.2478 67.3327L83.5576 67.1633L82.8596 81.7815L82.5498 81.9509L83.2478 67.3327Z" fill="#6580E1" fill-opacity="0.6"/>
<path fill-rule="evenodd" clip-rule="evenodd" d="M83.5576 67.1633L83.8075 67.8858L83.1095 82.504L82.8596 81.7815L83.5576 67.1633Z" fill="#6580E1" fill-opacity="0.6"/>
<path fill-rule="evenodd" clip-rule="evenodd" d="M83.8074 67.8857L84.2771 68.1296L83.5791 82.7478L83.1094 82.5039L83.8074 67.8857Z" fill="#6580E1" fill-opacity="0.6"/>
<path fill-rule="evenodd" clip-rule="evenodd" d="M84.2771 68.1296L84.9567 67.9355L84.2587 82.5537L83.5791 82.7478L84.2771 68.1296Z" fill="#6580E1" fill-opacity="0.6"/>
<path fill-rule="evenodd" clip-rule="evenodd" d="M84.9565 67.9355L85.1864 67.2048L84.4884 81.823L84.2585 82.5537L84.9565 67.9355Z" fill="#6580E1" fill-opacity="0.6"/>
<path fill-rule="evenodd" clip-rule="evenodd" d="M85.1866 67.2048L84.5969 66.801L83.8989 81.4192L84.4886 81.823L85.1866 67.2048Z" fill="#6580E1" fill-opacity="0.6"/>
<path fill-rule="evenodd" clip-rule="evenodd" d="M84.5969 66.8011L84.1472 65.5757L83.4492 80.1938L83.8989 81.4193L84.5969 66.8011Z" fill="#6580E1" fill-opacity="0.6"/>
<path fill-rule="evenodd" clip-rule="evenodd" d="M84.1472 65.5757L84.3471 64.8442L83.6491 79.4624L83.4492 80.1939L84.1472 65.5757Z" fill="#6580E1" fill-opacity="0.6"/>
<path fill-rule="evenodd" clip-rule="evenodd" d="M84.347 64.8442L83.6374 64.26L82.9395 78.8782L83.649 79.4624L84.347 64.8442Z" fill="#6580E1" fill-opacity="0.6"/>
<path fill-rule="evenodd" clip-rule="evenodd" d="M83.6374 64.26L85.5363 63.9333L84.8383 78.5515L82.9395 78.8781L83.6374 64.26Z" fill="#6580E1" fill-opacity="0.6"/>
<path fill-rule="evenodd" clip-rule="evenodd" d="M85.5364 63.9334L85.5763 63.7844L84.8784 78.4026L84.8384 78.5516L85.5364 63.9334Z" fill="#6580E1" fill-opacity="0.6"/>
<path fill-rule="evenodd" clip-rule="evenodd" d="M85.5762 63.7843L85.9359 63.7117L85.238 78.3298L84.8782 78.4025L85.5762 63.7843Z" fill="#6580E1" fill-opacity="0.6"/>
<path fill-rule="evenodd" clip-rule="evenodd" d="M85.9361 63.7117L85.3765 62.8381L84.6785 77.4563L85.2381 78.3299L85.9361 63.7117Z" fill="#6580E1" fill-opacity="0.6"/>
<path fill-rule="evenodd" clip-rule="evenodd" d="M85.3765 62.8381L85.6463 62.6609L84.9483 77.2791L84.6785 77.4563L85.3765 62.8381Z" fill="#6580E1" fill-opacity="0.6"/>
<path fill-rule="evenodd" clip-rule="evenodd" d="M85.6463 62.661L85.5063 62.0981L84.8083 76.7163L84.9483 77.2791L85.6463 62.661Z" fill="#6580E1" fill-opacity="0.6"/>
<path fill-rule="evenodd" clip-rule="evenodd" d="M85.5063 62.0981L88.8843 61.5706L88.1863 76.1887L84.8083 76.7162L85.5063 62.0981Z" fill="#6580E1" fill-opacity="0.6"/>
<path fill-rule="evenodd" clip-rule="evenodd" d="M88.8842 61.5707L85.946 59.2041L85.248 73.8223L88.1863 76.1888L88.8842 61.5707Z" fill="#6580E1" fill-opacity="0.6"/>
<path fill-rule="evenodd" clip-rule="evenodd" d="M85.946 59.2041L86.7356 58.1467L86.0376 72.7649L85.248 73.8223L85.946 59.2041Z" fill="#6580E1" fill-opacity="0.6"/>
<path fill-rule="evenodd" clip-rule="evenodd" d="M86.7355 58.1465L86.5256 57.2341L85.8276 71.8523L86.0375 72.7647L86.7355 58.1465Z" fill="#6580E1" fill-opacity="0.6"/>
<path fill-rule="evenodd" clip-rule="evenodd" d="M86.5256 57.2342L86.8754 56.9226L86.1774 71.5408L85.8276 71.8524L86.5256 57.2342Z" fill="#6580E1" fill-opacity="0.6"/>
<path fill-rule="evenodd" clip-rule="evenodd" d="M86.8755 56.9226L86.0959 56.4253L85.3979 71.0435L86.1775 71.5408L86.8755 56.9226Z" fill="#6580E1" fill-opacity="0.6"/>
<path fill-rule="evenodd" clip-rule="evenodd" d="M86.0959 56.4253V56.4253L85.3979 71.0435V71.0435L86.0959 56.4253Z" fill="#6580E1" fill-opacity="0.6"/>
<path d="M86.0959 56.4253L84.447 56.9356L82.648 55.5938L79.3001 53.5987L79.6299 52.9524L80.4794 52.9673L81.089 52.5396L82.0684 51.4461L82.5081 50.4207L83.3876 50.3409L82.678 49.6817L83.3676 49.2969L83.0978 47.9397L82.3982 47.2875L82.2783 45.8796L81.159 44.6643L80.3994 42.9945L79.3301 41.6645L78.4206 40.7888L76.7516 41.3736L77.0115 41.8713L75.6123 42.6949L71.3649 38.8695L70.9152 38.5989L70.2356 38.8338L69.1763 37.8247L70.1057 37.2483L70.0957 36.9343L69.546 36.5929L66.4279 35.654L65.5485 33.5446L66.9276 33.3343L68.2168 32.7193L71.4649 32.6727L72.7741 33.6609L72.9839 34.0755L74.463 32.2378L74.8628 31.375L73.5436 31.3891L71.3649 29.2397L71.8846 28.3936L74.9527 28.8744L74.8028 28.5091L74.0033 28.2295L72.0645 27.0683V26.8774L71.295 26.2235L70.8053 25.072L70.2956 24.7248L70.3256 24.0504L69.566 23.424L69.0064 20.3885L70.1557 20.2337L69.9258 18.9389L68.8365 17.1788L68.4267 14.5085L67.0376 13.3341L66.5778 13.2473L68.1469 10.8254L69.9058 9.25397L68.7065 8.31629L64.1493 9.58435L60.9013 8.97626L58.183 6.26752L56.7938 5.56369L54.6951 4.91676L49.4783 4.57889L47.8293 4.12077L40.2939 0L36.766 1.7854L35.8666 5.37022L34.8972 6.95495L33.3981 7.38043L29.3305 8.5246L25.1031 11.9835L26.0625 16.0113L24.4835 16.4757L24.8733 16.9971L24.4035 17.1556L24.7433 18.8079L24.2237 19.8108L23.7639 22.2134L25.0831 22.9018L17.3179 21.5782L11.8312 23.4022L11.6113 23.3147L11.7113 23.556L10.472 25.7545L9.2028 25.8653L9.31275 26.5433L9.05291 26.6457L9.11287 27.3634L8.27338 27.6215L8.13346 27.3452L7.18403 27.4982L7.38391 27.8716L8.14346 27.7478L8.25339 27.9416L9.7225 27.2221L10.1023 28.0706L9.75248 28.164L9.95235 28.8784L9.63254 29.0203L10.2122 30.0649L10.9917 29.812L11.4414 30.7374L11.3115 32.9232L12.9605 33.0608L14.2098 33.4815L14.6195 33.9898L14.6595 35.2593L11.9911 35.614L11.7513 34.9941L11.1216 36.2875L11.9411 36.0765L13.0205 37.2498L12.4808 37.6316L12.9705 37.6987L13.84 38.5257L14.0998 38.5459L14.0798 38.8182L15.9087 41.5384L16.9981 44.0691L18.9769 45.0881L16.6982 46.503L16.4584 47.138L17.6577 47.4141L18.787 47.1974L18.9869 47.6322L18.0674 47.8201L18.4272 49.0774L17.4678 49.2166L17.7476 50.0012L17.148 50.1495L17.5078 51.1954L17.3478 51.2254L17.148 50.9475L16.9581 50.9904L17.2679 51.5984L16.8781 51.7113L16.5483 51.5119L16.3784 52.0327L16.7082 52.7094L16.3085 53.0471L15.2891 52.8096L14.7195 52.3586L15.0692 53.029L15.469 52.9029L15.7988 53.0886L14.8893 53.2086L14.7294 53.6342L13.9 54.1245L13.3303 53.0801L12.9905 53.1124L13.1604 52.7962L12.4908 53.1269L12.231 52.752L11.0917 53.1525L10.8318 53.064L10.9917 53.4705L10.6219 53.6452L11.2915 54.4875L10.542 55.2254L6.70433 53.5247L3.40634 56.5913L3.48629 56.9071L1.44754 58.2053L0.697998 58.9432L1.05778 61.1825L1.8373 62.0345L2.40695 61.9195L2.73675 62.1461L2.91665 63.1055L5.22524 64.2488L8.3833 64.3227L8.81305 64.0131L9.68251 66.9816L11.0917 68.3611L11.8112 68.5431L12.7407 68.4782L12.8506 68.1878L13.1304 68.2086L13.1004 68.5965L13.3103 68.6564L13.4202 68.3046L13.5202 68.5936L13.9099 68.7331L13.5402 68.8465L13.9499 69.1434L14.3897 68.9159L14.0199 68.2995L14.1898 68.0992L16.2885 67.1366L16.3984 66.8257L18.1474 67.682L19.5065 69.8854L20.2061 70.4557L21.8151 71.0629L21.6152 73.9972L22.7945 74.3137L23.664 75.393L22.5147 76.83L21.4454 77.321L19.9263 77.4868L19.1667 77.8834L18.5671 79.2185L18.717 80.2589L22.3648 83.5643L26.6122 86.6804L25.8527 87.2816L24.4835 87.6627V89.4222L25.0931 90.5767L26.6122 90.6155L27.8315 90.9604L27.9814 91.6871L27.5416 92.8558L28.0613 92.9781L26.8321 92.6876L26.2224 92.2083L25.323 93.9448L25.6228 94.6822L26.4323 95.3645L26.982 96.9539L27.3917 95.5458L27.8614 95.5033L28.6909 95.1289L29.5704 95.5605L29.5304 96.5893L28.3212 97.4996L30.4699 97.8614L29.8202 99.3588L29.9702 100.502L31.3293 101.921L34.7373 101.23L34.6173 100.791L35.197 101.044L36.0564 101.012L36.856 101.605L38.1452 100.785L40.3438 101.087L41.0234 100.784L46.1703 100.595L48.4089 94.0707L48.209 92.006L49.0585 92.0481L49.2884 91.8835L50.3477 92.197L51.6869 91.9106L52.5364 91.3458L53.5458 90.294L53.8356 90.4106L54.1754 90.2487L54.3053 90.4362L54.7051 90.5555L54.805 90.4217L56.1942 90.9209L56.464 91.1801L56.1842 91.2139L56.0243 91.5167L56.8538 91.8312L58.9025 87.9347L59.5721 87.5631L59.3223 86.5746L60.4416 86.9101L59.732 88.3856L61.2211 88.2463L61.7108 87.188L61.8807 87.5538L63.6596 88.595L63.5897 89.1252L64.0394 89.5663L63.9694 89.9123L64.659 90.3596L65.6284 90.2343L65.8883 89.6067L66.308 90.1494L66.2181 90.6313L66.4579 90.9307L66.7877 90.9596L66.6878 92.8325L67.1675 93.5882L68.0769 94.1638L68.7765 95.0614L69.626 95.1854L70.3355 93.8055L71.4749 94.2301L72.7241 94.2279L73.2638 93.5665L73.4636 93.8785L73.8034 93.7167L74.2232 94.3753L73.8134 94.9582L74.2731 95.7815L74.593 95.7692L74.7229 95.5202L74.9827 95.5882L75.4724 95.2461L75.3525 94.5951L76.0121 94.3596L75.9921 94.0931L76.2919 93.9303L76.192 93.5527L77.4712 93.8854L78.4806 94.4704L80.6792 95.1336L80.9391 94.3082L80.8691 94.1768L80.6792 94.3493L80.8691 93.4811L80.7092 93.3816L80.9491 93.4014L81.2489 92.1473L80.5393 90.5401L80.1895 90.3539L79.0303 88.5784L77.841 87.3136L77.0315 86.9314L75.9321 86.7056L76.3019 86.4218L76.192 85.7574L76.4518 85.3958L76.3019 84.9077L76.6217 84.5954L76.092 83.8043L76.2619 83.2153L75.4324 83.0919L74.563 83.3356L75.1126 82.3676L75.0827 81.3166L74.8428 80.8262L75.1326 79.9197L77.4412 79.0648L71.295 72.1288L74.2632 68.4263L74.7629 68.7801L75.9022 68.3045L75.8922 68.1542L77.4112 68.1453L77.4212 67.6613L77.871 67.3113L78.0608 67.3025L78.1908 67.5309L78.1708 68.001L78.5106 68.071L78.8504 67.5887L79.1702 67.7332L80.0097 67.2295L79.47 66.3905L80.6493 66.2979L80.5593 65.9L80.8391 66.0163L81.5487 65.5639L83.0278 67.177L83.2477 67.3327L83.5575 67.1633L83.8073 67.8858L84.2771 68.1296L84.9566 67.9356L85.1865 67.2049L84.5969 66.8011L84.1471 65.5757L84.347 64.8442L83.6374 64.26L85.5363 63.9334L85.5763 63.7844L85.936 63.7117L85.3764 62.8381L85.6462 62.6609L85.5063 62.0981L88.8842 61.5705L85.946 59.204L86.7356 58.1466L86.5257 57.2342L86.8755 56.9226L86.0959 56.4253Z" fill="white"/>
</svg>
