<svg width="163" height="127" viewBox="0 0 163 127" fill="none" xmlns="http://www.w3.org/2000/svg">
<path fill-rule="evenodd" clip-rule="evenodd" d="M55.1398 125.88L51.2947 126.55V101.55L55.1398 100.88V125.88Z" fill="#6580E1" fill-opacity="0.6"/>
<path fill-rule="evenodd" clip-rule="evenodd" d="M51.2948 126.55L37.9233 119.2V94.2L51.2948 101.55V126.55Z" fill="#6580E1" fill-opacity="0.6"/>
<path fill-rule="evenodd" clip-rule="evenodd" d="M37.9234 119.2L36.1567 119.92V94.92L37.9234 94.2V119.2Z" fill="#6580E1" fill-opacity="0.6"/>
<path fill-rule="evenodd" clip-rule="evenodd" d="M36.1565 119.92L34.9441 120.03V95.0299L36.1565 94.9199V119.92Z" fill="#6580E1" fill-opacity="0.6"/>
<path fill-rule="evenodd" clip-rule="evenodd" d="M34.9441 120.03L32.7444 118.72V93.72L34.9441 95.03V120.03Z" fill="#6580E1" fill-opacity="0.6"/>
<path fill-rule="evenodd" clip-rule="evenodd" d="M32.7445 118.72L32.1643 118.675V93.675L32.7445 93.72V118.72Z" fill="#6580E1" fill-opacity="0.6"/>
<path fill-rule="evenodd" clip-rule="evenodd" d="M32.1643 118.675L28.3364 120.515V95.515L32.1643 93.675V118.675Z" fill="#6580E1" fill-opacity="0.6"/>
<path fill-rule="evenodd" clip-rule="evenodd" d="M28.3365 120.515L23.7292 120.675V95.6749L28.3365 95.5149V120.515Z" fill="#6580E1" fill-opacity="0.6"/>
<path fill-rule="evenodd" clip-rule="evenodd" d="M23.7293 120.675L22.9412 120.35V95.3499L23.7293 95.6748V120.675Z" fill="#6580E1" fill-opacity="0.6"/>
<path fill-rule="evenodd" clip-rule="evenodd" d="M22.9411 120.35L22.8372 119.65V94.6499L22.9411 95.3499V120.35Z" fill="#6580E1" fill-opacity="0.6"/>
<path fill-rule="evenodd" clip-rule="evenodd" d="M22.8372 119.65L21.9192 119.61V94.6099L22.8372 94.6499V119.65Z" fill="#6580E1" fill-opacity="0.6"/>
<path fill-rule="evenodd" clip-rule="evenodd" d="M21.9192 119.61L22.3176 119.48V94.48L21.9192 94.61V119.61Z" fill="#6580E1" fill-opacity="0.6"/>
<path fill-rule="evenodd" clip-rule="evenodd" d="M22.3177 119.48L21.5815 119.295V94.2949L22.3177 94.4799V119.48Z" fill="#6580E1" fill-opacity="0.6"/>
<path fill-rule="evenodd" clip-rule="evenodd" d="M21.5815 119.295L22.0405 119.16V94.1599L21.5815 94.2949V119.295Z" fill="#6580E1" fill-opacity="0.6"/>
<path fill-rule="evenodd" clip-rule="evenodd" d="M22.0403 119.16L21.2869 118.875V93.875L22.0403 94.16V119.16Z" fill="#6580E1" fill-opacity="0.6"/>
<path fill-rule="evenodd" clip-rule="evenodd" d="M21.2871 118.705L20.9407 118.795V93.7948L21.2871 93.7048V118.705Z" fill="#6580E1" fill-opacity="0.6"/>
<path fill-rule="evenodd" clip-rule="evenodd" d="M20.9406 118.795L20.906 119.155V94.1549L20.9406 93.7949V118.795Z" fill="#6580E1" fill-opacity="0.6"/>
<path fill-rule="evenodd" clip-rule="evenodd" d="M20.906 119.155L17.9182 118.51V93.51L20.906 94.155V119.155Z" fill="#6580E1" fill-opacity="0.6"/>
<path fill-rule="evenodd" clip-rule="evenodd" d="M17.9181 118.51L10.9985 118.785V93.785L17.9181 93.51V118.51Z" fill="#6580E1" fill-opacity="0.6"/>
<path fill-rule="evenodd" clip-rule="evenodd" d="M10.9986 118.785L10.7908 117.505V92.5049L10.9986 93.7849V118.785Z" fill="#6580E1" fill-opacity="0.6"/>
<path fill-rule="evenodd" clip-rule="evenodd" d="M10.7907 117.505L10.0459 117.385V92.385L10.7907 92.505V117.505Z" fill="#6580E1" fill-opacity="0.6"/>
<path fill-rule="evenodd" clip-rule="evenodd" d="M10.0459 117.385L10.6261 116.89V91.8899L10.0459 92.3849V117.385Z" fill="#6580E1" fill-opacity="0.6"/>
<path fill-rule="evenodd" clip-rule="evenodd" d="M10.6263 116.89L9.8728 116.655V91.655L10.6263 91.89V116.89Z" fill="#6580E1" fill-opacity="0.6"/>
<path fill-rule="evenodd" clip-rule="evenodd" d="M9.8728 116.655L10.6955 116.49V91.49L9.8728 91.655V116.655Z" fill="#6580E1" fill-opacity="0.6"/>
<path fill-rule="evenodd" clip-rule="evenodd" d="M10.6954 116.49L10.1584 112.92V87.9199L10.6954 91.4899V116.49Z" fill="#6580E1" fill-opacity="0.6"/>
<path fill-rule="evenodd" clip-rule="evenodd" d="M10.1584 112.92L12.9557 111.765V86.7649L10.1584 87.9199V112.92Z" fill="#6580E1" fill-opacity="0.6"/>
<path fill-rule="evenodd" clip-rule="evenodd" d="M12.9558 111.765L11.4749 111.4V86.3999L12.9558 86.7649V111.765Z" fill="#6580E1" fill-opacity="0.6"/>
<path fill-rule="evenodd" clip-rule="evenodd" d="M11.4749 111.4L11.8299 110.845V85.845L11.4749 86.4V111.4Z" fill="#6580E1" fill-opacity="0.6"/>
<path fill-rule="evenodd" clip-rule="evenodd" d="M11.8301 110.845L12.5056 110.985V85.985L11.8301 85.845V110.845Z" fill="#6580E1" fill-opacity="0.6"/>
<path fill-rule="evenodd" clip-rule="evenodd" d="M12.5054 110.985L13.0683 110.85V85.8499L12.5054 85.9849V110.985Z" fill="#6580E1" fill-opacity="0.6"/>
<path fill-rule="evenodd" clip-rule="evenodd" d="M13.0683 110.85L11.7866 110.18V85.1799L13.0683 85.8499V110.85Z" fill="#6580E1" fill-opacity="0.6"/>
<path fill-rule="evenodd" clip-rule="evenodd" d="M11.7867 110.18L10.99 108.93V83.9299L11.7867 85.1799V110.18Z" fill="#6580E1" fill-opacity="0.6"/>
<path fill-rule="evenodd" clip-rule="evenodd" d="M10.99 108.93L11.2671 108.82V83.8198L10.99 83.9298V108.93Z" fill="#6580E1" fill-opacity="0.6"/>
<path fill-rule="evenodd" clip-rule="evenodd" d="M11.2671 108.82L11.5182 107.555V82.5549L11.2671 83.8199V108.82Z" fill="#6580E1" fill-opacity="0.6"/>
<path fill-rule="evenodd" clip-rule="evenodd" d="M11.5183 107.555L10.6003 107.095V82.095L11.5183 82.555V107.555Z" fill="#6580E1" fill-opacity="0.6"/>
<path fill-rule="evenodd" clip-rule="evenodd" d="M10.6003 107.095L9.64771 107.115V82.115L10.6003 82.095V107.095Z" fill="#6580E1" fill-opacity="0.6"/>
<path fill-rule="evenodd" clip-rule="evenodd" d="M9.64771 107.115L9.67369 106.55V81.55L9.64771 82.115V107.115Z" fill="#6580E1" fill-opacity="0.6"/>
<path fill-rule="evenodd" clip-rule="evenodd" d="M9.67358 106.55L10.3231 106.605V81.605L9.67358 81.55V106.55Z" fill="#6580E1" fill-opacity="0.6"/>
<path fill-rule="evenodd" clip-rule="evenodd" d="M10.323 106.605L10.6174 106.445V81.4448L10.323 81.6048V106.605Z" fill="#6580E1" fill-opacity="0.6"/>
<path fill-rule="evenodd" clip-rule="evenodd" d="M10.6174 106.445L10.6607 106.07V81.0698L10.6174 81.4448V106.445Z" fill="#6580E1" fill-opacity="0.6"/>
<path fill-rule="evenodd" clip-rule="evenodd" d="M10.6609 106.07L10.8947 106.085V81.0848L10.6609 81.0698V106.07Z" fill="#6580E1" fill-opacity="0.6"/>
<path fill-rule="evenodd" clip-rule="evenodd" d="M10.8948 106.085L11.1026 106.255V81.255L10.8948 81.085V106.085Z" fill="#6580E1" fill-opacity="0.6"/>
<path fill-rule="evenodd" clip-rule="evenodd" d="M11.1025 106.255L10.886 106.75V81.7499L11.1025 81.2549V106.255Z" fill="#6580E1" fill-opacity="0.6"/>
<path fill-rule="evenodd" clip-rule="evenodd" d="M10.886 106.75L12.4535 106.855V81.855L10.886 81.75V106.75Z" fill="#6580E1" fill-opacity="0.6"/>
<path fill-rule="evenodd" clip-rule="evenodd" d="M12.4536 106.855L12.4969 106.59V81.5898L12.4536 81.8548V106.855Z" fill="#6580E1" fill-opacity="0.6"/>
<path fill-rule="evenodd" clip-rule="evenodd" d="M12.4969 106.59L11.7781 106.665V81.6648L12.4969 81.5898V106.59Z" fill="#6580E1" fill-opacity="0.6"/>
<path fill-rule="evenodd" clip-rule="evenodd" d="M11.7781 106.665L12.0725 106.065V81.0649L11.7781 81.6649V106.665Z" fill="#6580E1" fill-opacity="0.6"/>
<path fill-rule="evenodd" clip-rule="evenodd" d="M12.0725 106.065L11.7607 105.965V80.9648L12.0725 81.0648V106.065Z" fill="#6580E1" fill-opacity="0.6"/>
<path fill-rule="evenodd" clip-rule="evenodd" d="M11.7607 105.965L12.1158 105.42V80.4199L11.7607 80.9649V105.965Z" fill="#6580E1" fill-opacity="0.6"/>
<path fill-rule="evenodd" clip-rule="evenodd" d="M12.1157 105.42L12.7133 105.505V80.5049L12.1157 80.4199V105.42Z" fill="#6580E1" fill-opacity="0.6"/>
<path fill-rule="evenodd" clip-rule="evenodd" d="M12.7134 105.505L14.3415 103.255V78.2549L12.7134 80.5049V105.505Z" fill="#6580E1" fill-opacity="0.6"/>
<path fill-rule="evenodd" clip-rule="evenodd" d="M14.3414 103.255L13.103 101.89V76.8899L14.3414 78.2549V103.255Z" fill="#6580E1" fill-opacity="0.6"/>
<path fill-rule="evenodd" clip-rule="evenodd" d="M13.103 101.89L14.1423 101.62V76.6199L13.103 76.8899V101.89Z" fill="#6580E1" fill-opacity="0.6"/>
<path fill-rule="evenodd" clip-rule="evenodd" d="M14.1422 101.62L13.4927 101.505V76.5049L14.1422 76.6199V101.62Z" fill="#6580E1" fill-opacity="0.6"/>
<path fill-rule="evenodd" clip-rule="evenodd" d="M13.4928 101.505L13.2849 101.215V76.2148L13.4928 76.5048V101.505Z" fill="#6580E1" fill-opacity="0.6"/>
<path fill-rule="evenodd" clip-rule="evenodd" d="M13.2849 101.215L13.6573 101.12V76.1199L13.2849 76.2149V101.215Z" fill="#6580E1" fill-opacity="0.6"/>
<path fill-rule="evenodd" clip-rule="evenodd" d="M13.6573 101.12L13.614 100.875V75.875L13.6573 76.12V101.12Z" fill="#6580E1" fill-opacity="0.6"/>
<path fill-rule="evenodd" clip-rule="evenodd" d="M13.614 100.875L13.2502 100.685V75.6848L13.614 75.8748V100.875Z" fill="#6580E1" fill-opacity="0.6"/>
<path fill-rule="evenodd" clip-rule="evenodd" d="M13.2504 100.685L12.9473 100.8V75.7998L13.2504 75.6848V100.685Z" fill="#6580E1" fill-opacity="0.6"/>
<path fill-rule="evenodd" clip-rule="evenodd" d="M12.9472 100.8L12.0552 100.235V75.2349L12.9472 75.7999V100.8Z" fill="#6580E1" fill-opacity="0.6"/>
<path fill-rule="evenodd" clip-rule="evenodd" d="M12.0552 100.235L12.2803 100.035V75.0349L12.0552 75.2349V100.235Z" fill="#6580E1" fill-opacity="0.6"/>
<path fill-rule="evenodd" clip-rule="evenodd" d="M12.2803 100.035L11.908 99.6699V74.6699L12.2803 75.0349V100.035Z" fill="#6580E1" fill-opacity="0.6"/>
<path fill-rule="evenodd" clip-rule="evenodd" d="M11.9079 99.67L11.0679 99.665V74.665L11.9079 74.67V99.67Z" fill="#6580E1" fill-opacity="0.6"/>
<path fill-rule="evenodd" clip-rule="evenodd" d="M11.068 99.6649L9.95947 98.4849V73.4849L11.068 74.6649V99.6649Z" fill="#6580E1" fill-opacity="0.6"/>
<path fill-rule="evenodd" clip-rule="evenodd" d="M9.95947 98.4849L11.6136 91.8499V66.8499L9.95947 73.4849V98.4849Z" fill="#6580E1" fill-opacity="0.6"/>
<path fill-rule="evenodd" clip-rule="evenodd" d="M11.6135 91.8499L12.8779 91.3799V66.3799L11.6135 66.8499V91.8499Z" fill="#6580E1" fill-opacity="0.6"/>
<path fill-rule="evenodd" clip-rule="evenodd" d="M12.8779 91.3798L13.8479 91.3298V66.3298L12.8779 66.3798V91.3798Z" fill="#6580E1" fill-opacity="0.6"/>
<path fill-rule="evenodd" clip-rule="evenodd" d="M13.8479 91.3298L13.9518 91.0598V66.0598L13.8479 66.3298V91.3298Z" fill="#6580E1" fill-opacity="0.6"/>
<path fill-rule="evenodd" clip-rule="evenodd" d="M13.9517 91.0599L18.9053 89.4199V64.4199L13.9517 66.0599V91.0599Z" fill="#6580E1" fill-opacity="0.6"/>
<path fill-rule="evenodd" clip-rule="evenodd" d="M18.9054 89.42L18.2905 88.355V63.355L18.9054 64.42V89.42Z" fill="#6580E1" fill-opacity="0.6"/>
<path fill-rule="evenodd" clip-rule="evenodd" d="M18.2905 88.355L18.074 88.44V63.44L18.2905 63.355V88.355Z" fill="#6580E1" fill-opacity="0.6"/>
<path fill-rule="evenodd" clip-rule="evenodd" d="M18.0741 88.44L17.1301 88.145V63.145L18.0741 63.44V88.44Z" fill="#6580E1" fill-opacity="0.6"/>
<path fill-rule="evenodd" clip-rule="evenodd" d="M17.1301 88.145L17.7623 87.51V62.51L17.1301 63.145V88.145Z" fill="#6580E1" fill-opacity="0.6"/>
<path fill-rule="evenodd" clip-rule="evenodd" d="M17.7622 87.51L17.4331 87.02V62.02L17.7622 62.51V87.51Z" fill="#6580E1" fill-opacity="0.6"/>
<path fill-rule="evenodd" clip-rule="evenodd" d="M17.4332 87.0199L14.2549 86.2249V61.2249L17.4332 62.0199V87.0199Z" fill="#6580E1" fill-opacity="0.6"/>
<path fill-rule="evenodd" clip-rule="evenodd" d="M14.2549 86.225L12.8259 84.3V59.3L14.2549 61.225V86.225Z" fill="#6580E1" fill-opacity="0.6"/>
<path fill-rule="evenodd" clip-rule="evenodd" d="M12.8259 84.3L12.1504 84.05V59.05L12.8259 59.3V84.3Z" fill="#6580E1" fill-opacity="0.6"/>
<path fill-rule="evenodd" clip-rule="evenodd" d="M12.1504 84.05L11.1804 84.15V59.15L12.1504 59.05V84.05Z" fill="#6580E1" fill-opacity="0.6"/>
<path fill-rule="evenodd" clip-rule="evenodd" d="M11.1804 84.1498L11.293 83.7148V58.7148L11.1804 59.1498V84.1498Z" fill="#6580E1" fill-opacity="0.6"/>
<path fill-rule="evenodd" clip-rule="evenodd" d="M11.293 83.7149L10.2625 83.3899V58.3899L11.293 58.7149V83.7149Z" fill="#6580E1" fill-opacity="0.6"/>
<path fill-rule="evenodd" clip-rule="evenodd" d="M10.2625 83.39L6.99756 83.125V58.125L10.2625 58.39V83.39Z" fill="#6580E1" fill-opacity="0.6"/>
<path fill-rule="evenodd" clip-rule="evenodd" d="M6.99767 83.125L6.5127 83.275V58.275L6.99767 58.125V83.125Z" fill="#6580E1" fill-opacity="0.6"/>
<path fill-rule="evenodd" clip-rule="evenodd" d="M6.51268 83.2749L5.87183 83.0549V58.0549L6.51268 58.2749V83.2749Z" fill="#6580E1" fill-opacity="0.6"/>
<path fill-rule="evenodd" clip-rule="evenodd" d="M5.87162 83.055L2.31226 82.74V57.74L5.87162 58.055V83.055Z" fill="#6580E1" fill-opacity="0.6"/>
<path fill-rule="evenodd" clip-rule="evenodd" d="M2.31229 82.7399L0 79.2849V54.2849L2.31229 57.7399V82.7399Z" fill="#6580E1" fill-opacity="0.6"/>
<path fill-rule="evenodd" clip-rule="evenodd" d="M0 79.285L3.66329 77.45V52.45L0 54.285V79.285Z" fill="#6580E1" fill-opacity="0.6"/>
<path fill-rule="evenodd" clip-rule="evenodd" d="M3.66333 77.4499L6.46059 75.3149V50.3149L3.66333 52.4499V77.4499Z" fill="#6580E1" fill-opacity="0.6"/>
<path fill-rule="evenodd" clip-rule="evenodd" d="M6.46069 75.3149L6.7638 74.3999V49.3999L6.46069 50.3149V75.3149Z" fill="#6580E1" fill-opacity="0.6"/>
<path fill-rule="evenodd" clip-rule="evenodd" d="M6.76373 74.4L6.52124 74.29V49.29L6.76373 49.4V74.4Z" fill="#6580E1" fill-opacity="0.6"/>
<path fill-rule="evenodd" clip-rule="evenodd" d="M6.52124 74.2899L6.88497 74.0999V49.0999L6.52124 49.2899V74.2899Z" fill="#6580E1" fill-opacity="0.6"/>
<path fill-rule="evenodd" clip-rule="evenodd" d="M6.88501 74.0998L7.37864 72.7148V47.7148L6.88501 49.0998V74.0998Z" fill="#6580E1" fill-opacity="0.6"/>
<path fill-rule="evenodd" clip-rule="evenodd" d="M7.37866 72.715L8.71234 72.325V47.325L7.37866 47.715V72.715Z" fill="#6580E1" fill-opacity="0.6"/>
<path fill-rule="evenodd" clip-rule="evenodd" d="M8.7124 72.325L8.93757 72.095V47.095L8.7124 47.325V72.325Z" fill="#6580E1" fill-opacity="0.6"/>
<path fill-rule="evenodd" clip-rule="evenodd" d="M8.9375 72.0949L11.397 71.5349V46.5349L8.9375 47.0949V72.0949Z" fill="#6580E1" fill-opacity="0.6"/>
<path fill-rule="evenodd" clip-rule="evenodd" d="M11.397 71.535L11.0852 70.875V45.875L11.397 46.535V71.535Z" fill="#6580E1" fill-opacity="0.6"/>
<path fill-rule="evenodd" clip-rule="evenodd" d="M11.0852 70.875L11.7607 71.395V46.395L11.0852 45.875V70.875Z" fill="#6580E1" fill-opacity="0.6"/>
<path fill-rule="evenodd" clip-rule="evenodd" d="M11.7607 71.395L15.6319 70.25V45.25L11.7607 46.395V71.395Z" fill="#6580E1" fill-opacity="0.6"/>
<path fill-rule="evenodd" clip-rule="evenodd" d="M15.6319 70.2499L11.5962 66.5999V41.5999L15.6319 45.2499V70.2499Z" fill="#6580E1" fill-opacity="0.6"/>
<path fill-rule="evenodd" clip-rule="evenodd" d="M11.5962 66.6L11.9772 66.51V41.51L11.5962 41.6V66.6Z" fill="#6580E1" fill-opacity="0.6"/>
<path fill-rule="evenodd" clip-rule="evenodd" d="M11.9773 66.51L11.5356 66.525V41.525L11.9773 41.51V66.51Z" fill="#6580E1" fill-opacity="0.6"/>
<path fill-rule="evenodd" clip-rule="evenodd" d="M11.5355 66.525L11.3276 66.355V41.355L11.5355 41.525V66.525Z" fill="#6580E1" fill-opacity="0.6"/>
<path fill-rule="evenodd" clip-rule="evenodd" d="M11.3276 66.3548L12.4708 66.2148V41.2148L11.3276 41.3548V66.3548Z" fill="#6580E1" fill-opacity="0.6"/>
<path fill-rule="evenodd" clip-rule="evenodd" d="M12.4708 66.215L12.2976 66.115V41.115L12.4708 41.215V66.215Z" fill="#6580E1" fill-opacity="0.6"/>
<path fill-rule="evenodd" clip-rule="evenodd" d="M12.2976 66.115L11.5615 66.31V41.31L12.2976 41.115V66.115Z" fill="#6580E1" fill-opacity="0.6"/>
<path fill-rule="evenodd" clip-rule="evenodd" d="M11.5615 66.3099L11.6048 65.7349V40.7349L11.5615 41.3099V66.3099Z" fill="#6580E1" fill-opacity="0.6"/>
<path fill-rule="evenodd" clip-rule="evenodd" d="M11.6047 65.735L11.2756 65.635V40.635L11.6047 40.735V65.735Z" fill="#6580E1" fill-opacity="0.6"/>
<path fill-rule="evenodd" clip-rule="evenodd" d="M11.2756 65.635L11.3449 66.005V41.005L11.2756 40.635V65.635Z" fill="#6580E1" fill-opacity="0.6"/>
<path fill-rule="evenodd" clip-rule="evenodd" d="M11.3449 66.0049L11.0938 66.1499V41.1499L11.3449 41.0049V66.0049Z" fill="#6580E1" fill-opacity="0.6"/>
<path fill-rule="evenodd" clip-rule="evenodd" d="M11.0938 66.15L9.68213 65.085V40.085L11.0938 41.15V66.15Z" fill="#6580E1" fill-opacity="0.6"/>
<path fill-rule="evenodd" clip-rule="evenodd" d="M9.68213 65.0849L9.81203 62.4099V37.4099L9.68213 40.0849V65.0849Z" fill="#6580E1" fill-opacity="0.6"/>
<path fill-rule="evenodd" clip-rule="evenodd" d="M9.81226 62.4099L14.7832 57.9099V32.9099L9.81226 37.4099V62.4099Z" fill="#6580E1" fill-opacity="0.6"/>
<path fill-rule="evenodd" clip-rule="evenodd" d="M14.7832 57.9099L15.5713 57.9249V32.9249L14.7832 32.9099V57.9099Z" fill="#6580E1" fill-opacity="0.6"/>
<path fill-rule="evenodd" clip-rule="evenodd" d="M15.5711 57.9249L15.3286 57.4849V32.4849L15.5711 32.9249V57.9249Z" fill="#6580E1" fill-opacity="0.6"/>
<path fill-rule="evenodd" clip-rule="evenodd" d="M15.3286 57.4849L18.7754 54.5349V29.5349L15.3286 32.4849V57.4849Z" fill="#6580E1" fill-opacity="0.6"/>
<path fill-rule="evenodd" clip-rule="evenodd" d="M18.7755 54.5349L18.7322 54.3699V29.3699L18.7755 29.5349V54.5349Z" fill="#6580E1" fill-opacity="0.6"/>
<path fill-rule="evenodd" clip-rule="evenodd" d="M18.7322 54.37L19.425 54.03V29.03L18.7322 29.37V54.37Z" fill="#6580E1" fill-opacity="0.6"/>
<path fill-rule="evenodd" clip-rule="evenodd" d="M19.4251 54.03L19.1306 53.46V28.46L19.4251 29.03V54.03Z" fill="#6580E1" fill-opacity="0.6"/>
<path fill-rule="evenodd" clip-rule="evenodd" d="M19.1306 53.46L19.5723 53.355V28.355L19.1306 28.46V53.46Z" fill="#6580E1" fill-opacity="0.6"/>
<path fill-rule="evenodd" clip-rule="evenodd" d="M19.5723 53.355L19.6242 53.865V28.865L19.5723 28.355V53.355Z" fill="#6580E1" fill-opacity="0.6"/>
<path fill-rule="evenodd" clip-rule="evenodd" d="M19.6243 53.8649L19.7628 53.7549V28.7549L19.6243 28.8649V53.8649Z" fill="#6580E1" fill-opacity="0.6"/>
<path fill-rule="evenodd" clip-rule="evenodd" d="M19.7627 53.7549L20.3516 53.9649V28.9649L19.7627 28.7549V53.7549Z" fill="#6580E1" fill-opacity="0.6"/>
<path fill-rule="evenodd" clip-rule="evenodd" d="M20.3516 53.965L20.9145 53.77V28.77L20.3516 28.965V53.965Z" fill="#6580E1" fill-opacity="0.6"/>
<path fill-rule="evenodd" clip-rule="evenodd" d="M20.9146 53.77L20.3604 53.85V28.85L20.9146 28.77V53.77Z" fill="#6580E1" fill-opacity="0.6"/>
<path fill-rule="evenodd" clip-rule="evenodd" d="M20.3602 53.8499L19.8926 53.6499V28.6499L20.3602 28.8499V53.8499Z" fill="#6580E1" fill-opacity="0.6"/>
<path fill-rule="evenodd" clip-rule="evenodd" d="M19.8926 53.6499L22.1529 51.7449V26.7449L19.8926 28.6499V53.6499Z" fill="#6580E1" fill-opacity="0.6"/>
<path fill-rule="evenodd" clip-rule="evenodd" d="M22.1531 51.7449L22.1704 51.5249V26.5249L22.1531 26.7449V51.7449Z" fill="#6580E1" fill-opacity="0.6"/>
<path fill-rule="evenodd" clip-rule="evenodd" d="M22.1702 51.525L21.1743 50.52V25.52L22.1702 26.525V51.525Z" fill="#6580E1" fill-opacity="0.6"/>
<path fill-rule="evenodd" clip-rule="evenodd" d="M21.1743 50.5198L20.7153 50.4548V25.4548L21.1743 25.5198V50.5198Z" fill="#6580E1" fill-opacity="0.6"/>
<path fill-rule="evenodd" clip-rule="evenodd" d="M20.7154 50.4549L18.6196 48.4749V23.4749L20.7154 25.4549V50.4549Z" fill="#6580E1" fill-opacity="0.6"/>
<path fill-rule="evenodd" clip-rule="evenodd" d="M18.6195 48.475L18.1692 47.355V22.355L18.6195 23.475V48.475Z" fill="#6580E1" fill-opacity="0.6"/>
<path fill-rule="evenodd" clip-rule="evenodd" d="M18.1692 47.3548L16.7749 46.8198V21.8198L18.1692 22.3548V47.3548Z" fill="#6580E1" fill-opacity="0.6"/>
<path fill-rule="evenodd" clip-rule="evenodd" d="M16.7749 46.82L19.2171 43.21V18.21L16.7749 21.82V46.82Z" fill="#6580E1" fill-opacity="0.6"/>
<path fill-rule="evenodd" clip-rule="evenodd" d="M19.2172 43.21L18.2905 43.535V18.535L19.2172 18.21V43.21Z" fill="#6580E1" fill-opacity="0.6"/>
<path fill-rule="evenodd" clip-rule="evenodd" d="M18.2905 43.5349L18.1606 43.4199V18.4199L18.2905 18.5349V43.5349Z" fill="#6580E1" fill-opacity="0.6"/>
<path fill-rule="evenodd" clip-rule="evenodd" d="M18.1606 43.42L18.6456 43.22V18.22L18.1606 18.42V43.42Z" fill="#6580E1" fill-opacity="0.6"/>
<path fill-rule="evenodd" clip-rule="evenodd" d="M18.6455 43.22L18.2991 43.02V18.02L18.6455 18.22V43.22Z" fill="#6580E1" fill-opacity="0.6"/>
<path fill-rule="evenodd" clip-rule="evenodd" d="M18.2991 43.0199L18.5502 42.825V17.825L18.2991 18.0199V43.0199Z" fill="#6580E1" fill-opacity="0.6"/>
<path fill-rule="evenodd" clip-rule="evenodd" d="M18.5503 42.825L19.2691 43.07V18.07L18.5503 17.825V42.825Z" fill="#6580E1" fill-opacity="0.6"/>
<path fill-rule="evenodd" clip-rule="evenodd" d="M19.269 43.07L21.5294 39.655V14.655L19.269 18.07V43.07Z" fill="#6580E1" fill-opacity="0.6"/>
<path fill-rule="evenodd" clip-rule="evenodd" d="M21.5295 39.655L24.5953 38.665V13.665L21.5295 14.655V39.655Z" fill="#6580E1" fill-opacity="0.6"/>
<path fill-rule="evenodd" clip-rule="evenodd" d="M24.5952 38.6649L25.9462 36.9949V11.9949L24.5952 13.6649V38.6649Z" fill="#6580E1" fill-opacity="0.6"/>
<path fill-rule="evenodd" clip-rule="evenodd" d="M25.9463 36.995L26.6131 36.54V11.54L25.9463 11.995V36.995Z" fill="#6580E1" fill-opacity="0.6"/>
<path fill-rule="evenodd" clip-rule="evenodd" d="M26.613 36.54L25.9028 36.91V11.91L26.613 11.54V36.54Z" fill="#6580E1" fill-opacity="0.6"/>
<path fill-rule="evenodd" clip-rule="evenodd" d="M25.9029 36.9099L25.877 35.9949V10.9949L25.9029 11.9099V36.9099Z" fill="#6580E1" fill-opacity="0.6"/>
<path fill-rule="evenodd" clip-rule="evenodd" d="M25.877 35.995L26.8816 35.645V10.645L25.877 10.995V35.995Z" fill="#6580E1" fill-opacity="0.6"/>
<path fill-rule="evenodd" clip-rule="evenodd" d="M26.8815 35.6449L26.2666 35.6399V10.6399L26.8815 10.6449V35.6449Z" fill="#6580E1" fill-opacity="0.6"/>
<path fill-rule="evenodd" clip-rule="evenodd" d="M26.2666 35.6399L25.8423 35.8549V10.8549L26.2666 10.6399V35.6399Z" fill="#6580E1" fill-opacity="0.6"/>
<path fill-rule="evenodd" clip-rule="evenodd" d="M25.8423 35.855L25.8076 34.875V9.875L25.8423 10.855V35.855Z" fill="#6580E1" fill-opacity="0.6"/>
<path fill-rule="evenodd" clip-rule="evenodd" d="M25.8076 34.875L26.2579 34.885V9.885L25.8076 9.875V34.875Z" fill="#6580E1" fill-opacity="0.6"/>
<path fill-rule="evenodd" clip-rule="evenodd" d="M26.258 34.885L25.7471 34.52V9.52002L26.258 9.88501V34.885Z" fill="#6580E1" fill-opacity="0.6"/>
<path fill-rule="evenodd" clip-rule="evenodd" d="M25.7471 34.52L25.7297 33.6899V8.68994L25.7471 9.51995V34.52Z" fill="#6580E1" fill-opacity="0.6"/>
<path fill-rule="evenodd" clip-rule="evenodd" d="M25.7297 33.6899L23.937 32.8049V7.80493L25.7297 8.68993V33.6899Z" fill="#6580E1" fill-opacity="0.6"/>
<path fill-rule="evenodd" clip-rule="evenodd" d="M23.937 32.8049L26.6736 31.0249V6.0249L23.937 7.80491V32.8049Z" fill="#6580E1" fill-opacity="0.6"/>
<path fill-rule="evenodd" clip-rule="evenodd" d="M26.6736 31.0248L33.8356 29.3499V4.34985L26.6736 6.02484V31.0248Z" fill="#6580E1" fill-opacity="0.6"/>
<path fill-rule="evenodd" clip-rule="evenodd" d="M33.8357 29.35L34.2427 28.865V3.86499L33.8357 4.34999V29.35Z" fill="#6580E1" fill-opacity="0.6"/>
<path fill-rule="evenodd" clip-rule="evenodd" d="M34.2427 28.8649L33.7837 28.6199V3.61987L34.2427 3.86488V28.8649Z" fill="#6580E1" fill-opacity="0.6"/>
<path fill-rule="evenodd" clip-rule="evenodd" d="M33.7837 28.6201L34.1041 27.925V2.92505L33.7837 3.62005V28.6201Z" fill="#6580E1" fill-opacity="0.6"/>
<path fill-rule="evenodd" clip-rule="evenodd" d="M34.1042 27.9248L39.3437 25.8398V0.839844L34.1042 2.92484V27.9248Z" fill="#6580E1" fill-opacity="0.6"/>
<path fill-rule="evenodd" clip-rule="evenodd" d="M39.3435 25.84L40.2961 25V0L39.3435 0.84V25.84Z" fill="#6580E1" fill-opacity="0.6"/>
<path fill-rule="evenodd" clip-rule="evenodd" d="M40.2961 25L41.1275 25.69V0.690005L40.2961 0V25Z" fill="#6580E1" fill-opacity="0.6"/>
<path fill-rule="evenodd" clip-rule="evenodd" d="M41.1277 25.6899L41.3269 26.3049V1.30495L41.1277 0.689941V25.6899Z" fill="#6580E1" fill-opacity="0.6"/>
<path fill-rule="evenodd" clip-rule="evenodd" d="M41.3269 26.3049L44.2627 28.1299V3.12993L41.3269 1.30493V26.3049Z" fill="#6580E1" fill-opacity="0.6"/>
<path fill-rule="evenodd" clip-rule="evenodd" d="M44.2627 28.1299L47.9 30.1299V5.12988L44.2627 3.12988V28.1299Z" fill="#6580E1" fill-opacity="0.6"/>
<path fill-rule="evenodd" clip-rule="evenodd" d="M47.8999 30.1299L49.9957 30.8899V5.88988L47.8999 5.12988V30.1299Z" fill="#6580E1" fill-opacity="0.6"/>
<path fill-rule="evenodd" clip-rule="evenodd" d="M49.9956 30.8899L51.0608 34.6749V9.67489L49.9956 5.88989V30.8899Z" fill="#6580E1" fill-opacity="0.6"/>
<path fill-rule="evenodd" clip-rule="evenodd" d="M51.0608 34.675L50.9482 35.82V10.82L51.0608 9.67505V34.675Z" fill="#6580E1" fill-opacity="0.6"/>
<path fill-rule="evenodd" clip-rule="evenodd" d="M50.9482 35.8198L51.7363 36.5148V11.5148L50.9482 10.8198V35.8198Z" fill="#6580E1" fill-opacity="0.6"/>
<path fill-rule="evenodd" clip-rule="evenodd" d="M51.7363 36.5149L54.5856 37.1099V12.1099L51.7363 11.5149V36.5149Z" fill="#6580E1" fill-opacity="0.6"/>
<path fill-rule="evenodd" clip-rule="evenodd" d="M54.5857 37.1099L56.4217 36.0999V11.0999L54.5857 12.1099V37.1099Z" fill="#6580E1" fill-opacity="0.6"/>
<path fill-rule="evenodd" clip-rule="evenodd" d="M56.4216 36.0998L57.9458 35.5798V10.5798L56.4216 11.0998V36.0998Z" fill="#6580E1" fill-opacity="0.6"/>
<path fill-rule="evenodd" clip-rule="evenodd" d="M57.9458 35.58L58.3875 35.105V10.105L57.9458 10.58V35.58Z" fill="#6580E1" fill-opacity="0.6"/>
<path fill-rule="evenodd" clip-rule="evenodd" d="M58.3875 35.105L61.4272 34.22V9.21997L58.3875 10.105V35.105Z" fill="#6580E1" fill-opacity="0.6"/>
<path fill-rule="evenodd" clip-rule="evenodd" d="M61.4272 34.2199L63.2026 34.0549V9.05493L61.4272 9.21993V34.2199Z" fill="#6580E1" fill-opacity="0.6"/>
<path fill-rule="evenodd" clip-rule="evenodd" d="M63.2026 34.0549L64.2765 34.4349V9.43493L63.2026 9.05493V34.0549Z" fill="#6580E1" fill-opacity="0.6"/>
<path fill-rule="evenodd" clip-rule="evenodd" d="M64.2764 34.4348L65.5148 37.4898V12.4898L64.2764 9.43481V34.4348Z" fill="#6580E1" fill-opacity="0.6"/>
<path fill-rule="evenodd" clip-rule="evenodd" d="M65.5149 37.49L67.3509 37.58V12.58L65.5149 12.49V37.49Z" fill="#6580E1" fill-opacity="0.6"/>
<path fill-rule="evenodd" clip-rule="evenodd" d="M67.3508 37.5798L67.4288 37.1948V12.1948L67.3508 12.5798V37.5798Z" fill="#6580E1" fill-opacity="0.6"/>
<path fill-rule="evenodd" clip-rule="evenodd" d="M67.4287 37.1948L67.5846 37.5948V12.5948L67.4287 12.1948V37.1948Z" fill="#6580E1" fill-opacity="0.6"/>
<path fill-rule="evenodd" clip-rule="evenodd" d="M67.5847 37.595L70.1568 37.74V12.74L67.5847 12.595V37.595Z" fill="#6580E1" fill-opacity="0.6"/>
<path fill-rule="evenodd" clip-rule="evenodd" d="M70.1568 37.74L69.6199 38.15V13.15L70.1568 12.74V37.74Z" fill="#6580E1" fill-opacity="0.6"/>
<path fill-rule="evenodd" clip-rule="evenodd" d="M69.6198 38.1499L69.2214 39.2699V14.2699L69.6198 13.1499V38.1499Z" fill="#6580E1" fill-opacity="0.6"/>
<path fill-rule="evenodd" clip-rule="evenodd" d="M69.2215 39.27L66.5801 40.845V15.845L69.2215 14.27V39.27Z" fill="#6580E1" fill-opacity="0.6"/>
<path fill-rule="evenodd" clip-rule="evenodd" d="M66.5802 40.845L65.6709 43.76V18.76L66.5802 15.845V40.845Z" fill="#6580E1" fill-opacity="0.6"/>
<path fill-rule="evenodd" clip-rule="evenodd" d="M65.6709 43.76L68.4422 45.74V20.74L65.6709 18.76V43.76Z" fill="#6580E1" fill-opacity="0.6"/>
<path fill-rule="evenodd" clip-rule="evenodd" d="M68.4421 45.74L69.2042 46.66V21.66L68.4421 20.74V45.74Z" fill="#6580E1" fill-opacity="0.6"/>
<path fill-rule="evenodd" clip-rule="evenodd" d="M69.2041 46.6599L72.0533 47.7049V22.7049L69.2041 21.6599V46.6599Z" fill="#6580E1" fill-opacity="0.6"/>
<path fill-rule="evenodd" clip-rule="evenodd" d="M72.0535 47.7048L73.9674 49.0798V24.0798L72.0535 22.7048V47.7048Z" fill="#6580E1" fill-opacity="0.6"/>
<path fill-rule="evenodd" clip-rule="evenodd" d="M73.9673 49.0798L78.1415 50.5298V25.5298L73.9673 24.0798V49.0798Z" fill="#6580E1" fill-opacity="0.6"/>
<path fill-rule="evenodd" clip-rule="evenodd" d="M78.1416 50.53L78.947 50.785V25.785L78.1416 25.53V50.53Z" fill="#6580E1" fill-opacity="0.6"/>
<path fill-rule="evenodd" clip-rule="evenodd" d="M78.947 50.7849L82.2552 50.9949V25.9949L78.947 25.7849V50.7849Z" fill="#6580E1" fill-opacity="0.6"/>
<path fill-rule="evenodd" clip-rule="evenodd" d="M82.2551 50.9949L83.1385 51.8649V26.8649L82.2551 25.9949V50.9949Z" fill="#6580E1" fill-opacity="0.6"/>
<path fill-rule="evenodd" clip-rule="evenodd" d="M83.1384 51.865L86.3947 52.125V27.125L83.1384 26.865V51.865Z" fill="#6580E1" fill-opacity="0.6"/>
<path fill-rule="evenodd" clip-rule="evenodd" d="M86.3948 52.1248L89.9715 50.0598V25.0598L86.3948 27.1248V52.1248Z" fill="#6580E1" fill-opacity="0.6"/>
<path fill-rule="evenodd" clip-rule="evenodd" d="M89.9714 50.0599L90.3525 49.5999V24.5999L89.9714 25.0599V50.0599Z" fill="#6580E1" fill-opacity="0.6"/>
<path fill-rule="evenodd" clip-rule="evenodd" d="M90.3525 49.6L92.3184 48.355V23.355L90.3525 24.6V49.6Z" fill="#6580E1" fill-opacity="0.6"/>
<path fill-rule="evenodd" clip-rule="evenodd" d="M92.3184 48.3549L93.1411 47.8699V22.8699L92.3184 23.3549V48.3549Z" fill="#6580E1" fill-opacity="0.6"/>
<path fill-rule="evenodd" clip-rule="evenodd" d="M93.1411 47.87L93.73 47.76V22.76L93.1411 22.87V47.87Z" fill="#6580E1" fill-opacity="0.6"/>
<path fill-rule="evenodd" clip-rule="evenodd" d="M93.73 47.76L94.5873 47.155V22.155L93.73 22.76V47.76Z" fill="#6580E1" fill-opacity="0.6"/>
<path fill-rule="evenodd" clip-rule="evenodd" d="M94.5874 47.155L97.0123 47.165V22.165L94.5874 22.155V47.155Z" fill="#6580E1" fill-opacity="0.6"/>
<path fill-rule="evenodd" clip-rule="evenodd" d="M97.0122 47.165L97.731 47.43V22.43L97.0122 22.165V47.165Z" fill="#6580E1" fill-opacity="0.6"/>
<path fill-rule="evenodd" clip-rule="evenodd" d="M97.731 47.4299L97.9648 49.1249V24.1249L97.731 22.4299V47.4299Z" fill="#6580E1" fill-opacity="0.6"/>
<path fill-rule="evenodd" clip-rule="evenodd" d="M97.9648 49.125L100.182 49.985V24.985L97.9648 24.125V49.125Z" fill="#6580E1" fill-opacity="0.6"/>
<path fill-rule="evenodd" clip-rule="evenodd" d="M100.182 49.9849L106.547 51.0599V26.0599L100.182 24.9849V49.9849Z" fill="#6580E1" fill-opacity="0.6"/>
<path fill-rule="evenodd" clip-rule="evenodd" d="M106.547 51.0598L107.257 51.6098V26.6098L106.547 26.0598V51.0598Z" fill="#6580E1" fill-opacity="0.6"/>
<path fill-rule="evenodd" clip-rule="evenodd" d="M107.257 51.6099L107.569 52.2099V27.2099L107.257 26.6099V51.6099Z" fill="#6580E1" fill-opacity="0.6"/>
<path fill-rule="evenodd" clip-rule="evenodd" d="M107.569 52.21L106.512 53.59V28.59L107.569 27.21V52.21Z" fill="#6580E1" fill-opacity="0.6"/>
<path fill-rule="evenodd" clip-rule="evenodd" d="M106.512 53.5898L106.538 55.6748V30.6748L106.512 28.5898V53.5898Z" fill="#6580E1" fill-opacity="0.6"/>
<path fill-rule="evenodd" clip-rule="evenodd" d="M106.539 55.675L107.483 55.96V30.96L106.539 30.675V55.675Z" fill="#6580E1" fill-opacity="0.6"/>
<path fill-rule="evenodd" clip-rule="evenodd" d="M107.482 55.96L109.907 57.7V32.7L107.482 30.96V55.96Z" fill="#6580E1" fill-opacity="0.6"/>
<path fill-rule="evenodd" clip-rule="evenodd" d="M109.907 57.7L112.549 58.365V33.365L109.907 32.7V57.7Z" fill="#6580E1" fill-opacity="0.6"/>
<path fill-rule="evenodd" clip-rule="evenodd" d="M112.549 58.365L113.198 58.28V33.28L112.549 33.365V58.365Z" fill="#6580E1" fill-opacity="0.6"/>
<path fill-rule="evenodd" clip-rule="evenodd" d="M113.198 58.28L114.229 58.995V33.995L113.198 33.28V58.28Z" fill="#6580E1" fill-opacity="0.6"/>
<path fill-rule="evenodd" clip-rule="evenodd" d="M114.229 58.9949L115.545 59.0749V34.0749L114.229 33.9949V58.9949Z" fill="#6580E1" fill-opacity="0.6"/>
<path fill-rule="evenodd" clip-rule="evenodd" d="M115.545 59.075L117.165 59.65V34.65L115.545 34.075V59.075Z" fill="#6580E1" fill-opacity="0.6"/>
<path fill-rule="evenodd" clip-rule="evenodd" d="M117.165 59.6499L117.537 60.0949V35.0949L117.165 34.6499V59.6499Z" fill="#6580E1" fill-opacity="0.6"/>
<path fill-rule="evenodd" clip-rule="evenodd" d="M117.537 60.095L118.299 60.325V35.325L117.537 35.095V60.095Z" fill="#6580E1" fill-opacity="0.6"/>
<path fill-rule="evenodd" clip-rule="evenodd" d="M118.299 60.325L119.988 61.66V36.66L118.299 35.325V60.325Z" fill="#6580E1" fill-opacity="0.6"/>
<path fill-rule="evenodd" clip-rule="evenodd" d="M119.988 61.6599L124.11 61.9999V36.9999L119.988 36.6599V61.6599Z" fill="#6580E1" fill-opacity="0.6"/>
<path fill-rule="evenodd" clip-rule="evenodd" d="M124.11 61.9999L125.418 61.7949V36.7949L124.11 36.9999V61.9999Z" fill="#6580E1" fill-opacity="0.6"/>
<path fill-rule="evenodd" clip-rule="evenodd" d="M125.418 61.7949L127.921 60.8999V35.8999L125.418 36.7949V61.7949Z" fill="#6580E1" fill-opacity="0.6"/>
<path fill-rule="evenodd" clip-rule="evenodd" d="M127.921 60.8999L131.186 60.4949V35.4949L127.921 35.8999V60.8999Z" fill="#6580E1" fill-opacity="0.6"/>
<path fill-rule="evenodd" clip-rule="evenodd" d="M131.186 60.4949L132.355 60.5799V35.5799L131.186 35.4949V60.4949Z" fill="#6580E1" fill-opacity="0.6"/>
<path fill-rule="evenodd" clip-rule="evenodd" d="M132.355 60.5799L135.394 60.3049V35.3049L132.355 35.5799V60.5799Z" fill="#6580E1" fill-opacity="0.6"/>
<path fill-rule="evenodd" clip-rule="evenodd" d="M135.395 60.3049L136.434 61.0749V36.0749L135.395 35.3049V60.3049Z" fill="#6580E1" fill-opacity="0.6"/>
<path fill-rule="evenodd" clip-rule="evenodd" d="M136.434 61.075L137.932 61.08V36.08L136.434 36.075V61.075Z" fill="#6580E1" fill-opacity="0.6"/>
<path fill-rule="evenodd" clip-rule="evenodd" d="M137.932 61.0798L141.032 59.8298V34.8298L137.932 36.0798V61.0798Z" fill="#6580E1" fill-opacity="0.6"/>
<path fill-rule="evenodd" clip-rule="evenodd" d="M141.032 59.8298L144.323 60.8798V35.8798L141.032 34.8298V59.8298Z" fill="#6580E1" fill-opacity="0.6"/>
<path fill-rule="evenodd" clip-rule="evenodd" d="M144.323 60.8799L144.271 62.2299V37.2299L144.323 35.8799V60.8799Z" fill="#6580E1" fill-opacity="0.6"/>
<path fill-rule="evenodd" clip-rule="evenodd" d="M144.271 62.23L148.671 63.21V38.21L144.271 37.23V62.23Z" fill="#6580E1" fill-opacity="0.6"/>
<path fill-rule="evenodd" clip-rule="evenodd" d="M148.671 63.21L151.269 63.47V38.47L148.671 38.21V63.21Z" fill="#6580E1" fill-opacity="0.6"/>
<path fill-rule="evenodd" clip-rule="evenodd" d="M151.269 63.47L153.174 64.57V39.57L151.269 38.47V63.47Z" fill="#6580E1" fill-opacity="0.6"/>
<path fill-rule="evenodd" clip-rule="evenodd" d="M153.174 64.5698L155.807 66.9298V41.9298L153.174 39.5698V64.5698Z" fill="#6580E1" fill-opacity="0.6"/>
<path fill-rule="evenodd" clip-rule="evenodd" d="M155.807 66.9299L157.686 70.5549V45.5549L155.807 41.9299V66.9299Z" fill="#6580E1" fill-opacity="0.6"/>
<path fill-rule="evenodd" clip-rule="evenodd" d="M157.686 70.5549L158.266 73.7999V48.7999L157.686 45.5549V70.5549Z" fill="#6580E1" fill-opacity="0.6"/>
<path fill-rule="evenodd" clip-rule="evenodd" d="M158.266 73.8L158.82 75.3V50.3L158.266 48.8V73.8Z" fill="#6580E1" fill-opacity="0.6"/>
<path fill-rule="evenodd" clip-rule="evenodd" d="M158.821 75.3L162.622 79.475V54.475L158.821 50.3V75.3Z" fill="#6580E1" fill-opacity="0.6"/>
<path fill-rule="evenodd" clip-rule="evenodd" d="M162.622 79.4749L160.838 82.0849V57.0849L162.622 54.4749V79.4749Z" fill="#6580E1" fill-opacity="0.6"/>
<path fill-rule="evenodd" clip-rule="evenodd" d="M160.838 82.085L158.725 86.395V61.395L160.838 57.085V82.085Z" fill="#6580E1" fill-opacity="0.6"/>
<path fill-rule="evenodd" clip-rule="evenodd" d="M158.725 86.395L156.5 88.28V63.28L158.725 61.395V86.395Z" fill="#6580E1" fill-opacity="0.6"/>
<path fill-rule="evenodd" clip-rule="evenodd" d="M156.5 88.28L156.612 91.465V66.465L156.5 63.28V88.28Z" fill="#6580E1" fill-opacity="0.6"/>
<path fill-rule="evenodd" clip-rule="evenodd" d="M156.612 91.465L152.412 90.75V65.75L156.612 66.465V91.465Z" fill="#6580E1" fill-opacity="0.6"/>
<path fill-rule="evenodd" clip-rule="evenodd" d="M152.412 90.7499L143.024 86.6699V61.6699L152.412 65.7499V90.7499Z" fill="#6580E1" fill-opacity="0.6"/>
<path fill-rule="evenodd" clip-rule="evenodd" d="M143.024 86.6699L139.023 89.6299V64.6299L143.024 61.6699V86.6699Z" fill="#6580E1" fill-opacity="0.6"/>
<path fill-rule="evenodd" clip-rule="evenodd" d="M139.023 89.6299L133.732 94.0649V69.0649L139.023 64.6299V89.6299Z" fill="#6580E1" fill-opacity="0.6"/>
<path fill-rule="evenodd" clip-rule="evenodd" d="M133.732 94.0649L126.925 98.4949V73.4949L133.732 69.0649V94.0649Z" fill="#6580E1" fill-opacity="0.6"/>
<path fill-rule="evenodd" clip-rule="evenodd" d="M126.925 98.4949L123.695 100.93V75.9299L126.925 73.4949V98.4949Z" fill="#6580E1" fill-opacity="0.6"/>
<path fill-rule="evenodd" clip-rule="evenodd" d="M123.694 100.93L110.557 105.235V80.2349L123.694 75.9299V100.93Z" fill="#6580E1" fill-opacity="0.6"/>
<path fill-rule="evenodd" clip-rule="evenodd" d="M110.557 105.235L109.63 106.56V81.5599L110.557 80.2349V105.235Z" fill="#6580E1" fill-opacity="0.6"/>
<path fill-rule="evenodd" clip-rule="evenodd" d="M109.63 106.56L110.895 106.78V81.7798L109.63 81.5598V106.56Z" fill="#6580E1" fill-opacity="0.6"/>
<path fill-rule="evenodd" clip-rule="evenodd" d="M110.895 106.78L114.099 112.24V87.24L110.895 81.78V106.78Z" fill="#6580E1" fill-opacity="0.6"/>
<path fill-rule="evenodd" clip-rule="evenodd" d="M114.099 112.24L117.087 116.715V91.715L114.099 87.24V112.24Z" fill="#6580E1" fill-opacity="0.6"/>
<path fill-rule="evenodd" clip-rule="evenodd" d="M117.087 116.715L116.203 116.785V91.7848L117.087 91.7148V116.715Z" fill="#6580E1" fill-opacity="0.6"/>
<path fill-rule="evenodd" clip-rule="evenodd" d="M116.203 116.785L112.99 116.38V91.3799L116.203 91.7849V116.785Z" fill="#6580E1" fill-opacity="0.6"/>
<path fill-rule="evenodd" clip-rule="evenodd" d="M112.99 116.38L111.336 116.755V91.7549L112.99 91.3799V116.38Z" fill="#6580E1" fill-opacity="0.6"/>
<path fill-rule="evenodd" clip-rule="evenodd" d="M111.336 116.755L109.985 116.775V91.7749L111.336 91.7549V116.755Z" fill="#6580E1" fill-opacity="0.6"/>
<path fill-rule="evenodd" clip-rule="evenodd" d="M109.985 116.775L104.174 116.08V91.0798L109.985 91.7748V116.775Z" fill="#6580E1" fill-opacity="0.6"/>
<path fill-rule="evenodd" clip-rule="evenodd" d="M104.174 116.08L95.8083 115.92V90.9199L104.174 91.0799V116.08Z" fill="#6580E1" fill-opacity="0.6"/>
<path fill-rule="evenodd" clip-rule="evenodd" d="M95.8086 115.92L95.2976 116.325V91.3249L95.8086 90.9199V115.92Z" fill="#6580E1" fill-opacity="0.6"/>
<path fill-rule="evenodd" clip-rule="evenodd" d="M95.2975 116.325L89.8762 116.615V91.615L95.2975 91.325V116.325Z" fill="#6580E1" fill-opacity="0.6"/>
<path fill-rule="evenodd" clip-rule="evenodd" d="M89.8762 116.615L87.5293 116.54V91.54L89.8762 91.615V116.615Z" fill="#6580E1" fill-opacity="0.6"/>
<path fill-rule="evenodd" clip-rule="evenodd" d="M87.5292 116.54L84.3682 117.275V92.275L87.5292 91.54V116.54Z" fill="#6580E1" fill-opacity="0.6"/>
<path fill-rule="evenodd" clip-rule="evenodd" d="M84.3682 117.275L84.1604 117.665V92.6649L84.3682 92.2749V117.275Z" fill="#6580E1" fill-opacity="0.6"/>
<path fill-rule="evenodd" clip-rule="evenodd" d="M84.1603 117.665L78.7563 118.045V93.045L84.1603 92.665V117.665Z" fill="#6580E1" fill-opacity="0.6"/>
<path fill-rule="evenodd" clip-rule="evenodd" d="M78.7565 118.045L76.8599 118.85V93.8499L78.7565 93.0449V118.045Z" fill="#6580E1" fill-opacity="0.6"/>
<path fill-rule="evenodd" clip-rule="evenodd" d="M76.8599 118.85L77.9511 119V93.9999L76.8599 93.8499V118.85Z" fill="#6580E1" fill-opacity="0.6"/>
<path fill-rule="evenodd" clip-rule="evenodd" d="M77.951 119L76.9724 119.945V94.945L77.951 94V119Z" fill="#6580E1" fill-opacity="0.6"/>
<path fill-rule="evenodd" clip-rule="evenodd" d="M76.9723 119.945L76.2275 120.125V95.1248L76.9723 94.9448V119.945Z" fill="#6580E1" fill-opacity="0.6"/>
<path fill-rule="evenodd" clip-rule="evenodd" d="M76.2277 120.125L75.5955 119.95V94.95L76.2277 95.125V120.125Z" fill="#6580E1" fill-opacity="0.6"/>
<path fill-rule="evenodd" clip-rule="evenodd" d="M75.5955 119.95L75.3184 120.04V95.04L75.5955 94.95V119.95Z" fill="#6580E1" fill-opacity="0.6"/>
<path fill-rule="evenodd" clip-rule="evenodd" d="M75.3183 120.04L75.0845 119.665V94.665L75.3183 95.04V120.04Z" fill="#6580E1" fill-opacity="0.6"/>
<path fill-rule="evenodd" clip-rule="evenodd" d="M75.0844 119.665L74.738 119.675V94.675L75.0844 94.665V119.665Z" fill="#6580E1" fill-opacity="0.6"/>
<path fill-rule="evenodd" clip-rule="evenodd" d="M74.7381 119.675L68.7971 121.355V96.355L74.7381 94.675V119.675Z" fill="#6580E1" fill-opacity="0.6"/>
<path fill-rule="evenodd" clip-rule="evenodd" d="M68.7971 121.355L64.9087 123.07V98.07L68.7971 96.355V121.355Z" fill="#6580E1" fill-opacity="0.6"/>
<path fill-rule="evenodd" clip-rule="evenodd" d="M64.9087 123.07L64.9347 123.495V98.4948L64.9087 98.0698V123.07Z" fill="#6580E1" fill-opacity="0.6"/>
<path fill-rule="evenodd" clip-rule="evenodd" d="M64.9346 123.495L64.5623 123.51V98.5099L64.9346 98.4949V123.495Z" fill="#6580E1" fill-opacity="0.6"/>
<path fill-rule="evenodd" clip-rule="evenodd" d="M64.5621 123.51L61.6003 124.87V99.87L64.5621 98.51V123.51Z" fill="#6580E1" fill-opacity="0.6"/>
<path fill-rule="evenodd" clip-rule="evenodd" d="M61.6004 124.87L55.1399 125.88V100.88L61.6004 99.8699V124.87Z" fill="#6580E1" fill-opacity="0.6"/>
<path d="M55.1398 100.88L51.2947 101.55L37.9233 94.2L36.1566 94.92L34.9441 95.03L32.7444 93.72L32.1642 93.675L28.3364 95.515L23.7291 95.675L22.941 95.35L22.8371 94.65L21.9191 94.61L22.3175 94.48L21.5814 94.295L22.0403 94.16L21.2869 93.875L21.2869 93.705L20.9405 93.795L20.9059 94.155L17.9181 93.51L10.9985 93.785L10.7907 92.505L10.0459 92.385L10.6261 91.89L9.87269 91.655L10.6954 91.49L10.1585 87.92L12.9557 86.765L11.4748 86.4L11.8299 85.845L12.5054 85.985L13.0683 85.85L11.7866 85.18L10.9899 83.93L11.267 83.82L11.5181 82.555L10.6002 82.095L9.64752 82.115L9.6735 81.55L10.323 81.605L10.6175 81.445L10.6608 81.07L10.8946 81.085L11.1024 81.255L10.8859 81.75L12.4534 81.855L12.4967 81.59L11.7779 81.665L12.0724 81.065L11.7606 80.965L12.1157 80.42L12.7133 80.505L14.3414 78.255L13.103 76.89L14.1422 76.62L13.4927 76.505L13.2848 76.215L13.6572 76.12L13.6139 75.875L13.2502 75.685L12.9471 75.8L12.0551 75.235L12.2802 75.035L11.9078 74.67L11.0678 74.665L9.95929 73.485L11.6134 66.85L12.8778 66.38L13.8477 66.33L13.9517 66.06L18.9053 64.42L18.2905 63.355L18.0739 63.44L17.13 63.145L17.7622 62.51L17.4331 62.02L14.2548 61.225L12.8258 59.3L12.1503 59.05L11.1804 59.15L11.293 58.715L10.2624 58.39L6.99749 58.125L6.51251 58.275L5.87165 58.055L2.31229 57.74L0 54.285L3.66329 52.45L6.46055 50.315L6.76366 49.4L6.52117 49.29L6.8849 49.1L7.37854 47.715L8.71222 47.325L8.93738 47.095L11.3969 46.535L11.0851 45.875L11.7606 46.395L15.6318 45.25L11.5961 41.6L11.9771 41.51L11.5355 41.525L11.3276 41.355L12.4708 41.215L12.2976 41.115L11.5614 41.31L11.6047 40.735L11.2757 40.635L11.3449 41.005L11.0938 41.15L9.68216 40.085L9.81207 37.41L14.7831 32.91L15.5711 32.925L15.3286 32.485L18.7754 29.535L18.7321 29.37L19.4249 29.03L19.1305 28.46L19.5722 28.355L19.6241 28.865L19.7627 28.755L20.3516 28.965L20.9145 28.77L20.3603 28.85L19.8926 28.65L22.1529 26.745L22.1702 26.525L21.1743 25.52L20.7153 25.455L18.6195 23.475L18.1692 22.355L16.7749 21.82L19.2171 18.21L18.2905 18.535L18.1606 18.42L18.6455 18.22L18.2991 18.02L18.5503 17.825L19.2691 18.07L21.5294 14.655L24.5951 13.665L25.9461 11.995L26.613 11.54L25.9028 11.91L25.8768 10.995L26.8814 10.645L26.2666 10.64L25.8422 10.855L25.8076 9.875L26.2579 9.885L25.747 9.52001L25.7296 8.69L23.937 7.80501L26.6736 6.025L33.8356 4.35001L34.2427 3.86501L33.7837 3.62L34.1041 2.925L39.3435 0.84L40.2962 0L41.1276 0.690005L41.3267 1.30501L44.2626 3.13L47.8999 5.13L49.9956 5.89L51.0609 9.675L50.9483 10.82L51.7364 11.515L54.5856 12.11L56.4216 11.1L57.9458 10.58L58.3874 10.105L61.4272 9.22L63.2025 9.055L64.2764 9.435L65.5148 12.49L67.3508 12.58L67.4287 12.195L67.5846 12.595L70.1567 12.74L69.6198 13.15L69.2214 14.27L66.58 15.845L65.6707 18.76L68.442 20.74L69.2041 21.66L72.0533 22.705L73.9672 24.08L78.1415 25.53L78.9469 25.785L82.2551 25.995L83.1384 26.865L86.3947 27.125L89.9714 25.06L90.3524 24.6L92.3183 23.355L93.141 22.87L93.7299 22.76L94.5873 22.155L97.0122 22.165L97.731 22.43L97.9648 24.125L100.182 24.985L106.547 26.06L107.257 26.61L107.569 27.21L106.512 28.59L106.538 30.675L107.482 30.96L109.907 32.7L112.549 33.365L113.198 33.28L114.229 33.995L115.545 34.075L117.165 34.65L117.537 35.095L118.299 35.325L119.988 36.66L124.11 37L125.418 36.795L127.921 35.9L131.186 35.495L132.355 35.58L135.394 35.305L136.434 36.075L137.932 36.08L141.032 34.83L144.323 35.88L144.271 37.23L148.671 38.21L151.269 38.47L153.174 39.57L155.807 41.93L157.686 45.555L158.266 48.8L158.82 50.3L162.622 54.475L160.838 57.085L158.725 61.395L156.499 63.28L156.612 66.465L152.412 65.75L143.024 61.67L139.023 64.63L133.732 69.065L126.925 73.495L123.694 75.93L110.557 80.235L109.63 81.56L110.895 81.78L114.099 87.24L117.087 91.715L116.203 91.785L112.99 91.38L111.336 91.755L109.985 91.775L104.174 91.08L95.8084 90.92L95.2974 91.325L89.8761 91.615L87.5292 91.54L84.3682 92.275L84.1603 92.665L78.7563 93.045L76.8598 93.85L77.9509 94L76.9723 94.945L76.2276 95.125L75.5954 94.95L75.3182 95.04L75.0844 94.665L74.738 94.675L68.7971 96.355L64.9086 98.07L64.9346 98.495L64.5622 98.51L61.6004 99.87L55.1398 100.88Z" fill="white"/>
</svg>
