<svg width="73" height="69" viewBox="0 0 73 69" fill="none" xmlns="http://www.w3.org/2000/svg">
<path fill-rule="evenodd" clip-rule="evenodd" d="M26.4524 0.842765L26.6223 0.506104L25.9243 15.1243L25.7544 15.4609L26.4524 0.842765Z" fill="#6580E1" fill-opacity="0.6"/>
<path fill-rule="evenodd" clip-rule="evenodd" d="M26.6223 0.506104L27.112 0.641386L26.414 15.2595L25.9243 15.1243L26.6223 0.506104Z" fill="#6580E1" fill-opacity="0.6"/>
<path fill-rule="evenodd" clip-rule="evenodd" d="M27.1118 0.641282V0.395752L26.4138 15.0139V15.2594L27.1118 0.641282Z" fill="#6580E1" fill-opacity="0.6"/>
<path fill-rule="evenodd" clip-rule="evenodd" d="M27.1118 0.395787L27.7414 0.207275L27.0434 14.8254L26.4138 15.014L27.1118 0.395787Z" fill="#6580E1" fill-opacity="0.6"/>
<path fill-rule="evenodd" clip-rule="evenodd" d="M27.7416 0.207165L27.7017 0.0356445L27.0037 14.6538L27.0436 14.8253L27.7416 0.207165Z" fill="#6580E1" fill-opacity="0.6"/>
<path fill-rule="evenodd" clip-rule="evenodd" d="M27.7017 0.0357486L28.1714 0L27.4734 14.6182L27.0037 14.6539L27.7017 0.0357486Z" fill="#6580E1" fill-opacity="0.6"/>
<path fill-rule="evenodd" clip-rule="evenodd" d="M28.1711 0L28.2611 0.384215L27.5631 15.0024L27.4731 14.6182L28.1711 0Z" fill="#6580E1" fill-opacity="0.6"/>
<path fill-rule="evenodd" clip-rule="evenodd" d="M28.2612 0.384132L28.4811 0.328369L27.7831 14.9465L27.5632 15.0023L28.2612 0.384132Z" fill="#6580E1" fill-opacity="0.6"/>
<path fill-rule="evenodd" clip-rule="evenodd" d="M28.4809 0.328369L29.2705 1.58978L28.5725 16.2079L27.783 14.9465L28.4809 0.328369Z" fill="#6580E1" fill-opacity="0.6"/>
<path fill-rule="evenodd" clip-rule="evenodd" d="M29.2707 1.58997L28.751 1.37891L28.053 15.9971L28.5727 16.2081L29.2707 1.58997Z" fill="#6580E1" fill-opacity="0.6"/>
<path fill-rule="evenodd" clip-rule="evenodd" d="M28.7509 1.37871L28.3811 0.796387L27.6831 15.4146L28.0529 15.9969L28.7509 1.37871Z" fill="#6580E1" fill-opacity="0.6"/>
<path fill-rule="evenodd" clip-rule="evenodd" d="M28.3812 0.796387L28.1514 1.02922L27.4534 15.6474L27.6832 15.4146L28.3812 0.796387Z" fill="#6580E1" fill-opacity="0.6"/>
<path fill-rule="evenodd" clip-rule="evenodd" d="M28.1514 1.02933L28.0115 0.759766L27.3135 15.3779L27.4534 15.6475L28.1514 1.02933Z" fill="#6580E1" fill-opacity="0.6"/>
<path fill-rule="evenodd" clip-rule="evenodd" d="M28.0113 0.759768L27.7815 0.74707L27.0835 15.3652L27.3134 15.3779L28.0113 0.759768Z" fill="#6580E1" fill-opacity="0.6"/>
<path fill-rule="evenodd" clip-rule="evenodd" d="M27.7815 0.74707L27.6316 1.11835L26.9336 15.7365L27.0835 15.3652L27.7815 0.74707Z" fill="#6580E1" fill-opacity="0.6"/>
<path fill-rule="evenodd" clip-rule="evenodd" d="M27.6315 1.11825L26.9619 1.02612L26.2639 15.6443L26.9335 15.7364L27.6315 1.11825Z" fill="#6580E1" fill-opacity="0.6"/>
<path fill-rule="evenodd" clip-rule="evenodd" d="M26.962 1.02612L26.8821 1.20141L26.1841 15.8196L26.264 15.6443L26.962 1.02612Z" fill="#6580E1" fill-opacity="0.6"/>
<path fill-rule="evenodd" clip-rule="evenodd" d="M26.8821 1.20157L26.4524 0.842773L25.7544 15.4609L26.1841 15.8197L26.8821 1.20157Z" fill="#6580E1" fill-opacity="0.6"/>
<path fill-rule="evenodd" clip-rule="evenodd" d="M26.4524 0.842773V0.842773L25.7544 15.4609V15.4609L26.4524 0.842773Z" fill="#6580E1" fill-opacity="0.6"/>
<path fill-rule="evenodd" clip-rule="evenodd" d="M1.13772 13.3179L0.69799 13.5317L0 28.1499L0.439727 27.936L1.13772 13.3179Z" fill="#6580E1" fill-opacity="0.6"/>
<path fill-rule="evenodd" clip-rule="evenodd" d="M0.69799 13.5317L0.72797 13.8258L0.0299805 28.4439L0 28.1499L0.69799 13.5317Z" fill="#6580E1" fill-opacity="0.6"/>
<path fill-rule="evenodd" clip-rule="evenodd" d="M0.728019 13.8257L1.03783 13.8268L0.339838 28.4449L0.0300293 28.4438L0.728019 13.8257Z" fill="#6580E1" fill-opacity="0.6"/>
<path fill-rule="evenodd" clip-rule="evenodd" d="M1.03783 13.8267L1.15776 14.0343L0.459774 28.6525L0.339844 28.4448L1.03783 13.8267Z" fill="#6580E1" fill-opacity="0.6"/>
<path fill-rule="evenodd" clip-rule="evenodd" d="M1.15771 14.0345L1.30762 13.8132L0.609627 28.4314L0.459717 28.6526L1.15771 14.0345Z" fill="#6580E1" fill-opacity="0.6"/>
<path fill-rule="evenodd" clip-rule="evenodd" d="M1.30761 13.8132L1.6474 13.9174L0.949408 28.5356L0.609619 28.4314L1.30761 13.8132Z" fill="#6580E1" fill-opacity="0.6"/>
<path fill-rule="evenodd" clip-rule="evenodd" d="M1.64745 13.9175L1.65745 13.4949L0.959459 28.113L0.949463 28.5356L1.64745 13.9175Z" fill="#6580E1" fill-opacity="0.6"/>
<path fill-rule="evenodd" clip-rule="evenodd" d="M1.65737 13.4948L1.13769 13.3179L0.439697 27.936L0.959385 28.113L1.65737 13.4948Z" fill="#6580E1" fill-opacity="0.6"/>
<path fill-rule="evenodd" clip-rule="evenodd" d="M1.13769 13.3179V13.3179L0.439697 27.936V27.936L1.13769 13.3179Z" fill="#6580E1" fill-opacity="0.6"/>
<path fill-rule="evenodd" clip-rule="evenodd" d="M6.71441 18.7185L6.13476 18.3081L5.43677 32.9263L6.01642 33.3366L6.71441 18.7185Z" fill="#6580E1" fill-opacity="0.6"/>
<path fill-rule="evenodd" clip-rule="evenodd" d="M6.13478 18.308L5.84496 18.2256L5.14697 32.8438L5.43679 32.9262L6.13478 18.308Z" fill="#6580E1" fill-opacity="0.6"/>
<path fill-rule="evenodd" clip-rule="evenodd" d="M5.84477 18.2256L5.72485 18.3521L5.02686 32.9703L5.14678 32.8438L5.84477 18.2256Z" fill="#6580E1" fill-opacity="0.6"/>
<path fill-rule="evenodd" clip-rule="evenodd" d="M5.72495 18.3523L5.4851 18.1211L4.78711 32.7393L5.02696 32.9704L5.72495 18.3523Z" fill="#6580E1" fill-opacity="0.6"/>
<path fill-rule="evenodd" clip-rule="evenodd" d="M5.4851 18.1209L5.91484 18.0364L5.21685 32.6545L4.78711 32.739L5.4851 18.1209Z" fill="#6580E1" fill-opacity="0.6"/>
<path fill-rule="evenodd" clip-rule="evenodd" d="M5.91479 18.0364L6.31454 18.1489L5.61655 32.767L5.2168 32.6545L5.91479 18.0364Z" fill="#6580E1" fill-opacity="0.6"/>
<path fill-rule="evenodd" clip-rule="evenodd" d="M6.31469 18.149L6.40463 18.0149L5.70664 32.6331L5.6167 32.7672L6.31469 18.149Z" fill="#6580E1" fill-opacity="0.6"/>
<path fill-rule="evenodd" clip-rule="evenodd" d="M6.40458 18.0148L5.97485 17.7788L5.27686 32.397L5.70659 32.633L6.40458 18.0148Z" fill="#6580E1" fill-opacity="0.6"/>
<path fill-rule="evenodd" clip-rule="evenodd" d="M5.97485 17.7788L6.24468 17.6902L5.54669 32.3083L5.27686 32.3969L5.97485 17.7788Z" fill="#6580E1" fill-opacity="0.6"/>
<path fill-rule="evenodd" clip-rule="evenodd" d="M6.24471 17.6902L5.99486 17.2678L5.29688 31.886L5.54672 32.3084L6.24471 17.6902Z" fill="#6580E1" fill-opacity="0.6"/>
<path fill-rule="evenodd" clip-rule="evenodd" d="M5.99486 17.2679L6.36464 17.0591L5.66665 31.6772L5.29688 31.886L5.99486 17.2679Z" fill="#6580E1" fill-opacity="0.6"/>
<path fill-rule="evenodd" clip-rule="evenodd" d="M6.3646 17.0591L5.66503 16.3115L4.96704 30.9297L5.66661 31.6773L6.3646 17.0591Z" fill="#6580E1" fill-opacity="0.6"/>
<path fill-rule="evenodd" clip-rule="evenodd" d="M5.66503 16.3115L6.48453 16.5166L5.78654 31.1348L4.96704 30.9297L5.66503 16.3115Z" fill="#6580E1" fill-opacity="0.6"/>
<path fill-rule="evenodd" clip-rule="evenodd" d="M6.48436 16.5165L6.17455 15.8948L5.47656 30.5129L5.78637 31.1347L6.48436 16.5165Z" fill="#6580E1" fill-opacity="0.6"/>
<path fill-rule="evenodd" clip-rule="evenodd" d="M6.17465 15.8948L5.77489 16.0619L5.0769 30.68L5.47666 30.5129L6.17465 15.8948Z" fill="#6580E1" fill-opacity="0.6"/>
<path fill-rule="evenodd" clip-rule="evenodd" d="M5.77489 16.0619L5.82486 15.729L5.12687 30.3472L5.0769 30.6801L5.77489 16.0619Z" fill="#6580E1" fill-opacity="0.6"/>
<path fill-rule="evenodd" clip-rule="evenodd" d="M5.82491 15.7291L5.49511 15.7139L4.79712 30.332L5.12692 30.3473L5.82491 15.7291Z" fill="#6580E1" fill-opacity="0.6"/>
<path fill-rule="evenodd" clip-rule="evenodd" d="M5.49511 15.7138L5.58505 15.0068L4.88706 29.625L4.79712 30.332L5.49511 15.7138Z" fill="#6580E1" fill-opacity="0.6"/>
<path fill-rule="evenodd" clip-rule="evenodd" d="M5.58508 15.0068L4.8955 15.0847L4.19751 29.7029L4.88709 29.625L5.58508 15.0068Z" fill="#6580E1" fill-opacity="0.6"/>
<path fill-rule="evenodd" clip-rule="evenodd" d="M4.89549 15.0847L4.88549 14.8799L4.1875 29.498L4.1975 29.7029L4.89549 15.0847Z" fill="#6580E1" fill-opacity="0.6"/>
<path fill-rule="evenodd" clip-rule="evenodd" d="M4.88546 14.8797L4.10595 14.7371L3.40796 29.3552L4.18747 29.4979L4.88546 14.8797Z" fill="#6580E1" fill-opacity="0.6"/>
<path fill-rule="evenodd" clip-rule="evenodd" d="M4.10599 14.7371L2.74682 14.8797L2.04883 29.4978L3.408 29.3552L4.10599 14.7371Z" fill="#6580E1" fill-opacity="0.6"/>
<path fill-rule="evenodd" clip-rule="evenodd" d="M2.74685 14.8797L2.45702 14.3267L1.75903 28.9448L2.04886 29.4978L2.74685 14.8797Z" fill="#6580E1" fill-opacity="0.6"/>
<path fill-rule="evenodd" clip-rule="evenodd" d="M2.45694 14.3267L2.09716 14.2698L1.39917 28.8879L1.75895 28.9449L2.45694 14.3267Z" fill="#6580E1" fill-opacity="0.6"/>
<path fill-rule="evenodd" clip-rule="evenodd" d="M2.09704 14.2698L1.86718 14.3594L1.16919 28.9775L1.39905 28.8879L2.09704 14.2698Z" fill="#6580E1" fill-opacity="0.6"/>
<path fill-rule="evenodd" clip-rule="evenodd" d="M1.86718 14.3594L1.98711 14.5466L1.28912 29.1647L1.16919 28.9775L1.86718 14.3594Z" fill="#6580E1" fill-opacity="0.6"/>
<path fill-rule="evenodd" clip-rule="evenodd" d="M1.98716 14.5466L1.74731 14.5882L1.04932 29.2064L1.28917 29.1648L1.98716 14.5466Z" fill="#6580E1" fill-opacity="0.6"/>
<path fill-rule="evenodd" clip-rule="evenodd" d="M1.74731 14.5884L2.19703 14.8999L1.49904 29.5181L1.04932 29.2065L1.74731 14.5884Z" fill="#6580E1" fill-opacity="0.6"/>
<path fill-rule="evenodd" clip-rule="evenodd" d="M2.19711 14.8999L1.79736 15.0875L1.09937 29.7056L1.49912 29.5181L2.19711 14.8999Z" fill="#6580E1" fill-opacity="0.6"/>
<path fill-rule="evenodd" clip-rule="evenodd" d="M1.79745 15.0874L1.5476 14.9514L0.849609 29.5696L1.09946 29.7055L1.79745 15.0874Z" fill="#6580E1" fill-opacity="0.6"/>
<path fill-rule="evenodd" clip-rule="evenodd" d="M1.5475 14.9514L1.48754 15.1272L0.789551 29.7454L0.849511 29.5696L1.5475 14.9514Z" fill="#6580E1" fill-opacity="0.6"/>
<path fill-rule="evenodd" clip-rule="evenodd" d="M1.48754 15.1272L1.96725 15.194L1.26926 29.8122L0.789551 29.7454L1.48754 15.1272Z" fill="#6580E1" fill-opacity="0.6"/>
<path fill-rule="evenodd" clip-rule="evenodd" d="M1.96728 15.1941L2.0972 15.9476L1.39921 30.5658L1.26929 29.8123L1.96728 15.1941Z" fill="#6580E1" fill-opacity="0.6"/>
<path fill-rule="evenodd" clip-rule="evenodd" d="M2.09716 15.9475L3.62623 16.4299L2.92824 31.048L1.39917 30.5657L2.09716 15.9475Z" fill="#6580E1" fill-opacity="0.6"/>
<path fill-rule="evenodd" clip-rule="evenodd" d="M3.62621 16.43L4.15589 16.2866L3.4579 30.9048L2.92822 31.0481L3.62621 16.43Z" fill="#6580E1" fill-opacity="0.6"/>
<path fill-rule="evenodd" clip-rule="evenodd" d="M4.156 16.2866L4.57574 16.7679L3.87775 31.3861L3.45801 30.9048L4.156 16.2866Z" fill="#6580E1" fill-opacity="0.6"/>
<path fill-rule="evenodd" clip-rule="evenodd" d="M4.57568 16.7678L4.59566 16.9934L3.89767 31.6116L3.87769 31.386L4.57568 16.7678Z" fill="#6580E1" fill-opacity="0.6"/>
<path fill-rule="evenodd" clip-rule="evenodd" d="M4.59571 16.9934L3.83617 16.9263L3.13818 31.5444L3.89772 31.6116L4.59571 16.9934Z" fill="#6580E1" fill-opacity="0.6"/>
<path fill-rule="evenodd" clip-rule="evenodd" d="M3.83617 16.9263L3.84617 17.1652L3.14818 31.7834L3.13818 31.5444L3.83617 16.9263Z" fill="#6580E1" fill-opacity="0.6"/>
<path fill-rule="evenodd" clip-rule="evenodd" d="M3.84618 17.1653L4.32589 17.6004L3.6279 32.2185L3.14819 31.7834L3.84618 17.1653Z" fill="#6580E1" fill-opacity="0.6"/>
<path fill-rule="evenodd" clip-rule="evenodd" d="M4.32576 17.6003L4.22582 17.7751L3.52783 32.3933L3.62777 32.2185L4.32576 17.6003Z" fill="#6580E1" fill-opacity="0.6"/>
<path fill-rule="evenodd" clip-rule="evenodd" d="M4.22574 17.7751L3.40624 17.802L2.70825 32.4201L3.52775 32.3933L4.22574 17.7751Z" fill="#6580E1" fill-opacity="0.6"/>
<path fill-rule="evenodd" clip-rule="evenodd" d="M3.40624 17.8019V17.5564L2.70825 32.1746V32.4201L3.40624 17.8019Z" fill="#6580E1" fill-opacity="0.6"/>
<path fill-rule="evenodd" clip-rule="evenodd" d="M3.40624 17.5564L3.73604 17.5921L3.03805 32.2103L2.70825 32.1746L3.40624 17.5564Z" fill="#6580E1" fill-opacity="0.6"/>
<path fill-rule="evenodd" clip-rule="evenodd" d="M3.7362 17.5921L3.50634 17.2861L2.80835 31.9043L3.03821 32.2102L3.7362 17.5921Z" fill="#6580E1" fill-opacity="0.6"/>
<path fill-rule="evenodd" clip-rule="evenodd" d="M3.5064 17.2861L3.23656 17.3065L2.53857 31.9247L2.80841 31.9043L3.5064 17.2861Z" fill="#6580E1" fill-opacity="0.6"/>
<path fill-rule="evenodd" clip-rule="evenodd" d="M3.23656 17.3066L3.42645 17.9321L2.72846 32.5503L2.53857 31.9248L3.23656 17.3066Z" fill="#6580E1" fill-opacity="0.6"/>
<path fill-rule="evenodd" clip-rule="evenodd" d="M3.42628 17.9321L3.28637 18.0445L2.58838 32.6627L2.72829 32.5503L3.42628 17.9321Z" fill="#6580E1" fill-opacity="0.6"/>
<path fill-rule="evenodd" clip-rule="evenodd" d="M3.28637 18.0444L3.78606 18.8415L3.08807 33.4597L2.58838 32.6626L3.28637 18.0444Z" fill="#6580E1" fill-opacity="0.6"/>
<path fill-rule="evenodd" clip-rule="evenodd" d="M3.78618 18.8416L3.51635 19.2984L2.81836 33.9166L3.08819 33.4597L3.78618 18.8416Z" fill="#6580E1" fill-opacity="0.6"/>
<path fill-rule="evenodd" clip-rule="evenodd" d="M3.51635 19.2984L3.67625 19.0842L2.97826 33.7024L2.81836 33.9165L3.51635 19.2984Z" fill="#6580E1" fill-opacity="0.6"/>
<path fill-rule="evenodd" clip-rule="evenodd" d="M3.67621 19.0842L3.63622 19.6834L2.93823 34.3015L2.97822 33.7024L3.67621 19.0842Z" fill="#6580E1" fill-opacity="0.6"/>
<path fill-rule="evenodd" clip-rule="evenodd" d="M3.63622 19.6833L4.92545 20.6984L4.22746 35.3165L2.93823 34.3015L3.63622 19.6833Z" fill="#6580E1" fill-opacity="0.6"/>
<path fill-rule="evenodd" clip-rule="evenodd" d="M4.92553 20.6982L5.25533 21.0954L4.55734 35.7136L4.22754 35.3164L4.92553 20.6982Z" fill="#6580E1" fill-opacity="0.6"/>
<path fill-rule="evenodd" clip-rule="evenodd" d="M5.25528 21.0955L5.20531 20.6509L4.50732 35.269L4.55729 35.7136L5.25528 21.0955Z" fill="#6580E1" fill-opacity="0.6"/>
<path fill-rule="evenodd" clip-rule="evenodd" d="M5.20531 20.651L6.15474 20.4434L5.45675 35.0615L4.50732 35.2692L5.20531 20.651Z" fill="#6580E1" fill-opacity="0.6"/>
<path fill-rule="evenodd" clip-rule="evenodd" d="M6.15478 20.4434L6.29469 20.6038L5.5967 35.222L5.45679 35.0615L6.15478 20.4434Z" fill="#6580E1" fill-opacity="0.6"/>
<path fill-rule="evenodd" clip-rule="evenodd" d="M6.29467 20.6037L7.07419 20.4395L6.3762 35.0576L5.59668 35.2218L6.29467 20.6037Z" fill="#6580E1" fill-opacity="0.6"/>
<path fill-rule="evenodd" clip-rule="evenodd" d="M7.07421 20.4395L7.0942 20.1672L6.39621 34.7854L6.37622 35.0577L7.07421 20.4395Z" fill="#6580E1" fill-opacity="0.6"/>
<path fill-rule="evenodd" clip-rule="evenodd" d="M7.09399 20.1671L7.25389 19.2573L6.5559 33.8755L6.396 34.7853L7.09399 20.1671Z" fill="#6580E1" fill-opacity="0.6"/>
<path fill-rule="evenodd" clip-rule="evenodd" d="M7.25405 19.2574L7.04418 18.7473L6.34619 33.3655L6.55606 33.8755L7.25405 19.2574Z" fill="#6580E1" fill-opacity="0.6"/>
<path fill-rule="evenodd" clip-rule="evenodd" d="M7.04415 18.7474L6.71435 18.7185L6.01636 33.3367L6.34616 33.3656L7.04415 18.7474Z" fill="#6580E1" fill-opacity="0.6"/>
<path fill-rule="evenodd" clip-rule="evenodd" d="M6.71435 18.7185V18.7185L6.01636 33.3367V33.3367L6.71435 18.7185Z" fill="#6580E1" fill-opacity="0.6"/>
<path fill-rule="evenodd" clip-rule="evenodd" d="M29.4805 1.99756L29.5604 2.14965L28.8624 16.7678L28.7825 16.6157L29.4805 1.99756Z" fill="#6580E1" fill-opacity="0.6"/>
<path fill-rule="evenodd" clip-rule="evenodd" d="M29.5604 2.14966L29.0207 2.21771L28.3228 16.8359L28.8624 16.7678L29.5604 2.14966Z" fill="#6580E1" fill-opacity="0.6"/>
<path fill-rule="evenodd" clip-rule="evenodd" d="M29.0207 2.21777L29.0907 2.62194L28.3927 17.2401L28.3228 16.8359L29.0207 2.21777Z" fill="#6580E1" fill-opacity="0.6"/>
<path fill-rule="evenodd" clip-rule="evenodd" d="M29.0906 2.62183L28.9607 2.79583L28.2627 17.414L28.3926 17.24L29.0906 2.62183Z" fill="#6580E1" fill-opacity="0.6"/>
<path fill-rule="evenodd" clip-rule="evenodd" d="M28.9607 2.79585L28.8208 2.70361L28.1228 17.3218L28.2627 17.414L28.9607 2.79585Z" fill="#6580E1" fill-opacity="0.6"/>
<path fill-rule="evenodd" clip-rule="evenodd" d="M28.8209 2.70361L28.6111 3.15519L27.9131 17.7733L28.123 17.3218L28.8209 2.70361Z" fill="#6580E1" fill-opacity="0.6"/>
<path fill-rule="evenodd" clip-rule="evenodd" d="M28.6109 3.15527L28.3411 3.17566L27.6431 17.7938L27.9129 17.7734L28.6109 3.15527Z" fill="#6580E1" fill-opacity="0.6"/>
<path fill-rule="evenodd" clip-rule="evenodd" d="M28.3412 3.17554L28.2913 3.56301L27.5933 18.1812L27.6432 17.7937L28.3412 3.17554Z" fill="#6580E1" fill-opacity="0.6"/>
<path fill-rule="evenodd" clip-rule="evenodd" d="M28.2911 3.56314L27.6116 3.08203L26.9136 17.7002L27.5932 18.1813L28.2911 3.56314Z" fill="#6580E1" fill-opacity="0.6"/>
<path fill-rule="evenodd" clip-rule="evenodd" d="M27.6117 3.08203L27.5417 3.24392L26.8438 17.8621L26.9137 17.7002L27.6117 3.08203Z" fill="#6580E1" fill-opacity="0.6"/>
<path fill-rule="evenodd" clip-rule="evenodd" d="M27.5417 3.2439L28.0614 3.59817L27.3634 18.2163L26.8438 17.8621L27.5417 3.2439Z" fill="#6580E1" fill-opacity="0.6"/>
<path fill-rule="evenodd" clip-rule="evenodd" d="M28.0613 3.59814L27.9014 3.95552L27.2034 18.5737L27.3633 18.2163L28.0613 3.59814Z" fill="#6580E1" fill-opacity="0.6"/>
<path fill-rule="evenodd" clip-rule="evenodd" d="M27.9013 3.95557L27.7114 3.96435L27.0134 18.5825L27.2033 18.5737L27.9013 3.95557Z" fill="#6580E1" fill-opacity="0.6"/>
<path fill-rule="evenodd" clip-rule="evenodd" d="M27.7114 3.96436L27.9912 4.42162L27.2933 19.0398L27.0134 18.5825L27.7114 3.96436Z" fill="#6580E1" fill-opacity="0.6"/>
<path fill-rule="evenodd" clip-rule="evenodd" d="M27.9913 4.42163L27.4617 4.48314L26.7637 19.1013L27.2933 19.0398L27.9913 4.42163Z" fill="#6580E1" fill-opacity="0.6"/>
<path fill-rule="evenodd" clip-rule="evenodd" d="M27.4618 4.48317L26.7522 3.91943L26.0542 18.5376L26.7638 19.1013L27.4618 4.48317Z" fill="#6580E1" fill-opacity="0.6"/>
<path fill-rule="evenodd" clip-rule="evenodd" d="M26.752 3.91943L26.3323 3.97009L25.6343 18.5883L26.054 18.5376L26.752 3.91943Z" fill="#6580E1" fill-opacity="0.6"/>
<path fill-rule="evenodd" clip-rule="evenodd" d="M26.3323 3.96997L26.3423 4.25668L25.6443 18.8748L25.6343 18.5881L26.3323 3.96997Z" fill="#6580E1" fill-opacity="0.6"/>
<path fill-rule="evenodd" clip-rule="evenodd" d="M26.3423 4.25674L26.2124 4.15112L25.5144 18.7693L25.6443 18.8749L26.3423 4.25674Z" fill="#6580E1" fill-opacity="0.6"/>
<path fill-rule="evenodd" clip-rule="evenodd" d="M26.2124 4.15112L26.0925 4.32537L25.3945 18.9435L25.5145 18.7693L26.2124 4.15112Z" fill="#6580E1" fill-opacity="0.6"/>
<path fill-rule="evenodd" clip-rule="evenodd" d="M26.0925 4.3252L26.6322 5.10964L25.9342 19.7278L25.3945 18.9434L26.0925 4.3252Z" fill="#6580E1" fill-opacity="0.6"/>
<path fill-rule="evenodd" clip-rule="evenodd" d="M26.6322 5.10986L26.4023 5.67686L25.7043 20.295L25.9342 19.728L26.6322 5.10986Z" fill="#6580E1" fill-opacity="0.6"/>
<path fill-rule="evenodd" clip-rule="evenodd" d="M26.4024 5.67669L26.1526 5.62939L25.4546 20.2476L25.7044 20.2949L26.4024 5.67669Z" fill="#6580E1" fill-opacity="0.6"/>
<path fill-rule="evenodd" clip-rule="evenodd" d="M26.1526 5.62939L26.7322 6.00566L26.0342 20.6238L25.4546 20.2476L26.1526 5.62939Z" fill="#6580E1" fill-opacity="0.6"/>
<path fill-rule="evenodd" clip-rule="evenodd" d="M26.7321 6.00571L26.5422 5.6394L25.8442 20.2576L26.0341 20.6239L26.7321 6.00571Z" fill="#6580E1" fill-opacity="0.6"/>
<path fill-rule="evenodd" clip-rule="evenodd" d="M26.5422 5.63937L26.6721 5.48584L25.9742 20.104L25.8442 20.2575L26.5422 5.63937Z" fill="#6580E1" fill-opacity="0.6"/>
<path fill-rule="evenodd" clip-rule="evenodd" d="M26.6721 5.48584L27.6515 6.5202L26.9535 21.1384L25.9741 20.104L26.6721 5.48584Z" fill="#6580E1" fill-opacity="0.6"/>
<path fill-rule="evenodd" clip-rule="evenodd" d="M27.6515 6.52026L27.4116 7.22342L26.7136 21.8416L26.9535 21.1384L27.6515 6.52026Z" fill="#6580E1" fill-opacity="0.6"/>
<path fill-rule="evenodd" clip-rule="evenodd" d="M27.4117 7.22339L27.1619 7.35341L26.4639 21.9716L26.7137 21.8416L27.4117 7.22339Z" fill="#6580E1" fill-opacity="0.6"/>
<path fill-rule="evenodd" clip-rule="evenodd" d="M27.1619 7.35352L27.2918 7.97745L26.5938 22.5956L26.4639 21.9717L27.1619 7.35352Z" fill="#6580E1" fill-opacity="0.6"/>
<path fill-rule="evenodd" clip-rule="evenodd" d="M27.2918 7.97729L26.7122 8.07843L26.0142 22.6966L26.5938 22.5955L27.2918 7.97729Z" fill="#6580E1" fill-opacity="0.6"/>
<path fill-rule="evenodd" clip-rule="evenodd" d="M26.7122 8.07847L26.7521 7.82715L26.0541 22.4453L26.0142 22.6966L26.7122 8.07847Z" fill="#6580E1" fill-opacity="0.6"/>
<path fill-rule="evenodd" clip-rule="evenodd" d="M26.752 7.82713L26.3423 7.40747L25.6443 22.0256L26.054 22.4453L26.752 7.82713Z" fill="#6580E1" fill-opacity="0.6"/>
<path fill-rule="evenodd" clip-rule="evenodd" d="M26.3424 7.40747L26.1226 7.45642L25.4246 22.0746L25.6444 22.0256L26.3424 7.40747Z" fill="#6580E1" fill-opacity="0.6"/>
<path fill-rule="evenodd" clip-rule="evenodd" d="M26.1226 7.45654L26.4823 7.71807L25.7843 22.3362L25.4246 22.0747L26.1226 7.45654Z" fill="#6580E1" fill-opacity="0.6"/>
<path fill-rule="evenodd" clip-rule="evenodd" d="M26.4824 7.71802L26.4424 7.89432L25.7444 22.5125L25.7844 22.3362L26.4824 7.71802Z" fill="#6580E1" fill-opacity="0.6"/>
<path fill-rule="evenodd" clip-rule="evenodd" d="M26.4424 7.89429L25.8528 7.94061L25.1548 22.5588L25.7444 22.5125L26.4424 7.89429Z" fill="#6580E1" fill-opacity="0.6"/>
<path fill-rule="evenodd" clip-rule="evenodd" d="M25.8528 7.94067L25.6929 8.10709L24.9949 22.7253L25.1548 22.5588L25.8528 7.94067Z" fill="#6580E1" fill-opacity="0.6"/>
<path fill-rule="evenodd" clip-rule="evenodd" d="M25.6927 8.10712L25.103 7.99658L24.405 22.6147L24.9947 22.7253L25.6927 8.10712Z" fill="#6580E1" fill-opacity="0.6"/>
<path fill-rule="evenodd" clip-rule="evenodd" d="M25.103 7.99648L24.8132 7.70264L24.1152 22.3208L24.4051 22.6146L25.103 7.99648Z" fill="#6580E1" fill-opacity="0.6"/>
<path fill-rule="evenodd" clip-rule="evenodd" d="M24.8133 7.70263L23.7839 7.49902L23.0859 22.1172L24.1153 22.3208L24.8133 7.70263Z" fill="#6580E1" fill-opacity="0.6"/>
<path fill-rule="evenodd" clip-rule="evenodd" d="M23.784 7.49895L23.6641 7.09351L22.9661 21.7117L23.086 22.1171L23.784 7.49895Z" fill="#6580E1" fill-opacity="0.6"/>
<path fill-rule="evenodd" clip-rule="evenodd" d="M23.6639 7.09351L23.4441 7.42889L22.7461 22.0471L22.966 21.7117L23.6639 7.09351Z" fill="#6580E1" fill-opacity="0.6"/>
<path fill-rule="evenodd" clip-rule="evenodd" d="M23.4441 7.42889L22.6746 7.32739L21.9766 21.9456L22.7461 22.047L23.4441 7.42889Z" fill="#6580E1" fill-opacity="0.6"/>
<path fill-rule="evenodd" clip-rule="evenodd" d="M22.6745 7.32746L22.0249 6.5061L21.3269 21.1243L21.9765 21.9456L22.6745 7.32746Z" fill="#6580E1" fill-opacity="0.6"/>
<path fill-rule="evenodd" clip-rule="evenodd" d="M22.025 6.50603L21.6152 6.37964L20.9172 20.9978L21.327 21.1242L22.025 6.50603Z" fill="#6580E1" fill-opacity="0.6"/>
<path fill-rule="evenodd" clip-rule="evenodd" d="M21.6153 6.37976L21.5254 5.96826L20.8274 20.5864L20.9173 20.9979L21.6153 6.37976Z" fill="#6580E1" fill-opacity="0.6"/>
<path fill-rule="evenodd" clip-rule="evenodd" d="M21.5254 5.96826L20.7659 5.89429L20.0679 20.5125L20.8274 20.5864L21.5254 5.96826Z" fill="#6580E1" fill-opacity="0.6"/>
<path fill-rule="evenodd" clip-rule="evenodd" d="M20.7658 5.89429L20.436 6.06319L19.738 20.6814L20.0678 20.5125L20.7658 5.89429Z" fill="#6580E1" fill-opacity="0.6"/>
<path fill-rule="evenodd" clip-rule="evenodd" d="M20.4359 6.06313L20.176 5.89282L19.478 20.511L19.7379 20.6813L20.4359 6.06313Z" fill="#6580E1" fill-opacity="0.6"/>
<path fill-rule="evenodd" clip-rule="evenodd" d="M20.176 5.89282L20.3659 6.47738L19.6679 21.0955L19.478 20.511L20.176 5.89282Z" fill="#6580E1" fill-opacity="0.6"/>
<path fill-rule="evenodd" clip-rule="evenodd" d="M20.366 6.47754L19.7864 6.79691L19.0884 21.4151L19.668 21.0957L20.366 6.47754Z" fill="#6580E1" fill-opacity="0.6"/>
<path fill-rule="evenodd" clip-rule="evenodd" d="M19.7863 6.79688L19.6164 7.35859L18.9185 21.9768L19.0884 21.415L19.7863 6.79688Z" fill="#6580E1" fill-opacity="0.6"/>
<path fill-rule="evenodd" clip-rule="evenodd" d="M19.6164 7.3584L19.9762 9.50906L19.2782 24.1272L18.9185 21.9766L19.6164 7.3584Z" fill="#6580E1" fill-opacity="0.6"/>
<path fill-rule="evenodd" clip-rule="evenodd" d="M19.9763 9.50928L19.8464 9.81286L19.1484 24.431L19.2784 24.1274L19.9763 9.50928Z" fill="#6580E1" fill-opacity="0.6"/>
<path fill-rule="evenodd" clip-rule="evenodd" d="M19.8463 9.81274L19.4565 9.90509L18.7585 24.5233L19.1483 24.4309L19.8463 9.81274Z" fill="#6580E1" fill-opacity="0.6"/>
<path fill-rule="evenodd" clip-rule="evenodd" d="M19.4565 9.90503L19.9063 10.0325L19.2083 24.6506L18.7585 24.5232L19.4565 9.90503Z" fill="#6580E1" fill-opacity="0.6"/>
<path fill-rule="evenodd" clip-rule="evenodd" d="M19.9062 10.0325L20.0462 10.4452L19.3482 25.0634L19.2083 24.6506L19.9062 10.0325Z" fill="#6580E1" fill-opacity="0.6"/>
<path fill-rule="evenodd" clip-rule="evenodd" d="M20.0461 10.4453L19.4065 10.4563L18.7085 25.0744L19.3481 25.0635L20.0461 10.4453Z" fill="#6580E1" fill-opacity="0.6"/>
<path fill-rule="evenodd" clip-rule="evenodd" d="M19.4065 10.4563L20.166 10.994L19.468 25.6122L18.7085 25.0745L19.4065 10.4563Z" fill="#6580E1" fill-opacity="0.6"/>
<path fill-rule="evenodd" clip-rule="evenodd" d="M20.1662 10.9939L19.8564 11.3884L19.1584 26.0065L19.4683 25.6121L20.1662 10.9939Z" fill="#6580E1" fill-opacity="0.6"/>
<path fill-rule="evenodd" clip-rule="evenodd" d="M19.8564 11.3884L19.0669 11.5047L18.3689 26.1228L19.1584 26.0066L19.8564 11.3884Z" fill="#6580E1" fill-opacity="0.6"/>
<path fill-rule="evenodd" clip-rule="evenodd" d="M19.0669 11.5046L20.1362 12.2139L19.4382 26.8321L18.3689 26.1228L19.0669 11.5046Z" fill="#6580E1" fill-opacity="0.6"/>
<path fill-rule="evenodd" clip-rule="evenodd" d="M20.1362 12.2139L20.516 12.9465L19.818 27.5646L19.4382 26.832L20.1362 12.2139Z" fill="#6580E1" fill-opacity="0.6"/>
<path fill-rule="evenodd" clip-rule="evenodd" d="M20.5159 12.9465L20.376 13.0725L19.678 27.6907L19.8179 27.5647L20.5159 12.9465Z" fill="#6580E1" fill-opacity="0.6"/>
<path fill-rule="evenodd" clip-rule="evenodd" d="M20.3761 13.0726L20.1462 12.978L19.4482 27.5962L19.6781 27.6907L20.3761 13.0726Z" fill="#6580E1" fill-opacity="0.6"/>
<path fill-rule="evenodd" clip-rule="evenodd" d="M20.146 12.978L19.7063 13.3078L19.0083 27.926L19.448 27.5962L20.146 12.978Z" fill="#6580E1" fill-opacity="0.6"/>
<path fill-rule="evenodd" clip-rule="evenodd" d="M19.7065 13.3077L19.5366 13.1602L18.8386 27.7783L19.0085 27.9259L19.7065 13.3077Z" fill="#6580E1" fill-opacity="0.6"/>
<path fill-rule="evenodd" clip-rule="evenodd" d="M19.5366 13.1602L19.2168 13.4793L18.5188 28.0975L18.8386 27.7783L19.5366 13.1602Z" fill="#6580E1" fill-opacity="0.6"/>
<path fill-rule="evenodd" clip-rule="evenodd" d="M19.2168 13.4795L19.7764 13.8075L19.0785 28.4257L18.5188 28.0977L19.2168 13.4795Z" fill="#6580E1" fill-opacity="0.6"/>
<path fill-rule="evenodd" clip-rule="evenodd" d="M19.7764 13.8074L19.4766 14.0111L18.7786 28.6293L19.0784 28.4255L19.7764 13.8074Z" fill="#6580E1" fill-opacity="0.6"/>
<path fill-rule="evenodd" clip-rule="evenodd" d="M19.4765 14.0112L18.9868 13.7395L18.2888 28.3577L18.7785 28.6293L19.4765 14.0112Z" fill="#6580E1" fill-opacity="0.6"/>
<path fill-rule="evenodd" clip-rule="evenodd" d="M18.9868 13.7395L19.3166 14.2458L18.6186 28.8639L18.2888 28.3577L18.9868 13.7395Z" fill="#6580E1" fill-opacity="0.6"/>
<path fill-rule="evenodd" clip-rule="evenodd" d="M19.3168 14.2458L18.927 14.1199L18.229 28.738L18.6188 28.8639L19.3168 14.2458Z" fill="#6580E1" fill-opacity="0.6"/>
<path fill-rule="evenodd" clip-rule="evenodd" d="M18.927 14.1199L18.7671 14.2454L18.0691 28.8635L18.229 28.738L18.927 14.1199Z" fill="#6580E1" fill-opacity="0.6"/>
<path fill-rule="evenodd" clip-rule="evenodd" d="M18.767 14.2453L18.3972 13.6357L17.6992 28.2539L18.069 28.8635L18.767 14.2453Z" fill="#6580E1" fill-opacity="0.6"/>
<path fill-rule="evenodd" clip-rule="evenodd" d="M18.3972 13.636L17.9275 13.3921L17.2295 28.0103L17.6992 28.2541L18.3972 13.636Z" fill="#6580E1" fill-opacity="0.6"/>
<path fill-rule="evenodd" clip-rule="evenodd" d="M17.9276 13.392L17.6777 13.0242L16.9797 27.6423L17.2296 28.0102L17.9276 13.392Z" fill="#6580E1" fill-opacity="0.6"/>
<path fill-rule="evenodd" clip-rule="evenodd" d="M17.6777 13.0242L17.4778 13.1214L16.7798 27.7395L16.9797 27.6423L17.6777 13.0242Z" fill="#6580E1" fill-opacity="0.6"/>
<path fill-rule="evenodd" clip-rule="evenodd" d="M17.4777 13.1213L17.2778 12.9048L16.5798 27.5229L16.7797 27.7395L17.4777 13.1213Z" fill="#6580E1" fill-opacity="0.6"/>
<path fill-rule="evenodd" clip-rule="evenodd" d="M17.2778 12.9048L17.1079 13.6165L16.4099 28.2347L16.5798 27.5229L17.2778 12.9048Z" fill="#6580E1" fill-opacity="0.6"/>
<path fill-rule="evenodd" clip-rule="evenodd" d="M17.1079 13.6165L17.7875 13.9134L17.0895 28.5316L16.4099 28.2346L17.1079 13.6165Z" fill="#6580E1" fill-opacity="0.6"/>
<path fill-rule="evenodd" clip-rule="evenodd" d="M17.7875 13.9136L16.7881 14.1336L16.0901 28.7517L17.0895 28.5317L17.7875 13.9136Z" fill="#6580E1" fill-opacity="0.6"/>
<path fill-rule="evenodd" clip-rule="evenodd" d="M16.7883 14.1335L16.6284 14.3818L15.9304 29L16.0903 28.7517L16.7883 14.1335Z" fill="#6580E1" fill-opacity="0.6"/>
<path fill-rule="evenodd" clip-rule="evenodd" d="M16.6284 14.3817L15.9788 13.9014L15.2808 28.5195L15.9304 28.9999L16.6284 14.3817Z" fill="#6580E1" fill-opacity="0.6"/>
<path fill-rule="evenodd" clip-rule="evenodd" d="M15.9787 13.9014L15.1792 14.106L14.4812 28.7242L15.2807 28.5195L15.9787 13.9014Z" fill="#6580E1" fill-opacity="0.6"/>
<path fill-rule="evenodd" clip-rule="evenodd" d="M15.1792 14.1062L15.3991 14.4528L14.7011 29.071L14.4812 28.7244L15.1792 14.1062Z" fill="#6580E1" fill-opacity="0.6"/>
<path fill-rule="evenodd" clip-rule="evenodd" d="M15.399 14.4528L14.9892 14.2173L14.2913 28.8354L14.701 29.071L15.399 14.4528Z" fill="#6580E1" fill-opacity="0.6"/>
<path fill-rule="evenodd" clip-rule="evenodd" d="M14.9892 14.2173L14.6394 14.3311L13.9414 28.9493L14.2912 28.8354L14.9892 14.2173Z" fill="#6580E1" fill-opacity="0.6"/>
<path fill-rule="evenodd" clip-rule="evenodd" d="M14.6395 14.3311L14.0798 13.9622L13.3818 28.5803L13.9415 28.9493L14.6395 14.3311Z" fill="#6580E1" fill-opacity="0.6"/>
<path fill-rule="evenodd" clip-rule="evenodd" d="M14.0798 13.9622L14.4696 14.3472L13.7716 28.9654L13.3818 28.5803L14.0798 13.9622Z" fill="#6580E1" fill-opacity="0.6"/>
<path fill-rule="evenodd" clip-rule="evenodd" d="M14.4695 14.347L14.0498 14.2886L13.3518 28.9067L13.7716 28.9652L14.4695 14.347Z" fill="#6580E1" fill-opacity="0.6"/>
<path fill-rule="evenodd" clip-rule="evenodd" d="M14.0498 14.2886L14.1797 14.8239L13.4817 29.442L13.3518 28.9067L14.0498 14.2886Z" fill="#6580E1" fill-opacity="0.6"/>
<path fill-rule="evenodd" clip-rule="evenodd" d="M14.1797 14.8239L13.4502 14.1301L12.7522 28.7483L13.4818 29.4421L14.1797 14.8239Z" fill="#6580E1" fill-opacity="0.6"/>
<path fill-rule="evenodd" clip-rule="evenodd" d="M13.4502 14.1302L12.6807 14.0833L11.9827 28.7014L12.7522 28.7483L13.4502 14.1302Z" fill="#6580E1" fill-opacity="0.6"/>
<path fill-rule="evenodd" clip-rule="evenodd" d="M12.6807 14.0833L12.3909 14.526L11.6929 29.1441L11.9827 28.7014L12.6807 14.0833Z" fill="#6580E1" fill-opacity="0.6"/>
<path fill-rule="evenodd" clip-rule="evenodd" d="M12.3909 14.5259L11.8013 13.8357L11.1033 28.4539L11.6929 29.1441L12.3909 14.5259Z" fill="#6580E1" fill-opacity="0.6"/>
<path fill-rule="evenodd" clip-rule="evenodd" d="M11.8011 13.8357L11.5513 13.8225L10.8533 28.4407L11.1031 28.4539L11.8011 13.8357Z" fill="#6580E1" fill-opacity="0.6"/>
<path fill-rule="evenodd" clip-rule="evenodd" d="M11.5513 13.8225L11.8311 14.1843L11.1331 28.8025L10.8533 28.4407L11.5513 13.8225Z" fill="#6580E1" fill-opacity="0.6"/>
<path fill-rule="evenodd" clip-rule="evenodd" d="M11.8311 14.1842L11.4214 14.1328L10.7234 28.751L11.1331 28.8024L11.8311 14.1842Z" fill="#6580E1" fill-opacity="0.6"/>
<path fill-rule="evenodd" clip-rule="evenodd" d="M11.4214 14.1328L11.7112 14.2903L11.0132 28.9084L10.7234 28.751L11.4214 14.1328Z" fill="#6580E1" fill-opacity="0.6"/>
<path fill-rule="evenodd" clip-rule="evenodd" d="M11.7112 14.2903L12.3208 15.2197L11.6228 29.8379L11.0132 28.9084L11.7112 14.2903Z" fill="#6580E1" fill-opacity="0.6"/>
<path fill-rule="evenodd" clip-rule="evenodd" d="M12.3208 15.2197L12.021 15.4371L11.323 30.0553L11.6228 29.8379L12.3208 15.2197Z" fill="#6580E1" fill-opacity="0.6"/>
<path fill-rule="evenodd" clip-rule="evenodd" d="M12.0211 15.4371L11.7812 15.24L11.0833 29.8582L11.3231 30.0552L12.0211 15.4371Z" fill="#6580E1" fill-opacity="0.6"/>
<path fill-rule="evenodd" clip-rule="evenodd" d="M11.7812 15.24L11.6113 15.5085L10.9133 30.1266L11.0832 29.8582L11.7812 15.24Z" fill="#6580E1" fill-opacity="0.6"/>
<path fill-rule="evenodd" clip-rule="evenodd" d="M11.6113 15.5086L10.8318 14.9158L10.1338 29.5339L10.9133 30.1267L11.6113 15.5086Z" fill="#6580E1" fill-opacity="0.6"/>
<path fill-rule="evenodd" clip-rule="evenodd" d="M10.8319 14.9158L10.4321 14.094L9.73413 28.7122L10.1339 29.5339L10.8319 14.9158Z" fill="#6580E1" fill-opacity="0.6"/>
<path fill-rule="evenodd" clip-rule="evenodd" d="M10.4321 14.0939L9.81249 13.853L9.1145 28.4712L9.73412 28.7121L10.4321 14.0939Z" fill="#6580E1" fill-opacity="0.6"/>
<path fill-rule="evenodd" clip-rule="evenodd" d="M9.81249 13.853L10.0224 14.2539L9.32437 28.8721L9.1145 28.4712L9.81249 13.853Z" fill="#6580E1" fill-opacity="0.6"/>
<path fill-rule="evenodd" clip-rule="evenodd" d="M10.0224 14.2539L9.85253 14.4473L9.15454 29.0655L9.32444 28.8721L10.0224 14.2539Z" fill="#6580E1" fill-opacity="0.6"/>
<path fill-rule="evenodd" clip-rule="evenodd" d="M9.85253 14.4475L10.3322 14.5825L9.63425 29.2007L9.15454 29.0657L9.85253 14.4475Z" fill="#6580E1" fill-opacity="0.6"/>
<path fill-rule="evenodd" clip-rule="evenodd" d="M10.332 14.5825L11.6112 16.0678L10.9133 30.686L9.63403 29.2007L10.332 14.5825Z" fill="#6580E1" fill-opacity="0.6"/>
<path fill-rule="evenodd" clip-rule="evenodd" d="M11.6114 16.0679L11.2117 16.9102L10.5137 31.5283L10.9134 30.686L11.6114 16.0679Z" fill="#6580E1" fill-opacity="0.6"/>
<path fill-rule="evenodd" clip-rule="evenodd" d="M11.2115 16.9102L10.6318 16.9499L9.93384 31.5681L10.5135 31.5283L11.2115 16.9102Z" fill="#6580E1" fill-opacity="0.6"/>
<path fill-rule="evenodd" clip-rule="evenodd" d="M10.6318 16.9498L10.7718 16.3328L10.0738 30.9509L9.93384 31.568L10.6318 16.9498Z" fill="#6580E1" fill-opacity="0.6"/>
<path fill-rule="evenodd" clip-rule="evenodd" d="M10.7718 16.3328L10.3621 16.1382L9.66406 30.7563L10.0738 30.951L10.7718 16.3328Z" fill="#6580E1" fill-opacity="0.6"/>
<path fill-rule="evenodd" clip-rule="evenodd" d="M10.3621 16.1382L10.2422 15.6714L9.54419 30.2896L9.66412 30.7564L10.3621 16.1382Z" fill="#6580E1" fill-opacity="0.6"/>
<path fill-rule="evenodd" clip-rule="evenodd" d="M10.2421 15.6713L9.75243 15.4883L9.05444 30.1064L9.54414 30.2895L10.2421 15.6713Z" fill="#6580E1" fill-opacity="0.6"/>
<path fill-rule="evenodd" clip-rule="evenodd" d="M9.75243 15.4883L9.79241 15.7826L9.09442 30.4007L9.05444 30.1064L9.75243 15.4883Z" fill="#6580E1" fill-opacity="0.6"/>
<path fill-rule="evenodd" clip-rule="evenodd" d="M9.79238 15.7827L9.58251 15.9547L8.88452 30.5728L9.09439 30.4009L9.79238 15.7827Z" fill="#6580E1" fill-opacity="0.6"/>
<path fill-rule="evenodd" clip-rule="evenodd" d="M9.58265 15.9546L9.05297 15.9683L8.35498 30.5865L8.88466 30.5728L9.58265 15.9546Z" fill="#6580E1" fill-opacity="0.6"/>
<path fill-rule="evenodd" clip-rule="evenodd" d="M9.05291 15.9685L9.01293 15.8242L8.31494 30.4424L8.35492 30.5866L9.05291 15.9685Z" fill="#6580E1" fill-opacity="0.6"/>
<path fill-rule="evenodd" clip-rule="evenodd" d="M9.01301 15.824L8.75317 15.8105L8.05518 30.4287L8.31502 30.4422L9.01301 15.824Z" fill="#6580E1" fill-opacity="0.6"/>
<path fill-rule="evenodd" clip-rule="evenodd" d="M8.75302 15.8105L8.35326 16.3937L7.65527 31.0118L8.05503 30.4287L8.75302 15.8105Z" fill="#6580E1" fill-opacity="0.6"/>
<path fill-rule="evenodd" clip-rule="evenodd" d="M8.35326 16.3938L8.70305 16.5937L8.00506 31.2119L7.65527 31.012L8.35326 16.3938Z" fill="#6580E1" fill-opacity="0.6"/>
<path fill-rule="evenodd" clip-rule="evenodd" d="M8.70303 16.5938L8.34325 16.796L7.64526 31.4141L8.00504 31.2119L8.70303 16.5938Z" fill="#6580E1" fill-opacity="0.6"/>
<path fill-rule="evenodd" clip-rule="evenodd" d="M8.34325 16.7959L8.44319 16.9826L7.7452 31.6008L7.64526 31.4141L8.34325 16.7959Z" fill="#6580E1" fill-opacity="0.6"/>
<path fill-rule="evenodd" clip-rule="evenodd" d="M8.44326 16.9826L7.92358 16.908L7.22559 31.5261L7.74527 31.6008L8.44326 16.9826Z" fill="#6580E1" fill-opacity="0.6"/>
<path fill-rule="evenodd" clip-rule="evenodd" d="M7.92358 16.908L8.08348 17.5054L7.38549 32.1235L7.22559 31.5261L7.92358 16.908Z" fill="#6580E1" fill-opacity="0.6"/>
<path fill-rule="evenodd" clip-rule="evenodd" d="M8.08349 17.5054L8.82304 17.9471L8.12505 32.5653L7.3855 32.1235L8.08349 17.5054Z" fill="#6580E1" fill-opacity="0.6"/>
<path fill-rule="evenodd" clip-rule="evenodd" d="M8.82311 17.947L8.28344 18.5198L7.58545 33.1379L8.12512 32.5652L8.82311 17.947Z" fill="#6580E1" fill-opacity="0.6"/>
<path fill-rule="evenodd" clip-rule="evenodd" d="M8.28347 18.5199L7.99364 18.4307L7.29565 33.0488L7.58548 33.1381L8.28347 18.5199Z" fill="#6580E1" fill-opacity="0.6"/>
<path fill-rule="evenodd" clip-rule="evenodd" d="M7.99364 18.4305L8.15355 18.3459L7.45556 32.9641L7.29565 33.0487L7.99364 18.4305Z" fill="#6580E1" fill-opacity="0.6"/>
<path fill-rule="evenodd" clip-rule="evenodd" d="M8.15338 18.346L7.88354 18.114L7.18555 32.7322L7.45539 32.9641L8.15338 18.346Z" fill="#6580E1" fill-opacity="0.6"/>
<path fill-rule="evenodd" clip-rule="evenodd" d="M7.88361 18.114L7.47387 18.3491L6.77588 32.9672L7.18562 32.7322L7.88361 18.114Z" fill="#6580E1" fill-opacity="0.6"/>
<path fill-rule="evenodd" clip-rule="evenodd" d="M7.47387 18.3491L7.84364 18.8701L7.14565 33.4882L6.77588 32.9673L7.47387 18.3491Z" fill="#6580E1" fill-opacity="0.6"/>
<path fill-rule="evenodd" clip-rule="evenodd" d="M7.84374 18.8701L8.2435 18.9417L7.54551 33.5599L7.14575 33.4883L7.84374 18.8701Z" fill="#6580E1" fill-opacity="0.6"/>
<path fill-rule="evenodd" clip-rule="evenodd" d="M8.24328 18.9416L8.01342 18.9221L7.31543 33.5403L7.54529 33.5598L8.24328 18.9416Z" fill="#6580E1" fill-opacity="0.6"/>
<path fill-rule="evenodd" clip-rule="evenodd" d="M8.01342 18.9221L8.16333 19.2874L7.46534 33.9056L7.31543 33.5403L8.01342 18.9221Z" fill="#6580E1" fill-opacity="0.6"/>
<path fill-rule="evenodd" clip-rule="evenodd" d="M8.16336 19.2874L7.57372 19.7292L6.87573 34.3474L7.46537 33.9055L8.16336 19.2874Z" fill="#6580E1" fill-opacity="0.6"/>
<path fill-rule="evenodd" clip-rule="evenodd" d="M7.57372 19.7293L8.06342 19.6804L7.36543 34.2986L6.87573 34.3475L7.57372 19.7293Z" fill="#6580E1" fill-opacity="0.6"/>
<path fill-rule="evenodd" clip-rule="evenodd" d="M8.06349 19.6804L7.92358 20.0451L7.22559 34.6633L7.3655 34.2986L8.06349 19.6804Z" fill="#6580E1" fill-opacity="0.6"/>
<path fill-rule="evenodd" clip-rule="evenodd" d="M7.92358 20.0452L9.6925 20.8815L8.99451 35.4996L7.22559 34.6633L7.92358 20.0452Z" fill="#6580E1" fill-opacity="0.6"/>
<path fill-rule="evenodd" clip-rule="evenodd" d="M9.69262 20.8813L14.1499 23.6004L13.4519 38.2186L8.99463 35.4995L9.69262 20.8813Z" fill="#6580E1" fill-opacity="0.6"/>
<path fill-rule="evenodd" clip-rule="evenodd" d="M14.1499 23.6006L14.7595 23.8139L14.0615 38.4321L13.4519 38.2188L14.1499 23.6006Z" fill="#6580E1" fill-opacity="0.6"/>
<path fill-rule="evenodd" clip-rule="evenodd" d="M14.7595 23.814L15.0293 24.196L14.3314 38.8141L14.0615 38.4321L14.7595 23.814Z" fill="#6580E1" fill-opacity="0.6"/>
<path fill-rule="evenodd" clip-rule="evenodd" d="M15.0293 24.1959L15.3491 24.0813L14.6511 38.6995L14.3313 38.8141L15.0293 24.1959Z" fill="#6580E1" fill-opacity="0.6"/>
<path fill-rule="evenodd" clip-rule="evenodd" d="M15.349 24.0812L15.279 23.6975L14.5811 38.3157L14.651 38.6994L15.349 24.0812Z" fill="#6580E1" fill-opacity="0.6"/>
<path fill-rule="evenodd" clip-rule="evenodd" d="M15.279 23.6976L15.8387 23.0571L15.1407 37.6753L14.5811 38.3157L15.279 23.6976Z" fill="#6580E1" fill-opacity="0.6"/>
<path fill-rule="evenodd" clip-rule="evenodd" d="M15.8389 23.0571L15.8988 22.6562L15.2008 37.2744L15.1409 37.6753L15.8389 23.0571Z" fill="#6580E1" fill-opacity="0.6"/>
<path fill-rule="evenodd" clip-rule="evenodd" d="M15.8987 22.6562L16.2085 22.4731L15.5105 37.0913L15.2007 37.2744L15.8987 22.6562Z" fill="#6580E1" fill-opacity="0.6"/>
<path fill-rule="evenodd" clip-rule="evenodd" d="M16.2085 22.4731L16.3984 22.5394L15.7004 37.1575L15.5105 37.0913L16.2085 22.4731Z" fill="#6580E1" fill-opacity="0.6"/>
<path fill-rule="evenodd" clip-rule="evenodd" d="M16.3984 22.5394L16.4584 22.3022L15.7604 36.9204L15.7004 37.1576L16.3984 22.5394Z" fill="#6580E1" fill-opacity="0.6"/>
<path fill-rule="evenodd" clip-rule="evenodd" d="M16.4585 22.3023L16.9982 22.1865L16.3002 36.8047L15.7605 36.9205L16.4585 22.3023Z" fill="#6580E1" fill-opacity="0.6"/>
<path fill-rule="evenodd" clip-rule="evenodd" d="M16.9982 22.1865L16.9182 22.0413L16.2202 36.6594L16.3002 36.8047L16.9982 22.1865Z" fill="#6580E1" fill-opacity="0.6"/>
<path fill-rule="evenodd" clip-rule="evenodd" d="M16.9182 22.0413L17.8277 21.6963L17.1297 36.3145L16.2202 36.6595L16.9182 22.0413Z" fill="#6580E1" fill-opacity="0.6"/>
<path fill-rule="evenodd" clip-rule="evenodd" d="M17.8276 21.6963L19.0069 22.0401L18.3089 36.6583L17.1296 36.3145L17.8276 21.6963Z" fill="#6580E1" fill-opacity="0.6"/>
<path fill-rule="evenodd" clip-rule="evenodd" d="M19.0068 22.0399L19.3566 21.9465L18.6586 36.5647L18.3088 36.6581L19.0068 22.0399Z" fill="#6580E1" fill-opacity="0.6"/>
<path fill-rule="evenodd" clip-rule="evenodd" d="M19.3567 21.9466L19.0369 21.9316L18.3389 36.5498L18.6587 36.5648L19.3567 21.9466Z" fill="#6580E1" fill-opacity="0.6"/>
<path fill-rule="evenodd" clip-rule="evenodd" d="M19.0369 21.9317L19.2567 21.7668L18.5587 36.385L18.3389 36.5499L19.0369 21.9317Z" fill="#6580E1" fill-opacity="0.6"/>
<path fill-rule="evenodd" clip-rule="evenodd" d="M19.2566 21.7668L19.8862 21.8989L19.1882 36.517L18.5586 36.385L19.2566 21.7668Z" fill="#6580E1" fill-opacity="0.6"/>
<path fill-rule="evenodd" clip-rule="evenodd" d="M19.8862 21.8987L20.296 22.3388L19.598 36.957L19.1882 36.5168L19.8862 21.8987Z" fill="#6580E1" fill-opacity="0.6"/>
<path fill-rule="evenodd" clip-rule="evenodd" d="M20.2961 22.339L20.7858 22.2356L20.0878 36.8538L19.5981 36.9572L20.2961 22.339Z" fill="#6580E1" fill-opacity="0.6"/>
<path fill-rule="evenodd" clip-rule="evenodd" d="M20.7856 22.2356L21.7051 23.0229L21.0071 37.6411L20.0876 36.8538L20.7856 22.2356Z" fill="#6580E1" fill-opacity="0.6"/>
<path fill-rule="evenodd" clip-rule="evenodd" d="M21.7053 23.0229L21.9851 22.8254L21.2872 37.4436L21.0073 37.6411L21.7053 23.0229Z" fill="#6580E1" fill-opacity="0.6"/>
<path fill-rule="evenodd" clip-rule="evenodd" d="M21.9851 22.8253L21.9951 21.7275L21.2971 36.3457L21.2871 37.4435L21.9851 22.8253Z" fill="#6580E1" fill-opacity="0.6"/>
<path fill-rule="evenodd" clip-rule="evenodd" d="M21.9951 21.7275L22.6447 21.0076L21.9467 35.6257L21.2971 36.3457L21.9951 21.7275Z" fill="#6580E1" fill-opacity="0.6"/>
<path fill-rule="evenodd" clip-rule="evenodd" d="M22.6445 21.0076L25.9225 23.0009L25.2245 37.619L21.9465 35.6257L22.6445 21.0076Z" fill="#6580E1" fill-opacity="0.6"/>
<path fill-rule="evenodd" clip-rule="evenodd" d="M25.9226 23.001L26.5222 23.5892L25.8242 38.2073L25.2246 37.6191L25.9226 23.001Z" fill="#6580E1" fill-opacity="0.6"/>
<path fill-rule="evenodd" clip-rule="evenodd" d="M26.5222 23.5891L31.0295 26.2481L30.3315 40.8662L25.8242 38.2073L26.5222 23.5891Z" fill="#6580E1" fill-opacity="0.6"/>
<path fill-rule="evenodd" clip-rule="evenodd" d="M31.0295 26.248L31.1295 26.3461L30.4315 40.9642L30.3315 40.8662L31.0295 26.248Z" fill="#6580E1" fill-opacity="0.6"/>
<path fill-rule="evenodd" clip-rule="evenodd" d="M31.1294 26.3462L29.9302 27.1953L29.2322 41.8135L30.4314 40.9644L31.1294 26.3462Z" fill="#6580E1" fill-opacity="0.6"/>
<path fill-rule="evenodd" clip-rule="evenodd" d="M29.9303 27.1952L28.1614 26.4885L27.4634 41.1067L29.2323 41.8134L29.9303 27.1952Z" fill="#6580E1" fill-opacity="0.6"/>
<path fill-rule="evenodd" clip-rule="evenodd" d="M28.1612 26.4885L26.9519 27.4261L26.2539 42.0442L27.4632 41.1067L28.1612 26.4885Z" fill="#6580E1" fill-opacity="0.6"/>
<path fill-rule="evenodd" clip-rule="evenodd" d="M26.9521 27.426L24.9033 28.1989L24.2053 42.8171L26.2541 42.0442L26.9521 27.426Z" fill="#6580E1" fill-opacity="0.6"/>
<path fill-rule="evenodd" clip-rule="evenodd" d="M24.9033 28.199L24.1338 28.0498L23.4358 42.668L24.2053 42.8172L24.9033 28.199Z" fill="#6580E1" fill-opacity="0.6"/>
<path fill-rule="evenodd" clip-rule="evenodd" d="M24.1338 28.0497L23.5342 27.5024L22.8362 42.1206L23.4358 42.6679L24.1338 28.0497Z" fill="#6580E1" fill-opacity="0.6"/>
<path fill-rule="evenodd" clip-rule="evenodd" d="M23.534 27.5024L23.4441 27.1387L22.7461 41.7568L22.836 42.1206L23.534 27.5024Z" fill="#6580E1" fill-opacity="0.6"/>
<path fill-rule="evenodd" clip-rule="evenodd" d="M23.4441 27.1387L23.6839 27.1857L22.9859 41.8039L22.7461 41.7568L23.4441 27.1387Z" fill="#6580E1" fill-opacity="0.6"/>
<path fill-rule="evenodd" clip-rule="evenodd" d="M23.6839 27.1857L23.4241 26.7017L22.7261 41.3198L22.9859 41.8039L23.6839 27.1857Z" fill="#6580E1" fill-opacity="0.6"/>
<path fill-rule="evenodd" clip-rule="evenodd" d="M23.4241 26.7017L23.6539 26.7826L22.9559 41.4007L22.7261 41.3198L23.4241 26.7017Z" fill="#6580E1" fill-opacity="0.6"/>
<path fill-rule="evenodd" clip-rule="evenodd" d="M23.654 26.7826L23.4841 26.3145L22.7861 40.9326L22.956 41.4007L23.654 26.7826Z" fill="#6580E1" fill-opacity="0.6"/>
<path fill-rule="evenodd" clip-rule="evenodd" d="M23.484 26.3145L22.9744 26.8743L22.2764 41.4925L22.7861 40.9326L23.484 26.3145Z" fill="#6580E1" fill-opacity="0.6"/>
<path fill-rule="evenodd" clip-rule="evenodd" d="M22.9744 26.8743L22.3848 26.8184L21.6868 41.4365L22.2764 41.4925L22.9744 26.8743Z" fill="#6580E1" fill-opacity="0.6"/>
<path fill-rule="evenodd" clip-rule="evenodd" d="M22.3848 26.8184L22.6446 26.9887L21.9466 41.6068L21.6868 41.4365L22.3848 26.8184Z" fill="#6580E1" fill-opacity="0.6"/>
<path fill-rule="evenodd" clip-rule="evenodd" d="M22.6445 26.9888L22.8844 27.8269L22.1864 42.4451L21.9465 41.6069L22.6445 26.9888Z" fill="#6580E1" fill-opacity="0.6"/>
<path fill-rule="evenodd" clip-rule="evenodd" d="M22.8844 27.8269L21.875 28.3467L21.177 42.9649L22.1864 42.4451L22.8844 27.8269Z" fill="#6580E1" fill-opacity="0.6"/>
<path fill-rule="evenodd" clip-rule="evenodd" d="M21.875 28.3467V28.5786L21.177 43.1967V42.9648L21.875 28.3467Z" fill="#6580E1" fill-opacity="0.6"/>
<path fill-rule="evenodd" clip-rule="evenodd" d="M21.875 28.5786L22.3047 28.7942L21.6067 43.4124L21.177 43.1968L21.875 28.5786Z" fill="#6580E1" fill-opacity="0.6"/>
<path fill-rule="evenodd" clip-rule="evenodd" d="M22.3048 28.7942L21.925 29.0709L21.2271 43.6891L21.6068 43.4124L22.3048 28.7942Z" fill="#6580E1" fill-opacity="0.6"/>
<path fill-rule="evenodd" clip-rule="evenodd" d="M21.925 29.0708L22.0749 29.1906L21.377 43.8087L21.2271 43.689L21.925 29.0708Z" fill="#6580E1" fill-opacity="0.6"/>
<path fill-rule="evenodd" clip-rule="evenodd" d="M22.0749 29.1907L21.865 29.2058L21.167 43.8239L21.3769 43.8088L22.0749 29.1907Z" fill="#6580E1" fill-opacity="0.6"/>
<path fill-rule="evenodd" clip-rule="evenodd" d="M21.865 29.2058L21.4153 28.7852L20.7173 43.4033L21.167 43.824L21.865 29.2058Z" fill="#6580E1" fill-opacity="0.6"/>
<path fill-rule="evenodd" clip-rule="evenodd" d="M21.4154 28.7852L20.9058 28.9017L20.2078 43.5199L20.7175 43.4033L21.4154 28.7852Z" fill="#6580E1" fill-opacity="0.6"/>
<path fill-rule="evenodd" clip-rule="evenodd" d="M20.9058 28.9016L23.0844 30.4713L22.3864 45.0895L20.2078 43.5198L20.9058 28.9016Z" fill="#6580E1" fill-opacity="0.6"/>
<path fill-rule="evenodd" clip-rule="evenodd" d="M23.0845 30.4714L23.2344 30.2297L22.5364 44.8479L22.3865 45.0896L23.0845 30.4714Z" fill="#6580E1" fill-opacity="0.6"/>
<path fill-rule="evenodd" clip-rule="evenodd" d="M23.2344 30.2297L23.5342 30.251L22.8362 44.8692L22.5364 44.8479L23.2344 30.2297Z" fill="#6580E1" fill-opacity="0.6"/>
<path fill-rule="evenodd" clip-rule="evenodd" d="M23.5342 30.251L23.6541 30.0972L22.9561 44.7153L22.8362 44.8691L23.5342 30.251Z" fill="#6580E1" fill-opacity="0.6"/>
<path fill-rule="evenodd" clip-rule="evenodd" d="M23.654 30.0972L24.2937 30.2908L23.5957 44.909L22.9561 44.7153L23.654 30.0972Z" fill="#6580E1" fill-opacity="0.6"/>
<path fill-rule="evenodd" clip-rule="evenodd" d="M24.2936 30.2908L24.2136 30.1523L23.5156 44.7705L23.5956 44.9089L24.2936 30.2908Z" fill="#6580E1" fill-opacity="0.6"/>
<path fill-rule="evenodd" clip-rule="evenodd" d="M24.2136 30.1524L25.0831 29.5745L24.3851 44.1926L23.5156 44.7706L24.2136 30.1524Z" fill="#6580E1" fill-opacity="0.6"/>
<path fill-rule="evenodd" clip-rule="evenodd" d="M25.0832 29.5745L25.9127 30.5914L25.2147 45.2095L24.3853 44.1926L25.0832 29.5745Z" fill="#6580E1" fill-opacity="0.6"/>
<path fill-rule="evenodd" clip-rule="evenodd" d="M25.9127 30.5913L25.6628 30.6804L24.9648 45.2986L25.2147 45.2095L25.9127 30.5913Z" fill="#6580E1" fill-opacity="0.6"/>
<path fill-rule="evenodd" clip-rule="evenodd" d="M25.6627 30.6804L25.5727 30.9987L24.8748 45.6168L24.9647 45.2986L25.6627 30.6804Z" fill="#6580E1" fill-opacity="0.6"/>
<path fill-rule="evenodd" clip-rule="evenodd" d="M25.5729 30.9985L25.1931 31.1184L24.4951 45.7366L24.8749 45.6167L25.5729 30.9985Z" fill="#6580E1" fill-opacity="0.6"/>
<path fill-rule="evenodd" clip-rule="evenodd" d="M25.1931 31.1187V31.4187L24.4951 46.0369V45.7368L25.1931 31.1187Z" fill="#6580E1" fill-opacity="0.6"/>
<path fill-rule="evenodd" clip-rule="evenodd" d="M25.1931 31.4186L25.9427 31.3423L25.2447 45.9604L24.4951 46.0368L25.1931 31.4186Z" fill="#6580E1" fill-opacity="0.6"/>
<path fill-rule="evenodd" clip-rule="evenodd" d="M25.9426 31.3423L26.0526 31.5156L25.3546 46.1338L25.2446 45.9604L25.9426 31.3423Z" fill="#6580E1" fill-opacity="0.6"/>
<path fill-rule="evenodd" clip-rule="evenodd" d="M26.0526 31.5156L25.8227 31.6734L25.1248 46.2916L25.3546 46.1338L26.0526 31.5156Z" fill="#6580E1" fill-opacity="0.6"/>
<path fill-rule="evenodd" clip-rule="evenodd" d="M25.8227 31.6733L26.1925 31.8874L25.4945 46.5055L25.1248 46.2915L25.8227 31.6733Z" fill="#6580E1" fill-opacity="0.6"/>
<path fill-rule="evenodd" clip-rule="evenodd" d="M26.1925 31.8875L25.9426 32.1607L25.2446 46.7789L25.4945 46.5056L26.1925 31.8875Z" fill="#6580E1" fill-opacity="0.6"/>
<path fill-rule="evenodd" clip-rule="evenodd" d="M25.9426 32.1606L28.1413 33.2944L27.4433 47.9125L25.2446 46.7788L25.9426 32.1606Z" fill="#6580E1" fill-opacity="0.6"/>
<path fill-rule="evenodd" clip-rule="evenodd" d="M28.1413 33.2944L28.3712 36.6762L27.6732 51.2944L27.4434 47.9126L28.1413 33.2944Z" fill="#6580E1" fill-opacity="0.6"/>
<path fill-rule="evenodd" clip-rule="evenodd" d="M28.3711 36.6763L28.7109 37.1896L28.0129 51.8078L27.6731 51.2944L28.3711 36.6763Z" fill="#6580E1" fill-opacity="0.6"/>
<path fill-rule="evenodd" clip-rule="evenodd" d="M28.711 37.1895L28.4712 37.2583L27.7732 51.8765L28.013 51.8076L28.711 37.1895Z" fill="#6580E1" fill-opacity="0.6"/>
<path fill-rule="evenodd" clip-rule="evenodd" d="M28.4712 37.2583L28.4912 38.0158L27.7932 52.634L27.7732 51.8765L28.4712 37.2583Z" fill="#6580E1" fill-opacity="0.6"/>
<path fill-rule="evenodd" clip-rule="evenodd" d="M28.491 38.0159L30.06 40.593L29.362 55.2111L27.793 52.634L28.491 38.0159Z" fill="#6580E1" fill-opacity="0.6"/>
<path fill-rule="evenodd" clip-rule="evenodd" d="M30.0602 40.593L29.7004 40.7407L29.0024 55.3589L29.3622 55.2112L30.0602 40.593Z" fill="#6580E1" fill-opacity="0.6"/>
<path fill-rule="evenodd" clip-rule="evenodd" d="M29.7004 40.7407L31.9391 44.0374L31.2411 58.6556L29.0024 55.3589L29.7004 40.7407Z" fill="#6580E1" fill-opacity="0.6"/>
<path fill-rule="evenodd" clip-rule="evenodd" d="M31.939 44.0374L34.7472 45.8414L34.0493 60.4595L31.241 58.6555L31.939 44.0374Z" fill="#6580E1" fill-opacity="0.6"/>
<path fill-rule="evenodd" clip-rule="evenodd" d="M34.7473 45.8413L37.8754 46.003L37.1774 60.6212L34.0493 60.4595L34.7473 45.8413Z" fill="#6580E1" fill-opacity="0.6"/>
<path fill-rule="evenodd" clip-rule="evenodd" d="M37.8752 46.0032L39.904 46.4505L39.206 61.0687L37.1772 60.6213L37.8752 46.0032Z" fill="#6580E1" fill-opacity="0.6"/>
<path fill-rule="evenodd" clip-rule="evenodd" d="M39.904 46.4504L42.4425 47.6337L41.7445 62.2519L39.2061 61.0686L39.904 46.4504Z" fill="#6580E1" fill-opacity="0.6"/>
<path fill-rule="evenodd" clip-rule="evenodd" d="M42.4426 47.6338L44.7012 49.1919L44.0033 63.81L41.7446 62.252L42.4426 47.6338Z" fill="#6580E1" fill-opacity="0.6"/>
<path fill-rule="evenodd" clip-rule="evenodd" d="M44.7012 49.1919L46.8698 51.3069L46.1719 65.9251L44.0032 63.8101L44.7012 49.1919Z" fill="#6580E1" fill-opacity="0.6"/>
<path fill-rule="evenodd" clip-rule="evenodd" d="M46.8699 51.3069L46.1404 51.7179L45.4424 66.3361L46.1719 65.925L46.8699 51.3069Z" fill="#6580E1" fill-opacity="0.6"/>
<path fill-rule="evenodd" clip-rule="evenodd" d="M46.1402 51.7179L46.0303 51.2991L45.3323 65.9172L45.4422 66.3361L46.1402 51.7179Z" fill="#6580E1" fill-opacity="0.6"/>
<path fill-rule="evenodd" clip-rule="evenodd" d="M46.0303 51.2991L45.4106 51.5697L44.7126 66.1878L45.3323 65.9172L46.0303 51.2991Z" fill="#6580E1" fill-opacity="0.6"/>
<path fill-rule="evenodd" clip-rule="evenodd" d="M45.4106 51.5696L45.4506 51.8298L44.7526 66.4479L44.7126 66.1877L45.4106 51.5696Z" fill="#6580E1" fill-opacity="0.6"/>
<path fill-rule="evenodd" clip-rule="evenodd" d="M45.4506 51.83L45.2607 51.6887L44.5627 66.3069L44.7526 66.4481L45.4506 51.83Z" fill="#6580E1" fill-opacity="0.6"/>
<path fill-rule="evenodd" clip-rule="evenodd" d="M45.2608 51.6887L45.001 51.7503L44.303 66.3684L44.5628 66.3069L45.2608 51.6887Z" fill="#6580E1" fill-opacity="0.6"/>
<path fill-rule="evenodd" clip-rule="evenodd" d="M45.001 51.7502L45.0909 52.0185L44.3929 66.6367L44.303 66.3684L45.001 51.7502Z" fill="#6580E1" fill-opacity="0.6"/>
<path fill-rule="evenodd" clip-rule="evenodd" d="M45.0909 52.0186L44.6811 52.39L43.9832 67.0082L44.3929 66.6367L45.0909 52.0186Z" fill="#6580E1" fill-opacity="0.6"/>
<path fill-rule="evenodd" clip-rule="evenodd" d="M44.6811 52.39L45.8804 52.0796L45.1824 66.6978L43.9832 67.0081L44.6811 52.39Z" fill="#6580E1" fill-opacity="0.6"/>
<path fill-rule="evenodd" clip-rule="evenodd" d="M45.8804 52.0796L47.7392 53.6343L47.0412 68.2524L45.1824 66.6978L45.8804 52.0796Z" fill="#6580E1" fill-opacity="0.6"/>
<path fill-rule="evenodd" clip-rule="evenodd" d="M47.7393 53.6341L47.5893 53.187L46.8914 67.8052L47.0413 68.2523L47.7393 53.6341Z" fill="#6580E1" fill-opacity="0.6"/>
<path fill-rule="evenodd" clip-rule="evenodd" d="M47.5893 53.187L49.2184 52.8604L48.5204 67.4785L46.8914 67.8052L47.5893 53.187Z" fill="#6580E1" fill-opacity="0.6"/>
<path fill-rule="evenodd" clip-rule="evenodd" d="M49.2185 52.8604L50.6776 53.9547L49.9796 68.5729L48.5205 67.4785L49.2185 52.8604Z" fill="#6580E1" fill-opacity="0.6"/>
<path fill-rule="evenodd" clip-rule="evenodd" d="M50.6775 53.9548L50.8973 54.0423L50.1994 68.6605L49.9795 68.573L50.6775 53.9548Z" fill="#6580E1" fill-opacity="0.6"/>
<path fill-rule="evenodd" clip-rule="evenodd" d="M50.8975 54.0423L56.3741 52.218L55.6761 66.8362L50.1995 68.6605L50.8975 54.0423Z" fill="#6580E1" fill-opacity="0.6"/>
<path fill-rule="evenodd" clip-rule="evenodd" d="M56.374 52.218L64.1393 53.5416L63.4413 68.1598L55.676 66.8362L56.374 52.218Z" fill="#6580E1" fill-opacity="0.6"/>
<path fill-rule="evenodd" clip-rule="evenodd" d="M64.1393 53.5417L62.8301 52.8604L62.1321 67.4785L63.4413 68.1599L64.1393 53.5417Z" fill="#6580E1" fill-opacity="0.6"/>
<path fill-rule="evenodd" clip-rule="evenodd" d="M62.8301 52.8603L63.2898 50.4578L62.5918 65.0759L62.1321 67.4785L62.8301 52.8603Z" fill="#6580E1" fill-opacity="0.6"/>
<path fill-rule="evenodd" clip-rule="evenodd" d="M63.2898 50.4577L63.8095 49.4548L63.1115 64.073L62.5918 65.0759L63.2898 50.4577Z" fill="#6580E1" fill-opacity="0.6"/>
<path fill-rule="evenodd" clip-rule="evenodd" d="M63.8095 49.4548L63.4697 47.8093L62.7717 62.4275L63.1115 64.073L63.8095 49.4548Z" fill="#6580E1" fill-opacity="0.6"/>
<path fill-rule="evenodd" clip-rule="evenodd" d="M63.4697 47.8094L63.9294 47.6506L63.2314 62.2688L62.7717 62.4276L63.4697 47.8094Z" fill="#6580E1" fill-opacity="0.6"/>
<path fill-rule="evenodd" clip-rule="evenodd" d="M63.9295 47.6506L63.5398 47.1292L62.8418 61.7473L63.2316 62.2688L63.9295 47.6506Z" fill="#6580E1" fill-opacity="0.6"/>
<path fill-rule="evenodd" clip-rule="evenodd" d="M63.5398 47.1291L65.1188 46.6648L64.4208 61.283L62.8418 61.7473L63.5398 47.1291Z" fill="#6580E1" fill-opacity="0.6"/>
<path fill-rule="evenodd" clip-rule="evenodd" d="M65.1188 46.6648L64.1494 42.6367L63.4514 57.2549L64.4208 61.283L65.1188 46.6648Z" fill="#6580E1" fill-opacity="0.6"/>
<path fill-rule="evenodd" clip-rule="evenodd" d="M64.1494 42.6366L68.3768 39.1777L67.6788 53.7959L63.4514 57.2548L64.1494 42.6366Z" fill="#6580E1" fill-opacity="0.6"/>
<path fill-rule="evenodd" clip-rule="evenodd" d="M68.3767 39.1779L72.4442 38.0269L71.7462 52.645L67.6787 53.796L68.3767 39.1779Z" fill="#6580E1" fill-opacity="0.6"/>
<path fill-rule="evenodd" clip-rule="evenodd" d="M72.4442 38.0268L68.6965 34.7529L67.9985 49.3711L71.7463 52.6449L72.4442 38.0268Z" fill="#6580E1" fill-opacity="0.6"/>
<path fill-rule="evenodd" clip-rule="evenodd" d="M68.6966 34.753L65.5085 31.5208L64.8105 46.1389L67.9986 49.3712L68.6966 34.753Z" fill="#6580E1" fill-opacity="0.6"/>
<path fill-rule="evenodd" clip-rule="evenodd" d="M65.5086 31.5207L63.3999 30.2256L62.7019 44.8438L64.8106 46.1388L65.5086 31.5207Z" fill="#6580E1" fill-opacity="0.6"/>
<path fill-rule="evenodd" clip-rule="evenodd" d="M63.3998 30.2255L59.1824 28.2969L58.4844 42.915L62.7018 44.8437L63.3998 30.2255Z" fill="#6580E1" fill-opacity="0.6"/>
<path fill-rule="evenodd" clip-rule="evenodd" d="M59.1823 28.297L57.3035 26.2712L56.6055 40.8894L58.4843 42.9152L59.1823 28.297Z" fill="#6580E1" fill-opacity="0.6"/>
<path fill-rule="evenodd" clip-rule="evenodd" d="M57.3035 26.2711L52.9961 18.8569L52.2981 33.4751L56.6055 40.8893L57.3035 26.2711Z" fill="#6580E1" fill-opacity="0.6"/>
<path fill-rule="evenodd" clip-rule="evenodd" d="M52.996 18.857L48.4888 17.5688L47.7908 32.187L52.298 33.4752L52.996 18.857Z" fill="#6580E1" fill-opacity="0.6"/>
<path fill-rule="evenodd" clip-rule="evenodd" d="M48.4889 17.5687L47.3296 16.8367L46.6316 31.4548L47.7909 32.1869L48.4889 17.5687Z" fill="#6580E1" fill-opacity="0.6"/>
<path fill-rule="evenodd" clip-rule="evenodd" d="M47.3297 16.8368L46.76 15.1582L46.062 29.7764L46.6317 31.455L47.3297 16.8368Z" fill="#6580E1" fill-opacity="0.6"/>
<path fill-rule="evenodd" clip-rule="evenodd" d="M46.76 15.1582L46.4202 14.8699L45.7222 29.488L46.062 29.7763L46.76 15.1582Z" fill="#6580E1" fill-opacity="0.6"/>
<path fill-rule="evenodd" clip-rule="evenodd" d="M46.4202 14.87L46.6 14.7927L45.9021 29.4109L45.7222 29.4881L46.4202 14.87Z" fill="#6580E1" fill-opacity="0.6"/>
<path fill-rule="evenodd" clip-rule="evenodd" d="M46.5999 14.7926L46.3501 14.002L45.6521 28.6201L45.9019 29.4108L46.5999 14.7926Z" fill="#6580E1" fill-opacity="0.6"/>
<path fill-rule="evenodd" clip-rule="evenodd" d="M46.3502 14.0019L45.041 13.6343L44.343 28.2524L45.6522 28.6201L46.3502 14.0019Z" fill="#6580E1" fill-opacity="0.6"/>
<path fill-rule="evenodd" clip-rule="evenodd" d="M45.041 13.6343L42.5825 10.3184L41.8845 24.9365L44.343 28.2524L45.041 13.6343Z" fill="#6580E1" fill-opacity="0.6"/>
<path fill-rule="evenodd" clip-rule="evenodd" d="M42.5825 10.3184L42.1328 7.06055L41.4348 21.6787L41.8845 24.9365L42.5825 10.3184Z" fill="#6580E1" fill-opacity="0.6"/>
<path fill-rule="evenodd" clip-rule="evenodd" d="M42.1328 7.06048L39.5244 5.93677L38.8264 20.5549L41.4348 21.6786L42.1328 7.06048Z" fill="#6580E1" fill-opacity="0.6"/>
<path fill-rule="evenodd" clip-rule="evenodd" d="M39.5244 5.93695L37.6655 5.60303L36.9675 20.2212L38.8264 20.5551L39.5244 5.93695Z" fill="#6580E1" fill-opacity="0.6"/>
<path fill-rule="evenodd" clip-rule="evenodd" d="M37.6655 5.60289L37.8254 5.21143L37.1274 19.8296L36.9675 20.2211L37.6655 5.60289Z" fill="#6580E1" fill-opacity="0.6"/>
<path fill-rule="evenodd" clip-rule="evenodd" d="M37.8254 5.21138L36.5762 4.6748L35.8782 19.293L37.1274 19.8295L37.8254 5.21138Z" fill="#6580E1" fill-opacity="0.6"/>
<path fill-rule="evenodd" clip-rule="evenodd" d="M36.576 4.6748L36.4961 4.76823L35.7981 19.3864L35.878 19.293L36.576 4.6748Z" fill="#6580E1" fill-opacity="0.6"/>
<path fill-rule="evenodd" clip-rule="evenodd" d="M36.4961 4.76839L35.5867 4.45874L34.8887 19.0769L35.7981 19.3866L36.4961 4.76839Z" fill="#6580E1" fill-opacity="0.6"/>
<path fill-rule="evenodd" clip-rule="evenodd" d="M35.5867 4.45862L35.4468 4.12085L34.7488 18.739L34.8887 19.0768L35.5867 4.45862Z" fill="#6580E1" fill-opacity="0.6"/>
<path fill-rule="evenodd" clip-rule="evenodd" d="M35.4469 4.12085L35.3469 4.27516L34.6489 18.8933L34.7489 18.739L35.4469 4.12085Z" fill="#6580E1" fill-opacity="0.6"/>
<path fill-rule="evenodd" clip-rule="evenodd" d="M35.3468 4.27534L34.8171 4.09814L34.1191 18.7163L34.6488 18.8935L35.3468 4.27534Z" fill="#6580E1" fill-opacity="0.6"/>
<path fill-rule="evenodd" clip-rule="evenodd" d="M34.8171 4.09814L34.8271 4.35754L34.1291 18.9757L34.1191 18.7163L34.8171 4.09814Z" fill="#6580E1" fill-opacity="0.6"/>
<path fill-rule="evenodd" clip-rule="evenodd" d="M34.8273 4.35742L34.6274 4.36597L33.9294 18.9841L34.1293 18.9756L34.8273 4.35742Z" fill="#6580E1" fill-opacity="0.6"/>
<path fill-rule="evenodd" clip-rule="evenodd" d="M34.6274 4.36599L33.2383 3.57349L32.5403 18.1917L33.9294 18.9842L34.6274 4.36599Z" fill="#6580E1" fill-opacity="0.6"/>
<path fill-rule="evenodd" clip-rule="evenodd" d="M33.2382 3.57349L32.7185 4.18083L32.0205 18.799L32.5402 18.1917L33.2382 3.57349Z" fill="#6580E1" fill-opacity="0.6"/>
<path fill-rule="evenodd" clip-rule="evenodd" d="M32.7185 4.18085L32.5386 4.16943L31.8406 18.7876L32.0205 18.799L32.7185 4.18085Z" fill="#6580E1" fill-opacity="0.6"/>
<path fill-rule="evenodd" clip-rule="evenodd" d="M32.5386 4.16931L32.3987 3.84521L31.7007 18.4634L31.8406 18.7875L32.5386 4.16931Z" fill="#6580E1" fill-opacity="0.6"/>
<path fill-rule="evenodd" clip-rule="evenodd" d="M32.3987 3.84531L32.8184 3.56958L32.1204 18.1877L31.7007 18.4635L32.3987 3.84531Z" fill="#6580E1" fill-opacity="0.6"/>
<path fill-rule="evenodd" clip-rule="evenodd" d="M32.8185 3.56965L32.6086 3.48926L31.9106 18.1074L32.1205 18.1878L32.8185 3.56965Z" fill="#6580E1" fill-opacity="0.6"/>
<path fill-rule="evenodd" clip-rule="evenodd" d="M32.6086 3.48913L32.6686 3.14966L31.9706 17.7678L31.9106 18.1073L32.6086 3.48913Z" fill="#6580E1" fill-opacity="0.6"/>
<path fill-rule="evenodd" clip-rule="evenodd" d="M32.6685 3.14963L31.949 2.88574L31.251 17.5039L31.9705 17.7678L32.6685 3.14963Z" fill="#6580E1" fill-opacity="0.6"/>
<path fill-rule="evenodd" clip-rule="evenodd" d="M31.9489 2.8859L31.739 2.53271L31.041 17.1509L31.2509 17.5041L31.9489 2.8859Z" fill="#6580E1" fill-opacity="0.6"/>
<path fill-rule="evenodd" clip-rule="evenodd" d="M31.7391 2.53259L31.1995 2.52563L30.5015 17.1438L31.0411 17.1508L31.7391 2.53259Z" fill="#6580E1" fill-opacity="0.6"/>
<path fill-rule="evenodd" clip-rule="evenodd" d="M31.1994 2.52559L29.7502 1.7793L29.0522 16.3975L30.5014 17.1438L31.1994 2.52559Z" fill="#6580E1" fill-opacity="0.6"/>
<path fill-rule="evenodd" clip-rule="evenodd" d="M29.7502 1.7793L29.7602 1.97734L29.0622 16.5955L29.0522 16.3975L29.7502 1.7793Z" fill="#6580E1" fill-opacity="0.6"/>
<path fill-rule="evenodd" clip-rule="evenodd" d="M29.7603 1.97754L29.4805 1.99767L28.7825 16.6158L29.0623 16.5957L29.7603 1.97754Z" fill="#6580E1" fill-opacity="0.6"/>
<path fill-rule="evenodd" clip-rule="evenodd" d="M29.4805 1.99756V1.99756L28.7825 16.6157V16.6157L29.4805 1.99756Z" fill="#6580E1" fill-opacity="0.6"/>
<path d="M26.4523 0.84269L26.6222 0.506028L27.1119 0.641311V0.39578L27.7415 0.207269L27.7015 0.0357486L28.1713 0L28.2612 0.384215L28.4811 0.328452L29.2706 1.58986L28.7509 1.3788L28.3811 0.796478L28.1513 1.02931L28.0113 0.759754L27.7815 0.747057L27.6316 1.11833L26.962 1.02621L26.882 1.20149L26.4523 0.84269ZM1.13773 13.3178L0.697998 13.5317L0.727979 13.8257L1.03779 13.8268L1.15772 14.0344L1.30763 13.8132L1.64742 13.9174L1.65741 13.4948L1.13773 13.3178ZM6.71433 18.7185L6.13467 18.3081L5.84486 18.2257L5.72493 18.3522L5.48508 18.121L5.91482 18.0365L6.31457 18.149L6.40452 18.0149L5.97478 17.7789L6.24462 17.6903L5.99477 17.2679L6.36454 17.0591L5.66497 16.3115L6.48447 16.5166L6.17466 15.8948L5.7749 16.062L5.82487 15.729L5.49507 15.7138L5.58502 15.0068L4.89544 15.0847L4.88544 14.8798L4.10592 14.7372L2.74675 14.8798L2.45693 14.3268L2.09715 14.2698L1.86729 14.3595L1.98721 14.5467L1.74736 14.5883L2.19708 14.8998L1.79733 15.0874L1.54748 14.9514L1.48752 15.1272L1.96722 15.194L2.09715 15.9476L3.62621 16.4299L4.15589 16.2866L4.57563 16.7679L4.59562 16.9935L3.83609 16.9263L3.84608 17.1653L4.32579 17.6004L4.22585 17.7751L3.40635 17.8019V17.5564L3.73615 17.5921L3.50629 17.2862L3.23645 17.3066L3.42634 17.932L3.28642 18.0444L3.78612 18.8414L3.51628 19.2983L3.67618 19.0842L3.6362 19.6833L4.92542 20.6983L5.25522 21.0955L5.20525 20.6509L6.15467 20.4433L6.29459 20.6037L7.07411 20.4395L7.0941 20.1672L7.254 19.2574L7.04413 18.7473L6.71433 18.7185ZM29.4805 1.99759L29.5604 2.14968L29.0207 2.21773L29.0907 2.6219L28.9608 2.7959L28.8209 2.70366L28.611 3.15524L28.3411 3.17562L28.2912 3.56309L27.6116 3.08199L27.5416 3.24387L28.0613 3.59814L27.9014 3.95552L27.7115 3.9643L27.9914 4.42157L27.4617 4.48307L26.7521 3.91934L26.3324 3.96999L26.3424 4.2567L26.2124 4.15108L26.0925 4.32533L26.6322 5.10977L26.4023 5.67678L26.1525 5.62948L26.7321 6.00574L26.5422 5.63944L26.6722 5.48591L27.6516 6.52027L27.4117 7.22342L27.1619 7.35344L27.2918 7.97738L26.7121 8.07852L26.7521 7.8272L26.3424 7.40753L26.1225 7.45648L26.4823 7.71801L26.4423 7.8943L25.8527 7.94063L25.6928 8.10704L25.1031 7.9965L24.8133 7.70266L23.7839 7.49905L23.664 7.09361L23.4441 7.42899L22.6746 7.3275L22.025 6.50615L21.6152 6.37975L21.5253 5.96825L20.7658 5.89428L20.436 6.06318L20.1761 5.89287L20.366 6.47743L19.7864 6.7968L19.6165 7.35852L19.9762 9.50918L19.8463 9.81276L19.4566 9.90511L19.9063 10.0325L20.0462 10.4453L19.4066 10.4563L20.1661 10.994L19.8563 11.3884L19.0668 11.5047L20.1362 12.214L20.5159 12.9466L20.376 13.0726L20.1461 12.9781L19.7064 13.3078L19.5365 13.1603L19.2167 13.4795L19.7764 13.8075L19.4766 14.0112L18.9869 13.7396L19.3166 14.2459L18.9269 14.12L18.767 14.2455L18.3972 13.6359L17.9275 13.392L17.6776 13.0241L17.4778 13.1213L17.2779 12.9048L17.108 13.6166L17.7876 13.9136L16.7882 14.1335L16.6283 14.3818L15.9787 13.9015L15.1792 14.1061L15.399 14.4527L14.9893 14.2172L14.6395 14.331L14.0798 13.9621L14.4696 14.3471L14.0499 14.2887L14.1798 14.8239L13.4502 14.1301L12.6807 14.0832L12.3909 14.5259L11.8012 13.8357L11.5514 13.8225L11.8312 14.1843L11.4215 14.1329L11.7113 14.2903L12.3209 15.2198L12.0211 15.4372L11.7812 15.2401L11.6113 15.5086L10.8318 14.9158L10.4321 14.094L9.81244 13.8531L10.0223 14.254L9.85242 14.4475L10.3321 14.5825L11.6113 16.0678L11.2116 16.9101L10.6319 16.9498L10.7719 16.3328L10.3621 16.1382L10.2422 15.6714L9.75248 15.4884L9.79245 15.7826L9.58258 15.9546L9.05291 15.9683L9.01293 15.8241L8.75309 15.8107L8.35333 16.3938L8.70312 16.5937L8.34334 16.7959L8.44328 16.9826L7.92359 16.9079L8.0835 17.5054L8.82305 17.9471L8.28337 18.5198L7.99355 18.4306L8.15345 18.346L7.88361 18.1141L7.47387 18.3491L7.84364 18.8701L8.2434 18.9416L8.01354 18.9221L8.16345 19.2874L7.57381 19.7293L8.06351 19.6804L7.92359 20.0451L9.69252 20.8814L14.1498 23.6005L14.7594 23.8139L15.0293 24.1958L15.3491 24.0812L15.2791 23.6975L15.8388 23.0571L15.8987 22.6563L16.2085 22.4732L16.3984 22.5395L16.4584 22.3023L16.9981 22.1865L16.9181 22.0412L17.8276 21.6962L19.0068 22.04L19.3566 21.9466L19.0368 21.9317L19.2567 21.7668L19.8863 21.8988L20.2961 22.3389L20.7858 22.2355L21.7052 23.0228L21.985 22.8254L21.995 21.7276L22.6446 21.0076L25.9226 23.0009L26.5223 23.5891L31.0295 26.2481L31.1294 26.3461L29.9302 27.1953L28.1613 26.4886L26.952 27.4261L24.9032 28.199L24.1337 28.0498L23.5341 27.5025L23.4441 27.1387L23.684 27.1858L23.4241 26.7018L23.654 26.7826L23.4841 26.3146L22.9744 26.8744L22.3848 26.8184L22.6446 26.9887L22.8845 27.8269L21.8751 28.3467V28.5786L22.3048 28.7942L21.9251 29.0709L22.075 29.1907L21.8651 29.2058L21.4154 28.7851L20.9057 28.9017L23.0844 30.4713L23.2343 30.2297L23.5341 30.251L23.654 30.0972L24.2936 30.2908L24.2137 30.1524L25.0831 29.5744L25.9126 30.5913L25.6628 30.6804L25.5728 30.9987L25.1931 31.1185V31.4186L25.9426 31.3423L26.0525 31.5156L25.8227 31.6734L26.1925 31.8874L25.9426 32.1607L28.1413 33.2944L28.3711 36.6762L28.7109 37.1895L28.4711 37.2584L28.4911 38.0159L30.0601 40.593L29.7003 40.7407L31.939 44.0374L34.7472 45.8414L37.8753 46.0031L39.9041 46.4505L42.4426 47.6338L44.7012 49.1919L46.8699 51.3069L46.1403 51.7179L46.0304 51.2991L45.4107 51.5697L45.4507 51.8299L45.2608 51.6886L45.001 51.7502L45.0909 52.0185L44.6812 52.3899L45.8805 52.0796L47.7393 53.6343L47.5894 53.1871L49.2184 52.8604L50.6775 53.9548L50.8974 54.0423L56.3741 52.218L64.1393 53.5416L62.8301 52.8603L63.2898 50.4577L63.8095 49.4548L63.4697 47.8093L63.9295 47.6506L63.5397 47.1291L65.1187 46.6648L64.1493 42.6367L68.3767 39.1778L72.4443 38.0268L68.6965 34.753L65.5085 31.5207L63.3998 30.2256L59.1824 28.297L57.3035 26.2712L52.9961 18.857L48.4889 17.5689L47.3296 16.8368L46.7599 15.1582L46.4201 14.8699L46.6 14.7926L46.3502 14.0019L45.041 13.6343L42.5825 10.3184L42.1327 7.06061L39.5243 5.9369L37.6655 5.60298L37.8254 5.21151L36.5761 4.67493L36.4962 4.76836L35.5867 4.4587L35.4468 4.12094L35.3469 4.27525L34.8172 4.09805L34.8272 4.35745L34.6273 4.36599L33.2382 3.57349L32.7185 4.18084L32.5386 4.16942L32.3987 3.84532L32.8184 3.5696L32.6085 3.4892L32.6685 3.14974L31.9489 2.88585L31.7391 2.53267L31.1994 2.52571L29.7503 1.77942L29.7603 1.97746L29.4805 1.99759Z" fill="white"/>
</svg>
