<svg width="63" height="54" viewBox="0 0 63 54" fill="none" xmlns="http://www.w3.org/2000/svg">
<path fill-rule="evenodd" clip-rule="evenodd" d="M15.689 0.761733L16.6983 0.548828L16.0004 15.167L14.991 15.3799L15.689 0.761733Z" fill="#6580E1" fill-opacity="0.6"/>
<path fill-rule="evenodd" clip-rule="evenodd" d="M16.6982 0.548828L17.2779 0.856889L16.5799 15.4751L16.0002 15.167L16.6982 0.548828Z" fill="#6580E1" fill-opacity="0.6"/>
<path fill-rule="evenodd" clip-rule="evenodd" d="M17.2778 0.856939L19.5065 0L18.8085 14.6182L16.5798 15.4751L17.2778 0.856939Z" fill="#6580E1" fill-opacity="0.6"/>
<path fill-rule="evenodd" clip-rule="evenodd" d="M19.5066 0L20.7558 2.187L20.0578 16.8052L18.8086 14.6182L19.5066 0Z" fill="#6580E1" fill-opacity="0.6"/>
<path fill-rule="evenodd" clip-rule="evenodd" d="M20.7558 2.18701L19.4866 3.17759L18.7886 17.7958L20.0578 16.8052L20.7558 2.18701Z" fill="#6580E1" fill-opacity="0.6"/>
<path fill-rule="evenodd" clip-rule="evenodd" d="M19.4866 3.17749L20.476 3.85067L19.778 18.4688L18.7886 17.7957L19.4866 3.17749Z" fill="#6580E1" fill-opacity="0.6"/>
<path fill-rule="evenodd" clip-rule="evenodd" d="M20.4758 3.85074L23.1542 2.85522L22.4562 17.4734L19.7778 18.4689L20.4758 3.85074Z" fill="#6580E1" fill-opacity="0.6"/>
<path fill-rule="evenodd" clip-rule="evenodd" d="M23.1543 2.85507L23.634 2.40356L22.936 17.0217L22.4563 17.4732L23.1543 2.85507Z" fill="#6580E1" fill-opacity="0.6"/>
<path fill-rule="evenodd" clip-rule="evenodd" d="M23.634 2.40359L24.0838 1.17383L23.3858 15.792L22.936 17.0217L23.634 2.40359Z" fill="#6580E1" fill-opacity="0.6"/>
<path fill-rule="evenodd" clip-rule="evenodd" d="M24.0837 1.17399L26.4523 0.545654L25.7543 15.1638L23.3857 15.7922L24.0837 1.17399Z" fill="#6580E1" fill-opacity="0.6"/>
<path fill-rule="evenodd" clip-rule="evenodd" d="M26.4524 0.545517L27.4918 0.483398L26.7938 15.1016L25.7544 15.1637L26.4524 0.545517Z" fill="#6580E1" fill-opacity="0.6"/>
<path fill-rule="evenodd" clip-rule="evenodd" d="M27.4917 0.483398L27.9914 2.24207L27.2934 16.8602L26.7937 15.1016L27.4917 0.483398Z" fill="#6580E1" fill-opacity="0.6"/>
<path fill-rule="evenodd" clip-rule="evenodd" d="M27.9915 2.24219L27.8516 2.41594L27.1536 17.0341L27.2935 16.8604L27.9915 2.24219Z" fill="#6580E1" fill-opacity="0.6"/>
<path fill-rule="evenodd" clip-rule="evenodd" d="M27.8516 2.41577L28.811 3.17002L28.113 17.7882L27.1536 17.0339L27.8516 2.41577Z" fill="#6580E1" fill-opacity="0.6"/>
<path fill-rule="evenodd" clip-rule="evenodd" d="M28.8108 3.17017L29.1206 3.89417L28.4226 18.5123L28.1128 17.7883L28.8108 3.17017Z" fill="#6580E1" fill-opacity="0.6"/>
<path fill-rule="evenodd" clip-rule="evenodd" d="M29.1208 3.89404L28.6111 5.10861L27.9131 19.7268L28.4228 18.5122L29.1208 3.89404Z" fill="#6580E1" fill-opacity="0.6"/>
<path fill-rule="evenodd" clip-rule="evenodd" d="M28.6111 5.10864L32.5687 6.64873L31.8707 21.2669L27.9131 19.7268L28.6111 5.10864Z" fill="#6580E1" fill-opacity="0.6"/>
<path fill-rule="evenodd" clip-rule="evenodd" d="M32.5686 6.64882L34.6673 6.51831L33.9693 21.1365L31.8706 21.267L32.5686 6.64882Z" fill="#6580E1" fill-opacity="0.6"/>
<path fill-rule="evenodd" clip-rule="evenodd" d="M34.6672 6.51829L35.4068 6.1416L34.7088 20.7598L33.9692 21.1364L34.6672 6.51829Z" fill="#6580E1" fill-opacity="0.6"/>
<path fill-rule="evenodd" clip-rule="evenodd" d="M35.4067 6.1416L36.0264 6.36202L35.3284 20.9802L34.7087 20.7598L35.4067 6.1416Z" fill="#6580E1" fill-opacity="0.6"/>
<path fill-rule="evenodd" clip-rule="evenodd" d="M36.0264 6.36209L37.9552 6.30908L37.2572 20.9272L35.3284 20.9803L36.0264 6.36209Z" fill="#6580E1" fill-opacity="0.6"/>
<path fill-rule="evenodd" clip-rule="evenodd" d="M37.9553 6.30908L38.2351 7.28465L37.5372 21.9028L37.2573 20.9272L37.9553 6.30908Z" fill="#6580E1" fill-opacity="0.6"/>
<path fill-rule="evenodd" clip-rule="evenodd" d="M38.2351 7.28442L37.3057 8.17451L36.6077 22.7927L37.5371 21.9026L38.2351 7.28442Z" fill="#6580E1" fill-opacity="0.6"/>
<path fill-rule="evenodd" clip-rule="evenodd" d="M37.3056 8.17456L37.2756 8.58988L36.5776 23.208L36.6076 22.7927L37.3056 8.17456Z" fill="#6580E1" fill-opacity="0.6"/>
<path fill-rule="evenodd" clip-rule="evenodd" d="M37.2757 8.58984L37.0059 8.83529L36.3079 23.4535L36.5777 23.208L37.2757 8.58984Z" fill="#6580E1" fill-opacity="0.6"/>
<path fill-rule="evenodd" clip-rule="evenodd" d="M37.0059 8.83545L37.3556 9.11718L36.6576 23.7353L36.3079 23.4536L37.0059 8.83545Z" fill="#6580E1" fill-opacity="0.6"/>
<path fill-rule="evenodd" clip-rule="evenodd" d="M37.3557 9.11707L37.8254 8.88354L37.1274 23.5017L36.6577 23.7352L37.3557 9.11707Z" fill="#6580E1" fill-opacity="0.6"/>
<path fill-rule="evenodd" clip-rule="evenodd" d="M37.8254 8.88354L38.3751 9.23176L37.6771 23.8499L37.1274 23.5017L37.8254 8.88354Z" fill="#6580E1" fill-opacity="0.6"/>
<path fill-rule="evenodd" clip-rule="evenodd" d="M38.375 9.23193L38.405 9.4714L37.707 24.0896L37.677 23.8501L38.375 9.23193Z" fill="#6580E1" fill-opacity="0.6"/>
<path fill-rule="evenodd" clip-rule="evenodd" d="M38.405 9.47119L38.7548 9.58242L38.0568 24.2006L37.707 24.0894L38.405 9.47119Z" fill="#6580E1" fill-opacity="0.6"/>
<path fill-rule="evenodd" clip-rule="evenodd" d="M38.7548 9.58252L37.1558 9.75992L36.4578 24.3781L38.0568 24.2007L38.7548 9.58252Z" fill="#6580E1" fill-opacity="0.6"/>
<path fill-rule="evenodd" clip-rule="evenodd" d="M37.1557 9.76001L36.0664 10.496L35.3684 25.1142L36.4577 24.3782L37.1557 9.76001Z" fill="#6580E1" fill-opacity="0.6"/>
<path fill-rule="evenodd" clip-rule="evenodd" d="M36.0665 10.4958L35.9966 11.4215L35.2986 26.0397L35.3685 25.114L36.0665 10.4958Z" fill="#6580E1" fill-opacity="0.6"/>
<path fill-rule="evenodd" clip-rule="evenodd" d="M35.9966 11.4216L36.4063 12.3256L35.7083 26.9437L35.2986 26.0398L35.9966 11.4216Z" fill="#6580E1" fill-opacity="0.6"/>
<path fill-rule="evenodd" clip-rule="evenodd" d="M36.4063 12.3254L35.8267 13.1086L35.1287 27.7267L35.7083 26.9436L36.4063 12.3254Z" fill="#6580E1" fill-opacity="0.6"/>
<path fill-rule="evenodd" clip-rule="evenodd" d="M35.8267 13.1086L36.826 13.6934L36.1281 28.3116L35.1287 27.7268L35.8267 13.1086Z" fill="#6580E1" fill-opacity="0.6"/>
<path fill-rule="evenodd" clip-rule="evenodd" d="M36.8259 13.6935L37.5755 13.2761L36.8775 27.8943L36.1279 28.3116L36.8259 13.6935Z" fill="#6580E1" fill-opacity="0.6"/>
<path fill-rule="evenodd" clip-rule="evenodd" d="M37.5754 13.2762L37.9852 13.2661L37.2872 27.8843L36.8774 27.8943L37.5754 13.2762Z" fill="#6580E1" fill-opacity="0.6"/>
<path fill-rule="evenodd" clip-rule="evenodd" d="M37.9853 13.2661L38.3951 14.0746L37.6971 28.6927L37.2874 27.8843L37.9853 13.2661Z" fill="#6580E1" fill-opacity="0.6"/>
<path fill-rule="evenodd" clip-rule="evenodd" d="M38.395 14.0745L38.415 14.6479L37.717 29.266L37.697 28.6926L38.395 14.0745Z" fill="#6580E1" fill-opacity="0.6"/>
<path fill-rule="evenodd" clip-rule="evenodd" d="M38.415 14.6479L38.6249 14.9329L37.9269 29.5511L37.717 29.2661L38.415 14.6479Z" fill="#6580E1" fill-opacity="0.6"/>
<path fill-rule="evenodd" clip-rule="evenodd" d="M38.625 14.933L39.0747 14.8831L38.3767 29.5012L37.927 29.5511L38.625 14.933Z" fill="#6580E1" fill-opacity="0.6"/>
<path fill-rule="evenodd" clip-rule="evenodd" d="M39.0747 14.8831L39.2146 15.1526L38.5166 29.7708L38.3767 29.5012L39.0747 14.8831Z" fill="#6580E1" fill-opacity="0.6"/>
<path fill-rule="evenodd" clip-rule="evenodd" d="M39.2146 15.1526L37.0659 15.8138L36.3679 30.432L38.5166 29.7708L39.2146 15.1526Z" fill="#6580E1" fill-opacity="0.6"/>
<path fill-rule="evenodd" clip-rule="evenodd" d="M37.0658 15.8137L36.2063 15.6758L35.5083 30.2939L36.3678 30.4318L37.0658 15.8137Z" fill="#6580E1" fill-opacity="0.6"/>
<path fill-rule="evenodd" clip-rule="evenodd" d="M36.2064 15.6758L35.5068 15.0168L34.8088 29.635L35.5084 30.294L36.2064 15.6758Z" fill="#6580E1" fill-opacity="0.6"/>
<path fill-rule="evenodd" clip-rule="evenodd" d="M35.5069 15.0168L35.227 15.187L34.5291 29.8052L34.8089 29.635L35.5069 15.0168Z" fill="#6580E1" fill-opacity="0.6"/>
<path fill-rule="evenodd" clip-rule="evenodd" d="M35.227 15.187L35.6668 15.7302L34.9688 30.3484L34.5291 29.8052L35.227 15.187Z" fill="#6580E1" fill-opacity="0.6"/>
<path fill-rule="evenodd" clip-rule="evenodd" d="M35.6667 15.7302L38.2052 17.916L37.5072 32.5342L34.9688 30.3484L35.6667 15.7302Z" fill="#6580E1" fill-opacity="0.6"/>
<path fill-rule="evenodd" clip-rule="evenodd" d="M38.2051 17.916L40.9934 18.4511L40.2954 33.0692L37.5071 32.5342L38.2051 17.916Z" fill="#6580E1" fill-opacity="0.6"/>
<path fill-rule="evenodd" clip-rule="evenodd" d="M40.9934 18.4512L43.1921 19.1416L42.4941 33.7597L40.2954 33.0693L40.9934 18.4512Z" fill="#6580E1" fill-opacity="0.6"/>
<path fill-rule="evenodd" clip-rule="evenodd" d="M43.1921 19.1416L45.7706 21.799L45.0726 36.4172L42.4941 33.7598L43.1921 19.1416Z" fill="#6580E1" fill-opacity="0.6"/>
<path fill-rule="evenodd" clip-rule="evenodd" d="M45.7705 21.7991L47.4495 22.8309L46.7515 37.449L45.0725 36.4172L45.7705 21.7991Z" fill="#6580E1" fill-opacity="0.6"/>
<path fill-rule="evenodd" clip-rule="evenodd" d="M47.4495 22.8308L48.8086 22.92L48.1106 37.5382L46.7515 37.449L47.4495 22.8308Z" fill="#6580E1" fill-opacity="0.6"/>
<path fill-rule="evenodd" clip-rule="evenodd" d="M48.8086 22.9198L50.8074 22.6299L50.1094 37.248L48.1106 37.538L48.8086 22.9198Z" fill="#6580E1" fill-opacity="0.6"/>
<path fill-rule="evenodd" clip-rule="evenodd" d="M50.8074 22.6299L52.976 22.8422L52.2781 37.4604L50.1094 37.248L50.8074 22.6299Z" fill="#6580E1" fill-opacity="0.6"/>
<path fill-rule="evenodd" clip-rule="evenodd" d="M52.9761 22.8423L54.1254 23.1649L53.4274 37.7831L52.2781 37.4604L52.9761 22.8423Z" fill="#6580E1" fill-opacity="0.6"/>
<path fill-rule="evenodd" clip-rule="evenodd" d="M54.1255 23.165L54.0056 23.4893L53.3076 38.1075L53.4275 37.7832L54.1255 23.165Z" fill="#6580E1" fill-opacity="0.6"/>
<path fill-rule="evenodd" clip-rule="evenodd" d="M54.0056 23.4893L54.7252 24.7216L54.0272 39.3398L53.3076 38.1074L54.0056 23.4893Z" fill="#6580E1" fill-opacity="0.6"/>
<path fill-rule="evenodd" clip-rule="evenodd" d="M54.7251 24.7214L56.0043 24.8564L55.3063 39.4746L54.0271 39.3396L54.7251 24.7214Z" fill="#6580E1" fill-opacity="0.6"/>
<path fill-rule="evenodd" clip-rule="evenodd" d="M56.0044 24.8566L56.634 24.4158L55.936 39.0339L55.3064 39.4748L56.0044 24.8566Z" fill="#6580E1" fill-opacity="0.6"/>
<path fill-rule="evenodd" clip-rule="evenodd" d="M56.6338 24.4158L57.1635 24.593L56.4655 39.2111L55.9358 39.0339L56.6338 24.4158Z" fill="#6580E1" fill-opacity="0.6"/>
<path fill-rule="evenodd" clip-rule="evenodd" d="M57.1636 24.5928L58.4628 24.6396L57.7648 39.2578L56.4656 39.2109L57.1636 24.5928Z" fill="#6580E1" fill-opacity="0.6"/>
<path fill-rule="evenodd" clip-rule="evenodd" d="M58.4629 24.6396L58.8227 25.8969L58.1247 40.5151L57.7649 39.2578L58.4629 24.6396Z" fill="#6580E1" fill-opacity="0.6"/>
<path fill-rule="evenodd" clip-rule="evenodd" d="M58.8225 25.897L60.1217 27.7033L59.4237 42.3215L58.1245 40.5151L58.8225 25.897Z" fill="#6580E1" fill-opacity="0.6"/>
<path fill-rule="evenodd" clip-rule="evenodd" d="M60.1218 27.7034L61.7608 28.2635L61.0628 42.8817L59.4238 42.3215L60.1218 27.7034Z" fill="#6580E1" fill-opacity="0.6"/>
<path fill-rule="evenodd" clip-rule="evenodd" d="M61.7607 28.2634L61.9206 28.6153L61.2226 43.2335L61.0627 42.8816L61.7607 28.2634Z" fill="#6580E1" fill-opacity="0.6"/>
<path fill-rule="evenodd" clip-rule="evenodd" d="M61.9207 28.6155L61.7908 29.1032L61.0928 43.7214L61.2227 43.2336L61.9207 28.6155Z" fill="#6580E1" fill-opacity="0.6"/>
<path fill-rule="evenodd" clip-rule="evenodd" d="M61.7908 29.1032L63.01 29.0388L62.312 43.657L61.0928 43.7213L61.7908 29.1032Z" fill="#6580E1" fill-opacity="0.6"/>
<path fill-rule="evenodd" clip-rule="evenodd" d="M63.0101 29.0388L59.2024 31.7991L58.5044 46.4173L62.3121 43.657L63.0101 29.0388Z" fill="#6580E1" fill-opacity="0.6"/>
<path fill-rule="evenodd" clip-rule="evenodd" d="M59.2023 31.7991L58.103 32.9167L57.405 47.5348L58.5044 46.4172L59.2023 31.7991Z" fill="#6580E1" fill-opacity="0.6"/>
<path fill-rule="evenodd" clip-rule="evenodd" d="M58.103 32.9167L58.2729 33.7123L57.5749 48.3304L57.405 47.5349L58.103 32.9167Z" fill="#6580E1" fill-opacity="0.6"/>
<path fill-rule="evenodd" clip-rule="evenodd" d="M58.2729 33.7122L57.2934 33.994L56.5955 48.6122L57.5749 48.3303L58.2729 33.7122Z" fill="#6580E1" fill-opacity="0.6"/>
<path fill-rule="evenodd" clip-rule="evenodd" d="M57.2936 33.9941L56.7639 34.3557L56.0659 48.9739L56.5956 48.6123L57.2936 33.9941Z" fill="#6580E1" fill-opacity="0.6"/>
<path fill-rule="evenodd" clip-rule="evenodd" d="M56.7638 34.3556L56.394 34.3394L55.696 48.9575L56.0658 48.9738L56.7638 34.3556Z" fill="#6580E1" fill-opacity="0.6"/>
<path fill-rule="evenodd" clip-rule="evenodd" d="M56.3941 34.3393L55.8245 33.0972L55.1265 47.7153L55.6961 48.9575L56.3941 34.3393Z" fill="#6580E1" fill-opacity="0.6"/>
<path fill-rule="evenodd" clip-rule="evenodd" d="M55.8245 33.0973L55.9944 32.8357L55.2964 47.4539L55.1265 47.7155L55.8245 33.0973Z" fill="#6580E1" fill-opacity="0.6"/>
<path fill-rule="evenodd" clip-rule="evenodd" d="M55.9942 32.8356L55.7244 32.6719L55.0264 47.29L55.2962 47.4538L55.9942 32.8356Z" fill="#6580E1" fill-opacity="0.6"/>
<path fill-rule="evenodd" clip-rule="evenodd" d="M55.7245 32.6719L55.3447 32.7645L54.6467 47.3826L55.0265 47.29L55.7245 32.6719Z" fill="#6580E1" fill-opacity="0.6"/>
<path fill-rule="evenodd" clip-rule="evenodd" d="M55.3448 32.7645L54.7851 32.6411L54.0872 47.2593L54.6468 47.3827L55.3448 32.7645Z" fill="#6580E1" fill-opacity="0.6"/>
<path fill-rule="evenodd" clip-rule="evenodd" d="M54.785 32.6411L54.3752 32.8148L53.6772 47.433L54.087 47.2593L54.785 32.6411Z" fill="#6580E1" fill-opacity="0.6"/>
<path fill-rule="evenodd" clip-rule="evenodd" d="M54.3752 32.8147L54.835 33.2084L54.137 47.8265L53.6772 47.4329L54.3752 32.8147Z" fill="#6580E1" fill-opacity="0.6"/>
<path fill-rule="evenodd" clip-rule="evenodd" d="M54.835 33.2085L54.2454 33.398L53.5474 48.0162L54.137 47.8267L54.835 33.2085Z" fill="#6580E1" fill-opacity="0.6"/>
<path fill-rule="evenodd" clip-rule="evenodd" d="M54.2454 33.3979L54.4752 33.5743L53.7772 48.1925L53.5474 48.0161L54.2454 33.3979Z" fill="#6580E1" fill-opacity="0.6"/>
<path fill-rule="evenodd" clip-rule="evenodd" d="M54.4753 33.5742L54.4853 34.0519L53.7873 48.67L53.7773 48.1924L54.4753 33.5742Z" fill="#6580E1" fill-opacity="0.6"/>
<path fill-rule="evenodd" clip-rule="evenodd" d="M54.4852 34.052L54.2353 34.4889L53.5374 49.1071L53.7872 48.6702L54.4852 34.052Z" fill="#6580E1" fill-opacity="0.6"/>
<path fill-rule="evenodd" clip-rule="evenodd" d="M54.2353 34.489L54.4152 34.8686L53.7172 49.4868L53.5374 49.1072L54.2353 34.489Z" fill="#6580E1" fill-opacity="0.6"/>
<path fill-rule="evenodd" clip-rule="evenodd" d="M54.4153 34.8687L55.0449 35.0007L54.3469 49.6189L53.7173 49.4868L54.4153 34.8687Z" fill="#6580E1" fill-opacity="0.6"/>
<path fill-rule="evenodd" clip-rule="evenodd" d="M55.0449 35.0007L55.2248 35.4486L54.5268 50.0668L54.3469 49.6189L55.0449 35.0007Z" fill="#6580E1" fill-opacity="0.6"/>
<path fill-rule="evenodd" clip-rule="evenodd" d="M55.2247 35.4485L54.8249 35.5815L54.127 50.1997L54.5267 50.0667L55.2247 35.4485Z" fill="#6580E1" fill-opacity="0.6"/>
<path fill-rule="evenodd" clip-rule="evenodd" d="M54.825 35.5815L54.7151 35.947L54.0171 50.5652L54.127 50.1997L54.825 35.5815Z" fill="#6580E1" fill-opacity="0.6"/>
<path fill-rule="evenodd" clip-rule="evenodd" d="M54.7151 35.947L55.1348 36.1623L54.4368 50.7805L54.0171 50.5652L54.7151 35.947Z" fill="#6580E1" fill-opacity="0.6"/>
<path fill-rule="evenodd" clip-rule="evenodd" d="M55.1349 36.1624L55.0749 36.6109L54.377 51.2291L54.4369 50.7805L55.1349 36.1624Z" fill="#6580E1" fill-opacity="0.6"/>
<path fill-rule="evenodd" clip-rule="evenodd" d="M55.075 36.6108L54.7751 36.7328L54.0771 51.3509L54.377 51.229L55.075 36.6108Z" fill="#6580E1" fill-opacity="0.6"/>
<path fill-rule="evenodd" clip-rule="evenodd" d="M54.7751 36.7329L53.8357 36.4634L53.1377 51.0815L54.0771 51.3511L54.7751 36.7329Z" fill="#6580E1" fill-opacity="0.6"/>
<path fill-rule="evenodd" clip-rule="evenodd" d="M53.8356 36.4634L53.196 36.9449L52.498 51.5631L53.1377 51.0815L53.8356 36.4634Z" fill="#6580E1" fill-opacity="0.6"/>
<path fill-rule="evenodd" clip-rule="evenodd" d="M53.1959 36.9449L52.3564 36.7461L51.6584 51.3643L52.4979 51.563L53.1959 36.9449Z" fill="#6580E1" fill-opacity="0.6"/>
<path fill-rule="evenodd" clip-rule="evenodd" d="M52.3565 36.7461L52.2266 36.5791L51.5286 51.1973L51.6585 51.3643L52.3565 36.7461Z" fill="#6580E1" fill-opacity="0.6"/>
<path fill-rule="evenodd" clip-rule="evenodd" d="M52.2265 36.5791L51.5869 36.5422L50.8889 51.1604L51.5285 51.1973L52.2265 36.5791Z" fill="#6580E1" fill-opacity="0.6"/>
<path fill-rule="evenodd" clip-rule="evenodd" d="M51.5869 36.5422L51.437 36.5794L50.739 51.1976L50.8889 51.1604L51.5869 36.5422Z" fill="#6580E1" fill-opacity="0.6"/>
<path fill-rule="evenodd" clip-rule="evenodd" d="M51.437 36.5793L51.5969 36.9926L50.8989 51.6108L50.739 51.1975L51.437 36.5793Z" fill="#6580E1" fill-opacity="0.6"/>
<path fill-rule="evenodd" clip-rule="evenodd" d="M51.5969 36.9927L51.1472 37.0085L50.4492 51.6266L50.8989 51.6108L51.5969 36.9927Z" fill="#6580E1" fill-opacity="0.6"/>
<path fill-rule="evenodd" clip-rule="evenodd" d="M51.1473 37.0085L50.8774 36.7356L50.1794 51.3538L50.4493 51.6266L51.1473 37.0085Z" fill="#6580E1" fill-opacity="0.6"/>
<path fill-rule="evenodd" clip-rule="evenodd" d="M50.8775 36.7355L50.158 36.5603L49.46 51.1785L50.1795 51.3537L50.8775 36.7355Z" fill="#6580E1" fill-opacity="0.6"/>
<path fill-rule="evenodd" clip-rule="evenodd" d="M50.158 36.5603L50.4278 37.0241L49.7298 51.6422L49.46 51.1785L50.158 36.5603Z" fill="#6580E1" fill-opacity="0.6"/>
<path fill-rule="evenodd" clip-rule="evenodd" d="M50.4277 37.0242L51.2172 37.3922L50.5193 52.0104L49.7297 51.6423L50.4277 37.0242Z" fill="#6580E1" fill-opacity="0.6"/>
<path fill-rule="evenodd" clip-rule="evenodd" d="M51.2172 37.3921L51.1973 37.6507L50.4993 52.2689L50.5193 52.0103L51.2172 37.3921Z" fill="#6580E1" fill-opacity="0.6"/>
<path fill-rule="evenodd" clip-rule="evenodd" d="M51.1973 37.6509L49.8381 37.2888L49.1401 51.907L50.4993 52.2691L51.1973 37.6509Z" fill="#6580E1" fill-opacity="0.6"/>
<path fill-rule="evenodd" clip-rule="evenodd" d="M49.838 37.2887L49.4582 36.938L48.7603 51.5562L49.14 51.9068L49.838 37.2887Z" fill="#6580E1" fill-opacity="0.6"/>
<path fill-rule="evenodd" clip-rule="evenodd" d="M49.4582 36.9381L49.4182 36.6165L48.7202 51.2346L48.7602 51.5562L49.4582 36.9381Z" fill="#6580E1" fill-opacity="0.6"/>
<path fill-rule="evenodd" clip-rule="evenodd" d="M49.4184 36.6165L49.3984 36.7115L48.7004 51.3297L48.7204 51.2346L49.4184 36.6165Z" fill="#6580E1" fill-opacity="0.6"/>
<path fill-rule="evenodd" clip-rule="evenodd" d="M49.3983 36.7115L48.7288 36.2852L48.0308 50.9033L48.7004 51.3296L49.3983 36.7115Z" fill="#6580E1" fill-opacity="0.6"/>
<path fill-rule="evenodd" clip-rule="evenodd" d="M48.7288 36.2852L48.449 36.4485L47.751 51.0667L48.0308 50.9033L48.7288 36.2852Z" fill="#6580E1" fill-opacity="0.6"/>
<path fill-rule="evenodd" clip-rule="evenodd" d="M48.4489 36.4486L47.6394 35.9915L46.9414 50.6096L47.7509 51.0668L48.4489 36.4486Z" fill="#6580E1" fill-opacity="0.6"/>
<path fill-rule="evenodd" clip-rule="evenodd" d="M47.6395 35.9915L47.3796 36.0257L46.6816 50.6439L46.9415 50.6096L47.6395 35.9915Z" fill="#6580E1" fill-opacity="0.6"/>
<path fill-rule="evenodd" clip-rule="evenodd" d="M47.3795 36.0255L47.1196 35.637L46.4216 50.2551L46.6815 50.6437L47.3795 36.0255Z" fill="#6580E1" fill-opacity="0.6"/>
<path fill-rule="evenodd" clip-rule="evenodd" d="M47.1196 35.637L46.8098 35.8268L46.1118 50.4449L46.4216 50.2551L47.1196 35.637Z" fill="#6580E1" fill-opacity="0.6"/>
<path fill-rule="evenodd" clip-rule="evenodd" d="M46.8098 35.8269L46.8898 36.0609L46.1918 50.6791L46.1118 50.4451L46.8098 35.8269Z" fill="#6580E1" fill-opacity="0.6"/>
<path fill-rule="evenodd" clip-rule="evenodd" d="M46.8898 36.0608L46.0603 36.2101L45.3623 50.8283L46.1918 50.679L46.8898 36.0608Z" fill="#6580E1" fill-opacity="0.6"/>
<path fill-rule="evenodd" clip-rule="evenodd" d="M46.0604 36.2102L46.0005 36.4882L45.3025 51.1064L45.3625 50.8284L46.0604 36.2102Z" fill="#6580E1" fill-opacity="0.6"/>
<path fill-rule="evenodd" clip-rule="evenodd" d="M46.0005 36.4883L46.3403 36.9676L45.6423 51.5858L45.3025 51.1064L46.0005 36.4883Z" fill="#6580E1" fill-opacity="0.6"/>
<path fill-rule="evenodd" clip-rule="evenodd" d="M46.3401 36.9675L46.8498 37.0283L46.1518 51.6465L45.6421 51.5857L46.3401 36.9675Z" fill="#6580E1" fill-opacity="0.6"/>
<path fill-rule="evenodd" clip-rule="evenodd" d="M46.8498 37.0283L47.1796 37.6301L46.4817 52.2482L46.1519 51.6465L46.8498 37.0283Z" fill="#6580E1" fill-opacity="0.6"/>
<path fill-rule="evenodd" clip-rule="evenodd" d="M47.1797 37.6301L47.0398 37.8788L46.3418 52.497L46.4817 52.2483L47.1797 37.6301Z" fill="#6580E1" fill-opacity="0.6"/>
<path fill-rule="evenodd" clip-rule="evenodd" d="M47.0398 37.8787L46.5701 37.8123L45.8721 52.4304L46.3418 52.4969L47.0398 37.8787Z" fill="#6580E1" fill-opacity="0.6"/>
<path fill-rule="evenodd" clip-rule="evenodd" d="M46.57 37.8123L45.7705 37.2258L45.0725 51.844L45.872 52.4305L46.57 37.8123Z" fill="#6580E1" fill-opacity="0.6"/>
<path fill-rule="evenodd" clip-rule="evenodd" d="M45.7704 37.2258L45.2707 37.363L44.5728 51.9812L45.0724 51.844L45.7704 37.2258Z" fill="#6580E1" fill-opacity="0.6"/>
<path fill-rule="evenodd" clip-rule="evenodd" d="M45.2707 37.363L45.2607 37.5811L44.5627 52.1993L44.5727 51.9812L45.2707 37.363Z" fill="#6580E1" fill-opacity="0.6"/>
<path fill-rule="evenodd" clip-rule="evenodd" d="M45.2608 37.5811L45.001 37.5745L44.303 52.1926L44.5628 52.1993L45.2608 37.5811Z" fill="#6580E1" fill-opacity="0.6"/>
<path fill-rule="evenodd" clip-rule="evenodd" d="M45.0009 37.5743L44.4812 37.2405L43.7832 51.8586L44.3029 52.1925L45.0009 37.5743Z" fill="#6580E1" fill-opacity="0.6"/>
<path fill-rule="evenodd" clip-rule="evenodd" d="M44.4812 37.2406L44.5412 36.7988L43.8432 51.417L43.7832 51.8588L44.4812 37.2406Z" fill="#6580E1" fill-opacity="0.6"/>
<path fill-rule="evenodd" clip-rule="evenodd" d="M44.5414 36.7987L43.2322 35.79L42.5342 50.4082L43.8434 51.4169L44.5414 36.7987Z" fill="#6580E1" fill-opacity="0.6"/>
<path fill-rule="evenodd" clip-rule="evenodd" d="M43.232 35.79L43.102 36.1549L42.4041 50.7731L42.534 50.4082L43.232 35.79Z" fill="#6580E1" fill-opacity="0.6"/>
<path fill-rule="evenodd" clip-rule="evenodd" d="M43.102 36.155L43.5917 36.379L42.8938 50.9972L42.4041 50.7732L43.102 36.155Z" fill="#6580E1" fill-opacity="0.6"/>
<path fill-rule="evenodd" clip-rule="evenodd" d="M43.5918 36.3789L43.4319 36.5794L42.7339 51.1976L42.8938 50.9971L43.5918 36.3789Z" fill="#6580E1" fill-opacity="0.6"/>
<path fill-rule="evenodd" clip-rule="evenodd" d="M43.4319 36.5795L42.2427 36.4536L41.5447 51.0718L42.734 51.1976L43.4319 36.5795Z" fill="#6580E1" fill-opacity="0.6"/>
<path fill-rule="evenodd" clip-rule="evenodd" d="M42.2426 36.4537L42.2026 36.2412L41.5046 50.8594L41.5446 51.0718L42.2426 36.4537Z" fill="#6580E1" fill-opacity="0.6"/>
<path fill-rule="evenodd" clip-rule="evenodd" d="M42.2026 36.2413L42.8622 36.1013L42.1642 50.7195L41.5046 50.8595L42.2026 36.2413Z" fill="#6580E1" fill-opacity="0.6"/>
<path fill-rule="evenodd" clip-rule="evenodd" d="M42.8623 36.1011L42.9422 35.844L42.2443 50.4622L42.1643 50.7193L42.8623 36.1011Z" fill="#6580E1" fill-opacity="0.6"/>
<path fill-rule="evenodd" clip-rule="evenodd" d="M42.9423 35.8441L42.7324 35.634L42.0344 50.2522L42.2443 50.4622L42.9423 35.8441Z" fill="#6580E1" fill-opacity="0.6"/>
<path fill-rule="evenodd" clip-rule="evenodd" d="M42.7324 35.634L42.1128 35.7274L41.4148 50.3456L42.0344 50.2522L42.7324 35.634Z" fill="#6580E1" fill-opacity="0.6"/>
<path fill-rule="evenodd" clip-rule="evenodd" d="M42.1127 35.7275L41.2932 35.5088L40.5952 50.127L41.4147 50.3457L42.1127 35.7275Z" fill="#6580E1" fill-opacity="0.6"/>
<path fill-rule="evenodd" clip-rule="evenodd" d="M41.2932 35.5087L41.1133 34.979L40.4153 49.5972L40.5952 50.1269L41.2932 35.5087Z" fill="#6580E1" fill-opacity="0.6"/>
<path fill-rule="evenodd" clip-rule="evenodd" d="M41.1133 34.979L40.4936 35.2292L39.7957 49.8473L40.4153 49.5972L41.1133 34.979Z" fill="#6580E1" fill-opacity="0.6"/>
<path fill-rule="evenodd" clip-rule="evenodd" d="M40.4937 35.2292L40.2439 35.6184L39.5459 50.2366L39.7957 49.8474L40.4937 35.2292Z" fill="#6580E1" fill-opacity="0.6"/>
<path fill-rule="evenodd" clip-rule="evenodd" d="M40.2439 35.6183L39.8142 35.3071L39.1162 49.9253L39.5459 50.2364L40.2439 35.6183Z" fill="#6580E1" fill-opacity="0.6"/>
<path fill-rule="evenodd" clip-rule="evenodd" d="M39.8142 35.3072L39.8342 35.0759L39.1362 49.6941L39.1162 49.9254L39.8142 35.3072Z" fill="#6580E1" fill-opacity="0.6"/>
<path fill-rule="evenodd" clip-rule="evenodd" d="M39.8341 35.0759L38.8347 34.7776L38.1367 49.3958L39.1361 49.6941L39.8341 35.0759Z" fill="#6580E1" fill-opacity="0.6"/>
<path fill-rule="evenodd" clip-rule="evenodd" d="M38.8348 34.7776L38.4551 35.0475L37.7571 49.6657L38.1368 49.3958L38.8348 34.7776Z" fill="#6580E1" fill-opacity="0.6"/>
<path fill-rule="evenodd" clip-rule="evenodd" d="M38.4551 35.0476L37.7056 35.199L37.0076 49.8171L37.7571 49.6658L38.4551 35.0476Z" fill="#6580E1" fill-opacity="0.6"/>
<path fill-rule="evenodd" clip-rule="evenodd" d="M37.7055 35.199L37.6655 34.7546L36.9675 49.3728L37.0075 49.8171L37.7055 35.199Z" fill="#6580E1" fill-opacity="0.6"/>
<path fill-rule="evenodd" clip-rule="evenodd" d="M37.6655 34.7546L37.9354 34.4478L37.2374 49.0659L36.9675 49.3728L37.6655 34.7546Z" fill="#6580E1" fill-opacity="0.6"/>
<path fill-rule="evenodd" clip-rule="evenodd" d="M37.9352 34.4477L37.4255 33.896L36.7275 48.5142L37.2372 49.0659L37.9352 34.4477Z" fill="#6580E1" fill-opacity="0.6"/>
<path fill-rule="evenodd" clip-rule="evenodd" d="M37.4255 33.8959L37.5854 33.5317L36.8874 48.1499L36.7275 48.5141L37.4255 33.8959Z" fill="#6580E1" fill-opacity="0.6"/>
<path fill-rule="evenodd" clip-rule="evenodd" d="M37.5854 33.5317L38.0052 33.5151L37.3072 48.1333L36.8875 48.1499L37.5854 33.5317Z" fill="#6580E1" fill-opacity="0.6"/>
<path fill-rule="evenodd" clip-rule="evenodd" d="M38.0054 33.5151L40.1041 34.7759L39.4061 49.394L37.3074 48.1333L38.0054 33.5151Z" fill="#6580E1" fill-opacity="0.6"/>
<path fill-rule="evenodd" clip-rule="evenodd" d="M40.104 34.7759L40.3638 34.4824L39.6658 49.1006L39.406 49.394L40.104 34.7759Z" fill="#6580E1" fill-opacity="0.6"/>
<path fill-rule="evenodd" clip-rule="evenodd" d="M40.3639 34.4825L39.5244 34.0996L38.8264 48.7178L39.6659 49.1007L40.3639 34.4825Z" fill="#6580E1" fill-opacity="0.6"/>
<path fill-rule="evenodd" clip-rule="evenodd" d="M39.5244 34.0995L39.2146 33.7573L38.5166 48.3755L38.8264 48.7176L39.5244 34.0995Z" fill="#6580E1" fill-opacity="0.6"/>
<path fill-rule="evenodd" clip-rule="evenodd" d="M39.2146 33.7574L38.4651 33.5337L37.7671 48.1519L38.5166 48.3755L39.2146 33.7574Z" fill="#6580E1" fill-opacity="0.6"/>
<path fill-rule="evenodd" clip-rule="evenodd" d="M38.4651 33.5338L38.515 33.269L37.8171 47.8872L37.7671 48.152L38.4651 33.5338Z" fill="#6580E1" fill-opacity="0.6"/>
<path fill-rule="evenodd" clip-rule="evenodd" d="M38.515 33.269L37.6455 33.0422L36.9475 47.6604L37.817 47.8871L38.515 33.269Z" fill="#6580E1" fill-opacity="0.6"/>
<path fill-rule="evenodd" clip-rule="evenodd" d="M37.6456 33.0422L36.7861 33.1158L36.0881 47.7339L36.9476 47.6604L37.6456 33.0422Z" fill="#6580E1" fill-opacity="0.6"/>
<path fill-rule="evenodd" clip-rule="evenodd" d="M36.7861 33.1157L37.066 34.3505L36.368 48.9686L36.0881 47.7339L36.7861 33.1157Z" fill="#6580E1" fill-opacity="0.6"/>
<path fill-rule="evenodd" clip-rule="evenodd" d="M37.0659 34.3506L36.886 34.3733L36.188 48.9914L36.3679 48.9688L37.0659 34.3506Z" fill="#6580E1" fill-opacity="0.6"/>
<path fill-rule="evenodd" clip-rule="evenodd" d="M36.8859 34.373L36.706 34.9959L36.0081 49.6141L36.1879 48.9912L36.8859 34.373Z" fill="#6580E1" fill-opacity="0.6"/>
<path fill-rule="evenodd" clip-rule="evenodd" d="M36.7061 34.9961L36.2964 35.0811L35.5984 49.6993L36.0081 49.6143L36.7061 34.9961Z" fill="#6580E1" fill-opacity="0.6"/>
<path fill-rule="evenodd" clip-rule="evenodd" d="M36.2962 35.0811L35.5767 34.824L34.8787 49.4421L35.5982 49.6992L36.2962 35.0811Z" fill="#6580E1" fill-opacity="0.6"/>
<path fill-rule="evenodd" clip-rule="evenodd" d="M35.5767 34.824L34.8171 34.0203L34.1191 48.6384L34.8787 49.4421L35.5767 34.824Z" fill="#6580E1" fill-opacity="0.6"/>
<path fill-rule="evenodd" clip-rule="evenodd" d="M34.8173 34.0203L34.3076 34.4028L33.6096 49.021L34.1193 48.6384L34.8173 34.0203Z" fill="#6580E1" fill-opacity="0.6"/>
<path fill-rule="evenodd" clip-rule="evenodd" d="M34.3075 34.4027L33.9277 34.1338L33.2297 48.752L33.6095 49.0209L34.3075 34.4027Z" fill="#6580E1" fill-opacity="0.6"/>
<path fill-rule="evenodd" clip-rule="evenodd" d="M33.9277 34.1338L32.6785 34.7703L31.9805 49.3885L33.2297 48.752L33.9277 34.1338Z" fill="#6580E1" fill-opacity="0.6"/>
<path fill-rule="evenodd" clip-rule="evenodd" d="M32.6786 34.7704L32.4587 34.2056L31.7607 48.8237L31.9806 49.3886L32.6786 34.7704Z" fill="#6580E1" fill-opacity="0.6"/>
<path fill-rule="evenodd" clip-rule="evenodd" d="M32.4585 34.2055L32.0288 33.9626L31.3308 48.5808L31.7605 48.8237L32.4585 34.2055Z" fill="#6580E1" fill-opacity="0.6"/>
<path fill-rule="evenodd" clip-rule="evenodd" d="M32.0288 33.9627L32.1887 33.769L31.4907 48.3872L31.3308 48.5809L32.0288 33.9627Z" fill="#6580E1" fill-opacity="0.6"/>
<path fill-rule="evenodd" clip-rule="evenodd" d="M32.1887 33.7689L32.0188 33.4236L31.3208 48.0417L31.4907 48.3871L32.1887 33.7689Z" fill="#6580E1" fill-opacity="0.6"/>
<path fill-rule="evenodd" clip-rule="evenodd" d="M32.0189 33.4235L31.4592 33.3342L30.7612 47.9524L31.3209 48.0417L32.0189 33.4235Z" fill="#6580E1" fill-opacity="0.6"/>
<path fill-rule="evenodd" clip-rule="evenodd" d="M31.4592 33.3342L32.1188 34.7083L31.4208 49.3264L30.7612 47.9524L31.4592 33.3342Z" fill="#6580E1" fill-opacity="0.6"/>
<path fill-rule="evenodd" clip-rule="evenodd" d="M32.1187 34.7083L31.5591 35.2396L30.8611 49.8577L31.4207 49.3264L32.1187 34.7083Z" fill="#6580E1" fill-opacity="0.6"/>
<path fill-rule="evenodd" clip-rule="evenodd" d="M31.5591 35.2397L31.1294 35.256L30.4314 49.8741L30.8611 49.8579L31.5591 35.2397Z" fill="#6580E1" fill-opacity="0.6"/>
<path fill-rule="evenodd" clip-rule="evenodd" d="M31.1294 35.2559L30.8096 35.0227L30.1116 49.6409L30.4314 49.874L31.1294 35.2559Z" fill="#6580E1" fill-opacity="0.6"/>
<path fill-rule="evenodd" clip-rule="evenodd" d="M30.8096 35.0227L31.0994 35.8484L30.4014 50.4666L30.1116 49.6409L30.8096 35.0227Z" fill="#6580E1" fill-opacity="0.6"/>
<path fill-rule="evenodd" clip-rule="evenodd" d="M31.0994 35.8484L30.8196 36.1413L30.1216 50.7595L30.4014 50.4666L31.0994 35.8484Z" fill="#6580E1" fill-opacity="0.6"/>
<path fill-rule="evenodd" clip-rule="evenodd" d="M30.8196 36.1415L30.5398 35.8889L29.8418 50.5071L30.1216 50.7597L30.8196 36.1415Z" fill="#6580E1" fill-opacity="0.6"/>
<path fill-rule="evenodd" clip-rule="evenodd" d="M30.5398 35.8889L30.3999 36.2195L29.7019 50.8377L29.8418 50.5071L30.5398 35.8889Z" fill="#6580E1" fill-opacity="0.6"/>
<path fill-rule="evenodd" clip-rule="evenodd" d="M30.3999 36.2195L31.0295 37.279L30.3315 51.8972L29.7019 50.8376L30.3999 36.2195Z" fill="#6580E1" fill-opacity="0.6"/>
<path fill-rule="evenodd" clip-rule="evenodd" d="M31.0296 37.279L30.6299 37.146L29.9319 51.7642L30.3316 51.8971L31.0296 37.279Z" fill="#6580E1" fill-opacity="0.6"/>
<path fill-rule="evenodd" clip-rule="evenodd" d="M30.6297 37.1459L30.1899 36.2617L29.4919 50.8799L29.9317 51.7641L30.6297 37.1459Z" fill="#6580E1" fill-opacity="0.6"/>
<path fill-rule="evenodd" clip-rule="evenodd" d="M30.1901 36.2617L29.7004 36.3447L29.0024 50.9629L29.4921 50.8799L30.1901 36.2617Z" fill="#6580E1" fill-opacity="0.6"/>
<path fill-rule="evenodd" clip-rule="evenodd" d="M29.7002 36.3447L29.5703 36.6347L28.8723 51.2528L29.0022 50.9629L29.7002 36.3447Z" fill="#6580E1" fill-opacity="0.6"/>
<path fill-rule="evenodd" clip-rule="evenodd" d="M29.5703 36.6348L30.2699 36.9254L29.5719 51.5436L28.8723 51.2529L29.5703 36.6348Z" fill="#6580E1" fill-opacity="0.6"/>
<path fill-rule="evenodd" clip-rule="evenodd" d="M30.27 36.9253L29.5105 38.0517L28.8125 52.6698L29.572 51.5435L30.27 36.9253Z" fill="#6580E1" fill-opacity="0.6"/>
<path fill-rule="evenodd" clip-rule="evenodd" d="M29.5104 38.0516L28.0713 36.8555L27.3733 51.4736L28.8124 52.6698L29.5104 38.0516Z" fill="#6580E1" fill-opacity="0.6"/>
<path fill-rule="evenodd" clip-rule="evenodd" d="M28.0712 36.8555L27.7414 36.9561L27.0435 51.5743L27.3733 51.4736L28.0712 36.8555Z" fill="#6580E1" fill-opacity="0.6"/>
<path fill-rule="evenodd" clip-rule="evenodd" d="M27.7416 36.9563L27.6916 37.2279L26.9937 51.8461L27.0436 51.5745L27.7416 36.9563Z" fill="#6580E1" fill-opacity="0.6"/>
<path fill-rule="evenodd" clip-rule="evenodd" d="M27.6916 37.2278L28.1713 37.8743L27.4734 52.4925L26.9937 51.8459L27.6916 37.2278Z" fill="#6580E1" fill-opacity="0.6"/>
<path fill-rule="evenodd" clip-rule="evenodd" d="M28.1711 37.8743L28.7808 38.0057L28.0828 52.6239L27.4731 52.4924L28.1711 37.8743Z" fill="#6580E1" fill-opacity="0.6"/>
<path fill-rule="evenodd" clip-rule="evenodd" d="M28.7809 38.0059L28.6909 38.3446L27.9929 52.9627L28.0829 52.624L28.7809 38.0059Z" fill="#6580E1" fill-opacity="0.6"/>
<path fill-rule="evenodd" clip-rule="evenodd" d="M28.6909 38.3445L29.1007 38.6824L28.4027 53.3005L27.9929 52.9626L28.6909 38.3445Z" fill="#6580E1" fill-opacity="0.6"/>
<path fill-rule="evenodd" clip-rule="evenodd" d="M29.1008 38.6824L28.761 38.8033L28.063 53.4214L28.4028 53.3005L29.1008 38.6824Z" fill="#6580E1" fill-opacity="0.6"/>
<path fill-rule="evenodd" clip-rule="evenodd" d="M28.761 38.8032V38.9873L28.063 53.6055V53.4214L28.761 38.8032Z" fill="#6580E1" fill-opacity="0.6"/>
<path fill-rule="evenodd" clip-rule="evenodd" d="M28.7608 38.9873L27.8813 38.9854L27.1833 53.6035L28.0628 53.6054L28.7608 38.9873Z" fill="#6580E1" fill-opacity="0.6"/>
<path fill-rule="evenodd" clip-rule="evenodd" d="M27.8814 38.9853L27.7515 38.5933L27.0535 53.2114L27.1834 53.6035L27.8814 38.9853Z" fill="#6580E1" fill-opacity="0.6"/>
<path fill-rule="evenodd" clip-rule="evenodd" d="M27.7515 38.5933L27.032 38.4316L26.334 53.0498L27.0535 53.2115L27.7515 38.5933Z" fill="#6580E1" fill-opacity="0.6"/>
<path fill-rule="evenodd" clip-rule="evenodd" d="M27.0319 38.4316L26.9619 38.7232L26.2639 53.3413L26.3339 53.0498L27.0319 38.4316Z" fill="#6580E1" fill-opacity="0.6"/>
<path fill-rule="evenodd" clip-rule="evenodd" d="M26.9621 38.7232L26.6023 38.6526L25.9043 53.2708L26.2641 53.3413L26.9621 38.7232Z" fill="#6580E1" fill-opacity="0.6"/>
<path fill-rule="evenodd" clip-rule="evenodd" d="M26.6023 38.6527L26.6223 38.1963L25.9243 52.8145L25.9043 53.2709L26.6023 38.6527Z" fill="#6580E1" fill-opacity="0.6"/>
<path fill-rule="evenodd" clip-rule="evenodd" d="M26.6221 38.1963L26.3623 37.9441L25.6643 52.5623L25.9241 52.8145L26.6221 38.1963Z" fill="#6580E1" fill-opacity="0.6"/>
<path fill-rule="evenodd" clip-rule="evenodd" d="M26.3623 37.944L27.2518 37.769L26.5538 52.3872L25.6643 52.5622L26.3623 37.944Z" fill="#6580E1" fill-opacity="0.6"/>
<path fill-rule="evenodd" clip-rule="evenodd" d="M27.2517 37.7689L27.3416 37.6279L26.6437 52.2461L26.5537 52.3871L27.2517 37.7689Z" fill="#6580E1" fill-opacity="0.6"/>
<path fill-rule="evenodd" clip-rule="evenodd" d="M27.3417 37.6281L27.1318 37.2954L26.4338 51.9136L26.6437 52.2462L27.3417 37.6281Z" fill="#6580E1" fill-opacity="0.6"/>
<path fill-rule="evenodd" clip-rule="evenodd" d="M27.1318 37.2954L27.3317 37.0823L26.6337 51.7004L26.4338 51.9136L27.1318 37.2954Z" fill="#6580E1" fill-opacity="0.6"/>
<path fill-rule="evenodd" clip-rule="evenodd" d="M27.3318 37.0821L26.7322 36.5144L26.0342 51.1326L26.6338 51.7003L27.3318 37.0821Z" fill="#6580E1" fill-opacity="0.6"/>
<path fill-rule="evenodd" clip-rule="evenodd" d="M26.7322 36.5144L26.4123 37.0246L25.7144 51.6427L26.0342 51.1326L26.7322 36.5144Z" fill="#6580E1" fill-opacity="0.6"/>
<path fill-rule="evenodd" clip-rule="evenodd" d="M26.4123 37.0247L25.7927 37.0429L25.0947 51.6611L25.7143 51.6428L26.4123 37.0247Z" fill="#6580E1" fill-opacity="0.6"/>
<path fill-rule="evenodd" clip-rule="evenodd" d="M25.7928 37.043L24.9133 37.5184L24.2153 52.1365L25.0948 51.6611L25.7928 37.043Z" fill="#6580E1" fill-opacity="0.6"/>
<path fill-rule="evenodd" clip-rule="evenodd" d="M24.9131 37.5183L23.8638 36.7686L23.1658 51.3867L24.2151 52.1364L24.9131 37.5183Z" fill="#6580E1" fill-opacity="0.6"/>
<path fill-rule="evenodd" clip-rule="evenodd" d="M23.8638 36.7686L23.9737 36.5259L23.2757 51.144L23.1658 51.3868L23.8638 36.7686Z" fill="#6580E1" fill-opacity="0.6"/>
<path fill-rule="evenodd" clip-rule="evenodd" d="M23.9738 36.526L22.8545 36.1155L22.1565 50.7336L23.2758 51.1441L23.9738 36.526Z" fill="#6580E1" fill-opacity="0.6"/>
<path fill-rule="evenodd" clip-rule="evenodd" d="M22.8545 36.1155L23.3042 37.6887L22.6062 52.3069L22.1565 50.7336L22.8545 36.1155Z" fill="#6580E1" fill-opacity="0.6"/>
<path fill-rule="evenodd" clip-rule="evenodd" d="M23.3042 37.6886L22.5447 37.5806L21.8467 52.1987L22.6062 52.3068L23.3042 37.6886Z" fill="#6580E1" fill-opacity="0.6"/>
<path fill-rule="evenodd" clip-rule="evenodd" d="M22.5448 37.5806L22.135 38.4431L21.437 53.0612L21.8468 52.1987L22.5448 37.5806Z" fill="#6580E1" fill-opacity="0.6"/>
<path fill-rule="evenodd" clip-rule="evenodd" d="M22.1349 38.443L21.0156 38.3188L20.3176 52.937L21.4369 53.0611L22.1349 38.443Z" fill="#6580E1" fill-opacity="0.6"/>
<path fill-rule="evenodd" clip-rule="evenodd" d="M21.0156 38.3188L21.0556 38.7495L20.3576 53.3677L20.3176 52.937L21.0156 38.3188Z" fill="#6580E1" fill-opacity="0.6"/>
<path fill-rule="evenodd" clip-rule="evenodd" d="M21.0555 38.7495L20.5059 38.4014L19.8079 53.0195L20.3575 53.3677L21.0555 38.7495Z" fill="#6580E1" fill-opacity="0.6"/>
<path fill-rule="evenodd" clip-rule="evenodd" d="M20.506 38.4014L20.2661 38.4634L19.5681 53.0816L19.808 53.0195L20.506 38.4014Z" fill="#6580E1" fill-opacity="0.6"/>
<path fill-rule="evenodd" clip-rule="evenodd" d="M20.2661 38.4636L19.8164 37.3882L19.1184 52.0063L19.5681 53.0818L20.2661 38.4636Z" fill="#6580E1" fill-opacity="0.6"/>
<path fill-rule="evenodd" clip-rule="evenodd" d="M19.8163 37.388L19.2866 37.1631L18.5886 51.7812L19.1183 52.0062L19.8163 37.388Z" fill="#6580E1" fill-opacity="0.6"/>
<path fill-rule="evenodd" clip-rule="evenodd" d="M19.2868 37.1631L19.0669 37.328L18.3689 51.9461L18.5888 51.7812L19.2868 37.1631Z" fill="#6580E1" fill-opacity="0.6"/>
<path fill-rule="evenodd" clip-rule="evenodd" d="M19.0668 37.3281L18.8469 37.1929L18.1489 51.811L18.3688 51.9462L19.0668 37.3281Z" fill="#6580E1" fill-opacity="0.6"/>
<path fill-rule="evenodd" clip-rule="evenodd" d="M18.847 37.1929L18.6072 37.3231L17.9092 51.9412L18.149 51.811L18.847 37.1929Z" fill="#6580E1" fill-opacity="0.6"/>
<path fill-rule="evenodd" clip-rule="evenodd" d="M18.607 37.3231L18.5071 37.116L17.8091 51.7341L17.909 51.9412L18.607 37.3231Z" fill="#6580E1" fill-opacity="0.6"/>
<path fill-rule="evenodd" clip-rule="evenodd" d="M18.5071 37.1159L18.0474 37.0837L17.3494 51.7019L17.8091 51.7341L18.5071 37.1159Z" fill="#6580E1" fill-opacity="0.6"/>
<path fill-rule="evenodd" clip-rule="evenodd" d="M18.0474 37.0837L17.7476 37.4307L17.0496 52.0489L17.3494 51.7019L18.0474 37.0837Z" fill="#6580E1" fill-opacity="0.6"/>
<path fill-rule="evenodd" clip-rule="evenodd" d="M17.7475 37.4309L17.4377 37.3342L16.7397 51.9524L17.0496 52.049L17.7475 37.4309Z" fill="#6580E1" fill-opacity="0.6"/>
<path fill-rule="evenodd" clip-rule="evenodd" d="M17.4377 37.3342L17.5177 37.9773L16.8197 52.5955L16.7397 51.9524L17.4377 37.3342Z" fill="#6580E1" fill-opacity="0.6"/>
<path fill-rule="evenodd" clip-rule="evenodd" d="M17.5178 37.9773L17.7177 38.0984L17.0197 52.7166L16.8198 52.5955L17.5178 37.9773Z" fill="#6580E1" fill-opacity="0.6"/>
<path fill-rule="evenodd" clip-rule="evenodd" d="M17.7176 38.0984L17.6077 38.498L16.9097 53.1161L17.0196 52.7166L17.7176 38.0984Z" fill="#6580E1" fill-opacity="0.6"/>
<path fill-rule="evenodd" clip-rule="evenodd" d="M17.6078 38.4979L16.9282 38.0918L16.2302 52.71L16.9098 53.1161L17.6078 38.4979Z" fill="#6580E1" fill-opacity="0.6"/>
<path fill-rule="evenodd" clip-rule="evenodd" d="M16.9281 38.0918L16.7183 37.5544L16.0203 52.1726L16.2301 52.7099L16.9281 38.0918Z" fill="#6580E1" fill-opacity="0.6"/>
<path fill-rule="evenodd" clip-rule="evenodd" d="M16.7183 37.5546L16.2886 37.4004L15.5906 52.0186L16.0203 52.1727L16.7183 37.5546Z" fill="#6580E1" fill-opacity="0.6"/>
<path fill-rule="evenodd" clip-rule="evenodd" d="M16.2885 37.4004L16.0986 37.5797L15.4006 52.1978L15.5905 52.0186L16.2885 37.4004Z" fill="#6580E1" fill-opacity="0.6"/>
<path fill-rule="evenodd" clip-rule="evenodd" d="M16.0987 37.5797L15.3691 36.9336L14.6711 51.5518L15.4007 52.1978L16.0987 37.5797Z" fill="#6580E1" fill-opacity="0.6"/>
<path fill-rule="evenodd" clip-rule="evenodd" d="M15.3689 36.9336L14.9392 36.8203L14.2412 51.4385L14.6709 51.5518L15.3689 36.9336Z" fill="#6580E1" fill-opacity="0.6"/>
<path fill-rule="evenodd" clip-rule="evenodd" d="M14.9392 36.8202L14.4795 35.9082L13.7815 50.5264L14.2412 51.4383L14.9392 36.8202Z" fill="#6580E1" fill-opacity="0.6"/>
<path fill-rule="evenodd" clip-rule="evenodd" d="M14.4797 35.9083L14 35.6982L13.302 50.3164L13.7817 50.5264L14.4797 35.9083Z" fill="#6580E1" fill-opacity="0.6"/>
<path fill-rule="evenodd" clip-rule="evenodd" d="M14 35.6983L14.3198 35.4746L13.6218 50.0928L13.302 50.3165L14 35.6983Z" fill="#6580E1" fill-opacity="0.6"/>
<path fill-rule="evenodd" clip-rule="evenodd" d="M14.3196 35.4746L14.1997 35.2124L13.5017 49.8306L13.6216 50.0928L14.3196 35.4746Z" fill="#6580E1" fill-opacity="0.6"/>
<path fill-rule="evenodd" clip-rule="evenodd" d="M14.1997 35.2124L14.4296 34.6589L13.7316 49.2771L13.5017 49.8305L14.1997 35.2124Z" fill="#6580E1" fill-opacity="0.6"/>
<path fill-rule="evenodd" clip-rule="evenodd" d="M14.4297 34.659L15.7289 34.1194L15.0309 48.7375L13.7317 49.2772L14.4297 34.659Z" fill="#6580E1" fill-opacity="0.6"/>
<path fill-rule="evenodd" clip-rule="evenodd" d="M15.7289 34.1192L15.6789 33.811L14.981 48.4292L15.0309 48.7374L15.7289 34.1192Z" fill="#6580E1" fill-opacity="0.6"/>
<path fill-rule="evenodd" clip-rule="evenodd" d="M15.6789 33.8112L15.0493 33.345L14.3513 47.9631L14.9809 48.4293L15.6789 33.8112Z" fill="#6580E1" fill-opacity="0.6"/>
<path fill-rule="evenodd" clip-rule="evenodd" d="M15.0493 33.3448L15.519 33.2068L14.821 47.825L14.3513 47.963L15.0493 33.3448Z" fill="#6580E1" fill-opacity="0.6"/>
<path fill-rule="evenodd" clip-rule="evenodd" d="M15.519 33.2069L15.6889 32.9043L14.9909 47.5225L14.821 47.825L15.519 33.2069Z" fill="#6580E1" fill-opacity="0.6"/>
<path fill-rule="evenodd" clip-rule="evenodd" d="M15.689 32.9043L16.0088 33.0284L15.3108 47.6466L14.991 47.5225L15.689 32.9043Z" fill="#6580E1" fill-opacity="0.6"/>
<path fill-rule="evenodd" clip-rule="evenodd" d="M16.0088 33.0284L16.7383 32.8833L16.0403 47.5015L15.3108 47.6466L16.0088 33.0284Z" fill="#6580E1" fill-opacity="0.6"/>
<path fill-rule="evenodd" clip-rule="evenodd" d="M16.7383 32.8832L16.9082 31.9941L16.2102 46.6123L16.0403 47.5014L16.7383 32.8832Z" fill="#6580E1" fill-opacity="0.6"/>
<path fill-rule="evenodd" clip-rule="evenodd" d="M16.9082 31.9942L18.3273 30.5847L17.6293 45.2029L16.2102 46.6124L16.9082 31.9942Z" fill="#6580E1" fill-opacity="0.6"/>
<path fill-rule="evenodd" clip-rule="evenodd" d="M18.3271 30.5848L19.3265 30.3511L18.6285 44.9692L17.6292 45.2029L18.3271 30.5848Z" fill="#6580E1" fill-opacity="0.6"/>
<path fill-rule="evenodd" clip-rule="evenodd" d="M19.3267 30.3511L20.326 30.3494L19.6281 44.9675L18.6287 44.9692L19.3267 30.3511Z" fill="#6580E1" fill-opacity="0.6"/>
<path fill-rule="evenodd" clip-rule="evenodd" d="M20.3259 30.3494L20.8156 30.5596L20.1176 45.1777L19.6279 44.9675L20.3259 30.3494Z" fill="#6580E1" fill-opacity="0.6"/>
<path fill-rule="evenodd" clip-rule="evenodd" d="M20.8157 30.5596L21.6452 31.5015L20.9472 46.1197L20.1177 45.1777L20.8157 30.5596Z" fill="#6580E1" fill-opacity="0.6"/>
<path fill-rule="evenodd" clip-rule="evenodd" d="M21.6453 31.5015L22.6846 31.9645L21.9866 46.5827L20.9473 46.1196L21.6453 31.5015Z" fill="#6580E1" fill-opacity="0.6"/>
<path fill-rule="evenodd" clip-rule="evenodd" d="M22.6846 31.9646L23.4841 32.1282L22.7861 46.7464L21.9866 46.5828L22.6846 31.9646Z" fill="#6580E1" fill-opacity="0.6"/>
<path fill-rule="evenodd" clip-rule="evenodd" d="M23.4842 32.1282L23.2043 31.6982L22.5063 46.3164L22.7862 46.7464L23.4842 32.1282Z" fill="#6580E1" fill-opacity="0.6"/>
<path fill-rule="evenodd" clip-rule="evenodd" d="M23.2044 31.6982L21.2256 28.8105L20.5276 43.4287L22.5064 46.3164L23.2044 31.6982Z" fill="#6580E1" fill-opacity="0.6"/>
<path fill-rule="evenodd" clip-rule="evenodd" d="M21.2254 28.8104L20.0461 28.6711L19.3481 43.2893L20.5274 43.4285L21.2254 28.8104Z" fill="#6580E1" fill-opacity="0.6"/>
<path fill-rule="evenodd" clip-rule="evenodd" d="M20.0462 28.6711L18.5471 29.0352L17.8491 43.6534L19.3482 43.2893L20.0462 28.6711Z" fill="#6580E1" fill-opacity="0.6"/>
<path fill-rule="evenodd" clip-rule="evenodd" d="M18.5472 29.0354L18.4272 29.6598L17.7292 44.2779L17.8492 43.6536L18.5472 29.0354Z" fill="#6580E1" fill-opacity="0.6"/>
<path fill-rule="evenodd" clip-rule="evenodd" d="M18.4273 29.6597L17.5278 30.5573L16.8298 45.1755L17.7293 44.2778L18.4273 29.6597Z" fill="#6580E1" fill-opacity="0.6"/>
<path fill-rule="evenodd" clip-rule="evenodd" d="M17.5277 30.5574L16.8081 31.8962L16.1101 46.5144L16.8297 45.1755L17.5277 30.5574Z" fill="#6580E1" fill-opacity="0.6"/>
<path fill-rule="evenodd" clip-rule="evenodd" d="M16.8081 31.8962L16.6582 31.0945L15.9602 45.7126L16.1101 46.5144L16.8081 31.8962Z" fill="#6580E1" fill-opacity="0.6"/>
<path fill-rule="evenodd" clip-rule="evenodd" d="M16.6582 31.0944L15.7588 30.9146L15.0608 45.5327L15.9602 45.7125L16.6582 31.0944Z" fill="#6580E1" fill-opacity="0.6"/>
<path fill-rule="evenodd" clip-rule="evenodd" d="M15.7588 30.9146L14.8594 30.9393L14.1614 45.5575L15.0608 45.5327L15.7588 30.9146Z" fill="#6580E1" fill-opacity="0.6"/>
<path fill-rule="evenodd" clip-rule="evenodd" d="M14.8593 30.9393L14.7993 30.2217L14.1013 44.8398L14.1613 45.5575L14.8593 30.9393Z" fill="#6580E1" fill-opacity="0.6"/>
<path fill-rule="evenodd" clip-rule="evenodd" d="M14.7993 30.2218L13.8799 28.9844L13.1819 43.6025L14.1013 44.84L14.7993 30.2218Z" fill="#6580E1" fill-opacity="0.6"/>
<path fill-rule="evenodd" clip-rule="evenodd" d="M13.8799 28.9843L13.1304 28.5833L12.4324 43.2014L13.1819 43.6025L13.8799 28.9843Z" fill="#6580E1" fill-opacity="0.6"/>
<path fill-rule="evenodd" clip-rule="evenodd" d="M13.1304 28.5833L10.512 28.0254L9.81396 42.6436L12.4324 43.2015L13.1304 28.5833Z" fill="#6580E1" fill-opacity="0.6"/>
<path fill-rule="evenodd" clip-rule="evenodd" d="M10.512 28.0254L10.9617 27.73L10.2637 42.3481L9.81396 42.6436L10.512 28.0254Z" fill="#6580E1" fill-opacity="0.6"/>
<path fill-rule="evenodd" clip-rule="evenodd" d="M10.9617 27.73L10.2021 27.3423L9.50415 41.9604L10.2637 42.3481L10.9617 27.73Z" fill="#6580E1" fill-opacity="0.6"/>
<path fill-rule="evenodd" clip-rule="evenodd" d="M10.2022 27.3422L9.77245 26.4651L9.07446 41.0833L9.5042 41.9604L10.2022 27.3422Z" fill="#6580E1" fill-opacity="0.6"/>
<path fill-rule="evenodd" clip-rule="evenodd" d="M9.77245 26.4651L9.93236 25.678L9.23437 40.2961L9.07446 41.0832L9.77245 26.4651Z" fill="#6580E1" fill-opacity="0.6"/>
<path fill-rule="evenodd" clip-rule="evenodd" d="M9.9323 25.6782L8.97289 24.8967L8.2749 39.5149L9.23431 40.2963L9.9323 25.6782Z" fill="#6580E1" fill-opacity="0.6"/>
<path fill-rule="evenodd" clip-rule="evenodd" d="M8.97289 24.8965L9.00287 24.0994L8.30488 38.7175L8.2749 39.5147L8.97289 24.8965Z" fill="#6580E1" fill-opacity="0.6"/>
<path fill-rule="evenodd" clip-rule="evenodd" d="M9.00295 24.0995L8.25341 23.7939L7.55542 38.4121L8.30496 38.7177L9.00295 24.0995Z" fill="#6580E1" fill-opacity="0.6"/>
<path fill-rule="evenodd" clip-rule="evenodd" d="M8.2535 23.7938L8.00365 23.4941L7.30566 38.1123L7.55551 38.412L8.2535 23.7938Z" fill="#6580E1" fill-opacity="0.6"/>
<path fill-rule="evenodd" clip-rule="evenodd" d="M8.00367 23.4941L7.54394 23.5166L6.84595 38.1347L7.30568 38.1123L8.00367 23.4941Z" fill="#6580E1" fill-opacity="0.6"/>
<path fill-rule="evenodd" clip-rule="evenodd" d="M7.54382 23.5166L7.47387 24.0604L6.77588 38.6786L6.84583 38.1348L7.54382 23.5166Z" fill="#6580E1" fill-opacity="0.6"/>
<path fill-rule="evenodd" clip-rule="evenodd" d="M7.47389 24.0604L6.71435 24.0479L6.01636 38.666L6.7759 38.6786L7.47389 24.0604Z" fill="#6580E1" fill-opacity="0.6"/>
<path fill-rule="evenodd" clip-rule="evenodd" d="M6.71431 24.0479L6.08471 23.6157L5.38672 38.2339L6.01632 38.6661L6.71431 24.0479Z" fill="#6580E1" fill-opacity="0.6"/>
<path fill-rule="evenodd" clip-rule="evenodd" d="M6.08472 23.6156L5.7849 21.5757L5.08691 36.1938L5.38673 38.2338L6.08472 23.6156Z" fill="#6580E1" fill-opacity="0.6"/>
<path fill-rule="evenodd" clip-rule="evenodd" d="M5.78485 21.5756L4.67553 20.7766L3.97754 35.3948L5.08686 36.1938L5.78485 21.5756Z" fill="#6580E1" fill-opacity="0.6"/>
<path fill-rule="evenodd" clip-rule="evenodd" d="M4.6756 20.7766L3.32641 20.217L2.62842 34.8352L3.97761 35.3948L4.6756 20.7766Z" fill="#6580E1" fill-opacity="0.6"/>
<path fill-rule="evenodd" clip-rule="evenodd" d="M3.3263 20.217L2.48681 20.3184L1.78882 34.9365L2.62831 34.8352L3.3263 20.217Z" fill="#6580E1" fill-opacity="0.6"/>
<path fill-rule="evenodd" clip-rule="evenodd" d="M2.48679 20.3183L1.85717 19.9954L1.15918 34.6135L1.7888 34.9365L2.48679 20.3183Z" fill="#6580E1" fill-opacity="0.6"/>
<path fill-rule="evenodd" clip-rule="evenodd" d="M1.85717 19.9954L2.33689 18.9097L1.6389 33.5278L1.15918 34.6136L1.85717 19.9954Z" fill="#6580E1" fill-opacity="0.6"/>
<path fill-rule="evenodd" clip-rule="evenodd" d="M2.33691 18.9096L3.25635 18.5103L2.55836 33.1284L1.63892 33.5278L2.33691 18.9096Z" fill="#6580E1" fill-opacity="0.6"/>
<path fill-rule="evenodd" clip-rule="evenodd" d="M3.25646 18.5104L3.01659 17.9177L2.3186 32.5359L2.55847 33.1285L3.25646 18.5104Z" fill="#6580E1" fill-opacity="0.6"/>
<path fill-rule="evenodd" clip-rule="evenodd" d="M3.01659 17.9176L3.33641 17.3052L2.63842 31.9233L2.3186 32.5358L3.01659 17.9176Z" fill="#6580E1" fill-opacity="0.6"/>
<path fill-rule="evenodd" clip-rule="evenodd" d="M3.33642 17.3052L4.79552 15.9102L4.09753 30.5283L2.63843 31.9233L3.33642 17.3052Z" fill="#6580E1" fill-opacity="0.6"/>
<path fill-rule="evenodd" clip-rule="evenodd" d="M4.79544 15.9102L1.27758 15.4385L0.57959 30.0566L4.09745 30.5284L4.79544 15.9102Z" fill="#6580E1" fill-opacity="0.6"/>
<path fill-rule="evenodd" clip-rule="evenodd" d="M1.27762 15.4386L0.69799 13.8552L0 28.4734L0.579634 30.0567L1.27762 15.4386Z" fill="#6580E1" fill-opacity="0.6"/>
<path fill-rule="evenodd" clip-rule="evenodd" d="M0.69799 13.8551L0.897865 13.3965L0.199875 28.0146L0 28.4733L0.69799 13.8551Z" fill="#6580E1" fill-opacity="0.6"/>
<path fill-rule="evenodd" clip-rule="evenodd" d="M0.897941 13.3965L1.34766 13.333L0.649674 27.9512L0.199951 28.0147L0.897941 13.3965Z" fill="#6580E1" fill-opacity="0.6"/>
<path fill-rule="evenodd" clip-rule="evenodd" d="M1.34759 13.333L1.30761 13.6662L0.609619 28.2843L0.649604 27.9512L1.34759 13.333Z" fill="#6580E1" fill-opacity="0.6"/>
<path fill-rule="evenodd" clip-rule="evenodd" d="M1.30761 13.666L1.71736 13.9151L1.01937 28.5333L0.609619 28.2842L1.30761 13.666Z" fill="#6580E1" fill-opacity="0.6"/>
<path fill-rule="evenodd" clip-rule="evenodd" d="M1.71728 13.9153L3.03648 13.3489L2.33849 27.967L1.01929 28.5334L1.71728 13.9153Z" fill="#6580E1" fill-opacity="0.6"/>
<path fill-rule="evenodd" clip-rule="evenodd" d="M3.03661 13.3489L3.15653 12.3562L2.45854 26.9744L2.33862 27.967L3.03661 13.3489Z" fill="#6580E1" fill-opacity="0.6"/>
<path fill-rule="evenodd" clip-rule="evenodd" d="M3.15649 12.3561L3.55624 11.4524L2.85825 26.0706L2.4585 26.9742L3.15649 12.3561Z" fill="#6580E1" fill-opacity="0.6"/>
<path fill-rule="evenodd" clip-rule="evenodd" d="M3.55615 11.4525L3.09643 10.6223L2.39844 25.2405L2.85816 26.0706L3.55615 11.4525Z" fill="#6580E1" fill-opacity="0.6"/>
<path fill-rule="evenodd" clip-rule="evenodd" d="M3.09641 10.6224L2.6267 10.4875L1.92871 25.1057L2.39842 25.2405L3.09641 10.6224Z" fill="#6580E1" fill-opacity="0.6"/>
<path fill-rule="evenodd" clip-rule="evenodd" d="M2.6267 10.4875L2.76662 9.20215L2.06863 23.8203L1.92871 25.1056L2.6267 10.4875Z" fill="#6580E1" fill-opacity="0.6"/>
<path fill-rule="evenodd" clip-rule="evenodd" d="M2.76667 9.20207L0.817863 8.2998L0.119873 22.918L2.06868 23.8202L2.76667 9.20207Z" fill="#6580E1" fill-opacity="0.6"/>
<path fill-rule="evenodd" clip-rule="evenodd" d="M0.817863 8.29996L2.66673 6.35571L1.96874 20.9739L0.119873 22.9181L0.817863 8.29996Z" fill="#6580E1" fill-opacity="0.6"/>
<path fill-rule="evenodd" clip-rule="evenodd" d="M2.66674 6.3556L3.77606 5.72241L3.07807 20.3406L1.96875 20.9738L2.66674 6.3556Z" fill="#6580E1" fill-opacity="0.6"/>
<path fill-rule="evenodd" clip-rule="evenodd" d="M3.77611 5.72241L4.1459 6.53663L3.44791 21.1548L3.07812 20.3406L3.77611 5.72241Z" fill="#6580E1" fill-opacity="0.6"/>
<path fill-rule="evenodd" clip-rule="evenodd" d="M4.14599 6.53663L4.72563 6.48999L4.02764 21.1082L3.448 21.1548L4.14599 6.53663Z" fill="#6580E1" fill-opacity="0.6"/>
<path fill-rule="evenodd" clip-rule="evenodd" d="M4.72558 6.48999L6.87426 6.89275L6.17627 21.5109L4.02759 21.1082L4.72558 6.48999Z" fill="#6580E1" fill-opacity="0.6"/>
<path fill-rule="evenodd" clip-rule="evenodd" d="M6.87426 6.89293L7.89365 6.09375L7.19566 20.7119L6.17627 21.5111L6.87426 6.89293Z" fill="#6580E1" fill-opacity="0.6"/>
<path fill-rule="evenodd" clip-rule="evenodd" d="M7.89354 6.09356L7.88354 5.47266L7.18555 20.0908L7.19555 20.7117L7.89354 6.09356Z" fill="#6580E1" fill-opacity="0.6"/>
<path fill-rule="evenodd" clip-rule="evenodd" d="M7.88354 5.47283L10.2321 5.15771L9.53412 19.7759L7.18555 20.091L7.88354 5.47283Z" fill="#6580E1" fill-opacity="0.6"/>
<path fill-rule="evenodd" clip-rule="evenodd" d="M10.2322 5.15757L11.6213 4.44287L10.9233 19.061L9.53418 19.7757L10.2322 5.15757Z" fill="#6580E1" fill-opacity="0.6"/>
<path fill-rule="evenodd" clip-rule="evenodd" d="M11.6213 4.44295L12.0711 3.22681L11.3731 17.845L10.9233 19.0611L11.6213 4.44295Z" fill="#6580E1" fill-opacity="0.6"/>
<path fill-rule="evenodd" clip-rule="evenodd" d="M12.071 3.22674L13.0404 2.33081L12.3425 16.949L11.373 17.8449L12.071 3.22674Z" fill="#6580E1" fill-opacity="0.6"/>
<path fill-rule="evenodd" clip-rule="evenodd" d="M13.0405 2.33097L13.0605 1.5813L12.3625 16.1995L12.3425 16.9491L13.0405 2.33097Z" fill="#6580E1" fill-opacity="0.6"/>
<path fill-rule="evenodd" clip-rule="evenodd" d="M13.0605 1.58122L13.6302 1.2002L12.9322 15.8184L12.3625 16.1994L13.0605 1.58122Z" fill="#6580E1" fill-opacity="0.6"/>
<path fill-rule="evenodd" clip-rule="evenodd" d="M13.6301 1.20021L14.6495 1.08301L13.9515 15.7012L12.9321 15.8184L13.6301 1.20021Z" fill="#6580E1" fill-opacity="0.6"/>
<path fill-rule="evenodd" clip-rule="evenodd" d="M14.6494 1.083L15.6888 0.761719L14.9908 15.3799L13.9514 15.7012L14.6494 1.083Z" fill="#6580E1" fill-opacity="0.6"/>
<path fill-rule="evenodd" clip-rule="evenodd" d="M15.689 0.761719V0.761719L14.991 15.3799V15.3799L15.689 0.761719Z" fill="#6580E1" fill-opacity="0.6"/>
<path d="M15.6889 0.761783L16.6982 0.548878L17.2779 0.856939L19.5065 0L20.7558 2.187L19.4865 3.17758L20.4759 3.85076L23.1543 2.85525L23.634 2.40375L24.0837 1.17399L26.4523 0.545655L27.4917 0.483537L27.9914 2.24221L27.8514 2.41597L28.8109 3.17021L29.1207 3.89422L28.611 5.10878L32.5686 6.64887L34.6673 6.51836L35.4068 6.14167L36.0265 6.36209L37.9553 6.30908L38.2351 7.28465L37.3057 8.17473L37.2757 8.59005L37.0059 8.8355L37.3557 9.11724L37.8254 8.88371L38.375 9.23193L38.405 9.47139L38.7548 9.58263L37.1558 9.76003L36.0664 10.496L35.9965 11.4217L36.4062 12.3257L35.8266 13.1088L36.826 13.6936L37.5755 13.2762L37.9853 13.2662L38.395 14.0746L38.415 14.648L38.6249 14.933L39.0746 14.8831L39.2145 15.1527L37.0658 15.8139L36.2064 15.676L35.5068 15.017L35.227 15.1872L35.6667 15.7304L38.2051 17.9162L40.9934 18.4512L43.1921 19.1416L45.7705 21.7991L47.4495 22.8309L48.8087 22.9201L50.8075 22.6301L52.9761 22.8424L54.1254 23.165L54.0055 23.4893L54.7251 24.7217L56.0043 24.8566L56.6339 24.4158L57.1636 24.593L58.4628 24.6398L58.8226 25.897L60.1218 27.7034L61.7608 28.2636L61.9207 28.6155L61.7908 29.1032L63.01 29.0389L59.2023 31.7992L58.103 32.9168L58.2729 33.7124L57.2935 33.9942L56.7638 34.3558L56.3941 34.3395L55.8244 33.0974L55.9943 32.8358L55.7245 32.672L55.3447 32.7646L54.785 32.6412L54.3753 32.8149L54.835 33.2085L54.2454 33.3981L54.4752 33.5744L54.4852 34.0521L54.2354 34.489L54.4153 34.8686L55.0449 35.0007L55.2248 35.4486L54.825 35.5816L54.7151 35.9471L55.1348 36.1624L55.0749 36.611L54.775 36.7329L53.8356 36.4634L53.196 36.9449L52.3565 36.7462L52.2266 36.5792L51.587 36.5423L51.4371 36.5795L51.597 36.9928L51.1472 37.0086L50.8774 36.7357L50.1578 36.5605L50.4277 37.0242L51.2172 37.3923L51.1972 37.6509L49.838 37.2888L49.4583 36.9381L49.4183 36.6165L49.3983 36.7116L48.7287 36.2853L48.4489 36.4486L47.6394 35.9915L47.3795 36.0257L47.1197 35.6372L46.8099 35.827L46.8898 36.061L46.0603 36.2103L46.0004 36.4883L46.3402 36.9676L46.8499 37.0284L47.1797 37.6301L47.0397 37.8788L46.57 37.8124L45.7705 37.2259L45.2708 37.3631L45.2608 37.5811L45.001 37.5745L44.4813 37.2407L44.5413 36.7989L43.2321 35.7902L43.1021 36.1551L43.5919 36.3791L43.4319 36.5796L42.2427 36.4538L42.2027 36.2413L42.8623 36.1013L42.9422 35.8442L42.7324 35.6342L42.1128 35.7275L41.2933 35.5088L41.1134 34.9791L40.4937 35.2293L40.2439 35.6184L39.8142 35.3073L39.8341 35.076L38.8348 34.7777L38.455 35.0476L37.7054 35.199L37.6655 34.7546L37.9353 34.4478L37.4256 33.896L37.5855 33.5318L38.0053 33.5153L40.104 34.776L40.3638 34.4826L39.5243 34.0997L39.2145 33.7575L38.465 33.5338L38.5149 33.2691L37.6455 33.0423L36.786 33.1158L37.0658 34.3506L36.8859 34.3733L36.7061 34.9961L36.2963 35.0811L35.5767 34.8241L34.8172 34.0204L34.3075 34.4029L33.9277 34.134L32.6785 34.7705L32.4586 34.2056L32.0289 33.9628L32.1888 33.7691L32.0189 33.4238L31.4592 33.3344L32.1188 34.7085L31.5592 35.2398L31.1294 35.256L30.8096 35.0229L31.0995 35.8486L30.8196 36.1415L30.5398 35.8889L30.3999 36.2195L31.0295 37.2791L30.6298 37.1461L30.19 36.2619L29.7003 36.3449L29.5704 36.6348L30.27 36.9255L29.5104 38.0518L28.0713 36.8557L27.7415 36.9563L27.6915 37.2279L28.1713 37.8744L28.7809 38.0059L28.6909 38.3446L29.1007 38.6825L28.7609 38.8034V38.9874L27.8814 38.9855L27.7515 38.5934L27.0319 38.4318L26.962 38.7233L26.6022 38.6527L26.6222 38.1963L26.3624 37.9441L27.2518 37.7691L27.3418 37.6281L27.1319 37.2955L27.3318 37.0823L26.7321 36.5146L26.4123 37.0247L25.7927 37.043L24.9132 37.5184L23.8639 36.7687L23.9738 36.526L22.8545 36.1155L23.3042 37.6887L22.5447 37.5807L22.1349 38.4432L21.0156 38.319L21.0556 38.7497L20.5059 38.4016L20.2661 38.4636L19.8163 37.3882L19.2867 37.1633L19.0668 37.3282L18.8469 37.193L18.6071 37.3232L18.5071 37.1161L18.0474 37.0839L17.7476 37.4309L17.4378 37.3342L17.5177 37.9774L17.7176 38.0985L17.6077 38.4981L16.9281 38.092L16.7182 37.5546L16.2885 37.4004L16.0986 37.5797L15.3691 36.9337L14.9393 36.8204L14.4796 35.9084L13.9999 35.6984L14.3197 35.4747L14.1998 35.2124L14.4296 34.659L15.7288 34.1194L15.6789 33.8112L15.0493 33.345L15.519 33.207L15.6889 32.9044L16.0087 33.0285L16.7382 32.8834L16.9081 31.9943L18.3273 30.5848L19.3266 30.3511L20.326 30.3494L20.8157 30.5596L21.6452 31.5016L22.6846 31.9646L23.4841 32.1282L23.2043 31.6982L21.2255 28.8106L20.0462 28.6714L18.5471 29.0354L18.4272 29.6598L17.5277 30.5575L16.8082 31.8963L16.6583 31.0946L15.7588 30.9148L14.8594 30.9395L14.7994 30.2219L13.88 28.9845L13.1304 28.5834L10.512 28.0255L10.9617 27.7301L10.2022 27.3424L9.77246 26.4653L9.93236 25.6782L8.97295 24.8967L9.00294 24.0995L8.25339 23.794L8.00354 23.4943L7.54382 23.5167L7.47387 24.0605L6.71432 24.0479L6.08471 23.6157L5.7849 21.5758L4.67557 20.7768L3.32639 20.2172L2.4869 20.3185L1.85728 19.9956L2.337 18.9098L3.25644 18.5104L3.01657 17.9178L3.33639 17.3053L4.79549 15.9103L1.27763 15.4386L0.697998 13.8552L0.897873 13.3966L1.3476 13.3331L1.30761 13.6662L1.71737 13.9153L3.03657 13.3489L3.15649 12.3563L3.55625 11.4526L3.09653 10.6225L2.62681 10.4876L2.76673 9.20229L0.81792 8.30002L2.66679 6.35577L3.77611 5.72259L4.1459 6.5368L4.72554 6.49016L6.87422 6.89292L7.89361 6.09374L7.88361 5.47284L10.2322 5.15772L11.6213 4.44303L12.0711 3.22688L13.0405 2.33095L13.0605 1.58129L13.6301 1.20026L14.6495 1.08306L15.6889 0.761783Z" fill="white"/>
</svg>
