<svg width="99" height="106" viewBox="0 0 99 106" fill="none" xmlns="http://www.w3.org/2000/svg">
<path fill-rule="evenodd" clip-rule="evenodd" d="M72.0145 19.288L71.4348 18.9731L70.7368 33.5913L71.3165 33.9062L72.0145 19.288Z" fill="#6580E1" fill-opacity="0.6"/>
<path fill-rule="evenodd" clip-rule="evenodd" d="M71.4349 18.9731L69.9858 17.3948L69.2878 32.0129L70.737 33.5913L71.4349 18.9731Z" fill="#6580E1" fill-opacity="0.6"/>
<path fill-rule="evenodd" clip-rule="evenodd" d="M69.9857 17.3948L68.6565 16.9653L67.9585 31.5835L69.2877 32.013L69.9857 17.3948Z" fill="#6580E1" fill-opacity="0.6"/>
<path fill-rule="evenodd" clip-rule="evenodd" d="M68.6567 16.9653L67.8572 16.4265L67.1592 31.0447L67.9587 31.5834L68.6567 16.9653Z" fill="#6580E1" fill-opacity="0.6"/>
<path fill-rule="evenodd" clip-rule="evenodd" d="M67.8571 16.4264L65.1987 13.5964L64.5007 28.2146L67.1591 31.0446L67.8571 16.4264Z" fill="#6580E1" fill-opacity="0.6"/>
<path fill-rule="evenodd" clip-rule="evenodd" d="M65.1986 13.5966L60.5315 10.0742L59.8335 24.6924L64.5007 28.2148L65.1986 13.5966Z" fill="#6580E1" fill-opacity="0.6"/>
<path fill-rule="evenodd" clip-rule="evenodd" d="M60.5316 10.0742L59.832 10.1314L59.134 24.7495L59.8336 24.6924L60.5316 10.0742Z" fill="#6580E1" fill-opacity="0.6"/>
<path fill-rule="evenodd" clip-rule="evenodd" d="M59.832 10.1313L56.4141 8.10718L55.7161 22.7253L59.134 24.7495L59.832 10.1313Z" fill="#6580E1" fill-opacity="0.6"/>
<path fill-rule="evenodd" clip-rule="evenodd" d="M56.414 8.10728L55.1348 7.09937L54.4368 21.7175L55.716 22.7254L56.414 8.10728Z" fill="#6580E1" fill-opacity="0.6"/>
<path fill-rule="evenodd" clip-rule="evenodd" d="M55.1348 7.09927L52.5764 6.29053L51.8784 20.9087L54.4369 21.7174L55.1348 7.09927Z" fill="#6580E1" fill-opacity="0.6"/>
<path fill-rule="evenodd" clip-rule="evenodd" d="M52.5763 6.29053L52.0666 6.46166L51.3687 21.0798L51.8783 20.9087L52.5763 6.29053Z" fill="#6580E1" fill-opacity="0.6"/>
<path fill-rule="evenodd" clip-rule="evenodd" d="M52.0667 6.46168L48.5688 4.50366L47.8708 19.1218L51.3687 21.0798L52.0667 6.46168Z" fill="#6580E1" fill-opacity="0.6"/>
<path fill-rule="evenodd" clip-rule="evenodd" d="M48.5688 4.50359L46.6699 4.25732L45.9719 18.8755L47.8708 19.1217L48.5688 4.50359Z" fill="#6580E1" fill-opacity="0.6"/>
<path fill-rule="evenodd" clip-rule="evenodd" d="M46.6699 4.25732L47.1496 4.80153L46.4516 19.4197L45.9719 18.8755L46.6699 4.25732Z" fill="#6580E1" fill-opacity="0.6"/>
<path fill-rule="evenodd" clip-rule="evenodd" d="M47.1497 4.80151L45.6406 5.02213L44.9426 19.6403L46.4517 19.4197L47.1497 4.80151Z" fill="#6580E1" fill-opacity="0.6"/>
<path fill-rule="evenodd" clip-rule="evenodd" d="M45.6406 5.02225L45.031 4.83618L44.333 19.4543L44.9426 19.6404L45.6406 5.02225Z" fill="#6580E1" fill-opacity="0.6"/>
<path fill-rule="evenodd" clip-rule="evenodd" d="M45.0309 4.83603L44.8411 4.46289L44.1431 19.0811L44.333 19.4542L45.0309 4.83603Z" fill="#6580E1" fill-opacity="0.6"/>
<path fill-rule="evenodd" clip-rule="evenodd" d="M44.8411 4.46306L44.5913 4.40894L43.8933 19.0271L44.1432 19.0812L44.8411 4.46306Z" fill="#6580E1" fill-opacity="0.6"/>
<path fill-rule="evenodd" clip-rule="evenodd" d="M44.5913 4.40884L44.8312 4.06714L44.1332 18.6853L43.8933 19.027L44.5913 4.40884Z" fill="#6580E1" fill-opacity="0.6"/>
<path fill-rule="evenodd" clip-rule="evenodd" d="M44.8312 4.06705L44.6213 3.93213L43.9233 18.5503L44.1332 18.6852L44.8312 4.06705Z" fill="#6580E1" fill-opacity="0.6"/>
<path fill-rule="evenodd" clip-rule="evenodd" d="M44.6213 3.93232L39.5144 2.6084L38.8164 17.2266L43.9233 18.5505L44.6213 3.93232Z" fill="#6580E1" fill-opacity="0.6"/>
<path fill-rule="evenodd" clip-rule="evenodd" d="M39.5142 2.60831L35.5566 2.14575L34.8586 16.7639L38.8162 17.2265L39.5142 2.60831Z" fill="#6580E1" fill-opacity="0.6"/>
<path fill-rule="evenodd" clip-rule="evenodd" d="M35.5567 2.14575L35.147 2.43537L34.449 17.0535L34.8587 16.7639L35.5567 2.14575Z" fill="#6580E1" fill-opacity="0.6"/>
<path fill-rule="evenodd" clip-rule="evenodd" d="M35.1471 2.43547L34.9172 2.29321L34.2192 16.9114L34.4491 17.0536L35.1471 2.43547Z" fill="#6580E1" fill-opacity="0.6"/>
<path fill-rule="evenodd" clip-rule="evenodd" d="M34.9172 2.29314L31.8491 1.97607L31.1511 16.5942L34.2193 16.9113L34.9172 2.29314Z" fill="#6580E1" fill-opacity="0.6"/>
<path fill-rule="evenodd" clip-rule="evenodd" d="M31.8489 1.97602L27.1118 0L26.4138 14.6182L31.1509 16.5942L31.8489 1.97602Z" fill="#6580E1" fill-opacity="0.6"/>
<path fill-rule="evenodd" clip-rule="evenodd" d="M27.1118 0L20.9556 1.89559L20.2576 16.5138L26.4138 14.6182L27.1118 0Z" fill="#6580E1" fill-opacity="0.6"/>
<path fill-rule="evenodd" clip-rule="evenodd" d="M20.9555 1.89564L20.3259 1.53174L19.6279 16.1499L20.2575 16.5138L20.9555 1.89564Z" fill="#6580E1" fill-opacity="0.6"/>
<path fill-rule="evenodd" clip-rule="evenodd" d="M20.326 1.53174L20.0662 1.70923L19.3682 16.3274L19.628 16.1499L20.326 1.53174Z" fill="#6580E1" fill-opacity="0.6"/>
<path fill-rule="evenodd" clip-rule="evenodd" d="M20.0662 1.70923L20.4259 1.75934L19.7279 16.3775L19.3682 16.3274L20.0662 1.70923Z" fill="#6580E1" fill-opacity="0.6"/>
<path fill-rule="evenodd" clip-rule="evenodd" d="M20.426 1.75928L20.526 2.01418L19.828 16.6323L19.728 16.3774L20.426 1.75928Z" fill="#6580E1" fill-opacity="0.6"/>
<path fill-rule="evenodd" clip-rule="evenodd" d="M20.5259 2.01416L18.0674 2.88571L17.3694 17.5039L19.8279 16.6323L20.5259 2.01416Z" fill="#6580E1" fill-opacity="0.6"/>
<path fill-rule="evenodd" clip-rule="evenodd" d="M18.0675 2.88569L17.3979 2.52759L16.7 17.1458L17.3695 17.5039L18.0675 2.88569Z" fill="#6580E1" fill-opacity="0.6"/>
<path fill-rule="evenodd" clip-rule="evenodd" d="M17.3979 2.52759L17.8077 3.02226L17.1097 17.6404L16.7 17.1458L17.3979 2.52759Z" fill="#6580E1" fill-opacity="0.6"/>
<path fill-rule="evenodd" clip-rule="evenodd" d="M17.8076 3.02246L16.8481 3.61858L16.1501 18.2367L17.1096 17.6406L17.8076 3.02246Z" fill="#6580E1" fill-opacity="0.6"/>
<path fill-rule="evenodd" clip-rule="evenodd" d="M16.8481 3.61848L16.5383 3.2832L15.8403 17.9014L16.1501 18.2366L16.8481 3.61848Z" fill="#6580E1" fill-opacity="0.6"/>
<path fill-rule="evenodd" clip-rule="evenodd" d="M16.5383 3.2832L15.8787 3.36868L15.1807 17.9868L15.8403 17.9014L16.5383 3.2832Z" fill="#6580E1" fill-opacity="0.6"/>
<path fill-rule="evenodd" clip-rule="evenodd" d="M15.8787 3.36865L16.1485 3.98934L15.4505 18.6075L15.1807 17.9868L15.8787 3.36865Z" fill="#6580E1" fill-opacity="0.6"/>
<path fill-rule="evenodd" clip-rule="evenodd" d="M16.1486 3.98926L15.9788 4.16222L15.2808 18.7804L15.4507 18.6074L16.1486 3.98926Z" fill="#6580E1" fill-opacity="0.6"/>
<path fill-rule="evenodd" clip-rule="evenodd" d="M15.9788 4.16235L11.2417 6.90577L10.5437 21.5239L15.2808 18.7805L15.9788 4.16235Z" fill="#6580E1" fill-opacity="0.6"/>
<path fill-rule="evenodd" clip-rule="evenodd" d="M11.2416 6.90575L11.0517 6.80542L10.3538 21.4236L10.5436 21.5239L11.2416 6.90575Z" fill="#6580E1" fill-opacity="0.6"/>
<path fill-rule="evenodd" clip-rule="evenodd" d="M11.0517 6.80542L10.2222 7.03657L9.52417 21.6547L10.3537 21.4236L11.0517 6.80542Z" fill="#6580E1" fill-opacity="0.6"/>
<path fill-rule="evenodd" clip-rule="evenodd" d="M10.2222 7.03662L10.462 7.26099L9.76401 21.8791L9.52417 21.6548L10.2222 7.03662Z" fill="#6580E1" fill-opacity="0.6"/>
<path fill-rule="evenodd" clip-rule="evenodd" d="M10.462 7.26099L10.3621 7.37437L9.66406 21.9925L9.76399 21.8792L10.462 7.26099Z" fill="#6580E1" fill-opacity="0.6"/>
<path fill-rule="evenodd" clip-rule="evenodd" d="M10.3621 7.37427L6.40453 9.58517L5.70654 24.2033L9.66414 21.9924L10.3621 7.37427Z" fill="#6580E1" fill-opacity="0.6"/>
<path fill-rule="evenodd" clip-rule="evenodd" d="M6.40453 9.58521L7.09411 10.8918L6.39612 25.51L5.70654 24.2034L6.40453 9.58521Z" fill="#6580E1" fill-opacity="0.6"/>
<path fill-rule="evenodd" clip-rule="evenodd" d="M7.09399 10.8918L7.68363 13.7986L6.98564 28.4167L6.396 25.51L7.09399 10.8918Z" fill="#6580E1" fill-opacity="0.6"/>
<path fill-rule="evenodd" clip-rule="evenodd" d="M7.68383 13.7986L7.88372 15.8906L7.18573 30.5088L6.98584 28.4167L7.68383 13.7986Z" fill="#6580E1" fill-opacity="0.6"/>
<path fill-rule="evenodd" clip-rule="evenodd" d="M7.88357 15.8906L7.44384 15.9476L6.74585 30.5658L7.18558 30.5088L7.88357 15.8906Z" fill="#6580E1" fill-opacity="0.6"/>
<path fill-rule="evenodd" clip-rule="evenodd" d="M7.44379 15.9475L7.4038 16.1374L6.70581 30.7556L6.7458 30.5657L7.44379 15.9475Z" fill="#6580E1" fill-opacity="0.6"/>
<path fill-rule="evenodd" clip-rule="evenodd" d="M7.4038 16.1375L7.9035 16.1911L7.20551 30.8093L6.70581 30.7556L7.4038 16.1375Z" fill="#6580E1" fill-opacity="0.6"/>
<path fill-rule="evenodd" clip-rule="evenodd" d="M7.90356 16.1912L7.98351 16.3637L7.28552 30.9819L7.20557 30.8093L7.90356 16.1912Z" fill="#6580E1" fill-opacity="0.6"/>
<path fill-rule="evenodd" clip-rule="evenodd" d="M7.98363 16.3638L8.77316 21.5194L8.07517 36.1375L7.28564 30.9819L7.98363 16.3638Z" fill="#6580E1" fill-opacity="0.6"/>
<path fill-rule="evenodd" clip-rule="evenodd" d="M8.77313 21.5193L5.65502 22.5581L4.95703 37.1763L8.07514 36.1375L8.77313 21.5193Z" fill="#6580E1" fill-opacity="0.6"/>
<path fill-rule="evenodd" clip-rule="evenodd" d="M5.65492 22.5581L5.44506 25.8741L4.74707 40.4922L4.95693 37.1763L5.65492 22.5581Z" fill="#6580E1" fill-opacity="0.6"/>
<path fill-rule="evenodd" clip-rule="evenodd" d="M5.44499 25.874L3.85595 27.9135L3.15796 42.5317L4.747 40.4922L5.44499 25.874Z" fill="#6580E1" fill-opacity="0.6"/>
<path fill-rule="evenodd" clip-rule="evenodd" d="M3.85595 27.9136L5.05523 28.8513L4.35724 43.4694L3.15796 42.5317L3.85595 27.9136Z" fill="#6580E1" fill-opacity="0.6"/>
<path fill-rule="evenodd" clip-rule="evenodd" d="M5.05532 28.8513L3.29638 30.4227L2.59839 45.0409L4.35733 43.4695L5.05532 28.8513Z" fill="#6580E1" fill-opacity="0.6"/>
<path fill-rule="evenodd" clip-rule="evenodd" d="M3.29632 30.4226L1.72729 32.8445L1.0293 47.4627L2.59833 45.0408L3.29632 30.4226Z" fill="#6580E1" fill-opacity="0.6"/>
<path fill-rule="evenodd" clip-rule="evenodd" d="M1.72729 32.8447L2.187 32.9315L1.48901 47.5497L1.0293 47.4629L1.72729 32.8447Z" fill="#6580E1" fill-opacity="0.6"/>
<path fill-rule="evenodd" clip-rule="evenodd" d="M2.187 32.9314L3.57616 34.1058L2.87817 48.724L1.48901 47.5496L2.187 32.9314Z" fill="#6580E1" fill-opacity="0.6"/>
<path fill-rule="evenodd" clip-rule="evenodd" d="M3.57616 34.106L3.98591 36.7762L3.28792 51.3944L2.87817 48.7241L3.57616 34.106Z" fill="#6580E1" fill-opacity="0.6"/>
<path fill-rule="evenodd" clip-rule="evenodd" d="M3.98608 36.7761L5.07541 38.5362L4.37742 53.1544L3.28809 51.3943L3.98608 36.7761Z" fill="#6580E1" fill-opacity="0.6"/>
<path fill-rule="evenodd" clip-rule="evenodd" d="M5.07543 38.5361L5.3053 39.831L4.60731 54.4491L4.37744 53.1543L5.07543 38.5361Z" fill="#6580E1" fill-opacity="0.6"/>
<path fill-rule="evenodd" clip-rule="evenodd" d="M5.30531 39.8311L4.156 39.9858L3.45801 54.604L4.60732 54.4492L5.30531 39.8311Z" fill="#6580E1" fill-opacity="0.6"/>
<path fill-rule="evenodd" clip-rule="evenodd" d="M4.156 39.9858L4.71566 43.0214L4.01767 57.6395L3.45801 54.604L4.156 39.9858Z" fill="#6580E1" fill-opacity="0.6"/>
<path fill-rule="evenodd" clip-rule="evenodd" d="M4.71557 43.0215L5.47512 43.6479L4.77713 58.266L4.01758 57.6396L4.71557 43.0215Z" fill="#6580E1" fill-opacity="0.6"/>
<path fill-rule="evenodd" clip-rule="evenodd" d="M5.47504 43.6477L5.44506 44.3221L4.74707 58.9403L4.77705 58.2659L5.47504 43.6477Z" fill="#6580E1" fill-opacity="0.6"/>
<path fill-rule="evenodd" clip-rule="evenodd" d="M5.44506 44.3223L5.95474 44.6695L5.25675 59.2876L4.74707 58.9404L5.44506 44.3223Z" fill="#6580E1" fill-opacity="0.6"/>
<path fill-rule="evenodd" clip-rule="evenodd" d="M5.95483 44.6694L6.44454 45.8209L5.74655 60.439L5.25684 59.2876L5.95483 44.6694Z" fill="#6580E1" fill-opacity="0.6"/>
<path fill-rule="evenodd" clip-rule="evenodd" d="M6.44457 45.8208L7.21409 46.4747L6.5161 61.0929L5.74658 60.439L6.44457 45.8208Z" fill="#6580E1" fill-opacity="0.6"/>
<path fill-rule="evenodd" clip-rule="evenodd" d="M7.2141 46.4746V46.6656L6.51611 61.2837V61.0928L7.2141 46.4746Z" fill="#6580E1" fill-opacity="0.6"/>
<path fill-rule="evenodd" clip-rule="evenodd" d="M7.2141 46.6658L9.15292 47.8269L8.45493 62.4451L6.51611 61.2839L7.2141 46.6658Z" fill="#6580E1" fill-opacity="0.6"/>
<path fill-rule="evenodd" clip-rule="evenodd" d="M9.15282 47.8269L9.95234 48.1065L9.25435 62.7246L8.45483 62.4451L9.15282 47.8269Z" fill="#6580E1" fill-opacity="0.6"/>
<path fill-rule="evenodd" clip-rule="evenodd" d="M9.95238 48.1064L10.1023 48.4717L9.4043 63.0899L9.25439 62.7246L9.95238 48.1064Z" fill="#6580E1" fill-opacity="0.6"/>
<path fill-rule="evenodd" clip-rule="evenodd" d="M10.1023 48.4717L7.03417 47.991L6.33618 62.6091L9.4043 63.0899L10.1023 48.4717Z" fill="#6580E1" fill-opacity="0.6"/>
<path fill-rule="evenodd" clip-rule="evenodd" d="M7.03409 47.991L6.5144 48.837L5.81641 63.4552L6.3361 62.6091L7.03409 47.991Z" fill="#6580E1" fill-opacity="0.6"/>
<path fill-rule="evenodd" clip-rule="evenodd" d="M6.5144 48.8369L8.69308 50.9863L7.99509 65.6045L5.81641 63.4551L6.5144 48.8369Z" fill="#6580E1" fill-opacity="0.6"/>
<path fill-rule="evenodd" clip-rule="evenodd" d="M8.69311 50.9865L10.0123 50.9724L9.3143 65.5906L7.99512 65.6046L8.69311 50.9865Z" fill="#6580E1" fill-opacity="0.6"/>
<path fill-rule="evenodd" clip-rule="evenodd" d="M10.0123 50.9724L9.61254 51.8352L8.91455 66.4533L9.3143 65.5906L10.0123 50.9724Z" fill="#6580E1" fill-opacity="0.6"/>
<path fill-rule="evenodd" clip-rule="evenodd" d="M9.61264 51.8352L8.13354 53.6729L7.43555 68.2911L8.91465 66.4534L9.61264 51.8352Z" fill="#6580E1" fill-opacity="0.6"/>
<path fill-rule="evenodd" clip-rule="evenodd" d="M8.13345 53.6729L7.92358 53.2583L7.22559 67.8765L7.43546 68.291L8.13345 53.6729Z" fill="#6580E1" fill-opacity="0.6"/>
<path fill-rule="evenodd" clip-rule="evenodd" d="M7.9237 53.2583L6.61449 52.27L5.9165 66.8882L7.22571 67.8764L7.9237 53.2583Z" fill="#6580E1" fill-opacity="0.6"/>
<path fill-rule="evenodd" clip-rule="evenodd" d="M6.61447 52.27L3.36645 52.3166L2.66846 66.9348L5.91648 66.8882L6.61447 52.27Z" fill="#6580E1" fill-opacity="0.6"/>
<path fill-rule="evenodd" clip-rule="evenodd" d="M3.36636 52.3167L2.07714 52.9316L1.37915 67.5498L2.66837 66.9348L3.36636 52.3167Z" fill="#6580E1" fill-opacity="0.6"/>
<path fill-rule="evenodd" clip-rule="evenodd" d="M2.07714 52.9316L0.69799 53.1419L0 67.7601L1.37915 67.5498L2.07714 52.9316Z" fill="#6580E1" fill-opacity="0.6"/>
<path fill-rule="evenodd" clip-rule="evenodd" d="M0.69799 53.1418L1.57744 55.2512L0.879454 69.8694L0 67.76L0.69799 53.1418Z" fill="#6580E1" fill-opacity="0.6"/>
<path fill-rule="evenodd" clip-rule="evenodd" d="M1.57738 55.2512L4.69549 56.1902L3.9975 70.8083L0.879395 69.8694L1.57738 55.2512Z" fill="#6580E1" fill-opacity="0.6"/>
<path fill-rule="evenodd" clip-rule="evenodd" d="M4.69555 56.1902L5.2452 56.5316L4.54721 71.1497L3.99756 70.8083L4.69555 56.1902Z" fill="#6580E1" fill-opacity="0.6"/>
<path fill-rule="evenodd" clip-rule="evenodd" d="M5.24511 56.5317L5.25511 56.8457L4.55712 71.4639L4.54712 71.1499L5.24511 56.5317Z" fill="#6580E1" fill-opacity="0.6"/>
<path fill-rule="evenodd" clip-rule="evenodd" d="M5.25512 56.8457L4.32568 57.4221L3.62769 72.0403L4.55713 71.4639L5.25512 56.8457Z" fill="#6580E1" fill-opacity="0.6"/>
<path fill-rule="evenodd" clip-rule="evenodd" d="M4.32568 57.4221L5.38504 58.4313L4.68705 73.0494L3.62769 72.0403L4.32568 57.4221Z" fill="#6580E1" fill-opacity="0.6"/>
<path fill-rule="evenodd" clip-rule="evenodd" d="M5.38525 58.4313L6.06483 58.1963L5.36684 72.8145L4.68726 73.0494L5.38525 58.4313Z" fill="#6580E1" fill-opacity="0.6"/>
<path fill-rule="evenodd" clip-rule="evenodd" d="M6.06469 58.1963L6.51441 58.4669L5.81642 73.0851L5.3667 72.8145L6.06469 58.1963Z" fill="#6580E1" fill-opacity="0.6"/>
<path fill-rule="evenodd" clip-rule="evenodd" d="M6.5144 58.4668L10.7618 62.2922L10.0638 76.9103L5.81641 73.085L6.5144 58.4668Z" fill="#6580E1" fill-opacity="0.6"/>
<path fill-rule="evenodd" clip-rule="evenodd" d="M10.762 62.2921L12.1611 61.4685L11.4631 76.0867L10.064 76.9103L10.762 62.2921Z" fill="#6580E1" fill-opacity="0.6"/>
<path fill-rule="evenodd" clip-rule="evenodd" d="M12.161 61.4686L11.9011 60.9709L11.2031 75.5891L11.463 76.0868L12.161 61.4686Z" fill="#6580E1" fill-opacity="0.6"/>
<path fill-rule="evenodd" clip-rule="evenodd" d="M11.9011 60.971L13.5701 60.3862L12.8721 75.0044L11.2031 75.5892L11.9011 60.971Z" fill="#6580E1" fill-opacity="0.6"/>
<path fill-rule="evenodd" clip-rule="evenodd" d="M13.5701 60.3862L14.4795 61.262L13.7815 75.8801L12.8721 75.0044L13.5701 60.3862Z" fill="#6580E1" fill-opacity="0.6"/>
<path fill-rule="evenodd" clip-rule="evenodd" d="M14.4795 61.262L15.5488 62.5919L14.8508 77.2101L13.7815 75.8801L14.4795 61.262Z" fill="#6580E1" fill-opacity="0.6"/>
<path fill-rule="evenodd" clip-rule="evenodd" d="M15.5491 62.5918L16.3086 64.2616L15.6106 78.8798L14.8511 77.21L15.5491 62.5918Z" fill="#6580E1" fill-opacity="0.6"/>
<path fill-rule="evenodd" clip-rule="evenodd" d="M16.3086 64.2617L17.4279 65.477L16.7299 80.0951L15.6106 78.8799L16.3086 64.2617Z" fill="#6580E1" fill-opacity="0.6"/>
<path fill-rule="evenodd" clip-rule="evenodd" d="M17.4277 65.4768L17.5477 66.8848L16.8497 81.503L16.7297 80.095L17.4277 65.4768Z" fill="#6580E1" fill-opacity="0.6"/>
<path fill-rule="evenodd" clip-rule="evenodd" d="M17.5478 66.8848L18.2474 67.5369L17.5494 82.1551L16.8499 81.5029L17.5478 66.8848Z" fill="#6580E1" fill-opacity="0.6"/>
<path fill-rule="evenodd" clip-rule="evenodd" d="M18.2473 67.5371L18.5171 68.8944L17.8192 83.5125L17.5493 82.1553L18.2473 67.5371Z" fill="#6580E1" fill-opacity="0.6"/>
<path fill-rule="evenodd" clip-rule="evenodd" d="M18.5172 68.8943L17.8276 69.2791L17.1296 83.8972L17.8192 83.5125L18.5172 68.8943Z" fill="#6580E1" fill-opacity="0.6"/>
<path fill-rule="evenodd" clip-rule="evenodd" d="M17.8276 69.2791L18.5372 69.9383L17.8392 84.5564L17.1296 83.8972L17.8276 69.2791Z" fill="#6580E1" fill-opacity="0.6"/>
<path fill-rule="evenodd" clip-rule="evenodd" d="M18.5372 69.9382L17.6577 70.0181L16.9597 84.6362L17.8392 84.5564L18.5372 69.9382Z" fill="#6580E1" fill-opacity="0.6"/>
<path fill-rule="evenodd" clip-rule="evenodd" d="M17.6577 70.0181L17.218 71.0435L16.52 85.6616L16.9598 84.6362L17.6577 70.0181Z" fill="#6580E1" fill-opacity="0.6"/>
<path fill-rule="evenodd" clip-rule="evenodd" d="M17.2179 71.0435L16.2385 72.1369L15.5405 86.7551L16.5199 85.6616L17.2179 71.0435Z" fill="#6580E1" fill-opacity="0.6"/>
<path fill-rule="evenodd" clip-rule="evenodd" d="M16.2385 72.137L15.6289 72.5647L14.9309 87.1829L15.5405 86.7551L16.2385 72.137Z" fill="#6580E1" fill-opacity="0.6"/>
<path fill-rule="evenodd" clip-rule="evenodd" d="M15.629 72.5647L14.7795 72.5498L14.0815 87.168L14.931 87.1828L15.629 72.5647Z" fill="#6580E1" fill-opacity="0.6"/>
<path fill-rule="evenodd" clip-rule="evenodd" d="M14.7795 72.5498L14.4497 73.1961L13.7517 87.8143L14.0815 87.168L14.7795 72.5498Z" fill="#6580E1" fill-opacity="0.6"/>
<path fill-rule="evenodd" clip-rule="evenodd" d="M14.4497 73.196L17.7977 75.1911L17.0997 89.8093L13.7517 87.8142L14.4497 73.196Z" fill="#6580E1" fill-opacity="0.6"/>
<path fill-rule="evenodd" clip-rule="evenodd" d="M17.7976 75.1912L19.5965 76.5329L18.8985 91.1511L17.0996 89.8093L17.7976 75.1912Z" fill="#6580E1" fill-opacity="0.6"/>
<path fill-rule="evenodd" clip-rule="evenodd" d="M19.5964 76.533L21.2454 76.0227L20.5474 90.6409L18.8984 91.1512L19.5964 76.533Z" fill="#6580E1" fill-opacity="0.6"/>
<path fill-rule="evenodd" clip-rule="evenodd" d="M21.2454 76.0227L22.0249 76.52L21.3269 91.1382L20.5474 90.6409L21.2454 76.0227Z" fill="#6580E1" fill-opacity="0.6"/>
<path fill-rule="evenodd" clip-rule="evenodd" d="M22.0249 76.52L23.7438 77.9279L23.0459 92.5461L21.3269 91.1382L22.0249 76.52Z" fill="#6580E1" fill-opacity="0.6"/>
<path fill-rule="evenodd" clip-rule="evenodd" d="M23.7439 77.9279L25.9725 77.1255L25.2745 91.7437L23.0459 92.5461L23.7439 77.9279Z" fill="#6580E1" fill-opacity="0.6"/>
<path fill-rule="evenodd" clip-rule="evenodd" d="M25.9726 77.1253L25.4629 76.4849L24.7649 91.103L25.2746 91.7435L25.9726 77.1253Z" fill="#6580E1" fill-opacity="0.6"/>
<path fill-rule="evenodd" clip-rule="evenodd" d="M25.4629 76.4849L25.9726 75.9182L25.2746 90.5364L24.7649 91.1031L25.4629 76.4849Z" fill="#6580E1" fill-opacity="0.6"/>
<path fill-rule="evenodd" clip-rule="evenodd" d="M25.9726 75.9183L26.3724 75.833L25.6744 90.4512L25.2747 90.5364L25.9726 75.9183Z" fill="#6580E1" fill-opacity="0.6"/>
<path fill-rule="evenodd" clip-rule="evenodd" d="M26.3723 75.8331L26.7821 75.4548L26.0841 90.073L25.6743 90.4513L26.3723 75.8331Z" fill="#6580E1" fill-opacity="0.6"/>
<path fill-rule="evenodd" clip-rule="evenodd" d="M26.7822 75.4546L27.222 75.384L26.524 90.0022L26.0842 90.0728L26.7822 75.4546Z" fill="#6580E1" fill-opacity="0.6"/>
<path fill-rule="evenodd" clip-rule="evenodd" d="M27.2219 75.3841L27.4718 75.1177L26.7738 89.7358L26.5239 90.0023L27.2219 75.3841Z" fill="#6580E1" fill-opacity="0.6"/>
<path fill-rule="evenodd" clip-rule="evenodd" d="M27.4717 75.1177L27.6915 75.5734L26.9935 90.1916L26.7737 89.7358L27.4717 75.1177Z" fill="#6580E1" fill-opacity="0.6"/>
<path fill-rule="evenodd" clip-rule="evenodd" d="M27.6916 75.5735L28.3712 76.116L27.6732 90.7341L26.9937 90.1917L27.6916 75.5735Z" fill="#6580E1" fill-opacity="0.6"/>
<path fill-rule="evenodd" clip-rule="evenodd" d="M28.3711 76.116L29.2705 76.5072L28.5725 91.1254L27.6731 90.7341L28.3711 76.116Z" fill="#6580E1" fill-opacity="0.6"/>
<path fill-rule="evenodd" clip-rule="evenodd" d="M29.2705 76.5071L29.8601 77.1973L29.1622 91.8155L28.5725 91.1252L29.2705 76.5071Z" fill="#6580E1" fill-opacity="0.6"/>
<path fill-rule="evenodd" clip-rule="evenodd" d="M29.8603 77.1974L30.38 76.4878L29.682 91.106L29.1624 91.8156L29.8603 77.1974Z" fill="#6580E1" fill-opacity="0.6"/>
<path fill-rule="evenodd" clip-rule="evenodd" d="M30.3799 76.4877L29.6504 75.5757L28.9524 90.1938L29.6819 91.1059L30.3799 76.4877Z" fill="#6580E1" fill-opacity="0.6"/>
<path fill-rule="evenodd" clip-rule="evenodd" d="M29.6504 75.5758L30.21 75.0786L29.5121 89.6968L28.9524 90.194L29.6504 75.5758Z" fill="#6580E1" fill-opacity="0.6"/>
<path fill-rule="evenodd" clip-rule="evenodd" d="M30.21 75.0786L30.3699 75.0349L29.6719 89.6531L29.512 89.6967L30.21 75.0786Z" fill="#6580E1" fill-opacity="0.6"/>
<path fill-rule="evenodd" clip-rule="evenodd" d="M30.3699 75.0349L31.1794 75.9626L30.4814 90.5808L29.6719 89.6531L30.3699 75.0349Z" fill="#6580E1" fill-opacity="0.6"/>
<path fill-rule="evenodd" clip-rule="evenodd" d="M31.1794 75.9626L33.2482 75.9541L32.5502 90.5723L30.4814 90.5808L31.1794 75.9626Z" fill="#6580E1" fill-opacity="0.6"/>
<path fill-rule="evenodd" clip-rule="evenodd" d="M33.248 75.954L33.8677 75.1787L33.1697 89.7969L32.55 90.5722L33.248 75.954Z" fill="#6580E1" fill-opacity="0.6"/>
<path fill-rule="evenodd" clip-rule="evenodd" d="M33.8677 75.1787L34.5972 75.3269L33.8992 89.9451L33.1697 89.7969L33.8677 75.1787Z" fill="#6580E1" fill-opacity="0.6"/>
<path fill-rule="evenodd" clip-rule="evenodd" d="M34.5974 75.3269L34.7173 74.8457L34.0193 89.4639L33.8994 89.945L34.5974 75.3269Z" fill="#6580E1" fill-opacity="0.6"/>
<path fill-rule="evenodd" clip-rule="evenodd" d="M34.7173 74.8459L35.117 74.6992L34.419 89.3174L34.0193 89.464L34.7173 74.8459Z" fill="#6580E1" fill-opacity="0.6"/>
<path fill-rule="evenodd" clip-rule="evenodd" d="M35.1169 74.6993L34.967 74.334L34.269 88.9521L34.419 89.3174L35.1169 74.6993Z" fill="#6580E1" fill-opacity="0.6"/>
<path fill-rule="evenodd" clip-rule="evenodd" d="M34.967 74.334L36.5761 75.5277L35.8781 90.1458L34.269 88.9521L34.967 74.334Z" fill="#6580E1" fill-opacity="0.6"/>
<path fill-rule="evenodd" clip-rule="evenodd" d="M36.5762 75.5276L36.896 76.3473L36.198 90.9655L35.8782 90.1458L36.5762 75.5276Z" fill="#6580E1" fill-opacity="0.6"/>
<path fill-rule="evenodd" clip-rule="evenodd" d="M36.8959 76.3474L36.706 76.6154L36.0081 91.2335L36.1979 90.9656L36.8959 76.3474Z" fill="#6580E1" fill-opacity="0.6"/>
<path fill-rule="evenodd" clip-rule="evenodd" d="M36.706 76.6152L37.5455 76.7731L36.8475 91.3912L36.0081 91.2334L36.706 76.6152Z" fill="#6580E1" fill-opacity="0.6"/>
<path fill-rule="evenodd" clip-rule="evenodd" d="M37.5454 76.773L37.4055 76.1147L36.7075 90.7329L36.8474 91.3912L37.5454 76.773Z" fill="#6580E1" fill-opacity="0.6"/>
<path fill-rule="evenodd" clip-rule="evenodd" d="M37.4055 76.1149L38.0251 75.7556L37.3271 90.3738L36.7075 90.7331L37.4055 76.1149Z" fill="#6580E1" fill-opacity="0.6"/>
<path fill-rule="evenodd" clip-rule="evenodd" d="M38.0251 75.7556L38.245 75.9386L37.547 90.5567L37.3271 90.3738L38.0251 75.7556Z" fill="#6580E1" fill-opacity="0.6"/>
<path fill-rule="evenodd" clip-rule="evenodd" d="M38.2452 75.9385L37.8254 76.296L37.1274 90.9142L37.5472 90.5566L38.2452 75.9385Z" fill="#6580E1" fill-opacity="0.6"/>
<path fill-rule="evenodd" clip-rule="evenodd" d="M37.8254 76.2959L37.9454 76.5172L37.2474 91.1354L37.1274 90.9141L37.8254 76.2959Z" fill="#6580E1" fill-opacity="0.6"/>
<path fill-rule="evenodd" clip-rule="evenodd" d="M37.9453 76.5172L38.3251 76.4382L37.6271 91.0564L37.2473 91.1354L37.9453 76.5172Z" fill="#6580E1" fill-opacity="0.6"/>
<path fill-rule="evenodd" clip-rule="evenodd" d="M38.3249 76.4383L38.6048 75.6543L37.9068 90.2725L37.627 91.0564L38.3249 76.4383Z" fill="#6580E1" fill-opacity="0.6"/>
<path fill-rule="evenodd" clip-rule="evenodd" d="M38.605 75.6543L39.3445 75.7073L38.6465 90.3254L37.907 90.2725L38.605 75.6543Z" fill="#6580E1" fill-opacity="0.6"/>
<path fill-rule="evenodd" clip-rule="evenodd" d="M39.3445 75.7073L39.3645 75.9669L38.6665 90.5851L38.6465 90.3254L39.3445 75.7073Z" fill="#6580E1" fill-opacity="0.6"/>
<path fill-rule="evenodd" clip-rule="evenodd" d="M39.3645 75.967L39.8942 76.4784L39.1962 91.0966L38.6665 90.5852L39.3645 75.967Z" fill="#6580E1" fill-opacity="0.6"/>
<path fill-rule="evenodd" clip-rule="evenodd" d="M39.894 76.4785L40.1539 76.4033L39.4559 91.0215L39.196 91.0967L39.894 76.4785Z" fill="#6580E1" fill-opacity="0.6"/>
<path fill-rule="evenodd" clip-rule="evenodd" d="M40.154 76.4033L40.4539 76.5474L39.7559 91.1655L39.4561 91.0215L40.154 76.4033Z" fill="#6580E1" fill-opacity="0.6"/>
<path fill-rule="evenodd" clip-rule="evenodd" d="M40.4538 76.5473L41.0135 75.4568L40.3155 90.075L39.7559 91.1655L40.4538 76.5473Z" fill="#6580E1" fill-opacity="0.6"/>
<path fill-rule="evenodd" clip-rule="evenodd" d="M41.0134 75.4568L42.1227 74.9531L41.4248 89.5713L40.3154 90.0749L41.0134 75.4568Z" fill="#6580E1" fill-opacity="0.6"/>
<path fill-rule="evenodd" clip-rule="evenodd" d="M42.1228 74.9531L42.7924 74.977L42.0944 89.5952L41.4248 89.5713L42.1228 74.9531Z" fill="#6580E1" fill-opacity="0.6"/>
<path fill-rule="evenodd" clip-rule="evenodd" d="M42.7922 74.9771L42.4924 74.4375L41.7944 89.0557L42.0943 89.5953L42.7922 74.9771Z" fill="#6580E1" fill-opacity="0.6"/>
<path fill-rule="evenodd" clip-rule="evenodd" d="M42.4924 74.4375L42.9921 74.4844L42.2941 89.1025L41.7944 89.0557L42.4924 74.4375Z" fill="#6580E1" fill-opacity="0.6"/>
<path fill-rule="evenodd" clip-rule="evenodd" d="M42.9922 74.4843L43.1621 74.1067L42.4641 88.7249L42.2942 89.1024L42.9922 74.4843Z" fill="#6580E1" fill-opacity="0.6"/>
<path fill-rule="evenodd" clip-rule="evenodd" d="M43.1621 74.1068L42.3726 73.7524L41.6746 88.3706L42.4641 88.7249L43.1621 74.1068Z" fill="#6580E1" fill-opacity="0.6"/>
<path fill-rule="evenodd" clip-rule="evenodd" d="M42.3726 73.7522L42.9222 73.4185L42.2242 88.0366L41.6746 88.3704L42.3726 73.7522Z" fill="#6580E1" fill-opacity="0.6"/>
<path fill-rule="evenodd" clip-rule="evenodd" d="M42.9224 73.4185L43.572 74.0693L42.874 88.6875L42.2244 88.0366L42.9224 73.4185Z" fill="#6580E1" fill-opacity="0.6"/>
<path fill-rule="evenodd" clip-rule="evenodd" d="M43.5718 74.0693L43.7017 74.6046L43.0037 89.2228L42.8738 88.6875L43.5718 74.0693Z" fill="#6580E1" fill-opacity="0.6"/>
<path fill-rule="evenodd" clip-rule="evenodd" d="M43.7019 74.6047L44.3915 74.6905L43.6935 89.3087L43.0039 89.2229L43.7019 74.6047Z" fill="#6580E1" fill-opacity="0.6"/>
<path fill-rule="evenodd" clip-rule="evenodd" d="M44.3913 74.6904L44.6412 75.0924L43.9432 89.7105L43.6934 89.3086L44.3913 74.6904Z" fill="#6580E1" fill-opacity="0.6"/>
<path fill-rule="evenodd" clip-rule="evenodd" d="M44.6411 75.0925L45.6805 75.6851L44.9825 90.3033L43.9431 89.7107L44.6411 75.0925Z" fill="#6580E1" fill-opacity="0.6"/>
<path fill-rule="evenodd" clip-rule="evenodd" d="M45.6807 75.6851L45.9705 75.6925L45.2725 90.3106L44.9827 90.3032L45.6807 75.6851Z" fill="#6580E1" fill-opacity="0.6"/>
<path fill-rule="evenodd" clip-rule="evenodd" d="M45.9705 75.6924L46.2003 76.2711L45.5023 90.8893L45.2725 90.3105L45.9705 75.6924Z" fill="#6580E1" fill-opacity="0.6"/>
<path fill-rule="evenodd" clip-rule="evenodd" d="M46.2002 76.2712L49.5282 77.3861L48.8302 92.0042L45.5022 90.8894L46.2002 76.2712Z" fill="#6580E1" fill-opacity="0.6"/>
<path fill-rule="evenodd" clip-rule="evenodd" d="M49.5283 77.386L51.4571 78.8606L50.7591 93.4788L48.8303 92.0042L49.5283 77.386Z" fill="#6580E1" fill-opacity="0.6"/>
<path fill-rule="evenodd" clip-rule="evenodd" d="M51.457 78.8606L52.1966 79.807L51.4986 94.4252L50.759 93.4788L51.457 78.8606Z" fill="#6580E1" fill-opacity="0.6"/>
<path fill-rule="evenodd" clip-rule="evenodd" d="M52.1965 79.8071L53.1759 80.3436L52.4779 94.9618L51.4985 94.4253L52.1965 79.8071Z" fill="#6580E1" fill-opacity="0.6"/>
<path fill-rule="evenodd" clip-rule="evenodd" d="M53.176 80.3435L53.4359 81.0049L52.7379 95.623L52.478 94.9617L53.176 80.3435Z" fill="#6580E1" fill-opacity="0.6"/>
<path fill-rule="evenodd" clip-rule="evenodd" d="M53.4358 81.0049L55.5845 81.4076L54.8865 96.0257L52.7378 95.623L53.4358 81.0049Z" fill="#6580E1" fill-opacity="0.6"/>
<path fill-rule="evenodd" clip-rule="evenodd" d="M55.5845 81.4077L55.8843 81.7359L55.1863 96.3541L54.8865 96.0259L55.5845 81.4077Z" fill="#6580E1" fill-opacity="0.6"/>
<path fill-rule="evenodd" clip-rule="evenodd" d="M55.8844 81.7358L54.7651 82.5939L54.0671 97.212L55.1865 96.354L55.8844 81.7358Z" fill="#6580E1" fill-opacity="0.6"/>
<path fill-rule="evenodd" clip-rule="evenodd" d="M54.7651 82.5938L54.915 83.3955L54.217 98.0137L54.0671 97.2119L54.7651 82.5938Z" fill="#6580E1" fill-opacity="0.6"/>
<path fill-rule="evenodd" clip-rule="evenodd" d="M54.915 83.3955L56.4341 84.0004L55.7361 98.6185L54.217 98.0137L54.915 83.3955Z" fill="#6580E1" fill-opacity="0.6"/>
<path fill-rule="evenodd" clip-rule="evenodd" d="M56.4341 84.0005L57.3635 84.8085L56.6655 99.4267L55.7361 98.6187L56.4341 84.0005Z" fill="#6580E1" fill-opacity="0.6"/>
<path fill-rule="evenodd" clip-rule="evenodd" d="M57.3635 84.8086L57.8832 85.5789L57.1852 100.197L56.6655 99.4268L57.3635 84.8086Z" fill="#6580E1" fill-opacity="0.6"/>
<path fill-rule="evenodd" clip-rule="evenodd" d="M57.883 85.5789L58.2128 85.6828L57.5149 100.301L57.1851 100.197L57.883 85.5789Z" fill="#6580E1" fill-opacity="0.6"/>
<path fill-rule="evenodd" clip-rule="evenodd" d="M58.2129 85.6826L58.7326 85.2935L58.0346 99.9116L57.5149 100.301L58.2129 85.6826Z" fill="#6580E1" fill-opacity="0.6"/>
<path fill-rule="evenodd" clip-rule="evenodd" d="M58.7327 85.2935L59.9019 85.6575L59.204 100.276L58.0347 99.9116L58.7327 85.2935Z" fill="#6580E1" fill-opacity="0.6"/>
<path fill-rule="evenodd" clip-rule="evenodd" d="M59.902 85.6575L59.852 85.1243L59.1541 99.7424L59.204 100.276L59.902 85.6575Z" fill="#6580E1" fill-opacity="0.6"/>
<path fill-rule="evenodd" clip-rule="evenodd" d="M59.852 85.1243L60.6615 85.5132L59.9636 100.131L59.1541 99.7424L59.852 85.1243Z" fill="#6580E1" fill-opacity="0.6"/>
<path fill-rule="evenodd" clip-rule="evenodd" d="M60.6614 85.5134L62.1505 86.7654L61.4525 101.384L59.9634 100.132L60.6614 85.5134Z" fill="#6580E1" fill-opacity="0.6"/>
<path fill-rule="evenodd" clip-rule="evenodd" d="M62.1506 86.7653L62.2805 86.489L61.5826 101.107L61.4526 101.383L62.1506 86.7653Z" fill="#6580E1" fill-opacity="0.6"/>
<path fill-rule="evenodd" clip-rule="evenodd" d="M62.2805 86.489L65.9183 88.3074L65.2203 102.926L61.5825 101.107L62.2805 86.489Z" fill="#6580E1" fill-opacity="0.6"/>
<path fill-rule="evenodd" clip-rule="evenodd" d="M65.9182 88.3074L69.556 88.4003L68.858 103.018L65.2202 102.926L65.9182 88.3074Z" fill="#6580E1" fill-opacity="0.6"/>
<path fill-rule="evenodd" clip-rule="evenodd" d="M69.5561 88.4004L71.5349 88.0349L70.8369 102.653L68.8582 103.019L69.5561 88.4004Z" fill="#6580E1" fill-opacity="0.6"/>
<path fill-rule="evenodd" clip-rule="evenodd" d="M71.5349 88.0349L72.2944 88.0543L71.5965 102.672L70.8369 102.653L71.5349 88.0349Z" fill="#6580E1" fill-opacity="0.6"/>
<path fill-rule="evenodd" clip-rule="evenodd" d="M72.2944 88.0542L74.4231 88.9406L73.7251 103.559L71.5964 102.672L72.2944 88.0542Z" fill="#6580E1" fill-opacity="0.6"/>
<path fill-rule="evenodd" clip-rule="evenodd" d="M74.4231 88.9407L76.242 89.1917L75.544 103.81L73.7251 103.559L74.4231 88.9407Z" fill="#6580E1" fill-opacity="0.6"/>
<path fill-rule="evenodd" clip-rule="evenodd" d="M76.2419 89.1917L80.4993 90.6507L79.8014 105.269L75.5439 103.81L76.2419 89.1917Z" fill="#6580E1" fill-opacity="0.6"/>
<path fill-rule="evenodd" clip-rule="evenodd" d="M80.4993 90.6506L82.4681 90.7009L81.7701 105.319L79.8013 105.269L80.4993 90.6506Z" fill="#6580E1" fill-opacity="0.6"/>
<path fill-rule="evenodd" clip-rule="evenodd" d="M82.4683 90.701L83.5376 89.8962L82.8396 104.514L81.7703 105.319L82.4683 90.701Z" fill="#6580E1" fill-opacity="0.6"/>
<path fill-rule="evenodd" clip-rule="evenodd" d="M83.5376 89.8962L83.9973 89.2874L83.2993 103.906L82.8396 104.514L83.5376 89.8962Z" fill="#6580E1" fill-opacity="0.6"/>
<path fill-rule="evenodd" clip-rule="evenodd" d="M83.9973 89.2874V88.2507L83.2993 102.869V103.906L83.9973 89.2874Z" fill="#6580E1" fill-opacity="0.6"/>
<path fill-rule="evenodd" clip-rule="evenodd" d="M83.9972 88.2508L79.1301 83.98L78.4321 98.5981L83.2992 102.869L83.9972 88.2508Z" fill="#6580E1" fill-opacity="0.6"/>
<path fill-rule="evenodd" clip-rule="evenodd" d="M79.1302 83.98L76.2419 85.0452L75.5439 99.6633L78.4322 98.5981L79.1302 83.98Z" fill="#6580E1" fill-opacity="0.6"/>
<path fill-rule="evenodd" clip-rule="evenodd" d="M76.242 85.0451L75.6423 84.8252L74.9443 99.4434L75.544 99.6633L76.242 85.0451Z" fill="#6580E1" fill-opacity="0.6"/>
<path fill-rule="evenodd" clip-rule="evenodd" d="M75.6423 84.8253L75.7922 83.4788L75.0942 98.0969L74.9443 99.4435L75.6423 84.8253Z" fill="#6580E1" fill-opacity="0.6"/>
<path fill-rule="evenodd" clip-rule="evenodd" d="M75.7922 83.4786L75.3325 82.4302L74.6345 97.0483L75.0942 98.0967L75.7922 83.4786Z" fill="#6580E1" fill-opacity="0.6"/>
<path fill-rule="evenodd" clip-rule="evenodd" d="M75.3324 82.4303L73.5635 82.2214L72.8655 96.8396L74.6344 97.0485L75.3324 82.4303Z" fill="#6580E1" fill-opacity="0.6"/>
<path fill-rule="evenodd" clip-rule="evenodd" d="M73.5635 82.2215L73.4536 81.7686L72.7556 96.3867L72.8655 96.8396L73.5635 82.2215Z" fill="#6580E1" fill-opacity="0.6"/>
<path fill-rule="evenodd" clip-rule="evenodd" d="M73.4536 81.7686L73.8034 81.3479L73.1054 95.9661L72.7556 96.3868L73.4536 81.7686Z" fill="#6580E1" fill-opacity="0.6"/>
<path fill-rule="evenodd" clip-rule="evenodd" d="M73.8035 81.3478L73.5437 81.0752L72.8457 95.6934L73.1055 95.966L73.8035 81.3478Z" fill="#6580E1" fill-opacity="0.6"/>
<path fill-rule="evenodd" clip-rule="evenodd" d="M73.5435 81.0752L72.3342 80.5806L71.6362 95.1987L72.8455 95.6934L73.5435 81.0752Z" fill="#6580E1" fill-opacity="0.6"/>
<path fill-rule="evenodd" clip-rule="evenodd" d="M72.3344 80.5806L72.2944 79.6179L71.5964 94.2361L71.6364 95.1987L72.3344 80.5806Z" fill="#6580E1" fill-opacity="0.6"/>
<path fill-rule="evenodd" clip-rule="evenodd" d="M72.2945 79.6179L71.0852 79.0891L70.3872 93.7073L71.5965 94.236L72.2945 79.6179Z" fill="#6580E1" fill-opacity="0.6"/>
<path fill-rule="evenodd" clip-rule="evenodd" d="M71.0852 79.0892L71.2951 78.699L70.5971 93.3171L70.3872 93.7073L71.0852 79.0892Z" fill="#6580E1" fill-opacity="0.6"/>
<path fill-rule="evenodd" clip-rule="evenodd" d="M71.2949 78.699L72.3743 78.2219L71.6763 92.8401L70.5969 93.3172L71.2949 78.699Z" fill="#6580E1" fill-opacity="0.6"/>
<path fill-rule="evenodd" clip-rule="evenodd" d="M72.3743 78.2219L72.734 78.2652L72.0361 92.8834L71.6763 92.8401L72.3743 78.2219Z" fill="#6580E1" fill-opacity="0.6"/>
<path fill-rule="evenodd" clip-rule="evenodd" d="M72.7341 78.2651L72.7841 77.7412L72.0861 92.3594L72.0361 92.8832L72.7341 78.2651Z" fill="#6580E1" fill-opacity="0.6"/>
<path fill-rule="evenodd" clip-rule="evenodd" d="M72.7841 77.7413L72.0945 77.2463L71.3965 91.8645L72.0861 92.3595L72.7841 77.7413Z" fill="#6580E1" fill-opacity="0.6"/>
<path fill-rule="evenodd" clip-rule="evenodd" d="M72.0945 77.2463L72.5242 76.698L71.8262 91.3162L71.3965 91.8644L72.0945 77.2463Z" fill="#6580E1" fill-opacity="0.6"/>
<path fill-rule="evenodd" clip-rule="evenodd" d="M72.5242 76.698L73.0139 76.9697L72.3159 91.5878L71.8262 91.3162L72.5242 76.698Z" fill="#6580E1" fill-opacity="0.6"/>
<path fill-rule="evenodd" clip-rule="evenodd" d="M73.0139 76.9698L73.6435 76.8835L72.9455 91.5017L72.3159 91.5879L73.0139 76.9698Z" fill="#6580E1" fill-opacity="0.6"/>
<path fill-rule="evenodd" clip-rule="evenodd" d="M73.6435 76.8835L74.6729 77.4486L73.9749 92.0668L72.9456 91.5017L73.6435 76.8835Z" fill="#6580E1" fill-opacity="0.6"/>
<path fill-rule="evenodd" clip-rule="evenodd" d="M74.6728 77.4485L75.4724 77.4211L74.7744 92.0393L73.9749 92.0666L74.6728 77.4485Z" fill="#6580E1" fill-opacity="0.6"/>
<path fill-rule="evenodd" clip-rule="evenodd" d="M75.4724 77.4212L75.7722 76.324L75.0742 90.9421L74.7744 92.0393L75.4724 77.4212Z" fill="#6580E1" fill-opacity="0.6"/>
<path fill-rule="evenodd" clip-rule="evenodd" d="M75.7722 76.3239L74.9927 75.4719L74.2947 90.0901L75.0742 90.942L75.7722 76.3239Z" fill="#6580E1" fill-opacity="0.6"/>
<path fill-rule="evenodd" clip-rule="evenodd" d="M74.9927 75.4721L75.2325 75.1372L74.5345 89.7554L74.2947 90.0902L74.9927 75.4721Z" fill="#6580E1" fill-opacity="0.6"/>
<path fill-rule="evenodd" clip-rule="evenodd" d="M75.2327 75.1372L75.5924 75.2146L74.8944 89.8328L74.5347 89.7554L75.2327 75.1372Z" fill="#6580E1" fill-opacity="0.6"/>
<path fill-rule="evenodd" clip-rule="evenodd" d="M75.5923 75.2145L76.052 74.135L75.354 88.7532L74.8943 89.8326L75.5923 75.2145Z" fill="#6580E1" fill-opacity="0.6"/>
<path fill-rule="evenodd" clip-rule="evenodd" d="M76.052 74.135L76.2918 74.0457L75.5939 88.6638L75.354 88.7532L76.052 74.135Z" fill="#6580E1" fill-opacity="0.6"/>
<path fill-rule="evenodd" clip-rule="evenodd" d="M76.292 74.0457L75.9722 73.676L75.2742 88.2942L75.594 88.6638L76.292 74.0457Z" fill="#6580E1" fill-opacity="0.6"/>
<path fill-rule="evenodd" clip-rule="evenodd" d="M75.9721 73.6762L75.9622 73.0144L75.2642 87.6326L75.2742 88.2944L75.9721 73.6762Z" fill="#6580E1" fill-opacity="0.6"/>
<path fill-rule="evenodd" clip-rule="evenodd" d="M75.9622 73.0143L76.4319 72.4534L75.7339 87.0715L75.2642 87.6324L75.9622 73.0143Z" fill="#6580E1" fill-opacity="0.6"/>
<path fill-rule="evenodd" clip-rule="evenodd" d="M76.4318 72.4535L76.082 72.1104L75.384 86.7285L75.7338 87.0716L76.4318 72.4535Z" fill="#6580E1" fill-opacity="0.6"/>
<path fill-rule="evenodd" clip-rule="evenodd" d="M76.082 72.1104L77.1414 72.4102L76.4434 87.0284L75.384 86.7285L76.082 72.1104Z" fill="#6580E1" fill-opacity="0.6"/>
<path fill-rule="evenodd" clip-rule="evenodd" d="M77.1413 72.4103L77.4811 72.3167L76.7832 86.9348L76.4434 87.0284L77.1413 72.4103Z" fill="#6580E1" fill-opacity="0.6"/>
<path fill-rule="evenodd" clip-rule="evenodd" d="M77.4812 72.3167L78.1508 72.6543L77.4528 87.2725L76.7832 86.9348L77.4812 72.3167Z" fill="#6580E1" fill-opacity="0.6"/>
<path fill-rule="evenodd" clip-rule="evenodd" d="M78.1509 72.6542L78.4107 72.5518L77.7127 87.1699L77.4529 87.2724L78.1509 72.6542Z" fill="#6580E1" fill-opacity="0.6"/>
<path fill-rule="evenodd" clip-rule="evenodd" d="M78.4106 72.5518L79.8797 73.435L79.1818 88.0531L77.7126 87.1699L78.4106 72.5518Z" fill="#6580E1" fill-opacity="0.6"/>
<path fill-rule="evenodd" clip-rule="evenodd" d="M79.8796 73.435L80.6192 72.5127L79.9212 87.1309L79.1816 88.0531L79.8796 73.435Z" fill="#6580E1" fill-opacity="0.6"/>
<path fill-rule="evenodd" clip-rule="evenodd" d="M80.6194 72.5126L79.5601 72.0491L78.8621 86.6672L79.9214 87.1308L80.6194 72.5126Z" fill="#6580E1" fill-opacity="0.6"/>
<path fill-rule="evenodd" clip-rule="evenodd" d="M79.56 72.0491L79.0803 72.0641L78.3823 86.6823L78.862 86.6672L79.56 72.0491Z" fill="#6580E1" fill-opacity="0.6"/>
<path fill-rule="evenodd" clip-rule="evenodd" d="M79.0803 72.0641L78.3208 71.7446L77.6228 86.3628L78.3823 86.6823L79.0803 72.0641Z" fill="#6580E1" fill-opacity="0.6"/>
<path fill-rule="evenodd" clip-rule="evenodd" d="M78.3208 71.7446L78.3408 71.6292L77.6428 86.2473L77.6228 86.3627L78.3208 71.7446Z" fill="#6580E1" fill-opacity="0.6"/>
<path fill-rule="evenodd" clip-rule="evenodd" d="M78.3406 71.6293L78.5704 71.5125L77.8724 86.1306L77.6426 86.2475L78.3406 71.6293Z" fill="#6580E1" fill-opacity="0.6"/>
<path fill-rule="evenodd" clip-rule="evenodd" d="M78.5705 71.5125L80.3794 71.7428L79.6815 86.361L77.8726 86.1306L78.5705 71.5125Z" fill="#6580E1" fill-opacity="0.6"/>
<path fill-rule="evenodd" clip-rule="evenodd" d="M80.3794 71.7427L81.1489 71.1895L80.4509 85.8076L79.6814 86.3608L80.3794 71.7427Z" fill="#6580E1" fill-opacity="0.6"/>
<path fill-rule="evenodd" clip-rule="evenodd" d="M81.1489 71.1895L81.7186 71.9747L81.0206 86.5928L80.4509 85.8076L81.1489 71.1895Z" fill="#6580E1" fill-opacity="0.6"/>
<path fill-rule="evenodd" clip-rule="evenodd" d="M81.7185 71.9746L82.528 71.627L81.83 86.2451L81.0205 86.5927L81.7185 71.9746Z" fill="#6580E1" fill-opacity="0.6"/>
<path fill-rule="evenodd" clip-rule="evenodd" d="M82.5281 71.6271L83.1877 71.0847L82.4897 85.7029L81.8301 86.2453L82.5281 71.6271Z" fill="#6580E1" fill-opacity="0.6"/>
<path fill-rule="evenodd" clip-rule="evenodd" d="M83.1877 71.0848L83.2377 70.8132L82.5397 85.4314L82.4897 85.7029L83.1877 71.0848Z" fill="#6580E1" fill-opacity="0.6"/>
<path fill-rule="evenodd" clip-rule="evenodd" d="M83.2376 70.8132L82.3682 70.5728L81.6702 85.1909L82.5396 85.4314L83.2376 70.8132Z" fill="#6580E1" fill-opacity="0.6"/>
<path fill-rule="evenodd" clip-rule="evenodd" d="M82.3682 70.5728L83.4775 70.0964L82.7795 84.7146L81.6702 85.1909L82.3682 70.5728Z" fill="#6580E1" fill-opacity="0.6"/>
<path fill-rule="evenodd" clip-rule="evenodd" d="M83.4775 70.0964L83.8773 68.7085L83.1793 83.3267L82.7795 84.7145L83.4775 70.0964Z" fill="#6580E1" fill-opacity="0.6"/>
<path fill-rule="evenodd" clip-rule="evenodd" d="M83.8772 68.7084L84.167 68.3884L83.469 83.0066L83.1792 83.3265L83.8772 68.7084Z" fill="#6580E1" fill-opacity="0.6"/>
<path fill-rule="evenodd" clip-rule="evenodd" d="M84.1672 68.3885L84.2472 67.8176L83.5492 82.4358L83.4692 83.0066L84.1672 68.3885Z" fill="#6580E1" fill-opacity="0.6"/>
<path fill-rule="evenodd" clip-rule="evenodd" d="M84.2471 67.8178L85.6762 66.7222L84.9782 81.3403L83.5491 82.4359L84.2471 67.8178Z" fill="#6580E1" fill-opacity="0.6"/>
<path fill-rule="evenodd" clip-rule="evenodd" d="M85.6762 66.7221L83.7974 64.9282L83.0994 79.5464L84.9782 81.3403L85.6762 66.7221Z" fill="#6580E1" fill-opacity="0.6"/>
<path fill-rule="evenodd" clip-rule="evenodd" d="M83.7974 64.9282L83.4976 64.2659L82.7996 78.884L83.0994 79.5464L83.7974 64.9282Z" fill="#6580E1" fill-opacity="0.6"/>
<path fill-rule="evenodd" clip-rule="evenodd" d="M83.4976 64.2658L83.8074 63.5371L83.1094 78.1553L82.7996 78.8839L83.4976 64.2658Z" fill="#6580E1" fill-opacity="0.6"/>
<path fill-rule="evenodd" clip-rule="evenodd" d="M83.8074 63.5371L85.0166 62.77L84.3186 77.3882L83.1094 78.1552L83.8074 63.5371Z" fill="#6580E1" fill-opacity="0.6"/>
<path fill-rule="evenodd" clip-rule="evenodd" d="M85.0166 62.77L86.2059 62.9232L85.5079 77.5413L84.3186 77.3882L85.0166 62.77Z" fill="#6580E1" fill-opacity="0.6"/>
<path fill-rule="evenodd" clip-rule="evenodd" d="M86.2058 62.9231L87.1752 61.7544L86.4772 76.3726L85.5078 77.5413L86.2058 62.9231Z" fill="#6580E1" fill-opacity="0.6"/>
<path fill-rule="evenodd" clip-rule="evenodd" d="M87.1754 61.7545L87.0754 61.104L86.3774 75.7222L86.4774 76.3726L87.1754 61.7545Z" fill="#6580E1" fill-opacity="0.6"/>
<path fill-rule="evenodd" clip-rule="evenodd" d="M87.0754 61.1041L88.0348 60.3647L87.3369 74.9829L86.3774 75.7222L87.0754 61.1041Z" fill="#6580E1" fill-opacity="0.6"/>
<path fill-rule="evenodd" clip-rule="evenodd" d="M88.0347 60.3646L88.5543 60.1323L87.8564 74.7505L87.3367 74.9827L88.0347 60.3646Z" fill="#6580E1" fill-opacity="0.6"/>
<path fill-rule="evenodd" clip-rule="evenodd" d="M88.5544 60.1323L89.5338 60.6075L88.8358 75.2256L87.8564 74.7505L88.5544 60.1323Z" fill="#6580E1" fill-opacity="0.6"/>
<path fill-rule="evenodd" clip-rule="evenodd" d="M89.5339 60.6077L89.8337 60.5608L89.1358 75.179L88.8359 75.2259L89.5339 60.6077Z" fill="#6580E1" fill-opacity="0.6"/>
<path fill-rule="evenodd" clip-rule="evenodd" d="M89.8337 60.5608L89.8137 60.8126L89.1157 75.4308L89.1357 75.179L89.8337 60.5608Z" fill="#6580E1" fill-opacity="0.6"/>
<path fill-rule="evenodd" clip-rule="evenodd" d="M89.8137 60.8125L90.3934 61.3865L89.6954 76.0047L89.1157 75.4307L89.8137 60.8125Z" fill="#6580E1" fill-opacity="0.6"/>
<path fill-rule="evenodd" clip-rule="evenodd" d="M90.3933 61.3865L92.0523 62.029L91.3543 76.6472L89.6953 76.0046L90.3933 61.3865Z" fill="#6580E1" fill-opacity="0.6"/>
<path fill-rule="evenodd" clip-rule="evenodd" d="M92.0522 62.0291L92.1322 62.3789L91.4342 76.9971L91.3542 76.6472L92.0522 62.0291Z" fill="#6580E1" fill-opacity="0.6"/>
<path fill-rule="evenodd" clip-rule="evenodd" d="M92.1323 62.3789L93.0418 63.1251L92.3438 77.7432L91.4343 76.9971L92.1323 62.3789Z" fill="#6580E1" fill-opacity="0.6"/>
<path fill-rule="evenodd" clip-rule="evenodd" d="M93.0417 63.1252L93.3915 63.0659L92.6935 77.6841L92.3438 77.7433L93.0417 63.1252Z" fill="#6580E1" fill-opacity="0.6"/>
<path fill-rule="evenodd" clip-rule="evenodd" d="M93.3916 63.0659L94.2111 61.6956L93.5131 76.3137L92.6936 77.6841L93.3916 63.0659Z" fill="#6580E1" fill-opacity="0.6"/>
<path fill-rule="evenodd" clip-rule="evenodd" d="M94.2109 61.6956L98.3484 59.8098L97.6504 74.428L93.5129 76.3137L94.2109 61.6956Z" fill="#6580E1" fill-opacity="0.6"/>
<path fill-rule="evenodd" clip-rule="evenodd" d="M98.3486 59.8097L97.5591 59.2644L96.8611 73.8826L97.6506 74.4279L98.3486 59.8097Z" fill="#6580E1" fill-opacity="0.6"/>
<path fill-rule="evenodd" clip-rule="evenodd" d="M97.5589 59.2644L96.9592 58.9695L96.2612 73.5876L96.8609 73.8826L97.5589 59.2644Z" fill="#6580E1" fill-opacity="0.6"/>
<path fill-rule="evenodd" clip-rule="evenodd" d="M96.9594 58.9695L96.7395 59.0866L96.0415 73.7048L96.2614 73.5876L96.9594 58.9695Z" fill="#6580E1" fill-opacity="0.6"/>
<path fill-rule="evenodd" clip-rule="evenodd" d="M96.7395 59.0866L96.1399 58.5598L95.4419 73.178L96.0415 73.7048L96.7395 59.0866Z" fill="#6580E1" fill-opacity="0.6"/>
<path fill-rule="evenodd" clip-rule="evenodd" d="M96.1397 58.5599L95.5801 58.416L94.8821 73.0342L95.4417 73.1781L96.1397 58.5599Z" fill="#6580E1" fill-opacity="0.6"/>
<path fill-rule="evenodd" clip-rule="evenodd" d="M95.5801 58.416L95.4202 58.2209L94.7222 72.8391L94.8821 73.0342L95.5801 58.416Z" fill="#6580E1" fill-opacity="0.6"/>
<path fill-rule="evenodd" clip-rule="evenodd" d="M95.4202 58.2209L95.63 58.0081L94.932 72.6262L94.7222 72.8391L95.4202 58.2209Z" fill="#6580E1" fill-opacity="0.6"/>
<path fill-rule="evenodd" clip-rule="evenodd" d="M95.63 58.0081L95.2602 58.0464L94.5623 72.6645L94.932 72.6262L95.63 58.0081Z" fill="#6580E1" fill-opacity="0.6"/>
<path fill-rule="evenodd" clip-rule="evenodd" d="M95.2605 58.0464L94.9307 57.3628L94.2327 71.981L94.5625 72.6646L95.2605 58.0464Z" fill="#6580E1" fill-opacity="0.6"/>
<path fill-rule="evenodd" clip-rule="evenodd" d="M94.9306 57.3627L94.251 57.0044L93.553 71.6226L94.2326 71.9809L94.9306 57.3627Z" fill="#6580E1" fill-opacity="0.6"/>
<path fill-rule="evenodd" clip-rule="evenodd" d="M94.2511 57.0044L94.1611 56.6338L93.4631 71.252L93.5531 71.6225L94.2511 57.0044Z" fill="#6580E1" fill-opacity="0.6"/>
<path fill-rule="evenodd" clip-rule="evenodd" d="M94.1611 56.6338L93.2417 56.1875L92.5437 70.8057L93.4631 71.252L94.1611 56.6338Z" fill="#6580E1" fill-opacity="0.6"/>
<path fill-rule="evenodd" clip-rule="evenodd" d="M93.2416 56.1875L93.0017 55.3562L92.3037 69.9744L92.5436 70.8057L93.2416 56.1875Z" fill="#6580E1" fill-opacity="0.6"/>
<path fill-rule="evenodd" clip-rule="evenodd" d="M93.0017 55.356L93.1116 55.2361L92.4136 69.8542L92.3037 69.9742L93.0017 55.356Z" fill="#6580E1" fill-opacity="0.6"/>
<path fill-rule="evenodd" clip-rule="evenodd" d="M93.1116 55.2361L94.001 55.9203L93.303 70.5385L92.4136 69.8542L93.1116 55.2361Z" fill="#6580E1" fill-opacity="0.6"/>
<path fill-rule="evenodd" clip-rule="evenodd" d="M94.0012 55.9204L94.5709 55.9895L93.8729 70.6077L93.3032 70.5386L94.0012 55.9204Z" fill="#6580E1" fill-opacity="0.6"/>
<path fill-rule="evenodd" clip-rule="evenodd" d="M94.5708 55.9895L95.0505 55.8176L94.3525 70.4358L93.8728 70.6077L94.5708 55.9895Z" fill="#6580E1" fill-opacity="0.6"/>
<path fill-rule="evenodd" clip-rule="evenodd" d="M95.0504 55.8176L94.6807 55.3103L93.9827 69.9285L94.3524 70.4358L95.0504 55.8176Z" fill="#6580E1" fill-opacity="0.6"/>
<path fill-rule="evenodd" clip-rule="evenodd" d="M94.6807 55.3103L94.9605 55.3652L94.2625 69.9834L93.9827 69.9285L94.6807 55.3103Z" fill="#6580E1" fill-opacity="0.6"/>
<path fill-rule="evenodd" clip-rule="evenodd" d="M94.9606 55.3653L94.9206 55.1665L94.2227 69.7847L94.2626 69.9835L94.9606 55.3653Z" fill="#6580E1" fill-opacity="0.6"/>
<path fill-rule="evenodd" clip-rule="evenodd" d="M94.9207 55.1665L94.0112 54.9182L93.3132 69.5364L94.2227 69.7847L94.9207 55.1665Z" fill="#6580E1" fill-opacity="0.6"/>
<path fill-rule="evenodd" clip-rule="evenodd" d="M94.0112 54.9182L94.4609 54.5068L93.763 69.125L93.3132 69.5364L94.0112 54.9182Z" fill="#6580E1" fill-opacity="0.6"/>
<path fill-rule="evenodd" clip-rule="evenodd" d="M94.4607 54.5068L94.3408 54.3059L93.6428 68.9241L93.7627 69.1249L94.4607 54.5068Z" fill="#6580E1" fill-opacity="0.6"/>
<path fill-rule="evenodd" clip-rule="evenodd" d="M94.3408 54.306L97.359 53.1418L96.661 67.76L93.6428 68.9242L94.3408 54.306Z" fill="#6580E1" fill-opacity="0.6"/>
<path fill-rule="evenodd" clip-rule="evenodd" d="M97.3591 53.1416L96.4197 51.856L95.7217 66.4741L96.6611 67.7598L97.3591 53.1416Z" fill="#6580E1" fill-opacity="0.6"/>
<path fill-rule="evenodd" clip-rule="evenodd" d="M96.4197 51.8561L92.7519 50.5144L92.054 65.1326L95.7217 66.4743L96.4197 51.8561Z" fill="#6580E1" fill-opacity="0.6"/>
<path fill-rule="evenodd" clip-rule="evenodd" d="M92.7519 50.5144L92.4021 50.1167L91.7041 64.7349L92.0539 65.1325L92.7519 50.5144Z" fill="#6580E1" fill-opacity="0.6"/>
<path fill-rule="evenodd" clip-rule="evenodd" d="M92.4021 50.1167L91.9524 50.0984L91.2544 64.7166L91.7041 64.7349L92.4021 50.1167Z" fill="#6580E1" fill-opacity="0.6"/>
<path fill-rule="evenodd" clip-rule="evenodd" d="M91.9524 50.0983L91.6326 49.7832L90.9346 64.4014L91.2544 64.7164L91.9524 50.0983Z" fill="#6580E1" fill-opacity="0.6"/>
<path fill-rule="evenodd" clip-rule="evenodd" d="M91.6325 49.7832L90.9729 49.5549L90.2749 64.1731L90.9345 64.4014L91.6325 49.7832Z" fill="#6580E1" fill-opacity="0.6"/>
<path fill-rule="evenodd" clip-rule="evenodd" d="M90.973 49.5551L90.4133 49.0225L89.7153 63.6406L90.275 64.1732L90.973 49.5551Z" fill="#6580E1" fill-opacity="0.6"/>
<path fill-rule="evenodd" clip-rule="evenodd" d="M90.4133 49.0224L90.5133 48.6157L89.8153 63.2339L89.7153 63.6405L90.4133 49.0224Z" fill="#6580E1" fill-opacity="0.6"/>
<path fill-rule="evenodd" clip-rule="evenodd" d="M90.5132 48.6158L89.7537 47.6348L89.0557 62.2529L89.8152 63.2339L90.5132 48.6158Z" fill="#6580E1" fill-opacity="0.6"/>
<path fill-rule="evenodd" clip-rule="evenodd" d="M89.7537 47.6347L85.906 43.915L85.208 58.5332L89.0557 62.2529L89.7537 47.6347Z" fill="#6580E1" fill-opacity="0.6"/>
<path fill-rule="evenodd" clip-rule="evenodd" d="M85.906 43.9152L85.5962 43.2866L84.8982 57.9048L85.208 58.5333L85.906 43.9152Z" fill="#6580E1" fill-opacity="0.6"/>
<path fill-rule="evenodd" clip-rule="evenodd" d="M85.5962 43.2866L84.197 42.5825L83.499 57.2007L84.8982 57.9048L85.5962 43.2866Z" fill="#6580E1" fill-opacity="0.6"/>
<path fill-rule="evenodd" clip-rule="evenodd" d="M84.1971 42.5825L82.8379 42.2136L82.1399 56.8318L83.4991 57.2007L84.1971 42.5825Z" fill="#6580E1" fill-opacity="0.6"/>
<path fill-rule="evenodd" clip-rule="evenodd" d="M82.8379 42.2136L84.3869 40.4731L83.6889 55.0913L82.1399 56.8318L82.8379 42.2136Z" fill="#6580E1" fill-opacity="0.6"/>
<path fill-rule="evenodd" clip-rule="evenodd" d="M84.3871 40.473L84.0073 40.1292L83.3093 54.7473L83.6891 55.0912L84.3871 40.473Z" fill="#6580E1" fill-opacity="0.6"/>
<path fill-rule="evenodd" clip-rule="evenodd" d="M84.0073 40.1292L84.0573 39.9736L83.3593 54.5918L83.3093 54.7474L84.0073 40.1292Z" fill="#6580E1" fill-opacity="0.6"/>
<path fill-rule="evenodd" clip-rule="evenodd" d="M84.0571 39.9736L84.8866 39.7288L84.1886 54.3469L83.3591 54.5917L84.0571 39.9736Z" fill="#6580E1" fill-opacity="0.6"/>
<path fill-rule="evenodd" clip-rule="evenodd" d="M84.8867 39.7288L85.0366 39.2961L84.3386 53.9143L84.1887 54.347L84.8867 39.7288Z" fill="#6580E1" fill-opacity="0.6"/>
<path fill-rule="evenodd" clip-rule="evenodd" d="M85.0366 39.2962L85.8661 38.99L85.1681 53.6082L84.3386 53.9143L85.0366 39.2962Z" fill="#6580E1" fill-opacity="0.6"/>
<path fill-rule="evenodd" clip-rule="evenodd" d="M85.866 38.99L85.7461 38.4004L85.0481 53.0186L85.168 53.6081L85.866 38.99Z" fill="#6580E1" fill-opacity="0.6"/>
<path fill-rule="evenodd" clip-rule="evenodd" d="M85.7462 38.4005L85.2266 38.3804L84.5286 52.9985L85.0482 53.0186L85.7462 38.4005Z" fill="#6580E1" fill-opacity="0.6"/>
<path fill-rule="evenodd" clip-rule="evenodd" d="M85.2266 38.3804L86.126 37.9873L85.428 52.6055L84.5286 52.9985L85.2266 38.3804Z" fill="#6580E1" fill-opacity="0.6"/>
<path fill-rule="evenodd" clip-rule="evenodd" d="M86.1259 37.9874L85.926 37.7026L85.228 52.3208L85.4279 52.6055L86.1259 37.9874Z" fill="#6580E1" fill-opacity="0.6"/>
<path fill-rule="evenodd" clip-rule="evenodd" d="M85.926 37.7027L86.8155 37.1184L86.1175 51.7366L85.228 52.3208L85.926 37.7027Z" fill="#6580E1" fill-opacity="0.6"/>
<path fill-rule="evenodd" clip-rule="evenodd" d="M86.8154 37.1183L87.535 33.4812L86.837 48.0994L86.1174 51.7365L86.8154 37.1183Z" fill="#6580E1" fill-opacity="0.6"/>
<path fill-rule="evenodd" clip-rule="evenodd" d="M87.5351 33.4811L85.8061 32.2708L85.1082 46.8889L86.8371 48.0993L87.5351 33.4811Z" fill="#6580E1" fill-opacity="0.6"/>
<path fill-rule="evenodd" clip-rule="evenodd" d="M85.806 32.2708L85.4263 32.2883L84.7283 46.9065L85.108 46.8889L85.806 32.2708Z" fill="#6580E1" fill-opacity="0.6"/>
<path fill-rule="evenodd" clip-rule="evenodd" d="M85.4263 32.2884L84.5268 31.6516L83.8289 46.2698L84.7283 46.9065L85.4263 32.2884Z" fill="#6580E1" fill-opacity="0.6"/>
<path fill-rule="evenodd" clip-rule="evenodd" d="M84.5268 31.6517L84.0471 29.4639L83.3491 44.082L83.8288 46.2699L84.5268 31.6517Z" fill="#6580E1" fill-opacity="0.6"/>
<path fill-rule="evenodd" clip-rule="evenodd" d="M84.0472 29.4639L82.5781 26.5415L81.8801 41.1597L83.3492 44.082L84.0472 29.4639Z" fill="#6580E1" fill-opacity="0.6"/>
<path fill-rule="evenodd" clip-rule="evenodd" d="M82.5781 26.5414L82.8679 25.9077L82.17 40.5259L81.8801 41.1596L82.5781 26.5414Z" fill="#6580E1" fill-opacity="0.6"/>
<path fill-rule="evenodd" clip-rule="evenodd" d="M82.8679 25.9079L83.5375 25.5703L82.8395 40.1885L82.1699 40.526L82.8679 25.9079Z" fill="#6580E1" fill-opacity="0.6"/>
<path fill-rule="evenodd" clip-rule="evenodd" d="M83.5376 25.5703L84.0673 25.9112L83.3693 40.5294L82.8396 40.1885L83.5376 25.5703Z" fill="#6580E1" fill-opacity="0.6"/>
<path fill-rule="evenodd" clip-rule="evenodd" d="M84.0671 25.911L85.1065 25.3306L84.4085 39.9487L83.3691 40.5292L84.0671 25.911Z" fill="#6580E1" fill-opacity="0.6"/>
<path fill-rule="evenodd" clip-rule="evenodd" d="M85.1065 25.3307L84.6868 24.9585L83.9888 39.5767L84.4085 39.9488L85.1065 25.3307Z" fill="#6580E1" fill-opacity="0.6"/>
<path fill-rule="evenodd" clip-rule="evenodd" d="M84.6868 24.9585L84.2771 25.0503L83.5791 39.6685L83.9889 39.5767L84.6868 24.9585Z" fill="#6580E1" fill-opacity="0.6"/>
<path fill-rule="evenodd" clip-rule="evenodd" d="M84.2772 25.0504L83.2378 24.6897L82.5398 39.3079L83.5792 39.6686L84.2772 25.0504Z" fill="#6580E1" fill-opacity="0.6"/>
<path fill-rule="evenodd" clip-rule="evenodd" d="M83.2377 24.6896L82.8879 24.4761L82.1899 39.0942L82.5397 39.3078L83.2377 24.6896Z" fill="#6580E1" fill-opacity="0.6"/>
<path fill-rule="evenodd" clip-rule="evenodd" d="M82.8879 24.476L83.0079 24.179L82.3099 38.7971L82.1899 39.0941L82.8879 24.476Z" fill="#6580E1" fill-opacity="0.6"/>
<path fill-rule="evenodd" clip-rule="evenodd" d="M83.0077 24.1791L82.658 24.1565L81.96 38.7747L82.3097 38.7972L83.0077 24.1791Z" fill="#6580E1" fill-opacity="0.6"/>
<path fill-rule="evenodd" clip-rule="evenodd" d="M82.6579 24.1565L82.0283 20.0757L81.3303 34.6938L81.9599 38.7746L82.6579 24.1565Z" fill="#6580E1" fill-opacity="0.6"/>
<path fill-rule="evenodd" clip-rule="evenodd" d="M82.0283 20.0757L82.2482 19.5493L81.5502 34.1675L81.3303 34.6938L82.0283 20.0757Z" fill="#6580E1" fill-opacity="0.6"/>
<path fill-rule="evenodd" clip-rule="evenodd" d="M82.2483 19.5493L82.638 19.3L81.9401 33.9182L81.5503 34.1674L82.2483 19.5493Z" fill="#6580E1" fill-opacity="0.6"/>
<path fill-rule="evenodd" clip-rule="evenodd" d="M82.6382 19.3003L82.0085 18.6567L81.3105 33.2749L81.9402 33.9184L82.6382 19.3003Z" fill="#6580E1" fill-opacity="0.6"/>
<path fill-rule="evenodd" clip-rule="evenodd" d="M82.0085 18.6565L80.8892 18.0005L80.1912 32.6187L81.3105 33.2747L82.0085 18.6565Z" fill="#6580E1" fill-opacity="0.6"/>
<path fill-rule="evenodd" clip-rule="evenodd" d="M80.889 18.0005L80.0395 18.1698L79.3416 32.7879L80.191 32.6187L80.889 18.0005Z" fill="#6580E1" fill-opacity="0.6"/>
<path fill-rule="evenodd" clip-rule="evenodd" d="M80.0396 18.1698L78.9802 18.1155L78.2822 32.7336L79.3416 32.788L80.0396 18.1698Z" fill="#6580E1" fill-opacity="0.6"/>
<path fill-rule="evenodd" clip-rule="evenodd" d="M78.9803 18.1155L78.8603 18.2693L78.1624 32.8874L78.2823 32.7336L78.9803 18.1155Z" fill="#6580E1" fill-opacity="0.6"/>
<path fill-rule="evenodd" clip-rule="evenodd" d="M78.8605 18.2694L78.021 18.0161L77.323 32.6343L78.1625 32.8876L78.8605 18.2694Z" fill="#6580E1" fill-opacity="0.6"/>
<path fill-rule="evenodd" clip-rule="evenodd" d="M78.0209 18.016L76.8716 16.6499L76.1736 31.2681L77.3229 32.6341L78.0209 18.016Z" fill="#6580E1" fill-opacity="0.6"/>
<path fill-rule="evenodd" clip-rule="evenodd" d="M76.8716 16.65L74.7629 15.1299L74.0649 29.748L76.1737 31.2682L76.8716 16.65Z" fill="#6580E1" fill-opacity="0.6"/>
<path fill-rule="evenodd" clip-rule="evenodd" d="M74.763 15.1299L72.0146 19.2881L71.3167 33.9062L74.065 29.748L74.763 15.1299Z" fill="#6580E1" fill-opacity="0.6"/>
<path fill-rule="evenodd" clip-rule="evenodd" d="M72.0146 19.2881V19.2881L71.3167 33.9062V33.9062L72.0146 19.2881Z" fill="#6580E1" fill-opacity="0.6"/>
<path d="M72.0145 19.2879L71.4349 18.9731L69.9858 17.3947L68.6566 16.9652L67.8571 16.4265L65.1987 13.5965L60.5315 10.0741L59.832 10.1313L56.414 8.10712L55.1348 7.09921L52.5764 6.29047L52.0667 6.4616L48.5688 4.50358L46.67 4.25732L47.1497 4.80153L45.6406 5.02215L45.031 4.83608L44.8411 4.46294L44.5912 4.40882L44.8311 4.06712L44.6212 3.9322L39.5143 2.60828L35.5568 2.14573L35.147 2.43534L34.9171 2.29308L31.849 1.97602L27.1119 0L20.9557 1.89559L20.326 1.53169L20.0662 1.70919L20.426 1.75929L20.5259 2.0142L18.0674 2.88575L17.3978 2.52765L17.8076 3.02232L16.8482 3.61844L16.5383 3.28316L15.8787 3.36864L16.1486 3.98932L15.9787 4.16229L11.2416 6.9057L11.0517 6.80537L10.2222 7.03653L10.462 7.26089L10.3621 7.37428L6.40451 9.58518L7.09409 10.8918L7.68373 13.7985L7.88362 15.8905L7.44389 15.9475L7.4039 16.1374L7.9036 16.1911L7.98355 16.3637L8.77308 21.5193L5.65497 22.5581L5.4451 25.8741L3.85606 27.9136L5.05534 28.8513L3.2964 30.4227L1.72737 32.8446L2.18708 32.9314L3.57623 34.1058L3.98598 36.7761L5.07532 38.5362L5.30519 39.831L4.15588 39.9858L4.71554 43.0213L5.47509 43.6477L5.4451 44.3221L5.95478 44.6693L6.4445 45.8208L7.21402 46.4747V46.6656L9.15283 47.8268L9.95235 48.1064L10.1023 48.4717L7.03414 47.9909L6.51444 48.837L8.69312 50.9864L10.0123 50.9723L9.61256 51.8351L8.13347 53.6728L7.92359 53.2582L6.61439 52.27L3.36637 52.3166L2.07715 52.9316L0.697998 53.1419L1.57745 55.2513L4.69556 56.1902L5.24522 56.5316L5.25522 56.8456L4.32578 57.422L5.38514 58.4311L6.06473 58.1962L6.51444 58.4668L10.7619 62.2922L12.161 61.4686L11.9012 60.9709L13.5702 60.3861L14.4796 61.2618L15.5489 62.5918L16.3085 64.2616L17.4278 65.4769L17.5477 66.8848L18.2473 67.537L18.5171 68.8942L17.8276 69.279L18.5371 69.9382L17.6577 70.018L17.2179 71.0434L16.2385 72.1369L15.6289 72.5646L14.7794 72.5497L14.4496 73.196L17.7976 75.1911L19.5965 76.5329L21.2455 76.0226L22.025 76.5199L23.7439 77.9278L25.9726 77.1254L25.4629 76.4849L25.9726 75.9182L26.3723 75.833L26.7821 75.4547L27.2218 75.3841L27.4717 75.1177L27.6915 75.5734L28.3711 76.1159L29.2706 76.5071L29.8602 77.1974L30.3799 76.4877L29.6504 75.5757L30.21 75.0785L30.3699 75.0348L31.1794 75.9626L33.2482 75.954L33.8678 75.1787L34.5973 75.3269L34.7173 74.8458L35.117 74.6991L34.9671 74.3338L36.5761 75.5275L36.8959 76.3473L36.7061 76.6152L37.5455 76.773L37.4056 76.1148L38.0252 75.7555L38.2451 75.9384L37.8254 76.296L37.9453 76.5173L38.3251 76.4383L38.6049 75.6543L39.3444 75.7073L39.3644 75.967L39.8941 76.4784L40.1539 76.4032L40.4538 76.5472L41.0134 75.4567L42.1227 74.9531L42.7923 74.977L42.4925 74.4374L42.9922 74.4842L43.1621 74.1067L42.3726 73.7523L42.9223 73.4185L43.5719 74.0694L43.7018 74.6047L44.3914 74.6905L44.6412 75.0924L45.6806 75.685L45.9704 75.6924L46.2003 76.2712L49.5282 77.386L51.4571 78.8606L52.1966 79.807L53.176 80.3435L53.4359 81.0049L55.5845 81.4076L55.8844 81.7358L54.765 82.5938L54.915 83.3956L56.434 84.0004L57.3635 84.8084L57.8831 85.5787L58.2129 85.6826L58.7326 85.2935L59.9019 85.6576L59.8519 85.1243L60.6614 85.5133L62.1505 86.7653L62.2805 86.489L65.9182 88.3073L69.556 88.4002L71.5348 88.0348L72.2944 88.0542L74.4231 88.9406L76.242 89.1916L80.4994 90.6507L82.4682 90.701L83.5375 89.8963L83.9972 89.2874V88.2507L79.1302 83.9799L76.242 85.0451L75.6423 84.8252L75.7922 83.4786L75.3325 82.4303L73.5636 82.2214L73.4537 81.7685L73.8034 81.3477L73.5436 81.0751L72.3343 80.5805L72.2944 79.6178L71.0851 79.0891L71.295 78.6989L72.3743 78.2218L72.7341 78.2651L72.7841 77.7412L72.0945 77.2462L72.5242 76.6979L73.0139 76.9696L73.6435 76.8834L74.6729 77.4485L75.4724 77.4211L75.7722 76.324L74.9927 75.472L75.2326 75.1371L75.5923 75.2145L76.0521 74.1351L76.2919 74.0457L75.9721 73.6761L75.9621 73.0143L76.4318 72.4534L76.082 72.1103L77.1414 72.4102L77.4812 72.3165L78.1508 72.6542L78.4106 72.5517L79.8797 73.4349L80.6193 72.5126L79.5599 72.0491L79.0802 72.0641L78.3207 71.7446L78.3407 71.6292L78.5705 71.5123L80.3794 71.7427L81.149 71.1894L81.7186 71.9746L82.5281 71.627L83.1877 71.0846L83.2377 70.8131L82.3682 70.5727L83.4775 70.0963L83.8773 68.7084L84.1671 68.3885L84.2471 67.8176L85.6762 66.722L83.7973 64.9281L83.4975 64.2657L83.8073 63.5371L85.0166 62.77L86.2059 62.9232L87.1753 61.7544L87.0753 61.104L88.0348 60.3647L88.5544 60.1324L89.5339 60.6075L89.8337 60.5606L89.8137 60.8125L90.3933 61.3865L92.0523 62.029L92.1323 62.3789L93.0417 63.125L93.3915 63.0658L94.211 61.6954L98.3485 59.8097L97.559 59.2644L96.9593 58.9694L96.7395 59.0866L96.1398 58.5598L95.5802 58.4159L95.4203 58.2208L95.6301 58.008L95.2604 58.0463L94.9306 57.3627L94.251 57.0043L94.161 56.6337L93.2416 56.1874L93.0017 55.3561L93.1117 55.2361L94.0011 55.9204L94.5708 55.9895L95.0505 55.8176L94.6807 55.3103L94.9605 55.3652L94.9206 55.1664L94.0111 54.9181L94.4608 54.5067L94.3409 54.3059L97.3591 53.1417L96.4197 51.856L92.7519 50.5143L92.4021 50.1166L91.9524 50.0983L91.6326 49.7833L90.973 49.555L90.4133 49.0224L90.5133 48.6157L89.7537 47.6347L85.9061 43.915L85.5963 43.2865L84.1971 42.5824L82.8379 42.2135L84.387 40.4731L84.0072 40.1292L84.0572 39.9736L84.8867 39.7288L85.0366 39.2962L85.8661 38.99L85.7462 38.4004L85.2265 38.3803L86.1259 37.9873L85.926 37.7026L86.8155 37.1183L87.5351 33.4812L85.8061 32.2708L85.4264 32.2884L84.5269 31.6516L84.0472 29.4638L82.5781 26.5414L82.8679 25.9077L83.5375 25.5702L84.0672 25.9111L85.1065 25.3306L84.6868 24.9585L84.2771 25.0503L83.2377 24.6896L82.8879 24.476L83.0078 24.179L82.658 24.1564L82.0284 20.0757L82.2483 19.5493L82.6381 19.3001L82.0084 18.6566L80.8891 18.0006L80.0396 18.1698L78.9803 18.1155L78.8604 18.2693L78.0209 18.016L76.8716 16.6499L74.7629 15.1297L72.0145 19.2879Z" fill="white"/>
</svg>
