<svg width="54" height="66" viewBox="0 0 54 66" fill="none" xmlns="http://www.w3.org/2000/svg">
<path fill-rule="evenodd" clip-rule="evenodd" d="M4.53564 15.3462L7.94356 14.6558L7.24557 29.2739L3.83765 29.9644L4.53564 15.3462Z" fill="#6580E1" fill-opacity="0.6"/>
<path fill-rule="evenodd" clip-rule="evenodd" d="M7.94366 14.6556L7.82372 14.2161L7.12573 28.8342L7.24567 29.2738L7.94366 14.6556Z" fill="#6580E1" fill-opacity="0.6"/>
<path fill-rule="evenodd" clip-rule="evenodd" d="M7.82372 14.2161L8.40337 14.4696L7.70538 29.0877L7.12573 28.8342L7.82372 14.2161Z" fill="#6580E1" fill-opacity="0.6"/>
<path fill-rule="evenodd" clip-rule="evenodd" d="M8.40331 14.4696L9.26279 14.437L8.5648 29.0552L7.70532 29.0878L8.40331 14.4696Z" fill="#6580E1" fill-opacity="0.6"/>
<path fill-rule="evenodd" clip-rule="evenodd" d="M9.26269 14.437L10.0622 15.0303L9.36422 29.6485L8.5647 29.0552L9.26269 14.437Z" fill="#6580E1" fill-opacity="0.6"/>
<path fill-rule="evenodd" clip-rule="evenodd" d="M10.0622 15.0303L11.3515 14.2107L10.6535 28.8289L9.36426 29.6484L10.0622 15.0303Z" fill="#6580E1" fill-opacity="0.6"/>
<path fill-rule="evenodd" clip-rule="evenodd" d="M11.3516 14.2107L13.5502 14.5124L12.8522 29.1305L10.6536 28.8289L11.3516 14.2107Z" fill="#6580E1" fill-opacity="0.6"/>
<path fill-rule="evenodd" clip-rule="evenodd" d="M13.5503 14.5124L14.2299 14.2092L13.5319 28.8274L12.8523 29.1306L13.5503 14.5124Z" fill="#6580E1" fill-opacity="0.6"/>
<path fill-rule="evenodd" clip-rule="evenodd" d="M14.2297 14.2091L19.3766 14.02L18.6786 28.6382L13.5317 28.8273L14.2297 14.2091Z" fill="#6580E1" fill-opacity="0.6"/>
<path fill-rule="evenodd" clip-rule="evenodd" d="M19.3767 14.0202L21.6153 7.49609L20.9173 22.1143L18.6787 28.6384L19.3767 14.0202Z" fill="#6580E1" fill-opacity="0.6"/>
<path fill-rule="evenodd" clip-rule="evenodd" d="M21.6152 7.49589L21.4153 5.43115L20.7173 20.0493L20.9172 22.1141L21.6152 7.49589Z" fill="#6580E1" fill-opacity="0.6"/>
<path fill-rule="evenodd" clip-rule="evenodd" d="M21.4153 5.43115L22.2648 5.47329L21.5668 20.0915L20.7173 20.0493L21.4153 5.43115Z" fill="#6580E1" fill-opacity="0.6"/>
<path fill-rule="evenodd" clip-rule="evenodd" d="M22.2649 5.47347L22.4947 5.30884L21.7968 19.927L21.5669 20.0916L22.2649 5.47347Z" fill="#6580E1" fill-opacity="0.6"/>
<path fill-rule="evenodd" clip-rule="evenodd" d="M22.4946 5.30884L23.554 5.62233L22.856 20.2405L21.7966 19.927L22.4946 5.30884Z" fill="#6580E1" fill-opacity="0.6"/>
<path fill-rule="evenodd" clip-rule="evenodd" d="M23.5539 5.62225L24.8931 5.33594L24.1951 19.9541L22.856 20.2404L23.5539 5.62225Z" fill="#6580E1" fill-opacity="0.6"/>
<path fill-rule="evenodd" clip-rule="evenodd" d="M24.8933 5.33606L25.7428 4.77124L25.0448 19.3894L24.1953 19.9542L24.8933 5.33606Z" fill="#6580E1" fill-opacity="0.6"/>
<path fill-rule="evenodd" clip-rule="evenodd" d="M25.7427 4.77103L26.7521 3.71924L26.0541 18.3374L25.0447 19.3892L25.7427 4.77103Z" fill="#6580E1" fill-opacity="0.6"/>
<path fill-rule="evenodd" clip-rule="evenodd" d="M26.7522 3.71924L27.042 3.83575L26.344 18.4539L26.0542 18.3374L26.7522 3.71924Z" fill="#6580E1" fill-opacity="0.6"/>
<path fill-rule="evenodd" clip-rule="evenodd" d="M27.042 3.83589L27.3818 3.67407L26.6838 18.2922L26.344 18.4541L27.042 3.83589Z" fill="#6580E1" fill-opacity="0.6"/>
<path fill-rule="evenodd" clip-rule="evenodd" d="M27.3818 3.67407L27.5117 3.86154L26.8138 18.4797L26.6838 18.2922L27.3818 3.67407Z" fill="#6580E1" fill-opacity="0.6"/>
<path fill-rule="evenodd" clip-rule="evenodd" d="M27.5117 3.86157L27.9115 3.98088L27.2135 18.599L26.8137 18.4797L27.5117 3.86157Z" fill="#6580E1" fill-opacity="0.6"/>
<path fill-rule="evenodd" clip-rule="evenodd" d="M27.9114 3.98074L28.0113 3.84692L27.3133 18.4651L27.2134 18.5989L27.9114 3.98074Z" fill="#6580E1" fill-opacity="0.6"/>
<path fill-rule="evenodd" clip-rule="evenodd" d="M28.0115 3.84692L29.4006 4.34615L28.7026 18.9643L27.3135 18.4651L28.0115 3.84692Z" fill="#6580E1" fill-opacity="0.6"/>
<path fill-rule="evenodd" clip-rule="evenodd" d="M29.4004 4.34619L29.6702 4.60542L28.9722 19.2236L28.7024 18.9644L29.4004 4.34619Z" fill="#6580E1" fill-opacity="0.6"/>
<path fill-rule="evenodd" clip-rule="evenodd" d="M29.6704 4.60547L29.3906 4.63924L28.6926 19.2574L28.9725 19.2236L29.6704 4.60547Z" fill="#6580E1" fill-opacity="0.6"/>
<path fill-rule="evenodd" clip-rule="evenodd" d="M29.3906 4.63916L29.2307 4.94199L28.5327 19.5602L28.6926 19.2573L29.3906 4.63916Z" fill="#6580E1" fill-opacity="0.6"/>
<path fill-rule="evenodd" clip-rule="evenodd" d="M29.2307 4.94214L30.0602 5.25658L29.3622 19.8747L28.5327 19.5603L29.2307 4.94214Z" fill="#6580E1" fill-opacity="0.6"/>
<path fill-rule="evenodd" clip-rule="evenodd" d="M30.0601 5.25658L32.1088 1.36011L31.4108 15.9783L29.3621 19.8747L30.0601 5.25658Z" fill="#6580E1" fill-opacity="0.6"/>
<path fill-rule="evenodd" clip-rule="evenodd" d="M32.1089 1.36013L32.7785 0.988525L32.0805 15.6067L31.4109 15.9783L32.1089 1.36013Z" fill="#6580E1" fill-opacity="0.6"/>
<path fill-rule="evenodd" clip-rule="evenodd" d="M32.7784 0.988459L32.5286 0L31.8306 14.6182L32.0804 15.6066L32.7784 0.988459Z" fill="#6580E1" fill-opacity="0.6"/>
<path fill-rule="evenodd" clip-rule="evenodd" d="M32.5286 0L33.6479 0.335453L32.9499 14.9536L31.8306 14.6182L32.5286 0Z" fill="#6580E1" fill-opacity="0.6"/>
<path fill-rule="evenodd" clip-rule="evenodd" d="M33.648 0.335449L32.9385 1.8109L32.2405 16.4291L32.95 14.9536L33.648 0.335449Z" fill="#6580E1" fill-opacity="0.6"/>
<path fill-rule="evenodd" clip-rule="evenodd" d="M32.9385 1.81089L34.4276 1.67163L33.7296 16.2898L32.2405 16.429L32.9385 1.81089Z" fill="#6580E1" fill-opacity="0.6"/>
<path fill-rule="evenodd" clip-rule="evenodd" d="M34.4275 1.67151L34.9172 0.613281L34.2192 15.2314L33.7295 16.2897L34.4275 1.67151Z" fill="#6580E1" fill-opacity="0.6"/>
<path fill-rule="evenodd" clip-rule="evenodd" d="M34.9172 0.613281L35.0871 0.97906L34.3891 15.5972L34.2192 15.2314L34.9172 0.613281Z" fill="#6580E1" fill-opacity="0.6"/>
<path fill-rule="evenodd" clip-rule="evenodd" d="M35.0872 0.979248L36.8661 2.02041L36.1681 16.6386L34.3892 15.5974L35.0872 0.979248Z" fill="#6580E1" fill-opacity="0.6"/>
<path fill-rule="evenodd" clip-rule="evenodd" d="M36.8658 2.02026L36.7959 2.55042L36.0979 17.1686L36.1679 16.6384L36.8658 2.02026Z" fill="#6580E1" fill-opacity="0.6"/>
<path fill-rule="evenodd" clip-rule="evenodd" d="M36.7959 2.55054L37.2456 2.99168L36.5476 17.6098L36.0979 17.1687L36.7959 2.55054Z" fill="#6580E1" fill-opacity="0.6"/>
<path fill-rule="evenodd" clip-rule="evenodd" d="M37.2457 2.9917L37.1758 3.33774L36.4778 17.9559L36.5477 17.6099L37.2457 2.9917Z" fill="#6580E1" fill-opacity="0.6"/>
<path fill-rule="evenodd" clip-rule="evenodd" d="M37.1758 3.33765L37.8654 3.78492L37.1674 18.4031L36.4778 17.9558L37.1758 3.33765Z" fill="#6580E1" fill-opacity="0.6"/>
<path fill-rule="evenodd" clip-rule="evenodd" d="M37.8652 3.78494L38.8346 3.65967L38.1366 18.2778L37.1672 18.4031L37.8652 3.78494Z" fill="#6580E1" fill-opacity="0.6"/>
<path fill-rule="evenodd" clip-rule="evenodd" d="M38.8347 3.65964L39.0946 3.03198L38.3966 17.6501L38.1367 18.2778L38.8347 3.65964Z" fill="#6580E1" fill-opacity="0.6"/>
<path fill-rule="evenodd" clip-rule="evenodd" d="M39.0945 3.03198L39.5142 3.57468L38.8162 18.1928L38.3965 17.6501L39.0945 3.03198Z" fill="#6580E1" fill-opacity="0.6"/>
<path fill-rule="evenodd" clip-rule="evenodd" d="M39.5143 3.57471L39.4243 4.05664L38.7263 18.6748L38.8163 18.1929L39.5143 3.57471Z" fill="#6580E1" fill-opacity="0.6"/>
<path fill-rule="evenodd" clip-rule="evenodd" d="M39.4243 4.05664L39.6642 4.35603L38.9662 18.9742L38.7263 18.6748L39.4243 4.05664Z" fill="#6580E1" fill-opacity="0.6"/>
<path fill-rule="evenodd" clip-rule="evenodd" d="M39.6643 4.35596L39.9941 4.38481L39.2961 19.003L38.9663 18.9741L39.6643 4.35596Z" fill="#6580E1" fill-opacity="0.6"/>
<path fill-rule="evenodd" clip-rule="evenodd" d="M39.994 4.38477L39.894 6.25771L39.196 20.8759L39.296 19.0029L39.994 4.38477Z" fill="#6580E1" fill-opacity="0.6"/>
<path fill-rule="evenodd" clip-rule="evenodd" d="M39.894 6.25781L40.3737 7.01346L39.6758 21.6316L39.196 20.876L39.894 6.25781Z" fill="#6580E1" fill-opacity="0.6"/>
<path fill-rule="evenodd" clip-rule="evenodd" d="M40.3738 7.01343L41.2832 7.58908L40.5852 22.2072L39.6758 21.6316L40.3738 7.01343Z" fill="#6580E1" fill-opacity="0.6"/>
<path fill-rule="evenodd" clip-rule="evenodd" d="M41.2832 7.58911L41.9828 8.48676L41.2848 23.1049L40.5852 22.2073L41.2832 7.58911Z" fill="#6580E1" fill-opacity="0.6"/>
<path fill-rule="evenodd" clip-rule="evenodd" d="M41.9829 8.48682L42.8324 8.61081L42.1344 23.229L41.2849 23.105L41.9829 8.48682Z" fill="#6580E1" fill-opacity="0.6"/>
<path fill-rule="evenodd" clip-rule="evenodd" d="M42.8323 8.61069L43.5418 7.23071L42.8438 21.8489L42.1343 23.2289L42.8323 8.61069Z" fill="#6580E1" fill-opacity="0.6"/>
<path fill-rule="evenodd" clip-rule="evenodd" d="M43.542 7.23071L44.6813 7.65537L43.9833 22.2735L42.844 21.8489L43.542 7.23071Z" fill="#6580E1" fill-opacity="0.6"/>
<path fill-rule="evenodd" clip-rule="evenodd" d="M44.6811 7.65552L45.9304 7.65332L45.2324 22.2715L43.9832 22.2737L44.6811 7.65552Z" fill="#6580E1" fill-opacity="0.6"/>
<path fill-rule="evenodd" clip-rule="evenodd" d="M45.9304 7.65335L46.4701 6.99194L45.7721 21.6101L45.2324 22.2715L45.9304 7.65335Z" fill="#6580E1" fill-opacity="0.6"/>
<path fill-rule="evenodd" clip-rule="evenodd" d="M46.4702 6.99194L46.6701 7.30396L45.9721 21.9221L45.7722 21.6101L46.4702 6.99194Z" fill="#6580E1" fill-opacity="0.6"/>
<path fill-rule="evenodd" clip-rule="evenodd" d="M46.6699 7.30392L47.0097 7.14209L46.3117 21.7603L45.9719 21.9221L46.6699 7.30392Z" fill="#6580E1" fill-opacity="0.6"/>
<path fill-rule="evenodd" clip-rule="evenodd" d="M47.0098 7.14209L47.4295 7.80072L46.7315 22.4189L46.3118 21.7603L47.0098 7.14209Z" fill="#6580E1" fill-opacity="0.6"/>
<path fill-rule="evenodd" clip-rule="evenodd" d="M47.4295 7.80054L47.0198 8.38341L46.3218 23.0016L46.7315 22.4187L47.4295 7.80054Z" fill="#6580E1" fill-opacity="0.6"/>
<path fill-rule="evenodd" clip-rule="evenodd" d="M47.0198 8.38354L47.4795 9.20686L46.7815 23.825L46.3218 23.0017L47.0198 8.38354Z" fill="#6580E1" fill-opacity="0.6"/>
<path fill-rule="evenodd" clip-rule="evenodd" d="M47.4795 9.20679L47.5794 10.8189L46.8814 25.437L46.7815 23.825L47.4795 9.20679Z" fill="#6580E1" fill-opacity="0.6"/>
<path fill-rule="evenodd" clip-rule="evenodd" d="M47.5793 10.8188L47.1096 10.5613L46.4116 25.1794L46.8813 25.437L47.5793 10.8188Z" fill="#6580E1" fill-opacity="0.6"/>
<path fill-rule="evenodd" clip-rule="evenodd" d="M47.1097 10.5614L45.7605 10.4724L45.0625 25.0906L46.4117 25.1796L47.1097 10.5614Z" fill="#6580E1" fill-opacity="0.6"/>
<path fill-rule="evenodd" clip-rule="evenodd" d="M45.7605 10.4724L46.1303 10.5501L45.4323 25.1682L45.0625 25.0906L45.7605 10.4724Z" fill="#6580E1" fill-opacity="0.6"/>
<path fill-rule="evenodd" clip-rule="evenodd" d="M46.1304 10.55L46.5201 11.0442L45.8221 25.6624L45.4324 25.1682L46.1304 10.55Z" fill="#6580E1" fill-opacity="0.6"/>
<path fill-rule="evenodd" clip-rule="evenodd" d="M46.5202 11.0442L46.4702 11.759L45.7722 26.3772L45.8222 25.6624L46.5202 11.0442Z" fill="#6580E1" fill-opacity="0.6"/>
<path fill-rule="evenodd" clip-rule="evenodd" d="M46.4702 11.759L46.6401 12.1044L45.9421 26.7225L45.7722 26.3772L46.4702 11.759Z" fill="#6580E1" fill-opacity="0.6"/>
<path fill-rule="evenodd" clip-rule="evenodd" d="M46.6399 12.1042L46.9797 12.147L46.2817 26.7652L45.9419 26.7224L46.6399 12.1042Z" fill="#6580E1" fill-opacity="0.6"/>
<path fill-rule="evenodd" clip-rule="evenodd" d="M46.9799 12.1472L46.76 13.0214L46.062 27.6395L46.2819 26.7654L46.9799 12.1472Z" fill="#6580E1" fill-opacity="0.6"/>
<path fill-rule="evenodd" clip-rule="evenodd" d="M46.76 13.0212L46.0005 13.1382L45.3025 27.7563L46.062 27.6394L46.76 13.0212Z" fill="#6580E1" fill-opacity="0.6"/>
<path fill-rule="evenodd" clip-rule="evenodd" d="M46.0005 13.1382L46.2503 13.8266L45.5523 28.4447L45.3025 27.7563L46.0005 13.1382Z" fill="#6580E1" fill-opacity="0.6"/>
<path fill-rule="evenodd" clip-rule="evenodd" d="M46.2502 13.8267L47.3296 13.9225L46.6316 28.5407L45.5522 28.4448L46.2502 13.8267Z" fill="#6580E1" fill-opacity="0.6"/>
<path fill-rule="evenodd" clip-rule="evenodd" d="M47.3296 13.9224L47.3895 13.1191L46.6916 27.7373L46.6316 28.5405L47.3296 13.9224Z" fill="#6580E1" fill-opacity="0.6"/>
<path fill-rule="evenodd" clip-rule="evenodd" d="M47.3896 13.1191L47.6095 13.1111L46.9115 27.7292L46.6917 27.7373L47.3896 13.1191Z" fill="#6580E1" fill-opacity="0.6"/>
<path fill-rule="evenodd" clip-rule="evenodd" d="M47.6094 13.1111L47.8192 13.7848L47.1212 28.403L46.9114 27.7292L47.6094 13.1111Z" fill="#6580E1" fill-opacity="0.6"/>
<path fill-rule="evenodd" clip-rule="evenodd" d="M47.8193 13.7849L48.299 13.7017L47.601 28.3198L47.1213 28.4031L47.8193 13.7849Z" fill="#6580E1" fill-opacity="0.6"/>
<path fill-rule="evenodd" clip-rule="evenodd" d="M48.2991 13.7017L48.5389 14.0283L47.8409 28.6465L47.6011 28.3198L48.2991 13.7017Z" fill="#6580E1" fill-opacity="0.6"/>
<path fill-rule="evenodd" clip-rule="evenodd" d="M48.5389 14.0284L45.8306 13.8706L45.1326 28.4888L47.8409 28.6466L48.5389 14.0284Z" fill="#6580E1" fill-opacity="0.6"/>
<path fill-rule="evenodd" clip-rule="evenodd" d="M45.8305 13.8706L45.8005 14.1358L45.1025 28.754L45.1325 28.4888L45.8305 13.8706Z" fill="#6580E1" fill-opacity="0.6"/>
<path fill-rule="evenodd" clip-rule="evenodd" d="M45.8005 14.1357L46.4801 14.9579L45.7821 29.576L45.1025 28.7539L45.8005 14.1357Z" fill="#6580E1" fill-opacity="0.6"/>
<path fill-rule="evenodd" clip-rule="evenodd" d="M46.48 14.9578L46.7498 15.6467L46.0518 30.2648L45.782 29.5759L46.48 14.9578Z" fill="#6580E1" fill-opacity="0.6"/>
<path fill-rule="evenodd" clip-rule="evenodd" d="M46.7499 15.6467L45.1509 16.5198L44.4529 31.1379L46.0519 30.2649L46.7499 15.6467Z" fill="#6580E1" fill-opacity="0.6"/>
<path fill-rule="evenodd" clip-rule="evenodd" d="M45.1509 16.5198L45.8504 17.4856L45.1525 32.1038L44.4529 31.1379L45.1509 16.5198Z" fill="#6580E1" fill-opacity="0.6"/>
<path fill-rule="evenodd" clip-rule="evenodd" d="M45.8506 17.4856L47.5995 18.7988L46.9015 33.4169L45.1526 32.1038L45.8506 17.4856Z" fill="#6580E1" fill-opacity="0.6"/>
<path fill-rule="evenodd" clip-rule="evenodd" d="M47.5995 18.7988L46.4702 19.9157L45.7722 34.5339L46.9015 33.417L47.5995 18.7988Z" fill="#6580E1" fill-opacity="0.6"/>
<path fill-rule="evenodd" clip-rule="evenodd" d="M46.4702 19.9158L46.5602 20.1772L45.8622 34.7954L45.7722 34.5339L46.4702 19.9158Z" fill="#6580E1" fill-opacity="0.6"/>
<path fill-rule="evenodd" clip-rule="evenodd" d="M46.5601 20.1773L47.5694 20.0598L46.8714 34.678L45.8621 34.7954L46.5601 20.1773Z" fill="#6580E1" fill-opacity="0.6"/>
<path fill-rule="evenodd" clip-rule="evenodd" d="M47.5693 20.0598V20.6463L46.8713 35.2645V34.678L47.5693 20.0598Z" fill="#6580E1" fill-opacity="0.6"/>
<path fill-rule="evenodd" clip-rule="evenodd" d="M47.5693 20.6462L49.718 22.1879L49.02 36.806L46.8713 35.2644L47.5693 20.6462Z" fill="#6580E1" fill-opacity="0.6"/>
<path fill-rule="evenodd" clip-rule="evenodd" d="M49.718 22.188L50.2277 22.3374L49.5297 36.9556L49.02 36.8062L49.718 22.188Z" fill="#6580E1" fill-opacity="0.6"/>
<path fill-rule="evenodd" clip-rule="evenodd" d="M50.2278 22.3373L50.4576 22.1863L49.7596 36.8044L49.5298 36.9554L50.2278 22.3373Z" fill="#6580E1" fill-opacity="0.6"/>
<path fill-rule="evenodd" clip-rule="evenodd" d="M50.4578 22.1863L52.3166 22.3497L51.6186 36.9679L49.7598 36.8044L50.4578 22.1863Z" fill="#6580E1" fill-opacity="0.6"/>
<path fill-rule="evenodd" clip-rule="evenodd" d="M52.3166 22.3496L52.7364 22.4081L52.0384 37.0262L51.6187 36.9678L52.3166 22.3496Z" fill="#6580E1" fill-opacity="0.6"/>
<path fill-rule="evenodd" clip-rule="evenodd" d="M52.7363 22.4082L53.206 23.0954L52.508 37.7135L52.0383 37.0264L52.7363 22.4082Z" fill="#6580E1" fill-opacity="0.6"/>
<path fill-rule="evenodd" clip-rule="evenodd" d="M53.206 23.0955L53.4159 24.3352L52.7179 38.9534L52.5081 37.7136L53.206 23.0955Z" fill="#6580E1" fill-opacity="0.6"/>
<path fill-rule="evenodd" clip-rule="evenodd" d="M53.4158 24.3352L53.6856 24.7172L52.9876 39.3354L52.7178 38.9534L53.4158 24.3352Z" fill="#6580E1" fill-opacity="0.6"/>
<path fill-rule="evenodd" clip-rule="evenodd" d="M53.6856 24.717L52.6663 25.0456L51.9683 39.6638L52.9876 39.3352L53.6856 24.717Z" fill="#6580E1" fill-opacity="0.6"/>
<path fill-rule="evenodd" clip-rule="evenodd" d="M52.6663 25.0457L51.647 25.1628L50.949 39.781L51.9684 39.6638L52.6663 25.0457Z" fill="#6580E1" fill-opacity="0.6"/>
<path fill-rule="evenodd" clip-rule="evenodd" d="M51.6471 25.1628L51.0874 25.5509L50.3894 40.1691L50.9491 39.781L51.6471 25.1628Z" fill="#6580E1" fill-opacity="0.6"/>
<path fill-rule="evenodd" clip-rule="evenodd" d="M51.0874 25.551L51.0674 26.3007L50.3694 40.9189L50.3894 40.1692L51.0874 25.551Z" fill="#6580E1" fill-opacity="0.6"/>
<path fill-rule="evenodd" clip-rule="evenodd" d="M51.0673 26.3008L50.0979 27.1967L49.3999 41.8149L50.3693 40.9189L51.0673 26.3008Z" fill="#6580E1" fill-opacity="0.6"/>
<path fill-rule="evenodd" clip-rule="evenodd" d="M50.0979 27.1965L49.6482 28.4126L48.9502 43.0308L49.3999 41.8147L50.0979 27.1965Z" fill="#6580E1" fill-opacity="0.6"/>
<path fill-rule="evenodd" clip-rule="evenodd" d="M49.6482 28.4128L48.259 29.1276L47.561 43.7457L48.9502 43.031L49.6482 28.4128Z" fill="#6580E1" fill-opacity="0.6"/>
<path fill-rule="evenodd" clip-rule="evenodd" d="M48.259 29.1274L45.9104 29.4426L45.2124 44.0607L47.561 43.7456L48.259 29.1274Z" fill="#6580E1" fill-opacity="0.6"/>
<path fill-rule="evenodd" clip-rule="evenodd" d="M45.9104 29.4426L45.9204 30.0635L45.2224 44.6817L45.2124 44.0608L45.9104 29.4426Z" fill="#6580E1" fill-opacity="0.6"/>
<path fill-rule="evenodd" clip-rule="evenodd" d="M45.9205 30.0635L44.8911 30.8624L44.1931 45.4806L45.2225 44.6816L45.9205 30.0635Z" fill="#6580E1" fill-opacity="0.6"/>
<path fill-rule="evenodd" clip-rule="evenodd" d="M44.8911 30.8624L42.7524 30.46L42.0544 45.0781L44.1931 45.4806L44.8911 30.8624Z" fill="#6580E1" fill-opacity="0.6"/>
<path fill-rule="evenodd" clip-rule="evenodd" d="M42.7522 30.46L42.1726 30.5065L41.4746 45.1247L42.0543 45.0781L42.7522 30.46Z" fill="#6580E1" fill-opacity="0.6"/>
<path fill-rule="evenodd" clip-rule="evenodd" d="M42.1727 30.5066L41.803 29.6924L41.105 44.3105L41.4748 45.1247L42.1727 30.5066Z" fill="#6580E1" fill-opacity="0.6"/>
<path fill-rule="evenodd" clip-rule="evenodd" d="M41.8029 29.6924L40.6936 30.3256L39.9956 44.9438L41.1049 44.3105L41.8029 29.6924Z" fill="#6580E1" fill-opacity="0.6"/>
<path fill-rule="evenodd" clip-rule="evenodd" d="M40.6936 30.3254L38.8547 32.2699L38.1567 46.8881L39.9956 44.9436L40.6936 30.3254Z" fill="#6580E1" fill-opacity="0.6"/>
<path fill-rule="evenodd" clip-rule="evenodd" d="M38.8547 32.27L40.8035 33.1654L40.1056 47.7836L38.1567 46.8882L38.8547 32.27Z" fill="#6580E1" fill-opacity="0.6"/>
<path fill-rule="evenodd" clip-rule="evenodd" d="M40.8035 33.1653L40.6636 34.4576L39.9656 49.0757L40.1055 47.7834L40.8035 33.1653Z" fill="#6580E1" fill-opacity="0.6"/>
<path fill-rule="evenodd" clip-rule="evenodd" d="M40.6636 34.4578L41.1333 34.5925L40.4353 49.2107L39.9656 49.0759L40.6636 34.4578Z" fill="#6580E1" fill-opacity="0.6"/>
<path fill-rule="evenodd" clip-rule="evenodd" d="M41.1333 34.5925L41.603 35.4229L40.905 50.0411L40.4353 49.2107L41.1333 34.5925Z" fill="#6580E1" fill-opacity="0.6"/>
<path fill-rule="evenodd" clip-rule="evenodd" d="M41.6031 35.4229L41.2034 36.3265L40.5054 50.9447L40.9051 50.041L41.6031 35.4229Z" fill="#6580E1" fill-opacity="0.6"/>
<path fill-rule="evenodd" clip-rule="evenodd" d="M41.2034 36.3264L41.0835 37.3191L40.3855 51.9372L40.5054 50.9446L41.2034 36.3264Z" fill="#6580E1" fill-opacity="0.6"/>
<path fill-rule="evenodd" clip-rule="evenodd" d="M41.0833 37.3191L39.7642 37.8856L39.0662 52.5037L40.3854 51.9373L41.0833 37.3191Z" fill="#6580E1" fill-opacity="0.6"/>
<path fill-rule="evenodd" clip-rule="evenodd" d="M39.7642 37.8856L39.3445 37.6362L38.6465 52.2544L39.0662 52.5038L39.7642 37.8856Z" fill="#6580E1" fill-opacity="0.6"/>
<path fill-rule="evenodd" clip-rule="evenodd" d="M39.3445 37.6361L39.3844 37.303L38.6865 51.9211L38.6465 52.2543L39.3445 37.6361Z" fill="#6580E1" fill-opacity="0.6"/>
<path fill-rule="evenodd" clip-rule="evenodd" d="M39.3845 37.303L38.9348 37.3665L38.2368 51.9847L38.6865 51.9211L39.3845 37.303Z" fill="#6580E1" fill-opacity="0.6"/>
<path fill-rule="evenodd" clip-rule="evenodd" d="M38.9347 37.3665L38.7349 37.8183L38.0369 52.4365L38.2367 51.9846L38.9347 37.3665Z" fill="#6580E1" fill-opacity="0.6"/>
<path fill-rule="evenodd" clip-rule="evenodd" d="M38.7349 37.8184L39.3145 39.4086L38.6165 54.0267L38.0369 52.4365L38.7349 37.8184Z" fill="#6580E1" fill-opacity="0.6"/>
<path fill-rule="evenodd" clip-rule="evenodd" d="M39.3144 39.4087L42.8323 39.8736L42.1343 54.4918L38.6165 54.0269L39.3144 39.4087Z" fill="#6580E1" fill-opacity="0.6"/>
<path fill-rule="evenodd" clip-rule="evenodd" d="M42.8324 39.8735L41.3733 41.2753L40.6753 55.8934L42.1344 54.4917L42.8324 39.8735Z" fill="#6580E1" fill-opacity="0.6"/>
<path fill-rule="evenodd" clip-rule="evenodd" d="M41.3733 41.2754L41.0535 41.8878L40.3555 56.506L40.6753 55.8936L41.3733 41.2754Z" fill="#6580E1" fill-opacity="0.6"/>
<path fill-rule="evenodd" clip-rule="evenodd" d="M41.0535 41.8877L41.2933 42.4803L40.5953 57.0985L40.3555 56.5059L41.0535 41.8877Z" fill="#6580E1" fill-opacity="0.6"/>
<path fill-rule="evenodd" clip-rule="evenodd" d="M41.2932 42.4805L40.3738 42.8729L39.6758 57.4911L40.5952 57.0986L41.2932 42.4805Z" fill="#6580E1" fill-opacity="0.6"/>
<path fill-rule="evenodd" clip-rule="evenodd" d="M40.3737 42.8728L39.894 43.9655L39.196 58.5836L39.6758 57.491L40.3737 42.8728Z" fill="#6580E1" fill-opacity="0.6"/>
<path fill-rule="evenodd" clip-rule="evenodd" d="M39.894 43.9656L40.5237 44.2817L39.8257 58.8999L39.196 58.5837L39.894 43.9656Z" fill="#6580E1" fill-opacity="0.6"/>
<path fill-rule="evenodd" clip-rule="evenodd" d="M40.5237 44.2817L41.3632 44.1804L40.6652 58.7986L39.8257 58.8999L40.5237 44.2817Z" fill="#6580E1" fill-opacity="0.6"/>
<path fill-rule="evenodd" clip-rule="evenodd" d="M41.3633 44.1804L42.7125 44.74L42.0145 59.3582L40.6653 58.7986L41.3633 44.1804Z" fill="#6580E1" fill-opacity="0.6"/>
<path fill-rule="evenodd" clip-rule="evenodd" d="M42.7124 44.74L43.8317 45.5392L43.1337 60.1574L42.0144 59.3582L42.7124 44.74Z" fill="#6580E1" fill-opacity="0.6"/>
<path fill-rule="evenodd" clip-rule="evenodd" d="M43.8318 45.5393L44.1316 47.5793L43.4336 62.1975L43.1338 60.1575L43.8318 45.5393Z" fill="#6580E1" fill-opacity="0.6"/>
<path fill-rule="evenodd" clip-rule="evenodd" d="M44.1316 47.5793L44.5813 48.8321L43.8833 63.4502L43.4336 62.1975L44.1316 47.5793Z" fill="#6580E1" fill-opacity="0.6"/>
<path fill-rule="evenodd" clip-rule="evenodd" d="M44.5813 48.832L44.2915 49.4043L43.5935 64.0225L43.8833 63.4502L44.5813 48.832Z" fill="#6580E1" fill-opacity="0.6"/>
<path fill-rule="evenodd" clip-rule="evenodd" d="M44.2915 49.4043L41.9829 50.4843L41.2849 65.1024L43.5935 64.0225L44.2915 49.4043Z" fill="#6580E1" fill-opacity="0.6"/>
<path fill-rule="evenodd" clip-rule="evenodd" d="M41.9829 50.4841L40.9336 50.6619L40.2356 65.2801L41.285 65.1023L41.9829 50.4841Z" fill="#6580E1" fill-opacity="0.6"/>
<path fill-rule="evenodd" clip-rule="evenodd" d="M40.9334 50.6619L38.335 49.2588L37.637 63.877L40.2354 65.2801L40.9334 50.6619Z" fill="#6580E1" fill-opacity="0.6"/>
<path fill-rule="evenodd" clip-rule="evenodd" d="M38.3351 49.2588L35.3269 49.6594L34.6289 64.2776L37.6371 63.877L38.3351 49.2588Z" fill="#6580E1" fill-opacity="0.6"/>
<path fill-rule="evenodd" clip-rule="evenodd" d="M35.3269 49.6596L34.7073 48.2866L34.0093 62.9048L34.6289 64.2778L35.3269 49.6596Z" fill="#6580E1" fill-opacity="0.6"/>
<path fill-rule="evenodd" clip-rule="evenodd" d="M34.7073 48.2866L32.9084 48.4316L32.2104 63.0498L34.0094 62.9048L34.7073 48.2866Z" fill="#6580E1" fill-opacity="0.6"/>
<path fill-rule="evenodd" clip-rule="evenodd" d="M32.9084 48.4316L32.1089 49.1546L31.4109 63.7728L32.2104 63.0498L32.9084 48.4316Z" fill="#6580E1" fill-opacity="0.6"/>
<path fill-rule="evenodd" clip-rule="evenodd" d="M32.1088 49.1545L30.3398 49.3481L29.6418 63.9662L31.4108 63.7727L32.1088 49.1545Z" fill="#6580E1" fill-opacity="0.6"/>
<path fill-rule="evenodd" clip-rule="evenodd" d="M30.3399 49.3479L29.3205 49.3764L28.6226 63.9946L29.6419 63.9661L30.3399 49.3479Z" fill="#6580E1" fill-opacity="0.6"/>
<path fill-rule="evenodd" clip-rule="evenodd" d="M29.3205 49.3765L28.531 48.9062L27.833 63.5244L28.6225 63.9947L29.3205 49.3765Z" fill="#6580E1" fill-opacity="0.6"/>
<path fill-rule="evenodd" clip-rule="evenodd" d="M28.5311 48.9062L27.7017 49.3625L27.0037 63.9806L27.8332 63.5244L28.5311 48.9062Z" fill="#6580E1" fill-opacity="0.6"/>
<path fill-rule="evenodd" clip-rule="evenodd" d="M27.7015 49.3625L27.1418 50.0644L26.4438 64.6825L27.0035 63.9807L27.7015 49.3625Z" fill="#6580E1" fill-opacity="0.6"/>
<path fill-rule="evenodd" clip-rule="evenodd" d="M27.1419 50.0642L26.1226 49.9836L25.4246 64.6018L26.4439 64.6824L27.1419 50.0642Z" fill="#6580E1" fill-opacity="0.6"/>
<path fill-rule="evenodd" clip-rule="evenodd" d="M26.1226 49.9836L26.1325 50.5363L25.4346 65.1545L25.4246 64.6018L26.1226 49.9836Z" fill="#6580E1" fill-opacity="0.6"/>
<path fill-rule="evenodd" clip-rule="evenodd" d="M26.1326 50.5364L25.0832 50.5914L24.3853 65.2096L25.4346 65.1545L26.1326 50.5364Z" fill="#6580E1" fill-opacity="0.6"/>
<path fill-rule="evenodd" clip-rule="evenodd" d="M25.0831 50.5913L24.9731 50.8886L24.2751 65.5067L24.3851 65.2095L25.0831 50.5913Z" fill="#6580E1" fill-opacity="0.6"/>
<path fill-rule="evenodd" clip-rule="evenodd" d="M24.9732 50.8887L22.085 49.3691L21.387 63.9873L24.2752 65.5069L24.9732 50.8887Z" fill="#6580E1" fill-opacity="0.6"/>
<path fill-rule="evenodd" clip-rule="evenodd" d="M22.085 49.3692L22.2648 48.6304L21.5669 63.2485L21.387 63.9873L22.085 49.3692Z" fill="#6580E1" fill-opacity="0.6"/>
<path fill-rule="evenodd" clip-rule="evenodd" d="M22.2649 48.6303L21.9451 47.5923L21.2471 62.2104L21.5669 63.2484L22.2649 48.6303Z" fill="#6580E1" fill-opacity="0.6"/>
<path fill-rule="evenodd" clip-rule="evenodd" d="M21.9452 47.5923L20.626 45.3762L19.928 59.9944L21.2472 62.2105L21.9452 47.5923Z" fill="#6580E1" fill-opacity="0.6"/>
<path fill-rule="evenodd" clip-rule="evenodd" d="M20.626 45.3761L19.3867 45.2285L18.6887 59.8467L19.928 59.9943L20.626 45.3761Z" fill="#6580E1" fill-opacity="0.6"/>
<path fill-rule="evenodd" clip-rule="evenodd" d="M19.3866 45.2285L17.6477 47.1005L16.9497 61.7187L18.6886 59.8467L19.3866 45.2285Z" fill="#6580E1" fill-opacity="0.6"/>
<path fill-rule="evenodd" clip-rule="evenodd" d="M17.6476 47.1007L15.7187 46.7241L15.0208 61.3423L16.9496 61.7189L17.6476 47.1007Z" fill="#6580E1" fill-opacity="0.6"/>
<path fill-rule="evenodd" clip-rule="evenodd" d="M15.7189 46.7241L15.0393 47.0887L14.3413 61.7068L15.0209 61.3423L15.7189 46.7241Z" fill="#6580E1" fill-opacity="0.6"/>
<path fill-rule="evenodd" clip-rule="evenodd" d="M15.0393 47.0887L14.5696 45.9309L13.8716 60.5491L14.3413 61.7068L15.0393 47.0887Z" fill="#6580E1" fill-opacity="0.6"/>
<path fill-rule="evenodd" clip-rule="evenodd" d="M14.5696 45.9309L12.5608 44.7065L11.8628 59.3247L13.8716 60.549L14.5696 45.9309Z" fill="#6580E1" fill-opacity="0.6"/>
<path fill-rule="evenodd" clip-rule="evenodd" d="M12.5608 44.7064L12.1411 43.0588L11.4431 57.677L11.8629 59.3245L12.5608 44.7064Z" fill="#6580E1" fill-opacity="0.6"/>
<path fill-rule="evenodd" clip-rule="evenodd" d="M12.1411 43.0588L11.8013 43.0774L11.1033 57.6956L11.4431 57.677L12.1411 43.0588Z" fill="#6580E1" fill-opacity="0.6"/>
<path fill-rule="evenodd" clip-rule="evenodd" d="M11.8013 43.0776L11.5315 43.3094L10.8335 57.9276L11.1033 57.6958L11.8013 43.0776Z" fill="#6580E1" fill-opacity="0.6"/>
<path fill-rule="evenodd" clip-rule="evenodd" d="M11.5313 43.3093L11.4014 44.0289L10.7034 58.6471L10.8333 57.9275L11.5313 43.3093Z" fill="#6580E1" fill-opacity="0.6"/>
<path fill-rule="evenodd" clip-rule="evenodd" d="M11.4014 44.0291L8.94286 44.1095L8.24487 58.7276L10.7034 58.6472L11.4014 44.0291Z" fill="#6580E1" fill-opacity="0.6"/>
<path fill-rule="evenodd" clip-rule="evenodd" d="M8.94293 44.1093L8.82299 43.772L8.125 58.3901L8.24494 58.7274L8.94293 44.1093Z" fill="#6580E1" fill-opacity="0.6"/>
<path fill-rule="evenodd" clip-rule="evenodd" d="M8.82301 43.7721L8.37328 43.7402L7.67529 58.3584L8.12502 58.3903L8.82301 43.7721Z" fill="#6580E1" fill-opacity="0.6"/>
<path fill-rule="evenodd" clip-rule="evenodd" d="M8.37336 43.7401L7.96361 42.9658L7.26562 57.584L7.67537 58.3583L8.37336 43.7401Z" fill="#6580E1" fill-opacity="0.6"/>
<path fill-rule="evenodd" clip-rule="evenodd" d="M7.96361 42.9658L8.36337 41.9258L7.66538 56.5439L7.26562 57.584L7.96361 42.9658Z" fill="#6580E1" fill-opacity="0.6"/>
<path fill-rule="evenodd" clip-rule="evenodd" d="M8.36327 41.9258L8.9529 41.9067L8.25491 56.5249L7.66528 56.5439L8.36327 41.9258Z" fill="#6580E1" fill-opacity="0.6"/>
<path fill-rule="evenodd" clip-rule="evenodd" d="M8.95306 41.9068L8.46337 39.4868L7.76538 54.105L8.25507 56.5249L8.95306 41.9068Z" fill="#6580E1" fill-opacity="0.6"/>
<path fill-rule="evenodd" clip-rule="evenodd" d="M8.46319 39.4868L6.9641 39.0393L6.26611 53.6575L7.7652 54.105L8.46319 39.4868Z" fill="#6580E1" fill-opacity="0.6"/>
<path fill-rule="evenodd" clip-rule="evenodd" d="M6.96409 39.0393L5.72485 38.9531L5.02686 53.5713L6.2661 53.6575L6.96409 39.0393Z" fill="#6580E1" fill-opacity="0.6"/>
<path fill-rule="evenodd" clip-rule="evenodd" d="M5.72485 38.9531L6.24453 37.5137L5.54654 52.1318L5.02686 53.5712L5.72485 38.9531Z" fill="#6580E1" fill-opacity="0.6"/>
<path fill-rule="evenodd" clip-rule="evenodd" d="M6.24462 37.5138L6.70433 37.239L6.00634 51.8572L5.54663 52.1319L6.24462 37.5138Z" fill="#6580E1" fill-opacity="0.6"/>
<path fill-rule="evenodd" clip-rule="evenodd" d="M6.70434 37.239L7.35395 36.3486L6.65596 50.9668L6.00635 51.8572L6.70434 37.239Z" fill="#6580E1" fill-opacity="0.6"/>
<path fill-rule="evenodd" clip-rule="evenodd" d="M7.35402 36.3485L7.0642 36.2251L6.36621 50.8433L6.65603 50.9667L7.35402 36.3485Z" fill="#6580E1" fill-opacity="0.6"/>
<path fill-rule="evenodd" clip-rule="evenodd" d="M7.0642 36.2251L7.20411 35.8877L6.50612 50.5059L6.36621 50.8433L7.0642 36.2251Z" fill="#6580E1" fill-opacity="0.6"/>
<path fill-rule="evenodd" clip-rule="evenodd" d="M7.20392 35.8877L6.32445 35.9403L5.62646 50.5585L6.50593 50.5059L7.20392 35.8877Z" fill="#6580E1" fill-opacity="0.6"/>
<path fill-rule="evenodd" clip-rule="evenodd" d="M6.32463 35.9403L6.28466 35.6733L5.58667 50.2915L5.62664 50.5585L6.32463 35.9403Z" fill="#6580E1" fill-opacity="0.6"/>
<path fill-rule="evenodd" clip-rule="evenodd" d="M6.28466 35.6733L6.85431 35.2991L6.15632 49.9172L5.58667 50.2914L6.28466 35.6733Z" fill="#6580E1" fill-opacity="0.6"/>
<path fill-rule="evenodd" clip-rule="evenodd" d="M6.85424 35.2993L6.93418 34.9126L6.23619 49.5308L6.15625 49.9175L6.85424 35.2993Z" fill="#6580E1" fill-opacity="0.6"/>
<path fill-rule="evenodd" clip-rule="evenodd" d="M6.9342 34.9126L6.70434 34.8862L6.00635 49.5044L6.23621 49.5307L6.9342 34.9126Z" fill="#6580E1" fill-opacity="0.6"/>
<path fill-rule="evenodd" clip-rule="evenodd" d="M6.70443 34.8863L6.30468 34.385L5.60669 49.0032L6.00644 49.5044L6.70443 34.8863Z" fill="#6580E1" fill-opacity="0.6"/>
<path fill-rule="evenodd" clip-rule="evenodd" d="M6.30468 34.3848L7.30407 33.5442L6.60608 48.1624L5.60669 49.003L6.30468 34.3848Z" fill="#6580E1" fill-opacity="0.6"/>
<path fill-rule="evenodd" clip-rule="evenodd" d="M7.30395 33.5443L10.3021 33.0139L9.60413 47.6321L6.60596 48.1625L7.30395 33.5443Z" fill="#6580E1" fill-opacity="0.6"/>
<path fill-rule="evenodd" clip-rule="evenodd" d="M10.3022 33.0139L10.8519 32.5574L10.1539 47.1755L9.60425 47.6321L10.3022 33.0139Z" fill="#6580E1" fill-opacity="0.6"/>
<path fill-rule="evenodd" clip-rule="evenodd" d="M10.8518 32.5573L11.8012 32.4587L11.1032 47.0769L10.1538 47.1754L10.8518 32.5573Z" fill="#6580E1" fill-opacity="0.6"/>
<path fill-rule="evenodd" clip-rule="evenodd" d="M11.8013 32.4588L12.3709 31.1912L11.6729 45.8093L11.1033 47.0769L11.8013 32.4588Z" fill="#6580E1" fill-opacity="0.6"/>
<path fill-rule="evenodd" clip-rule="evenodd" d="M12.3708 31.1913L13.73 30.1689L13.032 44.7871L11.6729 45.8095L12.3708 31.1913Z" fill="#6580E1" fill-opacity="0.6"/>
<path fill-rule="evenodd" clip-rule="evenodd" d="M13.73 30.1687L13.2602 29.9521L12.5623 44.5703L13.032 44.7869L13.73 30.1687Z" fill="#6580E1" fill-opacity="0.6"/>
<path fill-rule="evenodd" clip-rule="evenodd" d="M13.2604 29.9522L13.0505 29.5718L12.3525 44.1899L12.5624 44.5704L13.2604 29.9522Z" fill="#6580E1" fill-opacity="0.6"/>
<path fill-rule="evenodd" clip-rule="evenodd" d="M13.0505 29.5719L14.0899 28.896L13.3919 43.5142L12.3525 44.1901L13.0505 29.5719Z" fill="#6580E1" fill-opacity="0.6"/>
<path fill-rule="evenodd" clip-rule="evenodd" d="M14.0899 28.8958L13.4902 28.0076L12.7922 42.6257L13.3919 43.514L14.0899 28.8958Z" fill="#6580E1" fill-opacity="0.6"/>
<path fill-rule="evenodd" clip-rule="evenodd" d="M13.4902 28.0076L13.79 27.5515L13.0921 42.1697L12.7922 42.6258L13.4902 28.0076Z" fill="#6580E1" fill-opacity="0.6"/>
<path fill-rule="evenodd" clip-rule="evenodd" d="M13.79 27.5515L13.6201 27.1311L12.9221 41.7493L13.092 42.1696L13.79 27.5515Z" fill="#6580E1" fill-opacity="0.6"/>
<path fill-rule="evenodd" clip-rule="evenodd" d="M13.6201 27.1311L13.0205 26.9385L12.3225 41.5566L12.9221 41.7493L13.6201 27.1311Z" fill="#6580E1" fill-opacity="0.6"/>
<path fill-rule="evenodd" clip-rule="evenodd" d="M13.0204 26.9386L12.6706 26.3977L11.9727 41.0159L12.3224 41.5568L13.0204 26.9386Z" fill="#6580E1" fill-opacity="0.6"/>
<path fill-rule="evenodd" clip-rule="evenodd" d="M12.6708 26.3977L11.8513 25.8721L11.1533 40.4902L11.9728 41.0158L12.6708 26.3977Z" fill="#6580E1" fill-opacity="0.6"/>
<path fill-rule="evenodd" clip-rule="evenodd" d="M11.8513 25.8721L11.9013 25.0754L11.2033 39.6936L11.1533 40.4903L11.8513 25.8721Z" fill="#6580E1" fill-opacity="0.6"/>
<path fill-rule="evenodd" clip-rule="evenodd" d="M11.9011 25.0754L11.2615 25.0454L10.5635 39.6636L11.2031 39.6935L11.9011 25.0754Z" fill="#6580E1" fill-opacity="0.6"/>
<path fill-rule="evenodd" clip-rule="evenodd" d="M11.2616 25.0454L8.85302 24.3359L8.15503 38.9541L10.5636 39.6636L11.2616 25.0454Z" fill="#6580E1" fill-opacity="0.6"/>
<path fill-rule="evenodd" clip-rule="evenodd" d="M8.85301 24.3359L6.38451 24.6412L5.68652 39.2594L8.15502 38.9541L8.85301 24.3359Z" fill="#6580E1" fill-opacity="0.6"/>
<path fill-rule="evenodd" clip-rule="evenodd" d="M6.38465 24.6411L5.85497 22.6975L5.15698 37.3157L5.68666 39.2593L6.38465 24.6411Z" fill="#6580E1" fill-opacity="0.6"/>
<path fill-rule="evenodd" clip-rule="evenodd" d="M5.85494 22.6975L5.06542 23.2161L4.36743 37.8342L5.15695 37.3157L5.85494 22.6975Z" fill="#6580E1" fill-opacity="0.6"/>
<path fill-rule="evenodd" clip-rule="evenodd" d="M5.06527 23.2161L4.50561 23.3587L3.80762 37.9769L4.36728 37.8342L5.06527 23.2161Z" fill="#6580E1" fill-opacity="0.6"/>
<path fill-rule="evenodd" clip-rule="evenodd" d="M4.50579 23.3588L3.84618 22.6599L3.14819 37.2781L3.8078 37.9769L4.50579 23.3588Z" fill="#6580E1" fill-opacity="0.6"/>
<path fill-rule="evenodd" clip-rule="evenodd" d="M3.84615 22.6599L3.20653 22.9981L2.50854 37.6163L3.14816 37.2781L3.84615 22.6599Z" fill="#6580E1" fill-opacity="0.6"/>
<path fill-rule="evenodd" clip-rule="evenodd" d="M3.20648 22.9982L3.01659 22.9524L2.3186 37.5706L2.50849 37.6163L3.20648 22.9982Z" fill="#6580E1" fill-opacity="0.6"/>
<path fill-rule="evenodd" clip-rule="evenodd" d="M3.01668 22.9525L2.61694 21.0532L1.91895 35.6714L2.31869 37.5707L3.01668 22.9525Z" fill="#6580E1" fill-opacity="0.6"/>
<path fill-rule="evenodd" clip-rule="evenodd" d="M2.61671 21.0531L1.85717 19.6697L1.15918 34.2878L1.91872 35.6712L2.61671 21.0531Z" fill="#6580E1" fill-opacity="0.6"/>
<path fill-rule="evenodd" clip-rule="evenodd" d="M1.85717 19.6696L2.35687 18.2297L1.65888 32.8479L1.15918 34.2878L1.85717 19.6696Z" fill="#6580E1" fill-opacity="0.6"/>
<path fill-rule="evenodd" clip-rule="evenodd" d="M2.35691 18.23L2.0371 17.9558L1.33911 32.574L1.65892 32.8481L2.35691 18.23Z" fill="#6580E1" fill-opacity="0.6"/>
<path fill-rule="evenodd" clip-rule="evenodd" d="M2.0371 17.9557L2.55678 16.905L1.85879 31.5232L1.33911 32.5738L2.0371 17.9557Z" fill="#6580E1" fill-opacity="0.6"/>
<path fill-rule="evenodd" clip-rule="evenodd" d="M2.55689 16.905L1.32763 15.8779L0.629639 30.4961L1.8589 31.5232L2.55689 16.905Z" fill="#6580E1" fill-opacity="0.6"/>
<path fill-rule="evenodd" clip-rule="evenodd" d="M1.32763 15.8779L1.43756 15.5942L0.739572 30.2124L0.629639 30.496L1.32763 15.8779Z" fill="#6580E1" fill-opacity="0.6"/>
<path fill-rule="evenodd" clip-rule="evenodd" d="M1.43765 15.5942L1.07787 15.1963L0.379883 29.8145L0.739664 30.2124L1.43765 15.5942Z" fill="#6580E1" fill-opacity="0.6"/>
<path fill-rule="evenodd" clip-rule="evenodd" d="M1.07775 15.1965L0.69799 14.0479L0 28.666L0.379759 29.8147L1.07775 15.1965Z" fill="#6580E1" fill-opacity="0.6"/>
<path fill-rule="evenodd" clip-rule="evenodd" d="M0.69799 14.0479L4.53565 15.3462L3.83766 29.9643L0 28.666L0.69799 14.0479Z" fill="#6580E1" fill-opacity="0.6"/>
<path fill-rule="evenodd" clip-rule="evenodd" d="M4.53564 15.3462V15.3462L3.83765 29.9644V29.9644L4.53564 15.3462Z" fill="#6580E1" fill-opacity="0.6"/>
<path d="M4.53566 15.3461L7.94358 14.6557L7.82364 14.2162L8.40329 14.4697L9.26277 14.437L10.0623 15.0303L11.3515 14.2108L13.5502 14.5124L14.2297 14.2093L19.3766 14.0202L21.6152 7.49606L21.4154 5.43132L22.2649 5.47346L22.4947 5.30883L23.5541 5.62231L24.8932 5.336L25.7427 4.77118L26.7521 3.71939L27.0419 3.8359L27.3817 3.67408L27.5117 3.86155L27.9114 3.98086L28.0113 3.84704L29.4005 4.34627L29.6703 4.6055L29.3905 4.63927L29.2306 4.9421L30.0601 5.25654L32.1089 1.36006L32.7784 0.988459L32.5286 0L33.6479 0.335453L32.9383 1.81091L34.4274 1.67165L34.9171 0.613419L35.087 0.979198L36.866 2.02036L36.796 2.55051L37.2457 2.99166L37.1758 3.3377L37.8653 3.78498L38.8348 3.65971L39.0946 3.03205L39.5143 3.57475L39.4244 4.05669L39.6642 4.35607L39.994 4.38493L39.8941 6.25787L40.3738 7.01352L41.2833 7.58917L41.9828 8.48682L42.8323 8.61081L43.5419 7.23084L44.6812 7.65549L45.9304 7.6533L46.4701 6.99189L46.67 7.30391L47.0098 7.14208L47.4295 7.8007L47.0198 8.38358L47.4795 9.2069L47.5794 10.819L47.1097 10.5614L45.7605 10.4724L46.1303 10.5501L46.5201 11.0442L46.4701 11.7591L46.64 12.1044L46.9798 12.1472L46.7599 13.0213L46.0004 13.1383L46.2502 13.8267L47.3296 13.9225L47.3895 13.1193L47.6094 13.1112L47.8193 13.785L48.299 13.7017L48.5388 14.0284L45.8305 13.8706L45.8005 14.1358L46.4801 14.9579L46.7499 15.6468L45.1509 16.5198L45.8505 17.4857L47.5994 18.7989L46.4701 19.9158L46.56 20.1772L47.5694 20.0598V20.6463L49.7181 22.1879L50.2278 22.3374L50.4577 22.1864L52.3165 22.3498L52.7363 22.4082L53.206 23.0954L53.4159 24.3352L53.6857 24.7172L52.6663 25.0458L51.6469 25.163L51.0873 25.5511L51.0673 26.3007L50.0979 27.1967L49.6482 28.4128L48.259 29.1275L45.9104 29.4426L45.9204 30.0635L44.8911 30.8624L42.7524 30.46L42.1727 30.5066L41.8029 29.6924L40.6936 30.3256L38.8547 32.2701L40.8036 33.1654L40.6636 34.4577L41.1334 34.5925L41.6031 35.4229L41.2033 36.3265L41.0834 37.3192L39.7642 37.8857L39.3444 37.6362L39.3844 37.3031L38.9347 37.3666L38.7348 37.8185L39.3145 39.4087L42.8323 39.8736L41.3732 41.2754L41.0534 41.8878L41.2933 42.4805L40.3738 42.8729L39.8941 43.9656L40.5237 44.2817L41.3632 44.1804L42.7124 44.74L43.8317 45.5393L44.1315 47.5793L44.5812 48.832L44.2914 49.4043L41.9828 50.4843L40.9335 50.6621L38.3351 49.2589L35.3269 49.6596L34.7073 48.2866L32.9084 48.4316L32.1089 49.1545L30.3399 49.3481L29.3206 49.3766L28.531 48.9063L27.7015 49.3625L27.1419 50.0643L26.1225 49.9837L26.1325 50.5364L25.0831 50.5914L24.9732 50.8887L22.085 49.3691L22.2649 48.6303L21.945 47.5923L20.6259 45.3763L19.3866 45.2287L17.6477 47.1007L15.7188 46.7241L15.0393 47.0886L14.5695 45.9309L12.5608 44.7065L12.141 43.059L11.8012 43.0776L11.5314 43.3094L11.4015 44.029L8.94297 44.1094L8.82304 43.7721L8.37331 43.7403L7.96357 42.966L8.36333 41.9259L8.95296 41.9068L8.46326 39.4869L6.96418 39.0394L5.72493 38.9532L6.24462 37.5138L6.70433 37.239L7.35394 36.3486L7.06412 36.2252L7.20402 35.8878L6.32456 35.9404L6.28459 35.6734L6.85425 35.2992L6.93419 34.9125L6.70433 34.8862L6.30458 34.385L7.30397 33.5444L10.3021 33.0139L10.8518 32.5574L11.8012 32.4589L12.3709 31.1913L13.7301 30.1689L13.2603 29.9523L13.0505 29.5718L14.0898 28.8959L13.4902 28.0077L13.79 27.5516L13.6201 27.1312L13.0205 26.9386L12.6707 26.3977L11.8512 25.8721L11.9012 25.0754L11.2616 25.0454L8.85303 24.336L6.38453 24.6413L5.85485 22.6977L5.06534 23.2162L4.50568 23.3589L3.84607 22.66L3.20646 22.9982L3.01657 22.9525L2.61683 21.0532L1.85729 19.6698L2.35699 18.2299L2.03718 17.9558L2.55686 16.9051L1.3276 15.878L1.43754 15.5944L1.07776 15.1964L0.697998 14.0478L4.53566 15.3461Z" fill="white"/>
</svg>
