<svg width="71" height="99" viewBox="0 0 71 99" fill="none" xmlns="http://www.w3.org/2000/svg">
<path fill-rule="evenodd" clip-rule="evenodd" d="M62.1371 10.8599L61.7214 11.1199V31.1199L62.1371 30.8599V10.8599Z" fill="#6580E1" fill-opacity="0.6"/>
<path fill-rule="evenodd" clip-rule="evenodd" d="M61.7214 11.1199L61.8773 12.0399V32.0399L61.7214 31.1199V11.1199Z" fill="#6580E1" fill-opacity="0.6"/>
<path fill-rule="evenodd" clip-rule="evenodd" d="M61.8774 12.0398L62.7175 12.8148V32.8148L61.8774 32.0398V12.0398Z" fill="#6580E1" fill-opacity="0.6"/>
<path fill-rule="evenodd" clip-rule="evenodd" d="M62.7175 12.8149L63.1246 14.8299V34.8299L62.7175 32.8149V12.8149Z" fill="#6580E1" fill-opacity="0.6"/>
<path fill-rule="evenodd" clip-rule="evenodd" d="M63.1245 14.8298L64.259 15.8848V35.8848L63.1245 34.8298V14.8298Z" fill="#6580E1" fill-opacity="0.6"/>
<path fill-rule="evenodd" clip-rule="evenodd" d="M64.2589 15.885L64.2502 17.66V37.66L64.2589 35.885V15.885Z" fill="#6580E1" fill-opacity="0.6"/>
<path fill-rule="evenodd" clip-rule="evenodd" d="M64.2502 17.6599L64.4841 19.1749V39.1749L64.2502 37.6599V17.6599Z" fill="#6580E1" fill-opacity="0.6"/>
<path fill-rule="evenodd" clip-rule="evenodd" d="M64.4841 19.1748L64.8738 19.4198V39.4198L64.4841 39.1748V19.1748Z" fill="#6580E1" fill-opacity="0.6"/>
<path fill-rule="evenodd" clip-rule="evenodd" d="M64.8738 19.4199L64.9084 20.6199V40.6199L64.8738 39.4199V19.4199Z" fill="#6580E1" fill-opacity="0.6"/>
<path fill-rule="evenodd" clip-rule="evenodd" d="M64.9086 20.6199L64.822 20.9999V40.9999L64.9086 40.6199V20.6199Z" fill="#6580E1" fill-opacity="0.6"/>
<path fill-rule="evenodd" clip-rule="evenodd" d="M64.8218 21L64.051 21.685V41.685L64.8218 41V21Z" fill="#6580E1" fill-opacity="0.6"/>
<path fill-rule="evenodd" clip-rule="evenodd" d="M64.0511 21.6848L62.4316 22.6698V42.6698L64.0511 41.6848V21.6848Z" fill="#6580E1" fill-opacity="0.6"/>
<path fill-rule="evenodd" clip-rule="evenodd" d="M62.4316 22.6699L64.3456 23.6149V43.6149L62.4316 42.6699V22.6699Z" fill="#6580E1" fill-opacity="0.6"/>
<path fill-rule="evenodd" clip-rule="evenodd" d="M64.3457 23.615L65.9045 30.265V50.265L64.3457 43.615V23.615Z" fill="#6580E1" fill-opacity="0.6"/>
<path fill-rule="evenodd" clip-rule="evenodd" d="M65.9045 30.2649L67.5153 33.0049V53.0049L65.9045 50.2649V30.2649Z" fill="#6580E1" fill-opacity="0.6"/>
<path fill-rule="evenodd" clip-rule="evenodd" d="M67.5151 33.0049L67.7576 33.9449V53.9449L67.5151 53.0049V33.0049Z" fill="#6580E1" fill-opacity="0.6"/>
<path fill-rule="evenodd" clip-rule="evenodd" d="M67.7578 33.9448L68.1562 34.1048V54.1048L67.7578 53.9448V33.9448Z" fill="#6580E1" fill-opacity="0.6"/>
<path fill-rule="evenodd" clip-rule="evenodd" d="M68.1562 34.105L67.7405 35.275V55.275L68.1562 54.105V34.105Z" fill="#6580E1" fill-opacity="0.6"/>
<path fill-rule="evenodd" clip-rule="evenodd" d="M67.7405 35.2749L67.8357 36.5599V56.5599L67.7405 55.2749V35.2749Z" fill="#6580E1" fill-opacity="0.6"/>
<path fill-rule="evenodd" clip-rule="evenodd" d="M67.8356 36.5598L66.5798 41.1448V61.1448L67.8356 56.5598V36.5598Z" fill="#6580E1" fill-opacity="0.6"/>
<path fill-rule="evenodd" clip-rule="evenodd" d="M66.5798 41.145L67.0042 42.62V62.62L66.5798 61.145V41.145Z" fill="#6580E1" fill-opacity="0.6"/>
<path fill-rule="evenodd" clip-rule="evenodd" d="M67.0043 42.6199L66.2942 43.5999V63.5999L67.0043 62.6199V42.6199Z" fill="#6580E1" fill-opacity="0.6"/>
<path fill-rule="evenodd" clip-rule="evenodd" d="M66.2942 43.5999L65.5581 44.1349V64.1349L66.2942 63.5999V43.5999Z" fill="#6580E1" fill-opacity="0.6"/>
<path fill-rule="evenodd" clip-rule="evenodd" d="M65.5581 44.135L65.6534 44.6V64.6L65.5581 64.135V44.135Z" fill="#6580E1" fill-opacity="0.6"/>
<path fill-rule="evenodd" clip-rule="evenodd" d="M65.6533 44.5999L65.0298 45.8699V65.8699L65.6533 64.5999V44.5999Z" fill="#6580E1" fill-opacity="0.6"/>
<path fill-rule="evenodd" clip-rule="evenodd" d="M65.0298 45.8699L66.1903 47.0099V67.0099L65.0298 65.8699V45.8699Z" fill="#6580E1" fill-opacity="0.6"/>
<path fill-rule="evenodd" clip-rule="evenodd" d="M66.1902 47.01L66.4413 50.035V70.035L66.1902 67.01V47.01Z" fill="#6580E1" fill-opacity="0.6"/>
<path fill-rule="evenodd" clip-rule="evenodd" d="M66.4414 50.0349L69.2387 52.6599V72.6599L66.4414 70.0349V50.0349Z" fill="#6580E1" fill-opacity="0.6"/>
<path fill-rule="evenodd" clip-rule="evenodd" d="M69.2385 52.6599L70.1912 54.1799V74.1799L69.2385 72.6599V52.6599Z" fill="#6580E1" fill-opacity="0.6"/>
<path fill-rule="evenodd" clip-rule="evenodd" d="M70.1913 54.1799L68.7363 54.6099V74.6099L70.1913 74.1799V54.1799Z" fill="#6580E1" fill-opacity="0.6"/>
<path fill-rule="evenodd" clip-rule="evenodd" d="M68.7364 54.6099L67.7751 55.3949V75.3949L68.7364 74.6099V54.6099Z" fill="#6580E1" fill-opacity="0.6"/>
<path fill-rule="evenodd" clip-rule="evenodd" d="M67.775 55.395L66.6492 55.795V75.795L67.775 75.395V55.395Z" fill="#6580E1" fill-opacity="0.6"/>
<path fill-rule="evenodd" clip-rule="evenodd" d="M66.6493 55.7949L66.4761 56.0449V76.0449L66.6493 75.7949V55.7949Z" fill="#6580E1" fill-opacity="0.6"/>
<path fill-rule="evenodd" clip-rule="evenodd" d="M66.4761 56.0449L66.1816 56.0149V76.0149L66.4761 76.0449V56.0449Z" fill="#6580E1" fill-opacity="0.6"/>
<path fill-rule="evenodd" clip-rule="evenodd" d="M66.1816 56.0149L66.7532 57.7049V77.7049L66.1816 76.0149V56.0149Z" fill="#6580E1" fill-opacity="0.6"/>
<path fill-rule="evenodd" clip-rule="evenodd" d="M66.7532 57.7048L66.4241 58.1248V78.1248L66.7532 77.7048V57.7048Z" fill="#6580E1" fill-opacity="0.6"/>
<path fill-rule="evenodd" clip-rule="evenodd" d="M66.4241 58.125L66.7445 62.33V82.33L66.4241 78.125V58.125Z" fill="#6580E1" fill-opacity="0.6"/>
<path fill-rule="evenodd" clip-rule="evenodd" d="M66.7444 62.3298L66.2507 62.4248V82.4248L66.7444 82.3298V62.3298Z" fill="#6580E1" fill-opacity="0.6"/>
<path fill-rule="evenodd" clip-rule="evenodd" d="M66.2507 62.4248L66.8396 63.2048V83.2048L66.2507 82.4248V62.4248Z" fill="#6580E1" fill-opacity="0.6"/>
<path fill-rule="evenodd" clip-rule="evenodd" d="M66.8398 63.2048L67.6019 66.5648V86.5648L66.8398 83.2048V63.2048Z" fill="#6580E1" fill-opacity="0.6"/>
<path fill-rule="evenodd" clip-rule="evenodd" d="M67.6017 66.5649L66.5625 67.4949V87.4949L67.6017 86.5649V66.5649Z" fill="#6580E1" fill-opacity="0.6"/>
<path fill-rule="evenodd" clip-rule="evenodd" d="M66.5625 67.4949L67.6624 69.2999V89.2999L66.5625 87.4949V67.4949Z" fill="#6580E1" fill-opacity="0.6"/>
<path fill-rule="evenodd" clip-rule="evenodd" d="M67.6624 69.2998L67.7749 73.9248V93.9248L67.6624 89.2998V69.2998Z" fill="#6580E1" fill-opacity="0.6"/>
<path fill-rule="evenodd" clip-rule="evenodd" d="M67.775 73.9248L66.8311 74.6098V94.6098L67.775 93.9248V73.9248Z" fill="#6580E1" fill-opacity="0.6"/>
<path fill-rule="evenodd" clip-rule="evenodd" d="M66.8312 74.6099L66.3289 74.1799V94.1799L66.8312 94.6099V74.6099Z" fill="#6580E1" fill-opacity="0.6"/>
<path fill-rule="evenodd" clip-rule="evenodd" d="M66.3289 74.18L65.74 74V94L66.3289 94.18V74.18Z" fill="#6580E1" fill-opacity="0.6"/>
<path fill-rule="evenodd" clip-rule="evenodd" d="M65.7398 74L63.6614 74.45V94.45L65.7398 94V74Z" fill="#6580E1" fill-opacity="0.6"/>
<path fill-rule="evenodd" clip-rule="evenodd" d="M63.6614 74.4498L60.2839 73.7898V93.7898L63.6614 94.4498V74.4498Z" fill="#6580E1" fill-opacity="0.6"/>
<path fill-rule="evenodd" clip-rule="evenodd" d="M60.284 73.7899L58.3875 73.0549V93.0549L60.284 93.7899V73.7899Z" fill="#6580E1" fill-opacity="0.6"/>
<path fill-rule="evenodd" clip-rule="evenodd" d="M58.3873 73.0549L57.2441 73.6949V93.6949L58.3873 93.0549V73.0549Z" fill="#6580E1" fill-opacity="0.6"/>
<path fill-rule="evenodd" clip-rule="evenodd" d="M57.2442 73.6948L56.5774 73.8398V93.8398L57.2442 93.6948V73.6948Z" fill="#6580E1" fill-opacity="0.6"/>
<path fill-rule="evenodd" clip-rule="evenodd" d="M56.5774 73.8398L56.612 74.4898V94.4898L56.5774 93.8398V73.8398Z" fill="#6580E1" fill-opacity="0.6"/>
<path fill-rule="evenodd" clip-rule="evenodd" d="M56.6121 74.49L55.3823 75.05V95.05L56.6121 94.49V74.49Z" fill="#6580E1" fill-opacity="0.6"/>
<path fill-rule="evenodd" clip-rule="evenodd" d="M55.3823 75.05L53.2173 74.52V94.52L55.3823 95.05V75.05Z" fill="#6580E1" fill-opacity="0.6"/>
<path fill-rule="evenodd" clip-rule="evenodd" d="M53.2172 74.5199L52.8967 74.2249V94.2249L53.2172 94.5199V74.5199Z" fill="#6580E1" fill-opacity="0.6"/>
<path fill-rule="evenodd" clip-rule="evenodd" d="M52.8968 74.2249L51.5371 74.5899V94.5899L52.8968 94.2249V74.2249Z" fill="#6580E1" fill-opacity="0.6"/>
<path fill-rule="evenodd" clip-rule="evenodd" d="M51.537 74.5898L49.4585 75.5598V95.5598L51.537 94.5898V74.5898Z" fill="#6580E1" fill-opacity="0.6"/>
<path fill-rule="evenodd" clip-rule="evenodd" d="M49.4586 75.5598L48.1509 76.8048V96.8048L49.4586 95.5598V75.5598Z" fill="#6580E1" fill-opacity="0.6"/>
<path fill-rule="evenodd" clip-rule="evenodd" d="M48.1509 76.8049L46.9038 77.4449V97.4449L48.1509 96.8049V76.8049Z" fill="#6580E1" fill-opacity="0.6"/>
<path fill-rule="evenodd" clip-rule="evenodd" d="M46.9038 77.4448L44.1931 77.5598V97.5598L46.9038 97.4448V77.4448Z" fill="#6580E1" fill-opacity="0.6"/>
<path fill-rule="evenodd" clip-rule="evenodd" d="M44.1931 77.5598L38.6592 76.9448V96.9448L44.1931 97.5598V77.5598Z" fill="#6580E1" fill-opacity="0.6"/>
<path fill-rule="evenodd" clip-rule="evenodd" d="M38.6593 76.9448L35.9573 77.5848V97.5848L38.6593 96.9448V76.9448Z" fill="#6580E1" fill-opacity="0.6"/>
<path fill-rule="evenodd" clip-rule="evenodd" d="M35.9572 77.585L32.9521 78.64V98.64L35.9572 97.585V77.585Z" fill="#6580E1" fill-opacity="0.6"/>
<path fill-rule="evenodd" clip-rule="evenodd" d="M32.9521 78.64L28.0591 78.355V98.355L32.9521 98.64V78.64Z" fill="#6580E1" fill-opacity="0.6"/>
<path fill-rule="evenodd" clip-rule="evenodd" d="M28.0592 78.3548L27.0027 78.1848V98.1848L28.0592 98.3548V78.3548Z" fill="#6580E1" fill-opacity="0.6"/>
<path fill-rule="evenodd" clip-rule="evenodd" d="M27.0027 78.1848L27.02 77.9148V97.9148L27.0027 98.1848V78.1848Z" fill="#6580E1" fill-opacity="0.6"/>
<path fill-rule="evenodd" clip-rule="evenodd" d="M27.02 77.9148L28.4403 78.0348V98.0348L27.02 97.9148V77.9148Z" fill="#6580E1" fill-opacity="0.6"/>
<path fill-rule="evenodd" clip-rule="evenodd" d="M28.4402 78.0348L29.3235 77.6848V97.6848L28.4402 98.0348V78.0348Z" fill="#6580E1" fill-opacity="0.6"/>
<path fill-rule="evenodd" clip-rule="evenodd" d="M29.3235 77.685L30.2761 76.085V96.085L29.3235 97.685V77.685Z" fill="#6580E1" fill-opacity="0.6"/>
<path fill-rule="evenodd" clip-rule="evenodd" d="M30.2762 76.0848L29.8086 75.9648V95.9648L30.2762 96.0848V76.0848Z" fill="#6580E1" fill-opacity="0.6"/>
<path fill-rule="evenodd" clip-rule="evenodd" d="M29.8085 75.9648L29.488 76.2298V96.2298L29.8085 95.9648V75.9648Z" fill="#6580E1" fill-opacity="0.6"/>
<path fill-rule="evenodd" clip-rule="evenodd" d="M29.4881 76.2299L28.9512 76.1299V96.1299L29.4881 96.2299V76.2299Z" fill="#6580E1" fill-opacity="0.6"/>
<path fill-rule="evenodd" clip-rule="evenodd" d="M28.9512 76.1298L28.2151 75.7249V95.7249L28.9512 96.1298V76.1298Z" fill="#6580E1" fill-opacity="0.6"/>
<path fill-rule="evenodd" clip-rule="evenodd" d="M28.215 75.725L26.8467 75.345V95.345L28.215 95.725V75.725Z" fill="#6580E1" fill-opacity="0.6"/>
<path fill-rule="evenodd" clip-rule="evenodd" d="M26.8468 75.345L26.509 75.56V95.56L26.8468 95.345V75.345Z" fill="#6580E1" fill-opacity="0.6"/>
<path fill-rule="evenodd" clip-rule="evenodd" d="M26.5088 75.5598L26.4136 76.2548V96.2548L26.5088 95.5598V75.5598Z" fill="#6580E1" fill-opacity="0.6"/>
<path fill-rule="evenodd" clip-rule="evenodd" d="M26.4136 76.2549L24.8374 76.3449V96.3449L26.4136 96.2549V76.2549Z" fill="#6580E1" fill-opacity="0.6"/>
<path fill-rule="evenodd" clip-rule="evenodd" d="M24.8375 76.3448L24.3352 75.4648V95.4648L24.8375 96.3448V76.3448Z" fill="#6580E1" fill-opacity="0.6"/>
<path fill-rule="evenodd" clip-rule="evenodd" d="M24.3351 75.465L22.8369 75.01V95.01L24.3351 95.465V75.465Z" fill="#6580E1" fill-opacity="0.6"/>
<path fill-rule="evenodd" clip-rule="evenodd" d="M22.8369 75.0099L21.7197 74.2949V94.2949L22.8369 95.0099V75.0099Z" fill="#6580E1" fill-opacity="0.6"/>
<path fill-rule="evenodd" clip-rule="evenodd" d="M21.7197 74.2948L21.7024 73.1948V93.1948L21.7197 94.2948V74.2948Z" fill="#6580E1" fill-opacity="0.6"/>
<path fill-rule="evenodd" clip-rule="evenodd" d="M21.7024 73.195L22.8022 72.24V92.24L21.7024 93.195V73.195Z" fill="#6580E1" fill-opacity="0.6"/>
<path fill-rule="evenodd" clip-rule="evenodd" d="M22.8023 72.24L22.3779 72.345V92.345L22.8023 92.24V72.24Z" fill="#6580E1" fill-opacity="0.6"/>
<path fill-rule="evenodd" clip-rule="evenodd" d="M22.3779 72.3448L22.0488 72.1848V92.1848L22.3779 92.3448V72.3448Z" fill="#6580E1" fill-opacity="0.6"/>
<path fill-rule="evenodd" clip-rule="evenodd" d="M22.0489 72.1848L21.1482 72.2148V92.2148L22.0489 92.1848V72.1848Z" fill="#6580E1" fill-opacity="0.6"/>
<path fill-rule="evenodd" clip-rule="evenodd" d="M21.1482 72.2148L21.053 72.6298V92.6298L21.1482 92.2148V72.2148Z" fill="#6580E1" fill-opacity="0.6"/>
<path fill-rule="evenodd" clip-rule="evenodd" d="M21.0531 72.63L20.4036 72.605V92.605L21.0531 92.63V72.63Z" fill="#6580E1" fill-opacity="0.6"/>
<path fill-rule="evenodd" clip-rule="evenodd" d="M20.4034 72.6048L20.3081 72.2898V92.2898L20.4034 92.6048V72.6048Z" fill="#6580E1" fill-opacity="0.6"/>
<path fill-rule="evenodd" clip-rule="evenodd" d="M20.3081 72.2899L19.8145 71.9749V91.9749L20.3081 92.2899V72.2899Z" fill="#6580E1" fill-opacity="0.6"/>
<path fill-rule="evenodd" clip-rule="evenodd" d="M19.8147 71.975L19.4683 70.835V90.835L19.8147 91.975V71.975Z" fill="#6580E1" fill-opacity="0.6"/>
<path fill-rule="evenodd" clip-rule="evenodd" d="M19.4682 70.8348L17.9873 70.2698V90.2698L19.4682 90.8348V70.8348Z" fill="#6580E1" fill-opacity="0.6"/>
<path fill-rule="evenodd" clip-rule="evenodd" d="M17.9873 70.2699L18.377 69.7349V89.7349L17.9873 90.2699V70.2699Z" fill="#6580E1" fill-opacity="0.6"/>
<path fill-rule="evenodd" clip-rule="evenodd" d="M18.377 69.735L19.5894 69.095V89.095L18.377 89.735V69.735Z" fill="#6580E1" fill-opacity="0.6"/>
<path fill-rule="evenodd" clip-rule="evenodd" d="M19.5894 69.0949L19.8838 68.2349V88.2349L19.5894 89.0949V69.0949Z" fill="#6580E1" fill-opacity="0.6"/>
<path fill-rule="evenodd" clip-rule="evenodd" d="M19.8838 68.2349L20.7065 68.2799V88.2799L19.8838 88.2349V68.2349Z" fill="#6580E1" fill-opacity="0.6"/>
<path fill-rule="evenodd" clip-rule="evenodd" d="M20.7065 68.2798L21.5206 67.5498V87.5498L20.7065 88.2798V68.2798Z" fill="#6580E1" fill-opacity="0.6"/>
<path fill-rule="evenodd" clip-rule="evenodd" d="M21.5207 67.55L21.4167 67.23V87.23L21.5207 87.55V67.55Z" fill="#6580E1" fill-opacity="0.6"/>
<path fill-rule="evenodd" clip-rule="evenodd" d="M21.4166 67.2299L20.438 66.7549V86.7549L21.4166 87.2299V67.2299Z" fill="#6580E1" fill-opacity="0.6"/>
<path fill-rule="evenodd" clip-rule="evenodd" d="M20.438 66.7548L20.8104 66.0698V86.0698L20.438 86.7548V66.7548Z" fill="#6580E1" fill-opacity="0.6"/>
<path fill-rule="evenodd" clip-rule="evenodd" d="M20.8104 66.0699L20.1609 65.7649V85.7649L20.8104 86.0699V66.0699Z" fill="#6580E1" fill-opacity="0.6"/>
<path fill-rule="evenodd" clip-rule="evenodd" d="M20.1609 65.7649L19.6067 66.2549V86.2549L20.1609 85.7649V65.7649Z" fill="#6580E1" fill-opacity="0.6"/>
<path fill-rule="evenodd" clip-rule="evenodd" d="M19.6067 66.2549L17.866 66.3199V86.3199L19.6067 86.2549V66.2549Z" fill="#6580E1" fill-opacity="0.6"/>
<path fill-rule="evenodd" clip-rule="evenodd" d="M17.866 66.32L17.2598 66.21V86.21L17.866 86.32V66.32Z" fill="#6580E1" fill-opacity="0.6"/>
<path fill-rule="evenodd" clip-rule="evenodd" d="M17.2599 66.21L16.9568 65.845V85.845L17.2599 86.21V66.21Z" fill="#6580E1" fill-opacity="0.6"/>
<path fill-rule="evenodd" clip-rule="evenodd" d="M16.9568 65.8449L17.1387 65.1899V85.1899L16.9568 85.8449V65.8449Z" fill="#6580E1" fill-opacity="0.6"/>
<path fill-rule="evenodd" clip-rule="evenodd" d="M17.1384 65.1898L14.4971 64.9548V84.9548L17.1384 85.1898V65.1898Z" fill="#6580E1" fill-opacity="0.6"/>
<path fill-rule="evenodd" clip-rule="evenodd" d="M14.4972 64.955L12.4707 64.325V84.325L14.4972 84.955V64.955Z" fill="#6580E1" fill-opacity="0.6"/>
<path fill-rule="evenodd" clip-rule="evenodd" d="M12.4706 64.325L12.4014 64.565V84.565L12.4706 84.325V64.325Z" fill="#6580E1" fill-opacity="0.6"/>
<path fill-rule="evenodd" clip-rule="evenodd" d="M12.4014 64.5648L11.9771 64.5498V84.5498L12.4014 84.5648V64.5648Z" fill="#6580E1" fill-opacity="0.6"/>
<path fill-rule="evenodd" clip-rule="evenodd" d="M11.977 64.5498L10.5654 64.9948V84.9948L11.977 84.5498V64.5498Z" fill="#6580E1" fill-opacity="0.6"/>
<path fill-rule="evenodd" clip-rule="evenodd" d="M10.5654 64.9948L9.54346 64.9148V84.9148L10.5654 84.9948V64.9948Z" fill="#6580E1" fill-opacity="0.6"/>
<path fill-rule="evenodd" clip-rule="evenodd" d="M9.54346 64.9148L10.7126 64.2998V84.2998L9.54346 84.9148V64.9148Z" fill="#6580E1" fill-opacity="0.6"/>
<path fill-rule="evenodd" clip-rule="evenodd" d="M10.7125 64.3L10.2622 63.97V83.97L10.7125 84.3V64.3Z" fill="#6580E1" fill-opacity="0.6"/>
<path fill-rule="evenodd" clip-rule="evenodd" d="M10.2623 63.97L8.49561 64.52V84.52L10.2623 83.97V63.97Z" fill="#6580E1" fill-opacity="0.6"/>
<path fill-rule="evenodd" clip-rule="evenodd" d="M8.49572 64.5198L7.86353 64.9848V84.9848L8.49572 84.5198V64.5198Z" fill="#6580E1" fill-opacity="0.6"/>
<path fill-rule="evenodd" clip-rule="evenodd" d="M7.86341 64.9849L7.70752 65.3849V85.3849L7.86341 84.9849V64.9849Z" fill="#6580E1" fill-opacity="0.6"/>
<path fill-rule="evenodd" clip-rule="evenodd" d="M7.70754 65.385L6.78955 65.715V85.715L7.70754 85.385V65.385Z" fill="#6580E1" fill-opacity="0.6"/>
<path fill-rule="evenodd" clip-rule="evenodd" d="M6.78955 65.7148L7.30051 66.1298V86.1298L6.78955 85.7148V65.7148Z" fill="#6580E1" fill-opacity="0.6"/>
<path fill-rule="evenodd" clip-rule="evenodd" d="M7.30045 66.1299L4.83228 66.5949V86.5949L7.30045 86.1299V66.1299Z" fill="#6580E1" fill-opacity="0.6"/>
<path fill-rule="evenodd" clip-rule="evenodd" d="M4.83224 66.595L2.41602 66.72V86.72L4.83224 86.595V66.595Z" fill="#6580E1" fill-opacity="0.6"/>
<path fill-rule="evenodd" clip-rule="evenodd" d="M2.41608 66.72L1.87915 67.01V87.01L2.41608 86.72V66.72Z" fill="#6580E1" fill-opacity="0.6"/>
<path fill-rule="evenodd" clip-rule="evenodd" d="M1.87929 67.01L1.57617 67.645V87.645L1.87929 87.01V67.01Z" fill="#6580E1" fill-opacity="0.6"/>
<path fill-rule="evenodd" clip-rule="evenodd" d="M1.57603 67.645L0.450195 68.135V88.135L1.57603 87.645V67.645Z" fill="#6580E1" fill-opacity="0.6"/>
<path fill-rule="evenodd" clip-rule="evenodd" d="M0.450137 68.1348L0.0690918 67.7048V87.7048L0.450137 88.1348V68.1348Z" fill="#6580E1" fill-opacity="0.6"/>
<path fill-rule="evenodd" clip-rule="evenodd" d="M0.0690918 67.7049L0.536739 66.7749V86.7749L0.0690918 87.7049V67.7049Z" fill="#6580E1" fill-opacity="0.6"/>
<path fill-rule="evenodd" clip-rule="evenodd" d="M0.536927 66.7749L0 65.7849V85.7849L0.536927 86.7749V66.7749Z" fill="#6580E1" fill-opacity="0.6"/>
<path fill-rule="evenodd" clip-rule="evenodd" d="M0 65.7848L1.03056 65.5598V85.5598L0 85.7848V65.7848Z" fill="#6580E1" fill-opacity="0.6"/>
<path fill-rule="evenodd" clip-rule="evenodd" d="M1.03052 65.5599L1.75798 65.1199V85.1199L1.03052 85.5599V65.5599Z" fill="#6580E1" fill-opacity="0.6"/>
<path fill-rule="evenodd" clip-rule="evenodd" d="M1.75806 65.1199L2.90122 65.1999V85.1999L1.75806 85.1199V65.1199Z" fill="#6580E1" fill-opacity="0.6"/>
<path fill-rule="evenodd" clip-rule="evenodd" d="M2.90112 65.2L3.40342 64.99V84.99L2.90112 85.2V65.2Z" fill="#6580E1" fill-opacity="0.6"/>
<path fill-rule="evenodd" clip-rule="evenodd" d="M3.40332 64.99L3.61983 64.615V84.615L3.40332 84.99V64.99Z" fill="#6580E1" fill-opacity="0.6"/>
<path fill-rule="evenodd" clip-rule="evenodd" d="M3.61987 64.6148L4.08752 64.4348V84.4348L3.61987 84.6148V64.6148Z" fill="#6580E1" fill-opacity="0.6"/>
<path fill-rule="evenodd" clip-rule="evenodd" d="M4.08749 64.4349L3.73242 64.1499V84.1499L4.08749 84.4349V64.4349Z" fill="#6580E1" fill-opacity="0.6"/>
<path fill-rule="evenodd" clip-rule="evenodd" d="M3.73242 64.1498L3.96626 63.9548V83.9548L3.73242 84.1498V64.1498Z" fill="#6580E1" fill-opacity="0.6"/>
<path fill-rule="evenodd" clip-rule="evenodd" d="M3.96626 63.9548L3.27344 63.4248V83.4248L3.96626 83.9548V63.9548Z" fill="#6580E1" fill-opacity="0.6"/>
<path fill-rule="evenodd" clip-rule="evenodd" d="M3.27356 63.4249L3.11768 62.9749V82.9749L3.27356 83.4249V63.4249Z" fill="#6580E1" fill-opacity="0.6"/>
<path fill-rule="evenodd" clip-rule="evenodd" d="M3.11768 62.9749L5.73306 61.2649V81.2649L3.11768 82.9749V62.9749Z" fill="#6580E1" fill-opacity="0.6"/>
<path fill-rule="evenodd" clip-rule="evenodd" d="M5.73291 61.2648L6.54697 61.1548V81.1548L5.73291 81.2648V61.2648Z" fill="#6580E1" fill-opacity="0.6"/>
<path fill-rule="evenodd" clip-rule="evenodd" d="M6.54712 61.1548L6.84157 60.6848V80.6848L6.54712 81.1548V61.1548Z" fill="#6580E1" fill-opacity="0.6"/>
<path fill-rule="evenodd" clip-rule="evenodd" d="M6.84155 60.685L8.86805 59.875V79.875L6.84155 80.685V60.685Z" fill="#6580E1" fill-opacity="0.6"/>
<path fill-rule="evenodd" clip-rule="evenodd" d="M8.86792 59.8748L11.5959 59.3398V79.3398L8.86792 79.8748V59.8748Z" fill="#6580E1" fill-opacity="0.6"/>
<path fill-rule="evenodd" clip-rule="evenodd" d="M11.5959 59.3399L12.6265 58.8049V78.8049L11.5959 79.3399V59.3399Z" fill="#6580E1" fill-opacity="0.6"/>
<path fill-rule="evenodd" clip-rule="evenodd" d="M12.6265 58.8049L14.9041 58.4399V78.4399L12.6265 78.8049V58.8049Z" fill="#6580E1" fill-opacity="0.6"/>
<path fill-rule="evenodd" clip-rule="evenodd" d="M14.9043 58.4398L15.9435 58.0298V78.0298L14.9043 78.4398V58.4398Z" fill="#6580E1" fill-opacity="0.6"/>
<path fill-rule="evenodd" clip-rule="evenodd" d="M15.9434 58.03L17.0346 58.02V78.02L15.9434 78.03V58.03Z" fill="#6580E1" fill-opacity="0.6"/>
<path fill-rule="evenodd" clip-rule="evenodd" d="M17.0347 58.0198L19.7626 56.4248V76.4248L17.0347 78.0198V58.0198Z" fill="#6580E1" fill-opacity="0.6"/>
<path fill-rule="evenodd" clip-rule="evenodd" d="M19.7627 56.4248L21.131 54.6848V74.6848L19.7627 76.4248V56.4248Z" fill="#6580E1" fill-opacity="0.6"/>
<path fill-rule="evenodd" clip-rule="evenodd" d="M21.1309 54.6849L25.054 53.6699V73.6699L21.1309 74.6849V54.6849Z" fill="#6580E1" fill-opacity="0.6"/>
<path fill-rule="evenodd" clip-rule="evenodd" d="M25.054 53.67L27.1671 52.51V72.51L25.054 73.67V53.67Z" fill="#6580E1" fill-opacity="0.6"/>
<path fill-rule="evenodd" clip-rule="evenodd" d="M27.1672 52.5099L30.5014 50.2749V70.2749L27.1672 72.5099V52.5099Z" fill="#6580E1" fill-opacity="0.6"/>
<path fill-rule="evenodd" clip-rule="evenodd" d="M30.5012 50.275L34.4849 46.325V66.325L30.5012 70.275V50.275Z" fill="#6580E1" fill-opacity="0.6"/>
<path fill-rule="evenodd" clip-rule="evenodd" d="M34.4851 46.3248L35.022 46.2048V66.2048L34.4851 66.3248V46.3248Z" fill="#6580E1" fill-opacity="0.6"/>
<path fill-rule="evenodd" clip-rule="evenodd" d="M35.0219 46.205L34.459 46.02V66.02L35.0219 66.205V46.205Z" fill="#6580E1" fill-opacity="0.6"/>
<path fill-rule="evenodd" clip-rule="evenodd" d="M34.459 46.0198L34.8227 45.8298V65.8298L34.459 66.0198V46.0198Z" fill="#6580E1" fill-opacity="0.6"/>
<path fill-rule="evenodd" clip-rule="evenodd" d="M34.8228 45.8298L34.7449 45.4148V65.4148L34.8228 65.8298V45.8298Z" fill="#6580E1" fill-opacity="0.6"/>
<path fill-rule="evenodd" clip-rule="evenodd" d="M34.7448 45.415L33.9048 44.2V64.2L34.7448 65.415V45.415Z" fill="#6580E1" fill-opacity="0.6"/>
<path fill-rule="evenodd" clip-rule="evenodd" d="M33.9048 44.1999L34.8228 43.6899V63.6899L33.9048 64.1999V44.1999Z" fill="#6580E1" fill-opacity="0.6"/>
<path fill-rule="evenodd" clip-rule="evenodd" d="M34.8227 43.69L34 43.125V63.125L34.8227 63.69V43.69Z" fill="#6580E1" fill-opacity="0.6"/>
<path fill-rule="evenodd" clip-rule="evenodd" d="M34 43.1248L34.8141 40.9448V60.9448L34 63.1248V43.1248Z" fill="#6580E1" fill-opacity="0.6"/>
<path fill-rule="evenodd" clip-rule="evenodd" d="M34.8141 40.9448L32.9348 40.0598V60.0598L34.8141 60.9448V40.9448Z" fill="#6580E1" fill-opacity="0.6"/>
<path fill-rule="evenodd" clip-rule="evenodd" d="M32.9348 40.0599L32.0342 38.8599V58.8599L32.9348 60.0599V40.0599Z" fill="#6580E1" fill-opacity="0.6"/>
<path fill-rule="evenodd" clip-rule="evenodd" d="M32.0342 38.86L32.3806 38.74V58.74L32.0342 58.86V38.86Z" fill="#6580E1" fill-opacity="0.6"/>
<path fill-rule="evenodd" clip-rule="evenodd" d="M32.3806 38.74L33.3073 38.915V58.915L32.3806 58.74V38.74Z" fill="#6580E1" fill-opacity="0.6"/>
<path fill-rule="evenodd" clip-rule="evenodd" d="M33.3072 38.915L33.2812 38.02V58.02L33.3072 58.915V38.915Z" fill="#6580E1" fill-opacity="0.6"/>
<path fill-rule="evenodd" clip-rule="evenodd" d="M33.2812 38.0199L35.1086 37.9849V57.9849L33.2812 58.0199V38.0199Z" fill="#6580E1" fill-opacity="0.6"/>
<path fill-rule="evenodd" clip-rule="evenodd" d="M35.1086 37.9849L36.2345 38.6349V58.6349L35.1086 57.9849V37.9849Z" fill="#6580E1" fill-opacity="0.6"/>
<path fill-rule="evenodd" clip-rule="evenodd" d="M36.2344 38.6349L37.2909 38.2649V58.2649L36.2344 58.6349V38.6349Z" fill="#6580E1" fill-opacity="0.6"/>
<path fill-rule="evenodd" clip-rule="evenodd" d="M37.291 38.2648L37.8193 37.7998V57.7998L37.291 58.2648V38.2648Z" fill="#6580E1" fill-opacity="0.6"/>
<path fill-rule="evenodd" clip-rule="evenodd" d="M37.8193 37.7998L38.7373 37.8498V57.8498L37.8193 57.7998V37.7998Z" fill="#6580E1" fill-opacity="0.6"/>
<path fill-rule="evenodd" clip-rule="evenodd" d="M38.7373 37.8499L39.9324 36.8599V56.8599L38.7373 57.8499V37.8499Z" fill="#6580E1" fill-opacity="0.6"/>
<path fill-rule="evenodd" clip-rule="evenodd" d="M39.9324 36.8599L40.5213 37.0699V57.0699L39.9324 56.8599V36.8599Z" fill="#6580E1" fill-opacity="0.6"/>
<path fill-rule="evenodd" clip-rule="evenodd" d="M40.5212 37.0699L41.0495 36.5249V56.5249L40.5212 57.0699V37.0699Z" fill="#6580E1" fill-opacity="0.6"/>
<path fill-rule="evenodd" clip-rule="evenodd" d="M41.0496 36.525L40.8071 36.095V56.095L41.0496 56.525V36.525Z" fill="#6580E1" fill-opacity="0.6"/>
<path fill-rule="evenodd" clip-rule="evenodd" d="M40.8071 36.0948L41.3441 35.4348V55.4348L40.8071 56.0948V36.0948Z" fill="#6580E1" fill-opacity="0.6"/>
<path fill-rule="evenodd" clip-rule="evenodd" d="M41.344 35.4348L42.3746 34.8198V54.8198L41.344 55.4348V35.4348Z" fill="#6580E1" fill-opacity="0.6"/>
<path fill-rule="evenodd" clip-rule="evenodd" d="M42.3745 34.82L43.7169 34.365V54.365L42.3745 54.82V34.82Z" fill="#6580E1" fill-opacity="0.6"/>
<path fill-rule="evenodd" clip-rule="evenodd" d="M43.7169 34.3648L42.7903 33.7998V53.7998L43.7169 54.3648V34.3648Z" fill="#6580E1" fill-opacity="0.6"/>
<path fill-rule="evenodd" clip-rule="evenodd" d="M42.7903 33.8L42.8596 33.21V53.21L42.7903 53.8V33.8Z" fill="#6580E1" fill-opacity="0.6"/>
<path fill-rule="evenodd" clip-rule="evenodd" d="M42.8596 33.2099L40.9717 32.1299V52.1299L42.8596 53.2099V33.2099Z" fill="#6580E1" fill-opacity="0.6"/>
<path fill-rule="evenodd" clip-rule="evenodd" d="M40.9717 32.13L41.041 32V52L40.9717 52.13V32.13Z" fill="#6580E1" fill-opacity="0.6"/>
<path fill-rule="evenodd" clip-rule="evenodd" d="M41.0408 32L43.4656 31.2V51.2L41.0408 52V32Z" fill="#6580E1" fill-opacity="0.6"/>
<path fill-rule="evenodd" clip-rule="evenodd" d="M43.4658 31.1998L44.6523 29.6648V49.6648L43.4658 51.1998V31.1998Z" fill="#6580E1" fill-opacity="0.6"/>
<path fill-rule="evenodd" clip-rule="evenodd" d="M44.6521 29.6648L45.3189 29.5598V49.5598L44.6521 49.6648V29.6648Z" fill="#6580E1" fill-opacity="0.6"/>
<path fill-rule="evenodd" clip-rule="evenodd" d="M45.3191 29.5599L47.5361 28.4199V48.4199L45.3191 49.5599V29.5599Z" fill="#6580E1" fill-opacity="0.6"/>
<path fill-rule="evenodd" clip-rule="evenodd" d="M47.5361 28.42L50.7491 24.885V44.885L47.5361 48.42V28.42Z" fill="#6580E1" fill-opacity="0.6"/>
<path fill-rule="evenodd" clip-rule="evenodd" d="M50.749 24.8849L52.0307 24.2549V44.2549L50.749 44.8849V24.8849Z" fill="#6580E1" fill-opacity="0.6"/>
<path fill-rule="evenodd" clip-rule="evenodd" d="M52.0307 24.255L50.749 22.615V42.615L52.0307 44.255V24.255Z" fill="#6580E1" fill-opacity="0.6"/>
<path fill-rule="evenodd" clip-rule="evenodd" d="M50.7489 22.6149L50.4631 18.8699V38.8699L50.7489 42.6149V22.6149Z" fill="#6580E1" fill-opacity="0.6"/>
<path fill-rule="evenodd" clip-rule="evenodd" d="M50.4631 18.8698L50.8442 17.8098V37.8098L50.4631 38.8698V18.8698Z" fill="#6580E1" fill-opacity="0.6"/>
<path fill-rule="evenodd" clip-rule="evenodd" d="M50.8442 17.8098L52.4377 15.5298V35.5298L50.8442 37.8098V17.8098Z" fill="#6580E1" fill-opacity="0.6"/>
<path fill-rule="evenodd" clip-rule="evenodd" d="M52.4377 15.53L52.3337 15.2V35.2L52.4377 35.53V15.53Z" fill="#6580E1" fill-opacity="0.6"/>
<path fill-rule="evenodd" clip-rule="evenodd" d="M52.3339 15.1998L50.7837 13.9448V33.9448L52.3339 35.1998V15.1998Z" fill="#6580E1" fill-opacity="0.6"/>
<path fill-rule="evenodd" clip-rule="evenodd" d="M50.7837 13.9448L57.7898 0.829834V20.8298L50.7837 33.9448V13.9448Z" fill="#6580E1" fill-opacity="0.6"/>
<path fill-rule="evenodd" clip-rule="evenodd" d="M57.7898 0.83001L58.3267 0V20L57.7898 20.83V0.83001Z" fill="#6580E1" fill-opacity="0.6"/>
<path fill-rule="evenodd" clip-rule="evenodd" d="M58.3267 0L59.3659 0.220004V20.22L58.3267 20V0Z" fill="#6580E1" fill-opacity="0.6"/>
<path fill-rule="evenodd" clip-rule="evenodd" d="M59.3661 0.219971L59.3401 2.48497V22.485L59.3661 20.22V0.219971Z" fill="#6580E1" fill-opacity="0.6"/>
<path fill-rule="evenodd" clip-rule="evenodd" d="M59.3401 2.48486L61.5398 4.79487V24.7949L59.3401 22.4849V2.48486Z" fill="#6580E1" fill-opacity="0.6"/>
<path fill-rule="evenodd" clip-rule="evenodd" d="M61.5398 4.79492L61.6697 10.3299V30.3299L61.5398 24.7949V4.79492Z" fill="#6580E1" fill-opacity="0.6"/>
<path fill-rule="evenodd" clip-rule="evenodd" d="M61.6697 10.3298L62.1373 10.8598V30.8598L61.6697 30.3298V10.3298Z" fill="#6580E1" fill-opacity="0.6"/>
<path d="M62.1373 10.86L61.7216 11.12L61.8775 12.04L62.7176 12.815L63.1246 14.83L64.2591 15.885L64.2504 17.66L64.4842 19.175L64.874 19.42L64.9086 20.62L64.822 21L64.0512 21.685L62.4318 22.67L64.3457 23.615L65.9045 30.265L67.5153 33.005L67.7578 33.945L68.1562 34.105L67.7405 35.275L67.8358 36.56L66.58 41.145L67.0044 42.62L66.2942 43.6L65.5581 44.135L65.6534 44.6L65.0298 45.87L66.1903 47.01L66.4415 50.035L69.2387 52.66L70.1914 54.18L68.7364 54.61L67.7751 55.395L66.6493 55.795L66.4761 56.045L66.1817 56.015L66.7532 57.705L66.4241 58.125L66.7446 62.33L66.2509 62.425L66.8398 63.205L67.6019 66.565L66.5627 67.495L67.6626 69.3L67.7751 73.925L66.8312 74.61L66.3289 74.18L65.74 74L63.6615 74.45L60.284 73.79L58.3874 73.055L57.2443 73.695L56.5774 73.84L56.6121 74.49L55.3823 75.05L53.2173 74.52L52.8968 74.225L51.5372 74.59L49.4587 75.56L48.151 76.805L46.9039 77.445L44.1933 77.56L38.6594 76.945L35.9574 77.585L32.9523 78.64L28.0592 78.355L27.0027 78.185L27.02 77.915L28.4403 78.035L29.3236 77.685L30.2762 76.085L29.8086 75.965L29.4882 76.23L28.9512 76.13L28.2151 75.725L26.8468 75.345L26.509 75.56L26.4138 76.255L24.8376 76.345L24.3353 75.465L22.8371 75.01L21.7199 74.295L21.7026 73.195L22.8024 72.24L22.3781 72.345L22.049 72.185L21.1483 72.215L21.0531 72.63L20.4035 72.605L20.3083 72.29L19.8147 71.975L19.4682 70.835L17.9873 70.27L18.3771 69.735L19.5895 69.095L19.8839 68.235L20.7067 68.28L21.5207 67.55L21.4168 67.23L20.4382 66.755L20.8106 66.07L20.1611 65.765L19.6068 66.255L17.8661 66.32L17.2599 66.21L16.9568 65.845L17.1386 65.19L14.4973 64.955L12.4708 64.325L12.4015 64.565L11.9771 64.55L10.5655 64.995L9.54359 64.915L10.7127 64.3L10.2624 63.97L8.49571 64.52L7.86351 64.985L7.70762 65.385L6.78963 65.715L7.30059 66.13L4.83242 66.595L2.4162 66.72L1.87928 67.01L1.57616 67.645L0.450325 68.135L0.0692794 67.705L0.536927 66.775L0 65.785L1.03056 65.56L1.75802 65.12L2.90119 65.2L3.40348 64.99L3.61999 64.615L4.08763 64.435L3.73256 64.15L3.9664 63.955L3.27358 63.425L3.11769 62.975L5.73308 61.265L6.54714 61.155L6.84159 60.685L8.86809 59.875L11.5961 59.34L12.6266 58.805L14.9043 58.44L15.9435 58.03L17.0347 58.02L19.7627 56.425L21.131 54.685L25.0541 53.67L27.1672 52.51L30.5014 50.275L34.4851 46.325L35.0221 46.205L34.4591 46.02L34.8229 45.83L34.7449 45.415L33.9049 44.2L34.8229 43.69L34.0001 43.125L34.8142 40.945L32.9349 40.06L32.0343 38.86L32.3807 38.74L33.3073 38.915L33.2813 38.02L35.1087 37.985L36.2345 38.635L37.291 38.265L37.8193 37.8L38.7373 37.85L39.9324 36.86L40.5213 37.07L41.0496 36.525L40.8071 36.095L41.344 35.435L42.3746 34.82L43.717 34.365L42.7903 33.8L42.8596 33.21L40.9717 32.13L41.0409 32L43.4658 31.2L44.6523 29.665L45.3191 29.56L47.5361 28.42L50.7491 24.885L52.0308 24.255L50.7491 22.615L50.4633 18.87L50.8443 17.81L52.4378 15.53L52.3339 15.2L50.7837 13.945L57.7899 0.83001L58.3268 0L59.366 0.220004L59.3401 2.485L61.5398 4.79501L61.6697 10.33L62.1373 10.86Z" fill="white"/>
</svg>
