<svg width="145" height="92" viewBox="0 0 145 92" fill="none" xmlns="http://www.w3.org/2000/svg">
<path fill-rule="evenodd" clip-rule="evenodd" d="M140.954 24.0601L138.833 24.8851V44.8851L140.954 44.0601V24.0601Z" fill="#6580E1" fill-opacity="0.6"/>
<path fill-rule="evenodd" clip-rule="evenodd" d="M138.832 24.885L137.23 24.7V44.7L138.832 44.885V24.885Z" fill="#6580E1" fill-opacity="0.6"/>
<path fill-rule="evenodd" clip-rule="evenodd" d="M137.23 24.7L137.707 25.295V45.295L137.23 44.7V24.7Z" fill="#6580E1" fill-opacity="0.6"/>
<path fill-rule="evenodd" clip-rule="evenodd" d="M137.707 25.2952L137.317 25.4702V45.4702L137.707 45.2952V25.2952Z" fill="#6580E1" fill-opacity="0.6"/>
<path fill-rule="evenodd" clip-rule="evenodd" d="M137.317 25.47L136.035 25.55V45.55L137.317 45.47V25.47Z" fill="#6580E1" fill-opacity="0.6"/>
<path fill-rule="evenodd" clip-rule="evenodd" d="M136.035 25.55L134.866 25.415V45.415L136.035 45.55V25.55Z" fill="#6580E1" fill-opacity="0.6"/>
<path fill-rule="evenodd" clip-rule="evenodd" d="M134.866 25.4149L135.351 24.5649V44.5649L134.866 45.4149V25.4149Z" fill="#6580E1" fill-opacity="0.6"/>
<path fill-rule="evenodd" clip-rule="evenodd" d="M135.351 24.5649L133.957 24.6V44.6L135.351 44.5649V24.5649Z" fill="#6580E1" fill-opacity="0.6"/>
<path fill-rule="evenodd" clip-rule="evenodd" d="M133.957 24.6001L132.623 23.5601V43.5601L133.957 44.6001V24.6001Z" fill="#6580E1" fill-opacity="0.6"/>
<path fill-rule="evenodd" clip-rule="evenodd" d="M132.623 23.5602L132.268 23.5352V43.5352L132.623 43.5602V23.5602Z" fill="#6580E1" fill-opacity="0.6"/>
<path fill-rule="evenodd" clip-rule="evenodd" d="M132.268 23.5352L132.104 23.6102V43.6102L132.268 43.5352V23.5352Z" fill="#6580E1" fill-opacity="0.6"/>
<path fill-rule="evenodd" clip-rule="evenodd" d="M132.104 23.6101L132.381 24.2101V44.2101L132.104 43.6101V23.6101Z" fill="#6580E1" fill-opacity="0.6"/>
<path fill-rule="evenodd" clip-rule="evenodd" d="M132.381 24.21L132.831 24.43V44.43L132.381 44.21V24.21Z" fill="#6580E1" fill-opacity="0.6"/>
<path fill-rule="evenodd" clip-rule="evenodd" d="M132.831 24.4302L133.195 25.2802V45.2802L132.831 44.4302V24.4302Z" fill="#6580E1" fill-opacity="0.6"/>
<path fill-rule="evenodd" clip-rule="evenodd" d="M133.195 25.28L131.359 25.6V45.6L133.195 45.28V25.28Z" fill="#6580E1" fill-opacity="0.6"/>
<path fill-rule="evenodd" clip-rule="evenodd" d="M131.359 25.6001L131.159 24.2451V44.2451L131.359 45.6001V25.6001Z" fill="#6580E1" fill-opacity="0.6"/>
<path fill-rule="evenodd" clip-rule="evenodd" d="M131.159 24.2451L130.796 24.1951V44.1951L131.159 44.2451V24.2451Z" fill="#6580E1" fill-opacity="0.6"/>
<path fill-rule="evenodd" clip-rule="evenodd" d="M130.796 24.195L130.623 23.625V43.625L130.796 44.195V24.195Z" fill="#6580E1" fill-opacity="0.6"/>
<path fill-rule="evenodd" clip-rule="evenodd" d="M130.623 23.625L130.198 23.53V43.53L130.623 43.625V23.625Z" fill="#6580E1" fill-opacity="0.6"/>
<path fill-rule="evenodd" clip-rule="evenodd" d="M130.198 23.53L129.627 22.8V42.8L130.198 43.53V23.53Z" fill="#6580E1" fill-opacity="0.6"/>
<path fill-rule="evenodd" clip-rule="evenodd" d="M129.627 22.8L129.505 23.22V43.22L129.627 42.8V22.8Z" fill="#6580E1" fill-opacity="0.6"/>
<path fill-rule="evenodd" clip-rule="evenodd" d="M129.505 23.22L128.371 23.405V43.405L129.505 43.22V23.22Z" fill="#6580E1" fill-opacity="0.6"/>
<path fill-rule="evenodd" clip-rule="evenodd" d="M128.371 23.405L127.54 23.895V43.895L128.371 43.405V23.405Z" fill="#6580E1" fill-opacity="0.6"/>
<path fill-rule="evenodd" clip-rule="evenodd" d="M127.54 23.895L127.358 24.32V44.32L127.54 43.895V23.895Z" fill="#6580E1" fill-opacity="0.6"/>
<path fill-rule="evenodd" clip-rule="evenodd" d="M127.358 24.32L127.029 24.27V44.27L127.358 44.32V24.32Z" fill="#6580E1" fill-opacity="0.6"/>
<path fill-rule="evenodd" clip-rule="evenodd" d="M127.029 24.27L125.245 24.84V44.84L127.029 44.27V24.27Z" fill="#6580E1" fill-opacity="0.6"/>
<path fill-rule="evenodd" clip-rule="evenodd" d="M125.244 24.8401L125.019 24.6101V44.6101L125.244 44.8401V24.8401Z" fill="#6580E1" fill-opacity="0.6"/>
<path fill-rule="evenodd" clip-rule="evenodd" d="M125.019 24.6101L124.378 24.7401V44.7401L125.019 44.6101V24.6101Z" fill="#6580E1" fill-opacity="0.6"/>
<path fill-rule="evenodd" clip-rule="evenodd" d="M124.379 24.74L123.998 25.74V45.74L124.379 44.74V24.74Z" fill="#6580E1" fill-opacity="0.6"/>
<path fill-rule="evenodd" clip-rule="evenodd" d="M123.997 25.74L122.335 26.4V46.4L123.997 45.74V25.74Z" fill="#6580E1" fill-opacity="0.6"/>
<path fill-rule="evenodd" clip-rule="evenodd" d="M122.335 26.4002L121.581 26.0352V46.0352L122.335 46.4002V26.4002Z" fill="#6580E1" fill-opacity="0.6"/>
<path fill-rule="evenodd" clip-rule="evenodd" d="M121.581 26.035L121.373 25.125V45.125L121.581 46.035V26.035Z" fill="#6580E1" fill-opacity="0.6"/>
<path fill-rule="evenodd" clip-rule="evenodd" d="M121.373 25.125L120.698 24.885V44.885L121.373 45.125V25.125Z" fill="#6580E1" fill-opacity="0.6"/>
<path fill-rule="evenodd" clip-rule="evenodd" d="M120.698 24.8852L120.603 24.4502V44.4502L120.698 44.8852V24.8852Z" fill="#6580E1" fill-opacity="0.6"/>
<path fill-rule="evenodd" clip-rule="evenodd" d="M120.603 24.4502L119.52 24.6452V44.6452L120.603 44.4502V24.4502Z" fill="#6580E1" fill-opacity="0.6"/>
<path fill-rule="evenodd" clip-rule="evenodd" d="M119.52 24.645L119.511 25.34V45.34L119.52 44.645V24.645Z" fill="#6580E1" fill-opacity="0.6"/>
<path fill-rule="evenodd" clip-rule="evenodd" d="M119.511 25.3401L118.801 25.7001V45.7001L119.511 45.3401V25.3401Z" fill="#6580E1" fill-opacity="0.6"/>
<path fill-rule="evenodd" clip-rule="evenodd" d="M118.801 25.7001L118.533 25.4951V45.4951L118.801 45.7001V25.7001Z" fill="#6580E1" fill-opacity="0.6"/>
<path fill-rule="evenodd" clip-rule="evenodd" d="M118.533 25.4952L116.957 25.3252V45.3252L118.533 45.4952V25.4952Z" fill="#6580E1" fill-opacity="0.6"/>
<path fill-rule="evenodd" clip-rule="evenodd" d="M116.957 25.3252L116.272 25.5102V45.5102L116.957 45.3252V25.3252Z" fill="#6580E1" fill-opacity="0.6"/>
<path fill-rule="evenodd" clip-rule="evenodd" d="M116.272 25.51L116.688 26.48V46.48L116.272 45.51V25.51Z" fill="#6580E1" fill-opacity="0.6"/>
<path fill-rule="evenodd" clip-rule="evenodd" d="M116.688 26.48L115.502 27.205V47.205L116.688 46.48V26.48Z" fill="#6580E1" fill-opacity="0.6"/>
<path fill-rule="evenodd" clip-rule="evenodd" d="M115.502 27.2051L115.961 28.1501V48.1501L115.502 47.2051V27.2051Z" fill="#6580E1" fill-opacity="0.6"/>
<path fill-rule="evenodd" clip-rule="evenodd" d="M115.961 28.1501L115.848 28.4751V48.4751L115.961 48.1501V28.1501Z" fill="#6580E1" fill-opacity="0.6"/>
<path fill-rule="evenodd" clip-rule="evenodd" d="M115.848 28.4751L115 28.6151V48.6151L115.848 48.4751V28.4751Z" fill="#6580E1" fill-opacity="0.6"/>
<path fill-rule="evenodd" clip-rule="evenodd" d="M115 28.615L114.523 29V49L115 48.615V28.615Z" fill="#6580E1" fill-opacity="0.6"/>
<path fill-rule="evenodd" clip-rule="evenodd" d="M114.523 29L115.848 30.005V50.005L114.523 49V29Z" fill="#6580E1" fill-opacity="0.6"/>
<path fill-rule="evenodd" clip-rule="evenodd" d="M115.848 30.0051L114.93 30.9951V50.9951L115.848 50.0051V30.0051Z" fill="#6580E1" fill-opacity="0.6"/>
<path fill-rule="evenodd" clip-rule="evenodd" d="M114.93 30.9951L113.085 31.9101V51.9101L114.93 50.9951V30.9951Z" fill="#6580E1" fill-opacity="0.6"/>
<path fill-rule="evenodd" clip-rule="evenodd" d="M113.085 31.9102L113.345 32.3602V52.3602L113.085 51.9102V31.9102Z" fill="#6580E1" fill-opacity="0.6"/>
<path fill-rule="evenodd" clip-rule="evenodd" d="M113.345 32.3601L117.294 32.9701V52.9701L113.345 52.3601V32.3601Z" fill="#6580E1" fill-opacity="0.6"/>
<path fill-rule="evenodd" clip-rule="evenodd" d="M117.294 32.97L116.247 38.445V58.445L117.294 52.97V32.97Z" fill="#6580E1" fill-opacity="0.6"/>
<path fill-rule="evenodd" clip-rule="evenodd" d="M116.247 38.4451L114.93 39.2051V59.2051L116.247 58.4451V38.4451Z" fill="#6580E1" fill-opacity="0.6"/>
<path fill-rule="evenodd" clip-rule="evenodd" d="M114.93 39.2051L113.744 39.4301V59.4301L114.93 59.2051V39.2051Z" fill="#6580E1" fill-opacity="0.6"/>
<path fill-rule="evenodd" clip-rule="evenodd" d="M113.744 39.4302L111.76 39.5052V59.5052L113.744 59.4302V39.4302Z" fill="#6580E1" fill-opacity="0.6"/>
<path fill-rule="evenodd" clip-rule="evenodd" d="M111.761 39.505L110.054 38.52V58.52L111.761 59.505V39.505Z" fill="#6580E1" fill-opacity="0.6"/>
<path fill-rule="evenodd" clip-rule="evenodd" d="M110.054 38.5201L108.08 35.4001V55.4001L110.054 58.5201V38.5201Z" fill="#6580E1" fill-opacity="0.6"/>
<path fill-rule="evenodd" clip-rule="evenodd" d="M108.08 35.4001L106.763 34.3401V54.3401L108.08 55.4001V35.4001Z" fill="#6580E1" fill-opacity="0.6"/>
<path fill-rule="evenodd" clip-rule="evenodd" d="M106.763 34.34L105.975 32.665V52.665L106.763 54.34V34.34Z" fill="#6580E1" fill-opacity="0.6"/>
<path fill-rule="evenodd" clip-rule="evenodd" d="M105.976 32.6652L105.317 32.2852V52.2852L105.976 52.6652V32.6652Z" fill="#6580E1" fill-opacity="0.6"/>
<path fill-rule="evenodd" clip-rule="evenodd" d="M105.317 32.2851L103.074 31.6001V51.6001L105.317 52.2851V32.2851Z" fill="#6580E1" fill-opacity="0.6"/>
<path fill-rule="evenodd" clip-rule="evenodd" d="M103.074 31.6L99.9219 29.78V49.78L103.074 51.6V31.6Z" fill="#6580E1" fill-opacity="0.6"/>
<path fill-rule="evenodd" clip-rule="evenodd" d="M99.922 29.7801L98.9607 26.6951V46.6951L99.922 49.7801V29.7801Z" fill="#6580E1" fill-opacity="0.6"/>
<path fill-rule="evenodd" clip-rule="evenodd" d="M98.9606 26.6951L98.4929 26.8351V46.8351L98.9606 46.6951V26.6951Z" fill="#6580E1" fill-opacity="0.6"/>
<path fill-rule="evenodd" clip-rule="evenodd" d="M98.4929 26.8352L98.7441 25.2002V45.2002L98.4929 46.8352V26.8352Z" fill="#6580E1" fill-opacity="0.6"/>
<path fill-rule="evenodd" clip-rule="evenodd" d="M98.7441 25.2001L98.5103 24.5251V44.5251L98.7441 45.2001V25.2001Z" fill="#6580E1" fill-opacity="0.6"/>
<path fill-rule="evenodd" clip-rule="evenodd" d="M98.5104 24.5251L97.8782 24.9401V44.9401L98.5104 44.5251V24.5251Z" fill="#6580E1" fill-opacity="0.6"/>
<path fill-rule="evenodd" clip-rule="evenodd" d="M97.8782 24.9401L97.2893 24.1101V44.1101L97.8782 44.9401V24.9401Z" fill="#6580E1" fill-opacity="0.6"/>
<path fill-rule="evenodd" clip-rule="evenodd" d="M97.2892 24.1101L96.3279 24.1451V44.1451L97.2892 44.1101V24.1101Z" fill="#6580E1" fill-opacity="0.6"/>
<path fill-rule="evenodd" clip-rule="evenodd" d="M96.3279 24.1452L96.1633 23.9102V43.9102L96.3279 44.1452V24.1452Z" fill="#6580E1" fill-opacity="0.6"/>
<path fill-rule="evenodd" clip-rule="evenodd" d="M96.1633 23.91L96.6743 23.095V43.095L96.1633 43.91V23.91Z" fill="#6580E1" fill-opacity="0.6"/>
<path fill-rule="evenodd" clip-rule="evenodd" d="M96.6743 23.0952L96.8648 22.0552V42.0552L96.6743 43.0952V23.0952Z" fill="#6580E1" fill-opacity="0.6"/>
<path fill-rule="evenodd" clip-rule="evenodd" d="M96.8649 22.0551L96.2673 20.8801V40.8801L96.8649 42.0551V22.0551Z" fill="#6580E1" fill-opacity="0.6"/>
<path fill-rule="evenodd" clip-rule="evenodd" d="M96.2673 20.88L97.1507 20.22V40.22L96.2673 40.88V20.88Z" fill="#6580E1" fill-opacity="0.6"/>
<path fill-rule="evenodd" clip-rule="evenodd" d="M97.1506 20.2201L99.2464 20.1301V40.1301L97.1506 40.2201V20.2201Z" fill="#6580E1" fill-opacity="0.6"/>
<path fill-rule="evenodd" clip-rule="evenodd" d="M99.2463 20.1301L99.3936 19.7451V39.7451L99.2463 40.1301V20.1301Z" fill="#6580E1" fill-opacity="0.6"/>
<path fill-rule="evenodd" clip-rule="evenodd" d="M99.3937 19.745L97.9734 18.415V38.415L99.3937 39.745V19.745Z" fill="#6580E1" fill-opacity="0.6"/>
<path fill-rule="evenodd" clip-rule="evenodd" d="M97.9734 18.4152L98.5796 17.8052V37.8052L97.9734 38.4152V18.4152Z" fill="#6580E1" fill-opacity="0.6"/>
<path fill-rule="evenodd" clip-rule="evenodd" d="M98.5796 17.8052L98.3804 16.9402V36.9402L98.5796 37.8052V17.8052Z" fill="#6580E1" fill-opacity="0.6"/>
<path fill-rule="evenodd" clip-rule="evenodd" d="M98.3804 16.9401L98.9173 15.8901V35.8901L98.3804 36.9401V16.9401Z" fill="#6580E1" fill-opacity="0.6"/>
<path fill-rule="evenodd" clip-rule="evenodd" d="M98.9172 15.8901L99.0558 13.8801V33.8801L98.9172 35.8901V15.8901Z" fill="#6580E1" fill-opacity="0.6"/>
<path fill-rule="evenodd" clip-rule="evenodd" d="M99.0559 13.88L97.4797 11.46V31.46L99.0559 33.88V13.88Z" fill="#6580E1" fill-opacity="0.6"/>
<path fill-rule="evenodd" clip-rule="evenodd" d="M97.4797 11.46L98.008 10.925V30.925L97.4797 31.46V11.46Z" fill="#6580E1" fill-opacity="0.6"/>
<path fill-rule="evenodd" clip-rule="evenodd" d="M98.008 10.925L97.7568 10.78V30.78L98.008 30.925V10.925Z" fill="#6580E1" fill-opacity="0.6"/>
<path fill-rule="evenodd" clip-rule="evenodd" d="M97.7568 10.78L97.575 9.84497V29.845L97.7568 30.78V10.78Z" fill="#6580E1" fill-opacity="0.6"/>
<path fill-rule="evenodd" clip-rule="evenodd" d="M97.575 9.84518L97.8607 9.43018V29.4302L97.575 29.8452V9.84518Z" fill="#6580E1" fill-opacity="0.6"/>
<path fill-rule="evenodd" clip-rule="evenodd" d="M97.8608 9.43016L97.3499 9.03516V29.0352L97.8608 29.4302V9.43016Z" fill="#6580E1" fill-opacity="0.6"/>
<path fill-rule="evenodd" clip-rule="evenodd" d="M97.3499 9.03509L97.9128 8.58008V28.5801L97.3499 29.0351V9.03509Z" fill="#6580E1" fill-opacity="0.6"/>
<path fill-rule="evenodd" clip-rule="evenodd" d="M97.9128 8.58004L98.1553 7.79004V27.79L97.9128 28.58V8.58004Z" fill="#6580E1" fill-opacity="0.6"/>
<path fill-rule="evenodd" clip-rule="evenodd" d="M98.1553 7.79001L97.2373 7.77002V27.77L98.1553 27.79V7.79001Z" fill="#6580E1" fill-opacity="0.6"/>
<path fill-rule="evenodd" clip-rule="evenodd" d="M97.2373 7.77002L97.4971 8.41001V28.41L97.2373 27.77V7.77002Z" fill="#6580E1" fill-opacity="0.6"/>
<path fill-rule="evenodd" clip-rule="evenodd" d="M97.497 8.41016L96.8647 8.60517V28.6052L97.497 28.4102V8.41016Z" fill="#6580E1" fill-opacity="0.6"/>
<path fill-rule="evenodd" clip-rule="evenodd" d="M96.8648 8.60508L96.4751 8.33008V28.3301L96.8648 28.6051V8.60508Z" fill="#6580E1" fill-opacity="0.6"/>
<path fill-rule="evenodd" clip-rule="evenodd" d="M96.4753 8.33008L96.0596 8.87008V28.8701L96.4753 28.3301V8.33008Z" fill="#6580E1" fill-opacity="0.6"/>
<path fill-rule="evenodd" clip-rule="evenodd" d="M96.0594 8.87003L95.4878 8.53003V28.53L96.0594 28.87V8.87003Z" fill="#6580E1" fill-opacity="0.6"/>
<path fill-rule="evenodd" clip-rule="evenodd" d="M95.4879 8.52999L93.8511 8.36499V28.365L95.4879 28.53V8.52999Z" fill="#6580E1" fill-opacity="0.6"/>
<path fill-rule="evenodd" clip-rule="evenodd" d="M93.8511 8.36499L91.9631 8.89499V28.895L93.8511 28.365V8.36499Z" fill="#6580E1" fill-opacity="0.6"/>
<path fill-rule="evenodd" clip-rule="evenodd" d="M91.9631 8.89502L91.8765 8.64502V28.645L91.9631 28.895V8.89502Z" fill="#6580E1" fill-opacity="0.6"/>
<path fill-rule="evenodd" clip-rule="evenodd" d="M91.8765 8.6452L91.5474 8.5752V28.5752L91.8765 28.6452V8.6452Z" fill="#6580E1" fill-opacity="0.6"/>
<path fill-rule="evenodd" clip-rule="evenodd" d="M91.5474 8.57507L91.7206 7.94507V27.9451L91.5474 28.5751V8.57507Z" fill="#6580E1" fill-opacity="0.6"/>
<path fill-rule="evenodd" clip-rule="evenodd" d="M91.7207 7.94512L92.0325 7.74512V27.7451L91.7207 27.9451V7.94512Z" fill="#6580E1" fill-opacity="0.6"/>
<path fill-rule="evenodd" clip-rule="evenodd" d="M92.0324 7.7451L91.4348 7.3501V27.3501L92.0324 27.7451V7.7451Z" fill="#6580E1" fill-opacity="0.6"/>
<path fill-rule="evenodd" clip-rule="evenodd" d="M91.4348 7.3501L90.1877 7.7901V27.7901L91.4348 27.3501V7.3501Z" fill="#6580E1" fill-opacity="0.6"/>
<path fill-rule="evenodd" clip-rule="evenodd" d="M90.1878 7.79004L89.7461 7.66504V27.665L90.1878 27.79V7.79004Z" fill="#6580E1" fill-opacity="0.6"/>
<path fill-rule="evenodd" clip-rule="evenodd" d="M89.7461 7.66507L89.9193 7.44507V27.4451L89.7461 27.6651V7.66507Z" fill="#6580E1" fill-opacity="0.6"/>
<path fill-rule="evenodd" clip-rule="evenodd" d="M89.9194 7.44501L90.7508 7.38501V27.385L89.9194 27.445V7.44501Z" fill="#6580E1" fill-opacity="0.6"/>
<path fill-rule="evenodd" clip-rule="evenodd" d="M90.7507 7.38502L90.7854 7.14502V27.145L90.7507 27.385V7.38502Z" fill="#6580E1" fill-opacity="0.6"/>
<path fill-rule="evenodd" clip-rule="evenodd" d="M90.7855 7.14511L89.7722 7.11011V27.1101L90.7855 27.1451V7.14511Z" fill="#6580E1" fill-opacity="0.6"/>
<path fill-rule="evenodd" clip-rule="evenodd" d="M89.7722 7.11011L89.062 7.66011V27.6601L89.7722 27.1101V7.11011Z" fill="#6580E1" fill-opacity="0.6"/>
<path fill-rule="evenodd" clip-rule="evenodd" d="M89.0621 7.66014L88.5078 7.14014V27.1401L89.0621 27.6601V7.66014Z" fill="#6580E1" fill-opacity="0.6"/>
<path fill-rule="evenodd" clip-rule="evenodd" d="M88.5078 7.14016L89.0188 7.03516V27.0352L88.5078 27.1402V7.14016Z" fill="#6580E1" fill-opacity="0.6"/>
<path fill-rule="evenodd" clip-rule="evenodd" d="M89.0188 7.03503L89.7722 6.28003V26.28L89.0188 27.035V7.03503Z" fill="#6580E1" fill-opacity="0.6"/>
<path fill-rule="evenodd" clip-rule="evenodd" d="M89.7722 6.28013L89.8415 4.63013V24.6301L89.7722 26.2801V6.28013Z" fill="#6580E1" fill-opacity="0.6"/>
<path fill-rule="evenodd" clip-rule="evenodd" d="M89.8413 4.63013L89.5122 4.97013V24.9701L89.8413 24.6301V4.63013Z" fill="#6580E1" fill-opacity="0.6"/>
<path fill-rule="evenodd" clip-rule="evenodd" d="M89.5124 4.97001L88.9668 4.88501V24.885L89.5124 24.97V4.97001Z" fill="#6580E1" fill-opacity="0.6"/>
<path fill-rule="evenodd" clip-rule="evenodd" d="M88.9666 4.88501L88.2478 5.18001V25.18L88.9666 24.885V4.88501Z" fill="#6580E1" fill-opacity="0.6"/>
<path fill-rule="evenodd" clip-rule="evenodd" d="M88.2479 5.17997L87.7803 4.71997V24.72L88.2479 25.18V5.17997Z" fill="#6580E1" fill-opacity="0.6"/>
<path fill-rule="evenodd" clip-rule="evenodd" d="M87.7803 4.71997L86.2388 4.98997V24.99L87.7803 24.72V4.71997Z" fill="#6580E1" fill-opacity="0.6"/>
<path fill-rule="evenodd" clip-rule="evenodd" d="M86.2388 4.99L84.3682 4V24L86.2388 24.99V4.99Z" fill="#6580E1" fill-opacity="0.6"/>
<path fill-rule="evenodd" clip-rule="evenodd" d="M84.3682 4.00018L84.8185 2.93018V22.9302L84.3682 24.0002V4.00018Z" fill="#6580E1" fill-opacity="0.6"/>
<path fill-rule="evenodd" clip-rule="evenodd" d="M84.8186 2.93001L84.6194 2.88501V22.885L84.8186 22.93V2.93001Z" fill="#6580E1" fill-opacity="0.6"/>
<path fill-rule="evenodd" clip-rule="evenodd" d="M84.6194 2.88501L83.4849 2.98001V22.98L84.6194 22.885V2.88501Z" fill="#6580E1" fill-opacity="0.6"/>
<path fill-rule="evenodd" clip-rule="evenodd" d="M83.4847 2.97998L82.9824 3.99998V24L83.4847 22.98V2.97998Z" fill="#6580E1" fill-opacity="0.6"/>
<path fill-rule="evenodd" clip-rule="evenodd" d="M82.9826 4L81.6143 4.27V24.27L82.9826 24V4Z" fill="#6580E1" fill-opacity="0.6"/>
<path fill-rule="evenodd" clip-rule="evenodd" d="M81.6143 4.26998L81.9607 3.47998V23.48L81.6143 24.27V4.26998Z" fill="#6580E1" fill-opacity="0.6"/>
<path fill-rule="evenodd" clip-rule="evenodd" d="M81.9605 3.48001L81.6487 2.76001V22.76L81.9605 23.48V3.48001Z" fill="#6580E1" fill-opacity="0.6"/>
<path fill-rule="evenodd" clip-rule="evenodd" d="M81.6487 2.76016L81.7266 2.03516V22.0352L81.6487 22.7602V2.76016Z" fill="#6580E1" fill-opacity="0.6"/>
<path fill-rule="evenodd" clip-rule="evenodd" d="M81.7268 2.03497L82.1079 1.59497V21.595L81.7268 22.035V2.03497Z" fill="#6580E1" fill-opacity="0.6"/>
<path fill-rule="evenodd" clip-rule="evenodd" d="M82.1078 1.59497L81.5449 1.66997V21.67L82.1078 21.595V1.59497Z" fill="#6580E1" fill-opacity="0.6"/>
<path fill-rule="evenodd" clip-rule="evenodd" d="M81.5448 1.67001L81.0598 1.51001V21.51L81.5448 21.67V1.67001Z" fill="#6580E1" fill-opacity="0.6"/>
<path fill-rule="evenodd" clip-rule="evenodd" d="M81.0599 1.51001L80.2112 1.59001V21.59L81.0599 21.51V1.51001Z" fill="#6580E1" fill-opacity="0.6"/>
<path fill-rule="evenodd" clip-rule="evenodd" d="M80.2113 1.58996L79.7437 1.45996V21.46L80.2113 21.59V1.58996Z" fill="#6580E1" fill-opacity="0.6"/>
<path fill-rule="evenodd" clip-rule="evenodd" d="M79.7435 1.45996L78.5657 1.62996V21.63L79.7435 21.46V1.45996Z" fill="#6580E1" fill-opacity="0.6"/>
<path fill-rule="evenodd" clip-rule="evenodd" d="M78.5658 1.63013L78.2107 2.34513V22.3451L78.5658 21.6301V1.63013Z" fill="#6580E1" fill-opacity="0.6"/>
<path fill-rule="evenodd" clip-rule="evenodd" d="M78.2107 2.34511L75.1882 1.86011V21.8601L78.2107 22.3451V2.34511Z" fill="#6580E1" fill-opacity="0.6"/>
<path fill-rule="evenodd" clip-rule="evenodd" d="M75.1882 1.86L75.4307 0V20L75.1882 21.86V1.86Z" fill="#6580E1" fill-opacity="0.6"/>
<path fill-rule="evenodd" clip-rule="evenodd" d="M75.4308 0L74.7207 0.06V20.06L75.4308 20V0Z" fill="#6580E1" fill-opacity="0.6"/>
<path fill-rule="evenodd" clip-rule="evenodd" d="M74.7207 0.0600586L73.7507 0.830059V20.8301L74.7207 20.0601V0.0600586Z" fill="#6580E1" fill-opacity="0.6"/>
<path fill-rule="evenodd" clip-rule="evenodd" d="M73.7507 0.830078L71.6982 1.22508V21.2251L73.7507 20.8301V0.830078Z" fill="#6580E1" fill-opacity="0.6"/>
<path fill-rule="evenodd" clip-rule="evenodd" d="M71.6982 1.2251L71.3345 4.3751V24.3751L71.6982 21.2251V1.2251Z" fill="#6580E1" fill-opacity="0.6"/>
<path fill-rule="evenodd" clip-rule="evenodd" d="M71.3345 4.37501L67.6279 3.13501V23.135L71.3345 24.375V4.37501Z" fill="#6580E1" fill-opacity="0.6"/>
<path fill-rule="evenodd" clip-rule="evenodd" d="M67.628 3.13501L67.0391 3.61501V23.615L67.628 23.135V3.13501Z" fill="#6580E1" fill-opacity="0.6"/>
<path fill-rule="evenodd" clip-rule="evenodd" d="M67.0389 3.61499H66.5713V23.615H67.0389V3.61499Z" fill="#6580E1" fill-opacity="0.6"/>
<path fill-rule="evenodd" clip-rule="evenodd" d="M66.5713 3.61499L65.9651 4.52499V24.525L66.5713 23.615V3.61499Z" fill="#6580E1" fill-opacity="0.6"/>
<path fill-rule="evenodd" clip-rule="evenodd" d="M65.965 4.52503L65.5493 4.40503V24.405L65.965 24.525V4.52503Z" fill="#6580E1" fill-opacity="0.6"/>
<path fill-rule="evenodd" clip-rule="evenodd" d="M65.5494 4.40503L65.3242 4.49503V24.495L65.5494 24.405V4.40503Z" fill="#6580E1" fill-opacity="0.6"/>
<path fill-rule="evenodd" clip-rule="evenodd" d="M65.3242 4.49507L63.2024 3.82007V23.8201L65.3242 24.4951V4.49507Z" fill="#6580E1" fill-opacity="0.6"/>
<path fill-rule="evenodd" clip-rule="evenodd" d="M63.2026 3.82007L63.0986 4.59007V24.5901L63.2026 23.8201V3.82007Z" fill="#6580E1" fill-opacity="0.6"/>
<path fill-rule="evenodd" clip-rule="evenodd" d="M63.0985 4.59009L61.99 5.03009V25.0301L63.0985 24.5901V4.59009Z" fill="#6580E1" fill-opacity="0.6"/>
<path fill-rule="evenodd" clip-rule="evenodd" d="M61.9899 5.03003L60.8381 6.14503V26.145L61.9899 25.03V5.03003Z" fill="#6580E1" fill-opacity="0.6"/>
<path fill-rule="evenodd" clip-rule="evenodd" d="M60.8381 6.14502L60.8555 6.72502V26.725L60.8381 26.145V6.14502Z" fill="#6580E1" fill-opacity="0.6"/>
<path fill-rule="evenodd" clip-rule="evenodd" d="M60.8554 6.7251L59.7209 7.1501V27.1501L60.8554 26.7251V6.7251Z" fill="#6580E1" fill-opacity="0.6"/>
<path fill-rule="evenodd" clip-rule="evenodd" d="M59.7211 7.15009L58.8638 6.96509V26.9651L59.7211 27.1501V7.15009Z" fill="#6580E1" fill-opacity="0.6"/>
<path fill-rule="evenodd" clip-rule="evenodd" d="M58.8636 6.96506L58.751 6.56006V26.5601L58.8636 26.9651V6.96506Z" fill="#6580E1" fill-opacity="0.6"/>
<path fill-rule="evenodd" clip-rule="evenodd" d="M58.751 6.56016L59.4438 5.91016V25.9102L58.751 26.5602V6.56016Z" fill="#6580E1" fill-opacity="0.6"/>
<path fill-rule="evenodd" clip-rule="evenodd" d="M59.4438 5.91001L58.9502 5.88501V25.885L59.4438 25.91V5.91001Z" fill="#6580E1" fill-opacity="0.6"/>
<path fill-rule="evenodd" clip-rule="evenodd" d="M58.9502 5.66502L59.669 3.77002V23.77L58.9502 25.665V5.66502Z" fill="#6580E1" fill-opacity="0.6"/>
<path fill-rule="evenodd" clip-rule="evenodd" d="M59.669 3.77001L58.4565 3.76001V23.76L59.669 23.77V3.77001Z" fill="#6580E1" fill-opacity="0.6"/>
<path fill-rule="evenodd" clip-rule="evenodd" d="M58.4567 3.76004L58.3528 3.54004V23.54L58.4567 23.76V3.76004Z" fill="#6580E1" fill-opacity="0.6"/>
<path fill-rule="evenodd" clip-rule="evenodd" d="M58.3528 3.54004L57.9285 3.87504V23.875L58.3528 23.54V3.54004Z" fill="#6580E1" fill-opacity="0.6"/>
<path fill-rule="evenodd" clip-rule="evenodd" d="M57.9283 3.87501L56.7505 3.375V23.375L57.9283 23.875V3.87501Z" fill="#6580E1" fill-opacity="0.6"/>
<path fill-rule="evenodd" clip-rule="evenodd" d="M56.7506 3.375L56.1704 4.25001V24.25L56.7506 23.375V3.375Z" fill="#6580E1" fill-opacity="0.6"/>
<path fill-rule="evenodd" clip-rule="evenodd" d="M56.1704 4.25009L54.7761 4.21509V24.2151L56.1704 24.2501V4.25009Z" fill="#6580E1" fill-opacity="0.6"/>
<path fill-rule="evenodd" clip-rule="evenodd" d="M54.776 4.21507L54.6721 3.95508V23.9551L54.776 24.2151V4.21507Z" fill="#6580E1" fill-opacity="0.6"/>
<path fill-rule="evenodd" clip-rule="evenodd" d="M54.6721 3.95508L53.7542 4.14508V24.1451L54.6721 23.9551V3.95508Z" fill="#6580E1" fill-opacity="0.6"/>
<path fill-rule="evenodd" clip-rule="evenodd" d="M53.7541 4.14518L53.5376 3.93018V23.9302L53.7541 24.1452V4.14518Z" fill="#6580E1" fill-opacity="0.6"/>
<path fill-rule="evenodd" clip-rule="evenodd" d="M53.5376 3.92997L54.1525 3.59497V23.595L53.5376 23.93V3.92997Z" fill="#6580E1" fill-opacity="0.6"/>
<path fill-rule="evenodd" clip-rule="evenodd" d="M54.1526 3.59499L54.3258 3.36499V23.365L54.1526 23.595V3.59499Z" fill="#6580E1" fill-opacity="0.6"/>
<path fill-rule="evenodd" clip-rule="evenodd" d="M54.3257 3.36502L54.1438 3.28003V23.28L54.3257 23.365V3.36502Z" fill="#6580E1" fill-opacity="0.6"/>
<path fill-rule="evenodd" clip-rule="evenodd" d="M54.1439 3.28003L53.2952 3.32002V23.32L54.1439 23.28V3.28003Z" fill="#6580E1" fill-opacity="0.6"/>
<path fill-rule="evenodd" clip-rule="evenodd" d="M53.2952 3.32007L52.6716 3.67007V23.6701L53.2952 23.3201V3.32007Z" fill="#6580E1" fill-opacity="0.6"/>
<path fill-rule="evenodd" clip-rule="evenodd" d="M52.6717 3.67007L51.2947 2.94507V22.9451L52.6717 23.6701V3.67007Z" fill="#6580E1" fill-opacity="0.6"/>
<path fill-rule="evenodd" clip-rule="evenodd" d="M51.2946 2.94507L51.1128 3.06007V23.0601L51.2946 22.9451V2.94507Z" fill="#6580E1" fill-opacity="0.6"/>
<path fill-rule="evenodd" clip-rule="evenodd" d="M51.1127 3.06011L49.4846 2.86011V22.8601L51.1127 23.0601V3.06011Z" fill="#6580E1" fill-opacity="0.6"/>
<path fill-rule="evenodd" clip-rule="evenodd" d="M49.4846 2.36011L42.1147 3.64511V23.6451L49.4846 22.3601V2.36011Z" fill="#6580E1" fill-opacity="0.6"/>
<path fill-rule="evenodd" clip-rule="evenodd" d="M42.1148 3.64502L38.8325 11.69V31.69L42.1148 23.645V3.64502Z" fill="#6580E1" fill-opacity="0.6"/>
<path fill-rule="evenodd" clip-rule="evenodd" d="M38.8326 11.6901L35.6716 11.2051V31.2051L38.8326 31.6901V11.6901Z" fill="#6580E1" fill-opacity="0.6"/>
<path fill-rule="evenodd" clip-rule="evenodd" d="M35.6714 11.2051L34.2598 11.7301V31.7301L35.6714 31.2051V11.2051Z" fill="#6580E1" fill-opacity="0.6"/>
<path fill-rule="evenodd" clip-rule="evenodd" d="M34.2598 11.73L33.8528 12.205V32.205L34.2598 31.73V11.73Z" fill="#6580E1" fill-opacity="0.6"/>
<path fill-rule="evenodd" clip-rule="evenodd" d="M33.8529 12.2051L32.5452 12.9901V32.9901L33.8529 32.2051V12.2051Z" fill="#6580E1" fill-opacity="0.6"/>
<path fill-rule="evenodd" clip-rule="evenodd" d="M32.5452 12.99L30.8218 13.435V33.435L32.5452 32.99V12.99Z" fill="#6580E1" fill-opacity="0.6"/>
<path fill-rule="evenodd" clip-rule="evenodd" d="M30.8218 13.4351L31.913 13.6751V33.6751L30.8218 33.4351V13.4351Z" fill="#6580E1" fill-opacity="0.6"/>
<path fill-rule="evenodd" clip-rule="evenodd" d="M31.9128 13.675L32.5017 14.165V34.165L31.9128 33.675V13.675Z" fill="#6580E1" fill-opacity="0.6"/>
<path fill-rule="evenodd" clip-rule="evenodd" d="M32.5017 14.165L31.6011 14.515V34.515L32.5017 34.165V14.165Z" fill="#6580E1" fill-opacity="0.6"/>
<path fill-rule="evenodd" clip-rule="evenodd" d="M31.6013 14.5151L31.073 15.3501V35.3501L31.6013 34.5151V14.5151Z" fill="#6580E1" fill-opacity="0.6"/>
<path fill-rule="evenodd" clip-rule="evenodd" d="M31.0728 15.3501L30.3887 15.4251V35.4251L31.0728 35.3501V15.3501Z" fill="#6580E1" fill-opacity="0.6"/>
<path fill-rule="evenodd" clip-rule="evenodd" d="M30.3888 15.425L29.9038 15.855V35.855L30.3888 35.425V15.425Z" fill="#6580E1" fill-opacity="0.6"/>
<path fill-rule="evenodd" clip-rule="evenodd" d="M29.9038 15.855L29.2109 15.995V35.995L29.9038 35.855V15.855Z" fill="#6580E1" fill-opacity="0.6"/>
<path fill-rule="evenodd" clip-rule="evenodd" d="M29.2108 15.9951L28.4661 16.5351V36.5351L29.2108 35.9951V15.9951Z" fill="#6580E1" fill-opacity="0.6"/>
<path fill-rule="evenodd" clip-rule="evenodd" d="M28.4662 16.5352L27.7734 16.5652V36.5652L28.4662 36.5352V16.5352Z" fill="#6580E1" fill-opacity="0.6"/>
<path fill-rule="evenodd" clip-rule="evenodd" d="M27.7734 16.5652L28.4749 17.2602V37.2602L27.7734 36.5652V16.5652Z" fill="#6580E1" fill-opacity="0.6"/>
<path fill-rule="evenodd" clip-rule="evenodd" d="M28.4749 17.26L28.7173 17.93V37.93L28.4749 37.26V17.26Z" fill="#6580E1" fill-opacity="0.6"/>
<path fill-rule="evenodd" clip-rule="evenodd" d="M28.7174 17.9302L28.1804 19.4302V39.4302L28.7174 37.9302V17.9302Z" fill="#6580E1" fill-opacity="0.6"/>
<path fill-rule="evenodd" clip-rule="evenodd" d="M28.1805 19.4302L26.968 21.2902V41.2902L28.1805 39.4302V19.4302Z" fill="#6580E1" fill-opacity="0.6"/>
<path fill-rule="evenodd" clip-rule="evenodd" d="M26.968 21.29L27.046 21.595V41.595L26.968 41.29V21.29Z" fill="#6580E1" fill-opacity="0.6"/>
<path fill-rule="evenodd" clip-rule="evenodd" d="M27.0458 21.595L25.6428 23.115V43.115L27.0458 41.595V21.595Z" fill="#6580E1" fill-opacity="0.6"/>
<path fill-rule="evenodd" clip-rule="evenodd" d="M25.643 23.115L23.781 23.89V43.89L25.643 43.115V23.115Z" fill="#6580E1" fill-opacity="0.6"/>
<path fill-rule="evenodd" clip-rule="evenodd" d="M23.7811 23.89L23.5906 23.76V43.76L23.7811 43.89V23.89Z" fill="#6580E1" fill-opacity="0.6"/>
<path fill-rule="evenodd" clip-rule="evenodd" d="M23.5906 23.76L23.6079 23.91V43.91L23.5906 43.76V23.76Z" fill="#6580E1" fill-opacity="0.6"/>
<path fill-rule="evenodd" clip-rule="evenodd" d="M23.6078 23.9102L22.3347 24.4552V44.4552L23.6078 43.9102V23.9102Z" fill="#6580E1" fill-opacity="0.6"/>
<path fill-rule="evenodd" clip-rule="evenodd" d="M22.3347 24.4552L22.7244 24.4202V44.4202L22.3347 44.4552V24.4552Z" fill="#6580E1" fill-opacity="0.6"/>
<path fill-rule="evenodd" clip-rule="evenodd" d="M22.7245 24.4202L22.6206 24.5502V44.5502L22.7245 44.4202V24.4202Z" fill="#6580E1" fill-opacity="0.6"/>
<path fill-rule="evenodd" clip-rule="evenodd" d="M22.6206 24.55L21.3389 25.0301V45.0301L22.6206 44.55V24.55Z" fill="#6580E1" fill-opacity="0.6"/>
<path fill-rule="evenodd" clip-rule="evenodd" d="M21.3388 25.0301L20.2043 23.4851V43.4851L21.3388 45.0301V25.0301Z" fill="#6580E1" fill-opacity="0.6"/>
<path fill-rule="evenodd" clip-rule="evenodd" d="M20.2043 23.4851L20.0398 22.5701V42.5701L20.2043 43.4851V23.4851Z" fill="#6580E1" fill-opacity="0.6"/>
<path fill-rule="evenodd" clip-rule="evenodd" d="M20.0397 22.57L19.3123 21.71V41.71L20.0397 42.57V22.57Z" fill="#6580E1" fill-opacity="0.6"/>
<path fill-rule="evenodd" clip-rule="evenodd" d="M19.3123 21.71L18.9226 22.035V42.035L19.3123 41.71V21.71Z" fill="#6580E1" fill-opacity="0.6"/>
<path fill-rule="evenodd" clip-rule="evenodd" d="M18.9226 22.035L18.4463 22.01V42.01L18.9226 42.035V22.035Z" fill="#6580E1" fill-opacity="0.6"/>
<path fill-rule="evenodd" clip-rule="evenodd" d="M18.4462 22.01L18.1257 22.215V42.215L18.4462 42.01V22.01Z" fill="#6580E1" fill-opacity="0.6"/>
<path fill-rule="evenodd" clip-rule="evenodd" d="M18.1259 22.2151L17.2339 22.0701V42.0701L18.1259 42.2151V22.2151Z" fill="#6580E1" fill-opacity="0.6"/>
<path fill-rule="evenodd" clip-rule="evenodd" d="M17.2339 22.0701L16.5151 22.6051V42.6051L17.2339 42.0701V22.0701Z" fill="#6580E1" fill-opacity="0.6"/>
<path fill-rule="evenodd" clip-rule="evenodd" d="M16.5151 22.605L15.6404 22.62V42.62L16.5151 42.605V22.605Z" fill="#6580E1" fill-opacity="0.6"/>
<path fill-rule="evenodd" clip-rule="evenodd" d="M15.6404 22.6201L15.4932 22.4451V42.4451L15.6404 42.6201V22.6201Z" fill="#6580E1" fill-opacity="0.6"/>
<path fill-rule="evenodd" clip-rule="evenodd" d="M15.4931 22.4451L15.0601 22.5651V42.5651L15.4931 42.4451V22.4451Z" fill="#6580E1" fill-opacity="0.6"/>
<path fill-rule="evenodd" clip-rule="evenodd" d="M15.0602 22.5652L14.7571 22.4202V42.4202L15.0602 42.5652V22.5652Z" fill="#6580E1" fill-opacity="0.6"/>
<path fill-rule="evenodd" clip-rule="evenodd" d="M14.757 22.4202L12.7998 23.6502V43.6502L14.757 42.4202V22.4202Z" fill="#6580E1" fill-opacity="0.6"/>
<path fill-rule="evenodd" clip-rule="evenodd" d="M12.7999 23.6501L12.7046 23.2351V43.2351L12.7999 43.6501V23.6501Z" fill="#6580E1" fill-opacity="0.6"/>
<path fill-rule="evenodd" clip-rule="evenodd" d="M12.7046 23.235L11.6047 22.52V42.52L12.7046 43.235V23.235Z" fill="#6580E1" fill-opacity="0.6"/>
<path fill-rule="evenodd" clip-rule="evenodd" d="M11.6047 22.52L11.8386 22.755V42.755L11.6047 42.52V22.52Z" fill="#6580E1" fill-opacity="0.6"/>
<path fill-rule="evenodd" clip-rule="evenodd" d="M11.8384 22.7551L11.5613 23.3051V43.3051L11.8384 42.7551V22.7551Z" fill="#6580E1" fill-opacity="0.6"/>
<path fill-rule="evenodd" clip-rule="evenodd" d="M11.5613 23.3052L10.6086 23.8052V43.8052L11.5613 43.3052V23.3052Z" fill="#6580E1" fill-opacity="0.6"/>
<path fill-rule="evenodd" clip-rule="evenodd" d="M10.6088 23.8052L10.323 24.1402V44.1402L10.6088 43.8052V23.8052Z" fill="#6580E1" fill-opacity="0.6"/>
<path fill-rule="evenodd" clip-rule="evenodd" d="M10.323 24.1401L10.5741 24.3351V44.3351L10.323 44.1401V24.1401Z" fill="#6580E1" fill-opacity="0.6"/>
<path fill-rule="evenodd" clip-rule="evenodd" d="M10.5741 24.335L9.26636 24.87V44.87L10.5741 44.335V24.335Z" fill="#6580E1" fill-opacity="0.6"/>
<path fill-rule="evenodd" clip-rule="evenodd" d="M9.26643 24.8701L8.43506 24.5901V44.5901L9.26643 44.8701V24.8701Z" fill="#6580E1" fill-opacity="0.6"/>
<path fill-rule="evenodd" clip-rule="evenodd" d="M8.43492 24.5901L7.7854 25.2151V45.2151L8.43492 44.5901V24.5901Z" fill="#6580E1" fill-opacity="0.6"/>
<path fill-rule="evenodd" clip-rule="evenodd" d="M7.7854 25.2151L8.63411 25.8051V45.8051L7.7854 45.2151V25.2151Z" fill="#6580E1" fill-opacity="0.6"/>
<path fill-rule="evenodd" clip-rule="evenodd" d="M8.63428 25.8051L9.70815 25.2451V45.2451L8.63428 45.8051V25.8051Z" fill="#6580E1" fill-opacity="0.6"/>
<path fill-rule="evenodd" clip-rule="evenodd" d="M9.70801 25.2451L9.91585 25.3451V45.3451L9.70801 45.2451V25.2451Z" fill="#6580E1" fill-opacity="0.6"/>
<path fill-rule="evenodd" clip-rule="evenodd" d="M9.91587 25.345L9.24902 25.94V45.94L9.91587 45.345V25.345Z" fill="#6580E1" fill-opacity="0.6"/>
<path fill-rule="evenodd" clip-rule="evenodd" d="M9.24902 25.9402L9.78596 26.1102V46.1102L9.24902 45.9402V25.9402Z" fill="#6580E1" fill-opacity="0.6"/>
<path fill-rule="evenodd" clip-rule="evenodd" d="M9.7861 26.1101L9.58691 26.4651V46.4651L9.7861 46.1101V26.1101Z" fill="#6580E1" fill-opacity="0.6"/>
<path fill-rule="evenodd" clip-rule="evenodd" d="M9.58688 26.4652L7.35254 25.0452V45.0452L9.58688 46.4652V26.4652Z" fill="#6580E1" fill-opacity="0.6"/>
<path fill-rule="evenodd" clip-rule="evenodd" d="M7.35251 25.0452L6.98877 25.2252V45.2252L7.35251 45.0452V25.0452Z" fill="#6580E1" fill-opacity="0.6"/>
<path fill-rule="evenodd" clip-rule="evenodd" d="M6.98867 25.2251L6.55566 26.1551V46.1551L6.98867 45.2251V25.2251Z" fill="#6580E1" fill-opacity="0.6"/>
<path fill-rule="evenodd" clip-rule="evenodd" d="M6.55578 26.155L5.92358 26.79V46.79L6.55578 46.155V26.155Z" fill="#6580E1" fill-opacity="0.6"/>
<path fill-rule="evenodd" clip-rule="evenodd" d="M5.92356 26.7902L3.37744 26.6602V46.6602L5.92356 46.7902V26.7902Z" fill="#6580E1" fill-opacity="0.6"/>
<path fill-rule="evenodd" clip-rule="evenodd" d="M3.37735 26.6602L2.77979 27.7052V47.7052L3.37735 46.6602V26.6602Z" fill="#6580E1" fill-opacity="0.6"/>
<path fill-rule="evenodd" clip-rule="evenodd" d="M2.77983 27.7051L2.68457 29.5101V49.5101L2.77983 47.7051V27.7051Z" fill="#6580E1" fill-opacity="0.6"/>
<path fill-rule="evenodd" clip-rule="evenodd" d="M2.6845 29.51L0.250977 29.785V49.785L2.6845 49.51V29.51Z" fill="#6580E1" fill-opacity="0.6"/>
<path fill-rule="evenodd" clip-rule="evenodd" d="M0.251147 29.7852L0 30.0202V50.0202L0.251147 49.7852V29.7852Z" fill="#6580E1" fill-opacity="0.6"/>
<path fill-rule="evenodd" clip-rule="evenodd" d="M0 30.02L1.05654 30.42V50.42L0 50.02V30.02Z" fill="#6580E1" fill-opacity="0.6"/>
<path fill-rule="evenodd" clip-rule="evenodd" d="M1.05655 30.4202L0.311768 30.8502V50.8502L1.05655 50.4202V30.4202Z" fill="#6580E1" fill-opacity="0.6"/>
<path fill-rule="evenodd" clip-rule="evenodd" d="M0.311617 30.8501L0.285645 33.0151V53.0151L0.311617 50.8501V30.8501Z" fill="#6580E1" fill-opacity="0.6"/>
<path fill-rule="evenodd" clip-rule="evenodd" d="M0.285645 33.0151L0.554112 33.3701V53.3701L0.285645 53.0151V33.0151Z" fill="#6580E1" fill-opacity="0.6"/>
<path fill-rule="evenodd" clip-rule="evenodd" d="M0.554199 33.3701L0.969891 33.3801V53.3801L0.554199 53.3701V33.3701Z" fill="#6580E1" fill-opacity="0.6"/>
<path fill-rule="evenodd" clip-rule="evenodd" d="M0.969971 33.3801L2.41622 34.3851V54.3851L0.969971 53.3801V33.3801Z" fill="#6580E1" fill-opacity="0.6"/>
<path fill-rule="evenodd" clip-rule="evenodd" d="M2.41602 34.385L2.71912 34.63V54.63L2.41602 54.385V34.385Z" fill="#6580E1" fill-opacity="0.6"/>
<path fill-rule="evenodd" clip-rule="evenodd" d="M2.71913 34.6301L2.2688 35.3601V55.3601L2.71913 54.6301V34.6301Z" fill="#6580E1" fill-opacity="0.6"/>
<path fill-rule="evenodd" clip-rule="evenodd" d="M2.26893 35.3601L0.883301 36.3701V56.3701L2.26893 55.3601V35.3601Z" fill="#6580E1" fill-opacity="0.6"/>
<path fill-rule="evenodd" clip-rule="evenodd" d="M0.883356 36.3701L0.640869 36.7801V56.7801L0.883356 56.3701V36.3701Z" fill="#6580E1" fill-opacity="0.6"/>
<path fill-rule="evenodd" clip-rule="evenodd" d="M0.640869 36.78L1.82732 37.115V57.115L0.640869 56.78V36.78Z" fill="#6580E1" fill-opacity="0.6"/>
<path fill-rule="evenodd" clip-rule="evenodd" d="M1.82715 37.115L1.95705 37.62V57.62L1.82715 57.115V37.115Z" fill="#6580E1" fill-opacity="0.6"/>
<path fill-rule="evenodd" clip-rule="evenodd" d="M1.95703 37.6201L5.04874 38.0651V58.0651L1.95703 57.6201V37.6201Z" fill="#6580E1" fill-opacity="0.6"/>
<path fill-rule="evenodd" clip-rule="evenodd" d="M5.04876 38.0652L3.38599 40.2652V60.2652L5.04876 58.0652V38.0652Z" fill="#6580E1" fill-opacity="0.6"/>
<path fill-rule="evenodd" clip-rule="evenodd" d="M3.38608 40.2651L0.99585 40.3851V60.3851L3.38608 60.2651V40.2651Z" fill="#6580E1" fill-opacity="0.6"/>
<path fill-rule="evenodd" clip-rule="evenodd" d="M0.99585 40.385L1.03049 41.355V61.355L0.99585 60.385V40.385Z" fill="#6580E1" fill-opacity="0.6"/>
<path fill-rule="evenodd" clip-rule="evenodd" d="M1.03052 41.355L4.70247 41.915V61.915L1.03052 61.355V41.355Z" fill="#6580E1" fill-opacity="0.6"/>
<path fill-rule="evenodd" clip-rule="evenodd" d="M4.70239 41.9152L5.70698 41.8152V61.8152L4.70239 61.9152V41.9152Z" fill="#6580E1" fill-opacity="0.6"/>
<path fill-rule="evenodd" clip-rule="evenodd" d="M5.70703 41.8151L7.67291 41.1301V61.1301L5.70703 61.8151V41.8151Z" fill="#6580E1" fill-opacity="0.6"/>
<path fill-rule="evenodd" clip-rule="evenodd" d="M7.67285 41.1301L10.6 41.8101V61.8101L7.67285 61.1301V41.1301Z" fill="#6580E1" fill-opacity="0.6"/>
<path fill-rule="evenodd" clip-rule="evenodd" d="M10.6001 41.8101L11.6133 42.2651V62.2651L10.6001 61.8101V41.8101Z" fill="#6580E1" fill-opacity="0.6"/>
<path fill-rule="evenodd" clip-rule="evenodd" d="M11.6132 42.2651L9.83789 43.8001V63.8001L11.6132 62.2651V42.2651Z" fill="#6580E1" fill-opacity="0.6"/>
<path fill-rule="evenodd" clip-rule="evenodd" d="M9.83787 43.8L9.49146 43.86V63.86L9.83787 63.8V43.8Z" fill="#6580E1" fill-opacity="0.6"/>
<path fill-rule="evenodd" clip-rule="evenodd" d="M9.49149 43.8601L9.37891 44.8751V64.8751L9.49149 63.8601V43.8601Z" fill="#6580E1" fill-opacity="0.6"/>
<path fill-rule="evenodd" clip-rule="evenodd" d="M9.37902 44.875L8.74683 45.55V65.55L9.37902 64.875V44.875Z" fill="#6580E1" fill-opacity="0.6"/>
<path fill-rule="evenodd" clip-rule="evenodd" d="M8.74674 45.55L6.75488 46.2V66.2L8.74674 65.55V45.55Z" fill="#6580E1" fill-opacity="0.6"/>
<path fill-rule="evenodd" clip-rule="evenodd" d="M6.75488 46.2002L8.34837 49.2302V69.2302L6.75488 66.2002V46.2002Z" fill="#6580E1" fill-opacity="0.6"/>
<path fill-rule="evenodd" clip-rule="evenodd" d="M8.34839 49.23L10.4095 50.15V70.15L8.34839 69.23V49.23Z" fill="#6580E1" fill-opacity="0.6"/>
<path fill-rule="evenodd" clip-rule="evenodd" d="M10.4097 50.1501L11.5355 50.2301V70.2301L10.4097 70.1501V50.1501Z" fill="#6580E1" fill-opacity="0.6"/>
<path fill-rule="evenodd" clip-rule="evenodd" d="M11.5354 50.23L11.8212 50.685V70.685L11.5354 70.23V50.23Z" fill="#6580E1" fill-opacity="0.6"/>
<path fill-rule="evenodd" clip-rule="evenodd" d="M11.8213 50.6851L13.614 51.5801V71.5801L11.8213 70.6851V50.6851Z" fill="#6580E1" fill-opacity="0.6"/>
<path fill-rule="evenodd" clip-rule="evenodd" d="M13.6138 51.5801L14.5404 51.8051V71.8051L13.6138 71.5801V51.5801Z" fill="#6580E1" fill-opacity="0.6"/>
<path fill-rule="evenodd" clip-rule="evenodd" d="M14.5405 51.8052L15.649 52.5052V72.5052L14.5405 71.8052V51.8052Z" fill="#6580E1" fill-opacity="0.6"/>
<path fill-rule="evenodd" clip-rule="evenodd" d="M15.6489 52.5051L17.1385 52.6751V72.6751L15.6489 72.5051V52.5051Z" fill="#6580E1" fill-opacity="0.6"/>
<path fill-rule="evenodd" clip-rule="evenodd" d="M17.1385 52.675L17.0605 53.15V73.15L17.1385 72.675V52.675Z" fill="#6580E1" fill-opacity="0.6"/>
<path fill-rule="evenodd" clip-rule="evenodd" d="M17.0605 53.1501L18.3249 53.6201V73.6201L17.0605 73.1501V53.1501Z" fill="#6580E1" fill-opacity="0.6"/>
<path fill-rule="evenodd" clip-rule="evenodd" d="M18.325 53.6201L18.8792 53.5601V73.5601L18.325 73.6201V53.6201Z" fill="#6580E1" fill-opacity="0.6"/>
<path fill-rule="evenodd" clip-rule="evenodd" d="M18.8794 53.5601L19.7021 52.9951V72.9951L18.8794 73.5601V53.5601Z" fill="#6580E1" fill-opacity="0.6"/>
<path fill-rule="evenodd" clip-rule="evenodd" d="M19.7019 52.9951L20.8884 53.2101V73.2101L19.7019 72.9951V52.9951Z" fill="#6580E1" fill-opacity="0.6"/>
<path fill-rule="evenodd" clip-rule="evenodd" d="M20.8884 53.21L21.4167 52.835V72.835L20.8884 73.21V53.21Z" fill="#6580E1" fill-opacity="0.6"/>
<path fill-rule="evenodd" clip-rule="evenodd" d="M21.4168 52.8351L20.5681 52.5151V72.5151L21.4168 72.8351V52.8351Z" fill="#6580E1" fill-opacity="0.6"/>
<path fill-rule="evenodd" clip-rule="evenodd" d="M20.5679 52.515L20.4553 51.51V71.51L20.5679 72.515V52.515Z" fill="#6580E1" fill-opacity="0.6"/>
<path fill-rule="evenodd" clip-rule="evenodd" d="M20.4553 51.5102L20.6458 51.1602V71.1602L20.4553 71.5102V51.5102Z" fill="#6580E1" fill-opacity="0.6"/>
<path fill-rule="evenodd" clip-rule="evenodd" d="M20.646 51.1601L21.2782 50.9851V70.9851L20.646 71.1601V51.1601Z" fill="#6580E1" fill-opacity="0.6"/>
<path fill-rule="evenodd" clip-rule="evenodd" d="M21.2781 50.9851L22.4126 51.0901V71.0901L21.2781 70.9851V50.9851Z" fill="#6580E1" fill-opacity="0.6"/>
<path fill-rule="evenodd" clip-rule="evenodd" d="M22.4126 51.0902L22.8196 49.5652V69.5652L22.4126 71.0902V51.0902Z" fill="#6580E1" fill-opacity="0.6"/>
<path fill-rule="evenodd" clip-rule="evenodd" d="M22.8196 49.565L23.9108 48.395V68.395L22.8196 69.565V49.565Z" fill="#6580E1" fill-opacity="0.6"/>
<path fill-rule="evenodd" clip-rule="evenodd" d="M23.9108 48.395L23.4951 48.355V68.355L23.9108 68.395V48.395Z" fill="#6580E1" fill-opacity="0.6"/>
<path fill-rule="evenodd" clip-rule="evenodd" d="M23.4951 48.3551L23.5211 48.1101V68.1101L23.4951 68.3551V48.3551Z" fill="#6580E1" fill-opacity="0.6"/>
<path fill-rule="evenodd" clip-rule="evenodd" d="M23.5213 48.1102L22.7505 47.2952V67.2952L23.5213 68.1102V48.1102Z" fill="#6580E1" fill-opacity="0.6"/>
<path fill-rule="evenodd" clip-rule="evenodd" d="M22.7505 47.2951L22.8891 46.7051V66.7051L22.7505 67.2951V47.2951Z" fill="#6580E1" fill-opacity="0.6"/>
<path fill-rule="evenodd" clip-rule="evenodd" d="M22.8889 46.7051L23.9541 47.3801V67.3801L22.8889 66.7051V46.7051Z" fill="#6580E1" fill-opacity="0.6"/>
<path fill-rule="evenodd" clip-rule="evenodd" d="M23.9541 47.3801L24.5257 47.1201V67.1201L23.9541 67.3801V47.3801Z" fill="#6580E1" fill-opacity="0.6"/>
<path fill-rule="evenodd" clip-rule="evenodd" d="M24.5259 47.1201L23.5732 46.1001V66.1001L24.5259 67.1201V47.1201Z" fill="#6580E1" fill-opacity="0.6"/>
<path fill-rule="evenodd" clip-rule="evenodd" d="M23.5732 46.1001L22.7678 45.7351V65.7351L23.5732 66.1001V46.1001Z" fill="#6580E1" fill-opacity="0.6"/>
<path fill-rule="evenodd" clip-rule="evenodd" d="M22.7678 45.735L22.075 45.645V65.645L22.7678 65.735V45.735Z" fill="#6580E1" fill-opacity="0.6"/>
<path fill-rule="evenodd" clip-rule="evenodd" d="M22.075 45.645L21.5034 45.115V65.115L22.075 65.645V45.645Z" fill="#6580E1" fill-opacity="0.6"/>
<path fill-rule="evenodd" clip-rule="evenodd" d="M21.5032 45.115L20.7844 45.41V65.41L21.5032 65.115V45.115Z" fill="#6580E1" fill-opacity="0.6"/>
<path fill-rule="evenodd" clip-rule="evenodd" d="M20.7847 45.4101L19.9792 43.9851V63.9851L20.7847 65.4101V45.4101Z" fill="#6580E1" fill-opacity="0.6"/>
<path fill-rule="evenodd" clip-rule="evenodd" d="M19.9792 43.9851L19.7627 42.5901V62.5901L19.9792 63.9851V43.9851Z" fill="#6580E1" fill-opacity="0.6"/>
<path fill-rule="evenodd" clip-rule="evenodd" d="M19.7625 42.59L19.2603 42.28V62.28L19.7625 62.59V42.59Z" fill="#6580E1" fill-opacity="0.6"/>
<path fill-rule="evenodd" clip-rule="evenodd" d="M19.2603 42.28L18.1604 42.105V62.105L19.2603 62.28V42.28Z" fill="#6580E1" fill-opacity="0.6"/>
<path fill-rule="evenodd" clip-rule="evenodd" d="M18.1605 42.1051L17.3118 41.4551V61.4551L18.1605 62.1051V42.1051Z" fill="#6580E1" fill-opacity="0.6"/>
<path fill-rule="evenodd" clip-rule="evenodd" d="M17.3118 41.4551L18.0565 41.2351V61.2351L17.3118 61.4551V41.4551Z" fill="#6580E1" fill-opacity="0.6"/>
<path fill-rule="evenodd" clip-rule="evenodd" d="M18.0566 41.2351L19.6674 41.5051V61.5051L18.0566 61.2351V41.2351Z" fill="#6580E1" fill-opacity="0.6"/>
<path fill-rule="evenodd" clip-rule="evenodd" d="M19.6675 41.5051L21.3822 41.1951V61.1951L19.6675 61.5051V41.5051Z" fill="#6580E1" fill-opacity="0.6"/>
<path fill-rule="evenodd" clip-rule="evenodd" d="M21.3821 41.1951L21.7718 41.7901V61.7901L21.3821 61.1951V41.1951Z" fill="#6580E1" fill-opacity="0.6"/>
<path fill-rule="evenodd" clip-rule="evenodd" d="M21.7717 41.79L22.5338 42.21V62.21L21.7717 61.79V41.79Z" fill="#6580E1" fill-opacity="0.6"/>
<path fill-rule="evenodd" clip-rule="evenodd" d="M22.5338 42.21L22.3953 42.87V62.87L22.5338 62.21V42.21Z" fill="#6580E1" fill-opacity="0.6"/>
<path fill-rule="evenodd" clip-rule="evenodd" d="M22.3953 42.8701L22.759 43.1601V63.1601L22.3953 62.8701V42.8701Z" fill="#6580E1" fill-opacity="0.6"/>
<path fill-rule="evenodd" clip-rule="evenodd" d="M22.759 43.1602L23.4086 43.2852V63.2852L22.759 63.1602V43.1602Z" fill="#6580E1" fill-opacity="0.6"/>
<path fill-rule="evenodd" clip-rule="evenodd" d="M23.4087 43.2852L23.7205 43.5552V63.5552L23.4087 63.2852V43.2852Z" fill="#6580E1" fill-opacity="0.6"/>
<path fill-rule="evenodd" clip-rule="evenodd" d="M23.7205 43.5551L24.2141 43.3501V63.3501L23.7205 63.5551V43.5551Z" fill="#6580E1" fill-opacity="0.6"/>
<path fill-rule="evenodd" clip-rule="evenodd" d="M24.2141 43.3501L24.5519 43.4851V63.4851L24.2141 63.3501V43.3501Z" fill="#6580E1" fill-opacity="0.6"/>
<path fill-rule="evenodd" clip-rule="evenodd" d="M24.5518 43.485L25.4697 43.085V63.085L24.5518 63.485V43.485Z" fill="#6580E1" fill-opacity="0.6"/>
<path fill-rule="evenodd" clip-rule="evenodd" d="M25.4697 43.0851L26.2491 42.9951V62.9951L25.4697 63.0851V43.0851Z" fill="#6580E1" fill-opacity="0.6"/>
<path fill-rule="evenodd" clip-rule="evenodd" d="M26.2493 42.9951L29.2111 44.5051V64.5051L26.2493 62.9951V42.9951Z" fill="#6580E1" fill-opacity="0.6"/>
<path fill-rule="evenodd" clip-rule="evenodd" d="M29.2109 44.5051L29.4015 44.9751V64.9751L29.2109 64.5051V44.5051Z" fill="#6580E1" fill-opacity="0.6"/>
<path fill-rule="evenodd" clip-rule="evenodd" d="M29.4016 44.9751L30.2157 45.1451V65.1451L29.4016 64.9751V44.9751Z" fill="#6580E1" fill-opacity="0.6"/>
<path fill-rule="evenodd" clip-rule="evenodd" d="M30.2156 45.145L31.6185 46.315V66.315L30.2156 65.145V45.145Z" fill="#6580E1" fill-opacity="0.6"/>
<path fill-rule="evenodd" clip-rule="evenodd" d="M31.6184 46.3152L32.5451 47.8902V67.8902L31.6184 66.3152V46.3152Z" fill="#6580E1" fill-opacity="0.6"/>
<path fill-rule="evenodd" clip-rule="evenodd" d="M32.5452 47.8901L33.4718 48.4851V68.4851L32.5452 67.8901V47.8901Z" fill="#6580E1" fill-opacity="0.6"/>
<path fill-rule="evenodd" clip-rule="evenodd" d="M33.4719 48.4851L34.1041 49.8001V69.8001L33.4719 68.4851V48.4851Z" fill="#6580E1" fill-opacity="0.6"/>
<path fill-rule="evenodd" clip-rule="evenodd" d="M34.104 49.8L34.8141 50.4V70.4L34.104 69.8V49.8Z" fill="#6580E1" fill-opacity="0.6"/>
<path fill-rule="evenodd" clip-rule="evenodd" d="M34.8142 50.4001L34.8315 51.0301V71.0301L34.8142 70.4001V50.4001Z" fill="#6580E1" fill-opacity="0.6"/>
<path fill-rule="evenodd" clip-rule="evenodd" d="M34.8315 51.03L37.5942 52.605V72.605L34.8315 71.03V51.03Z" fill="#6580E1" fill-opacity="0.6"/>
<path fill-rule="evenodd" clip-rule="evenodd" d="M37.594 52.605L40.6078 53.395V73.395L37.594 72.605V52.605Z" fill="#6580E1" fill-opacity="0.6"/>
<path fill-rule="evenodd" clip-rule="evenodd" d="M40.6079 53.395L42.3659 55.66V75.66L40.6079 73.395V53.395Z" fill="#6580E1" fill-opacity="0.6"/>
<path fill-rule="evenodd" clip-rule="evenodd" d="M42.366 55.6602L44.3751 56.8802V76.8802L42.366 75.6602V55.6602Z" fill="#6580E1" fill-opacity="0.6"/>
<path fill-rule="evenodd" clip-rule="evenodd" d="M44.375 56.8801L48.2461 58.8051V78.8051L44.375 76.8801V56.8801Z" fill="#6580E1" fill-opacity="0.6"/>
<path fill-rule="evenodd" clip-rule="evenodd" d="M48.2461 58.8052L55.0877 61.1052V81.1052L48.2461 78.8052V58.8052Z" fill="#6580E1" fill-opacity="0.6"/>
<path fill-rule="evenodd" clip-rule="evenodd" d="M55.0879 61.105L55.2957 61.415V81.415L55.0879 81.105V61.105Z" fill="#6580E1" fill-opacity="0.6"/>
<path fill-rule="evenodd" clip-rule="evenodd" d="M55.2957 61.4151L55.6161 61.0901V81.0901L55.2957 81.4151V61.4151Z" fill="#6580E1" fill-opacity="0.6"/>
<path fill-rule="evenodd" clip-rule="evenodd" d="M55.616 61.0901L55.9451 61.3001V81.3001L55.616 81.0901V61.0901Z" fill="#6580E1" fill-opacity="0.6"/>
<path fill-rule="evenodd" clip-rule="evenodd" d="M55.9451 61.3001L56.6639 61.2551V81.2551L55.9451 81.3001V61.3001Z" fill="#6580E1" fill-opacity="0.6"/>
<path fill-rule="evenodd" clip-rule="evenodd" d="M56.6641 61.255L58.7685 60.77V80.77L56.6641 81.255V61.255Z" fill="#6580E1" fill-opacity="0.6"/>
<path fill-rule="evenodd" clip-rule="evenodd" d="M58.7683 60.77L59.6517 61.3V81.3L58.7683 80.77V60.77Z" fill="#6580E1" fill-opacity="0.6"/>
<path fill-rule="evenodd" clip-rule="evenodd" d="M59.6519 61.3002L60.6305 60.8252V80.8252L59.6519 81.3002V61.3002Z" fill="#6580E1" fill-opacity="0.6"/>
<path fill-rule="evenodd" clip-rule="evenodd" d="M60.6304 60.8252L64.4062 61.2952V81.2952L60.6304 80.8252V60.8252Z" fill="#6580E1" fill-opacity="0.6"/>
<path fill-rule="evenodd" clip-rule="evenodd" d="M64.4062 61.295L65.9391 60.21V80.21L64.4062 81.295V61.295Z" fill="#6580E1" fill-opacity="0.6"/>
<path fill-rule="evenodd" clip-rule="evenodd" d="M65.9392 60.2102L68.0177 59.6902V79.6902L65.9392 80.2102V60.2102Z" fill="#6580E1" fill-opacity="0.6"/>
<path fill-rule="evenodd" clip-rule="evenodd" d="M68.0176 59.6902L68.2254 59.8902V79.8902L68.0176 79.6902V59.6902Z" fill="#6580E1" fill-opacity="0.6"/>
<path fill-rule="evenodd" clip-rule="evenodd" d="M68.2255 59.8901L67.9224 60.4251V80.4251L68.2255 79.8901V59.8901Z" fill="#6580E1" fill-opacity="0.6"/>
<path fill-rule="evenodd" clip-rule="evenodd" d="M67.9224 60.4252L69.4725 60.4102V80.4102L67.9224 80.4252V60.4252Z" fill="#6580E1" fill-opacity="0.6"/>
<path fill-rule="evenodd" clip-rule="evenodd" d="M69.4724 60.4102L69.533 61.4652V81.4652L69.4724 80.4102V60.4102Z" fill="#6580E1" fill-opacity="0.6"/>
<path fill-rule="evenodd" clip-rule="evenodd" d="M69.5331 61.4651L68.4072 62.1151V82.1151L69.5331 81.4651V61.4651Z" fill="#6580E1" fill-opacity="0.6"/>
<path fill-rule="evenodd" clip-rule="evenodd" d="M68.4072 62.115L69.0481 62.725V82.725L68.4072 82.115V62.115Z" fill="#6580E1" fill-opacity="0.6"/>
<path fill-rule="evenodd" clip-rule="evenodd" d="M69.0481 62.7251L69.8535 63.0301V83.0301L69.0481 82.7251V62.7251Z" fill="#6580E1" fill-opacity="0.6"/>
<path fill-rule="evenodd" clip-rule="evenodd" d="M69.8534 63.03L69.7668 63.56V83.56L69.8534 83.03V63.03Z" fill="#6580E1" fill-opacity="0.6"/>
<path fill-rule="evenodd" clip-rule="evenodd" d="M69.7668 63.5601L71.4816 64.2501V84.2501L69.7668 83.5601V63.5601Z" fill="#6580E1" fill-opacity="0.6"/>
<path fill-rule="evenodd" clip-rule="evenodd" d="M71.4817 64.25L71.1179 64.59V84.59L71.4817 84.25V64.25Z" fill="#6580E1" fill-opacity="0.6"/>
<path fill-rule="evenodd" clip-rule="evenodd" d="M71.1179 64.5901L72.0619 64.8951V84.8951L71.1179 84.5901V64.5901Z" fill="#6580E1" fill-opacity="0.6"/>
<path fill-rule="evenodd" clip-rule="evenodd" d="M72.062 64.8951L72.8068 64.7551V84.7551L72.062 84.8951V64.8951Z" fill="#6580E1" fill-opacity="0.6"/>
<path fill-rule="evenodd" clip-rule="evenodd" d="M72.8066 64.7551L73.9498 65.0651V85.0651L72.8066 84.7551V64.7551Z" fill="#6580E1" fill-opacity="0.6"/>
<path fill-rule="evenodd" clip-rule="evenodd" d="M73.95 65.0652L75.0152 65.6602V85.6602L73.95 85.0652V65.0652Z" fill="#6580E1" fill-opacity="0.6"/>
<path fill-rule="evenodd" clip-rule="evenodd" d="M75.0151 65.6602L75.8032 66.4352V86.4352L75.0151 85.6602V65.6602Z" fill="#6580E1" fill-opacity="0.6"/>
<path fill-rule="evenodd" clip-rule="evenodd" d="M75.8032 66.4351L76.7818 65.9001V85.9001L75.8032 86.4351V66.4351Z" fill="#6580E1" fill-opacity="0.6"/>
<path fill-rule="evenodd" clip-rule="evenodd" d="M76.7817 65.9001L77.8036 65.9401V85.9401L76.7817 85.9001V65.9001Z" fill="#6580E1" fill-opacity="0.6"/>
<path fill-rule="evenodd" clip-rule="evenodd" d="M77.8037 65.9401L79.6743 64.8501V84.8501L77.8037 85.9401V65.9401Z" fill="#6580E1" fill-opacity="0.6"/>
<path fill-rule="evenodd" clip-rule="evenodd" d="M79.6743 64.8501L79.8995 64.8901V84.8901L79.6743 84.8501V64.8501Z" fill="#6580E1" fill-opacity="0.6"/>
<path fill-rule="evenodd" clip-rule="evenodd" d="M79.8994 64.8901L81.2851 66.2901V86.2901L79.8994 84.8901V64.8901Z" fill="#6580E1" fill-opacity="0.6"/>
<path fill-rule="evenodd" clip-rule="evenodd" d="M81.2852 66.29L83.9439 66.975V86.975L81.2852 86.29V66.29Z" fill="#6580E1" fill-opacity="0.6"/>
<path fill-rule="evenodd" clip-rule="evenodd" d="M83.9438 66.9751L84.1257 67.3601V87.3601L83.9438 86.9751V66.9751Z" fill="#6580E1" fill-opacity="0.6"/>
<path fill-rule="evenodd" clip-rule="evenodd" d="M84.1257 67.3601L86.1003 68.6401V88.6401L84.1257 87.3601V67.3601Z" fill="#6580E1" fill-opacity="0.6"/>
<path fill-rule="evenodd" clip-rule="evenodd" d="M86.1001 68.6401L92.2229 70.4951V90.4951L86.1001 88.6401V68.6401Z" fill="#6580E1" fill-opacity="0.6"/>
<path fill-rule="evenodd" clip-rule="evenodd" d="M92.2229 70.4951L93.3141 71.2351V91.2351L92.2229 90.4951V70.4951Z" fill="#6580E1" fill-opacity="0.6"/>
<path fill-rule="evenodd" clip-rule="evenodd" d="M93.3142 71.2351L96.1548 70.4951V90.4951L93.3142 91.2351V71.2351Z" fill="#6580E1" fill-opacity="0.6"/>
<path fill-rule="evenodd" clip-rule="evenodd" d="M96.1548 70.4951L102.641 70.3301V90.3301L96.1548 90.4951V70.4951Z" fill="#6580E1" fill-opacity="0.6"/>
<path fill-rule="evenodd" clip-rule="evenodd" d="M102.641 70.3301L104.477 70.5501V90.5501L102.641 90.3301V70.3301Z" fill="#6580E1" fill-opacity="0.6"/>
<path fill-rule="evenodd" clip-rule="evenodd" d="M104.477 70.55L108.426 71.47V91.47L104.477 90.55V70.55Z" fill="#6580E1" fill-opacity="0.6"/>
<path fill-rule="evenodd" clip-rule="evenodd" d="M108.426 71.4702L108.998 71.4102V91.4102L108.426 91.4702V71.4702Z" fill="#6580E1" fill-opacity="0.6"/>
<path fill-rule="evenodd" clip-rule="evenodd" d="M108.998 71.4101L111.172 70.5151V90.5151L108.998 91.4101V71.4101Z" fill="#6580E1" fill-opacity="0.6"/>
<path fill-rule="evenodd" clip-rule="evenodd" d="M111.172 70.515L112.341 70.22V90.22L111.172 90.515V70.515Z" fill="#6580E1" fill-opacity="0.6"/>
<path fill-rule="evenodd" clip-rule="evenodd" d="M112.341 70.22L114.662 70.24V90.24L112.341 90.22V70.22Z" fill="#6580E1" fill-opacity="0.6"/>
<path fill-rule="evenodd" clip-rule="evenodd" d="M114.662 70.24L115.701 70.43V90.43L114.662 90.24V70.24Z" fill="#6580E1" fill-opacity="0.6"/>
<path fill-rule="evenodd" clip-rule="evenodd" d="M115.701 70.4301L118.55 69.9851V89.9851L115.701 90.4301V70.4301Z" fill="#6580E1" fill-opacity="0.6"/>
<path fill-rule="evenodd" clip-rule="evenodd" d="M118.55 69.9852L120.689 69.1902V89.1902L118.55 89.9852V69.9852Z" fill="#6580E1" fill-opacity="0.6"/>
<path fill-rule="evenodd" clip-rule="evenodd" d="M120.689 69.19L121.495 68.645V88.645L120.689 89.19V69.19Z" fill="#6580E1" fill-opacity="0.6"/>
<path fill-rule="evenodd" clip-rule="evenodd" d="M121.495 68.645L121.85 67.74V87.74L121.495 88.645V68.645Z" fill="#6580E1" fill-opacity="0.6"/>
<path fill-rule="evenodd" clip-rule="evenodd" d="M121.85 67.74L123.261 67.855V87.855L121.85 87.74V67.74Z" fill="#6580E1" fill-opacity="0.6"/>
<path fill-rule="evenodd" clip-rule="evenodd" d="M123.261 67.855L123.937 64.915V84.915L123.261 87.855V67.855Z" fill="#6580E1" fill-opacity="0.6"/>
<path fill-rule="evenodd" clip-rule="evenodd" d="M123.937 64.9152L125.279 64.1702V84.1702L123.937 84.9152V64.9152Z" fill="#6580E1" fill-opacity="0.6"/>
<path fill-rule="evenodd" clip-rule="evenodd" d="M125.279 64.1701L128.89 63.4951V83.4951L125.279 84.1701V64.1701Z" fill="#6580E1" fill-opacity="0.6"/>
<path fill-rule="evenodd" clip-rule="evenodd" d="M128.89 63.4951L129.124 60.4001V80.4001L128.89 83.4951V63.4951Z" fill="#6580E1" fill-opacity="0.6"/>
<path fill-rule="evenodd" clip-rule="evenodd" d="M129.124 60.4L129.575 60.24V80.24L129.124 80.4V60.4Z" fill="#6580E1" fill-opacity="0.6"/>
<path fill-rule="evenodd" clip-rule="evenodd" d="M129.575 60.2402L128.362 58.9302V78.9302L129.575 80.2402V60.2402Z" fill="#6580E1" fill-opacity="0.6"/>
<path fill-rule="evenodd" clip-rule="evenodd" d="M128.362 58.9301L129.497 56.7251V76.7251L128.362 78.9301V58.9301Z" fill="#6580E1" fill-opacity="0.6"/>
<path fill-rule="evenodd" clip-rule="evenodd" d="M129.497 56.725L135.109 51.855V71.855L129.497 76.725V56.725Z" fill="#6580E1" fill-opacity="0.6"/>
<path fill-rule="evenodd" clip-rule="evenodd" d="M135.109 51.8551L137.845 50.9551V70.9551L135.109 71.8551V51.8551Z" fill="#6580E1" fill-opacity="0.6"/>
<path fill-rule="evenodd" clip-rule="evenodd" d="M137.845 50.9552L137.759 49.7852V69.7852L137.845 70.9552V50.9552Z" fill="#6580E1" fill-opacity="0.6"/>
<path fill-rule="evenodd" clip-rule="evenodd" d="M137.759 49.7852L140.218 45.7952V65.7952L137.759 69.7852V49.7852Z" fill="#6580E1" fill-opacity="0.6"/>
<path fill-rule="evenodd" clip-rule="evenodd" d="M140.218 45.7952L143.145 43.5752V63.5752L140.218 65.7952V45.7952Z" fill="#6580E1" fill-opacity="0.6"/>
<path fill-rule="evenodd" clip-rule="evenodd" d="M143.145 43.5751L143.596 42.4651V62.4651L143.145 63.5751V43.5751Z" fill="#6580E1" fill-opacity="0.6"/>
<path fill-rule="evenodd" clip-rule="evenodd" d="M143.595 42.465L143.154 41.51V61.51L143.595 62.465V42.465Z" fill="#6580E1" fill-opacity="0.6"/>
<path fill-rule="evenodd" clip-rule="evenodd" d="M143.154 41.51L141.335 41.56V61.56L143.154 61.51V41.51Z" fill="#6580E1" fill-opacity="0.6"/>
<path fill-rule="evenodd" clip-rule="evenodd" d="M141.335 41.5602L141.093 40.9502V60.9502L141.335 61.5602V41.5602Z" fill="#6580E1" fill-opacity="0.6"/>
<path fill-rule="evenodd" clip-rule="evenodd" d="M141.093 40.9502L140.053 41.0502V61.0502L141.093 60.9502V40.9502Z" fill="#6580E1" fill-opacity="0.6"/>
<path fill-rule="evenodd" clip-rule="evenodd" d="M140.054 41.05L139.517 41.55V61.55L140.054 61.05V41.05Z" fill="#6580E1" fill-opacity="0.6"/>
<path fill-rule="evenodd" clip-rule="evenodd" d="M139.517 41.55L138.529 40.78V60.78L139.517 61.55V41.55Z" fill="#6580E1" fill-opacity="0.6"/>
<path fill-rule="evenodd" clip-rule="evenodd" d="M138.529 40.7802L138.408 40.4502V60.4502L138.529 60.7802V40.7802Z" fill="#6580E1" fill-opacity="0.6"/>
<path fill-rule="evenodd" clip-rule="evenodd" d="M138.408 40.4501L138.547 39.8401V59.8401L138.408 60.4501V40.4501Z" fill="#6580E1" fill-opacity="0.6"/>
<path fill-rule="evenodd" clip-rule="evenodd" d="M138.547 39.8401L139.421 39.7751V59.7751L138.547 59.8401V39.8401Z" fill="#6580E1" fill-opacity="0.6"/>
<path fill-rule="evenodd" clip-rule="evenodd" d="M139.421 39.7751L139.517 39.6401V59.6401L139.421 59.7751V39.7751Z" fill="#6580E1" fill-opacity="0.6"/>
<path fill-rule="evenodd" clip-rule="evenodd" d="M139.517 39.6401L139.482 38.8501V58.8501L139.517 59.6401V39.6401Z" fill="#6580E1" fill-opacity="0.6"/>
<path fill-rule="evenodd" clip-rule="evenodd" d="M139.482 38.85L143.37 37.345V57.345L139.482 58.85V38.85Z" fill="#6580E1" fill-opacity="0.6"/>
<path fill-rule="evenodd" clip-rule="evenodd" d="M143.37 37.345L144.262 37.23V57.23L143.37 57.345V37.345Z" fill="#6580E1" fill-opacity="0.6"/>
<path fill-rule="evenodd" clip-rule="evenodd" d="M144.262 37.2301L144.297 37.0701V57.0701L144.262 57.2301V37.2301Z" fill="#6580E1" fill-opacity="0.6"/>
<path fill-rule="evenodd" clip-rule="evenodd" d="M144.297 37.07L144.271 36.865V56.865L144.297 57.07V37.07Z" fill="#6580E1" fill-opacity="0.6"/>
<path fill-rule="evenodd" clip-rule="evenodd" d="M144.271 36.8651L143.474 36.4851V56.4851L144.271 56.8651V36.8651Z" fill="#6580E1" fill-opacity="0.6"/>
<path fill-rule="evenodd" clip-rule="evenodd" d="M143.474 36.485L143.258 35.26V55.26L143.474 56.485V36.485Z" fill="#6580E1" fill-opacity="0.6"/>
<path fill-rule="evenodd" clip-rule="evenodd" d="M143.258 35.2601L142.565 34.5701V54.5701L143.258 55.2601V35.2601Z" fill="#6580E1" fill-opacity="0.6"/>
<path fill-rule="evenodd" clip-rule="evenodd" d="M142.565 34.5701L142.729 34.4851V54.4851L142.565 54.5701V34.5701Z" fill="#6580E1" fill-opacity="0.6"/>
<path fill-rule="evenodd" clip-rule="evenodd" d="M142.729 34.4851L143.873 34.8751V54.8751L142.729 54.4851V34.4851Z" fill="#6580E1" fill-opacity="0.6"/>
<path fill-rule="evenodd" clip-rule="evenodd" d="M143.873 34.875L144.41 34.395V54.395L143.873 54.875V34.875Z" fill="#6580E1" fill-opacity="0.6"/>
<path fill-rule="evenodd" clip-rule="evenodd" d="M144.41 34.395L144.029 33.845V53.845L144.41 54.395V34.395Z" fill="#6580E1" fill-opacity="0.6"/>
<path fill-rule="evenodd" clip-rule="evenodd" d="M144.029 33.845L144.003 31.76V51.76L144.029 53.845V33.845Z" fill="#6580E1" fill-opacity="0.6"/>
<path fill-rule="evenodd" clip-rule="evenodd" d="M144.003 31.76L144.756 31.385V51.385L144.003 51.76V31.76Z" fill="#6580E1" fill-opacity="0.6"/>
<path fill-rule="evenodd" clip-rule="evenodd" d="M144.756 31.3852L143.925 29.2852V49.2852L144.756 51.3852V31.3852Z" fill="#6580E1" fill-opacity="0.6"/>
<path fill-rule="evenodd" clip-rule="evenodd" d="M143.925 29.2851L144.34 26.7251V46.7251L143.925 49.2851V29.2851Z" fill="#6580E1" fill-opacity="0.6"/>
<path fill-rule="evenodd" clip-rule="evenodd" d="M144.34 26.725L141.708 24.595V44.595L144.34 46.725V26.725Z" fill="#6580E1" fill-opacity="0.6"/>
<path fill-rule="evenodd" clip-rule="evenodd" d="M141.708 24.5951L141.621 23.9651V43.9651L141.708 44.5951V24.5951Z" fill="#6580E1" fill-opacity="0.6"/>
<path fill-rule="evenodd" clip-rule="evenodd" d="M141.621 23.9651L140.954 24.0601V44.0601L141.621 43.9651V23.9651Z" fill="#6580E1" fill-opacity="0.6"/>
<path d="M140.954 24.06L138.833 24.885L137.23 24.7L137.707 25.295L137.317 25.47L136.035 25.55L134.866 25.415L135.351 24.565L133.957 24.6L132.623 23.56L132.268 23.535L132.104 23.61L132.381 24.21L132.831 24.43L133.195 25.28L131.359 25.6L131.16 24.245L130.796 24.195L130.623 23.625L130.198 23.53L129.627 22.8L129.505 23.22L128.371 23.405L127.54 23.895L127.358 24.32L127.029 24.27L125.245 24.84L125.019 24.61L124.379 24.74L123.998 25.74L122.335 26.4L121.581 26.035L121.373 25.125L120.698 24.885L120.603 24.45L119.52 24.645L119.512 25.34L118.801 25.7L118.533 25.495L116.957 25.325L116.273 25.51L116.688 26.48L115.502 27.205L115.961 28.15L115.848 28.475L115 28.615L114.523 29L115.848 30.005L114.93 30.995L113.086 31.91L113.345 32.36L117.294 32.97L116.247 38.445L114.93 39.205L113.744 39.43L111.761 39.505L110.055 38.52L108.08 35.4L106.764 34.34L105.976 32.665L105.317 32.285L103.074 31.6L99.922 29.78L98.9607 26.695L98.4931 26.835L98.7442 25.2L98.5104 24.525L97.8782 24.94L97.2893 24.11L96.328 24.145L96.1635 23.91L96.6744 23.095L96.8649 22.055L96.2674 20.88L97.1507 20.22L99.2465 20.13L99.3937 19.745L97.9735 18.415L98.5797 17.805L98.3805 16.94L98.9174 15.89L99.056 13.88L97.4798 11.46L98.0081 10.925L97.757 10.78L97.5751 9.845L97.8609 9.43L97.3499 9.035L97.9128 8.57999L98.1553 7.78999L97.2373 7.77L97.4972 8.40999L96.8649 8.605L96.4752 8.33L96.0595 8.87L95.488 8.53L93.8512 8.365L91.9632 8.895L91.8766 8.645L91.5475 8.575L91.7207 7.945L92.0325 7.745L91.435 7.35L90.1879 7.79L89.7462 7.665L89.9194 7.445L90.7508 7.385L90.7854 7.145L89.7722 7.11L89.062 7.66L88.5078 7.14L89.0188 7.035L89.7722 6.28L89.8415 4.63L89.5124 4.97L88.9668 4.885L88.248 5.18L87.7803 4.72L86.2388 4.99L84.3682 4L84.8185 2.93L84.6193 2.885L83.4848 2.98L82.9826 4L81.6142 4.27L81.9606 3.48L81.6489 2.76L81.7268 2.035L82.1079 1.595L81.545 1.67L81.06 1.51L80.2113 1.59L79.7436 1.46L78.5658 1.63L78.2108 2.345L75.1883 1.86L75.4308 0L74.7207 0.06L73.7507 0.83L71.6982 1.225L71.3345 4.375L67.6279 3.135L67.039 3.615H66.5714L65.9652 4.525L65.5495 4.405L65.3243 4.495L63.2025 3.82L63.0986 4.59L61.9901 5.03L60.8383 6.145L60.8556 6.725L59.7211 7.15L58.8637 6.965L58.7512 6.56L59.444 5.91L58.9503 5.885V5.665L59.6692 3.77L58.4567 3.75999L58.3528 3.53999L57.9284 3.875L56.7506 3.37499L56.1704 4.25L54.7761 4.21499L54.6722 3.955L53.7542 4.145L53.5377 3.93L54.1526 3.595L54.3258 3.365L54.1439 3.28L53.2952 3.31999L52.6717 3.67L51.2947 2.94499L51.1128 3.06L49.4847 2.86V2.36L42.1148 3.645L38.8326 11.69L35.6716 11.205L34.26 11.73L33.8529 12.205L32.5452 12.99L30.8218 13.435L31.913 13.675L32.5019 14.165L31.6013 14.515L31.073 15.35L30.3888 15.425L29.9038 15.855L29.211 15.995L28.4662 16.535L27.7734 16.565L28.4749 17.26L28.7174 17.93L28.1805 19.43L26.968 21.29L27.046 21.595L25.643 23.115L23.781 23.89L23.5905 23.76L23.6079 23.91L22.3348 24.455L22.7245 24.42L22.6206 24.55L21.3389 25.03L20.2044 23.485L20.0398 22.57L19.3124 21.71L18.9227 22.035L18.4463 22.01L18.1259 22.215L17.2339 22.07L16.5151 22.605L15.6404 22.62L15.4932 22.445L15.0602 22.565L14.7571 22.42L12.7999 23.65L12.7046 23.235L11.6047 22.52L11.8386 22.755L11.5614 23.305L10.6088 23.805L10.323 24.14L10.5742 24.335L9.26646 24.87L8.43509 24.59L7.78557 25.215L8.63427 25.805L9.70815 25.245L9.91599 25.345L9.24914 25.94L9.78608 26.11L9.58689 26.465L7.35256 25.045L6.98882 25.225L6.55581 26.155L5.92361 26.79L3.37749 26.66L2.77993 27.705L2.68467 29.51L0.251147 29.785L0 30.02L1.05654 30.42L0.31176 30.85L0.285788 33.015L0.554256 33.37L0.969948 33.38L2.4162 34.385L2.71931 34.63L2.26898 35.36L0.883346 36.37L0.640859 36.78L1.82731 37.115L1.95722 37.62L5.04893 38.065L3.38616 40.265L0.995929 40.385L1.03057 41.355L4.70252 41.915L5.70711 41.815L7.67299 41.13L10.6002 41.81L11.6134 42.265L9.83805 43.8L9.49164 43.86L9.37906 44.875L8.74686 45.55L6.755 46.2L8.34848 49.23L10.4096 50.15L11.5355 50.23L11.8212 50.685L13.6139 51.58L14.5406 51.805L15.6491 52.505L17.1386 52.675L17.0607 53.15L18.3251 53.62L18.8794 53.56L19.7021 52.995L20.8885 53.21L21.4168 52.835L20.5681 52.515L20.4555 51.51L20.646 51.16L21.2782 50.985L22.4127 51.09L22.8198 49.565L23.911 48.395L23.4953 48.355L23.5212 48.11L22.7505 47.295L22.8891 46.705L23.9543 47.38L24.5258 47.12L23.5732 46.1L22.7678 45.735L22.075 45.645L21.5034 45.115L20.7846 45.41L19.9792 43.985L19.7627 42.59L19.2604 42.28L18.1606 42.105L17.3118 41.455L18.0566 41.235L19.6674 41.505L21.3822 41.195L21.7719 41.79L22.534 42.21L22.3954 42.87L22.7591 43.16L23.4087 43.285L23.7204 43.555L24.2141 43.35L24.5518 43.485L25.4698 43.085L26.2492 42.995L29.211 44.505L29.4016 44.975L30.2156 45.145L31.6186 46.315L32.5452 47.89L33.4719 48.485L34.1041 49.8L34.8142 50.4L34.8315 51.03L37.5942 52.605L40.6079 53.395L42.366 55.66L44.3751 56.88L48.2463 58.805L55.0879 61.105L55.2957 61.415L55.6161 61.09L55.9452 61.3L56.664 61.255L58.7685 60.77L59.6518 61.3L60.6304 60.825L64.4063 61.295L65.9392 60.21L68.0176 59.69L68.2255 59.89L67.9224 60.425L69.4726 60.41L69.5332 61.465L68.4073 62.115L69.0482 62.725L69.8536 63.03L69.767 63.56L71.4817 64.25L71.118 64.59L72.062 64.895L72.8068 64.755L73.9499 65.065L75.0151 65.66L75.8032 66.435L76.7818 65.9L77.8037 65.94L79.6743 64.85L79.8995 64.89L81.2851 66.29L83.9438 66.975L84.1257 67.36L86.1002 68.64L92.223 70.495L93.3142 71.235L96.1548 70.495L102.641 70.33L104.477 70.55L108.426 71.47L108.998 71.41L111.172 70.515L112.341 70.22L114.662 70.24L115.701 70.43L118.55 69.985L120.689 69.19L121.495 68.645L121.85 67.74L123.261 67.855L123.937 64.915L125.279 64.17L128.891 63.495L129.124 60.4L129.575 60.24L128.362 58.93L129.497 56.725L135.109 51.855L137.845 50.955L137.759 49.785L140.218 45.795L143.145 43.575L143.596 42.465L143.154 41.51L141.335 41.56L141.093 40.95L140.054 41.05L139.517 41.55L138.529 40.78L138.408 40.45L138.547 39.84L139.421 39.775L139.517 39.64L139.482 38.85L143.37 37.345L144.263 37.23L144.297 37.07L144.271 36.865L143.474 36.485L143.258 35.26L142.565 34.57L142.73 34.485L143.873 34.875L144.41 34.395L144.029 33.845L144.003 31.76L144.756 31.385L143.925 29.285L144.34 26.725L141.708 24.595L141.621 23.965L140.954 24.06Z" fill="white"/>
</svg>
