<svg width="99" height="86" viewBox="0 0 99 86" fill="none" xmlns="http://www.w3.org/2000/svg">
<path fill-rule="evenodd" clip-rule="evenodd" d="M5.12521 68.9243L4.4956 67.967L3.79761 82.5852L4.42722 83.5424L5.12521 68.9243Z" fill="#6580E1" fill-opacity="0.6"/>
<path fill-rule="evenodd" clip-rule="evenodd" d="M4.4956 67.967L5.20516 67.0713L4.50717 81.6895L3.79761 82.5852L4.4956 67.967Z" fill="#6580E1" fill-opacity="0.6"/>
<path fill-rule="evenodd" clip-rule="evenodd" d="M5.2053 67.0713L4.42577 65.21L3.72778 79.8281L4.50731 81.6894L5.2053 67.0713Z" fill="#6580E1" fill-opacity="0.6"/>
<path fill-rule="evenodd" clip-rule="evenodd" d="M4.42577 65.21L4.95545 64.5347L4.25746 79.1528L3.72778 79.8281L4.42577 65.21Z" fill="#6580E1" fill-opacity="0.6"/>
<path fill-rule="evenodd" clip-rule="evenodd" d="M4.95549 64.5348L4.91552 62.9106L4.21753 77.5288L4.2575 79.153L4.95549 64.5348Z" fill="#6580E1" fill-opacity="0.6"/>
<path fill-rule="evenodd" clip-rule="evenodd" d="M4.91552 62.9106L5.71503 63.2857L5.01704 77.9039L4.21753 77.5288L4.91552 62.9106Z" fill="#6580E1" fill-opacity="0.6"/>
<path fill-rule="evenodd" clip-rule="evenodd" d="M5.71484 63.2857L6.15458 62.9968L5.45659 77.615L5.01685 77.9038L5.71484 63.2857Z" fill="#6580E1" fill-opacity="0.6"/>
<path fill-rule="evenodd" clip-rule="evenodd" d="M6.15478 62.9968L6.32466 63.2058L5.62667 77.8239L5.45679 77.615L6.15478 62.9968Z" fill="#6580E1" fill-opacity="0.6"/>
<path fill-rule="evenodd" clip-rule="evenodd" d="M6.32466 63.2058L6.14477 63.399L5.44678 78.0172L5.62667 77.824L6.32466 63.2058Z" fill="#6580E1" fill-opacity="0.6"/>
<path fill-rule="evenodd" clip-rule="evenodd" d="M6.14477 63.3989L6.57451 63.1985L5.87652 77.8167L5.44678 78.0171L6.14477 63.3989Z" fill="#6580E1" fill-opacity="0.6"/>
<path fill-rule="evenodd" clip-rule="evenodd" d="M6.57445 63.1985L6.88427 62.1221L6.18628 76.7402L5.87646 77.8167L6.57445 63.1985Z" fill="#6580E1" fill-opacity="0.6"/>
<path fill-rule="evenodd" clip-rule="evenodd" d="M6.88429 62.122L5.66503 61.1633L4.96704 75.7815L6.1863 76.7402L6.88429 62.122Z" fill="#6580E1" fill-opacity="0.6"/>
<path fill-rule="evenodd" clip-rule="evenodd" d="M5.66503 61.1634L7.01421 59.9976L6.31622 74.6157L4.96704 75.7816L5.66503 61.1634Z" fill="#6580E1" fill-opacity="0.6"/>
<path fill-rule="evenodd" clip-rule="evenodd" d="M7.01415 59.9976L8.88301 59.793L8.18502 74.4111L6.31616 74.6157L7.01415 59.9976Z" fill="#6580E1" fill-opacity="0.6"/>
<path fill-rule="evenodd" clip-rule="evenodd" d="M8.88297 59.793L8.06347 58.9604L7.36548 73.5786L8.18498 74.4111L8.88297 59.793Z" fill="#6580E1" fill-opacity="0.6"/>
<path fill-rule="evenodd" clip-rule="evenodd" d="M8.06344 58.9604L7.89355 58.6628L7.19556 73.281L7.36545 73.5786L8.06344 58.9604Z" fill="#6580E1" fill-opacity="0.6"/>
<path fill-rule="evenodd" clip-rule="evenodd" d="M7.89355 58.6627L8.02347 58.5637L7.32548 73.1819L7.19556 73.2809L7.89355 58.6627Z" fill="#6580E1" fill-opacity="0.6"/>
<path fill-rule="evenodd" clip-rule="evenodd" d="M8.02354 58.5638L7.63378 58.0901L6.93579 72.7083L7.32555 73.182L8.02354 58.5638Z" fill="#6580E1" fill-opacity="0.6"/>
<path fill-rule="evenodd" clip-rule="evenodd" d="M7.63379 58.0901L6.72436 57.7463L6.02637 72.3645L6.9358 72.7083L7.63379 58.0901Z" fill="#6580E1" fill-opacity="0.6"/>
<path fill-rule="evenodd" clip-rule="evenodd" d="M6.72436 57.7463L6.83428 57.5854L6.13629 72.2036L6.02637 72.3645L6.72436 57.7463Z" fill="#6580E1" fill-opacity="0.6"/>
<path fill-rule="evenodd" clip-rule="evenodd" d="M6.83418 57.5853L6.50439 57.4746L5.8064 72.0928L6.13619 72.2035L6.83418 57.5853Z" fill="#6580E1" fill-opacity="0.6"/>
<path fill-rule="evenodd" clip-rule="evenodd" d="M6.50443 57.4746L6.2246 57.6925L5.52661 72.3107L5.80644 72.0928L6.50443 57.4746Z" fill="#6580E1" fill-opacity="0.6"/>
<path fill-rule="evenodd" clip-rule="evenodd" d="M6.2246 57.6926L6.33452 57.825L5.63653 72.4432L5.52661 72.3108L6.2246 57.6926Z" fill="#6580E1" fill-opacity="0.6"/>
<path fill-rule="evenodd" clip-rule="evenodd" d="M6.33468 57.8249L5.85497 57.7717L5.15698 72.3899L5.63669 72.4431L6.33468 57.8249Z" fill="#6580E1" fill-opacity="0.6"/>
<path fill-rule="evenodd" clip-rule="evenodd" d="M5.8548 57.7718L5.75487 57.0122L5.05688 71.6304L5.15681 72.3899L5.8548 57.7718Z" fill="#6580E1" fill-opacity="0.6"/>
<path fill-rule="evenodd" clip-rule="evenodd" d="M5.75487 57.0124L6.14463 54.9832L5.44664 69.6013L5.05688 71.6305L5.75487 57.0124Z" fill="#6580E1" fill-opacity="0.6"/>
<path fill-rule="evenodd" clip-rule="evenodd" d="M6.14456 54.9831L5.70483 54.5422L5.00684 69.1604L5.44657 69.6013L6.14456 54.9831Z" fill="#6580E1" fill-opacity="0.6"/>
<path fill-rule="evenodd" clip-rule="evenodd" d="M5.70483 54.5421L5.80476 54.2378L5.10678 68.856L5.00684 69.1603L5.70483 54.5421Z" fill="#6580E1" fill-opacity="0.6"/>
<path fill-rule="evenodd" clip-rule="evenodd" d="M5.80492 54.2379L6.23466 54.0852L5.53667 68.7034L5.10693 68.8561L5.80492 54.2379Z" fill="#6580E1" fill-opacity="0.6"/>
<path fill-rule="evenodd" clip-rule="evenodd" d="M6.23461 54.0852L6.29458 53.3911L5.59659 68.0093L5.53662 68.7034L6.23461 54.0852Z" fill="#6580E1" fill-opacity="0.6"/>
<path fill-rule="evenodd" clip-rule="evenodd" d="M6.29468 53.3911L5.06542 52.7595L4.36743 67.3777L5.59669 68.0092L6.29468 53.3911Z" fill="#6580E1" fill-opacity="0.6"/>
<path fill-rule="evenodd" clip-rule="evenodd" d="M5.06532 52.7595L4.38573 52.8786L3.68774 67.4967L4.36733 67.3777L5.06532 52.7595Z" fill="#6580E1" fill-opacity="0.6"/>
<path fill-rule="evenodd" clip-rule="evenodd" d="M4.38573 52.8784L4.46569 53.0851L3.7677 67.7032L3.68774 67.4966L4.38573 52.8784Z" fill="#6580E1" fill-opacity="0.6"/>
<path fill-rule="evenodd" clip-rule="evenodd" d="M4.46569 53.0852L4.23583 53.1407L3.53784 67.7589L3.7677 67.7034L4.46569 53.0852Z" fill="#6580E1" fill-opacity="0.6"/>
<path fill-rule="evenodd" clip-rule="evenodd" d="M4.23574 53.1406L4.18578 52.8938L3.48779 67.512L3.53775 67.7588L4.23574 53.1406Z" fill="#6580E1" fill-opacity="0.6"/>
<path fill-rule="evenodd" clip-rule="evenodd" d="M4.18587 52.8938L2.23705 53.0964L1.53906 67.7145L3.48788 67.512L4.18587 52.8938Z" fill="#6580E1" fill-opacity="0.6"/>
<path fill-rule="evenodd" clip-rule="evenodd" d="M2.23704 53.0965L1.76733 52.3616L1.06934 66.9797L1.53905 67.7147L2.23704 53.0965Z" fill="#6580E1" fill-opacity="0.6"/>
<path fill-rule="evenodd" clip-rule="evenodd" d="M1.76727 52.3614L1.11767 52.072L0.419678 66.6902L1.06928 66.9796L1.76727 52.3614Z" fill="#6580E1" fill-opacity="0.6"/>
<path fill-rule="evenodd" clip-rule="evenodd" d="M1.11767 52.0722L1.97715 51.3098L1.27916 65.928L0.419678 66.6903L1.11767 52.0722Z" fill="#6580E1" fill-opacity="0.6"/>
<path fill-rule="evenodd" clip-rule="evenodd" d="M1.9773 51.3099L1.82738 49.2737L1.12939 63.8918L1.27931 65.928L1.9773 51.3099Z" fill="#6580E1" fill-opacity="0.6"/>
<path fill-rule="evenodd" clip-rule="evenodd" d="M1.8273 49.2735L0.69799 48.6514L0 63.2695L1.12931 63.8917L1.8273 49.2735Z" fill="#6580E1" fill-opacity="0.6"/>
<path fill-rule="evenodd" clip-rule="evenodd" d="M0.69799 48.6513L0.937849 48.4324L0.239859 63.0505L0 63.2695L0.69799 48.6513Z" fill="#6580E1" fill-opacity="0.6"/>
<path fill-rule="evenodd" clip-rule="evenodd" d="M0.937736 48.4324L1.78721 48.8564L1.08922 63.4746L0.239746 63.0505L0.937736 48.4324Z" fill="#6580E1" fill-opacity="0.6"/>
<path fill-rule="evenodd" clip-rule="evenodd" d="M1.78735 48.8565L3.90606 44.5254L3.20807 59.1436L1.08936 63.4747L1.78735 48.8565Z" fill="#6580E1" fill-opacity="0.6"/>
<path fill-rule="evenodd" clip-rule="evenodd" d="M3.906 44.5255L3.99593 43.7639L3.29794 58.3821L3.20801 59.1436L3.906 44.5255Z" fill="#6580E1" fill-opacity="0.6"/>
<path fill-rule="evenodd" clip-rule="evenodd" d="M3.99598 43.7638L3.47631 43.6619L2.77832 58.28L3.29799 58.382L3.99598 43.7638Z" fill="#6580E1" fill-opacity="0.6"/>
<path fill-rule="evenodd" clip-rule="evenodd" d="M3.47627 43.6619L3.29638 41.4817L2.59839 56.0999L2.77828 58.28L3.47627 43.6619Z" fill="#6580E1" fill-opacity="0.6"/>
<path fill-rule="evenodd" clip-rule="evenodd" d="M3.29638 41.4817L4.36573 41.1953L3.66774 55.8135L2.59839 56.0999L3.29638 41.4817Z" fill="#6580E1" fill-opacity="0.6"/>
<path fill-rule="evenodd" clip-rule="evenodd" d="M4.36571 41.1954L5.11526 40.6689L4.41727 55.2871L3.66772 55.8136L4.36571 41.1954Z" fill="#6580E1" fill-opacity="0.6"/>
<path fill-rule="evenodd" clip-rule="evenodd" d="M5.11523 40.6688L5.33508 40.0061L4.63709 54.6243L4.41724 55.287L5.11523 40.6688Z" fill="#6580E1" fill-opacity="0.6"/>
<path fill-rule="evenodd" clip-rule="evenodd" d="M5.3352 40.0062L5.83489 39.7598L5.1369 54.3779L4.63721 54.6243L5.3352 40.0062Z" fill="#6580E1" fill-opacity="0.6"/>
<path fill-rule="evenodd" clip-rule="evenodd" d="M5.83495 39.7599L6.34464 39.7388L5.64665 54.3569L5.13696 54.378L5.83495 39.7599Z" fill="#6580E1" fill-opacity="0.6"/>
<path fill-rule="evenodd" clip-rule="evenodd" d="M6.34451 39.7386L6.21459 39.6194L5.5166 54.2375L5.64652 54.3568L6.34451 39.7386Z" fill="#6580E1" fill-opacity="0.6"/>
<path fill-rule="evenodd" clip-rule="evenodd" d="M6.21459 39.6195L6.78424 39.2043L6.08625 53.8225L5.5166 54.2376L6.21459 39.6195Z" fill="#6580E1" fill-opacity="0.6"/>
<path fill-rule="evenodd" clip-rule="evenodd" d="M6.7843 39.2042L6.71435 39.1001L6.01636 53.7183L6.08631 53.8223L6.7843 39.2042Z" fill="#6580E1" fill-opacity="0.6"/>
<path fill-rule="evenodd" clip-rule="evenodd" d="M6.71435 39.1001L6.9642 39.1133L6.26621 53.7315L6.01636 53.7183L6.71435 39.1001Z" fill="#6580E1" fill-opacity="0.6"/>
<path fill-rule="evenodd" clip-rule="evenodd" d="M6.9641 39.1133L7.61372 38.7139L6.91573 53.332L6.26611 53.7315L6.9641 39.1133Z" fill="#6580E1" fill-opacity="0.6"/>
<path fill-rule="evenodd" clip-rule="evenodd" d="M7.61378 38.714L7.47387 38.5945L6.77588 53.2126L6.91579 53.3322L7.61378 38.714Z" fill="#6580E1" fill-opacity="0.6"/>
<path fill-rule="evenodd" clip-rule="evenodd" d="M7.47387 38.5944L7.8936 38.3323L7.19561 52.9504L6.77588 53.2125L7.47387 38.5944Z" fill="#6580E1" fill-opacity="0.6"/>
<path fill-rule="evenodd" clip-rule="evenodd" d="M7.89355 38.3324L8.17338 37.3779L7.47539 51.9961L7.19556 52.9506L7.89355 38.3324Z" fill="#6580E1" fill-opacity="0.6"/>
<path fill-rule="evenodd" clip-rule="evenodd" d="M8.17333 37.3779L8.37321 37.6695L7.67522 52.2876L7.47534 51.9961L8.17333 37.3779Z" fill="#6580E1" fill-opacity="0.6"/>
<path fill-rule="evenodd" clip-rule="evenodd" d="M8.37334 37.6694L8.10351 38.1331L7.40552 52.7513L7.67535 52.2876L8.37334 37.6694Z" fill="#6580E1" fill-opacity="0.6"/>
<path fill-rule="evenodd" clip-rule="evenodd" d="M8.10351 38.1331L8.40333 38.2226L7.70534 52.8407L7.40552 52.7512L8.10351 38.1331Z" fill="#6580E1" fill-opacity="0.6"/>
<path fill-rule="evenodd" clip-rule="evenodd" d="M8.40331 38.2226L9.72251 37.4175L9.02452 52.0356L7.70532 52.8408L8.40331 38.2226Z" fill="#6580E1" fill-opacity="0.6"/>
<path fill-rule="evenodd" clip-rule="evenodd" d="M9.72262 37.4175L8.31347 36.0789L7.61548 50.697L9.02463 52.0356L9.72262 37.4175Z" fill="#6580E1" fill-opacity="0.6"/>
<path fill-rule="evenodd" clip-rule="evenodd" d="M8.3133 36.0788L7.75365 34.4277L7.05566 49.0459L7.61531 50.697L8.3133 36.0788Z" fill="#6580E1" fill-opacity="0.6"/>
<path fill-rule="evenodd" clip-rule="evenodd" d="M7.75363 34.4277L7.73363 31.365L7.03564 45.9832L7.05564 49.0458L7.75363 34.4277Z" fill="#6580E1" fill-opacity="0.6"/>
<path fill-rule="evenodd" clip-rule="evenodd" d="M7.73363 31.365L8.85295 30.1523L8.15496 44.7705L7.03564 45.9832L7.73363 31.365Z" fill="#6580E1" fill-opacity="0.6"/>
<path fill-rule="evenodd" clip-rule="evenodd" d="M8.85302 30.1524L9.10287 29.3745L8.40488 43.9927L8.15503 44.7706L8.85302 30.1524Z" fill="#6580E1" fill-opacity="0.6"/>
<path fill-rule="evenodd" clip-rule="evenodd" d="M9.10278 29.3745L10.9816 30.275L10.2836 44.8932L8.40479 43.9927L9.10278 29.3745Z" fill="#6580E1" fill-opacity="0.6"/>
<path fill-rule="evenodd" clip-rule="evenodd" d="M10.9817 30.2749L11.3215 31.5657L10.6235 46.1839L10.2837 44.8931L10.9817 30.2749Z" fill="#6580E1" fill-opacity="0.6"/>
<path fill-rule="evenodd" clip-rule="evenodd" d="M11.3215 31.5657L11.7513 31.4949L11.0533 46.113L10.6235 46.1839L11.3215 31.5657Z" fill="#6580E1" fill-opacity="0.6"/>
<path fill-rule="evenodd" clip-rule="evenodd" d="M11.7512 31.4949L11.8412 31.8654L11.1432 46.4836L11.0532 46.113L11.7512 31.4949Z" fill="#6580E1" fill-opacity="0.6"/>
<path fill-rule="evenodd" clip-rule="evenodd" d="M11.8413 31.8655L12.321 31.9664L11.623 46.5846L11.1433 46.4836L11.8413 31.8655Z" fill="#6580E1" fill-opacity="0.6"/>
<path fill-rule="evenodd" clip-rule="evenodd" d="M12.3208 31.9666L12.5007 32.2235L11.8027 46.8417L11.6228 46.5847L12.3208 31.9666Z" fill="#6580E1" fill-opacity="0.6"/>
<path fill-rule="evenodd" clip-rule="evenodd" d="M12.5007 32.2234L13.5601 32.4823L12.8621 47.1005L11.8027 46.8416L12.5007 32.2234Z" fill="#6580E1" fill-opacity="0.6"/>
<path fill-rule="evenodd" clip-rule="evenodd" d="M13.5601 32.4824V32.7211L12.8621 47.3393V47.1006L13.5601 32.4824Z" fill="#6580E1" fill-opacity="0.6"/>
<path fill-rule="evenodd" clip-rule="evenodd" d="M13.5601 32.7209L14.9492 33.1315L14.2512 47.7497L12.8621 47.3391L13.5601 32.7209Z" fill="#6580E1" fill-opacity="0.6"/>
<path fill-rule="evenodd" clip-rule="evenodd" d="M14.9492 33.1317L15.0392 33.0044L14.3412 47.6226L14.2512 47.7498L14.9492 33.1317Z" fill="#6580E1" fill-opacity="0.6"/>
<path fill-rule="evenodd" clip-rule="evenodd" d="M15.0393 33.0044L15.449 33.1308L14.7511 47.749L14.3413 47.6226L15.0393 33.0044Z" fill="#6580E1" fill-opacity="0.6"/>
<path fill-rule="evenodd" clip-rule="evenodd" d="M15.4491 33.1309L15.3791 33.3541L14.6812 47.9723L14.7511 47.749L15.4491 33.1309Z" fill="#6580E1" fill-opacity="0.6"/>
<path fill-rule="evenodd" clip-rule="evenodd" d="M15.3791 33.354L18.3273 34.3227L17.6294 48.9409L14.6812 47.9722L15.3791 33.354Z" fill="#6580E1" fill-opacity="0.6"/>
<path fill-rule="evenodd" clip-rule="evenodd" d="M18.3271 34.3228L18.537 34.1235L17.839 48.7417L17.6292 48.9409L18.3271 34.3228Z" fill="#6580E1" fill-opacity="0.6"/>
<path fill-rule="evenodd" clip-rule="evenodd" d="M18.5371 34.1235L20.1861 34.5407L19.4881 49.1589L17.8391 48.7417L18.5371 34.1235Z" fill="#6580E1" fill-opacity="0.6"/>
<path fill-rule="evenodd" clip-rule="evenodd" d="M20.186 34.5407L20.3159 34.2439L19.618 48.8621L19.488 49.1588L20.186 34.5407Z" fill="#6580E1" fill-opacity="0.6"/>
<path fill-rule="evenodd" clip-rule="evenodd" d="M20.3162 34.2439L22.7247 35.0351L22.0267 49.6533L19.6182 48.8621L20.3162 34.2439Z" fill="#6580E1" fill-opacity="0.6"/>
<path fill-rule="evenodd" clip-rule="evenodd" d="M22.7246 35.0351L25.1231 33.2004L24.4251 47.8186L22.0266 49.6533L22.7246 35.0351Z" fill="#6580E1" fill-opacity="0.6"/>
<path fill-rule="evenodd" clip-rule="evenodd" d="M25.123 33.2004L26.0525 33.0127L25.3545 47.6309L24.425 47.8185L25.123 33.2004Z" fill="#6580E1" fill-opacity="0.6"/>
<path fill-rule="evenodd" clip-rule="evenodd" d="M26.0525 33.0128L27.6715 30.8513L26.9735 45.4695L25.3545 47.631L26.0525 33.0128Z" fill="#6580E1" fill-opacity="0.6"/>
<path fill-rule="evenodd" clip-rule="evenodd" d="M27.6716 30.8513L28.1513 30.5566L27.4533 45.1748L26.9736 45.4695L27.6716 30.8513Z" fill="#6580E1" fill-opacity="0.6"/>
<path fill-rule="evenodd" clip-rule="evenodd" d="M28.1514 30.5567L28.2513 30.1228L27.5533 44.741L27.4534 45.1749L28.1514 30.5567Z" fill="#6580E1" fill-opacity="0.6"/>
<path fill-rule="evenodd" clip-rule="evenodd" d="M28.2512 30.1228L28.7909 30.0684L28.0929 44.6865L27.5532 44.7409L28.2512 30.1228Z" fill="#6580E1" fill-opacity="0.6"/>
<path fill-rule="evenodd" clip-rule="evenodd" d="M28.7908 30.0684L29.3304 29.7344L28.6324 44.3525L28.0928 44.6866L28.7908 30.0684Z" fill="#6580E1" fill-opacity="0.6"/>
<path fill-rule="evenodd" clip-rule="evenodd" d="M29.3305 29.7344L29.1406 28.7952L28.4426 43.4133L28.6325 44.3525L29.3305 29.7344Z" fill="#6580E1" fill-opacity="0.6"/>
<path fill-rule="evenodd" clip-rule="evenodd" d="M29.1407 28.7951L28.7309 28.2595L28.033 42.8777L28.4427 43.4133L29.1407 28.7951Z" fill="#6580E1" fill-opacity="0.6"/>
<path fill-rule="evenodd" clip-rule="evenodd" d="M28.7309 28.2595L28.7209 27.5159L28.0229 42.134L28.0329 42.8777L28.7309 28.2595Z" fill="#6580E1" fill-opacity="0.6"/>
<path fill-rule="evenodd" clip-rule="evenodd" d="M28.7209 27.5159L29.4005 27.4514L28.7025 42.0696L28.0229 42.1341L28.7209 27.5159Z" fill="#6580E1" fill-opacity="0.6"/>
<path fill-rule="evenodd" clip-rule="evenodd" d="M29.4005 27.4513L29.3506 26.9658L28.6526 41.584L28.7026 42.0695L29.4005 27.4513Z" fill="#6580E1" fill-opacity="0.6"/>
<path fill-rule="evenodd" clip-rule="evenodd" d="M29.3506 26.9658L30.0002 26.0208L29.3022 40.6389L28.6526 41.5839L29.3506 26.9658Z" fill="#6580E1" fill-opacity="0.6"/>
<path fill-rule="evenodd" clip-rule="evenodd" d="M30.0001 26.0208L29.6204 25.6223L28.9224 40.2405L29.3021 40.6389L30.0001 26.0208Z" fill="#6580E1" fill-opacity="0.6"/>
<path fill-rule="evenodd" clip-rule="evenodd" d="M29.6204 25.6225L30.2899 25.2849L29.592 39.9031L28.9224 40.2406L29.6204 25.6225Z" fill="#6580E1" fill-opacity="0.6"/>
<path fill-rule="evenodd" clip-rule="evenodd" d="M30.2899 25.2848L30.1999 25.187L29.502 39.8052L29.5919 39.903L30.2899 25.2848Z" fill="#6580E1" fill-opacity="0.6"/>
<path fill-rule="evenodd" clip-rule="evenodd" d="M30.1999 25.187L31.0794 24.3843L30.3814 39.0024L29.502 39.8052L30.1999 25.187Z" fill="#6580E1" fill-opacity="0.6"/>
<path fill-rule="evenodd" clip-rule="evenodd" d="M31.0796 24.3844L31.2994 24.0081L30.6015 38.6262L30.3816 39.0025L31.0796 24.3844Z" fill="#6580E1" fill-opacity="0.6"/>
<path fill-rule="evenodd" clip-rule="evenodd" d="M31.2992 24.0081L31.2493 23.168L30.5513 37.7861L30.6012 38.6263L31.2992 24.0081Z" fill="#6580E1" fill-opacity="0.6"/>
<path fill-rule="evenodd" clip-rule="evenodd" d="M31.2493 23.1679L31.5591 22.7871L30.8611 37.4053L30.5513 37.7861L31.2493 23.1679Z" fill="#6580E1" fill-opacity="0.6"/>
<path fill-rule="evenodd" clip-rule="evenodd" d="M31.5591 22.7871L32.6384 21.5667L31.9404 36.1848L30.8611 37.4053L31.5591 22.7871Z" fill="#6580E1" fill-opacity="0.6"/>
<path fill-rule="evenodd" clip-rule="evenodd" d="M32.6384 21.5667L32.7683 21.6927L32.0704 36.3109L31.9404 36.1848L32.6384 21.5667Z" fill="#6580E1" fill-opacity="0.6"/>
<path fill-rule="evenodd" clip-rule="evenodd" d="M32.7685 21.6928L33.0584 21.3728L32.3604 35.991L32.0706 36.3109L32.7685 21.6928Z" fill="#6580E1" fill-opacity="0.6"/>
<path fill-rule="evenodd" clip-rule="evenodd" d="M33.0582 21.3727L32.8184 21.312L32.1204 35.9302L32.3602 35.9909L33.0582 21.3727Z" fill="#6580E1" fill-opacity="0.6"/>
<path fill-rule="evenodd" clip-rule="evenodd" d="M32.8184 21.3119L33.0282 21.0581L32.3302 35.6763L32.1204 35.9301L32.8184 21.3119Z" fill="#6580E1" fill-opacity="0.6"/>
<path fill-rule="evenodd" clip-rule="evenodd" d="M33.0283 21.0581L33.3481 21.2095L32.6501 35.8277L32.3303 35.6763L33.0283 21.0581Z" fill="#6580E1" fill-opacity="0.6"/>
<path fill-rule="evenodd" clip-rule="evenodd" d="M33.3481 21.2096L33.8179 20.8533L33.1199 35.4714L32.6501 35.8277L33.3481 21.2096Z" fill="#6580E1" fill-opacity="0.6"/>
<path fill-rule="evenodd" clip-rule="evenodd" d="M33.8179 20.8533L33.9978 21.1716L33.2998 35.7897L33.1199 35.4714L33.8179 20.8533Z" fill="#6580E1" fill-opacity="0.6"/>
<path fill-rule="evenodd" clip-rule="evenodd" d="M33.9978 21.1715L34.2077 21.0269L33.5097 35.645L33.2998 35.7897L33.9978 21.1715Z" fill="#6580E1" fill-opacity="0.6"/>
<path fill-rule="evenodd" clip-rule="evenodd" d="M34.2075 21.027L33.408 20.2769L32.71 34.895L33.5095 35.6452L34.2075 21.027Z" fill="#6580E1" fill-opacity="0.6"/>
<path fill-rule="evenodd" clip-rule="evenodd" d="M33.408 20.2768L35.4767 19.3953L34.7787 34.0134L32.71 34.8949L33.408 20.2768Z" fill="#6580E1" fill-opacity="0.6"/>
<path fill-rule="evenodd" clip-rule="evenodd" d="M35.4768 19.3953L36.1664 20.0199L35.4684 34.638L34.7788 34.0134L35.4768 19.3953Z" fill="#6580E1" fill-opacity="0.6"/>
<path fill-rule="evenodd" clip-rule="evenodd" d="M36.1664 20.0198L36.0864 19.895L35.3884 34.5132L35.4684 34.638L36.1664 20.0198Z" fill="#6580E1" fill-opacity="0.6"/>
<path fill-rule="evenodd" clip-rule="evenodd" d="M36.0864 19.895L36.5162 19.79L35.8182 34.4082L35.3884 34.5132L36.0864 19.895Z" fill="#6580E1" fill-opacity="0.6"/>
<path fill-rule="evenodd" clip-rule="evenodd" d="M36.5162 19.7902L36.4463 19.502L35.7483 34.1201L35.8182 34.4083L36.5162 19.7902Z" fill="#6580E1" fill-opacity="0.6"/>
<path fill-rule="evenodd" clip-rule="evenodd" d="M36.4462 19.5018L35.9365 19.291L35.2385 33.9092L35.7482 34.12L36.4462 19.5018Z" fill="#6580E1" fill-opacity="0.6"/>
<path fill-rule="evenodd" clip-rule="evenodd" d="M35.9365 19.291L35.2869 19.2744L34.5889 33.8926L35.2385 33.9092L35.9365 19.291Z" fill="#6580E1" fill-opacity="0.6"/>
<path fill-rule="evenodd" clip-rule="evenodd" d="M35.2869 19.2744L35.9165 19.1677L35.2185 33.7859L34.5889 33.8926L35.2869 19.2744Z" fill="#6580E1" fill-opacity="0.6"/>
<path fill-rule="evenodd" clip-rule="evenodd" d="M35.9164 19.1679L35.8765 18.9963L35.1785 33.6145L35.2184 33.786L35.9164 19.1679Z" fill="#6580E1" fill-opacity="0.6"/>
<path fill-rule="evenodd" clip-rule="evenodd" d="M35.8765 18.9963L36.7659 18.8826L36.0679 33.5007L35.1785 33.6144L35.8765 18.9963Z" fill="#6580E1" fill-opacity="0.6"/>
<path fill-rule="evenodd" clip-rule="evenodd" d="M36.7661 18.8826L36.6162 18.5991L35.9182 33.2173L36.0681 33.5007L36.7661 18.8826Z" fill="#6580E1" fill-opacity="0.6"/>
<path fill-rule="evenodd" clip-rule="evenodd" d="M36.6162 18.5993L37.1359 18.408L36.4379 33.0261L35.9182 33.2175L36.6162 18.5993Z" fill="#6580E1" fill-opacity="0.6"/>
<path fill-rule="evenodd" clip-rule="evenodd" d="M37.1358 18.4079L37.0259 17.5117L36.3279 32.1299L36.4378 33.0261L37.1358 18.4079Z" fill="#6580E1" fill-opacity="0.6"/>
<path fill-rule="evenodd" clip-rule="evenodd" d="M37.0258 17.5117L36.646 17.5157L35.948 32.1338L36.3278 32.1299L37.0258 17.5117Z" fill="#6580E1" fill-opacity="0.6"/>
<path fill-rule="evenodd" clip-rule="evenodd" d="M36.6461 17.5155L36.5461 17.322L35.8481 31.9402L35.9481 32.1337L36.6461 17.5155Z" fill="#6580E1" fill-opacity="0.6"/>
<path fill-rule="evenodd" clip-rule="evenodd" d="M36.5461 17.3221L37.4156 17.2625L36.7176 31.8806L35.8481 31.9402L36.5461 17.3221Z" fill="#6580E1" fill-opacity="0.6"/>
<path fill-rule="evenodd" clip-rule="evenodd" d="M37.4155 17.2625L37.7253 17.5432L37.0273 32.1613L36.7175 31.8806L37.4155 17.2625Z" fill="#6580E1" fill-opacity="0.6"/>
<path fill-rule="evenodd" clip-rule="evenodd" d="M37.7253 17.543L38.0651 17.5381L37.3671 32.1562L37.0273 32.1612L37.7253 17.543Z" fill="#6580E1" fill-opacity="0.6"/>
<path fill-rule="evenodd" clip-rule="evenodd" d="M38.0652 17.5382L37.9353 14.3022L37.2373 28.9204L37.3672 32.1564L38.0652 17.5382Z" fill="#6580E1" fill-opacity="0.6"/>
<path fill-rule="evenodd" clip-rule="evenodd" d="M37.9353 14.3022L36.2263 14.8383L35.5283 29.4565L37.2373 28.9204L37.9353 14.3022Z" fill="#6580E1" fill-opacity="0.6"/>
<path fill-rule="evenodd" clip-rule="evenodd" d="M36.2263 14.8383L35.9365 14.449L35.2385 29.0671L35.5283 29.4565L36.2263 14.8383Z" fill="#6580E1" fill-opacity="0.6"/>
<path fill-rule="evenodd" clip-rule="evenodd" d="M35.9366 14.449L34.7773 14.774L34.0793 29.3922L35.2386 29.0671L35.9366 14.449Z" fill="#6580E1" fill-opacity="0.6"/>
<path fill-rule="evenodd" clip-rule="evenodd" d="M34.7773 14.7741L35.407 13.7876L34.709 28.4058L34.0793 29.3922L34.7773 14.7741Z" fill="#6580E1" fill-opacity="0.6"/>
<path fill-rule="evenodd" clip-rule="evenodd" d="M35.4067 13.7874L36.576 13.3672L35.878 27.9854L34.7087 28.4056L35.4067 13.7874Z" fill="#6580E1" fill-opacity="0.6"/>
<path fill-rule="evenodd" clip-rule="evenodd" d="M36.5761 13.3673L35.9065 12.4636L35.2085 27.0818L35.8781 27.9855L36.5761 13.3673Z" fill="#6580E1" fill-opacity="0.6"/>
<path fill-rule="evenodd" clip-rule="evenodd" d="M35.9065 12.4634L35.5867 12.428L34.8887 27.0461L35.2085 27.0816L35.9065 12.4634Z" fill="#6580E1" fill-opacity="0.6"/>
<path fill-rule="evenodd" clip-rule="evenodd" d="M35.5867 12.4281L35.9864 12.0496L35.2884 26.6677L34.8887 27.0463L35.5867 12.4281Z" fill="#6580E1" fill-opacity="0.6"/>
<path fill-rule="evenodd" clip-rule="evenodd" d="M35.9864 12.0495L34.1775 11.2258L33.4795 25.844L35.2884 26.6677L35.9864 12.0495Z" fill="#6580E1" fill-opacity="0.6"/>
<path fill-rule="evenodd" clip-rule="evenodd" d="M34.1775 11.2259L34.3374 10.623L33.6394 25.2412L33.4795 25.8441L34.1775 11.2259Z" fill="#6580E1" fill-opacity="0.6"/>
<path fill-rule="evenodd" clip-rule="evenodd" d="M34.3374 10.623L35.4767 9.81323L34.7787 24.4314L33.6394 25.2412L34.3374 10.623Z" fill="#6580E1" fill-opacity="0.6"/>
<path fill-rule="evenodd" clip-rule="evenodd" d="M35.4768 9.81323L35.8566 10.048L35.1586 24.6662L34.7788 24.4314L35.4768 9.81323Z" fill="#6580E1" fill-opacity="0.6"/>
<path fill-rule="evenodd" clip-rule="evenodd" d="M35.8567 10.048L37.9754 9.20874L37.2774 23.8269L35.1587 24.6662L35.8567 10.048Z" fill="#6580E1" fill-opacity="0.6"/>
<path fill-rule="evenodd" clip-rule="evenodd" d="M37.9753 9.20859L37.1658 8.21948L36.4678 22.8376L37.2773 23.8268L37.9753 9.20859Z" fill="#6580E1" fill-opacity="0.6"/>
<path fill-rule="evenodd" clip-rule="evenodd" d="M37.1658 8.21965L39.3844 7.3147L38.6864 21.9329L36.4678 22.8378L37.1658 8.21965Z" fill="#6580E1" fill-opacity="0.6"/>
<path fill-rule="evenodd" clip-rule="evenodd" d="M39.3845 7.3147L39.6444 7.56003L38.9464 22.1782L38.6865 21.9329L39.3845 7.3147Z" fill="#6580E1" fill-opacity="0.6"/>
<path fill-rule="evenodd" clip-rule="evenodd" d="M39.6443 7.5599L40.5837 7.12695L39.8857 21.7451L38.9463 22.1781L39.6443 7.5599Z" fill="#6580E1" fill-opacity="0.6"/>
<path fill-rule="evenodd" clip-rule="evenodd" d="M40.5836 7.1269L40.2038 6.49658L39.5059 21.1147L39.8856 21.7451L40.5836 7.1269Z" fill="#6580E1" fill-opacity="0.6"/>
<path fill-rule="evenodd" clip-rule="evenodd" d="M40.204 6.49658L39.5444 6.71162L38.8464 21.3298L39.506 21.1147L40.204 6.49658Z" fill="#6580E1" fill-opacity="0.6"/>
<path fill-rule="evenodd" clip-rule="evenodd" d="M39.5443 6.71172L39.4944 6.39673L38.7964 21.0149L38.8464 21.3299L39.5443 6.71172Z" fill="#6580E1" fill-opacity="0.6"/>
<path fill-rule="evenodd" clip-rule="evenodd" d="M39.4944 6.39676L40.034 6.27417L39.3361 20.8923L38.7964 21.0149L39.4944 6.39676Z" fill="#6580E1" fill-opacity="0.6"/>
<path fill-rule="evenodd" clip-rule="evenodd" d="M40.0339 6.27417L40.5336 6.43012L39.8356 21.0483L39.3359 20.8923L40.0339 6.27417Z" fill="#6580E1" fill-opacity="0.6"/>
<path fill-rule="evenodd" clip-rule="evenodd" d="M40.5337 6.43011L40.8635 6.35669L40.1655 20.9749L39.8357 21.0483L40.5337 6.43011Z" fill="#6580E1" fill-opacity="0.6"/>
<path fill-rule="evenodd" clip-rule="evenodd" d="M40.8635 6.35669L41.2533 6.4894L40.5553 21.1076L40.1655 20.9749L40.8635 6.35669Z" fill="#6580E1" fill-opacity="0.6"/>
<path fill-rule="evenodd" clip-rule="evenodd" d="M41.2532 6.48926L41.3931 6.75881L40.6951 21.377L40.5552 21.1074L41.2532 6.48926Z" fill="#6580E1" fill-opacity="0.6"/>
<path fill-rule="evenodd" clip-rule="evenodd" d="M41.3933 6.75896L41.813 6.72876L41.1151 21.3469L40.6953 21.3771L41.3933 6.75896Z" fill="#6580E1" fill-opacity="0.6"/>
<path fill-rule="evenodd" clip-rule="evenodd" d="M41.813 6.72885L41.6531 6.58154L40.9551 21.1997L41.115 21.347L41.813 6.72885Z" fill="#6580E1" fill-opacity="0.6"/>
<path fill-rule="evenodd" clip-rule="evenodd" d="M41.6531 6.58154L42.1028 6.59303L41.4048 21.2112L40.9551 21.1997L41.6531 6.58154Z" fill="#6580E1" fill-opacity="0.6"/>
<path fill-rule="evenodd" clip-rule="evenodd" d="M42.1029 6.59279L42.0029 6.44702L41.3049 21.0652L41.4049 21.211L42.1029 6.59279Z" fill="#6580E1" fill-opacity="0.6"/>
<path fill-rule="evenodd" clip-rule="evenodd" d="M42.0029 6.44706L42.1728 6.44458L41.4748 21.0627L41.3049 21.0652L42.0029 6.44706Z" fill="#6580E1" fill-opacity="0.6"/>
<path fill-rule="evenodd" clip-rule="evenodd" d="M42.1726 6.44458L42.6723 6.60738L41.9743 21.2255L41.4746 21.0627L42.1726 6.44458Z" fill="#6580E1" fill-opacity="0.6"/>
<path fill-rule="evenodd" clip-rule="evenodd" d="M42.6724 6.60742L42.6823 6.74408L41.9844 21.3622L41.9744 21.2256L42.6724 6.60742Z" fill="#6580E1" fill-opacity="0.6"/>
<path fill-rule="evenodd" clip-rule="evenodd" d="M42.6824 6.74414L43.0721 6.76773L42.3741 21.3859L41.9844 21.3623L42.6824 6.74414Z" fill="#6580E1" fill-opacity="0.6"/>
<path fill-rule="evenodd" clip-rule="evenodd" d="M43.0722 6.76782L42.9023 6.95444L42.2043 21.5726L42.3742 21.386L43.0722 6.76782Z" fill="#6580E1" fill-opacity="0.6"/>
<path fill-rule="evenodd" clip-rule="evenodd" d="M42.9023 6.95435L44.3914 6.9651L43.6934 21.5833L42.2043 21.5725L42.9023 6.95435Z" fill="#6580E1" fill-opacity="0.6"/>
<path fill-rule="evenodd" clip-rule="evenodd" d="M44.3914 6.96515L43.9416 6.6604L43.2437 21.2786L43.6934 21.5833L44.3914 6.96515Z" fill="#6580E1" fill-opacity="0.6"/>
<path fill-rule="evenodd" clip-rule="evenodd" d="M43.9416 6.66039L44.0316 6.49219L43.3336 21.1104L43.2437 21.2786L43.9416 6.66039Z" fill="#6580E1" fill-opacity="0.6"/>
<path fill-rule="evenodd" clip-rule="evenodd" d="M44.0315 6.49219L44.3713 6.61681L43.6733 21.235L43.3335 21.1104L44.0315 6.49219Z" fill="#6580E1" fill-opacity="0.6"/>
<path fill-rule="evenodd" clip-rule="evenodd" d="M44.3714 6.61685L44.1016 6.2417L43.4036 20.8599L43.6734 21.235L44.3714 6.61685Z" fill="#6580E1" fill-opacity="0.6"/>
<path fill-rule="evenodd" clip-rule="evenodd" d="M44.1016 6.24153L44.2115 6.12158L43.5135 20.7397L43.4036 20.8597L44.1016 6.24153Z" fill="#6580E1" fill-opacity="0.6"/>
<path fill-rule="evenodd" clip-rule="evenodd" d="M44.2114 6.12158L45.0909 6.38272L44.3929 21.0009L43.5134 20.7397L44.2114 6.12158Z" fill="#6580E1" fill-opacity="0.6"/>
<path fill-rule="evenodd" clip-rule="evenodd" d="M45.0909 6.38281L45.021 6.52424L44.323 21.1424L44.393 21.001L45.0909 6.38281Z" fill="#6580E1" fill-opacity="0.6"/>
<path fill-rule="evenodd" clip-rule="evenodd" d="M45.021 6.52416L44.5913 6.51318L43.8933 21.1313L44.323 21.1423L45.021 6.52416Z" fill="#6580E1" fill-opacity="0.6"/>
<path fill-rule="evenodd" clip-rule="evenodd" d="M44.5913 6.51318L44.6113 6.62963L43.9133 21.2478L43.8933 21.1313L44.5913 6.51318Z" fill="#6580E1" fill-opacity="0.6"/>
<path fill-rule="evenodd" clip-rule="evenodd" d="M44.6113 6.62964L45.091 6.66917L44.393 21.2873L43.9133 21.2478L44.6113 6.62964Z" fill="#6580E1" fill-opacity="0.6"/>
<path fill-rule="evenodd" clip-rule="evenodd" d="M45.0911 6.66919L47.7594 7.73306L47.0614 22.3512L44.3931 21.2874L45.0911 6.66919Z" fill="#6580E1" fill-opacity="0.6"/>
<path fill-rule="evenodd" clip-rule="evenodd" d="M47.7594 7.73301L47.5095 5.87842L46.8115 20.4966L47.0614 22.3512L47.7594 7.73301Z" fill="#6580E1" fill-opacity="0.6"/>
<path fill-rule="evenodd" clip-rule="evenodd" d="M47.5095 5.87842L48.429 5.9292L47.731 20.5474L46.8115 20.4966L47.5095 5.87842Z" fill="#6580E1" fill-opacity="0.6"/>
<path fill-rule="evenodd" clip-rule="evenodd" d="M48.4288 5.92918L48.3589 5.56592L47.6609 20.1841L47.7308 20.5473L48.4288 5.92918Z" fill="#6580E1" fill-opacity="0.6"/>
<path fill-rule="evenodd" clip-rule="evenodd" d="M48.3589 5.56605L49.1784 5.5188L48.4804 20.137L47.6609 20.1842L48.3589 5.56605Z" fill="#6580E1" fill-opacity="0.6"/>
<path fill-rule="evenodd" clip-rule="evenodd" d="M49.1785 5.5188L49.5183 6.37997L48.8203 20.9981L48.4805 20.137L49.1785 5.5188Z" fill="#6580E1" fill-opacity="0.6"/>
<path fill-rule="evenodd" clip-rule="evenodd" d="M49.5183 6.37986L51.0374 6.17993L50.3394 20.7981L48.8203 20.998L49.5183 6.37986Z" fill="#6580E1" fill-opacity="0.6"/>
<path fill-rule="evenodd" clip-rule="evenodd" d="M51.0373 6.17993L51.9868 6.84526L51.2888 21.4634L50.3394 20.7981L51.0373 6.17993Z" fill="#6580E1" fill-opacity="0.6"/>
<path fill-rule="evenodd" clip-rule="evenodd" d="M51.9867 6.84546L51.7668 6.95578L51.0688 21.5739L51.2887 21.4636L51.9867 6.84546Z" fill="#6580E1" fill-opacity="0.6"/>
<path fill-rule="evenodd" clip-rule="evenodd" d="M51.7668 6.95557L51.9867 7.08394L51.2887 21.7021L51.0688 21.5737L51.7668 6.95557Z" fill="#6580E1" fill-opacity="0.6"/>
<path fill-rule="evenodd" clip-rule="evenodd" d="M51.9868 7.08397L54.965 4.70483L54.267 19.323L51.2888 21.7021L51.9868 7.08397Z" fill="#6580E1" fill-opacity="0.6"/>
<path fill-rule="evenodd" clip-rule="evenodd" d="M54.9648 4.70487L56.0742 2.55762L55.3762 17.1758L54.2668 19.323L54.9648 4.70487Z" fill="#6580E1" fill-opacity="0.6"/>
<path fill-rule="evenodd" clip-rule="evenodd" d="M56.0742 2.55767L55.9443 2.31567L55.2463 16.9338L55.3763 17.1758L56.0742 2.55767Z" fill="#6580E1" fill-opacity="0.6"/>
<path fill-rule="evenodd" clip-rule="evenodd" d="M55.9443 2.31563L56.2941 2.16089L55.5961 16.7791L55.2463 16.9338L55.9443 2.31563Z" fill="#6580E1" fill-opacity="0.6"/>
<path fill-rule="evenodd" clip-rule="evenodd" d="M56.2942 2.16096L56.7639 1.27954L56.0659 15.8977L55.5962 16.7791L56.2942 2.16096Z" fill="#6580E1" fill-opacity="0.6"/>
<path fill-rule="evenodd" clip-rule="evenodd" d="M56.7639 1.27957L60.8714 0L60.1734 14.6182L56.0659 15.8977L56.7639 1.27957Z" fill="#6580E1" fill-opacity="0.6"/>
<path fill-rule="evenodd" clip-rule="evenodd" d="M60.8713 0L61.7208 0.785533L61.0228 15.4037L60.1733 14.6182L60.8713 0Z" fill="#6580E1" fill-opacity="0.6"/>
<path fill-rule="evenodd" clip-rule="evenodd" d="M61.7207 0.785532L62.0105 0.677002L61.3125 15.2952L61.0227 15.4037L61.7207 0.785532Z" fill="#6580E1" fill-opacity="0.6"/>
<path fill-rule="evenodd" clip-rule="evenodd" d="M62.0107 0.677002L62.9801 1.10416L62.2822 15.7223L61.3127 15.2952L62.0107 0.677002Z" fill="#6580E1" fill-opacity="0.6"/>
<path fill-rule="evenodd" clip-rule="evenodd" d="M62.98 1.10413L63.3497 1.0249L62.6518 15.6431L62.282 15.7223L62.98 1.10413Z" fill="#6580E1" fill-opacity="0.6"/>
<path fill-rule="evenodd" clip-rule="evenodd" d="M63.3498 1.0249L64.5491 1.47154L63.8511 16.0897L62.6519 15.6431L63.3498 1.0249Z" fill="#6580E1" fill-opacity="0.6"/>
<path fill-rule="evenodd" clip-rule="evenodd" d="M64.5491 1.47144L64.9188 1.78096L64.2208 16.3991L63.8511 16.0896L64.5491 1.47144Z" fill="#6580E1" fill-opacity="0.6"/>
<path fill-rule="evenodd" clip-rule="evenodd" d="M64.9189 1.78114L65.2787 1.50391L64.5807 16.1221L64.2209 16.3993L64.9189 1.78114Z" fill="#6580E1" fill-opacity="0.6"/>
<path fill-rule="evenodd" clip-rule="evenodd" d="M65.2786 1.50391L65.6483 1.60201L64.9503 16.2202L64.5806 16.1221L65.2786 1.50391Z" fill="#6580E1" fill-opacity="0.6"/>
<path fill-rule="evenodd" clip-rule="evenodd" d="M65.6484 1.60181L66.368 2.57496L65.67 17.1931L64.9504 16.22L65.6484 1.60181Z" fill="#6580E1" fill-opacity="0.6"/>
<path fill-rule="evenodd" clip-rule="evenodd" d="M66.3679 2.57495L66.3879 2.77323L65.6899 17.3914L65.6699 17.1931L66.3679 2.57495Z" fill="#6580E1" fill-opacity="0.6"/>
<path fill-rule="evenodd" clip-rule="evenodd" d="M66.388 2.77344L66.1382 2.86254L65.4402 17.4807L65.69 17.3916L66.388 2.77344Z" fill="#6580E1" fill-opacity="0.6"/>
<path fill-rule="evenodd" clip-rule="evenodd" d="M66.1382 2.86255L66.6878 3.42901L65.9899 18.0472L65.4402 17.4807L66.1382 2.86255Z" fill="#6580E1" fill-opacity="0.6"/>
<path fill-rule="evenodd" clip-rule="evenodd" d="M66.6877 3.42889L66.8776 3.39282L66.1796 18.011L65.9897 18.0471L66.6877 3.42889Z" fill="#6580E1" fill-opacity="0.6"/>
<path fill-rule="evenodd" clip-rule="evenodd" d="M66.8777 3.39282L67.4873 3.87214L66.7893 18.4903L66.1797 18.011L66.8777 3.39282Z" fill="#6580E1" fill-opacity="0.6"/>
<path fill-rule="evenodd" clip-rule="evenodd" d="M67.4873 3.87207L67.3374 4.04557L66.6394 18.6637L66.7893 18.4902L67.4873 3.87207Z" fill="#6580E1" fill-opacity="0.6"/>
<path fill-rule="evenodd" clip-rule="evenodd" d="M67.3374 4.04565L68.3967 5.0207L67.6988 19.6389L66.6394 18.6638L67.3374 4.04565Z" fill="#6580E1" fill-opacity="0.6"/>
<path fill-rule="evenodd" clip-rule="evenodd" d="M68.3967 5.02075L70.6254 6.03927L69.9274 20.6574L67.6987 19.6389L68.3967 5.02075Z" fill="#6580E1" fill-opacity="0.6"/>
<path fill-rule="evenodd" clip-rule="evenodd" d="M70.6255 6.03931L72.8641 9.32916L72.1661 23.9473L69.9275 20.6575L70.6255 6.03931Z" fill="#6580E1" fill-opacity="0.6"/>
<path fill-rule="evenodd" clip-rule="evenodd" d="M72.864 9.3291L75.6723 11.1399L74.9743 25.7581L72.166 23.9473L72.864 9.3291Z" fill="#6580E1" fill-opacity="0.6"/>
<path fill-rule="evenodd" clip-rule="evenodd" d="M75.6724 11.1399L78.8104 11.3019L78.1125 25.92L74.9744 25.7581L75.6724 11.1399Z" fill="#6580E1" fill-opacity="0.6"/>
<path fill-rule="evenodd" clip-rule="evenodd" d="M78.8103 11.3018L80.8391 11.7491L80.1411 26.3673L78.1123 25.9199L78.8103 11.3018Z" fill="#6580E1" fill-opacity="0.6"/>
<path fill-rule="evenodd" clip-rule="evenodd" d="M80.8391 11.7493L83.3776 12.9258L82.6796 27.5439L80.1411 26.3674L80.8391 11.7493Z" fill="#6580E1" fill-opacity="0.6"/>
<path fill-rule="evenodd" clip-rule="evenodd" d="M83.3777 12.9258L85.6363 14.4907L84.9383 29.1088L82.6797 27.5439L83.3777 12.9258Z" fill="#6580E1" fill-opacity="0.6"/>
<path fill-rule="evenodd" clip-rule="evenodd" d="M85.6362 14.4907L87.8049 16.6057L87.1069 31.2239L84.9382 29.1089L85.6362 14.4907Z" fill="#6580E1" fill-opacity="0.6"/>
<path fill-rule="evenodd" clip-rule="evenodd" d="M87.805 16.6057L87.0754 17.0167L86.3774 31.6349L87.107 31.2239L87.805 16.6057Z" fill="#6580E1" fill-opacity="0.6"/>
<path fill-rule="evenodd" clip-rule="evenodd" d="M87.0753 17.0167L86.9653 16.5979L86.2673 31.2161L86.3773 31.6349L87.0753 17.0167Z" fill="#6580E1" fill-opacity="0.6"/>
<path fill-rule="evenodd" clip-rule="evenodd" d="M86.9653 16.5979L86.3457 16.8685L85.6477 31.4867L86.2673 31.2161L86.9653 16.5979Z" fill="#6580E1" fill-opacity="0.6"/>
<path fill-rule="evenodd" clip-rule="evenodd" d="M86.3457 16.8684L86.3757 17.1283L85.6777 31.7465L85.6477 31.4866L86.3457 16.8684Z" fill="#6580E1" fill-opacity="0.6"/>
<path fill-rule="evenodd" clip-rule="evenodd" d="M86.3757 17.1283L86.1858 16.9871L85.4878 31.6052L85.6777 31.7465L86.3757 17.1283Z" fill="#6580E1" fill-opacity="0.6"/>
<path fill-rule="evenodd" clip-rule="evenodd" d="M86.1859 16.9871L85.936 17.0489L85.238 31.667L85.4879 31.6052L86.1859 16.9871Z" fill="#6580E1" fill-opacity="0.6"/>
<path fill-rule="evenodd" clip-rule="evenodd" d="M85.936 17.0488L86.026 17.3171L85.328 31.9353L85.238 31.667L85.936 17.0488Z" fill="#6580E1" fill-opacity="0.6"/>
<path fill-rule="evenodd" clip-rule="evenodd" d="M86.026 17.3171L85.6162 17.6818L84.9182 32.2999L85.328 31.9353L86.026 17.3171Z" fill="#6580E1" fill-opacity="0.6"/>
<path fill-rule="evenodd" clip-rule="evenodd" d="M85.6162 17.682L86.8155 17.3716L86.1175 31.9897L84.9182 32.3001L85.6162 17.682Z" fill="#6580E1" fill-opacity="0.6"/>
<path fill-rule="evenodd" clip-rule="evenodd" d="M86.8154 17.3716L88.6643 18.926L87.9663 33.5442L86.1174 31.9897L86.8154 17.3716Z" fill="#6580E1" fill-opacity="0.6"/>
<path fill-rule="evenodd" clip-rule="evenodd" d="M88.6643 18.9259L88.5244 18.4858L87.8264 33.104L87.9663 33.5441L88.6643 18.9259Z" fill="#6580E1" fill-opacity="0.6"/>
<path fill-rule="evenodd" clip-rule="evenodd" d="M88.5244 18.4858L90.1534 18.1523L89.4554 32.7705L87.8264 33.104L88.5244 18.4858Z" fill="#6580E1" fill-opacity="0.6"/>
<path fill-rule="evenodd" clip-rule="evenodd" d="M90.1536 18.1523L91.6127 19.2467L90.9147 33.8649L89.4556 32.7705L90.1536 18.1523Z" fill="#6580E1" fill-opacity="0.6"/>
<path fill-rule="evenodd" clip-rule="evenodd" d="M91.6125 19.2468L91.7125 19.4881L91.0145 34.1062L90.9146 33.865L91.6125 19.2468Z" fill="#6580E1" fill-opacity="0.6"/>
<path fill-rule="evenodd" clip-rule="evenodd" d="M91.7126 19.488L90.4734 21.6865L89.7754 36.3047L91.0146 34.1062L91.7126 19.488Z" fill="#6580E1" fill-opacity="0.6"/>
<path fill-rule="evenodd" clip-rule="evenodd" d="M90.4733 21.6865L89.2041 21.7973L88.5061 36.4155L89.7753 36.3047L90.4733 21.6865Z" fill="#6580E1" fill-opacity="0.6"/>
<path fill-rule="evenodd" clip-rule="evenodd" d="M89.2041 21.7974L89.314 22.4753L88.616 37.0935L88.5061 36.4155L89.2041 21.7974Z" fill="#6580E1" fill-opacity="0.6"/>
<path fill-rule="evenodd" clip-rule="evenodd" d="M89.314 22.4753L89.0542 22.5778L88.3562 37.196L88.616 37.0935L89.314 22.4753Z" fill="#6580E1" fill-opacity="0.6"/>
<path fill-rule="evenodd" clip-rule="evenodd" d="M89.0542 22.5776L89.1142 23.2953L88.4162 37.9134L88.3562 37.1958L89.0542 22.5776Z" fill="#6580E1" fill-opacity="0.6"/>
<path fill-rule="evenodd" clip-rule="evenodd" d="M89.1141 23.2954L88.2747 23.5536L87.5767 38.1718L88.4161 37.9136L89.1141 23.2954Z" fill="#6580E1" fill-opacity="0.6"/>
<path fill-rule="evenodd" clip-rule="evenodd" d="M88.2747 23.5535L88.1348 23.2771L87.4368 37.8953L87.5767 38.1716L88.2747 23.5535Z" fill="#6580E1" fill-opacity="0.6"/>
<path fill-rule="evenodd" clip-rule="evenodd" d="M88.1347 23.2771L87.1853 23.4302L86.4873 38.0483L87.4367 37.8953L88.1347 23.2771Z" fill="#6580E1" fill-opacity="0.6"/>
<path fill-rule="evenodd" clip-rule="evenodd" d="M87.1853 23.4302L87.3852 23.8036L86.6872 38.4217L86.4873 38.0483L87.1853 23.4302Z" fill="#6580E1" fill-opacity="0.6"/>
<path fill-rule="evenodd" clip-rule="evenodd" d="M87.3852 23.8038L88.1448 23.6799L87.4468 38.2981L86.6873 38.4219L87.3852 23.8038Z" fill="#6580E1" fill-opacity="0.6"/>
<path fill-rule="evenodd" clip-rule="evenodd" d="M88.1448 23.6799L88.2547 23.8737L87.5567 38.4919L87.4468 38.2981L88.1448 23.6799Z" fill="#6580E1" fill-opacity="0.6"/>
<path fill-rule="evenodd" clip-rule="evenodd" d="M88.2546 23.8736L89.7237 23.1541L89.0257 37.7722L87.5566 38.4917L88.2546 23.8736Z" fill="#6580E1" fill-opacity="0.6"/>
<path fill-rule="evenodd" clip-rule="evenodd" d="M89.7236 23.1541L90.1034 24.0026L89.4054 38.6208L89.0256 37.7722L89.7236 23.1541Z" fill="#6580E1" fill-opacity="0.6"/>
<path fill-rule="evenodd" clip-rule="evenodd" d="M90.1034 24.0027L89.7537 24.0961L89.0557 38.7142L89.4055 38.6208L90.1034 24.0027Z" fill="#6580E1" fill-opacity="0.6"/>
<path fill-rule="evenodd" clip-rule="evenodd" d="M89.7537 24.0959L89.9535 24.8103L89.2555 39.4285L89.0557 38.7141L89.7537 24.0959Z" fill="#6580E1" fill-opacity="0.6"/>
<path fill-rule="evenodd" clip-rule="evenodd" d="M89.9536 24.8103L89.6338 24.9522L88.9358 39.5703L89.2556 39.4285L89.9536 24.8103Z" fill="#6580E1" fill-opacity="0.6"/>
<path fill-rule="evenodd" clip-rule="evenodd" d="M89.6338 24.9521L90.2134 25.9968L89.5154 40.6149L88.9358 39.5703L89.6338 24.9521Z" fill="#6580E1" fill-opacity="0.6"/>
<path fill-rule="evenodd" clip-rule="evenodd" d="M90.2134 25.9968L90.9929 25.7439L90.2949 40.3621L89.5154 40.615L90.2134 25.9968Z" fill="#6580E1" fill-opacity="0.6"/>
<path fill-rule="evenodd" clip-rule="evenodd" d="M90.9929 25.7439L91.4426 26.6693L90.7446 41.2874L90.2949 40.3621L90.9929 25.7439Z" fill="#6580E1" fill-opacity="0.6"/>
<path fill-rule="evenodd" clip-rule="evenodd" d="M91.4427 26.6694L91.3127 28.8553L90.6147 43.4735L90.7447 41.2876L91.4427 26.6694Z" fill="#6580E1" fill-opacity="0.6"/>
<path fill-rule="evenodd" clip-rule="evenodd" d="M91.3127 28.8552L92.9617 28.9928L92.2637 43.611L90.6147 43.4734L91.3127 28.8552Z" fill="#6580E1" fill-opacity="0.6"/>
<path fill-rule="evenodd" clip-rule="evenodd" d="M92.9617 28.9929L94.2109 29.4136L93.5129 44.0317L92.2637 43.6111L92.9617 28.9929Z" fill="#6580E1" fill-opacity="0.6"/>
<path fill-rule="evenodd" clip-rule="evenodd" d="M94.2109 29.4136L94.6207 29.9219L93.9227 44.5401L93.5129 44.0317L94.2109 29.4136Z" fill="#6580E1" fill-opacity="0.6"/>
<path fill-rule="evenodd" clip-rule="evenodd" d="M94.6208 29.9219L94.6608 31.1914L93.9628 45.8096L93.9229 44.54L94.6208 29.9219Z" fill="#6580E1" fill-opacity="0.6"/>
<path fill-rule="evenodd" clip-rule="evenodd" d="M94.6608 31.1914L91.9924 31.5461L91.2944 46.1643L93.9628 45.8096L94.6608 31.1914Z" fill="#6580E1" fill-opacity="0.6"/>
<path fill-rule="evenodd" clip-rule="evenodd" d="M91.9923 31.5459L91.7524 30.926L91.0544 45.5442L91.2943 46.1641L91.9923 31.5459Z" fill="#6580E1" fill-opacity="0.6"/>
<path fill-rule="evenodd" clip-rule="evenodd" d="M91.7524 30.926L91.1228 32.2194L90.4248 46.8375L91.0544 45.5442L91.7524 30.926Z" fill="#6580E1" fill-opacity="0.6"/>
<path fill-rule="evenodd" clip-rule="evenodd" d="M91.1228 32.2195L91.9423 32.0085L91.2443 46.6267L90.4248 46.8377L91.1228 32.2195Z" fill="#6580E1" fill-opacity="0.6"/>
<path fill-rule="evenodd" clip-rule="evenodd" d="M91.9424 32.0085L93.0217 33.1819L92.3237 47.8L91.2444 46.6267L91.9424 32.0085Z" fill="#6580E1" fill-opacity="0.6"/>
<path fill-rule="evenodd" clip-rule="evenodd" d="M93.0218 33.1819L92.4822 33.5637L91.7842 48.1818L92.3239 47.8L93.0218 33.1819Z" fill="#6580E1" fill-opacity="0.6"/>
<path fill-rule="evenodd" clip-rule="evenodd" d="M92.4822 33.5637L92.9719 33.6308L92.2739 48.249L91.7842 48.1819L92.4822 33.5637Z" fill="#6580E1" fill-opacity="0.6"/>
<path fill-rule="evenodd" clip-rule="evenodd" d="M92.9717 33.6306L93.8411 34.4576L93.1432 49.0757L92.2737 48.2488L92.9717 33.6306Z" fill="#6580E1" fill-opacity="0.6"/>
<path fill-rule="evenodd" clip-rule="evenodd" d="M93.8413 34.4578L94.1011 34.478L93.4032 49.0962L93.1433 49.0759L93.8413 34.4578Z" fill="#6580E1" fill-opacity="0.6"/>
<path fill-rule="evenodd" clip-rule="evenodd" d="M94.101 34.478L94.081 34.7503L93.3831 49.3685L93.403 49.0962L94.101 34.478Z" fill="#6580E1" fill-opacity="0.6"/>
<path fill-rule="evenodd" clip-rule="evenodd" d="M94.081 34.7502L95.9099 37.4704L95.2119 52.0886L93.3831 49.3684L94.081 34.7502Z" fill="#6580E1" fill-opacity="0.6"/>
<path fill-rule="evenodd" clip-rule="evenodd" d="M95.9099 37.4705L96.9992 40.0012L96.3013 54.6194L95.2119 52.0886L95.9099 37.4705Z" fill="#6580E1" fill-opacity="0.6"/>
<path fill-rule="evenodd" clip-rule="evenodd" d="M96.9993 40.0012L98.9781 41.0202L98.2801 55.6384L96.3013 54.6194L96.9993 40.0012Z" fill="#6580E1" fill-opacity="0.6"/>
<path fill-rule="evenodd" clip-rule="evenodd" d="M98.9781 41.02L96.6995 42.4349L96.0015 57.0531L98.2801 55.6382L98.9781 41.02Z" fill="#6580E1" fill-opacity="0.6"/>
<path fill-rule="evenodd" clip-rule="evenodd" d="M96.6996 42.4351L96.4597 43.07L95.7617 57.6882L96.0016 57.0532L96.6996 42.4351Z" fill="#6580E1" fill-opacity="0.6"/>
<path fill-rule="evenodd" clip-rule="evenodd" d="M96.4597 43.0701L97.659 43.3462L96.961 57.9644L95.7617 57.6882L96.4597 43.0701Z" fill="#6580E1" fill-opacity="0.6"/>
<path fill-rule="evenodd" clip-rule="evenodd" d="M97.6589 43.3461L98.7882 43.1294L98.0902 57.7476L96.9609 57.9642L97.6589 43.3461Z" fill="#6580E1" fill-opacity="0.6"/>
<path fill-rule="evenodd" clip-rule="evenodd" d="M98.7883 43.1294L98.9882 43.5642L98.2902 58.1823L98.0903 57.7476L98.7883 43.1294Z" fill="#6580E1" fill-opacity="0.6"/>
<path fill-rule="evenodd" clip-rule="evenodd" d="M98.988 43.5642L98.0686 43.7521L97.3706 58.3703L98.29 58.1824L98.988 43.5642Z" fill="#6580E1" fill-opacity="0.6"/>
<path fill-rule="evenodd" clip-rule="evenodd" d="M98.0686 43.7522L98.4284 45.0094L97.7304 59.6276L97.3706 58.3704L98.0686 43.7522Z" fill="#6580E1" fill-opacity="0.6"/>
<path fill-rule="evenodd" clip-rule="evenodd" d="M98.4284 45.0093L97.469 45.1485L96.771 59.7666L97.7304 59.6274L98.4284 45.0093Z" fill="#6580E1" fill-opacity="0.6"/>
<path fill-rule="evenodd" clip-rule="evenodd" d="M97.469 45.1487L97.7488 45.9333L97.0508 60.5515L96.771 59.7668L97.469 45.1487Z" fill="#6580E1" fill-opacity="0.6"/>
<path fill-rule="evenodd" clip-rule="evenodd" d="M97.7488 45.9331L97.1492 46.0815L96.4512 60.6996L97.0508 60.5513L97.7488 45.9331Z" fill="#6580E1" fill-opacity="0.6"/>
<path fill-rule="evenodd" clip-rule="evenodd" d="M97.1492 46.0815L97.5089 47.1274L96.811 61.7455L96.4512 60.6997L97.1492 46.0815Z" fill="#6580E1" fill-opacity="0.6"/>
<path fill-rule="evenodd" clip-rule="evenodd" d="M97.509 47.1274L97.3491 47.1575L96.6511 61.7756L96.811 61.7456L97.509 47.1274Z" fill="#6580E1" fill-opacity="0.6"/>
<path fill-rule="evenodd" clip-rule="evenodd" d="M97.349 47.1573L97.1492 46.8794L96.4512 61.4976L96.6511 61.7755L97.349 47.1573Z" fill="#6580E1" fill-opacity="0.6"/>
<path fill-rule="evenodd" clip-rule="evenodd" d="M97.1491 46.8794L96.9592 46.9223L96.2612 61.5404L96.4511 61.4976L97.1491 46.8794Z" fill="#6580E1" fill-opacity="0.6"/>
<path fill-rule="evenodd" clip-rule="evenodd" d="M96.9592 46.9224L97.269 47.5304L96.571 62.1486L96.2612 61.5405L96.9592 46.9224Z" fill="#6580E1" fill-opacity="0.6"/>
<path fill-rule="evenodd" clip-rule="evenodd" d="M97.2691 47.5305L96.8794 47.6433L96.1814 62.2615L96.5712 62.1487L97.2691 47.5305Z" fill="#6580E1" fill-opacity="0.6"/>
<path fill-rule="evenodd" clip-rule="evenodd" d="M96.8794 47.6432L96.5496 47.4438L95.8516 62.062L96.1814 62.2614L96.8794 47.6432Z" fill="#6580E1" fill-opacity="0.6"/>
<path fill-rule="evenodd" clip-rule="evenodd" d="M96.5495 47.4438L96.3796 47.9646L95.6816 62.5828L95.8515 62.062L96.5495 47.4438Z" fill="#6580E1" fill-opacity="0.6"/>
<path fill-rule="evenodd" clip-rule="evenodd" d="M96.3796 47.9646L96.7094 48.6414L96.0114 63.2595L95.6816 62.5828L96.3796 47.9646Z" fill="#6580E1" fill-opacity="0.6"/>
<path fill-rule="evenodd" clip-rule="evenodd" d="M96.7096 48.6414L96.3098 48.979L95.6118 63.5971L96.0116 63.2595L96.7096 48.6414Z" fill="#6580E1" fill-opacity="0.6"/>
<path fill-rule="evenodd" clip-rule="evenodd" d="M96.3097 48.9792L95.2903 48.7417L94.5923 63.3599L95.6117 63.5973L96.3097 48.9792Z" fill="#6580E1" fill-opacity="0.6"/>
<path fill-rule="evenodd" clip-rule="evenodd" d="M95.2903 48.7416L94.7207 48.2905L94.0227 62.9087L94.5924 63.3597L95.2903 48.7416Z" fill="#6580E1" fill-opacity="0.6"/>
<path fill-rule="evenodd" clip-rule="evenodd" d="M94.7207 48.2905L95.0705 48.961L94.3725 63.5792L94.0227 62.9087L94.7207 48.2905Z" fill="#6580E1" fill-opacity="0.6"/>
<path fill-rule="evenodd" clip-rule="evenodd" d="M95.0705 48.9612L95.4703 48.835L94.7723 63.4531L94.3726 63.5793L95.0705 48.9612Z" fill="#6580E1" fill-opacity="0.6"/>
<path fill-rule="evenodd" clip-rule="evenodd" d="M95.4702 48.835L95.8 49.0207L95.102 63.6389L94.7722 63.4531L95.4702 48.835Z" fill="#6580E1" fill-opacity="0.6"/>
<path fill-rule="evenodd" clip-rule="evenodd" d="M95.8001 49.0205L94.8906 49.1405L94.1926 63.7587L95.1021 63.6387L95.8001 49.0205Z" fill="#6580E1" fill-opacity="0.6"/>
<path fill-rule="evenodd" clip-rule="evenodd" d="M94.8906 49.1406L94.7307 49.5662L94.0327 64.1844L94.1926 63.7588L94.8906 49.1406Z" fill="#6580E1" fill-opacity="0.6"/>
<path fill-rule="evenodd" clip-rule="evenodd" d="M94.7306 49.5662L93.9011 50.0565L93.2031 64.6746L94.0326 64.1843L94.7306 49.5662Z" fill="#6580E1" fill-opacity="0.6"/>
<path fill-rule="evenodd" clip-rule="evenodd" d="M93.9012 50.0566L93.3315 49.0122L92.6335 63.6304L93.2032 64.6747L93.9012 50.0566Z" fill="#6580E1" fill-opacity="0.6"/>
<path fill-rule="evenodd" clip-rule="evenodd" d="M93.3315 49.0122L92.9917 49.0444L92.2937 63.6626L92.6335 63.6304L93.3315 49.0122Z" fill="#6580E1" fill-opacity="0.6"/>
<path fill-rule="evenodd" clip-rule="evenodd" d="M92.9917 49.0445L93.1616 48.7283L92.4636 63.3464L92.2937 63.6626L92.9917 49.0445Z" fill="#6580E1" fill-opacity="0.6"/>
<path fill-rule="evenodd" clip-rule="evenodd" d="M93.1615 48.7283L92.4919 49.059L91.7939 63.6772L92.4635 63.3464L93.1615 48.7283Z" fill="#6580E1" fill-opacity="0.6"/>
<path fill-rule="evenodd" clip-rule="evenodd" d="M92.492 49.059L92.2322 48.6841L91.5342 63.3022L91.794 63.6772L92.492 49.059Z" fill="#6580E1" fill-opacity="0.6"/>
<path fill-rule="evenodd" clip-rule="evenodd" d="M92.2323 48.6841L91.093 49.0846L90.395 63.7028L91.5343 63.3022L92.2323 48.6841Z" fill="#6580E1" fill-opacity="0.6"/>
<path fill-rule="evenodd" clip-rule="evenodd" d="M91.0928 49.0846L90.833 48.9961L90.135 63.6143L90.3949 63.7027L91.0928 49.0846Z" fill="#6580E1" fill-opacity="0.6"/>
<path fill-rule="evenodd" clip-rule="evenodd" d="M90.833 48.9961L90.9929 49.4026L90.2949 64.0207L90.135 63.6143L90.833 48.9961Z" fill="#6580E1" fill-opacity="0.6"/>
<path fill-rule="evenodd" clip-rule="evenodd" d="M90.9931 49.4026L90.6233 49.5773L89.9253 64.1954L90.2951 64.0208L90.9931 49.4026Z" fill="#6580E1" fill-opacity="0.6"/>
<path fill-rule="evenodd" clip-rule="evenodd" d="M90.6233 49.5771L91.2929 50.4195L90.5949 65.0376L89.9253 64.1953L90.6233 49.5771Z" fill="#6580E1" fill-opacity="0.6"/>
<path fill-rule="evenodd" clip-rule="evenodd" d="M91.2927 50.4194L90.5432 51.1573L89.8452 65.7755L90.5948 65.0376L91.2927 50.4194Z" fill="#6580E1" fill-opacity="0.6"/>
<path fill-rule="evenodd" clip-rule="evenodd" d="M90.5432 51.1575L86.7056 49.4568L86.0076 64.075L89.8452 65.7757L90.5432 51.1575Z" fill="#6580E1" fill-opacity="0.6"/>
<path fill-rule="evenodd" clip-rule="evenodd" d="M86.7057 49.4568L83.4077 52.5234L82.7097 67.1416L86.0077 64.075L86.7057 49.4568Z" fill="#6580E1" fill-opacity="0.6"/>
<path fill-rule="evenodd" clip-rule="evenodd" d="M83.4077 52.5232L83.4877 52.839L82.7897 67.4571L82.7097 67.1414L83.4077 52.5232Z" fill="#6580E1" fill-opacity="0.6"/>
<path fill-rule="evenodd" clip-rule="evenodd" d="M83.4875 52.8391L81.4487 54.1374L80.7507 68.7556L82.7895 67.4573L83.4875 52.8391Z" fill="#6580E1" fill-opacity="0.6"/>
<path fill-rule="evenodd" clip-rule="evenodd" d="M81.4488 54.1375L80.6992 54.8753L80.0012 69.4935L80.7508 68.7556L81.4488 54.1375Z" fill="#6580E1" fill-opacity="0.6"/>
<path fill-rule="evenodd" clip-rule="evenodd" d="M80.6991 54.8752L80.0395 54.1968L79.3416 68.8149L80.0012 69.4933L80.6991 54.8752Z" fill="#6580E1" fill-opacity="0.6"/>
<path fill-rule="evenodd" clip-rule="evenodd" d="M80.0397 54.1968L77.821 53.5332L77.123 68.1514L79.3417 68.815L80.0397 54.1968Z" fill="#6580E1" fill-opacity="0.6"/>
<path fill-rule="evenodd" clip-rule="evenodd" d="M77.8209 53.5333L77.4311 52.8413L76.7332 67.4595L77.1229 68.1514L77.8209 53.5333Z" fill="#6580E1" fill-opacity="0.6"/>
<path fill-rule="evenodd" clip-rule="evenodd" d="M77.4311 52.8412L77.4411 51.9822L76.7431 66.6003L76.7332 67.4594L77.4311 52.8412Z" fill="#6580E1" fill-opacity="0.6"/>
<path fill-rule="evenodd" clip-rule="evenodd" d="M77.4412 51.9821L77.1313 51.49L76.4333 66.1082L76.7432 66.6003L77.4412 51.9821Z" fill="#6580E1" fill-opacity="0.6"/>
<path fill-rule="evenodd" clip-rule="evenodd" d="M77.1313 51.4901L77.4312 50.4133L76.7332 65.0315L76.4333 66.1082L77.1313 51.4901Z" fill="#6580E1" fill-opacity="0.6"/>
<path fill-rule="evenodd" clip-rule="evenodd" d="M77.4312 50.4132L77.0215 49.1274L76.3235 63.7456L76.7332 65.0314L77.4312 50.4132Z" fill="#6580E1" fill-opacity="0.6"/>
<path fill-rule="evenodd" clip-rule="evenodd" d="M77.0214 49.1274L76.062 49.0552L75.364 63.6733L76.3234 63.7456L77.0214 49.1274Z" fill="#6580E1" fill-opacity="0.6"/>
<path fill-rule="evenodd" clip-rule="evenodd" d="M76.0619 49.0552L76.022 50.2272L75.324 64.8454L75.364 63.6733L76.0619 49.0552Z" fill="#6580E1" fill-opacity="0.6"/>
<path fill-rule="evenodd" clip-rule="evenodd" d="M76.022 50.2273L75.1526 50.2324L74.4546 64.8505L75.3241 64.8455L76.022 50.2273Z" fill="#6580E1" fill-opacity="0.6"/>
<path fill-rule="evenodd" clip-rule="evenodd" d="M75.1525 50.2323L74.9626 48.6111L74.2646 63.2292L74.4545 64.8504L75.1525 50.2323Z" fill="#6580E1" fill-opacity="0.6"/>
<path fill-rule="evenodd" clip-rule="evenodd" d="M74.9628 48.6111L74.0034 49.3504L73.3054 63.9686L74.2648 63.2292L74.9628 48.6111Z" fill="#6580E1" fill-opacity="0.6"/>
<path fill-rule="evenodd" clip-rule="evenodd" d="M74.0034 49.3506L74.3832 49.8922L73.6852 64.5104L73.3054 63.9688L74.0034 49.3506Z" fill="#6580E1" fill-opacity="0.6"/>
<path fill-rule="evenodd" clip-rule="evenodd" d="M74.3832 49.8921L74.3032 50.4697L73.6052 65.0879L73.6852 64.5103L74.3832 49.8921Z" fill="#6580E1" fill-opacity="0.6"/>
<path fill-rule="evenodd" clip-rule="evenodd" d="M74.3031 50.47L74.0933 50.4646L73.3953 65.0828L73.6051 65.0881L74.3031 50.47Z" fill="#6580E1" fill-opacity="0.6"/>
<path fill-rule="evenodd" clip-rule="evenodd" d="M74.0934 50.4645L73.5437 49.9526L72.8457 64.5708L73.3954 65.0827L74.0934 50.4645Z" fill="#6580E1" fill-opacity="0.6"/>
<path fill-rule="evenodd" clip-rule="evenodd" d="M73.5437 49.9526L73.2239 50.2923L72.5259 64.9105L72.8457 64.5708L73.5437 49.9526Z" fill="#6580E1" fill-opacity="0.6"/>
<path fill-rule="evenodd" clip-rule="evenodd" d="M73.2237 50.2922L72.3642 50.4885L71.6663 65.1067L72.5257 64.9104L73.2237 50.2922Z" fill="#6580E1" fill-opacity="0.6"/>
<path fill-rule="evenodd" clip-rule="evenodd" d="M72.3644 50.4885L69.5461 52.4694L68.8481 67.0875L71.6664 65.1067L72.3644 50.4885Z" fill="#6580E1" fill-opacity="0.6"/>
<path fill-rule="evenodd" clip-rule="evenodd" d="M69.5461 52.4693L64.4192 52.1133L63.7212 66.7314L68.8481 67.0874L69.5461 52.4693Z" fill="#6580E1" fill-opacity="0.6"/>
<path fill-rule="evenodd" clip-rule="evenodd" d="M64.4192 52.1133L64.8689 54.2731L64.1709 68.8912L63.7212 66.7314L64.4192 52.1133Z" fill="#6580E1" fill-opacity="0.6"/>
<path fill-rule="evenodd" clip-rule="evenodd" d="M64.8689 54.2731L63.4997 53.5493L62.8018 68.1675L64.1709 68.8913L64.8689 54.2731Z" fill="#6580E1" fill-opacity="0.6"/>
<path fill-rule="evenodd" clip-rule="evenodd" d="M63.4997 53.5493L62.5703 53.8325L61.8723 68.4506L62.8017 68.1675L63.4997 53.5493Z" fill="#6580E1" fill-opacity="0.6"/>
<path fill-rule="evenodd" clip-rule="evenodd" d="M62.5703 53.8326L61.8208 53.6838L61.1228 68.302L61.8723 68.4507L62.5703 53.8326Z" fill="#6580E1" fill-opacity="0.6"/>
<path fill-rule="evenodd" clip-rule="evenodd" d="M61.8208 53.6838L60.7414 53.1448L60.0435 67.7629L61.1228 68.302L61.8208 53.6838Z" fill="#6580E1" fill-opacity="0.6"/>
<path fill-rule="evenodd" clip-rule="evenodd" d="M60.7414 53.1447L60.6914 52.782L59.9934 67.4001L60.0434 67.7629L60.7414 53.1447Z" fill="#6580E1" fill-opacity="0.6"/>
<path fill-rule="evenodd" clip-rule="evenodd" d="M60.6915 52.7821L60.3218 52.5544L59.6238 67.1726L59.9936 67.4003L60.6915 52.7821Z" fill="#6580E1" fill-opacity="0.6"/>
<path fill-rule="evenodd" clip-rule="evenodd" d="M60.3218 52.5544L60.012 52.7784L59.314 67.3966L59.6238 67.1726L60.3218 52.5544Z" fill="#6580E1" fill-opacity="0.6"/>
<path fill-rule="evenodd" clip-rule="evenodd" d="M60.0118 52.7783L59.762 52.6492L59.064 67.2673L59.3138 67.3965L60.0118 52.7783Z" fill="#6580E1" fill-opacity="0.6"/>
<path fill-rule="evenodd" clip-rule="evenodd" d="M59.762 52.6492L60.1417 52.4133L59.4437 67.0315L59.064 67.2673L59.762 52.6492Z" fill="#6580E1" fill-opacity="0.6"/>
<path fill-rule="evenodd" clip-rule="evenodd" d="M60.1418 52.4133L59.6621 52.0737L58.9641 66.6919L59.4438 67.0315L60.1418 52.4133Z" fill="#6580E1" fill-opacity="0.6"/>
<path fill-rule="evenodd" clip-rule="evenodd" d="M59.6621 52.0737L59.3423 52.2633L58.6443 66.8815L58.9641 66.6919L59.6621 52.0737Z" fill="#6580E1" fill-opacity="0.6"/>
<path fill-rule="evenodd" clip-rule="evenodd" d="M59.3422 52.2634L58.9924 52.084L58.2944 66.7021L58.6442 66.8816L59.3422 52.2634Z" fill="#6580E1" fill-opacity="0.6"/>
<path fill-rule="evenodd" clip-rule="evenodd" d="M58.9924 52.0839L59.0324 51.4507L58.3344 66.0688L58.2944 66.7021L58.9924 52.0839Z" fill="#6580E1" fill-opacity="0.6"/>
<path fill-rule="evenodd" clip-rule="evenodd" d="M59.0323 51.4507L57.1135 52.1723L56.4155 66.7905L58.3344 66.0688L59.0323 51.4507Z" fill="#6580E1" fill-opacity="0.6"/>
<path fill-rule="evenodd" clip-rule="evenodd" d="M57.1135 52.1724L57.2135 52.325L56.5155 66.9431L56.4155 66.7905L57.1135 52.1724Z" fill="#6580E1" fill-opacity="0.6"/>
<path fill-rule="evenodd" clip-rule="evenodd" d="M57.2137 52.325L57.0937 52.4174L56.3958 67.0355L56.5157 66.9431L57.2137 52.325Z" fill="#6580E1" fill-opacity="0.6"/>
<path fill-rule="evenodd" clip-rule="evenodd" d="M57.0936 52.4173L56.9836 52.3054L56.2856 66.9236L56.3956 67.0355L57.0936 52.4173Z" fill="#6580E1" fill-opacity="0.6"/>
<path fill-rule="evenodd" clip-rule="evenodd" d="M56.9836 52.3054L56.334 53.6324L55.636 68.2505L56.2856 66.9236L56.9836 52.3054Z" fill="#6580E1" fill-opacity="0.6"/>
<path fill-rule="evenodd" clip-rule="evenodd" d="M56.334 53.6323L56.6038 53.9734L55.9058 68.5916L55.636 68.2505L56.334 53.6323Z" fill="#6580E1" fill-opacity="0.6"/>
<path fill-rule="evenodd" clip-rule="evenodd" d="M56.604 53.9733L56.7639 53.9229L56.0659 68.541L55.906 68.5915L56.604 53.9733Z" fill="#6580E1" fill-opacity="0.6"/>
<path fill-rule="evenodd" clip-rule="evenodd" d="M56.7639 53.9229L56.7539 54.4273L56.0559 69.0454L56.0659 68.541L56.7639 53.9229Z" fill="#6580E1" fill-opacity="0.6"/>
<path fill-rule="evenodd" clip-rule="evenodd" d="M56.7537 54.4272L56.334 54.5529L55.636 69.1711L56.0557 69.0454L56.7537 54.4272Z" fill="#6580E1" fill-opacity="0.6"/>
<path fill-rule="evenodd" clip-rule="evenodd" d="M56.334 54.5531L55.9143 54.481L55.2163 69.0991L55.6361 69.1712L56.334 54.5531Z" fill="#6580E1" fill-opacity="0.6"/>
<path fill-rule="evenodd" clip-rule="evenodd" d="M55.9144 54.481L55.6946 54.7618L54.9966 69.3799L55.2164 69.0991L55.9144 54.481Z" fill="#6580E1" fill-opacity="0.6"/>
<path fill-rule="evenodd" clip-rule="evenodd" d="M55.6945 54.7618L55.3147 54.6226L54.6167 69.2407L54.9965 69.38L55.6945 54.7618Z" fill="#6580E1" fill-opacity="0.6"/>
<path fill-rule="evenodd" clip-rule="evenodd" d="M55.3147 54.6226L55.5445 55.099L54.8466 69.7172L54.6167 69.2407L55.3147 54.6226Z" fill="#6580E1" fill-opacity="0.6"/>
<path fill-rule="evenodd" clip-rule="evenodd" d="M55.5446 55.0989L55.3647 55.0398L54.6667 69.658L54.8466 69.7171L55.5446 55.0989Z" fill="#6580E1" fill-opacity="0.6"/>
<path fill-rule="evenodd" clip-rule="evenodd" d="M55.3646 55.0398L54.9949 55.6782L54.2969 70.2964L54.6666 69.658L55.3646 55.0398Z" fill="#6580E1" fill-opacity="0.6"/>
<path fill-rule="evenodd" clip-rule="evenodd" d="M54.995 55.6782L45.071 58.3369L44.373 72.9551L54.297 70.2964L54.995 55.6782Z" fill="#6580E1" fill-opacity="0.6"/>
<path fill-rule="evenodd" clip-rule="evenodd" d="M45.0711 58.337L42.9324 58.2278L42.2344 72.8459L44.3731 72.9551L45.0711 58.337Z" fill="#6580E1" fill-opacity="0.6"/>
<path fill-rule="evenodd" clip-rule="evenodd" d="M42.9324 58.2278L40.314 58.0654L39.616 72.6836L42.2344 72.8459L42.9324 58.2278Z" fill="#6580E1" fill-opacity="0.6"/>
<path fill-rule="evenodd" clip-rule="evenodd" d="M40.3137 58.0653L35.2568 56.197L34.5588 70.8152L39.6158 72.6834L40.3137 58.0653Z" fill="#6580E1" fill-opacity="0.6"/>
<path fill-rule="evenodd" clip-rule="evenodd" d="M35.257 56.197L33.0884 60.7792L32.3904 75.3974L34.5591 70.8152L35.257 56.197Z" fill="#6580E1" fill-opacity="0.6"/>
<path fill-rule="evenodd" clip-rule="evenodd" d="M33.0882 60.7795L32.4985 60.6553L31.8005 75.2734L32.3902 75.3976L33.0882 60.7795Z" fill="#6580E1" fill-opacity="0.6"/>
<path fill-rule="evenodd" clip-rule="evenodd" d="M32.4987 60.6553L30.6299 61.2827L29.9319 75.9009L31.8007 75.2734L32.4987 60.6553Z" fill="#6580E1" fill-opacity="0.6"/>
<path fill-rule="evenodd" clip-rule="evenodd" d="M30.6299 61.2827L26.7822 65.5492L26.0842 80.1674L29.9319 75.9009L30.6299 61.2827Z" fill="#6580E1" fill-opacity="0.6"/>
<path fill-rule="evenodd" clip-rule="evenodd" d="M26.7821 65.5491L22.6946 65.5879L21.9966 80.2061L26.0841 80.1672L26.7821 65.5491Z" fill="#6580E1" fill-opacity="0.6"/>
<path fill-rule="evenodd" clip-rule="evenodd" d="M22.6945 65.5879L19.8762 68.7622L19.1782 83.3804L21.9965 80.2061L22.6945 65.5879Z" fill="#6580E1" fill-opacity="0.6"/>
<path fill-rule="evenodd" clip-rule="evenodd" d="M19.8762 68.7622L15.5688 71.0392L14.8708 85.6574L19.1782 83.3804L19.8762 68.7622Z" fill="#6580E1" fill-opacity="0.6"/>
<path fill-rule="evenodd" clip-rule="evenodd" d="M15.569 71.0392L7.0642 68.926L6.36621 83.5442L14.871 85.6574L15.569 71.0392Z" fill="#6580E1" fill-opacity="0.6"/>
<path fill-rule="evenodd" clip-rule="evenodd" d="M7.06405 68.9261L5.12524 68.9243L4.42725 83.5425L6.36606 83.5443L7.06405 68.9261Z" fill="#6580E1" fill-opacity="0.6"/>
<path fill-rule="evenodd" clip-rule="evenodd" d="M5.12524 68.9243V68.9243L4.42725 83.5425V83.5425L5.12524 68.9243Z" fill="#6580E1" fill-opacity="0.6"/>
<path d="M5.1253 68.9244L4.49568 67.9672L5.20525 67.0714L4.42573 65.2101L4.9554 64.5348L4.91543 62.9106L5.71494 63.2857L6.15468 62.9969L6.32457 63.2058L6.14468 63.399L6.57442 63.1985L6.88423 62.1221L5.66497 61.1634L7.01415 59.9976L8.88301 59.7929L8.06351 58.9604L7.89361 58.6628L8.02353 58.5639L7.63377 58.0901L6.72433 57.7464L6.83426 57.5855L6.50447 57.4748L6.22464 57.6927L6.33456 57.8251L5.85485 57.7719L5.75493 57.0123L6.14468 54.9831L5.70495 54.5422L5.80489 54.2379L6.23462 54.0852L6.2946 53.3911L5.06534 52.7595L4.38575 52.8786L4.4657 53.0852L4.23584 53.1407L4.18588 52.8939L2.23706 53.0965L1.76735 52.3616L1.11775 52.0722L1.97723 51.3098L1.82731 49.2736L0.697998 48.6515L0.937857 48.4325L1.78733 48.8566L3.90605 44.5255L3.99599 43.7639L3.47631 43.662L3.29642 41.4818L4.36577 41.1954L5.11532 40.669L5.33517 40.0062L5.83487 39.7598L6.34456 39.7387L6.21464 39.6195L6.78429 39.2044L6.71433 39.1003L6.96418 39.1135L7.61379 38.7141L7.47388 38.5945L7.89361 38.3325L8.17344 37.378L8.37332 37.6695L8.10348 38.1332L8.40331 38.2227L9.72251 37.4176L8.31336 36.0789L7.75371 34.4279L7.73371 31.3652L8.85303 30.1525L9.10287 29.3746L10.9817 30.2751L11.3215 31.5659L11.7513 31.4951L11.8412 31.8656L12.3209 31.9666L12.5008 32.2235L13.5602 32.4824V32.7211L14.9493 33.1317L15.0393 33.0044L15.449 33.1308L15.379 33.3541L18.3273 34.3228L18.5371 34.1236L20.1861 34.5408L20.316 34.244L22.7246 35.0353L25.1231 33.2006L26.0525 33.0129L27.6716 30.8514L28.1513 30.5567L28.2512 30.1228L28.7909 30.0684L29.3305 29.7344L29.1407 28.7952L28.7309 28.2596L28.7209 27.5159L29.4005 27.4514L29.3505 26.966L30.0001 26.0209L29.6204 25.6225L30.29 25.2849L30.2 25.1872L31.0795 24.3844L31.2993 24.0081L31.2494 23.168L31.5592 22.7871L32.6385 21.5667L32.7684 21.6927L33.0583 21.3728L32.8184 21.3121L33.0283 21.0583L33.3481 21.2097L33.8178 20.8534L33.9977 21.1717L34.2076 21.027L33.4081 20.2769L35.4768 19.3954L36.1664 20.02L36.0864 19.8952L36.5162 19.7902L36.4462 19.502L35.9365 19.2912L35.2869 19.2746L35.9165 19.1679L35.8766 18.9964L36.766 18.8827L36.6161 18.5992L37.1358 18.4079L37.0259 17.5117L36.6461 17.5156L36.5461 17.3221L37.4156 17.2625L37.7254 17.5432L38.0652 17.5382L37.9353 14.3023L36.2263 14.8383L35.9365 14.449L34.7772 14.774L35.4068 13.7876L36.5761 13.3673L35.9065 12.4636L35.5867 12.4282L35.9865 12.0496L34.1776 11.2259L34.3375 10.6231L35.4768 9.81329L35.8566 10.0481L37.9753 9.20874L37.1658 8.21963L39.3844 7.31468L39.6443 7.56001L40.5837 7.12707L40.2039 6.49675L39.5443 6.71178L39.4944 6.39679L40.034 6.2742L40.5337 6.43015L40.8635 6.35674L41.2533 6.48945L41.3932 6.759L41.8129 6.7288L41.653 6.5815L42.1028 6.59298L42.0028 6.44721L42.1727 6.44473L42.6724 6.60753L42.6824 6.74419L43.0722 6.76778L42.9023 6.9544L44.3914 6.96515L43.9416 6.66041L44.0316 6.49221L44.3714 6.61682L44.1015 6.24167L44.2115 6.12173L45.0909 6.38287L45.021 6.52429L44.5912 6.51332L44.6112 6.62977L45.0909 6.6693L47.7593 7.73317L47.5095 5.87857L48.4289 5.92935L48.3589 5.56609L49.1784 5.51884L49.5182 6.38001L51.0373 6.18008L51.9867 6.84542L51.7669 6.95574L51.9867 7.08412L54.9649 4.70498L56.0742 2.55773L55.9443 2.31574L56.2941 2.161L56.7638 1.27957L60.8713 0L61.7208 0.785533L62.0106 0.677004L62.98 1.10416L63.3498 1.02494L64.5491 1.47158L64.9189 1.7811L65.2786 1.50386L65.6484 1.60197L66.368 2.57512L66.388 2.7734L66.1381 2.8625L66.6878 3.42896L66.8777 3.39289L67.4873 3.87221L67.3374 4.04571L68.3967 5.02076L70.6254 6.03927L72.864 9.32912L75.6723 11.1399L78.8104 11.3019L80.8391 11.7493L83.3776 12.9258L85.6362 14.4907L87.8049 16.6057L87.0753 17.0167L86.9654 16.5979L86.3458 16.8685L86.3758 17.1285L86.1859 16.9872L85.936 17.049L86.026 17.3173L85.6162 17.6819L86.8155 17.3716L88.6644 18.926L88.5245 18.4859L90.1535 18.1524L91.6126 19.2468L91.7125 19.4881L90.4733 21.6865L89.204 21.7974L89.314 22.4753L89.0541 22.5778L89.1141 23.2955L88.2746 23.5536L88.1347 23.2773L87.1853 23.4303L87.3852 23.8037L88.1447 23.6799L88.2546 23.8737L89.7237 23.1542L90.1035 24.0027L89.7537 24.0961L89.9536 24.8105L89.6338 24.9523L90.2134 25.997L90.993 25.7441L91.4427 26.6694L91.3128 28.8553L92.9618 28.9929L94.211 29.4136L94.6208 29.9219L94.6607 31.1914L91.9923 31.5461L91.7525 30.9262L91.1229 32.2196L91.9424 32.0086L93.0217 33.1819L92.482 33.5637L92.9718 33.6308L93.8412 34.4577L94.1011 34.478L94.0811 34.7503L95.91 37.4704L96.9993 40.0012L98.9781 41.0202L96.6995 42.4351L96.4596 43.07L97.6589 43.3462L98.7882 43.1295L98.9881 43.5643L98.0686 43.7522L98.4284 45.0095L97.469 45.1486L97.7488 45.9333L97.1492 46.0816L97.509 47.1275L97.3491 47.1575L97.1492 46.8796L96.9593 46.9225L97.2691 47.5305L96.8794 47.6433L96.5496 47.444L96.3797 47.9647L96.7095 48.6415L96.3097 48.9791L95.2903 48.7417L94.7207 48.2907L95.0705 48.9611L95.4702 48.8349L95.8 49.0207L94.8906 49.1407L94.7307 49.5663L93.9012 50.0566L93.3315 49.0122L92.9917 49.0444L93.1616 48.7282L92.492 49.059L92.2322 48.684L91.0929 49.0846L90.8331 48.9961L90.993 49.4026L90.6232 49.5773L91.2928 50.4196L90.5432 51.1575L86.7056 49.4568L83.4076 52.5234L83.4875 52.8391L81.4488 54.1374L80.6992 54.8753L80.0396 54.1969L77.821 53.5333L77.4312 52.8413L77.4412 51.9823L77.1314 51.4901L77.4312 50.4134L77.0215 49.1276L76.0621 49.0554L76.0221 50.2274L75.1526 50.2325L74.9627 48.6113L74.0033 49.3506L74.3831 49.8923L74.3031 50.4699L74.0933 50.4646L73.5436 49.9527L73.2238 50.2923L72.3643 50.4886L69.546 52.4694L64.4192 52.1134L64.8689 54.2732L63.4997 53.5494L62.5703 53.8326L61.8207 53.6839L60.7414 53.1448L60.6914 52.7821L60.3217 52.5544L60.0118 52.7784L59.762 52.6492L60.1418 52.4134L59.6621 52.0738L59.3423 52.2634L58.9925 52.084L59.0324 51.4507L57.1136 52.1724L57.2136 52.325L57.0936 52.4174L56.9837 52.3055L56.3341 53.6324L56.6039 53.9735L56.7638 53.923L56.7538 54.4274L56.3341 54.5531L55.9143 54.481L55.6945 54.7618L55.3147 54.6226L55.5446 55.099L55.3647 55.0399L54.9949 55.6783L45.0709 58.337L42.9323 58.2278L40.3139 58.0655L35.2569 56.1972L33.0883 60.7794L32.4986 60.6552L30.6298 61.2827L26.7821 65.5492L22.6946 65.588L19.8763 68.7624L15.5689 71.0394L7.06412 68.9262L5.1253 68.9244Z" fill="white"/>
</svg>
