<svg width="79" height="87" viewBox="0 0 79 87" fill="none" xmlns="http://www.w3.org/2000/svg">
<path fill-rule="evenodd" clip-rule="evenodd" d="M47.2496 5.58552L45.031 4.92188L44.333 19.54L46.5517 20.2037L47.2496 5.58552Z" fill="#6580E1" fill-opacity="0.6"/>
<path fill-rule="evenodd" clip-rule="evenodd" d="M45.0309 4.92193L44.6411 4.22998L43.9431 18.8481L44.3329 19.5401L45.0309 4.92193Z" fill="#6580E1" fill-opacity="0.6"/>
<path fill-rule="evenodd" clip-rule="evenodd" d="M44.6411 4.22988L44.6511 3.37085L43.9531 17.989L43.9431 18.848L44.6411 4.22988Z" fill="#6580E1" fill-opacity="0.6"/>
<path fill-rule="evenodd" clip-rule="evenodd" d="M44.6511 3.37081L44.3413 2.87866L43.6433 17.4968L43.9531 17.989L44.6511 3.37081Z" fill="#6580E1" fill-opacity="0.6"/>
<path fill-rule="evenodd" clip-rule="evenodd" d="M44.3413 2.87874L44.6411 1.802L43.9431 16.4202L43.6433 17.4969L44.3413 2.87874Z" fill="#6580E1" fill-opacity="0.6"/>
<path fill-rule="evenodd" clip-rule="evenodd" d="M44.6412 1.80216L44.2314 0.516357L43.5334 15.1345L43.9432 16.4203L44.6412 1.80216Z" fill="#6580E1" fill-opacity="0.6"/>
<path fill-rule="evenodd" clip-rule="evenodd" d="M44.2314 0.51634L43.272 0.444092L42.574 15.0623L43.5334 15.1345L44.2314 0.51634Z" fill="#6580E1" fill-opacity="0.6"/>
<path fill-rule="evenodd" clip-rule="evenodd" d="M43.2721 0.444092L43.2322 1.61613L42.5342 16.2343L42.5742 15.0623L43.2721 0.444092Z" fill="#6580E1" fill-opacity="0.6"/>
<path fill-rule="evenodd" clip-rule="evenodd" d="M43.232 1.61597L42.3625 1.62103L41.6646 16.2392L42.534 16.2341L43.232 1.61597Z" fill="#6580E1" fill-opacity="0.6"/>
<path fill-rule="evenodd" clip-rule="evenodd" d="M42.3625 1.62119L42.1726 0L41.4746 14.6182L41.6645 16.2393L42.3625 1.62119Z" fill="#6580E1" fill-opacity="0.6"/>
<path fill-rule="evenodd" clip-rule="evenodd" d="M42.1728 0L41.2134 0.739335L40.5154 15.3575L41.4748 14.6182L42.1728 0Z" fill="#6580E1" fill-opacity="0.6"/>
<path fill-rule="evenodd" clip-rule="evenodd" d="M41.2134 0.739258L41.5931 1.28093L40.8951 15.8991L40.5154 15.3574L41.2134 0.739258Z" fill="#6580E1" fill-opacity="0.6"/>
<path fill-rule="evenodd" clip-rule="evenodd" d="M41.5931 1.28101L41.5132 1.85865L40.8152 16.4768L40.8951 15.8992L41.5931 1.28101Z" fill="#6580E1" fill-opacity="0.6"/>
<path fill-rule="evenodd" clip-rule="evenodd" d="M41.5131 1.85863L41.3032 1.85327L40.6052 16.4714L40.8151 16.4768L41.5131 1.85863Z" fill="#6580E1" fill-opacity="0.6"/>
<path fill-rule="evenodd" clip-rule="evenodd" d="M41.3033 1.85319L40.7537 1.34131L40.0557 15.9595L40.6053 16.4714L41.3033 1.85319Z" fill="#6580E1" fill-opacity="0.6"/>
<path fill-rule="evenodd" clip-rule="evenodd" d="M40.7536 1.34131L40.4338 1.68097L39.7358 16.2991L40.0556 15.9595L40.7536 1.34131Z" fill="#6580E1" fill-opacity="0.6"/>
<path fill-rule="evenodd" clip-rule="evenodd" d="M40.4337 1.68091L39.5742 1.8772L38.8762 16.4954L39.7357 16.2991L40.4337 1.68091Z" fill="#6580E1" fill-opacity="0.6"/>
<path fill-rule="evenodd" clip-rule="evenodd" d="M39.5744 1.8772L36.7561 3.858L36.0581 18.4762L38.8764 16.4954L39.5744 1.8772Z" fill="#6580E1" fill-opacity="0.6"/>
<path fill-rule="evenodd" clip-rule="evenodd" d="M36.756 3.85817L31.6291 3.5022L30.9312 18.1204L36.058 18.4763L36.756 3.85817Z" fill="#6580E1" fill-opacity="0.6"/>
<path fill-rule="evenodd" clip-rule="evenodd" d="M31.6291 3.5022L32.0789 5.66195L31.3809 20.2801L30.9312 18.1204L31.6291 3.5022Z" fill="#6580E1" fill-opacity="0.6"/>
<path fill-rule="evenodd" clip-rule="evenodd" d="M32.0789 5.66198L30.7097 4.93823L30.0117 19.5564L31.3809 20.2801L32.0789 5.66198Z" fill="#6580E1" fill-opacity="0.6"/>
<path fill-rule="evenodd" clip-rule="evenodd" d="M30.7097 4.93823L29.7803 5.22137L29.0823 19.8395L30.0117 19.5564L30.7097 4.93823Z" fill="#6580E1" fill-opacity="0.6"/>
<path fill-rule="evenodd" clip-rule="evenodd" d="M29.7803 5.22124L29.0308 5.07251L28.3328 19.6907L29.0823 19.8394L29.7803 5.22124Z" fill="#6580E1" fill-opacity="0.6"/>
<path fill-rule="evenodd" clip-rule="evenodd" d="M29.0308 5.07251L27.9514 4.53345L27.2534 19.1516L28.3328 19.6907L29.0308 5.07251Z" fill="#6580E1" fill-opacity="0.6"/>
<path fill-rule="evenodd" clip-rule="evenodd" d="M27.9513 4.53337L27.9014 4.17065L27.2034 18.7888L27.2533 19.1515L27.9513 4.53337Z" fill="#6580E1" fill-opacity="0.6"/>
<path fill-rule="evenodd" clip-rule="evenodd" d="M27.9015 4.1708L27.5317 3.94312L26.8337 18.5613L27.2035 18.789L27.9015 4.1708Z" fill="#6580E1" fill-opacity="0.6"/>
<path fill-rule="evenodd" clip-rule="evenodd" d="M27.5317 3.94312L27.2219 4.1671L26.5239 18.7853L26.8337 18.5613L27.5317 3.94312Z" fill="#6580E1" fill-opacity="0.6"/>
<path fill-rule="evenodd" clip-rule="evenodd" d="M27.2218 4.16702L26.9719 4.03784L26.2739 18.656L26.5238 18.7852L27.2218 4.16702Z" fill="#6580E1" fill-opacity="0.6"/>
<path fill-rule="evenodd" clip-rule="evenodd" d="M26.9719 4.03782L27.3517 3.802L26.6537 18.4202L26.2739 18.656L26.9719 4.03782Z" fill="#6580E1" fill-opacity="0.6"/>
<path fill-rule="evenodd" clip-rule="evenodd" d="M27.3518 3.802L26.8721 3.4624L26.1741 18.0806L26.6538 18.4202L27.3518 3.802Z" fill="#6580E1" fill-opacity="0.6"/>
<path fill-rule="evenodd" clip-rule="evenodd" d="M26.872 3.4624L26.5522 3.652L25.8542 18.2702L26.1741 18.0806L26.872 3.4624Z" fill="#6580E1" fill-opacity="0.6"/>
<path fill-rule="evenodd" clip-rule="evenodd" d="M26.5522 3.65209L26.2024 3.47266L25.5044 18.0908L25.8542 18.2703L26.5522 3.65209Z" fill="#6580E1" fill-opacity="0.6"/>
<path fill-rule="evenodd" clip-rule="evenodd" d="M26.2024 3.47259L26.2424 2.83936L25.5444 17.4575L25.5044 18.0907L26.2024 3.47259Z" fill="#6580E1" fill-opacity="0.6"/>
<path fill-rule="evenodd" clip-rule="evenodd" d="M26.2423 2.83936L24.3235 3.56101L23.6255 18.1792L25.5443 17.4575L26.2423 2.83936Z" fill="#6580E1" fill-opacity="0.6"/>
<path fill-rule="evenodd" clip-rule="evenodd" d="M24.3235 3.56104L24.4234 3.71361L23.7254 18.3318L23.6255 18.1792L24.3235 3.56104Z" fill="#6580E1" fill-opacity="0.6"/>
<path fill-rule="evenodd" clip-rule="evenodd" d="M24.4236 3.71362L24.3037 3.80605L23.6057 18.4242L23.7256 18.3318L24.4236 3.71362Z" fill="#6580E1" fill-opacity="0.6"/>
<path fill-rule="evenodd" clip-rule="evenodd" d="M24.3035 3.806L24.1936 3.69409L23.4956 18.3123L23.6055 18.4242L24.3035 3.806Z" fill="#6580E1" fill-opacity="0.6"/>
<path fill-rule="evenodd" clip-rule="evenodd" d="M24.1938 3.69409L23.5442 5.02102L22.8462 19.6392L23.4958 18.3123L24.1938 3.69409Z" fill="#6580E1" fill-opacity="0.6"/>
<path fill-rule="evenodd" clip-rule="evenodd" d="M23.5442 5.021L23.814 5.36206L23.116 19.9802L22.8462 19.6392L23.5442 5.021Z" fill="#6580E1" fill-opacity="0.6"/>
<path fill-rule="evenodd" clip-rule="evenodd" d="M23.814 5.36222L23.9739 5.31177L23.2759 19.9299L23.116 19.9804L23.814 5.36222Z" fill="#6580E1" fill-opacity="0.6"/>
<path fill-rule="evenodd" clip-rule="evenodd" d="M23.9739 5.31177L23.9639 5.81618L23.2659 20.4343L23.2759 19.9299L23.9739 5.31177Z" fill="#6580E1" fill-opacity="0.6"/>
<path fill-rule="evenodd" clip-rule="evenodd" d="M23.9639 5.81616L23.5442 5.94185L22.8462 20.56L23.2659 20.4343L23.9639 5.81616Z" fill="#6580E1" fill-opacity="0.6"/>
<path fill-rule="evenodd" clip-rule="evenodd" d="M23.544 5.94174L23.1243 5.86963L22.4263 20.4878L22.846 20.5599L23.544 5.94174Z" fill="#6580E1" fill-opacity="0.6"/>
<path fill-rule="evenodd" clip-rule="evenodd" d="M23.1244 5.86963L22.9045 6.15044L22.2065 20.7686L22.4264 20.4878L23.1244 5.86963Z" fill="#6580E1" fill-opacity="0.6"/>
<path fill-rule="evenodd" clip-rule="evenodd" d="M22.9044 6.15051L22.5247 6.01123L21.8267 20.6294L22.2064 20.7687L22.9044 6.15051Z" fill="#6580E1" fill-opacity="0.6"/>
<path fill-rule="evenodd" clip-rule="evenodd" d="M22.5247 6.01123L22.7545 6.48769L22.0565 21.1059L21.8267 20.6294L22.5247 6.01123Z" fill="#6580E1" fill-opacity="0.6"/>
<path fill-rule="evenodd" clip-rule="evenodd" d="M22.7546 6.48762L22.5747 6.42847L21.8767 21.0466L22.0566 21.1058L22.7546 6.48762Z" fill="#6580E1" fill-opacity="0.6"/>
<path fill-rule="evenodd" clip-rule="evenodd" d="M22.5746 6.42847L22.2048 7.06692L21.5068 21.6851L21.8766 21.0466L22.5746 6.42847Z" fill="#6580E1" fill-opacity="0.6"/>
<path fill-rule="evenodd" clip-rule="evenodd" d="M22.2049 7.06689L12.281 9.72558L11.583 24.3437L21.507 21.6851L22.2049 7.06689Z" fill="#6580E1" fill-opacity="0.6"/>
<path fill-rule="evenodd" clip-rule="evenodd" d="M12.281 9.72564L10.1423 9.61646L9.44434 24.2346L11.583 24.3438L12.281 9.72564Z" fill="#6580E1" fill-opacity="0.6"/>
<path fill-rule="evenodd" clip-rule="evenodd" d="M10.1423 9.61646L10.0024 9.87886L9.30444 24.497L9.44436 24.2346L10.1423 9.61646Z" fill="#6580E1" fill-opacity="0.6"/>
<path fill-rule="evenodd" clip-rule="evenodd" d="M10.0024 9.87891L10.2123 10.2253L9.51432 24.8434L9.30444 24.4971L10.0024 9.87891Z" fill="#6580E1" fill-opacity="0.6"/>
<path fill-rule="evenodd" clip-rule="evenodd" d="M10.2121 10.2251L10.0322 10.2819L9.33423 24.9L9.51412 24.8433L10.2121 10.2251Z" fill="#6580E1" fill-opacity="0.6"/>
<path fill-rule="evenodd" clip-rule="evenodd" d="M10.0324 10.282L9.8225 11.095L9.12451 25.7132L9.33438 24.9001L10.0324 10.282Z" fill="#6580E1" fill-opacity="0.6"/>
<path fill-rule="evenodd" clip-rule="evenodd" d="M9.8225 11.095L10.5121 11.2967L9.81409 25.9149L9.12451 25.7131L9.8225 11.095Z" fill="#6580E1" fill-opacity="0.6"/>
<path fill-rule="evenodd" clip-rule="evenodd" d="M10.512 11.2969L10.3921 11.8258L9.69409 26.4439L9.81402 25.915L10.512 11.2969Z" fill="#6580E1" fill-opacity="0.6"/>
<path fill-rule="evenodd" clip-rule="evenodd" d="M10.3921 11.8257L10.8118 13.0026L10.1138 27.6208L9.69409 26.4438L10.3921 11.8257Z" fill="#6580E1" fill-opacity="0.6"/>
<path fill-rule="evenodd" clip-rule="evenodd" d="M10.8118 13.0027L10.4021 13.4833L9.7041 28.1014L10.1139 27.6208L10.8118 13.0027Z" fill="#6580E1" fill-opacity="0.6"/>
<path fill-rule="evenodd" clip-rule="evenodd" d="M10.4021 13.4832L11.0517 14.284L10.3537 28.9022L9.7041 28.1013L10.4021 13.4832Z" fill="#6580E1" fill-opacity="0.6"/>
<path fill-rule="evenodd" clip-rule="evenodd" d="M11.0517 14.2842L10.2222 14.6245L9.52417 29.2426L10.3537 28.9023L11.0517 14.2842Z" fill="#6580E1" fill-opacity="0.6"/>
<path fill-rule="evenodd" clip-rule="evenodd" d="M10.2222 14.6243L9.66259 14.5691L8.9646 29.1873L9.52426 29.2425L10.2222 14.6243Z" fill="#6580E1" fill-opacity="0.6"/>
<path fill-rule="evenodd" clip-rule="evenodd" d="M9.66247 14.5691L8.20336 14.9615L7.50537 29.5796L8.96448 29.1873L9.66247 14.5691Z" fill="#6580E1" fill-opacity="0.6"/>
<path fill-rule="evenodd" clip-rule="evenodd" d="M8.20352 14.9614L7.99364 15.5903L7.29565 30.2085L7.50553 29.5796L8.20352 14.9614Z" fill="#6580E1" fill-opacity="0.6"/>
<path fill-rule="evenodd" clip-rule="evenodd" d="M7.99364 15.5906L8.17353 15.5679L7.47554 30.186L7.29565 30.2087L7.99364 15.5906Z" fill="#6580E1" fill-opacity="0.6"/>
<path fill-rule="evenodd" clip-rule="evenodd" d="M8.17333 15.5679L8.50313 19.3955L7.80514 34.0136L7.47534 30.186L8.17333 15.5679Z" fill="#6580E1" fill-opacity="0.6"/>
<path fill-rule="evenodd" clip-rule="evenodd" d="M8.50331 19.3953L6.59447 19.7353L5.89648 34.3534L7.80532 34.0134L8.50331 19.3953Z" fill="#6580E1" fill-opacity="0.6"/>
<path fill-rule="evenodd" clip-rule="evenodd" d="M6.59436 19.7353L5.44506 19.6445L4.74707 34.2627L5.89637 34.3534L6.59436 19.7353Z" fill="#6580E1" fill-opacity="0.6"/>
<path fill-rule="evenodd" clip-rule="evenodd" d="M5.44512 19.6445L2.86669 20.363L2.1687 34.9811L4.74713 34.2627L5.44512 19.6445Z" fill="#6580E1" fill-opacity="0.6"/>
<path fill-rule="evenodd" clip-rule="evenodd" d="M2.86667 20.363L0.69799 22.1763L0 36.7945L2.16868 34.9812L2.86667 20.363Z" fill="#6580E1" fill-opacity="0.6"/>
<path fill-rule="evenodd" clip-rule="evenodd" d="M0.69799 22.1763L1.89726 22.8275L1.19927 37.4457L0 36.7944L0.69799 22.1763Z" fill="#6580E1" fill-opacity="0.6"/>
<path fill-rule="evenodd" clip-rule="evenodd" d="M1.89721 22.8276L2.26698 22.7688L1.56899 37.387L1.19922 37.4457L1.89721 22.8276Z" fill="#6580E1" fill-opacity="0.6"/>
<path fill-rule="evenodd" clip-rule="evenodd" d="M2.26708 22.7688L2.80675 22.9394L2.10876 37.5576L1.56909 37.387L2.26708 22.7688Z" fill="#6580E1" fill-opacity="0.6"/>
<path fill-rule="evenodd" clip-rule="evenodd" d="M2.80663 22.9395L2.93655 23.1133L2.23856 37.7314L2.10864 37.5576L2.80663 22.9395Z" fill="#6580E1" fill-opacity="0.6"/>
<path fill-rule="evenodd" clip-rule="evenodd" d="M2.93668 23.1133L2.5769 23.2541L1.87891 37.8723L2.23869 37.7314L2.93668 23.1133Z" fill="#6580E1" fill-opacity="0.6"/>
<path fill-rule="evenodd" clip-rule="evenodd" d="M2.5769 23.2542L2.71681 23.6192L2.01882 38.2373L1.87891 37.8723L2.5769 23.2542Z" fill="#6580E1" fill-opacity="0.6"/>
<path fill-rule="evenodd" clip-rule="evenodd" d="M2.71679 23.6191L2.99662 23.6536L2.29863 38.2717L2.0188 38.2373L2.71679 23.6191Z" fill="#6580E1" fill-opacity="0.6"/>
<path fill-rule="evenodd" clip-rule="evenodd" d="M2.99657 23.6537L3.21644 23.1887L2.51845 37.8069L2.29858 38.2718L2.99657 23.6537Z" fill="#6580E1" fill-opacity="0.6"/>
<path fill-rule="evenodd" clip-rule="evenodd" d="M3.21642 23.1887L3.13647 22.7366L2.43848 37.3547L2.51843 37.8069L3.21642 23.1887Z" fill="#6580E1" fill-opacity="0.6"/>
<path fill-rule="evenodd" clip-rule="evenodd" d="M3.13647 22.7366L3.59619 22.9529L2.8982 37.5711L2.43848 37.3547L3.13647 22.7366Z" fill="#6580E1" fill-opacity="0.6"/>
<path fill-rule="evenodd" clip-rule="evenodd" d="M3.59621 22.9529L3.45629 23.5495L2.7583 38.1676L2.89822 37.571L3.59621 22.9529Z" fill="#6580E1" fill-opacity="0.6"/>
<path fill-rule="evenodd" clip-rule="evenodd" d="M3.45629 23.5493L4.56561 23.7209L3.86762 38.339L2.7583 38.1675L3.45629 23.5493Z" fill="#6580E1" fill-opacity="0.6"/>
<path fill-rule="evenodd" clip-rule="evenodd" d="M4.56567 23.7209L4.62563 24.1794L3.92764 38.7976L3.86768 38.3391L4.56567 23.7209Z" fill="#6580E1" fill-opacity="0.6"/>
<path fill-rule="evenodd" clip-rule="evenodd" d="M4.62572 24.1794L4.31591 24.3557L3.61792 38.9738L3.92773 38.7976L4.62572 24.1794Z" fill="#6580E1" fill-opacity="0.6"/>
<path fill-rule="evenodd" clip-rule="evenodd" d="M4.31591 24.3557L4.93553 25.3673L4.23754 39.9854L3.61792 38.9739L4.31591 24.3557Z" fill="#6580E1" fill-opacity="0.6"/>
<path fill-rule="evenodd" clip-rule="evenodd" d="M4.93529 25.3672L5.5749 25.7995L4.87691 40.4177L4.2373 39.9854L4.93529 25.3672Z" fill="#6580E1" fill-opacity="0.6"/>
<path fill-rule="evenodd" clip-rule="evenodd" d="M5.57494 25.7996L6.04466 25.9139L5.34667 40.532L4.87695 40.4177L5.57494 25.7996Z" fill="#6580E1" fill-opacity="0.6"/>
<path fill-rule="evenodd" clip-rule="evenodd" d="M6.04467 25.914L6.58434 25.8254L5.88635 40.4436L5.34668 40.5321L6.04467 25.914Z" fill="#6580E1" fill-opacity="0.6"/>
<path fill-rule="evenodd" clip-rule="evenodd" d="M6.58446 25.8254L6.61445 25.9967L5.91646 40.6149L5.88647 40.4436L6.58446 25.8254Z" fill="#6580E1" fill-opacity="0.6"/>
<path fill-rule="evenodd" clip-rule="evenodd" d="M6.61449 25.9966L7.24411 26.3264L6.54612 40.9445L5.9165 40.6147L6.61449 25.9966Z" fill="#6580E1" fill-opacity="0.6"/>
<path fill-rule="evenodd" clip-rule="evenodd" d="M7.24389 26.3264L7.09399 27.2842L6.396 41.9024L6.5459 40.9446L7.24389 26.3264Z" fill="#6580E1" fill-opacity="0.6"/>
<path fill-rule="evenodd" clip-rule="evenodd" d="M7.09399 27.2842L8.63305 27.7259L7.93506 42.344L6.396 41.9023L7.09399 27.2842Z" fill="#6580E1" fill-opacity="0.6"/>
<path fill-rule="evenodd" clip-rule="evenodd" d="M8.63305 27.7258L8.78296 28.2071L8.08497 42.8252L7.93506 42.344L8.63305 27.7258Z" fill="#6580E1" fill-opacity="0.6"/>
<path fill-rule="evenodd" clip-rule="evenodd" d="M8.78307 28.207L7.16405 28.6499L6.46606 43.2681L8.08508 42.8252L8.78307 28.207Z" fill="#6580E1" fill-opacity="0.6"/>
<path fill-rule="evenodd" clip-rule="evenodd" d="M7.16405 28.6499L7.49385 29.1903L6.79586 43.8084L6.46606 43.2681L7.16405 28.6499Z" fill="#6580E1" fill-opacity="0.6"/>
<path fill-rule="evenodd" clip-rule="evenodd" d="M7.49389 29.1903L8.1335 28.927L7.43551 43.5452L6.7959 43.8084L7.49389 29.1903Z" fill="#6580E1" fill-opacity="0.6"/>
<path fill-rule="evenodd" clip-rule="evenodd" d="M8.13354 28.927L9.013 29.9384L8.31501 44.5565L7.43555 43.5452L8.13354 28.927Z" fill="#6580E1" fill-opacity="0.6"/>
<path fill-rule="evenodd" clip-rule="evenodd" d="M9.01293 29.9385L10.0723 30.7498L9.3743 45.368L8.31494 44.5566L9.01293 29.9385Z" fill="#6580E1" fill-opacity="0.6"/>
<path fill-rule="evenodd" clip-rule="evenodd" d="M10.0722 30.7498L9.89233 31.5295L9.19434 46.1476L9.37423 45.3679L10.0722 30.7498Z" fill="#6580E1" fill-opacity="0.6"/>
<path fill-rule="evenodd" clip-rule="evenodd" d="M9.89234 31.5295L9.44262 31.6681L8.74463 46.2863L9.19435 46.1477L9.89234 31.5295Z" fill="#6580E1" fill-opacity="0.6"/>
<path fill-rule="evenodd" clip-rule="evenodd" d="M9.44262 31.668L9.65249 31.9188L8.9545 46.537L8.74463 46.2861L9.44262 31.668Z" fill="#6580E1" fill-opacity="0.6"/>
<path fill-rule="evenodd" clip-rule="evenodd" d="M9.6525 31.9189L9.29272 32.8509L8.59473 47.4691L8.95451 46.5371L9.6525 31.9189Z" fill="#6580E1" fill-opacity="0.6"/>
<path fill-rule="evenodd" clip-rule="evenodd" d="M9.29279 32.8508L8.72314 33.5251L8.02515 48.1433L8.5948 47.469L9.29279 32.8508Z" fill="#6580E1" fill-opacity="0.6"/>
<path fill-rule="evenodd" clip-rule="evenodd" d="M8.72321 33.5251L8.46337 33.6004L7.76538 48.2185L8.02522 48.1433L8.72321 33.5251Z" fill="#6580E1" fill-opacity="0.6"/>
<path fill-rule="evenodd" clip-rule="evenodd" d="M8.46324 33.6003L8.07348 33.3926L7.37549 48.0107L7.76525 48.2185L8.46324 33.6003Z" fill="#6580E1" fill-opacity="0.6"/>
<path fill-rule="evenodd" clip-rule="evenodd" d="M8.07356 33.3926L6.89428 33.7307L6.19629 48.3489L7.37557 48.0107L8.07356 33.3926Z" fill="#6580E1" fill-opacity="0.6"/>
<path fill-rule="evenodd" clip-rule="evenodd" d="M6.89428 33.7307L7.0242 34.0341L6.32621 48.6523L6.19629 48.3489L6.89428 33.7307Z" fill="#6580E1" fill-opacity="0.6"/>
<path fill-rule="evenodd" clip-rule="evenodd" d="M7.02415 34.0342L6.55444 34.3086L5.85645 48.9268L6.32616 48.6523L7.02415 34.0342Z" fill="#6580E1" fill-opacity="0.6"/>
<path fill-rule="evenodd" clip-rule="evenodd" d="M6.55453 34.3086L6.15478 34.2166L5.45679 48.8347L5.85654 48.9268L6.55453 34.3086Z" fill="#6580E1" fill-opacity="0.6"/>
<path fill-rule="evenodd" clip-rule="evenodd" d="M6.15457 34.2166L6.02465 34.5201L5.32666 49.1383L5.45658 48.8347L6.15457 34.2166Z" fill="#6580E1" fill-opacity="0.6"/>
<path fill-rule="evenodd" clip-rule="evenodd" d="M6.02474 34.5203L5.31518 34.8295L4.61719 49.4477L5.32675 49.1384L6.02474 34.5203Z" fill="#6580E1" fill-opacity="0.6"/>
<path fill-rule="evenodd" clip-rule="evenodd" d="M5.31518 34.8293L5.69495 35.8484L4.99696 50.4666L4.61719 49.4475L5.31518 34.8293Z" fill="#6580E1" fill-opacity="0.6"/>
<path fill-rule="evenodd" clip-rule="evenodd" d="M5.69484 35.8484L5.55492 36.0426L4.85693 50.6608L4.99685 50.4666L5.69484 35.8484Z" fill="#6580E1" fill-opacity="0.6"/>
<path fill-rule="evenodd" clip-rule="evenodd" d="M5.55511 36.0427L4.28588 36.1126L3.58789 50.7308L4.85712 50.6609L5.55511 36.0427Z" fill="#6580E1" fill-opacity="0.6"/>
<path fill-rule="evenodd" clip-rule="evenodd" d="M4.28588 36.1125L4.49575 36.7385L3.79776 51.3567L3.58789 50.7307L4.28588 36.1125Z" fill="#6580E1" fill-opacity="0.6"/>
<path fill-rule="evenodd" clip-rule="evenodd" d="M4.4956 36.7385L5.26513 37.2833L4.56714 51.9015L3.79761 51.3567L4.4956 36.7385Z" fill="#6580E1" fill-opacity="0.6"/>
<path fill-rule="evenodd" clip-rule="evenodd" d="M5.26512 37.2834L4.33569 37.437L3.6377 52.0552L4.56713 51.9016L5.26512 37.2834Z" fill="#6580E1" fill-opacity="0.6"/>
<path fill-rule="evenodd" clip-rule="evenodd" d="M4.33569 37.437L4.52557 38.0352L3.82758 52.6534L3.6377 52.0552L4.33569 37.437Z" fill="#6580E1" fill-opacity="0.6"/>
<path fill-rule="evenodd" clip-rule="evenodd" d="M4.52563 38.0351L5.52502 37.7673L4.82703 52.3855L3.82764 52.6532L4.52563 38.0351Z" fill="#6580E1" fill-opacity="0.6"/>
<path fill-rule="evenodd" clip-rule="evenodd" d="M5.52514 37.7674L5.65506 37.1433L4.95707 51.7615L4.82715 52.3856L5.52514 37.7674Z" fill="#6580E1" fill-opacity="0.6"/>
<path fill-rule="evenodd" clip-rule="evenodd" d="M5.65502 37.1434L5.97483 37.1174L5.27684 51.7356L4.95703 51.7615L5.65502 37.1434Z" fill="#6580E1" fill-opacity="0.6"/>
<path fill-rule="evenodd" clip-rule="evenodd" d="M5.97485 37.1174L6.07478 37.3314L5.37679 51.9496L5.27686 51.7356L5.97485 37.1174Z" fill="#6580E1" fill-opacity="0.6"/>
<path fill-rule="evenodd" clip-rule="evenodd" d="M6.0747 37.3312L6.47446 37.2937L5.77647 51.9119L5.37671 51.9494L6.0747 37.3312Z" fill="#6580E1" fill-opacity="0.6"/>
<path fill-rule="evenodd" clip-rule="evenodd" d="M6.4744 37.2937L6.34447 38.0679L5.64648 52.686L5.77641 51.9119L6.4744 37.2937Z" fill="#6580E1" fill-opacity="0.6"/>
<path fill-rule="evenodd" clip-rule="evenodd" d="M6.34447 38.0679L6.76422 38.5492L6.06623 53.1673L5.64648 52.686L6.34447 38.0679Z" fill="#6580E1" fill-opacity="0.6"/>
<path fill-rule="evenodd" clip-rule="evenodd" d="M6.76429 38.5493L6.08471 39.5004L5.38672 54.1186L6.0663 53.1675L6.76429 38.5493Z" fill="#6580E1" fill-opacity="0.6"/>
<path fill-rule="evenodd" clip-rule="evenodd" d="M6.08475 39.5003L4.72558 38.6541L4.02759 53.2722L5.38676 54.1185L6.08475 39.5003Z" fill="#6580E1" fill-opacity="0.6"/>
<path fill-rule="evenodd" clip-rule="evenodd" d="M4.72558 38.6541L5.8449 40.565L5.14691 55.1831L4.02759 53.2722L4.72558 38.6541Z" fill="#6580E1" fill-opacity="0.6"/>
<path fill-rule="evenodd" clip-rule="evenodd" d="M5.84477 40.5649L4.18578 41.2796L3.48779 55.8978L5.14678 55.1831L5.84477 40.5649Z" fill="#6580E1" fill-opacity="0.6"/>
<path fill-rule="evenodd" clip-rule="evenodd" d="M4.18585 41.2795L4.07592 42.2315L3.37793 56.8497L3.48786 55.8977L4.18585 41.2795Z" fill="#6580E1" fill-opacity="0.6"/>
<path fill-rule="evenodd" clip-rule="evenodd" d="M4.07591 42.2314L2.83666 43.1L2.13867 57.7182L3.37792 56.8496L4.07591 42.2314Z" fill="#6580E1" fill-opacity="0.6"/>
<path fill-rule="evenodd" clip-rule="evenodd" d="M2.83666 43.1002L2.21703 42.8525L1.51904 57.4707L2.13867 57.7184L2.83666 43.1002Z" fill="#6580E1" fill-opacity="0.6"/>
<path fill-rule="evenodd" clip-rule="evenodd" d="M2.21703 42.8525L4.5756 46.1045L3.87761 60.7227L1.51904 57.4707L2.21703 42.8525Z" fill="#6580E1" fill-opacity="0.6"/>
<path fill-rule="evenodd" clip-rule="evenodd" d="M4.57568 46.1045L5.0254 46.3342L4.32741 60.9524L3.87769 60.7227L4.57568 46.1045Z" fill="#6580E1" fill-opacity="0.6"/>
<path fill-rule="evenodd" clip-rule="evenodd" d="M5.02538 46.3342L5.26524 46.1357L4.56725 60.7539L4.32739 60.9524L5.02538 46.3342Z" fill="#6580E1" fill-opacity="0.6"/>
<path fill-rule="evenodd" clip-rule="evenodd" d="M5.26513 46.1357L6.69426 46.2404L5.99627 60.8586L4.56714 60.7539L5.26513 46.1357Z" fill="#6580E1" fill-opacity="0.6"/>
<path fill-rule="evenodd" clip-rule="evenodd" d="M6.69433 46.2405L6.89421 46.9276L6.19622 61.5457L5.99634 60.8586L6.69433 46.2405Z" fill="#6580E1" fill-opacity="0.6"/>
<path fill-rule="evenodd" clip-rule="evenodd" d="M6.89423 46.9275L6.40453 47.0241L5.70654 61.6423L6.19624 61.5457L6.89423 46.9275Z" fill="#6580E1" fill-opacity="0.6"/>
<path fill-rule="evenodd" clip-rule="evenodd" d="M6.40453 47.0242L6.97419 48.2118L6.2762 62.8299L5.70654 61.6423L6.40453 47.0242Z" fill="#6580E1" fill-opacity="0.6"/>
<path fill-rule="evenodd" clip-rule="evenodd" d="M6.97425 48.2117L4.90551 48.493L4.20752 63.1112L6.27626 62.8298L6.97425 48.2117Z" fill="#6580E1" fill-opacity="0.6"/>
<path fill-rule="evenodd" clip-rule="evenodd" d="M4.90551 48.4929L5.2453 49.4769L4.54731 64.095L4.20752 63.1111L4.90551 48.4929Z" fill="#6580E1" fill-opacity="0.6"/>
<path fill-rule="evenodd" clip-rule="evenodd" d="M5.24521 49.4771L4.84545 48.969L4.14746 63.5872L4.54722 64.0952L5.24521 49.4771Z" fill="#6580E1" fill-opacity="0.6"/>
<path fill-rule="evenodd" clip-rule="evenodd" d="M4.84543 48.969L4.67553 49.0329L3.97754 63.651L4.14744 63.5872L4.84543 48.969Z" fill="#6580E1" fill-opacity="0.6"/>
<path fill-rule="evenodd" clip-rule="evenodd" d="M4.67553 49.0327L4.78546 49.5061L4.08747 64.1243L3.97754 63.6509L4.67553 49.0327Z" fill="#6580E1" fill-opacity="0.6"/>
<path fill-rule="evenodd" clip-rule="evenodd" d="M4.78544 49.506L4.3557 49.3586L3.65771 63.9768L4.08745 64.1242L4.78544 49.506Z" fill="#6580E1" fill-opacity="0.6"/>
<path fill-rule="evenodd" clip-rule="evenodd" d="M4.35588 49.3586L4.156 49.5309L3.45801 64.149L3.65789 63.9768L4.35588 49.3586Z" fill="#6580E1" fill-opacity="0.6"/>
<path fill-rule="evenodd" clip-rule="evenodd" d="M4.1558 49.531L3.72607 49.5405L3.02808 64.1587L3.45781 64.1492L4.1558 49.531Z" fill="#6580E1" fill-opacity="0.6"/>
<path fill-rule="evenodd" clip-rule="evenodd" d="M3.72607 49.5405L4.01589 50.0321L3.3179 64.6503L3.02808 64.1587L3.72607 49.5405Z" fill="#6580E1" fill-opacity="0.6"/>
<path fill-rule="evenodd" clip-rule="evenodd" d="M4.01599 50.032L3.94604 50.303L3.24805 64.9212L3.318 64.6501L4.01599 50.032Z" fill="#6580E1" fill-opacity="0.6"/>
<path fill-rule="evenodd" clip-rule="evenodd" d="M3.94607 50.303L1.96728 49.8433L1.26929 64.4614L3.24808 64.9212L3.94607 50.303Z" fill="#6580E1" fill-opacity="0.6"/>
<path fill-rule="evenodd" clip-rule="evenodd" d="M1.96721 49.8433L1.92724 49.7195L1.22925 64.3376L1.26922 64.4614L1.96721 49.8433Z" fill="#6580E1" fill-opacity="0.6"/>
<path fill-rule="evenodd" clip-rule="evenodd" d="M1.92723 49.7195L1.45751 49.8439L0.759521 64.462L1.22924 64.3376L1.92723 49.7195Z" fill="#6580E1" fill-opacity="0.6"/>
<path fill-rule="evenodd" clip-rule="evenodd" d="M1.45751 49.844L2.4769 52.2297L1.77891 66.8479L0.759521 64.4622L1.45751 49.844Z" fill="#6580E1" fill-opacity="0.6"/>
<path fill-rule="evenodd" clip-rule="evenodd" d="M2.47687 52.2297L1.4475 52.7218L0.749512 67.3399L1.77888 66.8479L2.47687 52.2297Z" fill="#6580E1" fill-opacity="0.6"/>
<path fill-rule="evenodd" clip-rule="evenodd" d="M1.4475 52.7217L2.68675 53.7559L1.98876 68.374L0.749512 67.3398L1.4475 52.7217Z" fill="#6580E1" fill-opacity="0.6"/>
<path fill-rule="evenodd" clip-rule="evenodd" d="M2.68676 53.7559L2.81668 54.0797L2.11869 68.6979L1.98877 68.374L2.68676 53.7559Z" fill="#6580E1" fill-opacity="0.6"/>
<path fill-rule="evenodd" clip-rule="evenodd" d="M2.81664 54.0798L3.11646 54.1762L2.41847 68.7943L2.11865 68.698L2.81664 54.0798Z" fill="#6580E1" fill-opacity="0.6"/>
<path fill-rule="evenodd" clip-rule="evenodd" d="M3.11645 54.176L3.97592 55.6234L3.27793 70.2415L2.41846 68.7942L3.11645 54.176Z" fill="#6580E1" fill-opacity="0.6"/>
<path fill-rule="evenodd" clip-rule="evenodd" d="M3.97601 55.6235L3.78612 55.8915L3.08813 70.5096L3.27802 70.2417L3.97601 55.6235Z" fill="#6580E1" fill-opacity="0.6"/>
<path fill-rule="evenodd" clip-rule="evenodd" d="M3.78612 55.8914L4.18588 56.2494L3.48789 70.8675L3.08813 70.5095L3.78612 55.8914Z" fill="#6580E1" fill-opacity="0.6"/>
<path fill-rule="evenodd" clip-rule="evenodd" d="M4.18578 56.2495L4.20577 56.6115L3.50778 71.2296L3.48779 70.8677L4.18578 56.2495Z" fill="#6580E1" fill-opacity="0.6"/>
<path fill-rule="evenodd" clip-rule="evenodd" d="M4.2058 56.6113L6.0147 56.6848L5.31671 71.303L3.50781 71.2295L4.2058 56.6113Z" fill="#6580E1" fill-opacity="0.6"/>
<path fill-rule="evenodd" clip-rule="evenodd" d="M6.01464 56.6848L6.18454 56.9279L5.48655 71.546L5.31665 71.303L6.01464 56.6848Z" fill="#6580E1" fill-opacity="0.6"/>
<path fill-rule="evenodd" clip-rule="evenodd" d="M6.18456 56.928L6.31448 56.6858L5.61649 71.304L5.48657 71.5462L6.18456 56.928Z" fill="#6580E1" fill-opacity="0.6"/>
<path fill-rule="evenodd" clip-rule="evenodd" d="M6.31469 56.6858L8.19354 56.7474L7.49555 71.3656L5.6167 71.304L6.31469 56.6858Z" fill="#6580E1" fill-opacity="0.6"/>
<path fill-rule="evenodd" clip-rule="evenodd" d="M8.19335 56.7473L10.5919 57.5519L9.8939 72.1701L7.49536 71.3655L8.19335 56.7473Z" fill="#6580E1" fill-opacity="0.6"/>
<path fill-rule="evenodd" clip-rule="evenodd" d="M10.592 57.5519L10.9718 57.2888L10.2738 71.907L9.89404 72.1701L10.592 57.5519Z" fill="#6580E1" fill-opacity="0.6"/>
<path fill-rule="evenodd" clip-rule="evenodd" d="M10.9717 57.2888L13.4701 58.7371L12.7722 73.3552L10.2737 71.907L10.9717 57.2888Z" fill="#6580E1" fill-opacity="0.6"/>
<path fill-rule="evenodd" clip-rule="evenodd" d="M13.4702 58.7371L14.9293 59.3677L14.2313 73.9858L12.7722 73.3552L13.4702 58.7371Z" fill="#6580E1" fill-opacity="0.6"/>
<path fill-rule="evenodd" clip-rule="evenodd" d="M14.9294 59.3678L17.0481 59.3333L16.3502 73.9514L14.2314 73.986L14.9294 59.3678Z" fill="#6580E1" fill-opacity="0.6"/>
<path fill-rule="evenodd" clip-rule="evenodd" d="M17.0481 59.3333L17.2979 59.8989L16.5999 74.517L16.3501 73.9514L17.0481 59.3333Z" fill="#6580E1" fill-opacity="0.6"/>
<path fill-rule="evenodd" clip-rule="evenodd" d="M17.2978 59.8988L17.7576 59.781L17.0596 74.3992L16.5999 74.517L17.2978 59.8988Z" fill="#6580E1" fill-opacity="0.6"/>
<path fill-rule="evenodd" clip-rule="evenodd" d="M17.7575 59.781L17.4077 59.1924L16.7097 73.8105L17.0595 74.3992L17.7575 59.781Z" fill="#6580E1" fill-opacity="0.6"/>
<path fill-rule="evenodd" clip-rule="evenodd" d="M17.4077 59.1924L18.9268 59.2448L18.2288 73.863L16.7097 73.8105L17.4077 59.1924Z" fill="#6580E1" fill-opacity="0.6"/>
<path fill-rule="evenodd" clip-rule="evenodd" d="M18.927 59.2447L20.9258 58.6001L20.2278 73.2183L18.229 73.8629L18.927 59.2447Z" fill="#6580E1" fill-opacity="0.6"/>
<path fill-rule="evenodd" clip-rule="evenodd" d="M20.9258 58.6001L22.9345 58.8492L22.2366 73.4673L20.2278 73.2183L20.9258 58.6001Z" fill="#6580E1" fill-opacity="0.6"/>
<path fill-rule="evenodd" clip-rule="evenodd" d="M22.9346 58.8494L23.2943 58.197L22.5964 72.8152L22.2366 73.4675L22.9346 58.8494Z" fill="#6580E1" fill-opacity="0.6"/>
<path fill-rule="evenodd" clip-rule="evenodd" d="M23.2942 58.197L24.2936 58.3521L23.5956 72.9703L22.5962 72.8152L23.2942 58.197Z" fill="#6580E1" fill-opacity="0.6"/>
<path fill-rule="evenodd" clip-rule="evenodd" d="M24.2935 58.3521L23.8938 60.04L23.1958 74.6582L23.5956 72.9702L24.2935 58.3521Z" fill="#6580E1" fill-opacity="0.6"/>
<path fill-rule="evenodd" clip-rule="evenodd" d="M23.8938 60.04L25.233 60.729L24.535 75.3471L23.1958 74.6582L23.8938 60.04Z" fill="#6580E1" fill-opacity="0.6"/>
<path fill-rule="evenodd" clip-rule="evenodd" d="M25.2331 60.729L27.7616 62.5054L27.0636 77.1236L24.5352 75.3472L25.2331 60.729Z" fill="#6580E1" fill-opacity="0.6"/>
<path fill-rule="evenodd" clip-rule="evenodd" d="M27.7614 62.5054L24.1936 63.3554L23.4956 77.9736L27.0634 77.1235L27.7614 62.5054Z" fill="#6580E1" fill-opacity="0.6"/>
<path fill-rule="evenodd" clip-rule="evenodd" d="M24.1938 63.3552L23.9939 63.0432L23.2959 77.6614L23.4958 77.9734L24.1938 63.3552Z" fill="#6580E1" fill-opacity="0.6"/>
<path fill-rule="evenodd" clip-rule="evenodd" d="M23.9937 63.0432L23.2541 62.9834L22.5562 77.6016L23.2957 77.6614L23.9937 63.0432Z" fill="#6580E1" fill-opacity="0.6"/>
<path fill-rule="evenodd" clip-rule="evenodd" d="M23.2542 62.9834L23.1142 63.3958L22.4163 78.014L22.5562 77.6016L23.2542 62.9834Z" fill="#6580E1" fill-opacity="0.6"/>
<path fill-rule="evenodd" clip-rule="evenodd" d="M23.1144 63.396L22.8745 63.3762L22.1765 77.9944L22.4164 78.0141L23.1144 63.396Z" fill="#6580E1" fill-opacity="0.6"/>
<path fill-rule="evenodd" clip-rule="evenodd" d="M22.8745 63.3762L23.1343 63.5943L22.4364 78.2124L22.1765 77.9944L22.8745 63.3762Z" fill="#6580E1" fill-opacity="0.6"/>
<path fill-rule="evenodd" clip-rule="evenodd" d="M23.1343 63.5942L23.644 63.6618L22.946 78.28L22.4363 78.2124L23.1343 63.5942Z" fill="#6580E1" fill-opacity="0.6"/>
<path fill-rule="evenodd" clip-rule="evenodd" d="M23.644 63.6619L23.654 64.3987L22.956 79.0168L22.946 78.28L23.644 63.6619Z" fill="#6580E1" fill-opacity="0.6"/>
<path fill-rule="evenodd" clip-rule="evenodd" d="M23.654 64.3987L24.0138 64.442L23.3158 79.0601L22.9561 79.0168L23.654 64.3987Z" fill="#6580E1" fill-opacity="0.6"/>
<path fill-rule="evenodd" clip-rule="evenodd" d="M24.0137 64.4419L24.0436 64.6404L23.3457 79.2586L23.3157 79.0601L24.0137 64.4419Z" fill="#6580E1" fill-opacity="0.6"/>
<path fill-rule="evenodd" clip-rule="evenodd" d="M24.0437 64.6404L24.7633 64.727L24.0653 79.3451L23.3457 79.2585L24.0437 64.6404Z" fill="#6580E1" fill-opacity="0.6"/>
<path fill-rule="evenodd" clip-rule="evenodd" d="M24.7634 64.7271L24.2637 64.9393L23.5657 79.5575L24.0654 79.3452L24.7634 64.7271Z" fill="#6580E1" fill-opacity="0.6"/>
<path fill-rule="evenodd" clip-rule="evenodd" d="M24.2635 64.9395L22.9443 65.0353L22.2463 79.6535L23.5655 79.5576L24.2635 64.9395Z" fill="#6580E1" fill-opacity="0.6"/>
<path fill-rule="evenodd" clip-rule="evenodd" d="M22.9443 65.0352L23.0243 65.2759L22.3263 79.8941L22.2463 79.6533L22.9443 65.0352Z" fill="#6580E1" fill-opacity="0.6"/>
<path fill-rule="evenodd" clip-rule="evenodd" d="M23.0244 65.2759L24.1637 65.4209L23.4657 80.0391L22.3264 79.894L23.0244 65.2759Z" fill="#6580E1" fill-opacity="0.6"/>
<path fill-rule="evenodd" clip-rule="evenodd" d="M24.1638 65.4209L24.3137 65.6634L23.6157 80.2816L23.4658 80.0391L24.1638 65.4209Z" fill="#6580E1" fill-opacity="0.6"/>
<path fill-rule="evenodd" clip-rule="evenodd" d="M24.3137 65.6636L24.7435 65.7018L24.0455 80.32L23.6157 80.2817L24.3137 65.6636Z" fill="#6580E1" fill-opacity="0.6"/>
<path fill-rule="evenodd" clip-rule="evenodd" d="M24.7433 65.7019L23.8838 67.3713L23.1858 81.9895L24.0453 80.3201L24.7433 65.7019Z" fill="#6580E1" fill-opacity="0.6"/>
<path fill-rule="evenodd" clip-rule="evenodd" d="M23.8838 67.3711L26.2124 67.867L25.5144 82.4852L23.1858 81.9893L23.8838 67.3711Z" fill="#6580E1" fill-opacity="0.6"/>
<path fill-rule="evenodd" clip-rule="evenodd" d="M26.2124 67.867L27.1019 67.7261L26.4039 82.3442L25.5144 82.4852L26.2124 67.867Z" fill="#6580E1" fill-opacity="0.6"/>
<path fill-rule="evenodd" clip-rule="evenodd" d="M27.1018 67.7261L27.7714 68.3911L27.0734 83.0092L26.4038 82.3442L27.1018 67.7261Z" fill="#6580E1" fill-opacity="0.6"/>
<path fill-rule="evenodd" clip-rule="evenodd" d="M27.7715 68.3911L28.1113 69.225L27.4133 83.8432L27.0735 83.0093L27.7715 68.3911Z" fill="#6580E1" fill-opacity="0.6"/>
<path fill-rule="evenodd" clip-rule="evenodd" d="M28.1113 69.2251L28.611 69.7698L27.913 84.388L27.4133 83.8433L28.1113 69.2251Z" fill="#6580E1" fill-opacity="0.6"/>
<path fill-rule="evenodd" clip-rule="evenodd" d="M28.6111 69.7698L28.8509 69.8577L28.1529 84.4759L27.9131 84.3879L28.6111 69.7698Z" fill="#6580E1" fill-opacity="0.6"/>
<path fill-rule="evenodd" clip-rule="evenodd" d="M28.8508 69.8577L29.0707 69.6587L28.3727 84.2769L28.1528 84.4758L28.8508 69.8577Z" fill="#6580E1" fill-opacity="0.6"/>
<path fill-rule="evenodd" clip-rule="evenodd" d="M29.0708 69.6587L29.6904 69.6882L28.9924 84.3063L28.3728 84.2769L29.0708 69.6587Z" fill="#6580E1" fill-opacity="0.6"/>
<path fill-rule="evenodd" clip-rule="evenodd" d="M29.6904 69.6882L30.6199 70.0871L29.9219 84.7052L28.9924 84.3064L29.6904 69.6882Z" fill="#6580E1" fill-opacity="0.6"/>
<path fill-rule="evenodd" clip-rule="evenodd" d="M30.6199 70.087L30.7298 69.9807L30.0318 84.5989L29.9219 84.7052L30.6199 70.087Z" fill="#6580E1" fill-opacity="0.6"/>
<path fill-rule="evenodd" clip-rule="evenodd" d="M30.7298 69.9807L30.29 69.7717L29.592 84.3899L30.0318 84.5989L30.7298 69.9807Z" fill="#6580E1" fill-opacity="0.6"/>
<path fill-rule="evenodd" clip-rule="evenodd" d="M30.2898 69.7717L30.1699 69.4958L29.4719 84.114L29.5919 84.3899L30.2898 69.7717Z" fill="#6580E1" fill-opacity="0.6"/>
<path fill-rule="evenodd" clip-rule="evenodd" d="M30.1699 69.496L30.3198 69.418L29.6218 84.0361L29.4719 84.1141L30.1699 69.496Z" fill="#6580E1" fill-opacity="0.6"/>
<path fill-rule="evenodd" clip-rule="evenodd" d="M30.3199 69.4179L30.04 69.2334L29.342 83.8516L29.6219 84.036L30.3199 69.4179Z" fill="#6580E1" fill-opacity="0.6"/>
<path fill-rule="evenodd" clip-rule="evenodd" d="M30.04 69.2335L30.4498 69.1621L29.7518 83.7803L29.342 83.8516L30.04 69.2335Z" fill="#6580E1" fill-opacity="0.6"/>
<path fill-rule="evenodd" clip-rule="evenodd" d="M30.4499 69.162L30.7398 68.8489L30.0418 83.467L29.752 83.7802L30.4499 69.162Z" fill="#6580E1" fill-opacity="0.6"/>
<path fill-rule="evenodd" clip-rule="evenodd" d="M30.7397 68.8489L31.6892 68.7026L30.9912 83.3208L30.0417 83.4671L30.7397 68.8489Z" fill="#6580E1" fill-opacity="0.6"/>
<path fill-rule="evenodd" clip-rule="evenodd" d="M31.6892 68.7026L32.6086 68.9648L31.9107 83.583L30.9912 83.3208L31.6892 68.7026Z" fill="#6580E1" fill-opacity="0.6"/>
<path fill-rule="evenodd" clip-rule="evenodd" d="M32.6086 68.9649L32.9384 68.5164L32.2404 83.1345L31.9106 83.583L32.6086 68.9649Z" fill="#6580E1" fill-opacity="0.6"/>
<path fill-rule="evenodd" clip-rule="evenodd" d="M32.9385 68.5164L33.5681 68.6961L32.8701 83.3143L32.2405 83.1345L32.9385 68.5164Z" fill="#6580E1" fill-opacity="0.6"/>
<path fill-rule="evenodd" clip-rule="evenodd" d="M33.5679 68.6961L33.6978 68.4744L32.9998 83.0925L32.8699 83.3143L33.5679 68.6961Z" fill="#6580E1" fill-opacity="0.6"/>
<path fill-rule="evenodd" clip-rule="evenodd" d="M33.698 68.4744L34.3076 68.7218L33.6096 83.34L33 83.0925L33.698 68.4744Z" fill="#6580E1" fill-opacity="0.6"/>
<path fill-rule="evenodd" clip-rule="evenodd" d="M34.3074 68.7217L33.8677 68.9082L33.1697 83.5264L33.6094 83.3398L34.3074 68.7217Z" fill="#6580E1" fill-opacity="0.6"/>
<path fill-rule="evenodd" clip-rule="evenodd" d="M33.8677 68.9084L34.2474 69.2182L33.5494 83.8364L33.1697 83.5266L33.8677 68.9084Z" fill="#6580E1" fill-opacity="0.6"/>
<path fill-rule="evenodd" clip-rule="evenodd" d="M34.2476 69.2181L34.9771 68.9026L34.2791 83.5208L33.5496 83.8363L34.2476 69.2181Z" fill="#6580E1" fill-opacity="0.6"/>
<path fill-rule="evenodd" clip-rule="evenodd" d="M34.977 68.9025L35.3268 68.4136L34.6288 83.0317L34.2791 83.5207L34.977 68.9025Z" fill="#6580E1" fill-opacity="0.6"/>
<path fill-rule="evenodd" clip-rule="evenodd" d="M35.3269 68.4137L37.5056 68.4011L36.8076 83.0193L34.6289 83.0318L35.3269 68.4137Z" fill="#6580E1" fill-opacity="0.6"/>
<path fill-rule="evenodd" clip-rule="evenodd" d="M37.5056 68.4011L38.3551 68.1841L37.6571 82.8022L36.8076 83.0192L37.5056 68.4011Z" fill="#6580E1" fill-opacity="0.6"/>
<path fill-rule="evenodd" clip-rule="evenodd" d="M38.355 68.1841L39.1045 68.5715L38.4065 83.1897L37.657 82.8022L38.355 68.1841Z" fill="#6580E1" fill-opacity="0.6"/>
<path fill-rule="evenodd" clip-rule="evenodd" d="M39.1047 68.5715L39.0847 69.0075L38.3867 83.6257L38.4067 83.1897L39.1047 68.5715Z" fill="#6580E1" fill-opacity="0.6"/>
<path fill-rule="evenodd" clip-rule="evenodd" d="M39.0847 69.0076L39.6743 69.0226L38.9764 83.6408L38.3867 83.6257L39.0847 69.0076Z" fill="#6580E1" fill-opacity="0.6"/>
<path fill-rule="evenodd" clip-rule="evenodd" d="M39.6743 69.0226L40.0241 68.8337L39.3261 83.4519L38.9763 83.6407L39.6743 69.0226Z" fill="#6580E1" fill-opacity="0.6"/>
<path fill-rule="evenodd" clip-rule="evenodd" d="M40.0239 68.8337L40.9234 69.2114L40.2254 83.8295L39.3259 83.4519L40.0239 68.8337Z" fill="#6580E1" fill-opacity="0.6"/>
<path fill-rule="evenodd" clip-rule="evenodd" d="M40.9236 69.2112L42.3727 71.4306L41.6747 86.0487L40.2256 83.8293L40.9236 69.2112Z" fill="#6580E1" fill-opacity="0.6"/>
<path fill-rule="evenodd" clip-rule="evenodd" d="M42.3726 71.4307L43.1621 70.7893L42.4641 85.4075L41.6746 86.0488L42.3726 71.4307Z" fill="#6580E1" fill-opacity="0.6"/>
<path fill-rule="evenodd" clip-rule="evenodd" d="M43.1622 70.7893L42.7624 69.6675L42.0645 84.2856L42.4642 85.4075L43.1622 70.7893Z" fill="#6580E1" fill-opacity="0.6"/>
<path fill-rule="evenodd" clip-rule="evenodd" d="M42.7624 69.6675L41.633 68.6907L40.9351 83.3088L42.0644 84.2857L42.7624 69.6675Z" fill="#6580E1" fill-opacity="0.6"/>
<path fill-rule="evenodd" clip-rule="evenodd" d="M41.633 68.6906L42.1827 68.6023L41.4847 83.2205L40.9351 83.3087L41.633 68.6906Z" fill="#6580E1" fill-opacity="0.6"/>
<path fill-rule="evenodd" clip-rule="evenodd" d="M42.1826 68.6023L42.2126 68.2007L41.5146 82.8188L41.4846 83.2205L42.1826 68.6023Z" fill="#6580E1" fill-opacity="0.6"/>
<path fill-rule="evenodd" clip-rule="evenodd" d="M42.2126 68.2007L42.5524 68.3458L41.8544 82.9639L41.5146 82.8188L42.2126 68.2007Z" fill="#6580E1" fill-opacity="0.6"/>
<path fill-rule="evenodd" clip-rule="evenodd" d="M42.5525 68.3458L43.5918 67.7654L42.8939 82.3835L41.8545 82.964L42.5525 68.3458Z" fill="#6580E1" fill-opacity="0.6"/>
<path fill-rule="evenodd" clip-rule="evenodd" d="M43.5919 67.7653L43.1721 67.0999L42.4741 81.718L42.8939 82.3835L43.5919 67.7653Z" fill="#6580E1" fill-opacity="0.6"/>
<path fill-rule="evenodd" clip-rule="evenodd" d="M43.1721 67.0999L40.8735 67.5526L40.1755 82.1708L42.4741 81.718L43.1721 67.0999Z" fill="#6580E1" fill-opacity="0.6"/>
<path fill-rule="evenodd" clip-rule="evenodd" d="M40.8735 67.5527L41.2033 67.0974L40.5053 81.7156L40.1755 82.1709L40.8735 67.5527Z" fill="#6580E1" fill-opacity="0.6"/>
<path fill-rule="evenodd" clip-rule="evenodd" d="M41.2033 67.0974L40.9834 66.7849L40.2854 81.4031L40.5053 81.7156L41.2033 67.0974Z" fill="#6580E1" fill-opacity="0.6"/>
<path fill-rule="evenodd" clip-rule="evenodd" d="M40.9834 66.7849L41.1533 66.4551L40.4553 81.0732L40.2854 81.4031L40.9834 66.7849Z" fill="#6580E1" fill-opacity="0.6"/>
<path fill-rule="evenodd" clip-rule="evenodd" d="M41.1533 66.4551L39.7441 66.0781L39.0461 80.6963L40.4553 81.0733L41.1533 66.4551Z" fill="#6580E1" fill-opacity="0.6"/>
<path fill-rule="evenodd" clip-rule="evenodd" d="M39.7441 66.0782L41.2132 65.1541L40.5152 79.7722L39.0461 80.6963L39.7441 66.0782Z" fill="#6580E1" fill-opacity="0.6"/>
<path fill-rule="evenodd" clip-rule="evenodd" d="M41.2134 65.154L41.853 65.0339L41.155 79.6521L40.5154 79.7722L41.2134 65.154Z" fill="#6580E1" fill-opacity="0.6"/>
<path fill-rule="evenodd" clip-rule="evenodd" d="M41.853 65.0339L42.5626 65.3862L41.8646 80.0044L41.155 79.6521L41.853 65.0339Z" fill="#6580E1" fill-opacity="0.6"/>
<path fill-rule="evenodd" clip-rule="evenodd" d="M42.5625 65.3861L44.0216 65.0278L43.3236 79.646L41.8645 80.0043L42.5625 65.3861Z" fill="#6580E1" fill-opacity="0.6"/>
<path fill-rule="evenodd" clip-rule="evenodd" d="M44.0215 65.028L48.1789 63.5383L47.481 78.1565L43.3235 79.6462L44.0215 65.028Z" fill="#6580E1" fill-opacity="0.6"/>
<path fill-rule="evenodd" clip-rule="evenodd" d="M48.1789 63.5381L48.4888 63.2937L47.7908 77.9119L47.481 78.1563L48.1789 63.5381Z" fill="#6580E1" fill-opacity="0.6"/>
<path fill-rule="evenodd" clip-rule="evenodd" d="M48.4888 63.2937L48.9385 63.2984L48.2405 77.9165L47.7908 77.9119L48.4888 63.2937Z" fill="#6580E1" fill-opacity="0.6"/>
<path fill-rule="evenodd" clip-rule="evenodd" d="M48.9387 63.2986L49.4784 63.5374L48.7804 78.1556L48.2407 77.9167L48.9387 63.2986Z" fill="#6580E1" fill-opacity="0.6"/>
<path fill-rule="evenodd" clip-rule="evenodd" d="M49.4783 63.5373L49.6182 63.3772L48.9202 77.9954L48.7803 78.1555L49.4783 63.5373Z" fill="#6580E1" fill-opacity="0.6"/>
<path fill-rule="evenodd" clip-rule="evenodd" d="M49.6182 63.3771L50.9873 63.2007L50.2893 77.8188L48.9202 77.9953L49.6182 63.3771Z" fill="#6580E1" fill-opacity="0.6"/>
<path fill-rule="evenodd" clip-rule="evenodd" d="M50.9873 63.2007L52.0766 63.4536L51.3786 78.0717L50.2893 77.8188L50.9873 63.2007Z" fill="#6580E1" fill-opacity="0.6"/>
<path fill-rule="evenodd" clip-rule="evenodd" d="M52.0767 63.4537L52.1866 63.3474L51.4886 77.9656L51.3787 78.0719L52.0767 63.4537Z" fill="#6580E1" fill-opacity="0.6"/>
<path fill-rule="evenodd" clip-rule="evenodd" d="M52.1866 63.3474L51.8069 62.8467L51.1089 77.4648L51.4887 77.9656L52.1866 63.3474Z" fill="#6580E1" fill-opacity="0.6"/>
<path fill-rule="evenodd" clip-rule="evenodd" d="M51.8069 62.8467L51.9968 62.5173L51.2988 77.1355L51.1089 77.4648L51.8069 62.8467Z" fill="#6580E1" fill-opacity="0.6"/>
<path fill-rule="evenodd" clip-rule="evenodd" d="M51.9968 62.5173L53.4359 62.5063L52.738 77.1245L51.2988 77.1355L51.9968 62.5173Z" fill="#6580E1" fill-opacity="0.6"/>
<path fill-rule="evenodd" clip-rule="evenodd" d="M53.4358 62.5062L54.9848 62.2798L54.2868 76.8979L52.7378 77.1244L53.4358 62.5062Z" fill="#6580E1" fill-opacity="0.6"/>
<path fill-rule="evenodd" clip-rule="evenodd" d="M54.9849 62.2799L56.404 61.075L55.706 75.6931L54.2869 76.8981L54.9849 62.2799Z" fill="#6580E1" fill-opacity="0.6"/>
<path fill-rule="evenodd" clip-rule="evenodd" d="M56.404 61.0748L56.454 60.8374L55.756 75.4556L55.7061 75.693L56.404 61.0748Z" fill="#6580E1" fill-opacity="0.6"/>
<path fill-rule="evenodd" clip-rule="evenodd" d="M56.4541 60.8376L56.7139 60.8237L56.0159 75.4419L55.7561 75.4557L56.4541 60.8376Z" fill="#6580E1" fill-opacity="0.6"/>
<path fill-rule="evenodd" clip-rule="evenodd" d="M56.7139 60.8235L57.1936 60.447L56.4956 75.0652L56.0159 75.4417L56.7139 60.8235Z" fill="#6580E1" fill-opacity="0.6"/>
<path fill-rule="evenodd" clip-rule="evenodd" d="M57.1936 60.4471L56.1343 59.6562L55.4363 74.2744L56.4956 75.0653L57.1936 60.4471Z" fill="#6580E1" fill-opacity="0.6"/>
<path fill-rule="evenodd" clip-rule="evenodd" d="M56.1343 59.6563L55.8144 59.082L55.1165 73.7002L55.4363 74.2744L56.1343 59.6563Z" fill="#6580E1" fill-opacity="0.6"/>
<path fill-rule="evenodd" clip-rule="evenodd" d="M55.8144 59.082L56.3841 58.7351L55.6861 73.3533L55.1165 73.7002L55.8144 59.082Z" fill="#6580E1" fill-opacity="0.6"/>
<path fill-rule="evenodd" clip-rule="evenodd" d="M56.3841 58.735L56.2642 58.6501L55.5662 73.2683L55.6861 73.3532L56.3841 58.735Z" fill="#6580E1" fill-opacity="0.6"/>
<path fill-rule="evenodd" clip-rule="evenodd" d="M56.2642 58.6501L56.554 58.262L55.856 72.8801L55.5662 73.2683L56.2642 58.6501Z" fill="#6580E1" fill-opacity="0.6"/>
<path fill-rule="evenodd" clip-rule="evenodd" d="M56.5539 58.262L57.3734 58.5762L56.6755 73.1943L55.856 72.8801L56.5539 58.262Z" fill="#6580E1" fill-opacity="0.6"/>
<path fill-rule="evenodd" clip-rule="evenodd" d="M57.3735 58.5763L59.922 57.9321L59.224 72.5503L56.6755 73.1945L57.3735 58.5763Z" fill="#6580E1" fill-opacity="0.6"/>
<path fill-rule="evenodd" clip-rule="evenodd" d="M59.9219 57.9321L60.2717 58.057L59.5737 72.6752L59.2239 72.5503L59.9219 57.9321Z" fill="#6580E1" fill-opacity="0.6"/>
<path fill-rule="evenodd" clip-rule="evenodd" d="M60.2717 58.0569L60.4316 57.7131L59.7336 72.3313L59.5737 72.675L60.2717 58.0569Z" fill="#6580E1" fill-opacity="0.6"/>
<path fill-rule="evenodd" clip-rule="evenodd" d="M60.4316 57.7131L60.9613 57.7676L60.2633 72.3857L59.7336 72.3313L60.4316 57.7131Z" fill="#6580E1" fill-opacity="0.6"/>
<path fill-rule="evenodd" clip-rule="evenodd" d="M60.9612 57.7677L61.251 57.3318L60.553 71.95L60.2632 72.3858L60.9612 57.7677Z" fill="#6580E1" fill-opacity="0.6"/>
<path fill-rule="evenodd" clip-rule="evenodd" d="M61.251 57.3317L61.8206 57.0598L61.1226 71.678L60.553 71.9499L61.251 57.3317Z" fill="#6580E1" fill-opacity="0.6"/>
<path fill-rule="evenodd" clip-rule="evenodd" d="M61.8208 57.0598L62.1606 57.164L61.4626 71.7821L61.1228 71.678L61.8208 57.0598Z" fill="#6580E1" fill-opacity="0.6"/>
<path fill-rule="evenodd" clip-rule="evenodd" d="M62.1606 57.1641L63.2899 56.4973L62.592 71.1155L61.4626 71.7823L62.1606 57.1641Z" fill="#6580E1" fill-opacity="0.6"/>
<path fill-rule="evenodd" clip-rule="evenodd" d="M63.2898 56.4971L65.8282 55.5935L65.1302 70.2117L62.5918 71.1153L63.2898 56.4971Z" fill="#6580E1" fill-opacity="0.6"/>
<path fill-rule="evenodd" clip-rule="evenodd" d="M65.8284 55.5935L66.368 56.2688L65.67 70.887L65.1304 70.2117L65.8284 55.5935Z" fill="#6580E1" fill-opacity="0.6"/>
<path fill-rule="evenodd" clip-rule="evenodd" d="M66.3679 56.2689L66.5978 56.2134L65.8998 70.8315L65.6699 70.8871L66.3679 56.2689Z" fill="#6580E1" fill-opacity="0.6"/>
<path fill-rule="evenodd" clip-rule="evenodd" d="M66.5979 56.2134L68.6466 56.859L67.9487 71.4772L65.8999 70.8315L66.5979 56.2134Z" fill="#6580E1" fill-opacity="0.6"/>
<path fill-rule="evenodd" clip-rule="evenodd" d="M68.6465 56.859L69.466 56.7981L68.768 71.4163L67.9485 71.4772L68.6465 56.859Z" fill="#6580E1" fill-opacity="0.6"/>
<path fill-rule="evenodd" clip-rule="evenodd" d="M69.4661 56.7981L70.0857 57.1754L69.3877 71.7935L68.7681 71.4163L69.4661 56.7981Z" fill="#6580E1" fill-opacity="0.6"/>
<path fill-rule="evenodd" clip-rule="evenodd" d="M70.0857 57.1755L70.3955 56.8083L69.6975 71.4265L69.3877 71.7937L70.0857 57.1755Z" fill="#6580E1" fill-opacity="0.6"/>
<path fill-rule="evenodd" clip-rule="evenodd" d="M70.3955 56.8082L70.8952 55.116L70.1972 69.7341L69.6975 71.4264L70.3955 56.8082Z" fill="#6580E1" fill-opacity="0.6"/>
<path fill-rule="evenodd" clip-rule="evenodd" d="M70.8953 55.116L72.0645 57.3487L71.3666 71.9668L70.1973 69.7341L70.8953 55.116Z" fill="#6580E1" fill-opacity="0.6"/>
<path fill-rule="evenodd" clip-rule="evenodd" d="M72.0644 57.3488L73.3037 57.2031L72.6057 71.8213L71.3665 71.967L72.0644 57.3488Z" fill="#6580E1" fill-opacity="0.6"/>
<path fill-rule="evenodd" clip-rule="evenodd" d="M73.3037 57.203L75.8322 56.6265L75.1342 71.2446L72.6057 71.8211L73.3037 57.203Z" fill="#6580E1" fill-opacity="0.6"/>
<path fill-rule="evenodd" clip-rule="evenodd" d="M75.8323 56.6267L75.5525 56.1558L74.8545 70.7739L75.1343 71.2448L75.8323 56.6267Z" fill="#6580E1" fill-opacity="0.6"/>
<path fill-rule="evenodd" clip-rule="evenodd" d="M75.5525 56.1556L76.6218 54.9485L75.9238 69.5667L74.8545 70.7738L75.5525 56.1556Z" fill="#6580E1" fill-opacity="0.6"/>
<path fill-rule="evenodd" clip-rule="evenodd" d="M76.6218 54.9486L75.8623 53.5652L75.1643 68.1833L75.9238 69.5667L76.6218 54.9486Z" fill="#6580E1" fill-opacity="0.6"/>
<path fill-rule="evenodd" clip-rule="evenodd" d="M75.8623 53.5651L76.362 52.1252L75.664 66.7434L75.1643 68.1833L75.8623 53.5651Z" fill="#6580E1" fill-opacity="0.6"/>
<path fill-rule="evenodd" clip-rule="evenodd" d="M76.3618 52.1252L76.042 51.8511L75.344 66.4692L75.6638 66.7434L76.3618 52.1252Z" fill="#6580E1" fill-opacity="0.6"/>
<path fill-rule="evenodd" clip-rule="evenodd" d="M76.042 51.8512L76.5617 50.8005L75.8637 65.4187L75.344 66.4693L76.042 51.8512Z" fill="#6580E1" fill-opacity="0.6"/>
<path fill-rule="evenodd" clip-rule="evenodd" d="M76.5618 50.8005L75.3325 49.7734L74.6345 64.3916L75.8638 65.4187L76.5618 50.8005Z" fill="#6580E1" fill-opacity="0.6"/>
<path fill-rule="evenodd" clip-rule="evenodd" d="M75.3325 49.7734L75.4424 49.4897L74.7445 64.1079L74.6345 64.3915L75.3325 49.7734Z" fill="#6580E1" fill-opacity="0.6"/>
<path fill-rule="evenodd" clip-rule="evenodd" d="M75.4425 49.4897L75.0828 49.0918L74.3848 63.71L74.7445 64.1079L75.4425 49.4897Z" fill="#6580E1" fill-opacity="0.6"/>
<path fill-rule="evenodd" clip-rule="evenodd" d="M75.0826 49.0918L74.7029 47.9431L74.0049 62.5613L74.3847 63.7099L75.0826 49.0918Z" fill="#6580E1" fill-opacity="0.6"/>
<path fill-rule="evenodd" clip-rule="evenodd" d="M74.7029 47.9431L78.5405 49.2414L77.8425 63.8596L74.0049 62.5613L74.7029 47.9431Z" fill="#6580E1" fill-opacity="0.6"/>
<path fill-rule="evenodd" clip-rule="evenodd" d="M78.5406 49.2414L77.1814 47.8223L76.4834 62.4404L77.8426 63.8596L78.5406 49.2414Z" fill="#6580E1" fill-opacity="0.6"/>
<path fill-rule="evenodd" clip-rule="evenodd" d="M77.1814 47.8222L77.0315 46.6794L76.3335 61.2976L76.4834 62.4404L77.1814 47.8222Z" fill="#6580E1" fill-opacity="0.6"/>
<path fill-rule="evenodd" clip-rule="evenodd" d="M77.0315 46.6796L77.6811 45.1821L76.9831 59.8003L76.3335 61.2977L77.0315 46.6796Z" fill="#6580E1" fill-opacity="0.6"/>
<path fill-rule="evenodd" clip-rule="evenodd" d="M77.6812 45.1821L75.5325 44.8203L74.8345 59.4385L76.9832 59.8003L77.6812 45.1821Z" fill="#6580E1" fill-opacity="0.6"/>
<path fill-rule="evenodd" clip-rule="evenodd" d="M75.5325 44.8204L76.7417 43.9102L76.0437 58.5283L74.8345 59.4386L75.5325 44.8204Z" fill="#6580E1" fill-opacity="0.6"/>
<path fill-rule="evenodd" clip-rule="evenodd" d="M76.7417 43.9101L76.7817 42.8813L76.0837 57.4995L76.0437 58.5283L76.7417 43.9101Z" fill="#6580E1" fill-opacity="0.6"/>
<path fill-rule="evenodd" clip-rule="evenodd" d="M76.7816 42.8814L75.9021 42.4497L75.2041 57.0679L76.0836 57.4995L76.7816 42.8814Z" fill="#6580E1" fill-opacity="0.6"/>
<path fill-rule="evenodd" clip-rule="evenodd" d="M75.9022 42.4497L75.0727 42.8241L74.3748 57.4422L75.2043 57.0679L75.9022 42.4497Z" fill="#6580E1" fill-opacity="0.6"/>
<path fill-rule="evenodd" clip-rule="evenodd" d="M75.0727 42.824L74.603 42.8665L73.905 57.4847L74.3747 57.4421L75.0727 42.824Z" fill="#6580E1" fill-opacity="0.6"/>
<path fill-rule="evenodd" clip-rule="evenodd" d="M74.6029 42.8665L74.1931 44.2745L73.4951 58.8927L73.9049 57.4846L74.6029 42.8665Z" fill="#6580E1" fill-opacity="0.6"/>
<path fill-rule="evenodd" clip-rule="evenodd" d="M74.1932 44.2748L73.6435 42.6853L72.9456 57.3035L73.4952 58.8929L74.1932 44.2748Z" fill="#6580E1" fill-opacity="0.6"/>
<path fill-rule="evenodd" clip-rule="evenodd" d="M73.6435 42.6851L72.834 42.0029L72.136 56.6211L72.9455 57.3033L73.6435 42.6851Z" fill="#6580E1" fill-opacity="0.6"/>
<path fill-rule="evenodd" clip-rule="evenodd" d="M72.834 42.003L72.5342 41.2656L71.8362 55.8838L72.136 56.6212L72.834 42.003Z" fill="#6580E1" fill-opacity="0.6"/>
<path fill-rule="evenodd" clip-rule="evenodd" d="M72.5342 41.2656L73.4336 39.5291L72.7356 54.1472L71.8362 55.8838L72.5342 41.2656Z" fill="#6580E1" fill-opacity="0.6"/>
<path fill-rule="evenodd" clip-rule="evenodd" d="M73.4336 39.5291L74.0432 40.0084L73.3452 54.6265L72.7356 54.1472L73.4336 39.5291Z" fill="#6580E1" fill-opacity="0.6"/>
<path fill-rule="evenodd" clip-rule="evenodd" d="M74.0432 40.0083L74.7528 40.1765L74.0548 54.7946L73.3452 54.6265L74.0432 40.0083Z" fill="#6580E1" fill-opacity="0.6"/>
<path fill-rule="evenodd" clip-rule="evenodd" d="M74.7529 40.1764L75.1927 39.0078L74.4947 53.626L74.0549 54.7946L74.7529 40.1764Z" fill="#6580E1" fill-opacity="0.6"/>
<path fill-rule="evenodd" clip-rule="evenodd" d="M75.1926 39.0078L75.0427 38.281L74.3447 52.8992L74.4946 53.6259L75.1926 39.0078Z" fill="#6580E1" fill-opacity="0.6"/>
<path fill-rule="evenodd" clip-rule="evenodd" d="M75.0427 38.2811L73.8235 37.9363L73.1255 52.5544L74.3447 52.8993L75.0427 38.2811Z" fill="#6580E1" fill-opacity="0.6"/>
<path fill-rule="evenodd" clip-rule="evenodd" d="M73.8235 37.9363L72.3044 37.8975L71.6064 52.5156L73.1255 52.5544L73.8235 37.9363Z" fill="#6580E1" fill-opacity="0.6"/>
<path fill-rule="evenodd" clip-rule="evenodd" d="M72.3044 37.8974L71.6948 36.7429L70.9968 51.3611L71.6065 52.5156L72.3044 37.8974Z" fill="#6580E1" fill-opacity="0.6"/>
<path fill-rule="evenodd" clip-rule="evenodd" d="M71.6948 36.743V34.9834L70.9968 49.6016V51.3611L71.6948 36.743Z" fill="#6580E1" fill-opacity="0.6"/>
<path fill-rule="evenodd" clip-rule="evenodd" d="M71.6948 34.9833L73.064 34.6023L72.366 49.2205L70.9968 49.6015L71.6948 34.9833Z" fill="#6580E1" fill-opacity="0.6"/>
<path fill-rule="evenodd" clip-rule="evenodd" d="M73.064 34.6024L73.8235 34.0012L73.1255 48.6194L72.366 49.2206L73.064 34.6024Z" fill="#6580E1" fill-opacity="0.6"/>
<path fill-rule="evenodd" clip-rule="evenodd" d="M73.8233 34.0011L69.5759 30.885L68.8779 45.5032L73.1253 48.6193L73.8233 34.0011Z" fill="#6580E1" fill-opacity="0.6"/>
<path fill-rule="evenodd" clip-rule="evenodd" d="M69.576 30.885L65.9282 27.5796L65.2302 42.1978L68.878 45.5031L69.576 30.885Z" fill="#6580E1" fill-opacity="0.6"/>
<path fill-rule="evenodd" clip-rule="evenodd" d="M65.9282 27.5798L65.7783 26.5393L65.0803 41.1575L65.2302 42.1979L65.9282 27.5798Z" fill="#6580E1" fill-opacity="0.6"/>
<path fill-rule="evenodd" clip-rule="evenodd" d="M65.7783 26.5391L66.3779 25.2041L65.68 39.8223L65.0803 41.1573L65.7783 26.5391Z" fill="#6580E1" fill-opacity="0.6"/>
<path fill-rule="evenodd" clip-rule="evenodd" d="M66.3779 25.2042L67.1375 24.8076L66.4395 39.4258L65.6799 39.8224L66.3779 25.2042Z" fill="#6580E1" fill-opacity="0.6"/>
<path fill-rule="evenodd" clip-rule="evenodd" d="M67.1374 24.8074L68.6565 24.6416L67.9585 39.2598L66.4395 39.4256L67.1374 24.8074Z" fill="#6580E1" fill-opacity="0.6"/>
<path fill-rule="evenodd" clip-rule="evenodd" d="M68.6565 24.6416L69.7258 24.1506L69.0278 38.7688L67.9585 39.2598L68.6565 24.6416Z" fill="#6580E1" fill-opacity="0.6"/>
<path fill-rule="evenodd" clip-rule="evenodd" d="M69.7258 24.1508L70.8751 22.7139L70.1771 37.332L69.0278 38.769L69.7258 24.1508Z" fill="#6580E1" fill-opacity="0.6"/>
<path fill-rule="evenodd" clip-rule="evenodd" d="M70.8753 22.7138L70.0059 21.6345L69.3079 36.2527L70.1773 37.332L70.8753 22.7138Z" fill="#6580E1" fill-opacity="0.6"/>
<path fill-rule="evenodd" clip-rule="evenodd" d="M70.0057 21.6344L68.8264 21.3179L68.1284 35.936L69.3077 36.2526L70.0057 21.6344Z" fill="#6580E1" fill-opacity="0.6"/>
<path fill-rule="evenodd" clip-rule="evenodd" d="M68.8264 21.3179L69.0263 18.3835L68.3283 33.0017L68.1284 35.936L68.8264 21.3179Z" fill="#6580E1" fill-opacity="0.6"/>
<path fill-rule="evenodd" clip-rule="evenodd" d="M69.0262 18.3835L67.4172 17.7764L66.7192 32.3945L68.3283 33.0017L69.0262 18.3835Z" fill="#6580E1" fill-opacity="0.6"/>
<path fill-rule="evenodd" clip-rule="evenodd" d="M67.4173 17.7763L66.7178 17.2061L66.0198 31.8242L66.7193 32.3945L67.4173 17.7763Z" fill="#6580E1" fill-opacity="0.6"/>
<path fill-rule="evenodd" clip-rule="evenodd" d="M66.7178 17.2062L65.3586 15.0027L64.6606 29.6208L66.0198 31.8243L66.7178 17.2062Z" fill="#6580E1" fill-opacity="0.6"/>
<path fill-rule="evenodd" clip-rule="evenodd" d="M65.3585 15.0027L63.6096 14.1465L62.9116 28.7646L64.6606 29.6209L65.3585 15.0027Z" fill="#6580E1" fill-opacity="0.6"/>
<path fill-rule="evenodd" clip-rule="evenodd" d="M63.6097 14.1465L63.4997 14.4574L62.8018 29.0756L62.9117 28.7646L63.6097 14.1465Z" fill="#6580E1" fill-opacity="0.6"/>
<path fill-rule="evenodd" clip-rule="evenodd" d="M63.4998 14.4573L61.4011 15.4199L60.7031 30.038L62.8018 29.0754L63.4998 14.4573Z" fill="#6580E1" fill-opacity="0.6"/>
<path fill-rule="evenodd" clip-rule="evenodd" d="M61.4011 15.4199L61.2312 15.6202L60.5332 30.2383L60.7031 30.0381L61.4011 15.4199Z" fill="#6580E1" fill-opacity="0.6"/>
<path fill-rule="evenodd" clip-rule="evenodd" d="M61.2312 15.6201L61.601 16.2365L60.903 30.8547L60.5332 30.2383L61.2312 15.6201Z" fill="#6580E1" fill-opacity="0.6"/>
<path fill-rule="evenodd" clip-rule="evenodd" d="M61.6009 16.2366L61.1611 16.464L60.4631 31.0822L60.9029 30.8547L61.6009 16.2366Z" fill="#6580E1" fill-opacity="0.6"/>
<path fill-rule="evenodd" clip-rule="evenodd" d="M61.1612 16.4641L60.7515 16.1672L60.0535 30.7854L60.4632 31.0823L61.1612 16.4641Z" fill="#6580E1" fill-opacity="0.6"/>
<path fill-rule="evenodd" clip-rule="evenodd" d="M60.7515 16.1673L61.1212 16.054L60.4232 30.6721L60.0535 30.7854L60.7515 16.1673Z" fill="#6580E1" fill-opacity="0.6"/>
<path fill-rule="evenodd" clip-rule="evenodd" d="M61.1212 16.0538L60.7314 15.9143L60.0334 30.5325L60.4232 30.672L61.1212 16.0538Z" fill="#6580E1" fill-opacity="0.6"/>
<path fill-rule="evenodd" clip-rule="evenodd" d="M60.7315 15.9142L60.6316 15.6252L59.9336 30.2434L60.0335 30.5324L60.7315 15.9142Z" fill="#6580E1" fill-opacity="0.6"/>
<path fill-rule="evenodd" clip-rule="evenodd" d="M60.6314 15.6252L60.5215 15.9771L59.8235 30.5952L59.9334 30.2434L60.6314 15.6252Z" fill="#6580E1" fill-opacity="0.6"/>
<path fill-rule="evenodd" clip-rule="evenodd" d="M60.5216 15.9772L60.3118 15.9172L59.6138 30.5354L59.8236 30.5953L60.5216 15.9772Z" fill="#6580E1" fill-opacity="0.6"/>
<path fill-rule="evenodd" clip-rule="evenodd" d="M60.3118 15.9173L60.3417 15.5293L59.6438 30.1475L59.6138 30.5354L60.3118 15.9173Z" fill="#6580E1" fill-opacity="0.6"/>
<path fill-rule="evenodd" clip-rule="evenodd" d="M60.3416 15.5293L60.0618 15.5085L59.3638 30.1267L59.6436 30.1475L60.3416 15.5293Z" fill="#6580E1" fill-opacity="0.6"/>
<path fill-rule="evenodd" clip-rule="evenodd" d="M60.0618 15.5085L59.9519 15.799L59.2539 30.4172L59.3638 30.1267L60.0618 15.5085Z" fill="#6580E1" fill-opacity="0.6"/>
<path fill-rule="evenodd" clip-rule="evenodd" d="M59.9519 15.7988L59.0225 15.8638L58.3245 30.4819L59.2539 30.417L59.9519 15.7988Z" fill="#6580E1" fill-opacity="0.6"/>
<path fill-rule="evenodd" clip-rule="evenodd" d="M59.0225 15.8639L58.303 15.6819L57.605 30.3L58.3245 30.4821L59.0225 15.8639Z" fill="#6580E1" fill-opacity="0.6"/>
<path fill-rule="evenodd" clip-rule="evenodd" d="M58.3029 15.6818L56.8938 14.3022L56.1958 28.9204L57.6049 30.2999L58.3029 15.6818Z" fill="#6580E1" fill-opacity="0.6"/>
<path fill-rule="evenodd" clip-rule="evenodd" d="M56.8936 14.3022L56.0242 11.3337L55.3262 25.9519L56.1956 28.9203L56.8936 14.3022Z" fill="#6580E1" fill-opacity="0.6"/>
<path fill-rule="evenodd" clip-rule="evenodd" d="M56.0242 11.3337L55.5945 11.6433L54.8965 26.2615L55.3262 25.9519L56.0242 11.3337Z" fill="#6580E1" fill-opacity="0.6"/>
<path fill-rule="evenodd" clip-rule="evenodd" d="M55.5946 11.6434L52.4365 11.5696L51.7385 26.1877L54.8966 26.2616L55.5946 11.6434Z" fill="#6580E1" fill-opacity="0.6"/>
<path fill-rule="evenodd" clip-rule="evenodd" d="M52.4365 11.5696L50.1279 10.4263L49.4299 25.0444L51.7385 26.1878L52.4365 11.5696Z" fill="#6580E1" fill-opacity="0.6"/>
<path fill-rule="evenodd" clip-rule="evenodd" d="M50.1279 10.4262L49.948 9.4668L49.25 24.085L49.4299 25.0444L50.1279 10.4262Z" fill="#6580E1" fill-opacity="0.6"/>
<path fill-rule="evenodd" clip-rule="evenodd" d="M49.948 9.4669L49.6182 9.24023L48.9202 23.8584L49.25 24.0851L49.948 9.4669Z" fill="#6580E1" fill-opacity="0.6"/>
<path fill-rule="evenodd" clip-rule="evenodd" d="M49.6182 9.24023L49.0486 9.35527L48.3506 23.9734L48.9202 23.8584L49.6182 9.24023Z" fill="#6580E1" fill-opacity="0.6"/>
<path fill-rule="evenodd" clip-rule="evenodd" d="M49.0486 9.35512L48.269 8.50317L47.571 23.1213L48.3506 23.9733L49.0486 9.35512Z" fill="#6580E1" fill-opacity="0.6"/>
<path fill-rule="evenodd" clip-rule="evenodd" d="M48.269 8.50322L47.9092 6.26392L47.2112 20.8821L47.571 23.1214L48.269 8.50322Z" fill="#6580E1" fill-opacity="0.6"/>
<path fill-rule="evenodd" clip-rule="evenodd" d="M47.9091 6.26385L47.2495 5.58545L46.5515 20.2036L47.2111 20.882L47.9091 6.26385Z" fill="#6580E1" fill-opacity="0.6"/>
<path fill-rule="evenodd" clip-rule="evenodd" d="M47.2495 5.58545V5.58545L46.5515 20.2036V20.2036L47.2495 5.58545Z" fill="#6580E1" fill-opacity="0.6"/>
<path d="M47.2496 5.58565L45.031 4.922L44.6412 4.23005L44.6512 3.37102L44.3414 2.87887L44.6412 1.80213L44.2315 0.516333L43.272 0.444085L43.2321 1.61613L42.3626 1.62119L42.1727 0L41.2133 0.739335L41.5931 1.28101L41.5131 1.85865L41.3032 1.85329L40.7536 1.34141L40.4338 1.68106L39.5743 1.87736L36.756 3.85816L31.6291 3.50219L32.0789 5.66195L30.7097 4.9382L29.7803 5.22133L29.0307 5.0726L27.9514 4.53354L27.9014 4.17082L27.5316 3.94314L27.2218 4.16712L26.972 4.03794L27.3518 3.80213L26.872 3.46253L26.5522 3.65213L26.2025 3.4727L26.2424 2.83947L24.3236 3.56112L24.4235 3.7137L24.3036 3.80612L24.1937 3.69422L23.5441 5.02114L23.8139 5.36221L23.9738 5.31176L23.9638 5.81617L23.5441 5.94186L23.1243 5.86975L22.9045 6.15056L22.5247 6.01128L22.7546 6.48773L22.5747 6.42858L22.2049 7.06703L12.2809 9.72572L10.1422 9.61653L10.0023 9.87894L10.2122 10.2253L10.0323 10.2821L9.82244 11.0951L10.512 11.2969L10.3921 11.8258L10.8118 13.0027L10.4021 13.4833L11.0517 14.2842L10.2222 14.6244L9.66253 14.5692L8.20342 14.9616L7.99355 15.5905L8.17344 15.5678L8.50324 19.3955L6.5944 19.7354L5.4451 19.6447L2.86668 20.3632L0.697998 22.1764L1.89727 22.8277L2.26704 22.7689L2.80671 22.9396L2.93663 23.1134L2.57685 23.2542L2.71677 23.6193L2.9966 23.6537L3.21646 23.1887L3.13651 22.7366L3.59623 22.9529L3.45632 23.5495L4.56564 23.7211L4.6256 24.1795L4.31579 24.3558L4.93542 25.3673L5.57503 25.7997L6.04474 25.9139L6.58441 25.8254L6.61439 25.9967L7.24401 26.3265L7.0941 27.2843L8.63316 27.726L8.78307 28.2072L7.16406 28.6501L7.49386 29.1904L8.13347 28.9272L9.01293 29.9385L10.0723 30.7499L9.89239 31.5296L9.44267 31.6681L9.65254 31.919L9.29276 32.851L8.72311 33.5253L8.46326 33.6005L8.0735 33.3927L6.89422 33.7309L7.02414 34.0343L6.55443 34.3087L6.15467 34.2167L6.02475 34.5203L5.31518 34.8295L5.69495 35.8485L5.55504 36.0428L4.28581 36.1126L4.49568 36.7386L5.26521 37.2834L4.33578 37.437L4.52566 38.0352L5.52506 37.7674L5.65498 37.1433L5.97478 37.1174L6.07472 37.3314L6.47448 37.2938L6.34456 38.068L6.7643 38.5493L6.08471 39.5004L4.72554 38.6541L5.84486 40.565L4.18587 41.2796L4.07594 42.2316L2.83669 43.1002L2.21707 42.8525L4.57563 46.1045L5.02536 46.3342L5.26521 46.1357L6.69434 46.2404L6.89422 46.9276L6.40452 47.0242L6.97417 48.2118L4.90543 48.4931L5.24523 49.477L4.84547 48.969L4.67557 49.0328L4.78551 49.5062L4.35577 49.3588L4.15589 49.5311L3.72615 49.5405L4.01598 50.0322L3.94602 50.3032L1.96722 49.8434L1.92725 49.7197L1.45753 49.8441L2.47691 52.2298L1.44754 52.7218L2.68679 53.756L2.81671 54.0799L3.11652 54.1762L3.976 55.6235L3.78612 55.8915L4.18587 56.2495L4.20586 56.6115L6.01476 56.6849L6.18465 56.928L6.31457 56.6858L8.19343 56.7474L10.592 57.552L10.9717 57.2889L13.4702 58.7372L14.9293 59.3678L17.048 59.3333L17.2979 59.8989L17.7576 59.781L17.4078 59.1924L18.9269 59.2449L20.9257 58.6003L22.9344 58.8493L23.2942 58.197L24.2936 58.3521L23.8939 60.0401L25.233 60.729L27.7615 62.5054L24.1937 63.3554L23.9938 63.0434L23.2542 62.9836L23.1143 63.396L22.8745 63.3763L23.1343 63.5943L23.644 63.6619L23.654 64.3987L24.0138 64.442L24.0438 64.6406L24.7633 64.7271L24.2636 64.9394L22.9444 65.0353L23.0244 65.2761L24.1637 65.4211L24.3136 65.6636L24.7433 65.7019L23.8839 67.3713L26.2124 67.8672L27.1019 67.7263L27.7715 68.3913L28.1113 69.2252L28.611 69.7699L28.8508 69.8579L29.0707 69.6589L29.6903 69.6883L30.6198 70.0872L30.7297 69.9809L30.29 69.7719L30.17 69.496L30.3199 69.418L30.0401 69.2335L30.4499 69.1621L30.7397 68.849L31.6891 68.7028L32.6085 68.9649L32.9383 68.5164L33.568 68.6962L33.6979 68.4744L34.3075 68.7219L33.8678 68.9084L34.2475 69.2182L34.9771 68.9027L35.3269 68.4137L37.5056 68.4012L38.355 68.1842L39.1046 68.5716L39.0846 69.0076L39.6742 69.0226L40.024 68.8338L40.9235 69.2114L42.3726 71.4308L43.1621 70.7894L42.7624 69.6675L41.633 68.6907L42.1827 68.6025L42.2127 68.2009L42.5525 68.3459L43.5919 67.7655L43.1721 67.1001L40.8735 67.5529L41.2033 67.0975L40.9834 66.785L41.1533 66.4552L39.7442 66.0782L41.2133 65.1541L41.8529 65.034L42.5625 65.3863L44.0216 65.028L48.1791 63.5383L48.4889 63.2939L48.9386 63.2986L49.4783 63.5374L49.6182 63.3773L50.9873 63.2008L52.0767 63.4537L52.1866 63.3474L51.8068 62.8467L51.9967 62.5173L53.4359 62.5064L54.9849 62.2799L56.404 61.075L56.454 60.8375L56.7139 60.8237L57.1936 60.4472L56.1342 59.6563L55.8144 59.0821L56.3841 58.7352L56.2641 58.6503L56.554 58.2621L57.3735 58.5763L59.9219 57.9321L60.2717 58.057L60.4316 57.7133L60.9613 57.7677L61.2511 57.3318L61.8207 57.0599L62.1605 57.1641L63.2898 56.4973L65.8283 55.5937L66.368 56.269L66.5978 56.2135L68.6466 56.8592L69.4661 56.7982L70.0857 57.1755L70.3955 56.8083L70.8952 55.1161L72.0645 57.3488L73.3037 57.2032L75.8322 56.6267L75.5524 56.1557L76.6217 54.9486L75.8622 53.5652L76.3619 52.1253L76.0421 51.8512L76.5618 50.8006L75.3325 49.7734L75.4424 49.4898L75.0827 49.0919L74.7029 47.9432L78.5406 49.2416L77.1814 47.8224L77.0315 46.6796L77.6811 45.1822L75.5324 44.8204L76.7416 43.9101L76.7816 42.8814L75.9022 42.4497L75.0727 42.8241L74.603 42.8666L74.1932 44.2747L73.6435 42.6853L72.834 42.0031L72.5342 41.2657L73.4337 39.5291L74.0433 40.0084L74.7529 40.1766L75.1926 39.0079L75.0427 38.2812L73.8234 37.9363L72.3044 37.8975L71.6947 36.743V34.9835L73.0639 34.6024L73.8234 34.0012L69.576 30.8851L65.9282 27.5797L65.7783 26.5393L66.378 25.2042L67.1375 24.8076L68.6566 24.6418L69.7259 24.1508L70.8752 22.7139L70.0058 21.6346L68.8265 21.318L69.0264 18.3837L67.4173 17.7765L66.7178 17.2062L65.3586 15.0028L63.6096 14.1465L63.4997 14.4574L61.401 15.42L61.2311 15.6203L61.6009 16.2367L61.1611 16.4642L60.7514 16.1673L61.1212 16.054L60.7314 15.9144L60.6315 15.6254L60.5215 15.9773L60.3117 15.9173L60.3416 15.5294L60.0618 15.5086L59.9519 15.799L59.0224 15.864L58.3029 15.6819L56.8937 14.3024L56.0243 11.3339L55.5945 11.6435L52.4365 11.5697L50.1279 10.4263L49.948 9.46693L49.6182 9.24027L49.0485 9.3553L48.269 8.50336L47.9092 6.26405L47.2496 5.58565Z" fill="white"/>
</svg>
